<?xml version="1.0" encoding="utf-8"?>
<!-- Generator: Adobe Illustrator 26.5.0, SVG Export Plug-In . SVG Version: 6.00 Build 0)  -->
<svg version="1.1" xmlns="http://www.w3.org/2000/svg" xmlns:xlink="http://www.w3.org/1999/xlink" x="0px" y="0px"
	 viewBox="0 0 500 500" style="enable-background:new 0 0 500 500;" xml:space="preserve">
<style type="text/css">
	.st0{fill:#FFFFFF;}
	.st1{font-family:'FarmWaveFree-Regular';}
	.st2{font-size:204.5244px;}
	.st3{fill:#131B2A;}
	.st4{fill:#DC8D5C;}
	.st5{fill:#355775;}
</style>
<g id="Layer_2">
</g>
<g id="Layer_1">
	<text transform="matrix(1 0 0 1 0.7505 347.957)" class="st0 st1 st2">Y</text>
	<g>
		<g>
			<g>
				<path class="st3" d="M106.1,328.03c0,0,3.96,2.89,5.13,5.94c1.17,3.05-0.14,8.23-1.13,8.64c-1.51,0.63-0.01,0.27-0.01,0.27
					s-1.79,2.3-6.97,3.65c-4.17,1.09-3.57-2.13-4.9-2.19c-1.33-0.06-1.89-4.26,1.2-4.44c3.09-0.18,4.63-0.19,6.53-2.18
					C107.85,335.72,101.66,335.62,106.1,328.03z"/>
				<path class="st4" d="M106.92,340.83c0,0-7.52,1.59-8.59,0.92c-1.07-0.67-3.68-10.33-1.17-13.13c2.51-2.81,7.5-2.24,8.46-0.36
					C106.57,330.14,106.92,340.83,106.92,340.83z"/>
				<path class="st4" d="M106.43,330.25l-0.89-7.01c-0.19-1.53-1.42-2.71-2.95-2.85c-0.47-0.04-0.74-0.57-1.24-0.65
					c-1.19-0.17-2.79,0.71-2.45,2.68l0.54,8.22L106.43,330.25z"/>
				<path class="st4" d="M105.41,334.46c0,0,1.11,2.86,2.81,1.19c1.69-1.68,0.05-5.42-2.45-5.8
					C103.27,329.47,105.41,334.46,105.41,334.46z"/>
				<path class="st3" d="M97.31,342.21c0,0-0.3-1.41,2.02-3.21c0.95-0.74,6.62,0.89,6.62,0.89s-0.89-4.49-0.3-4.95
					c0.6-0.46,1.53,1.39,2.67,2.35C113.03,341.28,101.86,345.48,97.31,342.21z"/>
				<path class="st3" d="M99.87,326.88c2.44-0.56,4.38,0.63,4.48,0.69c0.12,0.07,0.15,0.23,0.08,0.35
					c-0.07,0.12-0.23,0.15-0.35,0.08c-0.03-0.02-2.54-1.55-5.3-0.2c-0.12,0.06-0.28,0.01-0.34-0.12c-0.06-0.13-0.01-0.28,0.12-0.34
					C99,327.13,99.44,326.98,99.87,326.88z"/>
				<path class="st3" d="M102.56,334.36c-0.08-0.33-0.29-0.56-0.48-0.52s-0.28,0.35-0.2,0.68c0.08,0.33,0.29,0.56,0.48,0.52
					C102.54,334.99,102.63,334.69,102.56,334.36z"/>
				<path class="st3" d="M97.97,334.98c-0.08-0.33-0.29-0.56-0.48-0.52c-0.19,0.04-0.2,0.34-0.2,0.68c0,0.63,0.26,0.68,0.48,0.52
					C97.93,335.55,98.05,335.31,97.97,334.98z"/>
				<path class="st3" d="M103.9,335.57c0.03-0.01,0.07-0.01,0.11,0c0.14,0.03,0.23,0.16,0.2,0.3c-0.09,0.43-0.53,1.24-1.6,1.25
					c-0.14,0-0.25-0.11-0.26-0.25c0-0.14,0.11-0.25,0.25-0.26c0.93-0.01,1.1-0.81,1.11-0.85
					C103.73,335.67,103.8,335.59,103.9,335.57z"/>
				<path class="st3" d="M96.23,336.52c0.13-0.03,0.27,0.05,0.3,0.18c0.22,0.87,1.07,0.86,1.11,0.86c0.14,0,0.25,0.11,0.26,0.25
					c0,0.14-0.11,0.26-0.25,0.26c-0.45,0.01-1.36-0.24-1.61-1.24C96.01,336.69,96.09,336.55,96.23,336.52
					C96.23,336.52,96.23,336.52,96.23,336.52z"/>
				<path class="st3" d="M109.55,337.97c0,0,4.52-1.73,6.73,2.24c1.3,2.33,1.07,5.79-1.03,7.05c-0.69,0.41-3.82,2.26-4.73,0.09
					c-1.79-4.24-4.34-6.09-4.33-6.88C106.2,339.66,109.55,337.97,109.55,337.97z"/>
			</g>
			<path class="st3" d="M106.33,332.22c0-0.03,0.01-0.07,0.03-0.1c0.06-0.13,0.21-0.18,0.34-0.12c0.39,0.19,1.07,0.82,0.82,1.86
				c-0.03,0.14-0.17,0.22-0.3,0.19c-0.14-0.03-0.22-0.17-0.19-0.3c0.22-0.9-0.51-1.27-0.55-1.28
				C106.38,332.41,106.33,332.31,106.33,332.22z"/>
		</g>
		<path class="st4" d="M112.46,299.28c-0.96,9.08-2.86,16.8-4.24,21.56c-0.45,1.53-1.33,2.86-2.5,3.84
			c-1.17,0.98-2.63,1.64-4.22,1.82c-3.09,0.36-6.12-1.12-7.73-3.79l-6.14-10.15c-2.09-3.45-1.68-7.86,1.01-10.87l3.24-3.61
			l0.28-0.31l2.55-17.38l17.08-7.22C113.41,282.21,113.3,291.28,112.46,299.28z"/>
		<path class="st0" d="M112.46,299.28c-0.96,9.08-2.86,16.8-4.24,21.56c-0.45,1.53-1.33,2.86-2.5,3.84
			c-1.17,0.98-2.63,1.64-4.22,1.82c-3.09,0.36-6.12-1.12-7.73-3.79l-6.14-10.15c-2.09-3.45-1.68-7.86,1.01-10.87l3.24-3.61
			L112.46,299.28z"/>
		<path class="st5" d="M22.21,337.22l1.89-2.15l61.05-69.33c2.21-2.03,5.09-3.42,8.21-4.13c9.33-2.15,18.35,4.74,19.12,14.29l0,0
			l-83.22,64.53L22.21,337.22z"/>
		<path class="st4" d="M107.68,318.93l-17.73,25.86l-4.21-4.18l22.61,5.11l5.05-1.95c1.18-0.45,2.5-0.32,3.56,0.35l5.92,3.75
			c0.53,0.33,0.29,1.15-0.33,1.15l-36.77-0.01l0,0c-2.26,0.19-4.2-1.58-4.21-3.85l0-0.33l14.92-29.07c2.75-3.6,5.1-4.38,7.41-4.39
			l0,0C106.21,311.36,110.22,314.28,107.68,318.93z"/>
		<path class="st4" d="M23.88,335.78l-1.4,1.18c-1.59,1.34-1.31,3.85,0.53,4.81l10.26,5.35c0.51,0.27,1.05-0.31,0.75-0.8l-3.99-6.5
			L23.88,335.78z"/>
	</g>
	<text transform="matrix(1 0 0 1 116.9316 347.957)" class="st0 st1 st2">O</text>
	<g>
		<g>
			<g>
				<path class="st3" d="M199.35,319.13c0,0,3.4-4.33,6.85-5.51c3.46-1.19,9.21,0.48,9.63,1.6c0.64,1.72,0.31,0.02,0.31,0.02
					s2.5,2.09,3.82,7.95c1.06,4.72-2.53,3.92-2.65,5.4c-0.12,1.49-4.85,1.96-4.93-1.51c-0.08-3.47-0.04-5.19-2.19-7.4
					C208.03,317.47,207.69,324.4,199.35,319.13z"/>
				<path class="st4" d="M213.72,318.72c0,0,1.49,8.49,0.69,9.66c-0.8,1.18-11.71,3.72-14.76,0.8c-3.05-2.92-2.22-8.49-0.08-9.49
					C201.73,318.69,213.72,318.72,213.72,318.72z"/>
				<path class="st4" d="M201.86,318.85l-7.89,0.73c-1.72,0.16-3.09,1.49-3.31,3.2c-0.07,0.52-0.67,0.8-0.77,1.36
					c-0.24,1.33,0.68,3.16,2.91,2.85l9.24-0.28L201.86,318.85z"/>
				<path class="st4" d="M206.53,320.16c0,0,3.25-1.14,1.44-3.1c-1.81-1.96-6.07-0.26-6.59,2.52
					C200.85,322.37,206.53,320.16,206.53,320.16z"/>
				<path class="st3" d="M214.9,329.54c0,0-1.59,0.28-3.52-2.38c-0.79-1.1,1.25-7.38,1.25-7.38s-5.06,0.83-5.55,0.14
					c-0.49-0.69,1.62-1.66,2.74-2.9C214.47,311.89,218.74,324.56,214.9,329.54z"/>
				<path class="st3" d="M197.82,326.08c-0.53-2.75,0.88-4.88,0.95-4.99c0.09-0.13,0.26-0.16,0.39-0.08
					c0.13,0.09,0.16,0.26,0.08,0.39c-0.02,0.03-1.83,2.79-0.43,5.93c0.06,0.14,0,0.31-0.14,0.37c-0.14,0.06-0.31,0-0.37-0.14
					C198.07,327.06,197.91,326.56,197.82,326.08z"/>
				<path class="st3" d="M206.3,323.35c-0.37,0.07-0.64,0.3-0.6,0.51c0.04,0.21,0.38,0.32,0.75,0.25c0.37-0.07,0.64-0.3,0.6-0.51
					C207.02,323.4,206.68,323.28,206.3,323.35z"/>
				<path class="st3" d="M206.83,328.52c-0.37,0.07-0.64,0.3-0.6,0.51c0.04,0.21,0.37,0.24,0.75,0.25c0.7,0.03,0.77-0.26,0.6-0.51
					C207.46,328.59,207.2,328.44,206.83,328.52z"/>
				<path class="st3" d="M207.72,321.9c-0.01-0.04-0.01-0.08,0-0.12c0.04-0.15,0.19-0.25,0.34-0.21c0.47,0.11,1.37,0.64,1.34,1.84
					c0,0.16-0.13,0.28-0.29,0.28c-0.16,0-0.28-0.13-0.28-0.29c0.02-1.04-0.87-1.27-0.91-1.27C207.82,322.09,207.74,322,207.72,321.9
					z"/>
				<path class="st3" d="M208.48,330.52c-0.03-0.15,0.07-0.3,0.22-0.33c0.98-0.21,1.01-1.17,1.01-1.21c0-0.16,0.13-0.28,0.29-0.28
					c0.16,0,0.28,0.13,0.28,0.29c-0.01,0.5-0.32,1.51-1.45,1.76C208.67,330.78,208.51,330.68,208.48,330.52
					C208.48,330.53,208.48,330.53,208.48,330.52z"/>
				<path class="st3" d="M210.62,315.65c0,0-1.76-5.13,2.77-7.45c2.66-1.36,6.52-0.98,7.86,1.42c0.44,0.78,2.39,4.36-0.09,5.31
					c-4.82,1.84-6.99,4.63-7.88,4.58C212.39,319.47,210.62,315.65,210.62,315.65z"/>
			</g>
			<path class="st3" d="M204.05,319.04c-0.04,0-0.08-0.01-0.11-0.03c-0.14-0.07-0.19-0.24-0.12-0.38c0.23-0.43,0.96-1.16,2.11-0.84
				c0.15,0.04,0.24,0.2,0.2,0.35c-0.04,0.15-0.2,0.24-0.35,0.2c-1-0.28-1.44,0.53-1.46,0.56C204.26,319,204.16,319.05,204.05,319.04
				z"/>
		</g>
		<path class="st5" d="M180.91,302.51c0-0.4,9.14-3.9,10.62-12.63l13.17-18.01l21.1,14.11l3.09-4.3l-18.17-19.47
			c-2.65-2.84-6.96-3.4-10.23-1.3c-7.38,4.75-20.17,14.41-28.73,28.8c-1.16,1.94-2.23,3.97-3.21,6.08L180.91,302.51z"/>
		<path class="st4" d="M194.45,323.11l-1.34,1.53c-2.17,2.48-5.4,3.78-8.69,3.5l-6.22-0.52c-2.72-0.22-5.02-2.14-5.74-4.79l-1.36-5
			c0,0,0-0.01-0.01-0.02c-0.35-0.44-7.53-10.08-2.54-22.02l12.36,6.72l5.35,6.27l8.23,9.65
			C195.65,319.78,195.63,321.77,194.45,323.11z"/>
		<path class="st0" d="M194.45,323.11l-1.34,1.53c-2.17,2.48-5.4,3.78-8.69,3.5l-6.22-0.52c-2.72-0.22-5.02-2.14-5.74-4.79l-1.36-5
			c0,0,0-0.01-0.01-0.02l15.17-9.03l8.23,9.65C195.65,319.78,195.63,321.77,194.45,323.11z"/>
		<path class="st4" d="M192.1,323.07l0.11,23.82l-4.21-4.18l22.61,5.11l5.05-1.95c1.18-0.45,2.5-0.32,3.56,0.35l5.92,3.75
			c0.53,0.33,0.29,1.15-0.33,1.15l-36.77-0.01l0,0c-2.26,0.19-4.2-1.58-4.21-3.85l0-0.33l-0.11-23.82
			c-0.01-2.32,1.86-4.21,4.18-4.22l0,0C190.2,318.88,192.09,320.75,192.1,323.07z"/>
		<path class="st4" d="M226.75,286.98l1.54,3.08l12.63-4.81c0.71-0.27,0.53-1.31-0.23-1.33l-9.41-0.21l-2.38-2.03l-3.09,4.3
			L226.75,286.98z"/>
	</g>
	<text transform="matrix(1 0 0 1 239.6323 347.957)" class="st0 st1 st2">G</text>
	<g>
		<path class="st4" d="M321.87,270.46l-0.04,11.12c-0.78,0-15.62,3.42-17.93,3.96c-0.19,0.05-0.3,0.07-0.3,0.07l-2.45,1.76
			c-1.7,1.22-3.99,1.2-5.66-0.05L285,279.16c-2.13-1.66-3.11-4.41-2.51-7.04c0.74-3.23,3.62-5.41,6.78-5.41
			c0.6,0,1.21,0.08,1.83,0.25l10.81,2.94c0.16,0.05,0.33,0.09,0.5,0.13c4.05,1.04,8.25,1.39,12.42,1.03L321.87,270.46z"/>
		<g>
			<g>
				<path class="st3" d="M279.99,270.06c0,0-3.13-3.99-6.32-5.08c-3.19-1.1-8.49,0.44-8.88,1.48c-0.59,1.58-0.28,0.02-0.28,0.02
					s-2.31,1.93-3.52,7.33c-0.98,4.35,2.33,3.61,2.44,4.98s4.47,1.8,4.55-1.39c0.08-3.2,0.03-4.78,2.02-6.82
					C271.99,268.52,272.3,274.92,279.99,270.06z"/>
				<path class="st4" d="M266.74,269.68c0,0-1.37,7.82-0.64,8.91c0.73,1.09,10.8,3.43,13.61,0.74c2.81-2.69,2.05-7.83,0.07-8.75
					C277.8,269.65,266.74,269.68,266.74,269.68z"/>
				<path class="st4" d="M277.68,269.8l7.28,0.67c1.58,0.15,2.85,1.37,3.05,2.95c0.06,0.48,0.62,0.74,0.71,1.25
					c0.22,1.23-0.63,2.91-2.68,2.62l-8.51-0.26L277.68,269.8z"/>
				<path class="st3" d="M265.66,279.65c0,0,1.46,0.26,3.24-2.2c0.73-1.01-1.15-6.81-1.15-6.81s4.67,0.76,5.12,0.13
					c0.45-0.63-1.49-1.53-2.53-2.67C266.06,263.38,262.12,275.06,265.66,279.65z"/>
				<path class="st3" d="M281.4,276.46c0.49-2.54-0.81-4.5-0.88-4.6c-0.08-0.12-0.24-0.15-0.36-0.07c-0.12,0.08-0.15,0.24-0.07,0.36
					c0.02,0.03,1.69,2.57,0.4,5.47c-0.06,0.13,0,0.29,0.13,0.35c0.13,0.06,0.29,0,0.35-0.13
					C281.17,277.37,281.32,276.9,281.4,276.46z"/>
				<path class="st3" d="M273.58,273.95c0.34,0.07,0.59,0.28,0.56,0.47c-0.04,0.2-0.35,0.3-0.69,0.23
					c-0.34-0.07-0.59-0.28-0.56-0.47S273.24,273.88,273.58,273.95z"/>
				<path class="st3" d="M272.28,272.6c0.01-0.04,0.01-0.07,0-0.11c-0.03-0.14-0.17-0.23-0.31-0.19c-0.44,0.1-1.26,0.59-1.24,1.69
					c0,0.14,0.12,0.26,0.27,0.26c0.14,0,0.26-0.12,0.26-0.27c-0.02-0.96,0.8-1.17,0.84-1.17
					C272.19,272.79,272.26,272.7,272.28,272.6z"/>
				<path class="st3" d="M269.6,266.85c0,0,1.62-4.73-2.55-6.87c-2.45-1.26-6.01-0.9-7.24,1.31c-0.4,0.72-2.2,4.02,0.08,4.89
					c4.45,1.69,6.45,4.26,7.27,4.22C267.97,270.37,269.6,266.85,269.6,266.85z"/>
			</g>
			<path class="st3" d="M275.66,269.97c0.04,0,0.07-0.01,0.11-0.03c0.13-0.07,0.18-0.23,0.11-0.35c-0.21-0.4-0.89-1.07-1.95-0.78
				c-0.14,0.04-0.22,0.18-0.18,0.32c0.04,0.14,0.18,0.22,0.32,0.18c0.92-0.26,1.33,0.49,1.35,0.52
				C275.46,269.93,275.56,269.98,275.66,269.97z"/>
		</g>
		<path class="st0" d="M303.9,285.55c-0.19,0.05-0.3,0.07-0.3,0.07l-2.45,1.76c-1.7,1.22-3.99,1.2-5.66-0.05L285,279.16
			c-2.13-1.66-3.11-4.41-2.51-7.04c0.74-3.23,3.62-5.41,6.78-5.41c0.6,0,1.21,0.08,1.83,0.25l10.81,2.94
			c0.16,0.05,0.33,0.09,0.5,0.13L303.9,285.55z"/>
		<path class="st4" d="M286.57,276.76l-45.47-2.73l-5.99,0.99l-4.14-0.3l-2.87-3.63c-0.64-0.8-0.11-1.99,0.91-2.07l7.26-0.53
			l4.72,1.62l45.71-1.38c2.22-0.07,4.07,1.68,4.13,3.9l0,0C290.89,275,288.92,276.9,286.57,276.76z"/>
		<path class="st5" d="M321.72,270.39l0.93,33.52l7.37,53.08h5.71l4.1-74.8c0.41-2.2,1.98-7.82,0.36-9.38l0,0
			c-4.92-4.74-12.37-5.7-18.33-2.35L321.72,270.39z"/>
		<path class="st5" d="M335.72,285.91c0.67-0.02,38.87,0.8,66.39-12.75c0.34-0.17,0.67-0.33,0.67-0.33l-1.64-5.24
			c0,0-38.85,7.04-65.02,4.79L335.72,285.91z"/>
		<path class="st4" d="M401.15,267.6l3.31-0.71c0.79-0.17,1.59,0.29,1.83,1.06l2.91,9.16c0.15,0.46-0.43,0.79-0.76,0.44l-4.12-4.45
			l-1.53-0.27L401.15,267.6z"/>
		<path class="st4" d="M335.6,356.68l-0.38,3.36c-0.09,0.81-0.78,1.41-1.59,1.4l-9.61-0.14c-0.48-0.01-0.61-0.66-0.18-0.86l5.53-2.5
			l0.74-1.37L335.6,356.68z"/>
	</g>
	<text transform="matrix(1 0 0 1 348.0938 346.9814)" class="st0 st1 st2">A</text>
	<g>
		<path class="st4" d="M384.57,351.72l-2.06,6.31c0,0,13.9,0.96,14.02,0.48c0.11-0.48-7-2.87-7-2.87h0.17
			c-0.01,0,2.05-4.01,2.05-4.01L384.57,351.72z"/>
		<path class="st4" d="M460.51,311.67c-0.72,0.64-1.65,0.99-2.59,0.99c-0.16,0-0.32-0.01-0.48-0.03l-10.53-1.34
			c-3.54-0.45-6.3-3.29-6.67-6.84l-0.46-4.5l-15.64-18.58l12.76-4.16l13.67,14.56l7.1,7.57
			C461.63,303.64,463.11,309.34,460.51,311.67z"/>
		<path class="st5" d="M433.99,274.56c-2.21-2.16-5.2-3.36-8.29-3.27c-11.51,0.37-15.55,6.88-22.64,24.69
			c-8.19,20.55-18.51,55.88-18.51,55.88l7.1-0.05l22.48-36.47l12.22-26.08l6.99,2.93l9.26-8.78L433.99,274.56z"/>
		<path class="st0" d="M460.51,311.67c-0.72,0.64-1.65,0.99-2.59,0.99c-0.16,0-0.32-0.01-0.48-0.03l-10.53-1.34
			c-3.54-0.45-6.3-3.29-6.67-6.84l-0.46-4.5l10.79-8.17l7.1,7.57C461.63,303.64,463.11,309.34,460.51,311.67z"/>
		<g>
			<path class="st3" d="M459.43,316.83c0,0,4.53,1.94,6.35,4.65c1.83,2.72,1.71,8.08,0.84,8.7c-1.34,0.95-2.37,0.37-2.37,0.37
				s1.2,2.54-3.57,5.04c-3.84,2.01-3.97-1.28-5.29-1.04c-1.32,0.24-2.81-3.74,0.17-4.62c2.98-0.87,4.48-1.23,5.9-3.61
				C462.87,323.96,456.8,325.26,459.43,316.83z"/>
			<path class="st4" d="M463.11,329.17c0,0-7,3.25-8.2,2.83c-1.2-0.42-5.93-9.27-4.1-12.58c1.82-3.31,6.83-3.88,8.19-2.26
				C460.36,318.79,463.11,329.17,463.11,329.17z"/>
			<path class="st4" d="M460.25,318.93l-2.46-6.66c-0.53-1.45-2-2.33-3.53-2.12c-0.47,0.06-0.85-0.4-1.36-0.35
				c-1.21,0.1-2.57,1.32-1.79,3.17l2.38,7.92L460.25,318.93z"/>
			<path class="st4" d="M460.38,321.94c0,0,1.73,2.55,3.01,0.53c1.28-2.02-1.17-5.31-3.7-5.12
				C457.16,317.53,460.38,321.94,460.38,321.94z"/>
			<path class="st3" d="M454.19,331.35c0,0,2.79-0.75,4.47-2.9c0.75-0.96,3.29,0.01,3.29,0.01s-1.6-5.41-1.12-5.99
				c0.48-0.58,1.68,0.98,3,1.66C469.34,326.97,456.44,339.02,454.19,331.35z"/>
			<path class="st3" d="M453.07,317.11c2.26-1.09,4.43-0.37,4.53-0.33c0.13,0.05,0.2,0.19,0.16,0.32c-0.05,0.13-0.19,0.2-0.32,0.16
				c-0.03-0.01-2.84-0.94-5.23,1c-0.11,0.09-0.27,0.07-0.36-0.04c-0.09-0.11-0.07-0.27,0.04-0.36
				C452.28,317.55,452.67,317.3,453.07,317.11z"/>
			<path class="st3" d="M457.39,323.82c-0.15-0.31-0.41-0.49-0.58-0.4c-0.17,0.08-0.19,0.4-0.04,0.71c0.15,0.31,0.41,0.49,0.58,0.4
				C457.52,324.44,457.54,324.13,457.39,323.82z"/>
			<path class="st3" d="M453.04,325.46c-0.15-0.31-0.41-0.49-0.58-0.4c-0.17,0.08-0.12,0.38-0.05,0.71c0.14,0.61,0.41,0.61,0.58,0.4
				C453.12,326.03,453.19,325.77,453.04,325.46z"/>
			<path class="st3" d="M458.97,324.7c0.03-0.02,0.07-0.02,0.1-0.03c0.14,0,0.26,0.11,0.26,0.25c0.01,0.44-0.24,1.33-1.28,1.59
				c-0.14,0.03-0.27-0.05-0.31-0.19c-0.03-0.14,0.05-0.27,0.19-0.31c0.9-0.22,0.89-1.05,0.89-1.08
				C458.83,324.84,458.89,324.75,458.97,324.7z"/>
			<path class="st3" d="M451.69,327.36c0.12-0.06,0.27-0.01,0.34,0.11c0.41,0.8,1.25,0.6,1.28,0.59c0.14-0.03,0.27,0.05,0.31,0.18
				c0.03,0.14-0.05,0.28-0.18,0.31c-0.43,0.11-1.38,0.07-1.86-0.85C451.51,327.58,451.56,327.43,451.69,327.36
				C451.68,327.36,451.69,327.36,451.69,327.36z"/>
			<path class="st3" d="M465.44,326.76c0,0,4.03-2.71,7.09,0.67c1.79,1.98,1.16,3.63-0.61,5.34c-0.58,0.56-0.6,1.43-1.77,1.82
				c-4.38,1.48-7.26-3.86-7.43-4.64C462.54,329.17,465.44,326.76,465.44,326.76z"/>
		</g>
		<path class="st4" d="M461.14,307.6l31.69,46.57l-3.89,2.76l-33.52-45.27c-1.17-1.58-0.81-3.81,0.79-4.95l0,0
			C457.81,305.58,460.04,305.98,461.14,307.6z"/>
		<path class="st4" d="M489.63,357.02l9.92-0.17c0.51-0.01,0.62-0.72,0.14-0.89l-8.7-3.04l-2.2,3.88L489.63,357.02z"/>
	</g>
	<g>
		<path class="st0" d="M445.38,200.75v3.16h-11.29v7.82h9.89v3.16h-9.89v10.44h-3.3v-24.58H445.38z"/>
		<path class="st0" d="M453.2,198.98v26.35h-3.16v-26.35H453.2z"/>
		<path class="st0" d="M458.48,214.37c0.67-1.14,1.6-2.05,2.79-2.7c1.19-0.66,2.53-0.99,4.03-0.99s2.83,0.33,4,0.99
			s2.07,1.55,2.72,2.69c0.65,1.13,0.97,2.4,0.97,3.81s-0.32,2.68-0.97,3.83c-0.65,1.14-1.56,2.05-2.74,2.7
			c-1.18,0.66-2.53,0.99-4.05,0.99c-1.47,0-2.8-0.31-3.98-0.93s-2.1-1.5-2.77-2.64c-0.67-1.13-1-2.45-1-3.94
			C457.48,216.78,457.81,215.51,458.48,214.37z M461.27,220.64c0.4,0.75,0.94,1.34,1.63,1.77s1.46,0.65,2.29,0.65
			c1.31,0,2.4-0.46,3.26-1.39s1.29-2.08,1.29-3.47s-0.43-2.54-1.29-3.49s-1.95-1.41-3.26-1.41c-0.86,0-1.63,0.22-2.31,0.66
			c-0.68,0.44-1.22,1.04-1.61,1.79c-0.4,0.75-0.6,1.56-0.6,2.45C460.67,219.08,460.87,219.89,461.27,220.64z"/>
		<path class="st0" d="M496.34,211.26l-6.49,14.93l-4.52-9.66l-4.11,9.66l-6.53-14.93h3.13l3.77,8.53l2.62-6.12l-1.12-2.41h2.75
			l3.81,8.74l3.57-8.74H496.34z"/>
	</g>
</g>
</svg>
