<?xml version="1.0" encoding="utf-8"?>
<!-- Generator: Adobe Illustrator 26.5.0, SVG Export Plug-In . SVG Version: 6.00 Build 0)  -->
<svg version="1.1" id="Layer_1" xmlns="http://www.w3.org/2000/svg" xmlns:xlink="http://www.w3.org/1999/xlink" x="0px" y="0px"
	 viewBox="0 0 500 277.7" style="enable-background:new 0 0 500 277.7;" xml:space="preserve">
<style type="text/css">
	.st0{fill:#FFFFFF;}
	.st1{font-family:'FarmWaveFree-Regular';}
	.st2{font-size:204.5244px;}
	.st3{fill:#131B2A;}
	.st4{fill:#DC8D5C;}
	.st5{fill:#355775;}
</style>
<g id="Layer_2_00000043448405443741282360000002910932074469429888_">
</g>
<g id="Layer_1_00000067938739589373647320000009239375730096923037_">
	<text transform="matrix(1 0 0 1 0.7505 215.5941)" class="st0 st1 st2">Y</text>
	<g>
		<g>
			<g>
				<path class="st3" d="M106.1,195.7c0,0,4,2.9,5.1,5.9s-0.1,8.2-1.1,8.6c-1.5,0.6,0,0.3,0,0.3s-1.8,2.3-7,3.6
					c-4.2,1.1-3.6-2.1-4.9-2.2s-1.9-4.3,1.2-4.4s4.6-0.2,6.5-2.2C107.8,203.4,101.7,203.3,106.1,195.7z"/>
				<path class="st4" d="M106.9,208.5c0,0-7.5,1.6-8.6,0.9c-1.1-0.7-3.7-10.3-1.2-13.1s7.5-2.2,8.5-0.4
					C106.6,197.8,106.9,208.5,106.9,208.5z"/>
				<path class="st4" d="M106.4,197.9l-0.9-7c-0.2-1.5-1.4-2.7-2.9-2.9c-0.5,0-0.7-0.6-1.2-0.6c-1.2-0.2-2.8,0.7-2.4,2.7l0.5,8.2
					L106.4,197.9z"/>
				<path class="st4" d="M105.4,202.1c0,0,1.1,2.9,2.8,1.2c1.7-1.7,0.1-5.4-2.4-5.8C103.3,197.1,105.4,202.1,105.4,202.1z"/>
				<path class="st3" d="M97.3,209.8c0,0-0.3-1.4,2-3.2c0.9-0.7,6.6,0.9,6.6,0.9s-0.9-4.5-0.3-5s1.5,1.4,2.7,2.4
					C113,208.9,101.9,213.1,97.3,209.8z"/>
				<path class="st3" d="M99.9,194.5c2.4-0.6,4.4,0.6,4.5,0.7c0.1,0.1,0.2,0.2,0.1,0.4s-0.2,0.1-0.3,0.1c0,0-2.5-1.5-5.3-0.2
					c-0.1,0.1-0.3,0-0.3-0.1s0-0.3,0.1-0.3C99,194.8,99.4,194.6,99.9,194.5z"/>
				<path class="st3" d="M102.6,202c-0.1-0.3-0.3-0.6-0.5-0.5s-0.3,0.4-0.2,0.7s0.3,0.6,0.5,0.5C102.5,202.6,102.6,202.3,102.6,202z
					"/>
				<path class="st3" d="M98,202.6c-0.1-0.3-0.3-0.6-0.5-0.5s-0.2,0.3-0.2,0.7c0,0.6,0.3,0.7,0.5,0.5
					C97.9,203.2,98.1,202.9,98,202.6z"/>
				<path class="st3" d="M103.9,203.2L103.9,203.2c0.2,0,0.3,0.2,0.3,0.3c-0.1,0.4-0.5,1.2-1.6,1.2c-0.1,0-0.2-0.1-0.3-0.2
					c0-0.1,0.1-0.2,0.2-0.3c0.9,0,1.1-0.8,1.1-0.9C103.7,203.3,103.8,203.2,103.9,203.2z"/>
				<path class="st3" d="M96.2,204.2c0.1,0,0.3,0,0.3,0.2c0.2,0.9,1.1,0.9,1.1,0.9c0.1,0,0.2,0.1,0.3,0.2c0,0.1-0.1,0.3-0.2,0.3
					c-0.4,0-1.4-0.2-1.6-1.2C96,204.3,96.1,204.2,96.2,204.2L96.2,204.2z"/>
				<path class="st3" d="M109.6,205.6c0,0,4.5-1.7,6.7,2.2c1.3,2.3,1.1,5.8-1,7c-0.7,0.4-3.8,2.3-4.7,0.1c-1.8-4.2-4.3-6.1-4.3-6.9
					C106.2,207.3,109.6,205.6,109.6,205.6z"/>
			</g>
			<path class="st3" d="M106.3,199.9v-0.1c0.1-0.1,0.2-0.2,0.3-0.1c0.4,0.2,1.1,0.8,0.8,1.9c0,0.1-0.2,0.2-0.3,0.2
				c-0.1,0-0.2-0.2-0.2-0.3c0.2-0.9-0.5-1.3-0.6-1.3C106.4,200,106.3,199.9,106.3,199.9z"/>
		</g>
		<path class="st4" d="M112.5,166.9c-1,9.1-2.9,16.8-4.2,21.6c-0.4,1.5-1.3,2.9-2.5,3.8s-2.6,1.6-4.2,1.8c-3.1,0.4-6.1-1.1-7.7-3.8
			l-6.1-10.1c-2.1-3.5-1.7-7.9,1-10.9l3.2-3.6l0.3-0.3l2.4-17.4l17.1-7.2C113.4,149.8,113.3,158.9,112.5,166.9z"/>
		<path class="st0" d="M112.5,166.9c-1,9.1-2.9,16.8-4.2,21.6c-0.4,1.5-1.3,2.9-2.5,3.8s-2.6,1.6-4.2,1.8c-3.1,0.4-6.1-1.1-7.7-3.8
			l-6.1-10.1c-2.1-3.5-1.7-7.9,1-10.9l3.2-3.6L112.5,166.9z"/>
		<path class="st5" d="M22.2,204.9l1.9-2.1l61-69.3c2.2-2,5.1-3.4,8.2-4.1c9.3-2.1,18.3,4.7,19.1,14.3l0,0l-83.2,64.5L22.2,204.9z"
			/>
		<path class="st4" d="M107.7,186.6L90,212.5l-4.2-4.2l22.6,5.1l5.1-2c1.2-0.5,2.5-0.3,3.6,0.4l5.9,3.8c0.5,0.3,0.3,1.1-0.3,1.1
			H85.9l0,0c-2.3,0.2-4.2-1.6-4.2-3.9v-0.3l14.9-29.1c2.8-3.6,5.1-4.4,7.4-4.4l0,0C106.2,179,110.2,181.9,107.7,186.6z"/>
		<path class="st4" d="M23.9,203.4l-1.4,1.2c-1.6,1.3-1.3,3.9,0.5,4.8l10.3,5.4c0.5,0.3,1-0.3,0.8-0.8l-4-6.5L23.9,203.4z"/>
	</g>
	<text transform="matrix(1 0 0 1 116.9316 215.5941)" class="st0 st1 st2">O</text>
	<g>
		<g>
			<g>
				<path class="st3" d="M199.4,186.8c0,0,3.4-4.3,6.9-5.5s9.2,0.5,9.6,1.6c0.6,1.7,0.3,0,0.3,0s2.5,2.1,3.8,8
					c1.1,4.7-2.5,3.9-2.6,5.4s-4.9,2-4.9-1.5c-0.1-3.5,0-5.2-2.2-7.4C208,185.1,207.7,192,199.4,186.8z"/>
				<path class="st4" d="M213.7,186.4c0,0,1.5,8.5,0.7,9.7c-0.8,1.2-11.7,3.7-14.8,0.8s-2.2-8.5-0.1-9.5
					C201.7,186.3,213.7,186.4,213.7,186.4z"/>
				<path class="st4" d="M201.9,186.5l-7.9,0.7c-1.7,0.2-3.1,1.5-3.3,3.2c-0.1,0.5-0.7,0.8-0.8,1.4c-0.2,1.3,0.7,3.2,2.9,2.9
					l9.2-0.3L201.9,186.5z"/>
				<path class="st4" d="M206.5,187.8c0,0,3.2-1.1,1.4-3.1s-6.1-0.3-6.6,2.5C200.9,190,206.5,187.8,206.5,187.8z"/>
				<path class="st3" d="M214.9,197.2c0,0-1.6,0.3-3.5-2.4c-0.8-1.1,1.2-7.4,1.2-7.4s-5.1,0.8-5.6,0.1c-0.5-0.7,1.6-1.7,2.7-2.9
					C214.5,179.5,218.7,192.2,214.9,197.2z"/>
				<path class="st3" d="M197.8,193.7c-0.5-2.8,0.9-4.9,0.9-5c0.1-0.1,0.3-0.2,0.4-0.1c0.1,0.1,0.2,0.3,0.1,0.4c0,0-1.8,2.8-0.4,5.9
					c0.1,0.1,0,0.3-0.1,0.4s-0.3,0-0.4-0.1C198.1,194.7,197.9,194.2,197.8,193.7z"/>
				<path class="st3" d="M206.3,191c-0.4,0.1-0.6,0.3-0.6,0.5s0.4,0.3,0.8,0.2s0.6-0.3,0.6-0.5C207,191,206.7,190.9,206.3,191z"/>
				<path class="st3" d="M206.8,196.2c-0.4,0.1-0.6,0.3-0.6,0.5s0.4,0.2,0.8,0.2c0.7,0,0.8-0.3,0.6-0.5
					C207.5,196.2,207.2,196.1,206.8,196.2z"/>
				<path class="st3" d="M207.7,189.5v-0.1c0-0.1,0.2-0.2,0.3-0.2c0.5,0.1,1.4,0.6,1.3,1.8c0,0.2-0.1,0.3-0.3,0.3s-0.3-0.1-0.3-0.3
					c0-1-0.9-1.3-0.9-1.3S207.7,189.6,207.7,189.5z"/>
				<path class="st3" d="M208.5,198.2c0-0.1,0.1-0.3,0.2-0.3c1-0.2,1-1.2,1-1.2c0-0.2,0.1-0.3,0.3-0.3s0.3,0.1,0.3,0.3
					c0,0.5-0.3,1.5-1.4,1.8C208.7,198.4,208.5,198.3,208.5,198.2L208.5,198.2z"/>
				<path class="st3" d="M210.6,183.3c0,0-1.8-5.1,2.8-7.5c2.7-1.4,6.5-1,7.9,1.4c0.4,0.8,2.4,4.4-0.1,5.3c-4.8,1.8-7,4.6-7.9,4.6
					C212.4,187.1,210.6,183.3,210.6,183.3z"/>
			</g>
			<path class="st3" d="M204.1,186.7H204c-0.1-0.1-0.2-0.2-0.1-0.4c0.2-0.4,1-1.2,2.1-0.8c0.1,0,0.2,0.2,0.2,0.4
				c0,0.1-0.2,0.2-0.4,0.2c-1-0.3-1.4,0.5-1.5,0.6C204.3,186.6,204.2,186.7,204.1,186.7z"/>
		</g>
		<path class="st5" d="M180.9,170.1c0-0.4,9.1-3.9,10.6-12.6l13.2-18l21.1,14.1l3.1-4.3l-18.2-19.5c-2.6-2.8-7-3.4-10.2-1.3
			c-7.4,4.8-20.2,14.4-28.7,28.8c-1.2,1.9-2.2,4-3.2,6.1L180.9,170.1z"/>
		<path class="st4" d="M194.4,190.7l-1.3,1.5c-2.2,2.5-5.4,3.8-8.7,3.5l-6.2-0.5c-2.7-0.2-5-2.1-5.7-4.8l-1.4-5l0,0
			c-0.4-0.4-7.5-10.1-2.5-22l12.4,6.7l5.4,6.3l8.2,9.6C195.6,187.4,195.6,189.4,194.4,190.7z"/>
		<path class="st0" d="M194.4,190.7l-1.3,1.5c-2.2,2.5-5.4,3.8-8.7,3.5l-6.2-0.5c-2.7-0.2-5-2.1-5.7-4.8l-1.4-5l0,0l15.2-9l8.2,9.6
			C195.6,187.4,195.6,189.4,194.4,190.7z"/>
		<path class="st4" d="M192.1,190.7l0.1,23.8l-4.2-4.2l22.6,5.1l5.1-2c1.2-0.5,2.5-0.3,3.6,0.4l5.9,3.8c0.5,0.3,0.3,1.1-0.3,1.1
			h-36.8l0,0c-2.3,0.2-4.2-1.6-4.2-3.9v-0.3l-0.1-23.8c0-2.3,1.9-4.2,4.2-4.2l0,0C190.2,186.5,192.1,188.4,192.1,190.7z"/>
		<path class="st4" d="M226.8,154.6l1.5,3.1l12.6-4.8c0.7-0.3,0.5-1.3-0.2-1.3l-9.4-0.2l-2.4-2l-3.1,4.3L226.8,154.6z"/>
	</g>
	<text transform="matrix(1 0 0 1 239.6323 215.5941)" class="st0 st1 st2">G</text>
	<g>
		<path class="st4" d="M321.9,138.1v11.1c-0.8,0-15.6,3.4-17.9,4c-0.2,0-0.3,0.1-0.3,0.1l-2.5,1.8c-1.7,1.2-4,1.2-5.7,0l-10.5-8.3
			c-2.1-1.7-3.1-4.4-2.5-7c0.7-3.2,3.6-5.4,6.8-5.4c0.6,0,1.2,0.1,1.8,0.2l10.8,2.9c0.2,0,0.3,0.1,0.5,0.1c4,1,8.2,1.4,12.4,1
			L321.9,138.1z"/>
		<g>
			<g>
				<path class="st3" d="M280,137.7c0,0-3.1-4-6.3-5.1c-3.2-1.1-8.5,0.4-8.9,1.5c-0.6,1.6-0.3,0-0.3,0s-2.3,1.9-3.5,7.3
					c-1,4.4,2.3,3.6,2.4,5c0.1,1.4,4.5,1.8,4.5-1.4c0.1-3.2,0-4.8,2-6.8C272,136.2,272.3,142.6,280,137.7z"/>
				<path class="st4" d="M266.7,137.3c0,0-1.4,7.8-0.6,8.9c0.7,1.1,10.8,3.4,13.6,0.7c2.8-2.7,2-7.8,0.1-8.8
					C277.8,137.3,266.7,137.3,266.7,137.3z"/>
				<path class="st4" d="M277.7,137.4l7.3,0.7c1.6,0.1,2.9,1.4,3,3c0.1,0.5,0.6,0.7,0.7,1.2c0.2,1.2-0.6,2.9-2.7,2.6l-8.5-0.3
					L277.7,137.4z"/>
				<path class="st3" d="M265.7,147.3c0,0,1.5,0.3,3.2-2.2c0.7-1-1.1-6.8-1.1-6.8s4.7,0.8,5.1,0.1c0.5-0.6-1.5-1.5-2.5-2.7
					C266.1,131,262.1,142.7,265.7,147.3z"/>
				<path class="st3" d="M281.4,144.1c0.5-2.5-0.8-4.5-0.9-4.6s-0.2-0.1-0.4-0.1s-0.1,0.2-0.1,0.4c0,0,1.7,2.6,0.4,5.5
					c-0.1,0.1,0,0.3,0.1,0.4c0.1,0.1,0.3,0,0.4-0.1C281.2,145,281.3,144.5,281.4,144.1z"/>
				<path class="st3" d="M273.6,141.6c0.3,0.1,0.6,0.3,0.6,0.5c0,0.2-0.4,0.3-0.7,0.2c-0.3-0.1-0.6-0.3-0.6-0.5
					C272.9,141.6,273.2,141.5,273.6,141.6z"/>
				<path class="st3" d="M272.3,140.2L272.3,140.2c0-0.2-0.2-0.3-0.3-0.3c-0.4,0.1-1.3,0.6-1.2,1.7c0,0.1,0.1,0.3,0.3,0.3
					c0.1,0,0.3-0.1,0.3-0.3c0-1,0.8-1.2,0.8-1.2C272.2,140.4,272.3,140.3,272.3,140.2z"/>
				<path class="st3" d="M269.6,134.5c0,0,1.6-4.7-2.5-6.9c-2.5-1.3-6-0.9-7.2,1.3c-0.4,0.7-2.2,4,0.1,4.9c4.5,1.7,6.5,4.3,7.3,4.2
					C268,138,269.6,134.5,269.6,134.5z"/>
			</g>
			<path class="st3" d="M275.7,137.6h0.1c0.1-0.1,0.2-0.2,0.1-0.4c-0.2-0.4-0.9-1.1-2-0.8c-0.1,0-0.2,0.2-0.2,0.3s0.2,0.2,0.3,0.2
				c0.9-0.3,1.3,0.5,1.4,0.5C275.5,137.6,275.6,137.6,275.7,137.6z"/>
		</g>
		<path class="st0" d="M303.9,153.2c-0.2,0-0.3,0.1-0.3,0.1l-2.5,1.8c-1.7,1.2-4,1.2-5.7,0l-10.4-8.3c-2.1-1.7-3.1-4.4-2.5-7
			c0.7-3.2,3.6-5.4,6.8-5.4c0.6,0,1.2,0.1,1.8,0.2l10.8,2.9c0.2,0,0.3,0.1,0.5,0.1L303.9,153.2z"/>
		<path class="st4" d="M286.6,144.4l-45.5-2.7l-6,1l-4.1-0.3l-2.9-3.6c-0.6-0.8-0.1-2,0.9-2.1l7.3-0.5l4.7,1.6l45.7-1.4
			c2.2-0.1,4.1,1.7,4.1,3.9l0,0C290.9,142.6,288.9,144.5,286.6,144.4z"/>
		<path class="st5" d="M321.7,138l0.9,33.5l7.4,53.1h5.7l4.1-74.8c0.4-2.2,2-7.8,0.4-9.4l0,0c-4.9-4.7-12.4-5.7-18.3-2.4H321.7z"/>
		<path class="st5" d="M335.7,153.5c0.7,0,38.9,0.8,66.4-12.8c0.3-0.2,0.7-0.3,0.7-0.3l-1.6-5.2c0,0-38.9,7-65,4.8L335.7,153.5z"/>
		<path class="st4" d="M401.1,135.2l3.3-0.7c0.8-0.2,1.6,0.3,1.8,1.1l2.9,9.2c0.1,0.5-0.4,0.8-0.8,0.4l-4.1-4.5l-1.5-0.3
			L401.1,135.2z"/>
		<path class="st4" d="M335.6,224.3l-0.4,3.4c-0.1,0.8-0.8,1.4-1.6,1.4L324,229c-0.5,0-0.6-0.7-0.2-0.9l5.5-2.5l0.7-1.4L335.6,224.3
			z"/>
	</g>
	<text transform="matrix(1 0 0 1 348.0938 214.6185)" class="st0 st1 st2">A</text>
	<g>
		<path class="st4" d="M384.6,219.4l-2.1,6.3c0,0,13.9,1,14,0.5s-7-2.9-7-2.9h0.2l2-4L384.6,219.4z"/>
		<path class="st4" d="M460.5,179.3c-0.7,0.6-1.6,1-2.6,1c-0.2,0-0.3,0-0.5,0l-10.5-1.3c-3.5-0.5-6.3-3.3-6.7-6.8l-0.5-4.5
			L424.1,149l12.8-4.2l13.7,14.6l7.1,7.6C461.6,171.3,463.1,177,460.5,179.3z"/>
		<path class="st5" d="M434,142.2c-2.2-2.2-5.2-3.4-8.3-3.3c-11.5,0.4-15.5,6.9-22.6,24.7c-8.2,20.5-18.5,55.9-18.5,55.9h7.1
			l22.5-36.5l12.2-26.1l7,2.9l9.3-8.8L434,142.2z"/>
		<path class="st0" d="M460.5,179.3c-0.7,0.6-1.6,1-2.6,1c-0.2,0-0.3,0-0.5,0l-10.5-1.3c-3.5-0.5-6.3-3.3-6.7-6.8l-0.5-4.5l10.8-8.2
			l7.1,7.6C461.6,171.3,463.1,177,460.5,179.3z"/>
		<g>
			<path class="st3" d="M459.4,184.5c0,0,4.5,1.9,6.4,4.6c1.8,2.7,1.7,8.1,0.8,8.7c-1.3,1-2.4,0.4-2.4,0.4s1.2,2.5-3.6,5
				c-3.8,2-4-1.3-5.3-1s-2.8-3.7,0.2-4.6c3-0.9,4.5-1.2,5.9-3.6C462.9,191.6,456.8,192.9,459.4,184.5z"/>
			<path class="st4" d="M463.1,196.8c0,0-7,3.2-8.2,2.8s-5.9-9.3-4.1-12.6c1.8-3.3,6.8-3.9,8.2-2.3
				C460.4,186.4,463.1,196.8,463.1,196.8z"/>
			<path class="st4" d="M460.2,186.6l-2.5-6.7c-0.5-1.5-2-2.3-3.5-2.1c-0.5,0.1-0.9-0.4-1.4-0.4c-1.2,0.1-2.6,1.3-1.8,3.2l2.4,7.9
				L460.2,186.6z"/>
			<path class="st4" d="M460.4,189.6c0,0,1.7,2.5,3,0.5s-1.2-5.3-3.7-5.1C457.2,185.2,460.4,189.6,460.4,189.6z"/>
			<path class="st3" d="M454.2,199c0,0,2.8-0.8,4.5-2.9c0.8-1,3.3,0,3.3,0s-1.6-5.4-1.1-6s1.7,1,3,1.7
				C469.3,194.6,456.4,206.7,454.2,199z"/>
			<path class="st3" d="M453.1,184.7c2.3-1.1,4.4-0.4,4.5-0.3c0.1,0,0.2,0.2,0.2,0.3c0,0.1-0.2,0.2-0.3,0.2c0,0-2.8-0.9-5.2,1
				c-0.1,0.1-0.3,0.1-0.4,0s-0.1-0.3,0-0.4C452.3,185.2,452.7,184.9,453.1,184.7z"/>
			<path class="st3" d="M457.4,191.5c-0.1-0.3-0.4-0.5-0.6-0.4s-0.2,0.4,0,0.7s0.4,0.5,0.6,0.4S457.5,191.8,457.4,191.5z"/>
			<path class="st3" d="M453,193.1c-0.1-0.3-0.4-0.5-0.6-0.4s-0.1,0.4,0,0.7c0.1,0.6,0.4,0.6,0.6,0.4
				C453.1,193.7,453.2,193.4,453,193.1z"/>
			<path class="st3" d="M459,192.3h0.1c0.1,0,0.3,0.1,0.3,0.2c0,0.4-0.2,1.3-1.3,1.6c-0.1,0-0.3,0-0.3-0.2c0-0.1,0-0.3,0.2-0.3
				c0.9-0.2,0.9-1,0.9-1.1C458.8,192.5,458.9,192.4,459,192.3z"/>
			<path class="st3" d="M451.7,195c0.1-0.1,0.3,0,0.3,0.1c0.4,0.8,1.2,0.6,1.3,0.6c0.1,0,0.3,0,0.3,0.2c0,0.1,0,0.3-0.2,0.3
				c-0.4,0.1-1.4,0.1-1.9-0.9C451.5,195.2,451.6,195.1,451.7,195L451.7,195z"/>
			<path class="st3" d="M465.4,194.4c0,0,4-2.7,7.1,0.7c1.8,2,1.2,3.6-0.6,5.3c-0.6,0.6-0.6,1.4-1.8,1.8c-4.4,1.5-7.3-3.9-7.4-4.6
				C462.5,196.8,465.4,194.4,465.4,194.4z"/>
		</g>
		<path class="st4" d="M461.1,175.2l31.7,46.6l-3.9,2.8l-33.5-45.3c-1.2-1.6-0.8-3.8,0.8-5l0,0C457.8,173.2,460,173.6,461.1,175.2z"
			/>
		<path class="st4" d="M489.6,224.7l9.9-0.2c0.5,0,0.6-0.7,0.1-0.9l-8.7-3l-2.2,3.9L489.6,224.7z"/>
	</g>
	<g>
		<path class="st0" d="M445.4,68.4v3.2h-11.3v7.8h9.9v3.2h-9.9V93h-3.3V68.4H445.4L445.4,68.4z"/>
		<path class="st0" d="M453.2,66.6V93H450V66.6H453.2z"/>
		<path class="st0" d="M458.5,82c0.7-1.1,1.6-2.1,2.8-2.7c1.2-0.7,2.5-1,4-1s2.8,0.3,4,1c1.2,0.7,2.1,1.6,2.7,2.7s1,2.4,1,3.8
			c0,1.4-0.3,2.7-1,3.8c-0.6,1.1-1.6,2.1-2.7,2.7c-1.2,0.7-2.5,1-4,1s-2.8-0.3-4-0.9s-2.1-1.5-2.8-2.6c-0.7-1.1-1-2.4-1-3.9
			S457.8,83.1,458.5,82z M461.3,88.3c0.4,0.8,0.9,1.3,1.6,1.8s1.5,0.6,2.3,0.6c1.3,0,2.4-0.5,3.3-1.4c0.9-0.9,1.3-2.1,1.3-3.5
			c0-1.4-0.4-2.5-1.3-3.5s-2-1.4-3.3-1.4c-0.9,0-1.6,0.2-2.3,0.7s-1.2,1-1.6,1.8c-0.4,0.8-0.6,1.6-0.6,2.4
			C460.7,86.7,460.9,87.5,461.3,88.3z"/>
		<path class="st0" d="M496.3,78.9l-6.5,14.9l-4.5-9.7l-4.1,9.7l-6.5-14.9h3.1l3.8,8.5l2.6-6.1l-1.1-2.4h2.8l3.8,8.7l3.6-8.7
			L496.3,78.9L496.3,78.9z"/>
	</g>
</g>
</svg>
