<?xml version="1.0" encoding="UTF-8"?>
<svg id="Layer_1" data-name="Layer 1" xmlns="http://www.w3.org/2000/svg" xmlns:xlink="http://www.w3.org/1999/xlink" viewBox="0 0 878.58 469.01">
  <defs>
    <style>
      .cls-1 {
        fill: url(#linear-gradient);
      }

      .cls-2 {
        fill: #f7b882;
      }

      .cls-3 {
        fill: #f3af80;
      }

      .cls-4 {
        fill: #f5b780;
      }

      .cls-5 {
        fill: #fff;
      }

      .cls-6 {
        fill: #8f5424;
      }

      .cls-7 {
        fill: #ce986e;
      }

      .cls-8 {
        fill: #b2bcc4;
      }

      .cls-9 {
        fill: #d1e5ff;
      }

      .cls-10, .cls-11 {
        fill: #355775;
      }

      .cls-12 {
        fill: #452713;
      }

      .cls-13 {
        letter-spacing: .08em;
      }

      .cls-11 {
        font-family: FarmWaveFree-Regular, 'Farm Wave Free';
        font-size: 85px;
        isolation: isolate;
      }

      .cls-14 {
        letter-spacing: .07em;
      }
    </style>
    <linearGradient id="linear-gradient" x1="214.88" y1="155.97" x2="151.62" y2="156.85" gradientUnits="userSpaceOnUse">
      <stop offset="0" stop-color="#f8a164"/>
      <stop offset=".1" stop-color="#f8a469"/>
      <stop offset=".63" stop-color="#f7b37b"/>
      <stop offset="1" stop-color="#f7b882"/>
    </linearGradient>
  </defs>
  <text class="cls-11" transform="translate(165.39 447.76)"><tspan class="cls-14" x="0" y="0">R</tspan><tspan class="cls-13" x="41.63" y="0">everse table</tspan></text>
  <g>
    <ellipse class="cls-8" cx="439.29" cy="288.29" rx="439.29" ry="26.6"/>
    <g>
      <path class="cls-1" d="M180.99,46.1c-1.18,9.09,14.43,97.65,15.34,109.26,.92,11.61-1.83,34-.92,42.3,.92,8.29,2.75,67.18-.92,72.16s-8.26,4.15-22.94,3.32c-14.68-.83-24.77,8.29-24.77,8.29,0,0,7.34,5.81,35.78,4.15s37.61,0,34.86-8.29,5.76-62.74,5.76-83.48-1.84-37.84-3.67-48.62c-1.83-10.78,1.13-83.05-1.83-96.33-7.08-31.73-33.69-25.96-36.69-2.76Z"/>
      <g>
        <path class="cls-2" d="M146.67,95.04c.42-1.02,.81-1.97,1.18-2.87,2.94-2.36,8.34-4.52,14.6-6.33,28.08,.45,45.13,5.44,57.46,6.3,39.15,2.73,65.67-29.53,95.94,6.24,7.13-21.65,48.2-31.12,57.25-52-18.86-21.33-59.09-30.56-79.33-35.18-33.35-7.61-105.05,5.99-103.51,9.47-2.83,1.14-25.26,28.75-31.12,31.48-3.05,.76-21.31,3.58-25.51,3.9-.59-1.28-1.13-2.54-1.55-3.76-2.31-5.75-5.76-13.8-7.63-16.1-3.51-4.36-6.87-1.42-10.25,1.55-1.79,1.56-3.76,2.73-6.11,1.56-1.2-.61-1.56-1.24-2.94-1.35-.89-.05-1.57,.61-2.07,1.23-.9,1.12-.18,2.31-1.3,.89-.87-1.13-2.97-.64-3.97,.28-1.47,1.36-.47,3.5-4.47,2.6-1.03-.24-1.97-.76-3.01-.95-1.12-.21-1.91,.73-2.23,1.72-.89,2.94-1.37,5.97-2.56,8.84-.42,.84-.85,1.64-1.24,2.33-.22,.31-.44,.59-.68,.87-.75-1.42-3.62-2.39-5.57-1.96,1.71,.53,3.08,2.01,3.55,3.81-1.46,1.07-3.17,1.91-4.95,2.81-3.3,1.69-6.32,3.92-9.01,6.49-1.42,1.33-4.81,5.49-7.85,11.15,42.34,42.84,82.01,14.61,86.88,16.98Z"/>
        <path class="cls-6" d="M147.99,98c-2.06,5.11-6.71,14.76-14.76,21.95-6.93,6.18-11.74,7.99-14.55,8.42-.48,.07-.94,.11-1.35,.11,1.67,2.54,4.62,8.83-.99,15.89-3.69,4.61-10.88,8.13-19.25,9.41-10.76,1.64-25.16-.32-30.38-11.28-1.85-3.89-1.59-7.71-.79-10.65-.61,.4-1.23,.71-1.83,.91-2.23,.75-4.21-.67-4.49-2.16-.16-.85,.24-1.97,1.88-2.33,1.04-.23,2.21-.68,3.45-1.33-1.71,.05-3.37-.27-4.62-.9-1.65-.84-2.2-2.5-2-3.7,.26-1.62,1.82-2.32,3.36-1.32,.78,.5,1.72,.95,2.83,1.35-5.04-5.4-11.95-13.9-11.78-25.97,.11-7.31,1.75-16.46,8.05-22.4l.38-.35,.4,.33c17.67,3.92,25.75,12.74,39.48,8.22l.44,1.04c-2.75,2.25-1.85,5.68-1.47,7.3,.61,2.59,4.62,6.57,10.11,4.26,8.32-3.51,12.74-13.85,12.74-13.85,0,0,24.13,1.37,27.32,6.9l-2.07,9.97-.11,.18Z"/>
        <path class="cls-12" d="M58.29,122.35c.26-1.62,1.82-2.32,3.36-1.32,.78,.5,1.72,.95,2.83,1.35-.28-.3,30.2-10.6,55.5,5.73-.47,.12-.9,.21-1.3,.27-.2,.03-.37,.03-.56,.05-.09-.03-.15-.09-.25-.12-43.28-14.45-52.07,3.96-51.96,3.55-.61,.4-1.23,.71-1.83,.91-2.23,.75-4.21-.67-4.49-2.16-.16-.85,.24-1.97,1.88-2.33,1.04-.23,2.21-.68,3.45-1.33-1.71,.05-3.37-.27-4.62-.9-1.66-.84-2.2-2.51-2.01-3.7Z"/>
        <path class="cls-12" d="M76.23,53.85s5.49,2.09,9.13,8.6c2.54,4.55,2.22-11-9.13-8.6Z"/>
        <path class="cls-7" d="M124.92,37.08s8.57,13.16,10.96,26.82c-3.05-6.54-6.4-15.85-10.96-26.82Z"/>
        <path class="cls-3" d="M113.39,51.59c5.72,7.54-.58,20.46-11,20.48-10.41,.03,7.32-25.33,11-20.48Z"/>
        <path class="cls-5" d="M171.89,39.46c-5.32,6.66,2.94,24.55,18.48,27.56,8.2,1.59,13.51,15.47,12.63,23.11,18.35,7.34,53.78-1.72,66.86-6.54,1.79-7.75,8.58-57.5,2.75-75.34-9.29,0-35.63,2.35-35.69,2.36-6.26-11.84-29.99-14.2-42.17-4.88-4.45,3.46-17.02,24.98-22.86,33.73Z"/>
      </g>
      <path class="cls-10" d="M313.66,99.07c8.38,3.03,23.29,43.35,77.41,29.59,23.47,10.5,88.51,37.22,110.75,44.8,1.77,.6,19.36,4.92,33.78,8.57,4.01,3.39,8.6,7.7,13.32,12.22,12.37-10.12,18.12-25.89,21.47-41.83-9.85-6.99-20.87-14.52-26.23-17.63-.06,.19-.13,.35-.19,.53-.79-.71-1.55-1.42-2.38-2.13-20.36-16.16-145.29-94.95-167.02-101.8-12.54-3.96-22.88-7.31-32.87-7.23-15.62,19.68-31.84,73.54-28.04,74.91Z"/>
      <path class="cls-4" d="M548.93,194.26c8.32,7.95,17.05,16.52,23.84,21.8,33.65,25.34,79.52,20.09,112.56,42.8,10.54,6.53,8.75,16.57,17.67,22.09,9.23,6.83,24.99,3.21,34.68,.24,0,0,42.89,4.29,47.89,.68,4.74-3.43,0-12.84-8.26-10.09-22.52-11.66-39.32-12.82-60.4-25.88-44.27-26.3-90.36-51.49-131.62-82.64-3.6-2.73-9.04-6.69-14.89-10.83-3.35,15.94-9.1,31.72-21.47,41.83Z"/>
      <path class="cls-9" d="M267.61,8.42c.09,.11,.15,.24,.18,.4,4.58,24.48-2.06,75.26-2.13,75.77-.06,.47-.49,.79-.96,.71-.47-.08-.8-.52-.74-.99,.07-.51,6.68-51.02,2.15-75.22-.09-.47,.22-.91,.68-.98,.31-.07,.62,.07,.82,.31Z"/>
      <path class="cls-2" d="M168.14,56.19c-1.18,9.09,14.43,97.65,15.34,109.26,.92,11.61-1.83,34-.92,42.3,.92,8.29,2.75,67.18-.92,72.16s-8.26,4.15-22.94,3.32c-14.68-.83-24.77,8.29-24.77,8.29,0,0,7.34,5.81,35.78,4.15s37.61,0,34.86-8.29,8.26-71.33,8.26-92.06,0-28.2-1.83-38.98,2.97-85.42,0-98.7c-7.08-31.73-39.85-24.65-42.86-1.45Z"/>
    </g>
  </g>
</svg>