<?xml version="1.0" encoding="utf-8"?>
<!-- Generator: Adobe Illustrator 26.5.0, SVG Export Plug-In . SVG Version: 6.00 Build 0)  -->
<svg version="1.1" id="Layer_1" xmlns="http://www.w3.org/2000/svg" xmlns:xlink="http://www.w3.org/1999/xlink" x="0px" y="0px"
	 viewBox="0 0 250 400" style="enable-background:new 0 0 250 400;" xml:space="preserve">
<style type="text/css">
	.st0{enable-background:new    ;}
	.st1{fill:#355775;}
	.st2{fill:#B2BCC4;}
	.st3{fill:url(#SVGID_1_);}
	.st4{fill:#F7B882;}
	.st5{fill:#8F5424;}
	.st6{fill:#452713;}
	.st7{fill:#CE986E;}
	.st8{fill:#F3AF80;}
	.st9{fill:#FFFFFF;}
	.st10{fill:#F5B780;}
	.st11{fill:#D1E5FF;}
</style>
<g>
	<g class="st0">
		<path class="st1" d="M69.05,361.84V362c0,0.28-0.22,0.51-0.51,0.49c-2.7-0.2-4.46-1.88-4.46-4.46c0-3.15,4.16-4.46,4.16-6.96
			c0-1.48-1.15-2.41-2.98-2.41l-1.69,0.01v13.12c0,0.28-0.21,0.48-0.48,0.48h-0.17c-0.27,0-0.48-0.21-0.48-0.48v-12.83
			c0-0.27,0.21-0.48,0.48-0.48h2.34c2.54,0,4.14,1,4.14,2.59c0,3.14-5.14,3.88-5.14,6.96c0,1.93,1.71,3.18,4.31,3.33
			C68.85,361.37,69.05,361.57,69.05,361.84z"/>
	</g>
	<g class="st0">
		<path class="st1" d="M79.43,360.37c0,1.35-1.63,2.2-3.3,2.2c-2.75,0-4.66-1.41-4.66-5.38c0-3.98,1.91-5.36,4.51-5.36
			c2.01-0.01,3.29,1,3.29,2.09c0.01,2.98-5.33-0.01-5.69,1.85C73.18,357.89,79.43,357.8,79.43,360.37z M78.39,360.27
			c0-2.31-5.37-2.33-4.99-4.51c0.35-2,5.53,0.64,4.97-1.86c-0.3-0.98-0.98-1.9-2.38-1.89c-1.98,0-3.37,1.59-3.37,5.17
			c0,3.58,1.39,5.19,3.52,5.19C77.81,362.38,78.39,361.23,78.39,360.27z"/>
		<path class="st1" d="M86.11,362.27h-0.85c-0.21,0-0.39-0.13-0.45-0.33l-3.22-9.26c-0.12-0.35,0.05-0.66,0.35-0.66h0.23
			c0.21,0,0.38,0.12,0.46,0.33l2.99,8.53c0.22-3.71,2.81-4.4,2.63-6.41c-0.1-1.24-1.06-1.38-2.36-1.52
			c-0.29-0.03-0.49-0.22-0.51-0.49l-0.02-0.16c-0.03-0.32,0.15-0.51,0.48-0.47c1.38,0.18,2.44,0.76,2.6,2.64
			C88.63,356.77,85.91,359.92,86.11,362.27z"/>
		<path class="st1" d="M98.89,360.37c0,1.35-1.63,2.2-3.3,2.2c-2.75,0-4.66-1.41-4.66-5.38c0-3.98,1.91-5.36,4.51-5.36
			c2.01-0.01,3.29,1,3.29,2.09c0.01,2.98-5.33-0.01-5.69,1.85C92.63,357.89,98.89,357.8,98.89,360.37z M97.84,360.27
			c0-2.31-5.37-2.33-4.99-4.51c0.35-2,5.53,0.64,4.97-1.86c-0.3-0.98-0.98-1.9-2.38-1.89c-1.98,0-3.37,1.59-3.37,5.17
			c0,3.58,1.39,5.19,3.52,5.19C97.26,362.38,97.84,361.23,97.84,360.27z"/>
		<path class="st1" d="M108.15,354.01c-0.24,0.37-0.42,0.34-0.47-0.07c-0.1-0.84-0.55-1.37-1.16-1.37c-1.22,0-2.55,1.93-3.53,5.08
			v4.14c0,0.28-0.24,0.48-0.57,0.48c-0.32,0-0.57-0.21-0.57-0.48v-9.29c0-0.27,0.25-0.48,0.57-0.48c0.33,0,0.57,0.21,0.57,0.48v4.5
			c0.99-3.17,2.34-5.17,3.7-5.17C107.98,351.83,108.83,352.95,108.15,354.01z"/>
		<path class="st1" d="M118.78,359.75c0,1.72-1.57,2.81-4.08,2.81c-2.91,0.01-4.46-1.78-3.59-3.13c0.23-0.36,0.42-0.34,0.47,0.07
			c0.15,1.18,0.77,2.88,3.12,2.87c1.79-0.01,2.92-0.82,2.92-2.12c0-3.2-6.73-2.37-6.73-6.17c0-1.39,1.38-2.26,3.89-2.25
			c2.91-0.01,4.18,0.83,3.31,2.18c-0.23,0.36-0.42,0.34-0.47-0.07c-0.15-1.18-1.24-1.93-2.83-1.92c-1.79-0.01-2.73,0.71-2.73,1.88
			C112.05,356.77,118.78,356.02,118.78,359.75z"/>
		<path class="st1" d="M129.23,360.37c0,1.35-1.63,2.2-3.3,2.2c-2.75,0-4.66-1.41-4.66-5.38c0-3.98,1.91-5.36,4.51-5.36
			c2.01-0.01,3.29,1,3.29,2.09c0.01,2.98-5.33-0.01-5.69,1.85C122.97,357.89,129.23,357.8,129.23,360.37z M128.19,360.27
			c0-2.31-5.37-2.33-4.99-4.51c0.35-2,5.53,0.64,4.97-1.86c-0.3-0.98-0.98-1.9-2.38-1.89c-1.98,0-3.37,1.59-3.37,5.17
			c0,3.58,1.39,5.19,3.52,5.19C127.61,362.38,128.19,361.23,128.19,360.27z"/>
		<path class="st1" d="M144.2,361.58c0,0.08-0.03,0.17-0.08,0.29c-0.23,0.49-0.55,0.69-0.91,0.69c-1.57,0-2.84-2.51-2.84-4.38v-5.98
			h-1.52v-0.19c1.52,0,2.46-1.36,2.46-3.54h0.19v3.54h1.9v0.19h-1.9v5.32c0,2.57,0.08,4.43,0.85,4.43c0.65,0,0.98-0.23,1.45-0.45
			c0.11-0.05,0.2-0.07,0.26-0.07C144.15,361.45,144.2,361.5,144.2,361.58z"/>
		<path class="st1" d="M154.76,357.1v4.69c0,0.28-0.21,0.48-0.48,0.48h-0.17c-0.28,0-0.48-0.21-0.48-0.48v-2.6
			c-0.68,2.09-2.54,3.37-4.97,3.37c-1.68,0-2.73-0.84-2.73-2.2c0-2.57,4.71-1.99,4.71-4.13c0-1.8-2.7-1.39-2.7-3.09
			c0-0.82,0.83-1.33,2.16-1.33C153.15,351.82,154.76,353.61,154.76,357.1z M153.63,358.11v-0.89l-0.01-0.12
			c0-3.32-1.24-4.99-3.71-4.99c-1.07,0-1.74,0.4-1.74,1.04c0,1.59,2.66,1.07,2.66,3.09c0,2.2-3.86,1.72-3.86,4.04
			c0,0.96,0.76,1.55,1.97,1.55C151.63,361.83,153.39,360.41,153.63,358.11z"/>
		<path class="st1" d="M161.74,362.57c-0.95,0-1.81-0.37-2.41-1v0.23c0,0.28-0.21,0.48-0.48,0.48h-0.17c-0.27,0-0.48-0.21-0.48-0.48
			v-13.04c0-0.28,0.21-0.48,0.48-0.48h0.17c0.27,0,0.48,0.21,0.48,0.48v8.28c0-0.01,0.01-0.02,0.01-0.03
			c0.99-3.17,2.34-5.17,3.51-5.17l0.03,0.74c-1.23,0-2.56,1.94-3.54,5.12v2.97c0.44,1.06,1.36,1.72,2.41,1.72
			c1.75,0,2.86-2.08,2.86-5.37c0-2.72-0.66-4.43-1.72-4.43l-0.03-0.75c1.79,0,2.92,1.99,2.92,5.17v0.02
			C165.76,360.43,164.22,362.57,161.74,362.57z"/>
		<path class="st1" d="M169.2,348.75c0-0.28,0.21-0.48,0.48-0.48h0.17c0.27,0,0.48,0.21,0.48,0.48v13.04c0,0.28-0.21,0.48-0.48,0.48
			h-0.17c-0.27,0-0.48-0.21-0.48-0.48V348.75z"/>
		<path class="st1" d="M181.73,360.37c0,1.35-1.63,2.2-3.3,2.2c-2.75,0-4.66-1.41-4.66-5.38c0-3.98,1.91-5.36,4.51-5.36
			c2.01-0.01,3.29,1,3.29,2.09c0.01,2.98-5.33-0.01-5.69,1.85C175.48,357.89,181.73,357.8,181.73,360.37z M180.69,360.27
			c0-2.31-5.37-2.33-4.99-4.51c0.35-2,5.53,0.64,4.96-1.86c-0.3-0.98-0.98-1.9-2.38-1.89c-1.98,0-3.37,1.59-3.37,5.17
			c0,3.58,1.39,5.19,3.52,5.19C180.11,362.38,180.69,361.23,180.69,360.27z"/>
	</g>
	<g>
		<ellipse class="st2" cx="124.06" cy="325.85" rx="100.35" ry="6.08"/>
		<g>
			
				<linearGradient id="SVGID_1_" gradientUnits="userSpaceOnUse" x1="245.2963" y1="283.3806" x2="230.8454" y2="283.1795" gradientTransform="matrix(1 0 0 -1 -172.5 579)">
				<stop  offset="0" style="stop-color:#F8A164"/>
				<stop  offset="0.1" style="stop-color:#F8A469"/>
				<stop  offset="0.63" style="stop-color:#F7B37B"/>
				<stop  offset="1" style="stop-color:#F7B882"/>
			</linearGradient>
			<path class="st3" d="M65.05,270.52c-0.27,2.08,3.3,22.31,3.5,24.96c0.21,2.65-0.42,7.77-0.21,9.66
				c0.21,1.89,0.63,15.35-0.21,16.48c-0.84,1.14-1.89,0.95-5.24,0.76c-3.35-0.19-5.66,1.89-5.66,1.89s1.68,1.33,8.17,0.95
				s8.59,0,7.96-1.89c-0.63-1.89,1.32-14.33,1.32-19.07s-0.42-8.64-0.84-11.11c-0.42-2.46,0.26-18.97-0.42-22.01
				C71.82,263.9,65.74,265.22,65.05,270.52L65.05,270.52z"/>
			<g>
				<path class="st4" d="M57.21,281.7c0.1-0.23,0.19-0.45,0.27-0.66c0.67-0.54,1.91-1.03,3.34-1.45c6.41,0.1,10.31,1.24,13.13,1.44
					c8.94,0.62,15-6.75,21.92,1.43c1.63-4.95,11.01-7.11,13.08-11.88c-4.31-4.87-13.5-6.98-18.12-8.04
					c-7.62-1.74-24,1.37-23.65,2.16c-0.65,0.26-5.77,6.57-7.11,7.19c-0.7,0.17-4.87,0.82-5.83,0.89c-0.13-0.29-0.26-0.58-0.35-0.86
					c-0.53-1.31-1.32-3.15-1.74-3.68c-0.8-1-1.57-0.32-2.34,0.35c-0.41,0.36-0.86,0.62-1.4,0.36c-0.27-0.14-0.36-0.28-0.67-0.31
					c-0.2-0.01-0.36,0.14-0.47,0.28c-0.21,0.26-0.04,0.53-0.3,0.2c-0.2-0.26-0.68-0.15-0.91,0.06c-0.34,0.31-0.11,0.8-1.02,0.59
					c-0.24-0.05-0.45-0.17-0.69-0.22c-0.26-0.05-0.44,0.17-0.51,0.39c-0.2,0.67-0.31,1.36-0.58,2.02c-0.1,0.19-0.19,0.37-0.28,0.53
					c-0.05,0.07-0.1,0.13-0.16,0.2c-0.17-0.32-0.83-0.55-1.27-0.45c0.39,0.12,0.7,0.46,0.81,0.87c-0.33,0.24-0.72,0.44-1.13,0.64
					c-0.75,0.39-1.44,0.9-2.06,1.48c-0.32,0.3-1.1,1.25-1.79,2.55C47.04,287.61,56.1,281.16,57.21,281.7L57.21,281.7z"/>
				<path class="st5" d="M57.52,282.38c-0.47,1.17-1.53,3.37-3.37,5.01c-1.58,1.41-2.68,1.83-3.32,1.92
					c-0.11,0.02-0.21,0.03-0.31,0.03c0.38,0.58,1.06,2.02-0.23,3.63c-0.84,1.05-2.49,1.86-4.4,2.15c-2.46,0.37-5.75-0.07-6.94-2.58
					c-0.42-0.89-0.36-1.76-0.18-2.43c-0.14,0.09-0.28,0.16-0.42,0.21c-0.51,0.17-0.96-0.15-1.03-0.49
					c-0.04-0.19,0.05-0.45,0.43-0.53c0.24-0.05,0.5-0.16,0.79-0.3c-0.39,0.01-0.77-0.06-1.06-0.21c-0.38-0.19-0.5-0.57-0.46-0.85
					c0.06-0.37,0.42-0.53,0.77-0.3c0.18,0.11,0.39,0.22,0.65,0.31c-1.15-1.23-2.73-3.18-2.69-5.93c0.03-1.67,0.4-3.76,1.84-5.12
					l0.09-0.08l0.09,0.08c4.04,0.9,5.88,2.91,9.02,1.88l0.1,0.24c-0.63,0.51-0.42,1.3-0.34,1.67c0.14,0.59,1.06,1.5,2.31,0.97
					c1.9-0.8,2.91-3.16,2.91-3.16s5.51,0.31,6.24,1.58l-0.47,2.28L57.52,282.38L57.52,282.38z"/>
				<path class="st6" d="M37.03,287.94c0.06-0.37,0.42-0.53,0.77-0.3c0.18,0.11,0.39,0.22,0.65,0.31c-0.06-0.07,6.9-2.42,12.68,1.31
					c-0.11,0.03-0.21,0.05-0.3,0.06c-0.05,0.01-0.08,0.01-0.13,0.01c-0.02-0.01-0.03-0.02-0.06-0.03c-9.89-3.3-11.89,0.9-11.87,0.81
					c-0.14,0.09-0.28,0.16-0.42,0.21c-0.51,0.17-0.96-0.15-1.03-0.49c-0.04-0.19,0.05-0.45,0.43-0.53c0.24-0.05,0.5-0.16,0.79-0.3
					c-0.39,0.01-0.77-0.06-1.06-0.21C37.11,288.59,36.98,288.21,37.03,287.94L37.03,287.94z"/>
				<path class="st6" d="M41.12,272.29c0,0,1.25,0.48,2.09,1.96C43.79,275.29,43.72,271.74,41.12,272.29z"/>
				<path class="st7" d="M52.25,268.46c0,0,1.96,3.01,2.5,6.13C54.05,273.09,53.29,270.97,52.25,268.46z"/>
				<path class="st8" d="M49.61,271.77c1.31,1.72-0.13,4.67-2.51,4.68C44.72,276.46,48.77,270.67,49.61,271.77z"/>
				<path class="st9" d="M62.98,269c-1.22,1.52,0.67,5.61,4.22,6.3c1.87,0.36,3.09,3.53,2.89,5.28c4.19,1.68,12.29-0.39,15.27-1.49
					c0.41-1.77,1.96-13.14,0.63-17.21c-2.12,0-8.14,0.54-8.15,0.54c-1.43-2.7-6.85-3.24-9.63-1.11C67.18,262.09,64.31,267,62.98,269
					L62.98,269z"/>
			</g>
			<path class="st1" d="M95.36,282.62c1.91,0.69,5.32,9.9,17.68,6.76c5.36,2.4,20.22,8.5,25.3,10.23c0.4,0.14,4.42,1.12,7.72,1.96
				c0.92,0.77,1.96,1.76,3.04,2.79c2.83-2.31,4.14-5.91,4.9-9.56c-2.25-1.6-4.77-3.32-5.99-4.03c-0.01,0.04-0.03,0.08-0.04,0.12
				c-0.18-0.16-0.35-0.32-0.54-0.49c-4.65-3.69-33.19-21.69-38.15-23.25c-2.86-0.9-5.23-1.67-7.51-1.65
				C98.2,270,94.49,282.31,95.36,282.62L95.36,282.62z"/>
			<path class="st10" d="M149.11,304.37c1.9,1.82,3.89,3.77,5.45,4.98c7.69,5.79,18.17,4.59,25.71,9.78c2.41,1.49,2,3.79,4.04,5.05
				c2.11,1.56,5.71,0.73,7.92,0.05c0,0,9.8,0.98,10.94,0.16c1.08-0.78,0-2.93-1.89-2.3c-5.14-2.66-8.98-2.93-13.8-5.91
				c-10.11-6.01-20.64-11.76-30.07-18.88c-0.82-0.62-2.07-1.53-3.4-2.47C153.25,298.45,151.93,302.06,149.11,304.37L149.11,304.37z"
				/>
			<path class="st11" d="M84.84,261.91c0.02,0.03,0.03,0.05,0.04,0.09c1.05,5.59-0.47,17.19-0.49,17.31
				c-0.01,0.11-0.11,0.18-0.22,0.16c-0.11-0.02-0.18-0.12-0.17-0.23c0.02-0.12,1.53-11.65,0.49-17.18
				c-0.02-0.11,0.05-0.21,0.16-0.22C84.73,261.83,84.8,261.86,84.84,261.91z"/>
			<path class="st4" d="M62.12,272.83c-0.27,2.08,3.3,22.31,3.5,24.96c0.21,2.65-0.42,7.77-0.21,9.66
				c0.21,1.89,0.63,15.35-0.21,16.48c-0.84,1.14-1.89,0.95-5.24,0.76s-5.66,1.89-5.66,1.89s1.68,1.33,8.17,0.95s8.59,0,7.96-1.89
				c-0.63-1.89,1.89-16.29,1.89-21.03s0-6.44-0.42-8.9c-0.42-2.46,0.68-19.51,0-22.55C70.29,265.91,62.81,267.53,62.12,272.83
				L62.12,272.83z"/>
		</g>
	</g>
</g>
</svg>
