<?xml version="1.0" encoding="utf-8"?>
<!-- Generator: Adobe Illustrator 26.5.0, SVG Export Plug-In . SVG Version: 6.00 Build 0)  -->
<svg version="1.1" id="Layer_1" xmlns="http://www.w3.org/2000/svg" xmlns:xlink="http://www.w3.org/1999/xlink" x="0px" y="0px"
	 viewBox="0 0 250 79" style="enable-background:new 0 0 250 79;" xml:space="preserve">
<style type="text/css">
	.st0{fill:#B2BCC4;}
	.st1{fill:url(#SVGID_1_);}
	.st2{fill:#F7B882;}
	.st3{fill:#8F5424;}
	.st4{fill:#452713;}
	.st5{fill:#CE986E;}
	.st6{fill:#F3AF80;}
	.st7{fill:#FFFFFF;}
	.st8{fill:#355775;}
	.st9{fill:#F5B780;}
	.st10{fill:#D1E5FF;}
</style>
<g>
	<g>
		<ellipse class="st0" cx="124.1" cy="72.9" rx="100.4" ry="6.1"/>
		<g>
			
				<linearGradient id="SVGID_1_" gradientUnits="userSpaceOnUse" x1="245.2974" y1="30.2983" x2="230.8465" y2="30.0971" gradientTransform="matrix(1 0 0 -1 -172.5 73)">
				<stop  offset="0" style="stop-color:#F8A164"/>
				<stop  offset="0.1" style="stop-color:#F8A469"/>
				<stop  offset="0.63" style="stop-color:#F7B37B"/>
				<stop  offset="1" style="stop-color:#F7B882"/>
			</linearGradient>
			<path class="st1" d="M65.1,17.5c-0.3,2.1,3.3,22.3,3.5,25c0.2,2.6-0.4,7.8-0.2,9.7s0.6,15.4-0.2,16.5c-0.8,1.1-1.9,1-5.2,0.8
				s-5.7,1.9-5.7,1.9s1.7,1.3,8.2,1s8.6,0,8-1.9s1.3-14.3,1.3-19.1s-0.4-8.6-0.8-11.1s0.3-19-0.4-22C71.8,10.9,65.7,12.2,65.1,17.5
				L65.1,17.5z"/>
			<g>
				<path class="st2" d="M57.2,28.7c0.1-0.2,0.2-0.5,0.3-0.7c0.7-0.5,1.9-1,3.3-1.5c6.4,0.1,10.3,1.2,13.1,1.4
					c8.9,0.6,15-6.8,21.9,1.4c1.6-5,11-7.1,13.1-11.9c-4.3-4.9-13.5-7-18.1-8c-7.6-1.7-24,1.4-23.7,2.2c-0.7,0.3-5.8,6.6-7.1,7.2
					c-0.7,0.2-4.9,0.8-5.8,0.9c-0.1-0.3-0.3-0.6-0.3-0.9c-0.5-1.3-1.3-3.1-1.7-3.7c-0.8-1-1.6-0.3-2.3,0.4c-0.4,0.4-0.9,0.6-1.4,0.4
					c-0.3-0.1-0.4-0.3-0.7-0.3c-0.2,0-0.4,0.1-0.5,0.3c-0.2,0.3,0,0.5-0.3,0.2c-0.2-0.3-0.7-0.1-0.9,0.1c-0.3,0.3-0.1,0.8-1,0.6
					c-0.2,0-0.5-0.2-0.7-0.2c-0.3,0-0.4,0.2-0.5,0.4c-0.2,0.7-0.3,1.4-0.6,2c-0.1,0.2-0.2,0.4-0.3,0.5c0,0.1-0.1,0.1-0.2,0.2
					c-0.2-0.3-0.8-0.5-1.3-0.5c0.4,0.1,0.7,0.5,0.8,0.9c-0.3,0.2-0.7,0.4-1.1,0.6c-0.8,0.4-1.4,0.9-2.1,1.5
					c-0.3,0.3-1.1,1.2-1.8,2.5C47,34.6,56.1,28.2,57.2,28.7L57.2,28.7z"/>
				<path class="st3" d="M57.5,29.4c-0.5,1.2-1.5,3.4-3.4,5c-1.6,1.4-2.7,1.8-3.3,1.9c-0.1,0-0.2,0-0.3,0c0.4,0.6,1.1,2-0.2,3.6
					c-0.8,1-2.5,1.9-4.4,2.1c-2.5,0.4-5.8-0.1-6.9-2.6c-0.4-0.9-0.4-1.8-0.2-2.4c-0.1,0.1-0.3,0.2-0.4,0.2c-0.5,0.2-1-0.1-1-0.5
					c0-0.2,0-0.5,0.4-0.5c0.2,0,0.5-0.2,0.8-0.3c-0.4,0-0.8-0.1-1.1-0.2c-0.4-0.2-0.5-0.6-0.5-0.9c0.1-0.4,0.4-0.5,0.8-0.3
					c0.2,0.1,0.4,0.2,0.7,0.3c-1.2-1.2-2.7-3.2-2.7-5.9c0-1.7,0.4-3.8,1.8-5.1l0.1-0.1l0.1,0.1c4,0.9,5.9,2.9,9,1.9l0.1,0.2
					c-0.6,0.5-0.4,1.3-0.3,1.7c0.1,0.6,1.1,1.5,2.3,1c1.9-0.8,2.9-3.2,2.9-3.2s5.5,0.3,6.2,1.6L57.5,29.4L57.5,29.4L57.5,29.4z"/>
				<path class="st4" d="M37,34.9c0.1-0.4,0.4-0.5,0.8-0.3c0.2,0.1,0.4,0.2,0.7,0.3c-0.1-0.1,6.9-2.4,12.7,1.3c-0.1,0-0.2,0-0.3,0.1
					h-0.1c0,0,0,0-0.1,0c-9.9-3.3-11.9,0.9-11.9,0.8c-0.1,0.1-0.3,0.2-0.4,0.2c-0.5,0.2-1-0.1-1-0.5c0-0.2,0-0.5,0.4-0.5
					c0.2,0,0.5-0.2,0.8-0.3c-0.4,0-0.8-0.1-1.1-0.2C37.1,35.6,37,35.2,37,34.9L37,34.9z"/>
				<path class="st4" d="M41.1,19.3c0,0,1.2,0.5,2.1,2C43.8,22.3,43.7,18.7,41.1,19.3z"/>
				<path class="st5" d="M52.2,15.5c0,0,2,3,2.5,6.1C54,20.1,53.3,18,52.2,15.5z"/>
				<path class="st6" d="M49.6,18.8c1.3,1.7-0.1,4.7-2.5,4.7C44.7,23.5,48.8,17.7,49.6,18.8z"/>
				<path class="st7" d="M63,16c-1.2,1.5,0.7,5.6,4.2,6.3c1.9,0.4,3.1,3.5,2.9,5.3c4.2,1.7,12.3-0.4,15.3-1.5
					c0.4-1.8,2-13.1,0.6-17.2c-2.1,0-8.1,0.5-8.2,0.5c-1.4-2.7-6.8-3.2-9.6-1.1C67.2,9.1,64.3,14,63,16L63,16z"/>
			</g>
			<path class="st8" d="M95.4,29.6c1.9,0.7,5.3,9.9,17.7,6.8c5.4,2.4,20.2,8.5,25.3,10.2c0.4,0.1,4.4,1.1,7.7,2c0.9,0.8,2,1.8,3,2.8
				c2.8-2.3,4.1-5.9,4.9-9.6c-2.2-1.6-4.8-3.3-6-4v0.1c-0.2-0.2-0.4-0.3-0.5-0.5c-4.6-3.7-33.2-21.7-38.2-23.2
				c-2.9-0.9-5.2-1.7-7.5-1.6C98.2,17,94.5,29.3,95.4,29.6L95.4,29.6z"/>
			<path class="st9" d="M149.1,51.4c1.9,1.8,3.9,3.8,5.4,5c7.7,5.8,18.2,4.6,25.7,9.8c2.4,1.5,2,3.8,4,5c2.1,1.6,5.7,0.7,7.9,0
				c0,0,9.8,1,10.9,0.2c1.1-0.8,0-2.9-1.9-2.3c-5.1-2.7-9-2.9-13.8-5.9c-10.1-6-20.6-11.8-30.1-18.9c-0.8-0.6-2.1-1.5-3.4-2.5
				C153.2,45.5,151.9,49.1,149.1,51.4L149.1,51.4z"/>
			<path class="st10" d="M84.8,8.9C84.9,8.9,84.9,9,84.8,8.9c1.1,5.7-0.4,17.3-0.4,17.4s-0.1,0.2-0.2,0.2S84,26.4,84,26.3
				s1.5-11.6,0.5-17.2C84.5,9,84.6,8.9,84.8,8.9C84.7,8.8,84.8,8.9,84.8,8.9z"/>
			<path class="st2" d="M62.1,19.8c-0.3,2.1,3.3,22.3,3.5,25c0.2,2.6-0.4,7.8-0.2,9.7S66,69.9,65.2,71c-0.8,1.1-1.9,1-5.2,0.8
				s-5.7,1.9-5.7,1.9s1.7,1.3,8.2,1s8.6,0,8-1.9s1.9-16.3,1.9-21s0-6.4-0.4-8.9s0.7-19.5,0-22.5C70.3,12.9,62.8,14.5,62.1,19.8
				L62.1,19.8z"/>
		</g>
	</g>
</g>
</svg>
