<?xml version="1.0" encoding="utf-8"?>
<!-- Generator: Adobe Illustrator 26.5.0, SVG Export Plug-In . SVG Version: 6.00 Build 0)  -->
<svg version="1.1" id="Layer_1" xmlns="http://www.w3.org/2000/svg" xmlns:xlink="http://www.w3.org/1999/xlink" x="0px" y="0px"
	 viewBox="0 0 656.68 1042.53" style="enable-background:new 0 0 656.68 1042.53;" xml:space="preserve">
<style type="text/css">
	.st0{fill:#355775;}
	.st1{font-family:'FarmWaveFree-Regular';}
	.st2{font-size:85px;}
	.st3{letter-spacing:6;}
	.st4{letter-spacing:3;}
	.st5{fill:#B2BCC4;}
	.st6{fill:#F3B67F;}
	.st7{fill:#F5B780;}
	.st8{fill:#8E5424;}
	.st9{fill:#452815;}
	.st10{fill:#CD976D;}
	.st11{fill:#F1AE80;}
	.st12{fill:#FFFFFF;}
	.st13{fill:#D1E5FF;}
	.st14{fill:#F7B882;}
</style>
<text transform="matrix(1 0 0 1 64.31 1021.28)" class="st0 st1 st2 st3">Up</text>
<text transform="matrix(1 0 0 1 160.1 1021.28)" class="st0 st1 st2 st4">w</text>
<text transform="matrix(1 0 0 1 211.81 1021.28)" class="st0 st1 st2 st3">ard salut</text>
<g>
	<ellipse class="st5" cx="328.34" cy="891.45" rx="245.5" ry="24.81"/>
	<g>
		<path class="st6" d="M418.56,700.7c-8.4,8.19-17.45,16.8-23.07,23.53c-27.03,33.41-30.14,76.78-54.47,109.66
			c-7.03,10.51-13.85,15.16-19.8,24.05c-7.3,9.17-7.45,30.79,18.63,29.57c31.91-1.49,53.44,9.74,72.16,0.38
			c1.53-0.76,4.37-7.8-3.75-8.43c-24.34-1.87-49.33-26.19-39.31-41.18c28.39-44.2,85.42-115.87,89.86-121.68
			C442.66,712.62,428.43,713.67,418.56,700.7L418.56,700.7z"/>
		<g>
			<path class="st7" d="M303.83,351.5c1.03-0.43,2.01-0.84,2.92-1.21c3.82,0.43,9.28,2.77,15.09,6
				c19.9,20.61,28.58,36.53,36.83,46.06c26.22,30.26,68.64,26.18,64.59,73.83c20.78-10.44,78.22-11,76.21-18.71
				c-6.03-23.12-20.68-46.57-29.12-60.04c-18.52-29.58-80-71.59-81.39-67.97c-2.86-1.23-38.97,2.45-45.16,0.19
				c-2.75-1.66-17.93-12.82-21.19-15.62c0.49-1.35,1.02-2.65,1.6-3.83c2.49-5.81,5.82-14.1,6.14-17.11c0.62-5.68-3.93-5.99-8.51-6.3
				c-2.42-0.16-4.69-0.76-5.53-3.29c-0.42-1.3-0.22-2.02-1.14-3.1c-0.61-0.67-1.57-0.7-2.39-0.61c-1.46,0.15-1.79,1.53-1.58-0.29
				c0.19-1.44-1.67-2.61-3.06-2.67c-2.04-0.09-2.87,2.18-5.1-1.36c-0.57-0.92-0.87-1.97-1.48-2.86c-0.66-0.96-1.91-0.85-2.84-0.37
				c-2.77,1.48-5.3,3.3-8.22,4.52c-0.9,0.31-1.8,0.57-2.57,0.79c-0.38,0.07-0.75,0.1-1.11,0.13c0.48-1.56-0.88-4.34-2.6-5.44
				c0.84,1.61,0.77,3.67-0.19,5.31c-1.82-0.28-3.66-0.91-5.6-1.56c-3.6-1.17-7.39-1.74-11.18-1.83c-1.98-0.07-7.43,0.48-13.71,2.36
				C253.06,337.96,302.04,346.28,303.83,351.5L303.83,351.5z"/>
			<path class="st8" d="M302.64,354.59c-5.18,2.2-15.51,5.79-26.5,5.14c-9.45-0.55-14.23-2.73-16.57-4.46
				c-0.4-0.29-0.76-0.6-1.05-0.9c-0.64,3.04-3.05,9.71-12.19,10.73c-5.99,0.66-13.71-2.01-20.67-7.13
				c-8.93-6.59-17.89-18.42-13.74-30.08c1.48-4.14,4.43-6.7,7.13-8.25c-0.73-0.15-1.4-0.37-1.97-0.67c-2.15-1.08-2.55-3.53-1.67-4.8
				c0.5-0.73,1.59-1.24,3.04-0.32c0.92,0.58,2.09,1.11,3.45,1.54c-1.27-1.2-2.24-2.62-2.68-3.99c-0.58-1.79,0.22-3.39,1.23-4.11
				c1.36-0.98,2.98-0.36,3.37,1.47c0.19,0.92,0.55,1.93,1.06,3.01c0.28-7.54,1.44-18.65,10.28-27.21
				c5.36-5.19,13.16-10.59,21.98-10.32l0.52,0.01l0.05,0.52c9.89,15.6,9.35,27.78,22.5,34.45l-0.43,1.07
				c-3.6-0.36-5.44,2.76-6.33,4.19c-1.44,2.3-1.42,8.08,4.2,10.37c8.52,3.48,19.19-0.77,19.19-0.77s16.39,18.42,14.68,24.71
				l-8.7,5.68L302.64,354.59L302.64,354.59z"/>
			<path class="st9" d="M220.44,307.32c1.36-0.98,2.98-0.36,3.37,1.47c0.19,0.92,0.55,1.93,1.06,3.01
				c0.01-0.43,29.41,14.19,35.83,44.23c-0.43-0.25-0.81-0.5-1.13-0.74c-0.16-0.12-0.29-0.25-0.44-0.37
				c-0.04-0.09-0.05-0.17-0.09-0.26c-20.73-41.68-40.37-34.78-39.99-34.99c-0.73-0.15-1.4-0.37-1.97-0.67
				c-2.15-1.08-2.55-3.53-1.67-4.8c0.5-0.73,1.59-1.24,3.04-0.32c0.92,0.58,2.09,1.11,3.45,1.54c-1.27-1.2-2.24-2.62-2.68-3.99
				C218.63,309.63,219.44,308.04,220.44,307.32L220.44,307.32z"/>
			<path class="st9" d="M282.86,270.93c0,0,2.44,5.47,0.36,12.79C281.77,288.85,292.77,277.41,282.86,270.93z"/>
			<path class="st10" d="M330.04,294.05c0,0-3.34,15.67-11.49,27.24C321.09,314.37,325.41,305.25,330.04,294.05z"/>
			<path class="st11" d="M311.26,296.17c-1.33,9.56-15.21,14.32-22.72,6.8C281.02,295.46,312.11,290.01,311.26,296.17z"/>
			<path class="st12" d="M429.84,355.91c4.05-13.05-11.34-31.9-26.85-33.99c-5.7-0.73-30.31,5.7-40.84,7.78
				c-1.34,0.15-2.62,0.76-3.83,1.68c16.23,8.61,24.02,28.88,22.07,46.54c-1.55,13.99-9.38,23.19-20.34,26.83
				c12.97,12.51,31.66,23.31,40.78,27.53c6.89-4.29,47.73-35.22,56.42-52.28C450.57,373.29,429.9,355.95,429.84,355.91z"/>
		</g>
		<path class="st0" d="M418.17,454.56c-0.25,9.08-43.13,53.78,6.71,92.39c-2.67,26.09-3.51,102.26-6.78,147.52
			c-2,4.96-11.68,12.59-14.54,18.61c13.76,8.75,26.57,23.15,43.09,21.3c1.46-3.01,13.36-17.22,14.64-20.32
			c45.27-109.78,42.24-199.64,41.94-222.13c-0.18-13.41-0.23-24.5-3.51-34.16C475.65,448.93,418.29,450.43,418.17,454.56
			L418.17,454.56z"/>
		<path class="st13" d="M453.53,376.5c-0.01,0.14-0.07,0.28-0.16,0.42c-14.39,20.94-55.87,52.72-56.29,53.03
			c-0.38,0.29-0.92,0.21-1.2-0.19c-0.28-0.4-0.19-0.95,0.19-1.25c0.42-0.31,41.68-31.92,55.91-52.63c0.28-0.4,0.81-0.49,1.2-0.22
			C453.44,375.87,453.56,376.2,453.53,376.5L453.53,376.5z"/>
		<path class="st14" d="M152.18,295.09c6.42,0.75,23.04,15.81,31.29,21.53c14.83,10.08,43.24,17.04,60.27,25.27
			c6.56,4.59,28.32,17.97,32.4,20.17c16.8,7.48,76.99,31.48,77.13,31.07c3.16,1.34,6.54,2.72,10.11,4.15
			c15.39-16.22,10.48-40.73-10.91-55.49c-18.95-4.58-53.53-13.44-91.45-25.56c-30.18-19.35-77.95-27.19-107.32-43.78
			c0,0-11.17-12.28-33.96-19.05c-5.13-1.53-15.44-2.43-16.52,1.17l-0.53,0.48c-4.26,0.12-7.46,1.24-8.05,4.37l-0.9,1.05
			c-3.86-0.14-6.78,0.27-7.44,1.77c-0.71,1.62,1.02,3.12,3.99,4.48l0.81,1.43c9.56,12.37,32.08,17.35,32.08,17.35
			c-4.22,0.7-15.46,0.18-14.77,8.1c7.27-3.04,12.7,3.51,21.26,2.39C136.52,295.1,145.77,294.34,152.18,295.09z"/>
	</g>
</g>
</svg>
