<?xml version="1.0" encoding="utf-8"?>
<!-- Generator: Adobe Illustrator 26.5.0, SVG Export Plug-In . SVG Version: 6.00 Build 0)  -->
<svg version="1.1" id="Layer_1" xmlns="http://www.w3.org/2000/svg" xmlns:xlink="http://www.w3.org/1999/xlink" x="0px" y="0px"
	 viewBox="0 0 250 180.1" style="enable-background:new 0 0 250 180.1;" xml:space="preserve">
<style type="text/css">
	.st0{fill:#B2BCC4;}
	.st1{fill:#F3B67F;}
	.st2{fill:#F5B780;}
	.st3{fill:#8E5424;}
	.st4{fill:#452815;}
	.st5{fill:#CD976D;}
	.st6{fill:#F1AE80;}
	.st7{fill:#FFFFFF;}
	.st8{fill:#355775;}
	.st9{fill:#D1E5FF;}
	.st10{fill:#F7B882;}
</style>
<g>
	<g>
		<ellipse class="st0" cx="130.2" cy="173.5" rx="65.1" ry="6.6"/>
		<g>
			<path class="st1" d="M154.2,123c-2.2,2.2-4.6,4.5-6.1,6.2c-7.2,8.9-8,20.4-14.4,29.1c-1.9,2.8-3.7,4-5.2,6.4
				c-1.9,2.4-2,8.2,4.9,7.8c8.5-0.4,14.2,2.6,19.1,0.1c0.4-0.2,1.2-2.1-1-2.2c-6.4-0.5-13.1-6.9-10.4-10.9
				c7.5-11.7,22.6-30.7,23.8-32.3C160.6,126.1,156.8,126.4,154.2,123L154.2,123z"/>
			<g>
				<path class="st2" d="M123.8,30.4c0.3-0.1,0.5-0.2,0.8-0.3c1,0.1,2.5,0.7,4,1.6c5.3,5.5,7.6,9.7,9.8,12.2
					c6.9,8,18.2,6.9,17.1,19.6c5.5-2.8,20.7-2.9,20.2-5c-1.6-6.1-5.5-12.3-7.7-15.9c-4.9-7.8-21.2-19-21.6-18
					c-0.8-0.3-10.3,0.6-12,0.1c-0.7-0.4-4.8-3.4-5.6-4.1c0.1-0.4,0.3-0.7,0.4-1c0.7-1.5,1.5-3.7,1.6-4.5c0.2-1.5-1-1.6-2.3-1.7
					c-0.6,0-1.2-0.2-1.5-0.9c-0.1-0.3-0.1-0.5-0.3-0.8c-0.2-0.2-0.4-0.2-0.6-0.2c-0.4,0-0.5,0.4-0.4-0.1c0.1-0.4-0.4-0.7-0.8-0.7
					c-0.5,0-0.8,0.6-1.3-0.4c-0.2-0.2-0.2-0.5-0.4-0.8c-0.2-0.2-0.5-0.2-0.8-0.1c-0.7,0.4-1.4,0.9-2.2,1.2c-0.2,0.1-0.5,0.1-0.7,0.2
					c-0.1,0-0.2,0-0.3,0c0.1-0.4-0.2-1.1-0.7-1.4c0.2,0.4,0.2,1-0.1,1.4c-0.5-0.1-1-0.2-1.5-0.4c-0.9-0.3-2-0.5-3-0.5
					c-0.5,0-2,0.1-3.6,0.6C110.3,26.8,123.3,29,123.8,30.4L123.8,30.4z"/>
				<path class="st3" d="M123.4,31.2c-1.4,0.6-4.1,1.5-7,1.4c-2.5-0.1-3.8-0.7-4.4-1.2c-0.1-0.1-0.2-0.2-0.3-0.2
					c-0.2,0.8-0.8,2.6-3.2,2.8c-1.6,0.2-3.6-0.5-5.5-1.9c-2.4-1.8-4.7-4.9-3.6-8c0.4-1.1,1.2-1.8,1.9-2.2c-0.2,0-0.4-0.1-0.5-0.2
					c-0.6-0.3-0.7-0.9-0.4-1.3c0.1-0.2,0.4-0.3,0.8-0.1c0.2,0.1,0.6,0.3,0.9,0.4c-0.3-0.3-0.6-0.7-0.7-1.1c-0.2-0.5,0.1-0.9,0.3-1.1
					c0.4-0.3,0.8-0.1,0.9,0.4c0.1,0.2,0.2,0.5,0.3,0.8c0.1-2,0.4-4.9,2.7-7.2c1.4-1.4,3.5-2.8,5.8-2.7h0.1v0.1
					c2.6,4.1,2.5,7.4,6,9.1l-0.1,0.3c-0.9-0.1-1.4,0.7-1.7,1.1c-0.4,0.6-0.4,2.1,1.1,2.8c2.3,0.9,5.1-0.2,5.1-0.2s4.3,4.9,3.9,6.6
					L123.4,31.2L123.4,31.2L123.4,31.2z"/>
				<path class="st4" d="M101.6,18.7c0.4-0.3,0.8-0.1,0.9,0.4c0.1,0.2,0.2,0.5,0.3,0.8c0-0.1,7.8,3.8,9.5,11.7
					c-0.1-0.1-0.2-0.1-0.3-0.2l-0.1-0.1v-0.1c-5.5-11.1-10.7-9.2-10.6-9.3c-0.2,0-0.4-0.1-0.5-0.2c-0.6-0.3-0.7-0.9-0.4-1.3
					c0.1-0.2,0.4-0.3,0.8-0.1c0.2,0.1,0.6,0.3,0.9,0.4c-0.3-0.3-0.6-0.7-0.7-1.1C101.2,19.3,101.4,18.9,101.6,18.7L101.6,18.7z"/>
				<path class="st4" d="M118.2,9c0,0,0.7,1.4,0.1,3.4C117.9,13.8,120.8,10.8,118.2,9z"/>
				<path class="st5" d="M130.7,15.2c0,0-0.9,4.1-3.1,7.2C128.3,20.6,129.5,18.1,130.7,15.2z"/>
				<path class="st6" d="M125.7,15.7c-0.3,2.5-4,3.8-6,1.8S125.9,14.1,125.7,15.7z"/>
				<path class="st7" d="M157.1,31.6c1.1-3.5-3-8.5-7.1-9c-1.5-0.2-8,1.5-10.8,2.1c-0.4,0-0.7,0.2-1,0.4c4.3,2.3,6.4,7.7,5.9,12.3
					c-0.4,3.7-2.5,6.1-5.4,7.1c3.4,3.3,8.4,6.2,10.8,7.3c1.8-1.1,12.6-9.3,15-13.9C162.6,36.2,157.2,31.6,157.1,31.6z"/>
			</g>
			<path class="st8" d="M154.1,57.7c-0.1,2.4-11.4,14.3,1.8,24.5c-0.7,6.9-0.9,27.1-1.8,39.1c-0.5,1.3-3.1,3.3-3.9,4.9
				c3.6,2.3,7,6.1,11.4,5.6c0.4-0.8,3.5-4.6,3.9-5.4c12-29.1,11.2-52.9,11.1-58.9c-0.1-3.6-0.1-6.5-0.9-9.1
				C169.3,56.2,154.1,56.6,154.1,57.7L154.1,57.7z"/>
			<path class="st9" d="M163.4,37v0.1c-3.8,5.6-14.8,14-14.9,14.1c-0.1,0.1-0.2,0.1-0.3-0.1s-0.1-0.2,0.1-0.3
				c0.1-0.1,11.1-8.5,14.8-13.9c0.1-0.1,0.2-0.1,0.3-0.1C163.4,36.9,163.4,36.9,163.4,37L163.4,37z"/>
			<path class="st10" d="M83.6,15.4c1.7,0.2,6.1,4.2,8.3,5.7c3.9,2.7,11.5,4.5,16,6.7c1.7,1.2,7.5,4.8,8.6,5.4
				c4.4,2,20.4,8.3,20.4,8.2c0.8,0.4,1.7,0.7,2.7,1.1c4.1-4.3,2.8-10.8-2.9-14.7c-5-1.2-14.2-3.6-24.2-6.8
				c-8-5.1-20.7-7.2-28.5-11.6c0,0-3-3.3-9-5.1c-1.4-0.4-4.1-0.6-4.4,0.3l-0.1,0.1c-1.1,0-2,0.3-2.1,1.2l-0.2,0.3
				c-1,0-1.8,0.1-2,0.5s0.3,0.8,1.1,1.2l0.2,0.4c2.5,3.3,8.5,4.6,8.5,4.6c-1.1,0.2-4.1,0.1-3.9,2.1c1.9-0.8,3.4,0.9,5.6,0.6
				C79.4,15.4,81.8,15.2,83.6,15.4z"/>
		</g>
	</g>
</g>
</svg>
