<?xml version="1.0" encoding="UTF-8"?>
<svg id="Layer_1" data-name="Layer 1" xmlns="http://www.w3.org/2000/svg" viewBox="0 0 656.68 1042.53">
  <defs>
    <style>
      .cls-1 {
        fill: #f7b882;
      }

      .cls-2 {
        fill: #f3b67f;
      }

      .cls-3 {
        fill: #f1ae80;
      }

      .cls-4 {
        fill: #f5b780;
      }

      .cls-5 {
        fill: #fff;
      }

      .cls-6 {
        fill: #8e5424;
      }

      .cls-7 {
        fill: #b2bcc4;
      }

      .cls-8 {
        fill: #cd976d;
      }

      .cls-9 {
        fill: #d1e5ff;
      }

      .cls-10 {
        fill: #452815;
      }

      .cls-11, .cls-12 {
        fill: #355775;
      }

      .cls-13 {
        letter-spacing: .08em;
      }

      .cls-14 {
        letter-spacing: .08em;
      }

      .cls-12 {
        font-family: FarmWaveFree-Regular, 'Farm Wave Free';
        font-size: 85px;
        isolation: isolate;
      }

      .cls-15 {
        letter-spacing: .04em;
      }
    </style>
  </defs>
  <text class="cls-12" transform="translate(64.31 1021.28)"><tspan class="cls-14" x="0" y="0">Up</tspan><tspan class="cls-15" x="95.79" y="0">w</tspan><tspan class="cls-13" x="147.5" y="0">ard salut</tspan></text>
  <g>
    <ellipse class="cls-7" cx="328.34" cy="855.14" rx="328.34" ry="33.18"/>
    <g>
      <path class="cls-2" d="M449,600.02c-11.24,10.96-23.34,22.47-30.86,31.47-36.15,44.69-40.31,102.69-72.85,146.67-9.4,14.06-18.53,20.27-26.48,32.17-9.76,12.26-9.96,41.18,24.92,39.55,42.68-1.99,71.47,13.03,96.51,.51,2.05-1.02,5.85-10.43-5.01-11.27-32.55-2.5-65.98-35.03-52.58-55.08,37.97-59.12,114.24-154.97,120.18-162.74-21.59-5.33-40.63-3.93-53.83-21.28Z"/>
      <g>
        <path class="cls-4" d="M295.56,132.99c1.38-.57,2.69-1.12,3.91-1.62,5.11,.57,12.41,3.71,20.18,8.02,26.62,27.57,38.22,48.85,49.26,61.6,35.07,40.47,91.8,35.01,86.39,98.74,27.79-13.96,104.62-14.71,101.93-25.02-8.06-30.92-27.66-62.29-38.94-80.3-24.77-39.56-106.99-95.75-108.86-90.91-3.83-1.64-52.12,3.28-60.4,.25-3.68-2.22-23.98-17.14-28.34-20.89,.66-1.8,1.36-3.54,2.14-5.12,3.33-7.77,7.78-18.86,8.21-22.88,.83-7.6-5.25-8.01-11.38-8.42-3.23-.22-6.27-1.01-7.39-4.4-.56-1.74-.3-2.7-1.53-4.14-.81-.9-2.1-.93-3.19-.82-1.95,.2-2.4,2.05-2.11-.39,.25-1.93-2.24-3.49-4.09-3.57-2.73-.12-3.84,2.92-6.82-1.82-.76-1.23-1.16-2.64-1.98-3.82-.88-1.29-2.55-1.14-3.8-.5-3.7,1.98-7.09,4.42-11,6.04-1.21,.41-2.41,.76-3.44,1.05-.51,.09-1,.14-1.49,.18,.64-2.09-1.18-5.8-3.48-7.27,1.13,2.15,1.03,4.91-.26,7.1-2.44-.38-4.9-1.22-7.49-2.08-4.81-1.56-9.88-2.33-14.95-2.45-2.65-.1-9.94,.64-18.34,3.16-.64,82.17,64.86,93.3,67.26,100.28Z"/>
        <path class="cls-6" d="M293.97,137.13c-6.93,2.94-20.74,7.74-35.44,6.88-12.64-.74-19.03-3.65-22.16-5.96-.53-.39-1.01-.8-1.41-1.2-.85,4.06-4.08,12.98-16.31,14.35-8.01,.88-18.34-2.69-27.64-9.54-11.95-8.81-23.93-24.63-18.37-40.23,1.98-5.54,5.92-8.96,9.53-11.03-.98-.2-1.87-.5-2.64-.89-2.87-1.44-3.41-4.72-2.24-6.42,.67-.97,2.13-1.66,4.06-.43,1.23,.78,2.79,1.48,4.61,2.06-1.7-1.61-2.99-3.51-3.58-5.33-.78-2.4,.3-4.53,1.64-5.5,1.82-1.31,3.99-.48,4.51,1.97,.26,1.23,.74,2.58,1.42,4.03,.37-10.08,1.92-24.94,13.75-36.39,7.17-6.94,17.6-14.17,29.4-13.8l.7,.02,.07,.7c13.23,20.86,12.5,37.16,30.09,46.07l-.58,1.43c-4.82-.48-7.28,3.69-8.47,5.61-1.92,3.08-1.9,10.8,5.62,13.87,11.4,4.66,25.66-1.03,25.66-1.03,0,0,21.92,24.64,19.64,33.05l-11.63,7.6-.23,.11Z"/>
        <path class="cls-10" d="M184.03,73.9c1.82-1.31,3.99-.48,4.51,1.97,.26,1.23,.74,2.58,1.42,4.03,.02-.57,39.34,18.98,47.92,59.15-.57-.34-1.08-.67-1.51-.99-.22-.16-.39-.33-.59-.5-.05-.12-.07-.23-.12-.35-27.73-55.75-53.99-46.51-53.48-46.8-.98-.2-1.87-.5-2.64-.89-2.87-1.44-3.41-4.72-2.24-6.42,.67-.97,2.13-1.66,4.06-.43,1.23,.78,2.79,1.48,4.61,2.06-1.7-1.61-2.99-3.51-3.58-5.33-.78-2.41,.3-4.54,1.64-5.5Z"/>
        <path class="cls-10" d="M267.51,25.24s3.27,7.31,.48,17.11c-1.94,6.85,12.78-8.45-.48-17.11Z"/>
        <path class="cls-8" d="M330.62,56.15s-4.47,20.96-15.37,36.43c3.4-9.25,9.17-21.45,15.37-36.43Z"/>
        <path class="cls-3" d="M305.49,58.99c-1.78,12.79-20.34,19.15-30.39,9.1s31.54-17.34,30.39-9.1Z"/>
        <path class="cls-5" d="M464.09,138.89c5.41-17.46-15.16-42.66-35.91-45.46-7.63-.97-40.54,7.62-54.62,10.4-1.79,.2-3.51,1.02-5.12,2.25,21.7,11.51,32.13,38.62,29.52,62.24-2.07,18.71-12.54,31.01-27.21,35.89,17.35,16.73,42.34,31.17,54.54,36.82,9.22-5.74,63.83-47.1,75.46-69.92-8.94-8.97-36.58-32.17-36.66-32.22Z"/>
      </g>
      <path class="cls-11" d="M448.48,270.83c-.34,12.15-57.69,71.93,8.97,123.57-3.57,34.9-4.69,136.76-9.07,197.3-2.67,6.64-15.62,16.84-19.45,24.89,18.4,11.7,35.53,30.96,57.63,28.49,1.95-4.03,17.87-23.03,19.58-27.18,60.54-146.83,56.49-267.01,56.09-297.09-.24-17.94-.31-32.77-4.7-45.69-32.17-11.82-108.89-9.81-109.05-4.29Z"/>
      <path class="cls-9" d="M495.78,166.43c-.02,.19-.09,.38-.21,.56-19.24,28.01-74.72,70.51-75.28,70.93-.51,.39-1.23,.28-1.61-.25-.37-.53-.26-1.27,.25-1.67,.56-.42,55.74-42.69,74.77-70.39,.37-.54,1.09-.66,1.6-.29,.36,.27,.52,.7,.48,1.11Z"/>
      <path class="cls-1" d="M92.74,57.55c8.58,1,30.82,21.14,41.85,28.8,19.83,13.48,57.83,22.79,80.61,33.8,8.78,6.14,37.88,24.04,43.33,26.97,22.47,10,102.97,42.1,103.16,41.56,4.23,1.79,8.75,3.64,13.52,5.55,20.58-21.69,14.01-54.48-14.59-74.22-25.34-6.13-71.59-17.97-122.31-34.19-40.36-25.88-104.25-36.37-143.53-58.55,0,0-14.94-16.42-45.42-25.48C42.5-.25,28.71-1.46,27.26,3.35l-.71,.64c-5.7,.16-9.98,1.66-10.76,5.85l-1.2,1.41c-5.16-.19-9.07,.36-9.95,2.37-.95,2.16,1.36,4.17,5.34,5.99l1.09,1.91c12.79,16.55,42.9,23.2,42.9,23.2-5.65,.93-20.68,.24-19.76,10.83,9.72-4.06,16.99,4.69,28.43,3.2,9.15-1.19,21.52-2.21,30.1-1.2Z"/>
    </g>
  </g>
</svg>