<?xml version="1.0" encoding="utf-8"?>
<!-- Generator: Adobe Illustrator 26.5.0, SVG Export Plug-In . SVG Version: 6.00 Build 0)  -->
<svg version="1.1" id="Layer_1" xmlns="http://www.w3.org/2000/svg" xmlns:xlink="http://www.w3.org/1999/xlink" x="0px" y="0px"
	 viewBox="0 0 250 400" style="enable-background:new 0 0 250 400;" xml:space="preserve">
<style type="text/css">
	.st0{fill:#355775;}
	.st1{font-family:'FarmWaveFree-Regular';}
	.st2{font-size:22.5319px;}
	.st3{letter-spacing:1;}
	.st4{fill:#B2BCC4;}
	.st5{fill:#F3B67F;}
	.st6{fill:#F5B780;}
	.st7{fill:#8E5424;}
	.st8{fill:#452815;}
	.st9{fill:#CD976D;}
	.st10{fill:#F1AE80;}
	.st11{fill:#FFFFFF;}
	.st12{fill:#D1E5FF;}
	.st13{fill:#F7B882;}
</style>
<g>
	<text transform="matrix(1 0 0 1 60.2563 362.9385)" class="st0 st1 st2 st3">Up</text>
	<text transform="matrix(1 0 0 1 85.6484 362.9385)" class="st0 st1 st2">w</text>
	<text transform="matrix(1 0 0 1 99.356 362.9385)" class="st0 st1 st2 st3">ard salut</text>
	<g>
		<ellipse class="st4" cx="130.25" cy="328.52" rx="65.08" ry="6.58"/>
		<g>
			<path class="st5" d="M154.16,277.96c-2.23,2.17-4.63,4.45-6.12,6.24c-7.17,8.86-7.99,20.35-14.44,29.07
				c-1.86,2.79-3.67,4.02-5.25,6.38c-1.94,2.43-1.97,8.16,4.94,7.84c8.46-0.39,14.17,2.58,19.13,0.1c0.41-0.2,1.16-2.07-0.99-2.23
				c-6.45-0.5-13.08-6.94-10.42-10.92c7.53-11.72,22.64-30.71,23.82-32.26C160.55,281.12,156.78,281.4,154.16,277.96L154.16,277.96z
				"/>
			<g>
				<path class="st6" d="M123.75,185.39c0.27-0.11,0.53-0.22,0.77-0.32c1.01,0.11,2.46,0.73,4,1.59c5.28,5.46,7.58,9.68,9.76,12.21
					c6.95,8.02,18.2,6.94,17.12,19.57c5.51-2.77,20.73-2.92,20.2-4.96c-1.6-6.13-5.48-12.34-7.72-15.92
					c-4.91-7.84-21.21-18.98-21.57-18.02c-0.76-0.33-10.33,0.65-11.97,0.05c-0.73-0.44-4.75-3.4-5.62-4.14
					c0.13-0.36,0.27-0.7,0.42-1.02c0.66-1.54,1.54-3.74,1.63-4.54c0.16-1.51-1.04-1.59-2.26-1.67c-0.64-0.04-1.24-0.2-1.47-0.87
					c-0.11-0.34-0.06-0.54-0.3-0.82c-0.16-0.18-0.42-0.19-0.63-0.16c-0.39,0.04-0.47,0.41-0.42-0.08c0.05-0.38-0.44-0.69-0.81-0.71
					c-0.54-0.02-0.76,0.58-1.35-0.36c-0.15-0.24-0.23-0.52-0.39-0.76c-0.17-0.25-0.51-0.23-0.75-0.1c-0.73,0.39-1.4,0.87-2.18,1.2
					c-0.24,0.08-0.48,0.15-0.68,0.21c-0.1,0.02-0.2,0.03-0.29,0.03c0.13-0.41-0.23-1.15-0.69-1.44c0.22,0.43,0.2,0.97-0.05,1.41
					c-0.48-0.07-0.97-0.24-1.48-0.41c-0.95-0.31-1.96-0.46-2.96-0.49c-0.52-0.02-1.97,0.13-3.63,0.63
					C110.29,181.8,123.27,184.01,123.75,185.39L123.75,185.39z"/>
				<path class="st7" d="M123.43,186.21c-1.37,0.58-4.11,1.53-7.02,1.36c-2.51-0.15-3.77-0.72-4.39-1.18
					c-0.11-0.08-0.2-0.16-0.28-0.24c-0.17,0.81-0.81,2.57-3.23,2.84c-1.59,0.17-3.63-0.53-5.48-1.89c-2.37-1.75-4.74-4.88-3.64-7.97
					c0.39-1.1,1.17-1.78,1.89-2.19c-0.19-0.04-0.37-0.1-0.52-0.18c-0.57-0.29-0.68-0.94-0.44-1.27c0.13-0.19,0.42-0.33,0.81-0.08
					c0.24,0.15,0.55,0.29,0.91,0.41c-0.34-0.32-0.59-0.69-0.71-1.06c-0.15-0.47,0.06-0.9,0.33-1.09c0.36-0.26,0.79-0.1,0.89,0.39
					c0.05,0.24,0.15,0.51,0.28,0.8c0.07-2,0.38-4.94,2.73-7.21c1.42-1.38,3.49-2.81,5.83-2.74l0.14,0l0.01,0.14
					c2.62,4.14,2.48,7.36,5.96,9.13l-0.11,0.28c-0.95-0.1-1.44,0.73-1.68,1.11c-0.38,0.61-0.38,2.14,1.11,2.75
					c2.26,0.92,5.09-0.2,5.09-0.2s4.34,4.88,3.89,6.55l-2.31,1.51L123.43,186.21L123.43,186.21z"/>
				<path class="st8" d="M101.64,173.68c0.36-0.26,0.79-0.1,0.89,0.39c0.05,0.24,0.15,0.51,0.28,0.8c0-0.11,7.8,3.76,9.5,11.72
					c-0.11-0.07-0.21-0.13-0.3-0.2c-0.04-0.03-0.08-0.07-0.12-0.1c-0.01-0.02-0.01-0.05-0.02-0.07c-5.5-11.05-10.7-9.22-10.6-9.28
					c-0.19-0.04-0.37-0.1-0.52-0.18c-0.57-0.29-0.68-0.94-0.44-1.27c0.13-0.19,0.42-0.33,0.81-0.08c0.24,0.15,0.55,0.29,0.91,0.41
					c-0.34-0.32-0.59-0.69-0.71-1.06C101.16,174.29,101.38,173.87,101.64,173.68L101.64,173.68z"/>
				<path class="st8" d="M118.19,164.03c0,0,0.65,1.45,0.1,3.39C117.9,168.78,120.82,165.75,118.19,164.03z"/>
				<path class="st9" d="M130.7,170.16c0,0-0.89,4.15-3.05,7.22C128.32,175.55,129.47,173.13,130.7,170.16z"/>
				<path class="st10" d="M125.72,170.73c-0.35,2.53-4.03,3.8-6.02,1.8C117.7,170.54,125.94,169.09,125.72,170.73z"/>
				<path class="st11" d="M157.15,186.56c1.07-3.46-3.01-8.46-7.12-9.01c-1.51-0.19-8.03,1.51-10.83,2.06
					c-0.36,0.04-0.69,0.2-1.02,0.45c4.3,2.28,6.37,7.66,5.85,12.34c-0.41,3.71-2.49,6.15-5.39,7.11c3.44,3.32,8.39,6.18,10.81,7.3
					c1.83-1.14,12.65-9.34,14.96-13.86C162.65,191.17,157.17,186.57,157.15,186.56z"/>
			</g>
			<path class="st0" d="M154.06,212.71c-0.07,2.41-11.43,14.26,1.78,24.49c-0.71,6.92-0.93,27.11-1.8,39.1
				c-0.53,1.31-3.1,3.34-3.85,4.93c3.65,2.32,7.04,6.14,11.42,5.65c0.39-0.8,3.54-4.56,3.88-5.39c12-29.1,11.2-52.92,11.12-58.88
				c-0.05-3.55-0.06-6.49-0.93-9.06C169.3,211.22,154.09,211.62,154.06,212.71L154.06,212.71z"/>
			<path class="st12" d="M163.43,192.02c0,0.04-0.02,0.07-0.04,0.11c-3.81,5.55-14.81,13.98-14.92,14.06
				c-0.1,0.08-0.24,0.06-0.32-0.05s-0.05-0.25,0.05-0.33c0.11-0.08,11.05-8.46,14.82-13.95c0.07-0.11,0.21-0.13,0.32-0.06
				C163.41,191.85,163.44,191.94,163.43,192.02L163.43,192.02z"/>
			<path class="st13" d="M83.55,170.44c1.7,0.2,6.11,4.19,8.29,5.71c3.93,2.67,11.46,4.52,15.98,6.7c1.74,1.22,7.51,4.76,8.59,5.35
				c4.45,1.98,20.41,8.34,20.45,8.24c0.84,0.36,1.73,0.72,2.68,1.1c4.08-4.3,2.78-10.8-2.89-14.71c-5.02-1.21-14.19-3.56-24.24-6.78
				c-8-5.13-20.66-7.21-28.45-11.61c0,0-2.96-3.26-9-5.05c-1.36-0.41-4.09-0.64-4.38,0.31l-0.14,0.13
				c-1.13,0.03-1.98,0.33-2.13,1.16l-0.24,0.28c-1.02-0.04-1.8,0.07-1.97,0.47c-0.19,0.43,0.27,0.83,1.06,1.19l0.21,0.38
				c2.53,3.28,8.5,4.6,8.5,4.6c-1.12,0.19-4.1,0.05-3.92,2.15c1.93-0.81,3.37,0.93,5.64,0.63C79.4,170.44,81.85,170.24,83.55,170.44
				z"/>
		</g>
	</g>
</g>
</svg>
