<?xml version="1.0" encoding="utf-8"?>
<!-- Generator: Adobe Illustrator 26.5.0, SVG Export Plug-In . SVG Version: 6.00 Build 0)  -->
<svg version="1.1" id="Layer_1" xmlns="http://www.w3.org/2000/svg" xmlns:xlink="http://www.w3.org/1999/xlink" x="0px" y="0px"
	 viewBox="0 0 250 139.6" style="enable-background:new 0 0 250 139.6;" xml:space="preserve">
<style type="text/css">
	.st0{fill:#B2BCC4;}
	.st1{fill:#D1E5FF;}
	.st2{fill:url(#SVGID_1_);}
	.st3{fill:#FFFFFF;}
	.st4{fill:#8E5624;}
	.st5{fill:#452815;}
	.st6{fill:#F7B882;}
	.st7{fill:#355775;}
	.st8{fill:url(#SVGID_00000005249044103917088460000007603035231582449803_);}
	.st9{fill:#F3B67F;}
</style>
<g>
	<g>
		<path class="st0" d="M224.4,132.2c0-4.1-45.1-7.4-100.7-7.4S23,128.1,23,132.2s45.1,7.4,100.7,7.4S224.4,136.3,224.4,132.2z"/>
		<g>
			<path class="st1" d="M202.2,20.1c4.6-6,9.4-11,9.4-11.1c0.1-0.1,0.2-0.1,0.3,0s0.1,0.2,0,0.3S201,20.7,196.4,29.5
				c-0.1,0.1-0.2,0.1-0.2,0.1c-0.1-0.1-0.1-0.2-0.1-0.2C197.7,26.3,199.9,23.1,202.2,20.1z"/>
			
				<radialGradient id="SVGID_1_" cx="348.7667" cy="155.1192" r="34.3336" gradientTransform="matrix(1 0 0 -1 -172.5 195)" gradientUnits="userSpaceOnUse">
				<stop  offset="0.22" style="stop-color:#F8A164"/>
				<stop  offset="0.3" style="stop-color:#F8A469"/>
				<stop  offset="0.71" style="stop-color:#F7B37B"/>
				<stop  offset="1" style="stop-color:#F7B882"/>
			</radialGradient>
			<path class="st2" d="M209.4,20.7c-0.5-1.3-1.2-2.4-1.7-3.6c-0.4-0.9-0.6-2.1-0.1-3c-1,1.1-2.8-0.4-3.7-1
				c-0.7-0.6-0.2-1.8-1.2-1.9c-1-0.1-2.1,0.1-3,0.6c-0.8,0.4-1.5,0.8-2.2,1.2c-0.4,0.2-0.8,0.5-1.2,0.7c-0.2,0.1-0.4,0.2-0.7,0.2
				c-0.1,0-0.1,0-0.2,0c-0.1,0-0.1-0.1,0-0.1l-0.2-0.1l0,0l-0.1-0.1c-0.2,0-0.4,0-0.5,0.1c-0.2,0.1-0.4,0.2-0.6,0.4
				c-0.4,0.3-0.7,0.6-0.9,1c-0.4,0.7-0.3,1.6-1,2.2l0,0c-0.3,0.3-0.6,0.6-0.8,0.9c-0.4,0.5-0.8,1-1,1.5c-0.3,0.5-0.5,1-0.6,1.6
				c-0.1,0.4-0.4,1.4-0.6,2.4c-0.9,0.5-1.9,1-2.8,1.5c-2.2,1.1-4,0.3-5.9-1c-2.3-1.6-3.7-3.5-6.4-3.8c-2.4-0.2-29.2,16-45.9,29.5
				c3.4,6.1,21.4,5.9,24.6,12c0.7-0.9,25.1-6.6,25.9-6.6c-0.3,0.2,12.7-6.4,12.4-9.1c-0.1-0.5-1.9-7.8-2-8.4l0,0l0,0l0,0
				c-0.1-1.6,0-3.2,1.6-4.4c1-0.8,2.1-1.5,3.2-2.2l0,0l0,0l0,0h-0.1c0.9,0.3,1.7,0.5,2.2,0.6s1.1,0.2,1.7,0.2c0.6,0,1.2-0.1,1.8-0.2
				c0.5-0.1,1.1-0.2,1.6-0.4c0.7,0,1.3,0.3,2,0.3c0.4,0,0.9-0.1,1.3-0.3c0.2-0.1,0.4-0.2,0.6-0.3c0.2-0.1,0.2-0.2,0.4-0.4v-0.1l0,0
				l0.1-0.7c0,0,0,0,0-0.1c1.1-0.5,2.1-1.3,3.1-2.1c0.9-0.7,1.7-1.5,2.2-2.5C211.5,23.6,210.1,22.4,209.4,20.7L209.4,20.7z"/>
			<path class="st3" d="M177.8,55.5c1.6-1.5,2-5,3.4-6.7c2.7-3.2,8.2-8.2,8.2-8.2c0-0.1-0.5-2.7-0.4-2.8l0,0
				c-4.1,3.8-4.8,2.7-11,4.9c-5,1.8-9.7,0.1-8.8-6.2c0.3-2.2,7.8-9.4,11.5-11.6c0.1-0.1-1.6-2.2-1.6-2.2c-1.7,2.3-6.4,5.6-12.4,6.8
				c-0.7,0.1-7.1-0.3-8.4-0.9c-4.6,2.6-8.6,5.9-9.3,6.6c0,0,4.8,10.9,7.8,15.1c2,2.7,6,8.2,9.3,9.3c0.1,0,4.5-1.5,5.4-2
				C171.5,57.6,175.6,57.5,177.8,55.5L177.8,55.5z"/>
			<path class="st4" d="M215.4,23.2c0.6-1.2,1.2-3.1,1.2-4.9c0.3-0.1,0.6-0.2,0.9-0.4c2.1-1.2,2.4-4.6,0.7-7.5s-4.8-4.3-6.9-3.1
				c-0.4,0.3-0.8,0.6-1.1,1.1l-0.1-0.1c-0.7-0.6-2.7-0.8-3.9-0.8c-1-0.1-3.7,0.9-4.7,1.4c-1.2,0.7-2.3,1.4-3.2,2.1
				c-0.5,0.4-0.9,0.8-1.5,1.2l-0.1,0.1c-0.4,0.3-0.8,0.7-1.1,1.1c-0.1,0-0.2,0.1-0.2,0.1l-0.1,0.1v0.1l0.1,0.1c0.1,0,0.1,0,0.2,0
				l0,0l0,0c0.3,0,0.5-0.1,0.7-0.2c5.3-3,9.5,0.9,10.5,0.8c0.2,0,0.4-0.1,0.5-0.2c-0.4,1-0.1,2.1,0.2,2.8c0.2,0.6,0.5,1.2,0.8,1.8
				c1,1.9,3.2,7.1-3.2,10.8c0,0-0.1,0-0.1,0.1s0,0.1,0,0.1l0.1,0.1l0,0h0.1c1.1-0.3,2.2-0.7,3.2-1.1
				C209.5,28.4,214.5,25.1,215.4,23.2L215.4,23.2z"/>
			<path class="st5" d="M197.3,15.6c0,0-0.1,3.2,2.7,4.1C198.1,20.1,195.7,18.4,197.3,15.6z"/>
			<path class="st5" d="M201.8,23.2c0,0-0.1,3.2,2.7,4.1C202.6,27.8,200.2,26,201.8,23.2z"/>
			<path class="st5" d="M216.7,20.7c-0.4,0.1-0.7-0.1-0.7-0.5c0-0.2,0-0.4-0.1-0.7c0,0.1-5.7-4.9-5.6-11.7c0.1,0.1,0.1,0.2,0.2,0.2
				l0.1,0.1c0,0,0,0,0,0.1c2.4,10.2,7.1,9.9,7,10c0.1,0.1,0.3,0.2,0.4,0.3c0.4,0.4,0.4,0.9,0.1,1.1c-0.1,0.1-0.4,0.2-0.7-0.1
				c-0.2-0.2-0.4-0.4-0.7-0.6c0.2,0.3,0.4,0.7,0.4,1C217.3,20.3,217,20.6,216.7,20.7L216.7,20.7z"/>
			<path class="st1" d="M157.6,48.1c-4.5-7.6-5.3-15.1-5.3-15.2c0-0.1,0.1-0.2,0.2-0.2c0.1,0,0.2,0.1,0.2,0.2
				c0,0.2,1.9,17.1,15.3,25.6c0.1,0.1,0.1,0.2,0.1,0.3s-0.1,0.1-0.2,0.1C163.2,56,159.9,52.1,157.6,48.1L157.6,48.1z"/>
			<g>
				<path class="st6" d="M205.2,132.5c-0.4-0.9-14.8-5-15.8-9.8s0.9-45.9-0.2-50.7c-0.4-1.9-1-3.3-2.3-4.1l0,0
					c-0.6-0.4-1.3-0.8-2.1-1.1c-4.5-1.9-21.1-7.2-35.4-6.4c0.1-0.4,0.1-0.9,0.2-1.3c-8-0.1-15.8-0.6-23.6-2.3
					c-13.1,9.4-17.6,25.9-33,34.6c-3,1.5-9.6,2.8-13.2,5.1c-13.3,8.6-17.4,19.1-23.7,24.8c-3.3,2.8-6.6,5.9-8,7.7
					c-1.6,2-1.3,4.7,1.2,5.5c4,1.3,3.7-1.1,14.3,0.8c2.4,0.2,9.2,0.7,8.3-2.2c-0.4-0.7-11-1.5-12.4-5.5c4.4-6.6,32.1-24.1,39.3-28.7
					c6.9-1.1,24.1-15.3,36.2-23.3c14.8,1.5,29.5,3.9,42.8,3.1c-0.3,2.7-1,4.7-1.2,8.5c-0.3,5.6,2.3,14.1,3.3,17.9
					c2,7.8,3.3,12.5,1.9,20.3l-0.7,2.8c-1.1,3.3,0.4,5.1,2.8,5.8c4,1.3,8.8,0,13,0.8C199.3,135,206.1,135.4,205.2,132.5L205.2,132.5
					z"/>
				<path class="st7" d="M177,83.2c4.1,0.4,8.4,0.8,12.5,0.4c0-5.7,0-10.1-0.4-11.5c-0.4-1.9-1-3.3-2.3-4.1l0,0
					c-0.6-0.4-1.3-0.8-2.1-1.1c-6.8-2.9-16.6-5.4-30.6-6.7c0.3-1.7-18.8-15.7-19.5-14.9c-7.4,1.6-12.2,6.4-16.3,12.3
					c-3.9,5.6-20.3,29.7-28.9,34.8c-0.9,0.5-5,1.9-5.3,2c-0.1,4.4,3.2,7.7,5.3,11.4c1.7-1,5.8-4.1,7.1-4.9
					c17.3-8,25.2-15.7,38.7-24.5c6.3,2.1,28.2,5,42.5,2.4C177.6,80.2,177.3,81.5,177,83.2L177,83.2z"/>
				
					<linearGradient id="SVGID_00000036955076140673338620000002352208478313532818_" gradientUnits="userSpaceOnUse" x1="256.6978" y1="115.15" x2="307.3" y2="115.15" gradientTransform="matrix(1 0 0 -1 -172.5 195)">
					<stop  offset="0" style="stop-color:#355775"/>
					<stop  offset="0.17" style="stop-color:#32526E"/>
					<stop  offset="0.6" style="stop-color:#2C4761"/>
					<stop  offset="1" style="stop-color:#2A445C"/>
				</linearGradient>
				<path style="fill:url(#SVGID_00000036955076140673338620000002352208478313532818_);" d="M120.9,54.1c-0.9,1.1-1.7,2.2-2.5,3.4
					c-3.9,5.6-20.3,29.7-28.9,34.7c-0.9,0.5-5,1.9-5.3,2c-0.1,4.4,3.2,7.7,5.3,11.4c1.7-1,5.8-4.1,7.1-4.9
					c17.1-7.9,25-15.6,38.2-24.3C120.9,73.3,116.8,63.4,120.9,54.1z"/>
			</g>
			<g>
				<path class="st9" d="M177.9,21.7c-2.4-2.3-4.1-4.3-7.3-4.2c-7.7,0.3-31.4,6.3-32.1,7.7s3.1,9.2,8.5,13.4
					c5.3,4.2,13.7,6.8,13.7,6.8l15.6-6.3c0,0-0.5-1.6-2.1-1.6s-2.6-0.3-6.4,1.3c-3.8,1.6-7.1,1.7-8.4,1.2c-1.3-0.5-7.9-7.7-8.6-9.3
					c-0.7-1.6,15.7-2.8,16.6-2.8C171.6,28.1,179.3,23.1,177.9,21.7L177.9,21.7z"/>
				<path class="st9" d="M189.3,40.9c0,0,3.5,5.5,2.9,9.9c-0.4,2.9-4.3,6.5-7.1,11.2c-2.9,4.7-11.3,16.8-15.4,18.3
					c-4.1,1.5-4.1-0.8-5.7-8.4c-1.6-7.6-4-25.4-2.9-26.2s15.5-7.6,16.3-7c0.9,0.6,1,1.7-0.9,3c-1.9,1.2-11.8,6.3-11.7,8.1
					s6.1,16.2,6.6,17.9s3.5-7.5,7.3-13.6C182.6,47.9,185.3,43.2,189.3,40.9L189.3,40.9z"/>
			</g>
		</g>
	</g>
</g>
</svg>
