<?xml version="1.0" encoding="utf-8"?>
<!-- Generator: Adobe Illustrator 26.5.0, SVG Export Plug-In . SVG Version: 6.00 Build 0)  -->
<svg version="1.1" id="Layer_1" xmlns="http://www.w3.org/2000/svg" xmlns:xlink="http://www.w3.org/1999/xlink" x="0px" y="0px"
	 viewBox="0 0 250 400" style="enable-background:new 0 0 250 400;" xml:space="preserve">
<style type="text/css">
	.st0{enable-background:new    ;}
	.st1{fill:#355775;}
	.st2{fill:#B2BCC4;}
	.st3{fill:#D1E5FF;}
	.st4{fill:url(#SVGID_1_);}
	.st5{fill:#FFFFFF;}
	.st6{fill:#8E5624;}
	.st7{fill:#452815;}
	.st8{fill:#F7B882;}
	.st9{fill:url(#SVGID_00000021104487712144279330000009821689409290679469_);}
	.st10{fill:#F3B67F;}
</style>
<g>
	<g class="st0">
		<path class="st1" d="M39.11,361.85v0.16c0,0.29-0.22,0.51-0.51,0.5c-2.71-0.2-4.48-1.88-4.48-4.48c0-3.16,4.18-4.48,4.18-7
			c0-1.49-1.15-2.42-2.99-2.42l-1.69,0.01v13.19c0,0.28-0.21,0.49-0.49,0.49h-0.17c-0.28,0-0.49-0.21-0.49-0.49v-12.89
			c0-0.28,0.21-0.49,0.49-0.49h2.35c2.55,0,4.16,1,4.16,2.6c0,3.15-5.16,3.89-5.16,7c0,1.94,1.71,3.2,4.33,3.34
			C38.91,361.39,39.11,361.59,39.11,361.85z"/>
	</g>
	<g class="st0">
		<path class="st1" d="M49.53,360.38c0,1.36-1.64,2.21-3.31,2.21c-2.76,0-4.68-1.42-4.68-5.41c0-4,1.92-5.39,4.53-5.39
			c2.02-0.01,3.3,1.01,3.3,2.1c0.01,3-5.35-0.01-5.71,1.86C43.24,357.88,49.53,357.8,49.53,360.38z M48.48,360.28
			c0-2.32-5.4-2.34-5.02-4.53c0.35-2.01,5.56,0.65,4.99-1.87c-0.3-0.98-0.98-1.91-2.39-1.9c-1.99,0-3.39,1.6-3.39,5.2
			c0,3.6,1.4,5.22,3.54,5.22C47.9,362.39,48.48,361.24,48.48,360.28z"/>
		<path class="st1" d="M56.22,362.29h-0.86c-0.21,0-0.39-0.13-0.46-0.33l-3.24-9.3c-0.12-0.35,0.05-0.67,0.35-0.67h0.23
			c0.21,0,0.38,0.12,0.46,0.33l3.01,8.57c0.22-3.72,2.83-4.42,2.65-6.44c-0.1-1.25-1.07-1.39-2.37-1.52c-0.3-0.03-0.5-0.22-0.51-0.5
			l-0.02-0.16c-0.03-0.32,0.15-0.51,0.49-0.48c1.39,0.18,2.45,0.76,2.61,2.66C58.75,356.76,56.02,359.93,56.22,362.29z"/>
		<path class="st1" d="M61.05,357.19c0-4,2.11-5.4,4.72-5.4c2.6,0,4.71,1.4,4.71,5.4c0,3.99-2.11,5.4-4.71,5.4
			C63.16,362.58,61.05,361.18,61.05,357.19z M69.31,357.19c0-3.6-1.57-5.21-3.54-5.21c-1.99,0-3.55,1.61-3.55,5.21
			s1.56,5.21,3.55,5.21C67.74,362.39,69.31,360.79,69.31,357.19z"/>
		<path class="st1" d="M73.92,348.7c0-0.28,0.21-0.49,0.49-0.49h0.17c0.28,0,0.49,0.21,0.49,0.49v13.1c0,0.28-0.21,0.49-0.49,0.49
			h-0.17c-0.28,0-0.49-0.21-0.49-0.49V348.7z"/>
		<path class="st1" d="M82.71,362.29h-0.86c-0.21,0-0.39-0.13-0.46-0.33l-3.24-9.3c-0.12-0.35,0.05-0.67,0.35-0.67h0.23
			c0.21,0,0.38,0.12,0.46,0.33l3.01,8.57c0.22-3.72,2.83-4.42,2.65-6.44c-0.1-1.25-1.07-1.39-2.37-1.52
			c-0.29-0.03-0.5-0.22-0.51-0.5l-0.02-0.16c-0.03-0.32,0.15-0.51,0.49-0.48c1.39,0.18,2.45,0.76,2.61,2.66
			C85.24,356.76,82.51,359.93,82.71,362.29z"/>
		<path class="st1" d="M95.54,360.38c0,1.36-1.64,2.21-3.31,2.21c-2.76,0-4.68-1.42-4.68-5.41c0-4,1.92-5.39,4.53-5.39
			c2.02-0.01,3.3,1.01,3.3,2.1c0.01,3-5.35-0.01-5.71,1.86C89.25,357.88,95.54,357.8,95.54,360.38z M94.49,360.28
			c0-2.32-5.4-2.34-5.02-4.53c0.35-2.01,5.56,0.65,4.99-1.87c-0.3-0.98-0.98-1.91-2.39-1.9c-1.99,0-3.39,1.6-3.39,5.2
			c0,3.6,1.4,5.22,3.54,5.22C93.91,362.39,94.49,361.24,94.49,360.28z"/>
		<path class="st1" d="M105.15,348.22c0.28,0,0.49,0.21,0.49,0.49v13.1c0,0.28-0.21,0.49-0.49,0.49h-0.17
			c-0.28,0-0.49-0.21-0.49-0.49v-4.46c0,0.01-0.01,0.02-0.01,0.03c-0.99,3.19-2.35,5.2-3.52,5.2l-0.03-0.74
			c1.24,0,2.57-1.95,3.56-5.14v-2.98c-0.44-1.07-1.37-1.73-2.42-1.73c-1.76,0-2.88,2.08-2.88,5.4c0,2.73,0.67,4.46,1.73,4.46
			l0.03,0.75c-1.8,0-2.93-2-2.93-5.2v-0.01v-0.01c0.01-3.43,1.56-5.58,4.05-5.58c0.95,0,1.82,0.37,2.42,1.01v-4.09
			c0-0.28,0.21-0.49,0.49-0.49H105.15z"/>
		<path class="st1" d="M123.89,359.76c0,1.73-1.58,2.83-4.1,2.83c-2.92,0.01-4.48-1.79-3.61-3.14c0.23-0.36,0.42-0.34,0.48,0.07
			c0.15,1.19,0.77,2.89,3.13,2.88c1.8-0.01,2.93-0.83,2.93-2.13c0-3.22-6.76-2.38-6.76-6.2c0-1.4,1.39-2.28,3.91-2.27
			c2.92-0.01,4.2,0.84,3.32,2.19c-0.23,0.36-0.42,0.34-0.48-0.07c-0.15-1.19-1.25-1.94-2.85-1.93c-1.8-0.01-2.74,0.71-2.74,1.88
			C117.12,356.76,123.89,356.01,123.89,359.76z"/>
		<path class="st1" d="M127.32,349.02c0-0.32,0.27-0.59,0.59-0.59c0.32,0,0.59,0.27,0.59,0.59c0,0.32-0.27,0.59-0.59,0.59
			C127.59,349.61,127.32,349.34,127.32,349.02z M127.34,352.47c0-0.28,0.25-0.49,0.57-0.49c0.33,0,0.57,0.21,0.57,0.49v9.33
			c0,0.28-0.24,0.49-0.57,0.49c-0.32,0-0.57-0.21-0.57-0.49V352.47z"/>
		<path class="st1" d="M139.07,348.22c0.28,0,0.49,0.21,0.49,0.49v13.1c0,0.28-0.21,0.49-0.49,0.49h-0.17
			c-0.28,0-0.49-0.21-0.49-0.49v-4.46c0,0.01-0.01,0.02-0.01,0.03c-0.99,3.19-2.35,5.2-3.52,5.2l-0.03-0.74
			c1.24,0,2.57-1.95,3.56-5.14v-2.98c-0.44-1.07-1.37-1.73-2.42-1.73c-1.76,0-2.88,2.08-2.88,5.4c0,2.73,0.67,4.46,1.73,4.46
			l0.03,0.75c-1.8,0-2.93-2-2.93-5.2v-0.01v-0.01c0.01-3.43,1.56-5.58,4.05-5.58c0.95,0,1.82,0.37,2.42,1.01v-4.09
			c0-0.28,0.21-0.49,0.49-0.49H139.07z"/>
		<path class="st1" d="M150.51,360.38c0,1.36-1.64,2.21-3.31,2.21c-2.76,0-4.69-1.42-4.69-5.41c0-4,1.92-5.39,4.53-5.39
			c2.02-0.01,3.3,1.01,3.3,2.1c0.01,3-5.35-0.01-5.71,1.86C144.23,357.88,150.51,357.8,150.51,360.38z M149.46,360.28
			c0-2.32-5.4-2.34-5.02-4.53c0.35-2.01,5.56,0.65,4.99-1.87c-0.3-0.98-0.98-1.91-2.39-1.9c-1.99,0-3.39,1.6-3.39,5.2
			c0,3.6,1.4,5.22,3.54,5.22C148.88,362.39,149.46,361.24,149.46,360.28z"/>
		<path class="st1" d="M168.84,357.09v4.71c0,0.28-0.21,0.49-0.49,0.49h-0.17c-0.28,0-0.49-0.21-0.49-0.49v-2.61
			c-0.69,2.1-2.55,3.39-5,3.39c-1.68,0-2.74-0.85-2.74-2.21c0-2.58,4.73-2,4.73-4.15c0-1.81-2.71-1.4-2.71-3.1
			c0-0.82,0.84-1.33,2.17-1.33C167.22,351.79,168.84,353.59,168.84,357.09z M167.7,358.11v-0.9l-0.01-0.12
			c0-3.33-1.25-5.02-3.73-5.02c-1.08,0-1.75,0.4-1.75,1.05c0,1.6,2.67,1.08,2.67,3.1c0,2.21-3.88,1.73-3.88,4.06
			c0,0.96,0.76,1.56,1.98,1.56C165.69,361.84,167.46,360.41,167.7,358.11z"/>
		<path class="st1" d="M173.42,357c0.99-3.19,2.35-5.2,3.52-5.2l0.03,0.74c-1.23,0-2.56,1.94-3.55,5.1v4.16
			c0,0.28-0.24,0.49-0.57,0.49c-0.32,0-0.57-0.21-0.57-0.49v-9.33c0-0.28,0.25-0.49,0.57-0.49c0.33,0,0.57,0.21,0.57,0.49V357z
			 M176.94,351.79c1.8,0,2.91,2.01,2.91,5.22v4.81c0,0.28-0.21,0.49-0.49,0.49h-0.17c-0.28,0-0.49-0.21-0.49-0.49v-4.81
			c0-2.74-0.68-4.47-1.74-4.47L176.94,351.79z"/>
		<path class="st1" d="M193.14,363.58c0,2.35-2.39,3.58-5.35,3.58c-2.68,0-4.6-1.38-4.95-3.05c-0.07-0.29,0.19-0.53,0.5-0.53h0.26
			c0.28,0,0.48,0.19,0.5,0.46c0.18,1.72,1.38,2.93,3.69,2.93c2.51,0,4.18-1.34,4.18-3.39c0-2.05-1.67-3.38-4.18-3.38
			c-1.35,0-2.52,0.5-3.09,1.41c-0.22,0.34-0.57,0.45-0.89,0.19l-0.37-0.3c0.01-0.01,0.02-0.01,0.02-0.02l-0.04,0.02
			c-0.19-0.86,0.12-1.99,0.69-3.15c-0.79-0.62-1.29-1.53-1.29-2.79c0-2.6,2.11-3.76,4.53-3.76c0.79,0,1.54,0.12,2.21,0.38
			c1.33-0.75,2.5-0.84,3.43-0.23c0.25,0.14,0.29,0.39,0.11,0.63l-0.08,0.11c-0.15,0.2-0.37,0.23-0.57,0.08
			c-0.67-0.46-1.47-0.56-2.34-0.32c1.07,0.6,1.77,1.62,1.77,3.12c0,2.58-2.11,3.75-4.52,3.75c-1.15,0-2.23-0.27-3.05-0.82
			c-0.5,1.03-0.79,2.05-0.65,2.82c0.98-0.79,2.47-1.29,4.13-1.29C190.75,360,193.14,361.22,193.14,363.58z M184.5,357.58
			c0.71-1.23,1.63-2.44,2.47-3.3c0.74-0.77,1.46-1.38,2.13-1.83c-0.51-0.3-1.12-0.47-1.75-0.47c-1.8,0-3.36,1.26-3.36,3.57
			C183.99,356.36,184.18,357.03,184.5,357.58z M189.43,352.67c-0.76,0.34-1.56,0.93-2.36,1.76c-0.69,0.71-1.68,2.01-2.43,3.36
			c0.63,0.87,1.62,1.31,2.71,1.31c1.78,0,3.35-1.25,3.35-3.56C190.7,354.23,190.2,353.26,189.43,352.67z"/>
		<path class="st1" d="M196.2,348.7c0-0.28,0.21-0.49,0.49-0.49h0.17c0.28,0,0.49,0.21,0.49,0.49v13.1c0,0.28-0.21,0.49-0.49,0.49
			h-0.17c-0.28,0-0.49-0.21-0.49-0.49V348.7z"/>
		<path class="st1" d="M208.78,360.38c0,1.36-1.64,2.21-3.31,2.21c-2.76,0-4.69-1.42-4.69-5.41c0-4,1.92-5.39,4.53-5.39
			c2.02-0.01,3.3,1.01,3.3,2.1c0.01,3-5.35-0.01-5.71,1.86C202.5,357.88,208.78,357.8,208.78,360.38z M207.74,360.28
			c0-2.32-5.4-2.34-5.02-4.53c0.35-2.01,5.56,0.65,4.99-1.87c-0.3-0.98-0.98-1.91-2.39-1.9c-1.99,0-3.39,1.6-3.39,5.2
			c0,3.6,1.4,5.22,3.54,5.22C207.16,362.39,207.74,361.24,207.74,360.28z"/>
	</g>
	<g>
		<path class="st2" d="M224.35,324.22c0-4.1-45.08-7.43-100.69-7.43s-100.69,3.33-100.69,7.43c0,4.1,45.08,7.43,100.69,7.43
			S224.35,328.32,224.35,324.22z"/>
		<g>
			<path class="st3" d="M202.22,212.07c4.57-5.97,9.36-11,9.43-11.08c0.07-0.07,0.18-0.08,0.26-0.01c0.07,0.07,0.1,0.18,0,0.26
				c-0.11,0.11-10.85,11.41-15.49,20.23c-0.05,0.1-0.16,0.12-0.25,0.08c-0.09-0.05-0.12-0.16-0.08-0.25
				C197.67,218.33,199.92,215.09,202.22,212.07z"/>
			
				<radialGradient id="SVGID_1_" cx="348.7667" cy="347.1192" r="34.3336" gradientTransform="matrix(1 0 0 -1 -172.5 579)" gradientUnits="userSpaceOnUse">
				<stop  offset="0.22" style="stop-color:#F8A164"/>
				<stop  offset="0.3" style="stop-color:#F8A469"/>
				<stop  offset="0.71" style="stop-color:#F7B37B"/>
				<stop  offset="1" style="stop-color:#F7B882"/>
			</radialGradient>
			<path class="st4" d="M209.44,212.7c-0.46-1.26-1.22-2.37-1.69-3.62c-0.36-0.93-0.58-2.12-0.08-3.03
				c-1.02,1.05-2.81-0.36-3.67-1.01c-0.74-0.56-0.23-1.8-1.18-1.93c-1.04-0.14-2.09,0.14-3.04,0.56c-0.78,0.35-1.47,0.8-2.18,1.25
				c-0.39,0.24-0.79,0.49-1.2,0.69c-0.22,0.11-0.45,0.21-0.69,0.23c-0.07,0-0.14,0-0.21-0.01c-0.06-0.01-0.06-0.08-0.04-0.11
				l-0.16-0.1c0,0,0,0,0,0c-0.02,0-0.08-0.07-0.11-0.07c-0.19,0.01-0.35,0.02-0.53,0.11c-0.21,0.1-0.41,0.22-0.59,0.36
				c-0.36,0.29-0.69,0.63-0.91,1.02c-0.41,0.71-0.34,1.63-0.97,2.25h0c-0.29,0.3-0.57,0.6-0.83,0.93c-0.38,0.47-0.75,0.96-1.03,1.48
				c-0.27,0.5-0.47,1.02-0.64,1.55c-0.14,0.45-0.35,1.35-0.55,2.35c-0.94,0.5-1.89,0.99-2.84,1.47c-2.22,1.13-4.01,0.28-5.85-1.04
				c-2.26-1.63-3.67-3.53-6.45-3.75c-2.37-0.18-29.17,16.04-45.95,29.54c3.41,6.05,21.43,5.87,24.62,12.04
				c0.66-0.87,25.1-6.57,25.89-6.56c-0.29,0.2,12.73-6.43,12.4-9.12c-0.06-0.51-1.92-7.84-1.96-8.35c0.01-0.01,0.02-0.02,0.03-0.03
				c0.01-0.02-0.01-0.04-0.02-0.02c0,0-0.01,0.01-0.01,0.01c-0.12-1.64,0.04-3.22,1.56-4.39c1.02-0.79,2.15-1.47,3.23-2.17
				c0.01-0.01,0-0.01-0.01-0.02l0,0l0.01-0.04c-0.03-0.01-0.07-0.02-0.11-0.03c0.91,0.29,1.74,0.53,2.18,0.61
				c0.54,0.11,1.1,0.18,1.67,0.19c0.59,0.01,1.2-0.08,1.79-0.18c0.54-0.09,1.06-0.23,1.58-0.39c0.69-0.02,1.34,0.3,2.02,0.29
				c0.45-0.01,0.91-0.12,1.34-0.3c0.21-0.09,0.41-0.2,0.6-0.34c0.17-0.12,0.25-0.25,0.36-0.41c0.02-0.03-0.02-0.11,0-0.13h0
				l0.07-0.68c-0.01-0.02-0.01-0.04,0.01-0.05c1.13-0.51,2.11-1.31,3.08-2.06c0.87-0.68,1.68-1.46,2.21-2.46
				C211.49,215.57,210.08,214.44,209.44,212.7L209.44,212.7z"/>
			<path class="st5" d="M177.84,247.49c1.6-1.48,1.96-5.04,3.39-6.72c2.72-3.2,8.23-8.18,8.2-8.16c-0.01-0.12-0.47-2.71-0.39-2.8
				c0.01-0.02-0.01-0.04-0.02-0.02c-4.08,3.77-4.8,2.7-10.99,4.89c-5.03,1.78-9.71,0.1-8.75-6.2c0.33-2.17,7.84-9.42,11.49-11.61
				c0.09-0.06-1.62-2.2-1.64-2.19c-1.71,2.28-6.38,5.65-12.4,6.75c-0.69,0.13-7.15-0.3-8.39-0.91c-4.57,2.62-8.59,5.9-9.3,6.56
				c0,0,4.78,10.89,7.84,15.13c1.98,2.73,6.01,8.18,9.3,9.3c0.09,0.03,4.52-1.48,5.36-1.96
				C171.53,249.55,175.65,249.51,177.84,247.49L177.84,247.49z"/>
			<path class="st6" d="M215.45,215.24c0.61-1.23,1.2-3.12,1.24-4.86c0.31-0.07,0.62-0.18,0.9-0.35c2.08-1.23,2.38-4.59,0.66-7.51
				c-1.72-2.92-4.8-4.3-6.89-3.07c-0.45,0.27-0.8,0.65-1.08,1.09c-0.03-0.03-0.06-0.06-0.09-0.08c-0.69-0.56-2.74-0.76-3.94-0.82
				c-1-0.05-3.7,0.85-4.67,1.4c-1.21,0.69-2.3,1.41-3.23,2.13c-0.46,0.36-0.95,0.77-1.49,1.25l-0.06,0.06
				c-0.37,0.33-0.75,0.68-1.09,1.07c-0.08,0.03-0.16,0.07-0.24,0.1c-0.04,0.01-0.07,0.05-0.09,0.09c-0.02,0.04-0.01,0.08,0.01,0.12
				c0.02,0.03,0.05,0.05,0.09,0.06c0.06,0.01,0.13,0.01,0.19,0c0,0,0,0,0,0c0,0,0,0,0.01,0c0.27-0.01,0.52-0.11,0.74-0.24
				c5.3-2.96,9.54,0.95,10.54,0.81c0.19-0.03,0.37-0.1,0.52-0.2c-0.38,0.98-0.06,2.15,0.19,2.82c0.23,0.61,0.54,1.2,0.83,1.77
				c0.99,1.94,3.2,7.13-3.24,10.83c-0.03,0.01-0.05,0.03-0.06,0.06c-0.01,0.03,0,0.06,0.01,0.08c0.02,0.04,0.07,0.06,0.11,0.06
				c0.01,0,0.02,0,0.03-0.01c0.02,0.01,0.05,0.02,0.07,0.02c1.1-0.3,2.17-0.73,3.16-1.15C209.48,220.38,214.54,217.09,215.45,215.24
				L215.45,215.24z"/>
			<path class="st7" d="M197.28,207.6c0,0-0.09,3.2,2.68,4.07C198.09,212.1,195.67,210.38,197.28,207.6z"/>
			<path class="st7" d="M201.78,215.25c0,0-0.09,3.2,2.68,4.07C202.59,219.75,200.17,218.03,201.78,215.25z"/>
			<path class="st7" d="M216.74,212.7c-0.35,0.12-0.67-0.11-0.67-0.53c0-0.21-0.02-0.44-0.08-0.71c-0.03,0.09-5.74-4.88-5.62-11.66
				c0.08,0.08,0.15,0.16,0.21,0.23c0.03,0.04,0.05,0.07,0.08,0.11c0,0.02,0,0.04,0.01,0.06c2.43,10.16,7.1,9.94,7.01,9.97
				c0.15,0.08,0.29,0.17,0.4,0.27c0.42,0.36,0.38,0.91,0.12,1.13c-0.15,0.12-0.41,0.16-0.68-0.12c-0.17-0.18-0.4-0.37-0.68-0.55
				c0.22,0.34,0.36,0.7,0.39,1.02C217.26,212.32,217,212.61,216.74,212.7L216.74,212.7z"/>
			<path class="st3" d="M157.64,240.15c-4.46-7.57-5.27-15.08-5.28-15.2c-0.01-0.11,0.06-0.19,0.16-0.19c0.1,0.01,0.19,0.1,0.2,0.21
				c0.02,0.17,1.86,17.12,15.26,25.59c0.1,0.06,0.14,0.18,0.1,0.28c-0.04,0.09-0.14,0.12-0.24,0.06
				C163.21,247.99,159.94,244.06,157.64,240.15L157.64,240.15z"/>
			<g>
				<path class="st8" d="M205.18,324.51c-0.45-0.91-14.81-5.05-15.83-9.8c-1.02-4.75,0.86-45.9-0.24-50.66
					c-0.43-1.86-1.02-3.29-2.32-4.14c0-0.01,0-0.03,0-0.04c-0.6-0.39-1.27-0.76-2.1-1.09c-4.51-1.94-21.08-7.23-35.37-6.39
					c0.07-0.44,0.13-0.88,0.19-1.33c-7.96-0.09-15.84-0.55-23.56-2.32c-13.14,9.37-17.59,25.88-32.96,34.58
					c-3.02,1.51-9.58,2.75-13.19,5.08c-13.29,8.59-17.38,19.08-23.66,24.76c-3.32,2.84-6.58,5.93-8,7.74
					c-1.59,2.03-1.28,4.73,1.15,5.49c3.97,1.26,3.65-1.09,14.31,0.79c2.43,0.25,9.2,0.66,8.3-2.21c-0.37-0.73-11.04-1.54-12.39-5.46
					c4.38-6.56,32.14-24.11,39.26-28.69c6.9-1.15,24.07-15.32,36.22-23.34c14.83,1.5,29.54,3.89,42.78,3.09
					c-0.33,2.67-0.98,4.68-1.24,8.54c-0.3,5.58,2.31,14.15,3.32,17.94c2.02,7.83,3.29,12.55,1.86,20.3l-0.66,2.77
					c-1.1,3.29,0.4,5.06,2.82,5.82c3.97,1.26,8.82,0,13,0.76C199.31,326.97,206.08,327.38,205.18,324.51L205.18,324.51z"/>
				<path class="st1" d="M176.99,275.19c4.14,0.43,8.35,0.79,12.46,0.35c0.04-5.69-0.03-10.12-0.35-11.49
					c-0.43-1.86-1.02-3.29-2.32-4.14c0-0.01,0-0.03,0-0.04c-0.6-0.39-1.27-0.76-2.1-1.09c-6.84-2.94-16.59-5.45-30.55-6.72
					c0.26-1.74-18.78-15.73-19.51-14.95c-7.43,1.56-12.22,6.43-16.27,12.33c-3.87,5.65-20.32,29.73-28.91,34.75
					c-0.9,0.52-5.04,1.94-5.27,2.03c-0.14,4.42,3.15,7.69,5.35,11.43c1.69-0.96,5.81-4.06,7.05-4.86
					c17.26-8.02,25.15-15.74,38.65-24.55c6.31,2.13,28.2,4.98,42.54,2.37C177.57,272.18,177.27,273.54,176.99,275.19L176.99,275.19z
					"/>
				
					<linearGradient id="SVGID_00000152265146886308402360000015767090628898754748_" gradientUnits="userSpaceOnUse" x1="256.671" y1="307.1542" x2="307.3174" y2="307.1542" gradientTransform="matrix(1 0 0 -1 -172.5 579)">
					<stop  offset="0" style="stop-color:#355775"/>
					<stop  offset="0.17" style="stop-color:#32526E"/>
					<stop  offset="0.6" style="stop-color:#2C4761"/>
					<stop  offset="1" style="stop-color:#2A445C"/>
				</linearGradient>
				<path style="fill:url(#SVGID_00000152265146886308402360000015767090628898754748_);" d="M120.9,246.05
					c-0.88,1.08-1.74,2.2-2.54,3.38c-3.87,5.65-20.32,29.73-28.91,34.75c-0.9,0.52-5.04,1.94-5.27,2.03
					c-0.14,4.42,3.15,7.69,5.35,11.43c1.69-0.96,5.81-4.06,7.05-4.86c17.08-7.94,24.99-15.58,38.24-24.28
					C120.89,265.3,116.82,255.38,120.9,246.05z"/>
			</g>
			<g>
				<path class="st10" d="M177.86,213.74c-2.37-2.28-4.14-4.28-7.32-4.17c-7.68,0.28-31.37,6.32-32.09,7.66
					c-0.72,1.34,3.12,9.22,8.46,13.45c5.34,4.23,13.69,6.81,13.69,6.81l15.64-6.32c0,0-0.5-1.65-2.07-1.62
					c-1.57,0.03-2.58-0.34-6.37,1.26c-3.79,1.6-7.13,1.72-8.42,1.2c-1.28-0.51-7.88-7.68-8.58-9.27
					c-0.71-1.59,15.66-2.81,16.64-2.78C171.59,220.07,179.3,215.12,177.86,213.74L177.86,213.74z"/>
				<path class="st10" d="M189.32,232.91c0,0,3.46,5.47,2.92,9.85c-0.36,2.91-4.29,6.51-7.15,11.2s-11.29,16.8-15.35,18.25
					c-4.06,1.46-4.07-0.79-5.7-8.4c-1.63-7.61-3.98-25.42-2.87-26.2c1.11-0.79,15.47-7.62,16.34-6.99c0.87,0.64,0.98,1.73-0.9,2.97
					c-1.87,1.24-11.82,6.29-11.73,8.07c0.09,1.77,6.13,16.21,6.63,17.86c0.5,1.65,3.54-7.46,7.31-13.56
					C182.61,239.85,185.31,235.25,189.32,232.91L189.32,232.91z"/>
			</g>
		</g>
	</g>
</g>
</svg>
