<?xml version="1.0" encoding="UTF-8"?>
<svg id="Layer_1" data-name="Layer 1" xmlns="http://www.w3.org/2000/svg" xmlns:xlink="http://www.w3.org/1999/xlink" viewBox="0 0 878.5 733.58">
  <defs>
    <style>
      .cls-1 {
        fill: url(#linear-gradient);
      }

      .cls-2 {
        fill: #f7b882;
      }

      .cls-3 {
        fill: #f3b67f;
      }

      .cls-4 {
        fill: #fff;
      }

      .cls-5 {
        fill: #8e5624;
      }

      .cls-6 {
        fill: #b2bcc4;
      }

      .cls-7 {
        fill: #d1e5ff;
      }

      .cls-8 {
        fill: #452815;
      }

      .cls-9, .cls-10 {
        fill: #355775;
      }

      .cls-11 {
        letter-spacing: .08em;
      }

      .cls-12 {
        fill: url(#radial-gradient);
      }

      .cls-10 {
        font-family: FarmWaveFree-Regular, 'Farm Wave Free';
        font-size: 85px;
        isolation: isolate;
      }

      .cls-13 {
        letter-spacing: .07em;
      }
    </style>
    <radialGradient id="radial-gradient" cx="668.73" cy="143.46" fx="668.73" fy="143.46" r="149.77" gradientUnits="userSpaceOnUse">
      <stop offset=".22" stop-color="#f8a164"/>
      <stop offset=".3" stop-color="#f8a469"/>
      <stop offset=".71" stop-color="#f7b37b"/>
      <stop offset="1" stop-color="#f7b882"/>
    </radialGradient>
    <linearGradient id="linear-gradient" x1="266.99" y1="317.79" x2="487.92" y2="317.79" gradientUnits="userSpaceOnUse">
      <stop offset="0" stop-color="#355775"/>
      <stop offset=".17" stop-color="#32526e"/>
      <stop offset=".6" stop-color="#2c4761"/>
      <stop offset="1" stop-color="#2a445c"/>
    </linearGradient>
  </defs>
  <text class="cls-10" transform="translate(37.27 712.33)"><tspan class="cls-13" x="0" y="0">R</tspan><tspan class="cls-11" x="41.63" y="0">evolved side angle</tspan></text>
  <g>
    <path class="cls-6" d="M878.5,546.26c0-17.9-196.66-32.41-439.25-32.41S0,528.36,0,546.26s196.66,32.41,439.25,32.41,439.25-14.51,439.25-32.41Z"/>
    <g>
      <path class="cls-7" d="M781.95,57.06c19.94-26.05,40.81-48,41.12-48.33,.3-.32,.8-.33,1.12-.03s.43,.77,.02,1.12c-.46,.49-47.31,49.76-67.55,88.25-.2,.45-.69,.54-1.07,.34-.39-.2-.54-.69-.34-1.07,6.84-12.97,16.65-27.14,26.7-40.28Z"/>
      <path class="cls-12" d="M813.46,59.81c-2.01-5.49-5.31-10.35-7.37-15.81-1.56-4.04-2.53-9.24-.35-13.22-4.43,4.6-12.24-1.56-16.01-4.4-3.24-2.45-1.02-7.84-5.14-8.41-4.55-.61-9.11,.63-13.24,2.43-3.39,1.51-6.41,3.5-9.52,5.47-1.72,1.06-3.43,2.13-5.25,3.01-.98,.47-1.96,.93-3.02,1.02-.29,.01-.6,0-.92-.03-.24-.04-.28-.33-.17-.47l-.71-.42s-.01,0-.01,.01c-.08,.02-.35-.29-.48-.29-.84,.05-1.53,.1-2.33,.48-.91,.43-1.77,.97-2.56,1.59-1.59,1.26-2.99,2.77-3.96,4.46-1.77,3.09-1.5,7.12-4.22,9.82h.02c-1.26,1.3-2.49,2.63-3.63,4.04-1.64,2.03-3.25,4.17-4.48,6.44-1.17,2.17-2.06,4.45-2.8,6.76-.62,1.95-1.53,5.9-2.38,10.23-4.11,2.18-8.24,4.32-12.39,6.41-9.7,4.91-17.49,1.24-25.54-4.55-9.87-7.09-16-15.4-28.12-16.34-10.34-.8-127.26,69.99-200.44,128.85,14.88,26.37,93.47,25.61,107.38,52.5,2.89-3.79,109.5-28.68,112.95-28.63-1.28,.88,55.54-28.03,54.09-39.77-.28-2.24-8.38-34.21-8.56-36.44,.05-.05,.1-.1,.14-.15,.06-.07-.03-.16-.1-.1-.02,.02-.04,.04-.06,.05-.54-7.17,.19-14.04,6.82-19.15,4.46-3.43,9.38-6.41,14.1-9.47,.04-.03-.01-.04-.04-.07h0l.06-.17c-.15-.05-.31-.1-.47-.15,3.96,1.27,7.58,2.3,9.49,2.68,2.37,.48,4.8,.8,7.27,.83,2.59,.03,5.23-.34,7.81-.79,2.34-.41,4.64-1.02,6.91-1.71,2.99-.1,5.84,1.3,8.81,1.26,1.95-.03,3.95-.52,5.83-1.3,.93-.38,1.81-.89,2.63-1.47,.73-.51,1.1-1.09,1.55-1.8,.07-.11-.07-.48-.02-.55h.01s.29-2.98,.29-2.98c-.05-.08-.04-.17,.06-.23,4.93-2.22,9.19-5.71,13.43-9,3.8-2.97,7.32-6.38,9.64-10.72,3.9-7.23-2.24-12.2-5-19.75Z"/>
      <path class="cls-4" d="M675.58,211.57c7-6.44,8.53-21.99,14.77-29.33,11.86-13.94,35.89-35.69,35.79-35.61-.05-.51-2.04-11.81-1.7-12.21,.06-.07-.03-.16-.1-.1-17.8,16.44-20.92,11.76-47.96,21.31-21.95,7.75-42.35,.45-38.18-27.04,1.44-9.47,34.2-41.1,50.11-50.64,.41-.24-7.07-9.58-7.16-9.54-7.44,9.93-27.84,24.66-54.09,29.43-3.03,.55-31.2-1.32-36.59-3.98-19.95,11.42-37.49,25.75-40.57,28.63,0,0,20.83,47.52,34.2,66.02,8.62,11.92,26.22,35.68,40.57,40.57,.41,.14,19.7-6.47,23.37-8.55,.01-.01,17.98-.16,27.54-8.96Z"/>
      <path class="cls-5" d="M839.67,70.86c2.67-5.37,5.25-13.62,5.43-21.22,1.37-.32,2.7-.8,3.94-1.53,9.09-5.35,10.37-20.02,2.86-32.76-7.5-12.74-20.95-18.74-30.04-13.39-1.97,1.16-3.5,2.82-4.73,4.75-.13-.12-.25-.26-.38-.37-3.02-2.44-11.94-3.33-17.18-3.56-4.38-.2-16.16,3.72-20.39,6.12-5.29,3-10.02,6.13-14.07,9.29-2.02,1.58-4.15,3.37-6.51,5.47l-.28,.25c-1.63,1.46-3.29,2.97-4.75,4.65-.35,.15-.7,.31-1.06,.44-.17,.06-.31,.2-.38,.38s-.05,.37,.04,.52c.08,.14,.22,.23,.4,.26,.28,.04,.55,.03,.81,.02,.01,0,.01,.01,.02,.01s.02-.01,.03-.01c1.17-.06,2.29-.5,3.24-1.03,23.14-12.9,41.62,4.14,45.99,3.53,.84-.12,1.6-.42,2.29-.88-1.64,4.29-.28,9.38,.84,12.3,1.01,2.66,2.34,5.22,3.61,7.7,4.34,8.48,13.97,31.11-14.14,47.25-.11,.06-.2,.15-.24,.26-.04,.12-.02,.25,.05,.37,.1,.18,.3,.27,.49,.24,.04-.01,.08-.02,.12-.03,.09,.06,.2,.09,.31,.07,4.78-1.31,9.46-3.19,13.8-5.02,3.82-1.63,25.88-16.02,29.88-24.08Z"/>
      <path class="cls-8" d="M760.38,37.56s-.38,13.98,11.68,17.74c-8.13,1.88-18.71-5.64-11.68-17.74Z"/>
      <path class="cls-8" d="M780.02,70.91s-.38,13.98,11.68,17.74c-8.13,1.89-18.71-5.63-11.68-17.74Z"/>
      <path class="cls-8" d="M845.28,59.78c-1.52,.53-2.94-.49-2.91-2.3,.02-.91-.1-1.94-.35-3.08-.11,.39-25.06-21.28-24.52-50.87,.36,.35,.66,.69,.92,1,.13,.16,.22,.31,.34,.47,.02,.09,.01,.17,.03,.27,10.59,44.34,30.98,43.37,30.57,43.47,.67,.34,1.26,.73,1.74,1.16,1.82,1.59,1.66,3.97,.54,4.91-.64,.53-1.8,.71-2.98-.54-.75-.8-1.76-1.6-2.96-2.38,.95,1.47,1.56,3.05,1.68,4.43,.15,1.81-.98,3.06-2.1,3.46Z"/>
      <path class="cls-7" d="M587.46,179.55c-19.45-33.03-23-65.8-23.05-66.3-.05-.48,.27-.84,.7-.82,.44,.03,.84,.44,.88,.93,.07,.73,8.12,74.66,66.58,111.65,.42,.26,.6,.79,.43,1.21-.17,.41-.63,.53-1.04,.27-20.19-12.78-34.47-29.9-44.5-46.94Z"/>
      <g>
        <path class="cls-2" d="M794.85,547.54c-1.97-3.95-64.61-22.04-69.06-42.75s3.77-200.24-1.03-221c-1.88-8.12-4.44-14.36-10.14-18.08,0-.06,0-.11-.01-.16-2.6-1.69-5.54-3.3-9.15-4.76-19.68-8.47-91.97-31.52-154.29-27.88,.29-1.91,.57-3.85,.85-5.79-34.73-.38-69.11-2.41-102.78-10.11-57.3,40.89-76.73,112.91-143.79,150.86-13.17,6.58-41.81,11.99-57.53,22.14-57.98,37.45-75.83,83.25-103.23,108-14.47,12.4-28.71,25.87-34.88,33.75-6.92,8.85-5.57,20.65,5.01,23.96,17.3,5.51,15.91-4.77,62.41,3.46,10.58,1.1,40.14,2.88,36.19-9.62-1.6-3.19-48.14-6.71-54.06-23.81,19.09-28.63,140.2-105.16,171.28-125.14,30.08-5.01,104.99-66.81,158.02-101.81,64.7,6.53,128.85,16.97,186.63,13.5-1.44,11.66-4.26,20.43-5.42,37.26-1.32,24.34,10.06,61.73,14.47,78.27,8.82,34.17,14.37,54.73,8.13,88.54l-2.87,12.09c-4.81,14.34,1.74,22.08,12.31,25.38,17.3,5.51,38.46,0,56.73,3.3,10.59,1.12,40.15,2.9,36.21-9.6Z"/>
        <path class="cls-9" d="M671.9,332.39c18.06,1.89,36.44,3.43,54.37,1.53,.17-24.84-.13-44.13-1.51-50.13-1.88-8.12-4.44-14.36-10.14-18.08,0-.06,0-.11-.01-.16-2.6-1.69-5.54-3.3-9.15-4.76-29.83-12.84-72.38-23.79-133.27-29.33,1.14-7.57-81.92-68.62-85.11-65.22-32.42,6.8-53.32,28.06-70.96,53.79-16.89,24.63-88.65,129.68-126.13,151.59-3.91,2.28-22,8.46-22.97,8.85-.62,19.29,13.74,33.53,23.33,49.84,7.38-4.17,25.34-17.73,30.76-21.21,75.3-35,109.7-68.66,168.62-107.11,27.51,9.29,123.02,21.74,185.57,10.32-.87,6.93-2.21,12.88-3.4,20.08Z"/>
        <path class="cls-1" d="M427.21,205.28c-3.85,4.71-7.57,9.6-11.1,14.75-16.89,24.63-88.65,129.68-126.13,151.59-3.91,2.28-22,8.46-22.97,8.84-.62,19.29,13.74,33.53,23.33,49.85,7.38-4.17,25.34-17.73,30.76-21.21,74.51-34.63,109.02-67.96,166.82-105.92-60.77-13.92-78.49-57.2-60.71-97.9Z"/>
      </g>
      <g>
        <path class="cls-3" d="M675.69,64.33c-10.36-9.94-18.06-18.69-31.93-18.2-33.52,1.2-136.86,27.55-139.99,33.41s13.63,40.21,36.92,58.68c23.29,18.46,59.73,29.72,59.73,29.72l68.22-27.59s-2.18-7.19-9.03-7.08-11.26-1.49-27.79,5.49c-16.54,6.99-31.12,7.49-36.71,5.25-5.59-2.23-34.36-33.5-37.44-40.42s68.33-12.24,72.57-12.13c18.07,.48,51.74-21.1,45.45-27.13Z"/>
        <path class="cls-3" d="M725.69,147.94s15.11,23.86,12.73,42.95c-1.59,12.68-18.73,28.4-31.17,48.87s-49.23,73.27-66.94,79.63-17.74-3.45-24.88-36.64c-7.13-33.19-17.35-110.88-12.5-114.31,4.85-3.44,67.48-33.26,71.27-30.48,3.79,2.78,4.26,7.55-3.92,12.97-8.17,5.43-51.57,27.45-51.19,35.19,.39,7.74,26.75,70.7,28.94,77.9,2.18,7.19,15.43-32.56,31.9-59.17,16.49-26.61,28.25-46.68,45.76-56.91Z"/>
      </g>
    </g>
  </g>
</svg>