<?xml version="1.0" encoding="UTF-8"?>
<svg id="Layer_1" data-name="Layer 1" xmlns="http://www.w3.org/2000/svg" xmlns:xlink="http://www.w3.org/1999/xlink" viewBox="0 0 877.91 450.54">
  <defs>
    <style>
      .cls-1 {
        fill: url(#linear-gradient);
      }

      .cls-2 {
        fill: #f7b882;
      }

      .cls-3 {
        fill: #f3af80;
      }

      .cls-4 {
        fill: #f5b780;
      }

      .cls-5 {
        fill: #fff;
      }

      .cls-6 {
        fill: #8f5424;
      }

      .cls-7 {
        fill: #ce986e;
      }

      .cls-8 {
        fill: #b2bcc4;
      }

      .cls-9 {
        fill: #d1e5ff;
      }

      .cls-10, .cls-11 {
        fill: #355775;
      }

      .cls-12 {
        fill: #452713;
      }

      .cls-11 {
        font-family: FarmWaveFree-Regular, 'Farm Wave Free';
        font-size: 85px;
        isolation: isolate;
        letter-spacing: .08em;
      }
    </style>
    <linearGradient id="linear-gradient" x1="713.97" y1="88.32" x2="744.64" y2="147.22" gradientUnits="userSpaceOnUse">
      <stop offset="0" stop-color="#f8a164"/>
      <stop offset=".1" stop-color="#f8a469"/>
      <stop offset=".63" stop-color="#f7b37b"/>
      <stop offset="1" stop-color="#f7b882"/>
    </linearGradient>
  </defs>
  <text class="cls-11" transform="translate(385.15 429.29)"><tspan x="0" y="0">Fly</tspan></text>
  <g>
    <ellipse class="cls-8" cx="438.95" cy="275.1" rx="438.95" ry="21.17"/>
    <g>
      <path class="cls-1" d="M858.48,40.05c2.13-2.51-9.59,.85-18.88,.46,0,0,11.52-1.75,16.65-3.58,5.59-1.99-8.31-4.49-12.62-5.82-1.38-.43-22.91,6.85-22.91,6.85,1.74-2.75,16.41-7.86,10.92-11.1-4.75,.93-8.85,2.71-21.08,10.01-4.75,2.84-7.25,10.03-11.07,13.38-3.81,3.35-72.01,38.33-87.09,44.14-33.2,11.86-97.92,20.95-108.94,23.71-38.47,10.38-33.11,43.82-11.72,44.2,29.51-.72,124.11-40.64,135.91-48.61,28.98-9.9,61.53-43.49,85.74-52.16,0,0,24.63-14.24,39.83-15.52l5.26-5.96Z"/>
      <path class="cls-4" d="M264.98,216.01c-10.48-5.22-21.56-10.9-29.8-14.08-40.65-14.99-85.69,.33-125.04-12.44-12.37-3.43-17.06-16.78-27.53-19.68-11.12-4.01-22.22,6.81-31.26,11.72,0,0-46.18-3.41-50.3,.99-3.9,4.17,4.12,5.59,6.39,8.07,25.82,5.27,49.39,10.99,74.12,17.85,51.65,13.4,104.84,25.38,154.7,43.83,4.36,1.62,10.89,3.92,17.88,6.29-.75-15.1,.96-30.6,10.84-42.55Z"/>
      <g>
        <path class="cls-2" d="M641.78,115.45c.48-.93,1.82-27.6,3.66-30.49-13.78-1.1-26.45-2.43-40.26-3.19,2.95-2.88,1.13,22.69-3.75,27.29-13.77,12.99-24.94,20.45-31.96,27.2-27.81,26.76-14.38,68.53-71.89,59.59,12.99,17.72-2.01,59.22,9.11,77.89,29.72-1.28,55.79-14.12,80.52-37.03,24.73-22.92,63.75-79.55,59.91-80.45,.92-2.72-6.94-34.99-5.34-40.81Z"/>
        <path class="cls-2" d="M671.28,53.06c-2.56-1.73-5.34-3.13-7.71-5.1-.67-.64-1.29-1.27-1.82-1.83-.22-.29-.42-.58-.6-.87,1.66-.19,3.66-2.37,3.96-4.21-1.14,1.31-3.09,2.02-5.03,1.85-.51-1.61-.71-3.37-.94-5.22-.45-3.41-1.52-6.77-3.05-9.94-.78-1.67-3.61-5.97-8.04-10.45-57.42,22.86-44.32,66.52-48.42,69.98,.84,.69,1.63,1.35,2.37,1.96,.96,2.61,6.94,5.95,6.78,10.41,12.82-2.86,19.96-5.04,32.84-7.67,.37-1.41,.71-2.65,.93-3.34,1.46-.1,2.9-.16,4.24-.13,6.47-.14,15.61-.52,18.55-1.39,5.56-1.63,3.91-5.51,2.24-9.42-.88-2.06-1.29-4.16,.71-5.82,1.03-.84,1.78-.95,2.4-2.12,.37-.75-.02-1.56-.45-2.2-.76-1.15-2.19-.91-.4-1.42,1.42-.39,1.71-2.37,1.18-3.54-.79-1.72-3.26-1.55-.9-4.73,.61-.82,1.47-1.47,2.03-2.31,.61-.9-.02-1.9-.87-2.49Z"/>
        <path class="cls-6" d="M596.24,87.46c-4.25-3.45-11.99-10.64-16.08-19.97-3.51-8.03-3.52-12.8-2.91-15.39,.1-.44,.23-.85,.39-1.21-3.1,.62-10.34,1.14-15.19-6.03-3.17-4.7-3.97-12.1-2.16-19.79,2.33-9.88,9.53-21.76,22.17-22.74,4.48-.34,8.12,1.13,10.71,2.78-.17-.66-.24-1.3-.22-1.88,.09-2.18,2.2-3.45,3.76-3.2,.89,.14,1.84,.85,1.59,2.39-.15,.98-.14,2.15,.03,3.43,.58-1.5,1.5-2.84,2.57-3.72,1.42-1.16,3.25-1.1,4.35-.54,1.49,.75,1.61,2.33,.06,3.35-.78,.51-1.56,1.19-2.35,2.02,7.13-2.62,17.98-5.86,29.72-1.79,7.12,2.47,15.47,6.88,18.97,14.28l.21,.44-.47,.24c-10.31,14.08-21.9,18.24-22.5,31.64l-1.18,.04c-1.2-3.12-4.89-3.46-6.6-3.65-2.76-.31-8.12,1.88-7.87,7.4,.39,8.37,8.89,15.57,8.89,15.57,0,0-9.91,22-16.49,22.97l-9.26-6.52-.14-.12Z"/>
        <path class="cls-12" d="M605.26,1.59c1.49,.75,1.61,2.33,.06,3.35-.78,.51-1.56,1.19-2.35,2.02,.4-.15-.69,29.7-25.93,46.37,.05-.45,.12-.85,.21-1.22,.04-.18,.11-.33,.16-.5,.07-.07,.14-.11,.2-.18,29.99-32.91,15.19-46.54,15.56-46.31-.17-.66-.24-1.3-.22-1.88,.09-2.18,2.2-3.45,3.76-3.2,.89,.14,1.84,.85,1.59,2.39-.15,.98-.14,2.15,.03,3.43,.58-1.5,1.5-2.84,2.57-3.72,1.43-1.18,3.26-1.11,4.36-.55Z"/>
        <path class="cls-12" d="M665.72,39.45s-4.05,4.09-11.76,5.14c-5.38,.73,9.96,5.51,11.76-5.14Z"/>
        <path class="cls-7" d="M664.3,87.22s-16.02,3.17-30.26,.8c7.52-.51,17.86-.4,30.26-.8Z"/>
        <path class="cls-3" d="M654.32,72.48c-9.47,2.52-19.81-7.16-16.02-16.22,3.8-9.06,22.12,14.6,16.02,16.22Z"/>
        <path class="cls-5" d="M647.59,120.71c-1.96-7.72-22.82-6.32-37.38,.64-18.69,8.94-24.2,25.75-30.91,28.73-14.58,6.47-16.3-1.06-17.01-6.81-6.15,9.68-13.76,25.19-17.97,35.33,5.15,5.8,38.44,37.28,56.8,43.42,2.02-3.26,23.7-26.09,23.73-26.14,13.75,2.34,32.74-6.9,33.1-21.13,.08-5.24-7.04-44.74-10.36-54.04Z"/>
      </g>
      <path class="cls-10" d="M518.19,196.26c-9.11,1.7-73.23-18.76-91.54,19.15-26.63,3.18-132.28,3.41-150.49,3.41-5.42-.71-11.53-6.41-18.21-7.66-5.42,14.02-13.46,32.6-7.67,46.82,40.26,17.03,227.97,26.63,251.04,21.43,13.32-3.01,24.35-5.41,33.18-10.36,3.04-23.16-12.18-73.57-16.31-72.79Z"/>
      <path class="cls-9" d="M603.86,217.97c-.14,0-.28-.03-.41-.09-21.12-10.22-55.23-42.4-55.57-42.73-.31-.3-.3-.76,.05-1.04,.34-.28,.87-.26,1.19,.04,.34,.32,34.27,32.34,55.15,42.44,.41,.2,.55,.64,.33,1-.16,.24-.45,.38-.74,.38Z"/>
      <path class="cls-2" d="M877.65,42.6c2.13-2.51-9.59,.85-18.88,.46,0,0,11.52-1.75,16.65-3.58,5.59-1.99-8.31-4.49-12.62-5.82-1.38-.43-22.91,6.85-22.91,6.85,1.74-2.75,16.41-7.86,10.92-11.1-4.75,.93-8.85,2.71-21.08,10.01-4.75,2.84-7.25,10.03-11.07,13.38-3.81,3.35-72.01,38.33-87.09,44.14-33.2,11.86-97.92,20.95-108.94,23.71-38.47,10.38-33.11,43.82-11.72,44.2,29.51-.72,124.11-40.64,135.91-48.61,28.98-9.9,61.53-43.49,85.74-52.16,0,0,24.63-14.24,39.83-15.52l5.26-5.96Z"/>
    </g>
  </g>
</svg>