<?xml version="1.0" encoding="utf-8"?>
<!-- Generator: Adobe Illustrator 26.5.0, SVG Export Plug-In . SVG Version: 6.00 Build 0)  -->
<svg version="1.1" id="Layer_1" xmlns="http://www.w3.org/2000/svg" xmlns:xlink="http://www.w3.org/1999/xlink" x="0px" y="0px"
	 viewBox="0 0 250 90" style="enable-background:new 0 0 250 90;" xml:space="preserve">
<style type="text/css">
	.st0{fill:#B2BCC4;}
	.st1{fill:url(#SVGID_1_);}
	.st2{fill:#F5B780;}
	.st3{fill:#F7B882;}
	.st4{fill:#8F5424;}
	.st5{fill:#452713;}
	.st6{fill:#CE986E;}
	.st7{fill:#F3AF80;}
	.st8{fill:#FFFFFF;}
	.st9{fill:#355775;}
	.st10{fill:#D1E5FF;}
</style>
<g>
	<g>
		<ellipse class="st0" cx="125" cy="84" rx="125" ry="6"/>
		<g>
			
				<linearGradient id="SVGID_1_" gradientUnits="userSpaceOnUse" x1="375.8224" y1="62.1421" x2="384.5562" y2="45.3692" gradientTransform="matrix(1 0 0 -1 -172.5 93)">
				<stop  offset="0" style="stop-color:#F8A164"/>
				<stop  offset="0.1" style="stop-color:#F8A469"/>
				<stop  offset="0.63" style="stop-color:#F7B37B"/>
				<stop  offset="1" style="stop-color:#F7B882"/>
			</linearGradient>
			<path class="st1" d="M244.5,17.1c0.6-0.7-2.7,0.2-5.4,0.1c0,0,3.3-0.5,4.7-1c1.6-0.6-2.4-1.3-3.6-1.7c-0.4-0.1-6.5,2-6.5,2
				c0.5-0.8,4.7-2.2,3.1-3.2c-1.4,0.3-2.5,0.8-6,2.9c-1.4,0.8-2.1,2.9-3.1,3.8c-1.1,1-20.5,10.9-24.8,12.6c-9.4,3.4-27.9,6-31,6.8
				c-11,3-9.4,12.5-3.3,12.6c8.4-0.2,35.3-11.6,38.7-13.8c8.2-2.8,17.5-12.4,24.4-14.9c0,0,7-4.1,11.3-4.4L244.5,17.1L244.5,17.1z"
				/>
			<path class="st2" d="M75.5,67.2c-3-1.5-6.1-3.1-8.5-4c-11.6-4.3-24.4,0.1-35.6-3.5c-3.5-1-4.9-4.8-7.8-5.6
				c-3.2-1.1-6.3,1.9-8.9,3.3c0,0-13.1-1-14.3,0.3c-1.1,1.2,1.2,1.6,1.8,2.3c7.3,1.5,14.1,3.1,21.1,5.1c14.7,3.8,29.9,7.2,44,12.5
				c1.2,0.5,3.1,1.1,5.1,1.8C72.2,75,72.7,70.6,75.5,67.2z"/>
			<g>
				<path class="st3" d="M182.8,38.6c0.1-0.3,0.5-7.9,1-8.7c-3.9-0.3-7.5-0.7-11.5-0.9c0.8-0.8,0.3,6.5-1.1,7.8
					c-3.9,3.7-7.1,5.8-9.1,7.8c-7.9,7.6-4.1,19.5-20.5,17c3.7,5-0.6,16.9,2.6,22.2c8.5-0.4,15.9-4,22.9-10.5s18.1-22.6,17.1-22.9
					C184.5,49.4,182.3,40.2,182.8,38.6L182.8,38.6z"/>
				<path class="st3" d="M191.2,20.8c-0.7-0.5-1.5-0.9-2.2-1.5c-0.2-0.2-0.4-0.4-0.5-0.5s-0.1-0.2-0.2-0.2c0.5,0,1-0.7,1.1-1.2
					c-0.3,0.4-0.9,0.6-1.4,0.5c-0.1-0.5-0.2-1-0.3-1.5c-0.1-1-0.4-1.9-0.9-2.8c-0.2-0.5-1-1.7-2.3-3c-16.4,6.5-12.6,18.9-13.8,19.9
					c0.2,0.2,0.5,0.4,0.7,0.6c0.3,0.7,2,1.7,1.9,3c3.6-0.8,5.7-1.4,9.4-2.2c0.1-0.4,0.2-0.8,0.3-1c0.4,0,0.8,0,1.2,0
					c1.8,0,4.4-0.1,5.3-0.4c1.6-0.5,1.1-1.6,0.6-2.7c-0.2-0.6-0.4-1.2,0.2-1.7c0.3-0.2,0.5-0.3,0.7-0.6c0.1-0.2,0-0.4-0.1-0.6
					c-0.2-0.3-0.6-0.3-0.1-0.4c0.4-0.1,0.5-0.7,0.3-1c-0.2-0.5-0.9-0.4-0.3-1.4c0.2-0.2,0.4-0.4,0.6-0.7
					C191.6,21.3,191.4,21,191.2,20.8L191.2,20.8z"/>
				<path class="st4" d="M169.8,30.6c-1.2-1-3.4-3-4.6-5.7c-1-2.3-1-3.6-0.8-4.4c0-0.1,0.1-0.2,0.1-0.3c-0.9,0.2-2.9,0.3-4.3-1.7
					c-0.9-1.3-1.1-3.5-0.6-5.6c0.7-2.8,2.7-6.2,6.3-6.5c1.3-0.1,2.3,0.3,3.1,0.8c-0.1-0.2-0.1-0.4-0.1-0.5c0-0.6,0.6-1,1.1-0.9
					c0.2,0,0.5,0.2,0.4,0.7c0,0.3,0,0.6,0,1c0.2-0.4,0.4-0.8,0.7-1.1c0.4-0.3,0.9-0.3,1.2-0.1c0.4,0.2,0.5,0.7,0,0.9
					c-0.2,0.1-0.4,0.3-0.7,0.6c2-0.8,5.1-1.7,8.5-0.5c2,0.7,4.4,2,5.4,4.1l0.1,0.1l-0.1,0.1c-2.9,4-6.2,5.2-6.4,9h-0.3
					c-0.3-0.9-1.4-1-1.9-1c-0.8-0.1-2.3,0.5-2.2,2.1c0.1,2.4,2.5,4.4,2.5,4.4s-2.8,6.3-4.7,6.5L169.8,30.6L169.8,30.6L169.8,30.6z"
					/>
				<path class="st5" d="M172.4,6.2c0.4,0.2,0.5,0.7,0,0.9c-0.2,0.1-0.4,0.3-0.7,0.6c0.1,0-0.2,8.5-7.4,13.2c0-0.1,0-0.2,0.1-0.4
					c0,0,0-0.1,0.1-0.1c0,0,0,0,0.1,0c8.5-9.4,4.3-13.2,4.4-13.2c-0.1-0.2-0.1-0.4-0.1-0.5c0-0.6,0.6-1,1.1-0.9
					c0.2,0,0.5,0.2,0.4,0.7c0,0.3,0,0.6,0,1c0.2-0.4,0.4-0.8,0.7-1.1C171.5,6,172.1,6,172.4,6.2L172.4,6.2z"/>
				<path class="st5" d="M189.6,16.9c0,0-1.1,1.2-3.4,1.5C184.7,18.6,189.1,20,189.6,16.9z"/>
				<path class="st6" d="M189.2,30.5c0,0-4.6,0.9-8.6,0.2C182.7,30.6,185.6,30.7,189.2,30.5z"/>
				<path class="st7" d="M186.3,26.4c-2.7,0.7-5.6-2-4.6-4.6C182.9,19.1,188.1,25.9,186.3,26.4z"/>
				<path class="st8" d="M184.4,40.1c-0.6-2.2-6.5-1.8-10.6,0.2c-5.3,2.5-6.9,7.3-8.8,8.2c-4.1,1.8-4.6-0.3-4.8-1.9
					c-1.8,2.8-3.9,7.2-5.1,10.1c1.5,1.6,10.9,10.6,16.2,12.4c0.6-0.9,6.8-7.4,6.8-7.4c3.9,0.7,9.3-2,9.4-6
					C187.4,54,185.4,42.7,184.4,40.1z"/>
			</g>
			<path class="st9" d="M147.6,61.6c-2.6,0.5-20.8-5.3-26.1,5.5c-7.6,0.9-37.7,1-42.8,1c-1.5-0.2-3.3-1.8-5.2-2.2
				c-1.5,4-3.8,9.3-2.2,13.3c11.5,4.9,64.9,7.6,71.5,6.1c3.8-0.9,6.9-1.5,9.4-3C153.1,75.7,148.7,61.4,147.6,61.6L147.6,61.6z"/>
			<path class="st10" d="M172,67.8h-0.1c-6-2.9-15.7-12.1-15.8-12.2s-0.1-0.2,0-0.3c0.1-0.1,0.2-0.1,0.3,0s9.8,9.2,15.7,12.1
				c0.1,0.1,0.2,0.2,0.1,0.3C172.1,67.7,172,67.8,172,67.8L172,67.8z"/>
			<path class="st3" d="M249.9,17.8c0.6-0.7-2.7,0.2-5.4,0.1c0,0,3.3-0.5,4.7-1c1.6-0.6-2.4-1.3-3.6-1.7c-0.4-0.1-6.5,2-6.5,2
				c0.5-0.8,4.7-2.2,3.1-3.2c-1.4,0.3-2.5,0.8-6,2.9c-1.4,0.8-2.1,2.9-3.1,3.8c-1.1,1-20.5,10.9-24.8,12.6c-9.4,3.4-27.9,6-31,6.8
				c-11,3-9.4,12.5-3.3,12.6c8.4-0.2,35.3-11.6,38.7-13.8c8.2-2.8,17.5-12.4,24.4-14.9c0,0,7-4.1,11.3-4.4L249.9,17.8L249.9,17.8z"
				/>
		</g>
	</g>
</g>
</svg>
