<?xml version="1.0" encoding="utf-8"?>
<!-- Generator: Adobe Illustrator 26.5.0, SVG Export Plug-In . SVG Version: 6.00 Build 0)  -->
<svg version="1.1" id="Layer_1" xmlns="http://www.w3.org/2000/svg" xmlns:xlink="http://www.w3.org/1999/xlink" x="0px" y="0px"
	 viewBox="0 0 250 400" style="enable-background:new 0 0 250 400;" xml:space="preserve">
<style type="text/css">
	.st0{fill:#355775;}
	.st1{font-family:'FarmWaveFree-Regular';}
	.st2{font-size:21.1564px;}
	.st3{letter-spacing:1;}
	.st4{fill:#B2BCC4;}
	.st5{fill:url(#SVGID_1_);}
	.st6{fill:#F5B780;}
	.st7{fill:#F7B882;}
	.st8{fill:#8F5424;}
	.st9{fill:#452713;}
	.st10{fill:#CE986E;}
	.st11{fill:#F3AF80;}
	.st12{fill:#FFFFFF;}
	.st13{fill:#D1E5FF;}
</style>
<g>
	<text transform="matrix(1 0 0 1 111.687 363.0352)" class="st0 st1 st2 st3">Fly</text>
	<g>
		<ellipse class="st4" cx="125" cy="327.05" rx="125" ry="6.03"/>
		<g>
			
				<linearGradient id="SVGID_1_" gradientUnits="userSpaceOnUse" x1="375.8173" y1="305.1395" x2="384.5511" y2="288.3666" gradientTransform="matrix(1 0 0 -1 -172.5 579)">
				<stop  offset="0" style="stop-color:#F8A164"/>
				<stop  offset="0.1" style="stop-color:#F8A469"/>
				<stop  offset="0.63" style="stop-color:#F7B37B"/>
				<stop  offset="1" style="stop-color:#F7B882"/>
			</linearGradient>
			<path class="st5" d="M244.47,260.11c0.61-0.71-2.73,0.24-5.38,0.13c0,0,3.28-0.5,4.74-1.02c1.59-0.57-2.37-1.28-3.59-1.66
				c-0.39-0.12-6.52,1.95-6.52,1.95c0.5-0.78,4.67-2.24,3.11-3.16c-1.35,0.26-2.52,0.77-6,2.85c-1.35,0.81-2.06,2.86-3.15,3.81
				c-1.08,0.95-20.51,10.92-24.8,12.57c-9.45,3.38-27.88,5.97-31.02,6.75c-10.96,2.96-9.43,12.48-3.34,12.59
				c8.4-0.21,35.34-11.57,38.7-13.84c8.25-2.82,17.52-12.38,24.42-14.85c0,0,7.01-4.06,11.34-4.42L244.47,260.11L244.47,260.11z"/>
			<path class="st6" d="M75.46,310.22c-2.98-1.49-6.14-3.1-8.49-4.01c-11.58-4.27-24.4,0.09-35.61-3.54
				c-3.52-0.98-4.86-4.78-7.84-5.6c-3.17-1.14-6.33,1.94-8.9,3.34c0,0-13.15-0.97-14.32,0.28c-1.11,1.19,1.17,1.59,1.82,2.3
				c7.35,1.5,14.06,3.13,21.11,5.08c14.71,3.82,29.86,7.23,44.05,12.48c1.24,0.46,3.1,1.12,5.09,1.79
				C72.16,318.04,72.65,313.63,75.46,310.22z"/>
			<g>
				<path class="st7" d="M182.76,281.59c0.14-0.26,0.52-7.86,1.04-8.68c-3.92-0.31-7.53-0.69-11.46-0.91
					c0.84-0.82,0.32,6.46-1.07,7.77c-3.92,3.7-7.1,5.82-9.1,7.75c-7.92,7.62-4.09,19.52-20.47,16.97c3.7,5.05-0.57,16.86,2.59,22.18
					c8.46-0.36,15.89-4.02,22.93-10.54c7.04-6.53,18.15-22.65,17.06-22.91C184.54,292.43,182.3,283.24,182.76,281.59L182.76,281.59z
					"/>
				<path class="st7" d="M191.16,263.82c-0.73-0.49-1.52-0.89-2.2-1.45c-0.19-0.18-0.37-0.36-0.52-0.52
					c-0.06-0.08-0.12-0.17-0.17-0.25c0.47-0.05,1.04-0.67,1.13-1.2c-0.32,0.37-0.88,0.58-1.43,0.53c-0.15-0.46-0.2-0.96-0.27-1.49
					c-0.13-0.97-0.43-1.93-0.87-2.83c-0.22-0.48-1.03-1.7-2.29-2.98c-16.35,6.51-12.62,18.94-13.79,19.93
					c0.24,0.2,0.46,0.38,0.67,0.56c0.27,0.74,1.98,1.69,1.93,2.96c3.65-0.81,5.68-1.44,9.35-2.18c0.11-0.4,0.2-0.75,0.26-0.95
					c0.42-0.03,0.83-0.05,1.21-0.04c1.84-0.04,4.45-0.15,5.28-0.4c1.58-0.46,1.11-1.57,0.64-2.68c-0.25-0.59-0.37-1.18,0.2-1.66
					c0.29-0.24,0.51-0.27,0.68-0.6c0.11-0.21-0.01-0.44-0.13-0.63c-0.22-0.33-0.62-0.26-0.11-0.4c0.4-0.11,0.49-0.67,0.34-1.01
					c-0.22-0.49-0.93-0.44-0.26-1.35c0.17-0.23,0.42-0.42,0.58-0.66C191.58,264.27,191.4,263.99,191.16,263.82L191.16,263.82z"/>
				<path class="st8" d="M169.79,273.62c-1.21-0.98-3.41-3.03-4.58-5.69c-1-2.29-1-3.65-0.83-4.38c0.03-0.13,0.07-0.24,0.11-0.34
					c-0.88,0.18-2.94,0.32-4.33-1.72c-0.9-1.34-1.13-3.45-0.62-5.64c0.66-2.81,2.71-6.2,6.31-6.48c1.28-0.1,2.31,0.32,3.05,0.79
					c-0.05-0.19-0.07-0.37-0.06-0.54c0.03-0.62,0.63-0.98,1.07-0.91c0.25,0.04,0.52,0.24,0.45,0.68c-0.04,0.28-0.04,0.61,0.01,0.98
					c0.17-0.43,0.43-0.81,0.73-1.06c0.4-0.33,0.93-0.31,1.24-0.15c0.42,0.21,0.46,0.66,0.02,0.95c-0.22,0.15-0.44,0.34-0.67,0.58
					c2.03-0.75,5.12-1.67,8.46-0.51c2.03,0.7,4.41,1.96,5.4,4.07l0.06,0.13l-0.13,0.07c-2.94,4.01-6.24,5.19-6.41,9.01l-0.34,0.01
					c-0.34-0.89-1.39-0.99-1.88-1.04c-0.79-0.09-2.31,0.54-2.24,2.11c0.11,2.38,2.53,4.43,2.53,4.43s-2.82,6.26-4.7,6.54l-2.64-1.86
					L169.79,273.62L169.79,273.62z"/>
				<path class="st9" d="M172.36,249.16c0.42,0.21,0.46,0.66,0.02,0.95c-0.22,0.15-0.44,0.34-0.67,0.58
					c0.11-0.04-0.2,8.46-7.38,13.2c0.01-0.13,0.03-0.24,0.06-0.35c0.01-0.05,0.03-0.09,0.05-0.14c0.02-0.02,0.04-0.03,0.06-0.05
					c8.54-9.37,4.33-13.25,4.43-13.19c-0.05-0.19-0.07-0.37-0.06-0.54c0.03-0.62,0.63-0.98,1.07-0.91c0.25,0.04,0.52,0.24,0.45,0.68
					c-0.04,0.28-0.04,0.61,0.01,0.98c0.17-0.43,0.43-0.81,0.73-1.06C171.53,248.98,172.05,249,172.36,249.16L172.36,249.16z"/>
				<path class="st9" d="M189.58,259.94c0,0-1.15,1.16-3.35,1.46C184.7,261.62,189.06,262.98,189.58,259.94z"/>
				<path class="st10" d="M189.17,273.55c0,0-4.56,0.9-8.62,0.23C182.7,273.63,185.64,273.66,189.17,273.55z"/>
				<path class="st11" d="M186.33,269.35c-2.7,0.72-5.64-2.04-4.56-4.62C182.85,262.15,188.07,268.89,186.33,269.35z"/>
				<path class="st12" d="M184.41,283.08c-0.56-2.2-6.5-1.8-10.64,0.18c-5.32,2.55-6.89,7.33-8.8,8.18
					c-4.15,1.84-4.64-0.3-4.84-1.94c-1.75,2.76-3.92,7.17-5.12,10.06c1.47,1.65,10.95,10.62,16.17,12.36
					c0.58-0.93,6.75-7.43,6.76-7.44c3.92,0.67,9.32-1.96,9.43-6.02C187.39,296.98,185.36,285.73,184.41,283.08z"/>
			</g>
			<path class="st0" d="M147.56,304.6c-2.59,0.48-20.85-5.34-26.07,5.45c-7.58,0.91-37.67,0.97-42.85,0.97
				c-1.54-0.2-3.28-1.83-5.19-2.18c-1.54,3.99-3.83,9.28-2.18,13.33c11.46,4.85,64.92,7.58,71.49,6.1c3.79-0.86,6.93-1.54,9.45-2.95
				C153.08,318.73,148.74,304.38,147.56,304.6L147.56,304.6z"/>
			<path class="st13" d="M171.96,310.78c-0.04,0-0.08-0.01-0.12-0.03c-6.01-2.91-15.73-12.07-15.82-12.17
				c-0.09-0.09-0.09-0.22,0.01-0.3c0.1-0.08,0.25-0.07,0.34,0.01c0.1,0.09,9.76,9.21,15.7,12.09c0.12,0.06,0.16,0.18,0.09,0.28
				C172.13,310.74,172.04,310.78,171.96,310.78L171.96,310.78z"/>
			<path class="st7" d="M249.93,260.84c0.61-0.71-2.73,0.24-5.38,0.13c0,0,3.28-0.5,4.74-1.02c1.59-0.57-2.37-1.28-3.59-1.66
				c-0.39-0.12-6.52,1.95-6.52,1.95c0.5-0.78,4.67-2.24,3.11-3.16c-1.35,0.26-2.52,0.77-6,2.85c-1.35,0.81-2.06,2.86-3.15,3.81
				c-1.08,0.95-20.51,10.92-24.8,12.57c-9.45,3.38-27.88,5.97-31.02,6.75c-10.96,2.96-9.43,12.48-3.34,12.59
				c8.4-0.21,35.34-11.57,38.7-13.84c8.25-2.82,17.52-12.38,24.42-14.85c0,0,7.01-4.06,11.34-4.42L249.93,260.84L249.93,260.84z"/>
		</g>
	</g>
</g>
</svg>
