<?xml version="1.0" encoding="UTF-8"?>
<svg id="Layer_1" data-name="Layer 1" xmlns="http://www.w3.org/2000/svg" xmlns:xlink="http://www.w3.org/1999/xlink" viewBox="0 0 877.9 490.51">
  <defs>
    <style>
      .cls-1 {
        fill: url(#linear-gradient);
      }

      .cls-2 {
        fill: #f7b882;
      }

      .cls-3 {
        fill: #f5b080;
      }

      .cls-4 {
        fill: #fff;
      }

      .cls-5 {
        fill: #905423;
      }

      .cls-6 {
        fill: #b2bcc4;
      }

      .cls-7 {
        fill: #d1e5ff;
      }

      .cls-8 {
        fill: #d09a6f;
      }

      .cls-9, .cls-10 {
        fill: #355775;
      }

      .cls-11 {
        fill: #46260f;
      }

      .cls-10 {
        font-family: FarmWaveFree-Regular, 'Farm Wave Free';
        font-size: 85px;
        isolation: isolate;
        letter-spacing: .08em;
      }

      .cls-12 {
        fill: url(#linear-gradient-2);
      }
    </style>
    <linearGradient id="linear-gradient" x1="740.58" y1="290.15" x2="755.81" y2="262.96" gradientUnits="userSpaceOnUse">
      <stop offset="0" stop-color="#f8a164"/>
      <stop offset=".1" stop-color="#f8a469"/>
      <stop offset=".63" stop-color="#f7b37b"/>
      <stop offset="1" stop-color="#f7b882"/>
    </linearGradient>
    <linearGradient id="linear-gradient-2" x1="639.77" y1="247.51" x2="582.02" y2="250.81" gradientUnits="userSpaceOnUse">
      <stop offset="0" stop-color="#f8a164"/>
      <stop offset=".1" stop-color="#f8a469"/>
      <stop offset=".63" stop-color="#f7b37b"/>
      <stop offset="1" stop-color="#f7b882"/>
    </linearGradient>
  </defs>
  <text class="cls-10" transform="translate(196.4 469.26)"><tspan x="0" y="0">Sphinx pose</tspan></text>
  <g>
    <path class="cls-6" d="M877.9,310.84c0-15.22-196.52-27.55-438.95-27.55S0,295.63,0,310.84s196.52,27.55,438.95,27.55,438.95-12.33,438.95-27.55Z"/>
    <g>
      <path class="cls-1" d="M777.43,294c-14.67-4.13-31.12-4.44-48.21-6.49-5.67-.68-27.33-6.61-35.94-8.75-1.09-.26-3.17-.54-4.36-.73,0,0-.46,14.57-.02,17.58,53.03,6.03,87.08,5.65,100.01,5,7.84-.51,3.68-1.44,3.72-2.27,.08-1.56-15.2-4.34-15.2-4.34Z"/>
      <path class="cls-12" d="M656.05,277.59c-2.89,1.45-5.53-.38-6.93-.37-.72-6.52,1.81-35.39,5.69-54.96-.14,2.78,1.09-24.68-.77-34.6-14.65,1.26-37.75,10.66-39.67,32.85-2.55,29.33,2.63,74.11,7.22,80.56-.07,.1-.12,.2-.19,.3,.19,.06,.4,.1,.6,.16,.19,.17,.38,.3,.57,.33,.13,.02,.33-.03,.49-.04,10.21,3.02,22.08,3.81,34.49,3.72-1.15-7.76-1.65-26.55-1.5-27.95Z"/>
      <g>
        <path class="cls-2" d="M674.07,95.86c.55,1,1.07,1.93,1.55,2.81,0,3.9-1.75,9.67-4.34,15.9-7.15,9.1-18.89,16.32-27.58,25.73-27.56,29.87-28.98,93.11-85.98,83.13,12.88,19.78-1.99,66.09,9.03,86.93,29.45-1.43,55.3-15.75,79.81-41.33s63.19-88.78,59.38-89.79c.92-3.03-6.88-39.03-5.29-45.54,1.36-2.96,10.9-19.54,13.36-23.14,1.41,.35,2.78,.73,4.04,1.18,6.14,1.86,14.88,4.28,17.95,4.26,5.8-.01,5.6-4.63,5.39-9.29-.11-2.46,.23-4.81,2.69-5.95,1.26-.57,2.01-.46,2.99-1.5,.61-.69,.52-1.67,.35-2.47-.32-1.45-1.75-1.64,.12-1.63,1.48,.03,2.44-1.99,2.35-3.39-.14-2.07-2.53-2.65,.8-5.29,.86-.68,1.89-1.1,2.72-1.82,.9-.77,.65-2.02,.06-2.91-1.81-2.62-3.94-4.98-5.48-7.79-.41-.88-.77-1.75-1.08-2.51-.11-.37-.19-.74-.26-1.11,1.63,.31,4.27-1.38,5.19-3.24-1.53,1.04-3.62,1.19-5.38,.41,.08-1.87,.51-3.8,.93-5.83,.77-3.76,.92-7.65,.59-11.49-.15-2.01-1.32-7.44-3.93-13.57-62.05,6.5-64.92,56.84-69.98,59.24Z"/>
        <path class="cls-5" d="M670.81,95.01c-2.8-4.98-7.58-14.99-8.18-26.15-.51-9.6,1.15-14.66,2.62-17.21,.25-.43,.52-.83,.79-1.17-3.13-.3-10.13-1.99-12.2-11.09-1.34-5.97,.48-14.06,4.86-21.65,5.64-9.76,16.56-20.13,28.79-17.25,4.34,1.02,7.26,3.71,9.12,6.26,.07-.76,.22-1.45,.45-2.07,.84-2.29,3.27-2.97,4.65-2.23,.79,.42,1.43,1.46,.67,3.02-.49,1-.88,2.23-1.16,3.65,1.07-1.41,2.4-2.55,3.72-3.15,1.75-.79,3.44-.16,4.29,.77,1.14,1.26,.7,2.97-1.11,3.57-.91,.3-1.88,.77-2.92,1.41,7.63-.57,18.97-.66,28.61,7.3,5.84,4.82,12.17,12.08,12.89,21.01l.04,.53-.53,.11c-14.61,11.74-26.97,12.56-32.21,26.59l-1.12-.32c-.04-3.68-3.4-5.18-4.95-5.92-2.49-1.19-8.3-.53-9.99,5.41-2.55,8.99,2.94,19.26,2.94,19.26,0,0-16.73,18.61-23.27,17.61l-6.71-8.13-.09-.16Z"/>
        <path class="cls-11" d="M709.23,6.75c1.14,1.26,.7,2.97-1.11,3.57-.91,.3-1.88,.77-2.92,1.41,.43-.03-10.99,31.27-40.57,41.14,.21-.46,.42-.87,.62-1.22,.1-.18,.22-.32,.33-.49,.08-.05,.17-.07,.25-.12,39.71-25.62,30.52-44.65,30.78-44.29,.07-.76,.22-1.45,.45-2.07,.84-2.29,3.27-2.97,4.65-2.23,.79,.42,1.43,1.46,.67,3.02-.49,1-.88,2.23-1.16,3.65,1.07-1.41,2.4-2.55,3.72-3.15,1.75-.78,3.45-.15,4.29,.78Z"/>
        <path class="cls-11" d="M752.97,65.61s-5.24,3.08-12.86,1.81c-5.33-.89,7.45,8.92,12.86-1.81Z"/>
        <path class="cls-8" d="M734.99,115.82s-16.19-1.6-28.78-8.52c7.27,1.79,16.96,5.11,28.78,8.52Z"/>
        <path class="cls-3" d="M730.73,97.11c-9.79-.26-16.16-13.72-9.43-22.16,6.72-8.43,15.74,22.32,9.43,22.16Z"/>
        <path class="cls-4" d="M702.65,152.24c-1.94-8.61-21.75-13.52-34.24-2.91-6.59,5.6-15.2,21.38-21.85,24.7-14.45,7.22-16.73,1.87-22.34-3.79-6.1,10.81-12.92,24.3-17.09,35.61,5.11,6.47,33.11,39.23,51.31,46.08,2-3.63,25.39-28.4,25.42-28.46,13.63,2.61,32.45-7.7,32.81-23.58,.08-5.83-10.74-37.26-14.02-47.65Z"/>
      </g>
      <path class="cls-9" d="M578.14,223.91c-9.03,1.9-11.4-.95-30.88-3.09-3.76-.41-29.99-7.32-52.84-1.27-21.82,5.78-29.87,15.9-34.67,24.34-26.39,3.55-64.13,11.67-87.85,17.12-1.89,.43-19.73,6.22-34.42,10.87-5.38-.79-11.77-2.09-18.39-3.49-5.38,15.65-1.83,32.67,3.91,48.54,12.49,.78,26.29,1.41,32.7,1.22-.05-.2-.07-.38-.12-.58,1.08,.19,2.14,.41,3.26,.58,26.74,3.13,179.7,4.37,202.56-1.45,13.2-3.35,24.13-6.04,32.88-11.56,3.05-25.84-12.03-82.1-16.14-81.23Z"/>
      <path class="cls-2" d="M319.09,268.39c-11.66-2.46-24.02-5.25-32.87-6.19-43.45-3.96-80.97,25.67-122.44,23.69-12.84,0-21.73-12.83-32.59-12.83-11.85-.98-18.76,13.82-25.68,21.72,0,0-44.83,10.01-47.26,15.92-2.3,5.6,5.76,4.74,8.73,6.71,26.18-2.01,50.39-2.88,76.06-2.88,53.32-.98,107.64-3.94,160.95,.99,4.66,.44,11.6,.96,19.01,1.42-5.74-15.88-9.28-32.9-3.91-48.55Z"/>
      <path class="cls-7" d="M656.53,242.67c-.12,0-.23-.03-.34-.09-17.94-9.92-46.92-41.15-47.21-41.47-.27-.29-.25-.74,.04-1.01s.74-.25,1.01,.04c.29,.31,29.11,31.38,46.85,41.19,.34,.19,.47,.62,.28,.97-.14,.24-.38,.37-.63,.37Z"/>
      <path class="cls-2" d="M832.45,304.6l-1.12-.92c-8.43-5.16-28.01-3.52-44.74-2.92,5.14-2.61-86.84-5.25-95.44-7.38-1.34-.32-.63-15.18-2.11-15.41,1.17-17.51,15.97-87.53,12.15-116.77-1.43-10.93-26.13-21.85-39.16,5.78,.94,17.16-11.67,101.1-4.87,138.55,.41,0,.81,.02,1.22,.01,.93,4.17,1.91,7.17,2.86,8.51-.07,.1-.12,.2-.19,.3,.19,.06,.4,.1,.6,.16,.19,.17,.38,.3,.57,.33,.13,.02,.33-.03,.49-.04,31.45,9.3,78.65-2.58,108.67,4.05,0,0,47.53,2.23,47.29-1.08l.29-.56c3.48-1.43,18.12-8.73,18.19-10.18,.09-1.54-1.82-2.24-4.7-2.43Z"/>
    </g>
  </g>
</svg>