<?xml version="1.0" encoding="utf-8"?>
<!-- Generator: Adobe Illustrator 26.5.0, SVG Export Plug-In . SVG Version: 6.00 Build 0)  -->
<svg version="1.1" id="Layer_1" xmlns="http://www.w3.org/2000/svg" xmlns:xlink="http://www.w3.org/1999/xlink" x="0px" y="0px"
	 viewBox="0 0 250 104.7" style="enable-background:new 0 0 250 104.7;" xml:space="preserve">
<style type="text/css">
	.st0{fill:#B2BCC4;}
	.st1{fill:url(#SVGID_1_);}
	.st2{fill:url(#SVGID_00000158723566733237290860000006218213405808820364_);}
	.st3{fill:#F7B882;}
	.st4{fill:#905423;}
	.st5{fill:#46260F;}
	.st6{fill:#D09A6F;}
	.st7{fill:#F5B080;}
	.st8{fill:#FFFFFF;}
	.st9{fill:#355775;}
	.st10{fill:#D1E5FF;}
</style>
<g>
	<g>
		<path class="st0" d="M249.4,96.9c0-4.3-55.8-7.8-124.7-7.8S0,92.6,0,96.9s55.8,7.8,124.7,7.8S249.4,101.2,249.4,96.9z"/>
		<g>
			
				<linearGradient id="SVGID_1_" gradientUnits="userSpaceOnUse" x1="382.9624" y1="29.9205" x2="387.2892" y2="37.6452" gradientTransform="matrix(1 0 0 -1 -172.5 121)">
				<stop  offset="0" style="stop-color:#F8A164"/>
				<stop  offset="0.1" style="stop-color:#F8A469"/>
				<stop  offset="0.63" style="stop-color:#F7B37B"/>
				<stop  offset="1" style="stop-color:#F7B882"/>
			</linearGradient>
			<path class="st1" d="M220.9,92.1c-4.2-1.2-8.8-1.3-13.7-1.8c-1.6-0.2-7.8-1.9-10.2-2.5c-0.3-0.1-0.9-0.1-1.2-0.2c0,0-0.1,4.1,0,5
				c15.1,1.7,24.7,1.6,28.4,1.4c2.2-0.1,1.1-0.4,1.1-0.6C225.2,92.9,220.9,92.1,220.9,92.1L220.9,92.1z"/>
			
				<linearGradient id="SVGID_00000117639897607220527430000015629425796834174131_" gradientUnits="userSpaceOnUse" x1="354.2648" y1="41.9909" x2="337.8578" y2="41.0534" gradientTransform="matrix(1 0 0 -1 -172.5 121)">
				<stop  offset="0" style="stop-color:#F8A164"/>
				<stop  offset="0.1" style="stop-color:#F8A469"/>
				<stop  offset="0.63" style="stop-color:#F7B37B"/>
				<stop  offset="1" style="stop-color:#F7B882"/>
			</linearGradient>
			<path style="fill:url(#SVGID_00000117639897607220527430000015629425796834174131_);" d="M186.4,87.5c-0.8,0.4-1.6-0.1-2-0.1
				c-0.2-1.9,0.5-10,1.6-15.6c0,0.8,0.3-7-0.2-9.8c-4.2,0.4-10.7,3-11.3,9.3c-0.7,8.3,0.8,21,2.1,22.9c0,0,0,0.1-0.1,0.1
				c0.1,0,0.1,0,0.2,0c0.1,0,0.1,0.1,0.2,0.1h0.1c2.9,0.9,6.3,1.1,9.8,1.1C186.5,93.2,186.3,87.9,186.4,87.5L186.4,87.5z"/>
			<g>
				<path class="st3" d="M191.5,35.9c0.2,0.3,0.3,0.5,0.4,0.8c0,1.1-0.5,2.8-1.2,4.5c-2,2.6-5.4,4.6-7.8,7.3
					c-7.8,8.5-8.2,26.5-24.4,23.6c3.7,5.6-0.6,18.8,2.6,24.7c8.4-0.4,15.7-4.5,22.7-11.7c7-7.3,17.9-25.2,16.9-25.5
					c0.3-0.9-1.9-11.1-1.5-12.9c0.4-0.8,3.1-5.5,3.8-6.6c0.4,0.1,0.8,0.2,1.1,0.3c1.7,0.5,4.2,1.2,5.1,1.2c1.6,0,1.6-1.3,1.5-2.6
					c0-0.7,0.1-1.4,0.8-1.7c0.4-0.2,0.6-0.1,0.9-0.4c0.2-0.2,0.1-0.5,0.1-0.7c-0.1-0.4-0.5-0.5,0-0.5c0.4,0,0.7-0.6,0.7-1
					c0-0.6-0.7-0.8,0.2-1.5c0.2-0.2,0.5-0.3,0.8-0.5s0.2-0.6,0-0.8c-0.5-0.7-1.1-1.4-1.6-2.2c-0.1-0.2-0.2-0.5-0.3-0.7
					c0-0.1-0.1-0.2-0.1-0.3c0.5,0.1,1.2-0.4,1.5-0.9c-0.4,0.3-1,0.3-1.5,0.1c0-0.5,0.1-1.1,0.3-1.7c0.2-1.1,0.3-2.2,0.2-3.3
					c0-0.6-0.4-2.1-1.1-3.9C193.8,20.9,192.9,35.2,191.5,35.9L191.5,35.9z"/>
				<path class="st4" d="M190.6,35.6c-0.8-1.4-2.1-4.3-2.3-7.4c-0.1-2.7,0.3-4.2,0.7-4.9c0.1-0.1,0.1-0.2,0.2-0.3
					c-0.9-0.1-2.9-0.6-3.5-3.1c-0.4-1.7,0.1-4,1.4-6.1c1.6-2.8,4.7-5.7,8.2-4.9c1.2,0.3,2.1,1.1,2.6,1.8c0-0.2,0.1-0.4,0.1-0.6
					c0.2-0.6,0.9-0.8,1.3-0.6c0.2,0.1,0.4,0.4,0.2,0.9c-0.1,0.3-0.2,0.6-0.3,1c0.3-0.4,0.7-0.7,1.1-0.9c0.5-0.2,1-0.1,1.2,0.2
					c0.3,0.4,0.2,0.8-0.3,1c-0.3,0.1-0.5,0.2-0.8,0.4c2.2-0.2,5.4-0.2,8.1,2.1c1.7,1.4,3.5,3.4,3.7,6v0.1h-0.1
					c-4.1,3.3-7.7,3.6-9.1,7.5l-0.3-0.1c0-1.1-1-1.5-1.4-1.7c-0.7-0.3-2.4-0.1-2.8,1.5c-0.7,2.5,0.8,5.5,0.8,5.5s-4.8,5.3-6.6,5
					L190.6,35.6L190.6,35.6L190.6,35.6z"/>
				<path class="st5" d="M201.5,10.5c0.3,0.4,0.2,0.8-0.3,1c-0.3,0.1-0.5,0.2-0.8,0.4c0.1,0-3.1,8.9-11.5,11.7
					c0.1-0.1,0.1-0.2,0.2-0.4c0-0.1,0.1-0.1,0.1-0.1h0.1c11.3-7.3,8.7-12.7,8.7-12.6c0-0.2,0.1-0.4,0.1-0.6c0.2-0.6,0.9-0.8,1.3-0.6
					c0.2,0.1,0.4,0.4,0.2,0.9c-0.1,0.3-0.2,0.6-0.3,1c0.3-0.4,0.7-0.7,1.1-0.9C200.8,10.1,201.3,10.3,201.5,10.5L201.5,10.5z"/>
				<path class="st5" d="M213.9,27.2c0,0-1.5,0.9-3.6,0.5C208.8,27.5,212.4,30.3,213.9,27.2z"/>
				<path class="st6" d="M208.8,41.5c0,0-4.6-0.5-8.2-2.4C202.7,39.6,205.4,40.5,208.8,41.5z"/>
				<path class="st7" d="M207.6,36.2c-2.8-0.1-4.6-3.9-2.7-6.3C206.8,27.5,209.4,36.2,207.6,36.2z"/>
				<path class="st8" d="M199.6,51.9c-0.6-2.5-6.2-3.8-9.7-0.8c-1.9,1.6-4.3,6.1-6.2,7c-4.1,2-4.8,0.5-6.4-1.1
					c-1.7,3.1-3.7,6.9-4.9,10.1c1.4,1.8,9.4,11.1,14.6,13.1c0.6-1,7.2-8.1,7.2-8.1c3.9,0.7,9.2-2.2,9.3-6.7
					C203.6,63.8,200.6,54.8,199.6,51.9L199.6,51.9z"/>
			</g>
			<path class="st9" d="M164.2,72.2c-2.6,0.5-3.2-0.3-8.8-0.9c-1.1-0.1-8.5-2.1-15-0.4c-6.2,1.6-8.5,4.5-9.9,6.9
				c-7.5,1-18.2,3.3-25,4.9c-0.5,0.1-5.6,1.8-9.8,3.1c-1.5-0.2-3.3-0.6-5.2-1c-1.5,4.5-0.5,9.3,1.1,13.8c3.6,0.2,7.5,0.4,9.3,0.4
				c0-0.1,0-0.1,0-0.2c0.3,0,0.6,0.1,0.9,0.2c7.6,0.9,51,1.2,57.5-0.4c3.8-1,6.9-1.7,9.3-3.3C169.7,88,165.4,72,164.2,72.2z"/>
			<path class="st3" d="M90.7,84.9c-3.3-0.7-6.8-1.5-9.3-1.8c-12.3-1.1-23,7.3-34.8,6.7c-3.7,0-6.2-3.6-9.3-3.6
				c-3.4-0.3-5.3,3.9-7.3,6.2c0,0-12.7,2.8-13.4,4.5c-0.6,1.6,1.6,1.4,2.5,1.9c7.4-0.6,14.3-0.8,21.6-0.8
				c15.2-0.3,30.6-1.1,45.7,0.3c1.3,0.1,3.3,0.3,5.4,0.4C90.1,94.1,89.1,89.3,90.7,84.9L90.7,84.9z"/>
			<path class="st10" d="M186.5,77.6h-0.1c-5.1-2.8-13.3-11.7-13.4-11.8c-0.1-0.1-0.1-0.2,0-0.3c0.1-0.1,0.2-0.1,0.3,0
				s8.3,8.9,13.3,11.7c0.1,0,0.1,0.2,0.1,0.3C186.7,77.5,186.6,77.6,186.5,77.6L186.5,77.6z"/>
			<path class="st3" d="M236.5,95.1l-0.3-0.3c-2.4-1.5-8-1-12.7-0.8c1.5-0.7-24.7-1.5-27.1-2.1c-0.4-0.1-0.2-4.3-0.6-4.4
				c0.3-5,4.5-24.9,3.4-33.2c-0.4-3.1-7.4-6.2-11.1,1.6c0.3,4.9-3.3,28.7-1.4,39.4c0.1,0,0.2,0,0.4,0c0.3,1.2,0.5,2,0.8,2.4
				c0,0,0,0.1-0.1,0.1c0.1,0,0.1,0,0.2,0c0.1,0,0.1,0.1,0.2,0.1h0.1c8.9,2.6,22.3-0.7,30.9,1.1c0,0,13.5,0.6,13.4-0.3l0.1-0.2
				c1-0.4,5.1-2.5,5.2-2.9C237.9,95.4,237.3,95.2,236.5,95.1L236.5,95.1z"/>
		</g>
	</g>
</g>
</svg>
