<?xml version="1.0" encoding="utf-8"?>
<!-- Generator: Adobe Illustrator 26.5.0, SVG Export Plug-In . SVG Version: 6.00 Build 0)  -->
<svg version="1.1" id="Layer_1" xmlns="http://www.w3.org/2000/svg" xmlns:xlink="http://www.w3.org/1999/xlink" x="0px" y="0px"
	 viewBox="0 0 250 400" style="enable-background:new 0 0 250 400;" xml:space="preserve">
<style type="text/css">
	.st0{enable-background:new    ;}
	.st1{fill:#355775;}
	.st2{fill:#B2BCC4;}
	.st3{fill:url(#SVGID_1_);}
	.st4{fill:url(#SVGID_00000080929207817828041040000016428503660705334429_);}
	.st5{fill:#F7B882;}
	.st6{fill:#905423;}
	.st7{fill:#46260F;}
	.st8{fill:#D09A6F;}
	.st9{fill:#F5B080;}
	.st10{fill:#FFFFFF;}
	.st11{fill:#D1E5FF;}
</style>
<g>
	<g class="st0">
		<path class="st1" d="M74.21,359.89c0,2.03-1.67,3.32-4.32,3.32c-3.11,0.01-4.87-1.9-3.94-3.34c0.24-0.38,0.44-0.36,0.51,0.07
			c0.16,1.26,0.92,3.08,3.43,3.07c2.13,0.02,3.08-1.11,3.08-2.93c0-3.78-7.18-4.16-7.18-8.91c0-1.97,1.61-3.22,4.17-3.22
			c3-0.01,4.46,1.9,3.53,3.34c-0.24,0.38-0.44,0.36-0.51-0.07c-0.16-1.26-0.62-3.07-3.01-3.07c-2.04,0-2.93,1.16-2.93,3.01
			C67.02,355.04,74.21,355.61,74.21,359.89z"/>
		<path class="st1" d="M80.95,363.21c-1.01,0-1.93-0.39-2.57-1.07v5.42c0,0.29-0.22,0.52-0.52,0.52h-0.18
			c-0.29,0-0.52-0.22-0.52-0.52v-15.09c0-0.29,0.22-0.52,0.52-0.52h0.18c0.29,0,0.52,0.22,0.52,0.52v4.84
			c0-0.01,0.01-0.02,0.01-0.03c1.05-3.39,2.5-5.52,3.74-5.52l0.03,0.79c-1.32,0-2.73,2.07-3.78,5.46v3.17
			c0.47,1.13,1.46,1.84,2.57,1.84c1.87,0,3.06-2.22,3.06-5.74c0-2.9-0.71-4.73-1.84-4.73l-0.03-0.8c1.91,0,3.12,2.12,3.12,5.52v0.02
			C85.24,360.92,83.59,363.21,80.95,363.21z"/>
		<path class="st1" d="M93.37,351.75l0.03,0.79c-1.31,0-2.73,2.07-3.78,5.46v4.38c0,0.29-0.22,0.52-0.52,0.52h-0.18
			c-0.29,0-0.52-0.22-0.52-0.52v-13.92c0-0.29,0.22-0.52,0.52-0.52h0.18c0.29,0,0.52,0.22,0.52,0.52v8.84
			c0-0.01,0.01-0.02,0.01-0.03C90.68,353.88,92.13,351.75,93.37,351.75z M93.37,351.74c1.91,0,3.1,2.13,3.1,5.54v5.11
			c0,0.29-0.22,0.52-0.52,0.52h-0.18c-0.29,0-0.52-0.22-0.52-0.52v-5.11c0-2.91-0.72-4.75-1.85-4.75L93.37,351.74z"/>
		<path class="st1" d="M100.64,348.79c0-0.34,0.28-0.63,0.63-0.63c0.34,0,0.63,0.28,0.63,0.63s-0.28,0.63-0.63,0.63
			C100.93,349.42,100.64,349.14,100.64,348.79z M100.66,352.46c0-0.29,0.26-0.52,0.61-0.52c0.35,0,0.61,0.22,0.61,0.52v9.92
			c0,0.29-0.25,0.52-0.61,0.52c-0.34,0-0.61-0.22-0.61-0.52V352.46z"/>
		<path class="st1" d="M107.28,357.27c1.05-3.39,2.5-5.52,3.74-5.52l0.03,0.79c-1.31,0-2.72,2.06-3.77,5.42v4.42
			c0,0.29-0.25,0.52-0.61,0.52c-0.34,0-0.61-0.22-0.61-0.52v-9.92c0-0.29,0.26-0.52,0.61-0.52c0.35,0,0.61,0.22,0.61,0.52V357.27z
			 M111.02,351.74c1.91,0,3.1,2.13,3.1,5.54v5.11c0,0.29-0.22,0.52-0.52,0.52h-0.18c-0.29,0-0.52-0.22-0.52-0.52v-5.11
			c0-2.91-0.72-4.75-1.85-4.75L111.02,351.74z"/>
		<path class="st1" d="M125.12,362.9h-0.22c-0.27,0-0.47-0.14-0.5-0.33c-0.3-1.63-2.61-3.75-4.52-5.92c-1.27,0.49-2.4,1.12-2.4,2.59
			c0,1.43,1.19,2.33,2.98,2.44c0.31,0.02,0.51,0.22,0.51,0.52v0.17c0,0.34-0.21,0.55-0.56,0.52c-1.88-0.16-3.14-1.53-3.14-3.64
			c0-1.59,1.16-2.27,2.41-2.81c-1.2-1.39-2.23-2.79-2.41-4.07c-0.03-0.23,0.21-0.41,0.53-0.41h0.22c0.27,0,0.47,0.14,0.5,0.33
			c0.29,1.64,2.51,3.81,4.39,5.95c1.32-0.51,2.52-1.12,2.52-2.64c0-1.43-1.19-2.33-2.98-2.44c-0.31-0.02-0.51-0.22-0.51-0.52v-0.17
			c0-0.34,0.21-0.55,0.56-0.52c1.88,0.16,3.14,1.53,3.14,3.64c0,1.64-1.23,2.32-2.53,2.86c1.25,1.43,2.33,2.83,2.53,4.04
			C125.68,362.72,125.43,362.9,125.12,362.9z"/>
		<path class="st1" d="M140.39,363.21c-1.01,0-1.93-0.39-2.57-1.07v5.42c0,0.29-0.22,0.52-0.52,0.52h-0.18
			c-0.29,0-0.52-0.22-0.52-0.52v-15.09c0-0.29,0.22-0.52,0.52-0.52h0.18c0.29,0,0.52,0.22,0.52,0.52v4.84
			c0-0.01,0.01-0.02,0.01-0.03c1.05-3.39,2.5-5.52,3.74-5.52l0.03,0.79c-1.31,0-2.73,2.07-3.78,5.46v3.17
			c0.47,1.13,1.46,1.84,2.57,1.84c1.87,0,3.06-2.22,3.06-5.74c0-2.9-0.71-4.73-1.84-4.73l-0.03-0.8c1.91,0,3.12,2.12,3.12,5.52v0.02
			C144.68,360.92,143.03,363.21,140.39,363.21z"/>
		<path class="st1" d="M147.34,357.47c0-4.25,2.25-5.74,5.02-5.74c2.76,0,5.01,1.49,5.01,5.74c0,4.24-2.25,5.74-5.01,5.74
			C149.59,363.21,147.34,361.71,147.34,357.47z M156.13,357.47c0-3.82-1.67-5.53-3.76-5.53c-2.11,0-3.77,1.71-3.77,5.53
			c0,3.82,1.66,5.53,3.77,5.53C154.46,363.01,156.13,361.3,156.13,357.47z"/>
		<path class="st1" d="M168.47,360.2c0,1.84-1.68,3-4.36,3c-3.11,0.01-4.76-1.9-3.83-3.34c0.24-0.38,0.45-0.36,0.51,0.07
			c0.16,1.26,0.82,3.08,3.33,3.07c1.91-0.01,3.12-0.88,3.12-2.27c0-3.42-7.18-2.53-7.18-6.59c0-1.49,1.48-2.42,4.16-2.41
			c3.11-0.01,4.46,0.89,3.53,2.33c-0.24,0.38-0.45,0.36-0.51-0.07c-0.16-1.26-1.33-2.06-3.03-2.05c-1.91-0.01-2.91,0.76-2.91,2
			C161.29,357.02,168.47,356.22,168.47,360.2z"/>
		<path class="st1" d="M179.63,360.86c0,1.45-1.74,2.35-3.52,2.35c-2.93,0-4.98-1.51-4.98-5.75c0-4.25,2.04-5.73,4.82-5.73
			c2.14-0.01,3.51,1.07,3.51,2.24c0.01,3.19-5.69-0.01-6.07,1.97C172.95,358.21,179.63,358.12,179.63,360.86z M178.51,360.76
			c0-2.47-5.74-2.49-5.33-4.82c0.37-2.13,5.91,0.69,5.3-1.98c-0.32-1.04-1.04-2.03-2.54-2.02c-2.11,0-3.6,1.7-3.6,5.52
			s1.49,5.54,3.76,5.54C177.9,363.01,178.51,361.78,178.51,360.76z"/>
	</g>
	<g>
		<path class="st2" d="M249.41,325.92c0-4.32-55.83-7.83-124.71-7.83S0,321.6,0,325.92s55.83,7.83,124.71,7.83
			S249.41,330.25,249.41,325.92z"/>
		<g>
			
				<linearGradient id="SVGID_1_" gradientUnits="userSpaceOnUse" x1="382.9019" y1="258.9544" x2="387.2288" y2="266.6791" gradientTransform="matrix(1 0 0 -1 -172.5 579)">
				<stop  offset="0" style="stop-color:#F8A164"/>
				<stop  offset="0.1" style="stop-color:#F8A469"/>
				<stop  offset="0.63" style="stop-color:#F7B37B"/>
				<stop  offset="1" style="stop-color:#F7B882"/>
			</linearGradient>
			<path class="st3" d="M220.87,321.14c-4.17-1.17-8.84-1.26-13.7-1.84c-1.61-0.19-7.76-1.88-10.21-2.49
				c-0.31-0.07-0.9-0.15-1.24-0.21c0,0-0.13,4.14-0.01,4.99c15.07,1.71,24.74,1.61,28.41,1.42c2.23-0.14,1.05-0.41,1.06-0.64
				C225.21,321.93,220.87,321.14,220.87,321.14L220.87,321.14z"/>
			
				<linearGradient id="SVGID_00000119803862154027936410000000386907893444605098_" gradientUnits="userSpaceOnUse" x1="354.2604" y1="271.0675" x2="337.8535" y2="270.13" gradientTransform="matrix(1 0 0 -1 -172.5 579)">
				<stop  offset="0" style="stop-color:#F8A164"/>
				<stop  offset="0.1" style="stop-color:#F8A469"/>
				<stop  offset="0.63" style="stop-color:#F7B37B"/>
				<stop  offset="1" style="stop-color:#F7B882"/>
			</linearGradient>
			<path style="fill:url(#SVGID_00000119803862154027936410000000386907893444605098_);" d="M186.39,316.48
				c-0.82,0.41-1.57-0.11-1.97-0.11c-0.2-1.85,0.51-10.05,1.62-15.61c-0.04,0.79,0.31-7.01-0.22-9.83
				c-4.16,0.36-10.72,3.03-11.27,9.33c-0.72,8.33,0.75,21.05,2.05,22.89c-0.02,0.03-0.03,0.06-0.05,0.09
				c0.05,0.02,0.11,0.03,0.17,0.05c0.05,0.05,0.11,0.09,0.16,0.09c0.04,0.01,0.09-0.01,0.14-0.01c2.9,0.86,6.27,1.08,9.8,1.06
				C186.48,322.21,186.34,316.87,186.39,316.48L186.39,316.48z"/>
			<g>
				<path class="st5" d="M191.51,264.85c0.16,0.28,0.3,0.55,0.44,0.8c0,1.11-0.5,2.75-1.23,4.52c-2.03,2.59-5.37,4.64-7.84,7.31
					c-7.83,8.49-8.23,26.45-24.43,23.62c3.66,5.62-0.57,18.78,2.57,24.7c8.37-0.41,15.71-4.47,22.67-11.74
					c6.96-7.27,17.95-25.22,16.87-25.51c0.26-0.86-1.95-11.09-1.5-12.94c0.39-0.84,3.1-5.55,3.8-6.57c0.4,0.1,0.79,0.21,1.15,0.34
					c1.74,0.53,4.23,1.22,5.1,1.21c1.65,0,1.59-1.32,1.53-2.64c-0.03-0.7,0.07-1.37,0.76-1.69c0.36-0.16,0.57-0.13,0.85-0.43
					c0.17-0.2,0.15-0.47,0.1-0.7c-0.09-0.41-0.5-0.47,0.03-0.46c0.42,0.01,0.69-0.57,0.67-0.96c-0.04-0.59-0.72-0.75,0.23-1.5
					c0.24-0.19,0.54-0.31,0.77-0.52c0.26-0.22,0.18-0.57,0.02-0.83c-0.51-0.74-1.12-1.41-1.56-2.21c-0.12-0.25-0.22-0.5-0.31-0.71
					c-0.03-0.11-0.05-0.21-0.07-0.32c0.46,0.09,1.21-0.39,1.47-0.92c-0.43,0.3-1.03,0.34-1.53,0.12c0.02-0.53,0.14-1.08,0.26-1.66
					c0.22-1.07,0.26-2.17,0.17-3.26c-0.04-0.57-0.38-2.11-1.12-3.86C193.76,249.86,192.94,264.16,191.51,264.85L191.51,264.85z"/>
				<path class="st6" d="M190.58,264.61c-0.8-1.41-2.15-4.26-2.32-7.43c-0.14-2.73,0.33-4.16,0.74-4.89
					c0.07-0.12,0.15-0.24,0.22-0.33c-0.89-0.09-2.88-0.57-3.47-3.15c-0.38-1.7,0.14-3.99,1.38-6.15c1.6-2.77,4.7-5.72,8.18-4.9
					c1.23,0.29,2.06,1.05,2.59,1.78c0.02-0.22,0.06-0.41,0.13-0.59c0.24-0.65,0.93-0.84,1.32-0.63c0.22,0.12,0.41,0.41,0.19,0.86
					c-0.14,0.28-0.25,0.63-0.33,1.04c0.3-0.4,0.68-0.72,1.06-0.89c0.5-0.22,0.98-0.05,1.22,0.22c0.32,0.36,0.2,0.84-0.32,1.01
					c-0.26,0.09-0.53,0.22-0.83,0.4c2.17-0.16,5.39-0.19,8.13,2.07c1.66,1.37,3.46,3.43,3.66,5.97l0.01,0.15l-0.15,0.03
					c-4.15,3.34-7.66,3.57-9.15,7.55l-0.32-0.09c-0.01-1.05-0.97-1.47-1.41-1.68c-0.71-0.34-2.36-0.15-2.84,1.54
					c-0.72,2.55,0.84,5.47,0.84,5.47s-4.75,5.29-6.61,5l-1.91-2.31L190.58,264.61L190.58,264.61z"/>
				<path class="st7" d="M201.49,239.53c0.32,0.36,0.2,0.84-0.32,1.01c-0.26,0.09-0.53,0.22-0.83,0.4
					c0.12-0.01-3.12,8.88-11.53,11.69c0.06-0.13,0.12-0.25,0.18-0.35c0.03-0.05,0.06-0.09,0.09-0.14c0.02-0.01,0.05-0.02,0.07-0.03
					c11.28-7.28,8.67-12.69,8.74-12.58c0.02-0.22,0.06-0.41,0.13-0.59c0.24-0.65,0.93-0.84,1.32-0.63c0.22,0.12,0.41,0.41,0.19,0.86
					c-0.14,0.28-0.25,0.63-0.33,1.04c0.3-0.4,0.68-0.72,1.06-0.89C200.77,239.09,201.26,239.27,201.49,239.53L201.49,239.53z"/>
				<path class="st7" d="M213.92,256.25c0,0-1.49,0.88-3.65,0.51C208.75,256.51,212.38,259.3,213.92,256.25z"/>
				<path class="st8" d="M208.81,270.52c0,0-4.6-0.45-8.18-2.42C202.7,268.61,205.45,269.55,208.81,270.52z"/>
				<path class="st9" d="M207.6,265.2c-2.78-0.07-4.59-3.9-2.68-6.3C206.83,256.51,209.4,265.25,207.6,265.2z"/>
				<path class="st10" d="M199.62,280.86c-0.55-2.45-6.18-3.84-9.73-0.83c-1.87,1.59-4.32,6.07-6.21,7.02
					c-4.11,2.05-4.75,0.53-6.35-1.08c-1.73,3.07-3.67,6.9-4.86,10.12c1.45,1.84,9.41,11.15,14.58,13.09
					c0.57-1.03,7.21-8.07,7.22-8.09c3.87,0.74,9.22-2.19,9.32-6.7C203.63,292.75,200.56,283.82,199.62,280.86L199.62,280.86z"/>
			</g>
			<path class="st1" d="M164.25,301.23c-2.57,0.54-3.24-0.27-8.77-0.88c-1.07-0.12-8.52-2.08-15.01-0.36
				c-6.2,1.64-8.49,4.52-9.85,6.92c-7.5,1.01-18.22,3.32-24.96,4.86c-0.54,0.12-5.61,1.77-9.78,3.09c-1.53-0.22-3.34-0.59-5.22-0.99
				c-1.53,4.45-0.52,9.28,1.11,13.79c3.55,0.22,7.47,0.4,9.29,0.35c-0.01-0.06-0.02-0.11-0.03-0.16c0.31,0.05,0.61,0.12,0.93,0.16
				c7.6,0.89,51.05,1.24,57.55-0.41c3.75-0.95,6.86-1.72,9.34-3.28C169.7,316.96,165.42,300.98,164.25,301.23z"/>
			<path class="st5" d="M90.65,313.86c-3.31-0.7-6.82-1.49-9.34-1.76c-12.34-1.13-23,7.29-34.79,6.73c-3.65,0-6.17-3.65-9.26-3.65
				c-3.37-0.28-5.33,3.93-7.3,6.17c0,0-12.74,2.84-13.43,4.52c-0.65,1.59,1.64,1.35,2.48,1.91c7.44-0.57,14.32-0.82,21.61-0.82
				c15.15-0.28,30.58-1.12,45.73,0.28c1.32,0.12,3.3,0.27,5.4,0.4C90.13,323.14,89.13,318.31,90.65,313.86L90.65,313.86z"/>
			<path class="st11" d="M186.52,306.56c-0.03,0-0.07-0.01-0.1-0.03c-5.1-2.82-13.33-11.69-13.41-11.78
				c-0.08-0.08-0.07-0.21,0.01-0.29c0.08-0.08,0.21-0.07,0.29,0.01c0.08,0.09,8.27,8.92,13.31,11.7c0.1,0.05,0.13,0.18,0.08,0.28
				C186.66,306.52,186.59,306.56,186.52,306.56L186.52,306.56z"/>
			<path class="st5" d="M236.5,324.15l-0.32-0.26c-2.39-1.47-7.96-1-12.71-0.83c1.46-0.74-24.67-1.49-27.11-2.1
				c-0.38-0.09-0.18-4.31-0.6-4.38c0.33-4.97,4.54-24.87,3.45-33.17c-0.41-3.11-7.42-6.21-11.13,1.64
				c0.27,4.88-3.32,28.72-1.38,39.36c0.12,0,0.23,0.01,0.35,0c0.26,1.18,0.54,2.04,0.81,2.42c-0.02,0.03-0.03,0.06-0.05,0.09
				c0.05,0.02,0.11,0.03,0.17,0.05c0.05,0.05,0.11,0.09,0.16,0.09c0.04,0.01,0.09-0.01,0.14-0.01c8.94,2.64,22.34-0.73,30.87,1.15
				c0,0,13.5,0.63,13.44-0.31l0.08-0.16c0.99-0.41,5.15-2.48,5.17-2.89C237.86,324.4,237.32,324.2,236.5,324.15L236.5,324.15z"/>
		</g>
	</g>
</g>
</svg>
