<?xml version="1.0" encoding="utf-8"?>
<!-- Generator: Adobe Illustrator 26.5.0, SVG Export Plug-In . SVG Version: 6.00 Build 0)  -->
<svg version="1.1" id="Layer_1" xmlns="http://www.w3.org/2000/svg" xmlns:xlink="http://www.w3.org/1999/xlink" x="0px" y="0px"
	 viewBox="0 0 712.32 836.1" style="enable-background:new 0 0 712.32 836.1;" xml:space="preserve">
<style type="text/css">
	.st0{fill:#355775;}
	.st1{font-family:'FarmWaveFree-Regular';}
	.st2{font-size:85px;}
	.st3{letter-spacing:5;}
	.st4{letter-spacing:-1;}
	.st5{fill:#B2BCC4;}
	.st6{fill:#F7B882;}
	.st7{fill:#FFFFFF;}
	.st8{fill:#905423;}
	.st9{fill:#46260F;}
	.st10{fill:#D09A6F;}
	.st11{fill:#F5B080;}
	.st12{fill:#D1E5FF;}
</style>
<text transform="matrix(1 0 0 1 0 814.85)" class="st0 st1 st2 st3">Half </text>
<text transform="matrix(1 0 0 1 178.92 814.85)" class="st0 st1 st2 st4">f</text>
<text transform="matrix(1 0 0 1 206.14 814.85)" class="st0 st1 st2 st3">or</text>
<text transform="matrix(1 0 0 1 296.14 814.85)" class="st0 st1 st2">w</text>
<text transform="matrix(1 0 0 1 345.81 814.85)" class="st0 st1 st2 st3">ard bend</text>
<g>
	<ellipse class="st5" cx="356.31" cy="680.46" rx="235.03" ry="25.19"/>
	<g>
		<path class="st6" d="M576.15,315.16c0.4-1.71,0.83-6.55,0.24-12.33c-42.58-8.54-61.03,15.92-69.23,26.55
			c-0.01-0.01-0.03-0.01-0.05-0.02c-21.59-7.2-136.6-48.3-159.61-55.64c-21.21-6.77-38.84-9.83-49.55-6.58
			c-29.48,8.95-37.71,27.42-36.73,46.86c-0.2,5.01,0.33,10.46,1.77,16.45c2.19,9.06,9.67,27.24,11.14,44.5
			c3.35,39.38,14.66,79.71,19.88,97.24c6.56,22.64-0.43,44.58-1.74,67.66c-2.07,36.34,17.49,68.86,7.19,106.71
			c-2.07,7.62-9.98,23.28,1.08,29.21c11.06,5.92,20.79-4.09,30.25-0.38c9.46,3.7,46.59,10.1,45.2-0.26l-0.12-1.93
			c-1.6-6.52-12.02-4.52-15.41-6.39c-6.42-3.53-19.9-15.25-25.23-28.39c-5.1-10.76-5.67-24.21-4.91-37.94
			c2.36-4.67,6.2-9.39,6.2-9.39c-5.62,7.82-5.08,20.28-1.95,18.81l3.76-1.34c5.3-14.23,26.61-37.79,26.61-37.79
			c15.23-21.19,47.3-50.94,65.05-76.4c11.26-9.47,21.48-20.83,29.5-30.28c1.84-2.19,22.88-29.05,42.88-51.44
			c16.03-19.07,16.39-40.55,10.87-52.2c2.17-3.82,11.87-5.97,19.83-3.25c0.76,0.48,1.49,0.98,2.16,1.49
			c4.64,3.14,11.3,7.43,13.86,8.21c4.84,1.5,5.88-2.41,6.91-6.34c0.55-2.08,1.44-3.95,3.79-4.26c1.2-0.15,1.8,0.14,2.89-0.48
			c0.69-0.42,0.87-1.25,0.93-1.97c0.11-1.29-1.03-1.82,0.52-1.33c1.22,0.4,2.55-1.02,2.84-2.21c0.42-1.76-1.42-2.87,2.04-4.21
			c0.89-0.34,1.86-0.43,2.74-0.81c0.94-0.42,1.06-1.52,0.8-2.41c-0.83-2.65-1.99-5.17-2.55-7.92c-0.11-0.84-0.19-1.66-0.25-2.37
			c0.01-0.34,0.03-0.67,0.07-1c1.28,0.68,3.92-0.04,5.17-1.35c-1.54,0.47-3.32,0.05-4.59-1.06c0.55-1.54,1.41-3.04,2.29-4.61
			C574.29,321.66,575.43,318.45,576.15,315.16L576.15,315.16z M331.44,586.26c0.36-3.72,0.73-7.39,1.06-10.98
			c2.68-1.13,5.13-2.41,6.36-2.8C338.85,572.48,335.14,579.3,331.44,586.26z M421.77,471.69c-9.91,13.1-29.39,29.85-37.35,42.94
			c-4.26,7.15-22.98,37.46-27.41,40.34c-4.43,2.89-12.46,3.66-16.62,7.57c-2.77,2.59-5.2,4.38-7.33,5.68
			c0.28-4.09,0.46-8.03,0.38-11.69c-0.53-23.18-2.86-44.74,3.45-67.58c4.13-13.51,8.67-54.48,10.56-72.36
			c3.28-31.13-3.5-67.79-4.11-82.44c13.07-0.64,15.44,3.68,44.39,28.8c15.8,13.71,33.91,15.65,39.86,21.59
			c5.95,5.95,13.38,16.02,19.18,18.52c5.02,2.16,11.59,3.45,17.69,3.5C452.24,424,430.5,453.5,421.77,471.69L421.77,471.69z"/>
		<path class="st7" d="M497.82,347.95c-10.13-5.51-15.3-16.19-10.64-25.48c-13-4.55-23.06-8.4-40.94-14.71
			c-0.22,0.46-24.59,29.7-21,74.97c0.92,0.57,1.73,1.16,2.38,1.81c5.95,5.95,13.38,16.02,19.18,18.52
			c5.69,2.45,13.42,3.86,20.15,3.51c-11.41-16.93-3.45-36.48,13.57-44.73c11.45-5.55,27.21-7.3,33.5,2.3c0.95-0.3-0.04,0.28,0.9,0
			C513.72,356.35,501.85,350.15,497.82,347.95z"/>
		<path class="st0" d="M263,330.44c2.19,9.06,9.67,27.24,11.14,44.5c3.35,39.38,14.66,79.71,19.88,97.24
			c4.46,15.41,2.65,30.49,0.63,45.84c12.56,2.14,25.19,3.22,38.01,3.07c0.21-10.64,1.23-21.24,4.24-32.14
			c4.13-13.51,8.67-54.48,10.56-72.36c2.83-26.77-3.75-73.29-3.74-75.84c0.09-20.21-0.77-47.73-6.46-70.05
			c-16.6-4.55-30.38-6.27-39.31-3.57c-29.48,8.95-37.71,27.42-36.73,46.86C261.03,319.01,261.55,324.46,263,330.44L263,330.44z"/>
		<g>
			<path class="st8" d="M572.44,285.49c-5.97-9.14-15.45-12.02-21.96-13.51c1.03-0.26,1.97-0.4,2.8-0.42
				c1.66-0.03,2.48-1.34,1.85-2.69c-0.46-0.99-1.71-1.96-3.37-1.76c-1.26,0.16-2.66,0.76-3.92,1.66c0.61-1.11,1.25-2.04,1.92-2.74
				c1.05-1.1,0.78-2.14,0.23-2.69c-0.96-0.98-3.16-1.04-4.46,0.65c-0.35,0.46-0.66,0.99-0.91,1.6c-0.89-2.61-2.62-5.6-5.98-7.59
				c-9.45-5.58-21.25,0.24-28.49,6.91c-5.62,5.19-9.25,11.47-9.68,16.79c-0.64,8.13,4.76,11.36,7.29,12.42
				c-0.31,0.21-0.64,0.48-0.96,0.77c-1.89,1.74-4.59,5.53-6.65,13.67c-2.17,8.55,2.17,15.2,7.76,21.61
				c0.85,0.07,11.32,4.72,19.71,2.04c-0.26-1.65-1.42-10.31,2.61-16.48c2.94-4.51,7.97-3.55,9.73-1.91c1.1,1.02,3.51,3.14,2.59,6.22
				l0.85,0.55c8.01-10.33,18.52-7.81,33.76-13.8l0.47,0.05l0.1-0.46C579.45,298.73,576.06,291.03,572.44,285.49L572.44,285.49z"/>
			<path class="st9" d="M555.14,268.87c0.62,1.35-0.18,2.66-1.85,2.69c-0.84,0.01-1.78,0.16-2.8,0.42
				c0.36,0.09-17.29,23.22-44.51,23.76c0.29-0.33,0.57-0.61,0.84-0.86c0.13-0.13,0.26-0.21,0.4-0.32c0.09-0.02,0.16-0.01,0.24-0.04
				c39.76-11.04,37.04-29.3,37.17-28.93c0.26-0.61,0.56-1.15,0.91-1.6c1.29-1.69,3.5-1.63,4.46-0.65c0.55,0.55,0.82,1.59-0.23,2.69
				c-0.67,0.71-1.31,1.63-1.92,2.74c1.26-0.9,2.66-1.51,3.92-1.66C553.43,266.9,554.68,267.88,555.14,268.87L555.14,268.87z"/>
			<path class="st9" d="M576.32,329.3c0,0-5.17,1.21-11.19-1.83C560.92,325.35,569.02,336.85,576.32,329.3z"/>
			<path class="st10" d="M548.29,366.5c0,0-13.08-5.54-21.78-14.57C532.1,355.3,539.32,360.58,548.29,366.5L548.29,366.5z"/>
			<path class="st11" d="M549.59,349.78c-8.1-2.76-9.91-15.64-2.11-20.92C555.28,323.59,554.82,351.57,549.59,349.78z"/>
		</g>
		<path class="st12" d="M429.54,386.75h-0.05c-0.33-0.03-0.58-0.32-0.55-0.65c2.07-27.76,8.51-47.02,13.55-58.28
			c5.47-12.25,10.39-17.83,10.6-18.05c0.22-0.25,0.61-0.26,0.85-0.05c0.25,0.22,0.27,0.6,0.05,0.85
			c-0.05,0.06-5.03,5.71-10.42,17.81c-4.98,11.17-11.36,30.26-13.42,57.82C430.11,386.51,429.85,386.75,429.54,386.75L429.54,386.75
			z"/>
	</g>
</g>
</svg>
