<?xml version="1.0" encoding="utf-8"?>
<!-- Generator: Adobe Illustrator 26.5.0, SVG Export Plug-In . SVG Version: 6.00 Build 0)  -->
<svg version="1.1" id="Layer_1" xmlns="http://www.w3.org/2000/svg" xmlns:xlink="http://www.w3.org/1999/xlink" x="0px" y="0px"
	 viewBox="0 0 250 160.2" style="enable-background:new 0 0 250 160.2;" xml:space="preserve">
<style type="text/css">
	.st0{fill:#B2BCC4;}
	.st1{fill:#F7B882;}
	.st2{fill:#FFFFFF;}
	.st3{fill:#355775;}
	.st4{fill:#905423;}
	.st5{fill:#46260F;}
	.st6{fill:#D09A6F;}
	.st7{fill:#F5B080;}
	.st8{fill:#D1E5FF;}
	.st9{fill:none;}
</style>
<g>
	<g>
		<ellipse class="st0" cx="125.6" cy="151.6" rx="80.2" ry="8.6"/>
		<g>
			<path class="st1" d="M200.6,27c0.1-0.6,0.3-2.2,0.1-4.2c-14.5-2.9-20.8,5.4-23.6,9.1l0,0c-7.4-2.5-46.6-16.5-54.5-19
				c-7.2-2.3-13.2-3.4-16.9-2.2c-10.1,3.1-12.9,9.4-12.5,16c-0.1,1.7,0.1,3.6,0.6,5.6c0.8,3.1,3.3,9.3,3.8,15.2
				c1.1,13.4,5,27.2,6.8,33.2c2.2,7.7-0.2,15.2-0.6,23.1c-0.7,12.4,6,23.5,2.4,36.4c-0.7,2.6-3.4,7.9,0.4,10c3.8,2,7.1-1.4,10.3-0.1
				c3.2,1.3,15.9,3.5,15.4-0.1v-0.7c-0.6-2.2-4.1-1.5-5.3-2.2c-2.2-1.2-6.8-5.2-8.6-9.7c-1.7-3.7-1.9-8.3-1.7-13
				c0.8-1.6,2.1-3.2,2.1-3.2c-1.9,2.7-1.7,6.9-0.7,6.4l1.3-0.5c1.8-4.9,9.1-12.9,9.1-12.9c5.2-7.2,16.1-17.4,22.2-26.1
				c3.8-3.2,7.3-7.1,10.1-10.3c0.6-0.8,7.8-9.9,14.6-17.6c5.5-6.5,5.6-13.8,3.7-17.8c0.7-1.3,4.1-2,6.8-1.1c0.3,0.2,0.5,0.3,0.7,0.5
				c1.6,1.1,3.9,2.5,4.7,2.8c1.6,0.5,2-0.8,2.4-2.2c0.2-0.7,0.5-1.4,1.3-1.4c0.4-0.1,0.6,0.1,1-0.2c0.2-0.1,0.3-0.4,0.3-0.7
				c0-0.4-0.4-0.6,0.2-0.4c0.4,0.1,0.9-0.4,1-0.8c0.1-0.6-0.5-1,0.7-1.4c0.3-0.1,0.6-0.1,0.9-0.3c0.3-0.1,0.4-0.5,0.3-0.8
				c-0.3-0.9-0.7-1.8-0.9-2.7c0-0.3-0.1-0.6-0.1-0.8c0-0.1,0-0.2,0-0.3c0.4,0.2,1.3,0,1.8-0.5c-0.5,0.2-1.1,0-1.6-0.4
				c0.2-0.5,0.5-1,0.8-1.6C200,29.2,200.4,28.1,200.6,27L200.6,27z M117.2,119.5c0.1-1.3,0.2-2.5,0.4-3.8c0.9-0.4,1.8-0.8,2.2-1
				C119.7,114.8,118.4,117.1,117.2,119.5z M148,80.4c-3.4,4.5-10,10.2-12.7,14.6c-1.4,2.4-7.8,12.8-9.3,13.8s-4.2,1.2-5.7,2.6
				c-0.9,0.9-1.8,1.5-2.5,1.9c0.1-1.4,0.2-2.7,0.1-4c-0.2-7.9-1-15.3,1.2-23.1c1.4-4.6,3-18.6,3.6-24.7c1.1-10.6-1.2-23.1-1.4-28.1
				c4.5-0.2,5.3,1.3,15.2,9.8c5.4,4.7,11.6,5.3,13.6,7.4c2,2,4.6,5.5,6.5,6.3c1.7,0.7,3.9,1.2,6,1.2C158.4,64.1,150.9,74.2,148,80.4
				L148,80.4z"/>
			<path class="st2" d="M173.9,38.2c-3.5-1.9-5.2-5.5-3.6-8.7c-4.4-1.6-7.9-2.9-14-5c-0.1,0.2-8.4,10.1-7.2,25.6
				c0.3,0.2,0.6,0.4,0.8,0.6c2,2,4.6,5.5,6.5,6.3s4.6,1.3,6.9,1.2c-3.9-5.8-1.2-12.4,4.6-15.3c3.9-1.9,9.3-2.5,11.4,0.8
				c0.3-0.1,0,0.1,0.3,0C179.4,41.1,175.3,38.9,173.9,38.2z"/>
			<path class="st3" d="M93.8,32.2c0.8,3.1,3.3,9.3,3.8,15.2c1.1,13.4,5,27.2,6.8,33.2c1.5,5.3,0.9,10.4,0.2,15.6
				c4.3,0.7,8.6,1.1,13,1c0.1-3.6,0.4-7.2,1.4-11c1.4-4.6,3-18.6,3.6-24.7c1-9.1-1.3-25-1.3-25.9c0-6.9-0.3-16.3-2.2-23.9
				c-5.7-1.6-10.4-2.1-13.4-1.2c-10.1,3.1-12.9,9.4-12.5,16C93.1,28.3,93.3,30.2,93.8,32.2L93.8,32.2z"/>
			<g>
				<path class="st4" d="M199.4,16.9c-2-3.1-5.3-4.1-7.5-4.6c0.4-0.1,0.7-0.1,1-0.1c0.6,0,0.9-0.5,0.6-0.9c-0.2-0.3-0.6-0.7-1.1-0.6
					c-0.4,0.1-0.9,0.3-1.3,0.6c0.2-0.4,0.4-0.7,0.7-0.9c0.4-0.4,0.3-0.7,0.1-0.9c-0.3-0.3-1.1-0.4-1.5,0.2c-0.1,0.2-0.2,0.3-0.3,0.6
					c-0.3-0.9-0.9-1.9-2-2.6c-3.2-1.9-7.2,0.1-9.7,2.4c-1.9,1.8-3.2,3.9-3.3,5.7c-0.2,2.8,1.6,3.9,2.5,4.2c-0.1,0.1-0.2,0.2-0.3,0.3
					c-0.6,0.6-1.6,1.9-2.3,4.7c-0.7,2.9,0.7,5.2,2.6,7.4c0.3,0,3.9,1.6,6.7,0.7c-0.1-0.6-0.5-3.5,0.9-5.6c1-1.5,2.7-1.2,3.3-0.6
					c0.4,0.4,1.2,1.1,0.9,2.1l0.3,0.2c2.7-3.5,6.3-2.7,11.5-4.7h0.2v-0.2C201.8,21.4,200.6,18.8,199.4,16.9L199.4,16.9z"/>
				<path class="st5" d="M193.5,11.2c0.2,0.5-0.1,0.9-0.6,0.9c-0.3,0-0.6,0.1-1,0.1c0.1,0-5.9,7.9-15.2,8.1c0.1-0.1,0.2-0.2,0.3-0.3
					l0.1-0.1h0.1c13.6-3.8,12.6-10,12.7-9.9c0.1-0.2,0.2-0.4,0.3-0.6c0.4-0.6,1.2-0.6,1.5-0.2c0.2,0.2,0.3,0.5-0.1,0.9
					c-0.2,0.2-0.4,0.6-0.7,0.9c0.4-0.3,0.9-0.5,1.3-0.6C192.9,10.5,193.3,10.9,193.5,11.2L193.5,11.2z"/>
				<path class="st5" d="M200.7,31.8c0,0-1.8,0.4-3.8-0.6C195.5,30.5,198.2,34.4,200.7,31.8z"/>
				<path class="st6" d="M191.1,44.5c0,0-4.5-1.9-7.4-5C185.6,40.7,188.1,42.5,191.1,44.5L191.1,44.5z"/>
				<path class="st7" d="M191.6,38.8c-2.8-0.9-3.4-5.3-0.7-7.1S193.4,39.4,191.6,38.8z"/>
			</g>
			<path class="st8" d="M150.6,51.4L150.6,51.4c-0.1,0-0.2-0.1-0.2-0.2c0.7-9.5,2.9-16,4.6-19.9c1.9-4.2,3.6-6.1,3.6-6.2
				c0.1-0.1,0.2-0.1,0.3,0s0.1,0.2,0,0.3c0,0-1.7,1.9-3.6,6.1c-1.7,3.8-3.9,10.3-4.6,19.7C150.8,51.4,150.7,51.4,150.6,51.4
				L150.6,51.4z"/>
		</g>
	</g>
	<rect x="38.5" y="172.6" class="st9" width="186.5" height="25.2"/>
</g>
</svg>
