<?xml version="1.0" encoding="UTF-8"?>
<svg id="Layer_1" data-name="Layer 1" xmlns="http://www.w3.org/2000/svg" viewBox="0 0 712.32 836.1">
  <defs>
    <style>
      .cls-1 {
        fill: #f7b882;
      }

      .cls-2 {
        fill: #f5b080;
      }

      .cls-3 {
        fill: #fff;
      }

      .cls-4 {
        fill: #905423;
      }

      .cls-5 {
        fill: #b2bcc4;
      }

      .cls-6 {
        fill: #d1e5ff;
      }

      .cls-7 {
        fill: #d09a6f;
      }

      .cls-8, .cls-9 {
        fill: #355775;
      }

      .cls-10 {
        fill: #46260f;
      }

      .cls-11 {
        letter-spacing: .01em;
      }

      .cls-12 {
        letter-spacing: -.02em;
      }

      .cls-13 {
        letter-spacing: .06em;
      }

      .cls-14 {
        letter-spacing: .06em;
      }

      .cls-9 {
        font-family: FarmWaveFree-Regular, 'Farm Wave Free';
        font-size: 85px;
        isolation: isolate;
      }
    </style>
  </defs>
  <text class="cls-9" transform="translate(0 814.85)"><tspan class="cls-14" x="0" y="0">Half </tspan><tspan class="cls-12" x="178.92" y="0">f</tspan><tspan class="cls-14" x="206.14" y="0">or</tspan><tspan class="cls-11" x="296.14" y="0">w</tspan><tspan class="cls-13" x="345.81" y="0">ard bend</tspan></text>
  <g>
    <ellipse class="cls-5" cx="356.31" cy="643.28" rx="356.01" ry="38.15"/>
    <g>
      <path class="cls-1" d="M689.31,89.95c.6-2.59,1.26-9.92,.37-18.68-64.5-12.94-92.45,24.12-104.86,40.21-.02-.01-.05-.02-.08-.03-32.71-10.9-206.91-73.16-241.77-84.28-32.13-10.25-58.83-14.89-75.06-9.96-44.66,13.56-57.12,41.54-55.63,70.98-.3,7.59,.5,15.84,2.68,24.91,3.31,13.73,14.65,41.26,16.87,67.41,5.07,59.65,22.2,120.74,30.12,147.29,9.94,34.29-.65,67.52-2.64,102.49-3.14,55.05,26.49,104.3,10.89,161.64-3.14,11.54-15.12,35.27,1.64,44.25,16.75,8.97,31.49-6.19,45.82-.58,14.33,5.6,70.57,15.3,68.46-.4l-.18-2.93c-2.42-9.87-18.2-6.85-23.34-9.68-9.73-5.35-30.14-23.1-38.21-43-7.73-16.3-8.59-36.67-7.44-57.47,3.58-7.08,9.39-14.22,9.39-14.22-8.52,11.85-7.7,30.72-2.96,28.49l5.69-2.03c8.03-21.56,40.31-57.24,40.31-57.24,23.07-32.09,71.65-77.16,98.53-115.72,17.06-14.35,32.53-31.55,44.69-45.86,2.79-3.31,34.66-44,64.95-77.92,24.28-28.89,24.82-61.42,16.46-79.07,3.29-5.79,17.98-9.04,30.03-4.92,1.15,.73,2.25,1.48,3.27,2.25,7.03,4.76,17.11,11.26,21,12.44,7.33,2.27,8.9-3.65,10.46-9.61,.83-3.15,2.18-5.98,5.74-6.45,1.82-.22,2.72,.21,4.37-.72,1.04-.63,1.32-1.9,1.41-2.98,.17-1.96-1.56-2.76,.79-2.01,1.85,.61,3.86-1.55,4.3-3.35,.63-2.67-2.15-4.34,3.09-6.37,1.35-.51,2.82-.65,4.15-1.23,1.43-.63,1.61-2.3,1.21-3.65-1.25-4.02-3.01-7.83-3.86-11.99-.17-1.27-.29-2.51-.38-3.59,.01-.51,.05-1.01,.11-1.51,1.94,1.03,5.94-.06,7.83-2.05-2.34,.71-5.03,.08-6.95-1.61,.84-2.33,2.14-4.6,3.47-6.99,2.44-4.42,4.17-9.28,5.26-14.26ZM318.64,500.59c.54-5.63,1.1-11.2,1.6-16.63,4.06-1.71,7.77-3.65,9.63-4.24,0,0-5.63,10.32-11.23,20.87Zm136.83-173.54c-15.01,19.85-44.52,45.22-56.57,65.04-6.46,10.83-34.81,56.74-41.52,61.11-6.71,4.38-18.87,5.54-25.17,11.46-4.19,3.93-7.87,6.63-11.11,8.61,.43-6.19,.69-12.16,.58-17.7-.8-35.11-4.33-67.77,5.23-102.36,6.25-20.46,13.13-82.52,15.99-109.6,4.97-47.15-5.3-102.68-6.22-124.87,19.8-.97,23.39,5.57,67.24,43.62,23.94,20.77,51.37,23.7,60.38,32.71s20.26,24.27,29.05,28.05c7.6,3.27,17.56,5.22,26.8,5.3-18.54,26.39-51.47,71.07-64.68,98.63Z"/>
      <path class="cls-3" d="M570.66,139.62c-15.35-8.35-23.17-24.53-16.12-38.6-19.69-6.89-34.93-12.73-62.02-22.28-.34,.7-37.25,44.98-31.81,113.56,1.39,.87,2.62,1.76,3.6,2.74,9.02,9.02,20.26,24.27,29.05,28.05,8.62,3.71,20.33,5.85,30.52,5.32-17.28-25.65-5.23-55.25,20.56-67.76,17.34-8.41,41.21-11.05,50.75,3.49,1.44-.45-.06,.42,1.36,0-1.81-11.8-19.79-21.2-25.89-24.52Z"/>
      <path class="cls-8" d="M214.97,113.09c3.31,13.73,14.65,41.26,16.87,67.41,5.07,59.65,22.2,120.74,30.12,147.29,6.76,23.34,4.02,46.19,.95,69.44,19.02,3.24,38.15,4.88,57.58,4.65,.32-16.11,1.86-32.17,6.42-48.68,6.25-20.46,13.13-82.52,15.99-109.6,4.28-40.55-5.68-111.02-5.66-114.88,.14-30.61-1.17-72.3-9.79-106.11-25.15-6.89-46.02-9.5-59.54-5.4-44.66,13.56-57.12,41.54-55.63,70.98-.29,7.58,.5,15.84,2.69,24.9Z"/>
      <g>
        <path class="cls-4" d="M683.69,45.01c-9.04-13.84-23.4-18.2-33.26-20.47,1.56-.4,2.98-.61,4.24-.64,2.52-.05,3.75-2.03,2.8-4.07-.7-1.5-2.59-2.97-5.11-2.66-1.91,.24-4.03,1.15-5.94,2.52,.92-1.68,1.9-3.09,2.91-4.15,1.59-1.67,1.18-3.24,.35-4.08-1.45-1.48-4.79-1.57-6.75,.99-.53,.69-1,1.5-1.38,2.43-1.35-3.96-3.97-8.49-9.06-11.49-14.32-8.45-32.19,.36-43.15,10.46-8.52,7.86-14.01,17.37-14.66,25.43-.97,12.31,7.21,17.2,11.04,18.81-.47,.32-.97,.72-1.45,1.16-2.87,2.64-6.95,8.38-10.08,20.71-3.29,12.95,3.28,23.03,11.76,32.73,1.28,.1,17.14,7.15,29.85,3.09-.4-2.5-2.15-15.62,3.95-24.96,4.46-6.83,12.07-5.38,14.74-2.9,1.67,1.54,5.31,4.76,3.92,9.42l1.29,.84c12.13-15.65,28.06-11.83,51.13-20.91l.71,.07,.15-.69c2.62-11.59-2.52-23.25-8-31.64Z"/>
        <path class="cls-10" d="M657.48,19.83c.94,2.04-.28,4.03-2.8,4.07-1.27,.02-2.69,.24-4.24,.64,.55,.13-26.19,35.17-67.42,35.99,.44-.5,.87-.93,1.27-1.3,.2-.19,.4-.32,.6-.48,.13-.03,.24-.02,.37-.06,60.23-16.73,56.11-44.38,56.3-43.82,.39-.93,.85-1.74,1.38-2.43,1.96-2.56,5.3-2.47,6.75-.99,.83,.84,1.24,2.41-.35,4.08-1.01,1.07-1.99,2.47-2.91,4.15,1.91-1.36,4.03-2.28,5.94-2.52,2.52-.31,4.41,1.17,5.11,2.67Z"/>
        <path class="cls-10" d="M689.56,111.37s-7.83,1.83-16.95-2.77c-6.38-3.22,5.9,14.2,16.95,2.77Z"/>
        <path class="cls-7" d="M647.1,167.71s-19.82-8.39-32.99-22.07c8.48,5.1,19.41,13.1,32.99,22.07Z"/>
        <path class="cls-2" d="M649.08,142.39c-12.27-4.18-15.01-23.69-3.19-31.69,11.81-7.99,11.1,34.39,3.19,31.69Z"/>
      </g>
      <path class="cls-6" d="M467.23,198.38h-.07c-.5-.04-.88-.48-.84-.98,3.14-42.05,12.89-71.22,20.52-88.28,8.29-18.55,15.74-27,16.05-27.34,.34-.38,.92-.4,1.28-.08,.38,.34,.41,.91,.07,1.28-.07,.09-7.62,8.65-15.79,26.98-7.55,16.92-17.21,45.84-20.32,87.58-.03,.48-.43,.84-.9,.84Z"/>
    </g>
  </g>
</svg>