<?xml version="1.0" encoding="utf-8"?>
<!-- Generator: Adobe Illustrator 26.5.0, SVG Export Plug-In . SVG Version: 6.00 Build 0)  -->
<svg version="1.1" id="Layer_1" xmlns="http://www.w3.org/2000/svg" xmlns:xlink="http://www.w3.org/1999/xlink" x="0px" y="0px"
	 viewBox="0 0 250 400" style="enable-background:new 0 0 250 400;" xml:space="preserve">
<style type="text/css">
	.st0{fill:#B2BCC4;}
	.st1{fill:#F7B882;}
	.st2{fill:#FFFFFF;}
	.st3{fill:#355775;}
	.st4{fill:#905423;}
	.st5{fill:#46260F;}
	.st6{fill:#D09A6F;}
	.st7{fill:#F5B080;}
	.st8{fill:#D1E5FF;}
	.st9{fill:none;}
	.st10{font-family:'FarmWaveFree-Regular';}
	.st11{font-size:24px;}
</style>
<g>
	<g>
		<ellipse class="st0" cx="125.64" cy="325.65" rx="80.19" ry="8.6"/>
		<g>
			<path class="st1" d="M200.65,201c0.14-0.58,0.28-2.23,0.08-4.21c-14.53-2.91-20.82,5.43-23.62,9.06c0,0-0.01,0-0.02-0.01
				c-7.37-2.46-46.61-16.48-54.46-18.98c-7.24-2.31-13.25-3.35-16.91-2.25c-10.06,3.05-12.87,9.36-12.53,15.99
				c-0.07,1.71,0.11,3.57,0.6,5.61c0.75,3.09,3.3,9.29,3.8,15.18c1.14,13.44,5,27.2,6.78,33.18c2.24,7.73-0.15,15.21-0.59,23.09
				c-0.71,12.4,5.97,23.5,2.45,36.41c-0.71,2.6-3.41,7.94,0.37,9.97c3.77,2.02,7.09-1.4,10.32-0.13c3.23,1.26,15.9,3.45,15.42-0.09
				l-0.04-0.66c-0.55-2.22-4.1-1.54-5.26-2.18c-2.19-1.2-6.79-5.2-8.61-9.69c-1.74-3.67-1.93-8.26-1.68-12.95
				c0.81-1.59,2.12-3.2,2.12-3.2c-1.92,2.67-1.73,6.92-0.67,6.42l1.28-0.46c1.81-4.86,9.08-12.89,9.08-12.89
				c5.2-7.23,16.14-17.38,22.2-26.07c3.84-3.23,7.33-7.11,10.07-10.33c0.63-0.75,7.81-9.91,14.63-17.55
				c5.47-6.51,5.59-13.84,3.71-17.81c0.74-1.3,4.05-2.04,6.77-1.11c0.26,0.16,0.51,0.33,0.74,0.51c1.58,1.07,3.86,2.54,4.73,2.8
				c1.65,0.51,2.01-0.82,2.36-2.16c0.19-0.71,0.49-1.35,1.29-1.45c0.41-0.05,0.61,0.05,0.99-0.16c0.24-0.14,0.3-0.43,0.32-0.67
				c0.04-0.44-0.35-0.62,0.18-0.45c0.42,0.14,0.87-0.35,0.97-0.75c0.14-0.6-0.48-0.98,0.7-1.44c0.3-0.12,0.63-0.15,0.93-0.28
				c0.32-0.14,0.36-0.52,0.27-0.82c-0.28-0.9-0.68-1.76-0.87-2.7c-0.04-0.29-0.06-0.57-0.09-0.81c0-0.12,0.01-0.23,0.02-0.34
				c0.44,0.23,1.34-0.01,1.76-0.46c-0.53,0.16-1.13,0.02-1.57-0.36c0.19-0.53,0.48-1.04,0.78-1.57
				C200.02,203.22,200.41,202.13,200.65,201L200.65,201z M117.15,293.51c0.12-1.27,0.25-2.52,0.36-3.75
				c0.91-0.39,1.75-0.82,2.17-0.96C119.68,288.8,118.42,291.13,117.15,293.51z M147.98,254.41c-3.38,4.47-10.03,10.19-12.74,14.65
				c-1.45,2.44-7.84,12.78-9.35,13.76c-1.51,0.99-4.25,1.25-5.67,2.58c-0.95,0.88-1.77,1.49-2.5,1.94c0.1-1.4,0.16-2.74,0.13-3.99
				c-0.18-7.91-0.98-15.27,1.18-23.06c1.41-4.61,2.96-18.59,3.6-24.69c1.12-10.62-1.19-23.13-1.4-28.13
				c4.46-0.22,5.27,1.26,15.15,9.83c5.39,4.68,11.57,5.34,13.6,7.37c2.03,2.03,4.57,5.47,6.54,6.32c1.71,0.74,3.95,1.18,6.04,1.19
				C158.37,238.14,150.95,248.21,147.98,254.41L147.98,254.41z"/>
			<path class="st2" d="M173.92,212.19c-3.46-1.88-5.22-5.52-3.63-8.69c-4.44-1.55-7.87-2.87-13.97-5.02
				c-0.08,0.16-8.39,10.13-7.17,25.58c0.31,0.19,0.59,0.4,0.81,0.62c2.03,2.03,4.57,5.47,6.54,6.32c1.94,0.84,4.58,1.32,6.88,1.2
				c-3.89-5.78-1.18-12.45,4.63-15.26c3.91-1.89,9.28-2.49,11.43,0.78c0.32-0.1-0.01,0.1,0.31,0
				C179.35,215.06,175.3,212.94,173.92,212.19z"/>
			<path class="st3" d="M93.8,206.22c0.75,3.09,3.3,9.29,3.8,15.18c1.14,13.44,5,27.2,6.78,33.18c1.52,5.26,0.9,10.4,0.21,15.64
				c4.29,0.73,8.6,1.1,12.97,1.05c0.07-3.63,0.42-7.25,1.45-10.97c1.41-4.61,2.96-18.59,3.6-24.69c0.97-9.13-1.28-25.01-1.28-25.88
				c0.03-6.9-0.26-16.29-2.2-23.9c-5.66-1.55-10.37-2.14-13.41-1.22c-10.06,3.05-12.87,9.36-12.53,15.99
				C93.13,202.32,93.31,204.18,93.8,206.22L93.8,206.22z"/>
			<g>
				<path class="st4" d="M199.39,190.88c-2.04-3.12-5.27-4.1-7.49-4.61c0.35-0.09,0.67-0.14,0.96-0.14
					c0.57-0.01,0.85-0.46,0.63-0.92c-0.16-0.34-0.58-0.67-1.15-0.6c-0.43,0.05-0.91,0.26-1.34,0.57c0.21-0.38,0.43-0.7,0.66-0.93
					c0.36-0.38,0.27-0.73,0.08-0.92c-0.33-0.33-1.08-0.35-1.52,0.22c-0.12,0.16-0.23,0.34-0.31,0.55c-0.3-0.89-0.89-1.91-2.04-2.59
					c-3.22-1.9-7.25,0.08-9.72,2.36c-1.92,1.77-3.16,3.91-3.3,5.73c-0.22,2.77,1.62,3.88,2.49,4.24c-0.11,0.07-0.22,0.16-0.33,0.26
					c-0.64,0.59-1.57,1.89-2.27,4.66c-0.74,2.92,0.74,5.19,2.65,7.37c0.29,0.02,3.86,1.61,6.73,0.7c-0.09-0.56-0.48-3.52,0.89-5.62
					c1-1.54,2.72-1.21,3.32-0.65c0.38,0.35,1.2,1.07,0.88,2.12l0.29,0.19c2.73-3.52,6.32-2.66,11.52-4.71l0.16,0.02l0.03-0.16
					C201.78,195.4,200.62,192.77,199.39,190.88L199.39,190.88z"/>
				<path class="st5" d="M193.48,185.21c0.21,0.46-0.06,0.91-0.63,0.92c-0.29,0-0.61,0.05-0.96,0.14c0.12,0.03-5.9,7.92-15.19,8.11
					c0.1-0.11,0.19-0.21,0.29-0.29c0.04-0.04,0.09-0.07,0.14-0.11c0.03-0.01,0.05,0,0.08-0.01c13.57-3.77,12.64-10,12.68-9.87
					c0.09-0.21,0.19-0.39,0.31-0.55c0.44-0.58,1.19-0.56,1.52-0.22c0.19,0.19,0.28,0.54-0.08,0.92c-0.23,0.24-0.45,0.56-0.66,0.93
					c0.43-0.31,0.91-0.52,1.34-0.57C192.9,184.54,193.33,184.87,193.48,185.21L193.48,185.21z"/>
				<path class="st5" d="M200.71,205.83c0,0-1.76,0.41-3.82-0.62C195.46,204.48,198.22,208.41,200.71,205.83z"/>
				<path class="st6" d="M191.15,218.52c0,0-4.46-1.89-7.43-4.97C185.62,214.7,188.08,216.5,191.15,218.52L191.15,218.52z"/>
				<path class="st7" d="M191.59,212.82c-2.76-0.94-3.38-5.34-0.72-7.14C193.53,203.88,193.37,213.43,191.59,212.82z"/>
			</g>
			<path class="st8" d="M150.63,225.43h-0.02c-0.11-0.01-0.2-0.11-0.19-0.22c0.71-9.47,2.9-16.04,4.62-19.89
				c1.87-4.18,3.55-6.08,3.62-6.16c0.08-0.09,0.21-0.09,0.29-0.02c0.09,0.08,0.09,0.2,0.02,0.29c-0.02,0.02-1.72,1.95-3.56,6.08
				c-1.7,3.81-3.88,10.33-4.58,19.73C150.82,225.35,150.73,225.43,150.63,225.43L150.63,225.43z"/>
		</g>
	</g>
	<rect x="38.46" y="346.61" class="st9" width="186.54" height="25.16"/>
	<text transform="matrix(1 0 0 1 40.335 363.9336)" class="st3 st10 st11">Half forward bend</text>
</g>
</svg>
