<?xml version="1.0" encoding="UTF-8"?>
<svg id="Layer_1" data-name="Layer 1" xmlns="http://www.w3.org/2000/svg" xmlns:xlink="http://www.w3.org/1999/xlink" viewBox="0 0 877.32 907.85">
  <defs>
    <style>
      .cls-1 {
        fill: url(#linear-gradient);
      }

      .cls-2 {
        fill: #f7b882;
      }

      .cls-3 {
        fill: #f3b67f;
      }

      .cls-4 {
        fill: #fff;
      }

      .cls-5 {
        fill: #8e5624;
      }

      .cls-6 {
        fill: #b2bcc4;
      }

      .cls-7 {
        fill: #d1e5ff;
      }

      .cls-8 {
        fill: #452815;
      }

      .cls-9, .cls-10 {
        fill: #355775;
      }

      .cls-11 {
        letter-spacing: .07em;
      }

      .cls-12 {
        fill: url(#linear-gradient-2);
      }

      .cls-13 {
        fill: url(#radial-gradient);
      }

      .cls-14 {
        letter-spacing: .06em;
      }

      .cls-10 {
        font-family: FarmWaveFree-Regular, 'Farm Wave Free';
        font-size: 85px;
        isolation: isolate;
      }
    </style>
    <radialGradient id="radial-gradient" cx="522.88" cy="1157.47" fx="522.88" fy="1157.47" r="173.37" gradientTransform="translate(0 1328.38) scale(1 -1)" gradientUnits="userSpaceOnUse">
      <stop offset=".22" stop-color="#f8a164"/>
      <stop offset=".3" stop-color="#f8a469"/>
      <stop offset=".71" stop-color="#f7b37b"/>
      <stop offset="1" stop-color="#f7b882"/>
    </radialGradient>
    <linearGradient id="linear-gradient" x1="576.29" y1="958.16" x2="550.73" y2="943.74" gradientTransform="translate(0 1328.38) scale(1 -1)" gradientUnits="userSpaceOnUse">
      <stop offset="0" stop-color="#355775"/>
      <stop offset=".03" stop-color="#345572"/>
      <stop offset=".22" stop-color="#2e4b66"/>
      <stop offset=".47" stop-color="#2b465e"/>
      <stop offset="1" stop-color="#2a445c"/>
    </linearGradient>
    <linearGradient id="linear-gradient-2" x1="514.32" y1="725.35" x2="566.77" y2="692.31" gradientTransform="translate(0 1328.38) scale(1 -1)" gradientUnits="userSpaceOnUse">
      <stop offset="0" stop-color="#f8a164"/>
      <stop offset=".1" stop-color="#f8a469"/>
      <stop offset=".63" stop-color="#f7b37b"/>
      <stop offset="1" stop-color="#f7b882"/>
    </linearGradient>
  </defs>
  <text class="cls-10" transform="translate(144.25 886.6)"><tspan class="cls-14" x="0" y="0">R</tspan><tspan class="cls-11" x="40.61" y="0">evolved chair</tspan></text>
  <g>
    <path class="cls-6" d="M877.32,716.51c0-21.1-196.39-38.2-438.66-38.2S0,695.41,0,716.51s196.39,38.2,438.66,38.2,438.66-17.11,438.66-38.2Z"/>
    <g>
      <path class="cls-7" d="M652.02,65.08c22.74-29.71,46.54-54.74,46.9-55.12,.34-.36,.92-.38,1.28-.03,.36,.34,.49,.88,.03,1.28-.53,.56-53.96,56.75-77.04,100.65-.23,.52-.79,.62-1.23,.38-.44-.23-.61-.78-.38-1.22,7.78-14.8,18.97-30.97,30.44-45.94Z"/>
      <path class="cls-13" d="M687.95,68.21c-2.29-6.26-6.05-11.81-8.41-18.03-1.78-4.6-2.88-10.54-.4-15.07-5.05,5.24-13.96-1.78-18.26-5.02-3.69-2.79-1.16-8.94-5.86-9.59-5.19-.7-10.39,.71-15.1,2.78-3.86,1.72-7.31,3.99-10.86,6.24-1.96,1.21-3.91,2.43-5.99,3.43-1.11,.53-2.23,1.06-3.45,1.16-.34,.01-.68,0-1.05-.04-.28-.05-.31-.37-.19-.54l-.81-.48s-.01,.01-.01,.01c-.09,.03-.4-.33-.55-.32-.96,.05-1.74,.11-2.66,.55-1.03,.49-2.02,1.1-2.92,1.82-1.82,1.44-3.41,3.16-4.52,5.09-2.02,3.53-1.71,8.12-4.81,11.2,0,0,.02,.01,.03,.01-1.44,1.47-2.84,2.99-4.14,4.59-1.87,2.32-3.71,4.75-5.11,7.35-1.33,2.48-2.35,5.07-3.19,7.71-.71,2.22-1.75,6.73-2.71,11.67-4.68,2.48-9.4,4.92-14.13,7.31-11.07,5.6-19.95,1.41-29.13-5.19-11.25-8.08-18.24-17.57-32.07-18.63-11.79-.91-145.15,79.83-228.61,146.96,16.97,30.07,67.46,42.08,83.33,72.74,3.29-4.32,164.03-45.57,167.96-45.53-1.45,1.01,63.34-31.97,61.69-45.36-.32-2.55-9.56-39.02-9.76-41.56,.05-.06,.12-.11,.16-.17,.06-.08-.04-.18-.11-.11-.02,.02-.05,.04-.07,.06-.62-8.18,.22-16.02,7.78-21.84,5.08-3.92,10.7-7.31,16.08-10.8,.05-.03-.02-.05-.05-.08h0l.07-.2c-.17-.06-.36-.12-.53-.17,4.52,1.45,8.64,2.62,10.82,3.06,2.71,.54,5.48,.91,8.29,.95,2.95,.03,5.97-.39,8.91-.9,2.67-.47,5.29-1.17,7.88-1.95,3.41-.12,6.66,1.49,10.05,1.44,2.23-.03,4.5-.59,6.64-1.48,1.06-.44,2.07-1.01,3.01-1.67,.83-.59,1.26-1.25,1.77-2.06,.08-.12-.08-.55-.02-.63,0,0,.01-.01,.02-.01l.33-3.39c-.05-.09-.05-.19,.07-.26,5.62-2.53,10.48-6.51,15.32-10.26,4.34-3.39,8.35-7.28,11-12.22,4.42-8.3-2.58-13.96-5.73-22.57Z"/>
      <path class="cls-4" d="M530.7,241.3c7.98-7.34,9.73-25.08,16.84-33.45,13.52-15.9,40.94-40.7,40.82-40.62-.05-.58-2.33-13.47-1.94-13.93,.06-.08-.04-.18-.11-.11-20.3,18.75-23.86,13.41-54.7,24.3-25.04,8.84-48.3,.52-43.54-30.84,1.64-10.8,39.01-46.87,57.15-57.76,.46-.28-8.07-10.93-8.16-10.89-8.48,11.32-31.75,28.12-61.69,33.56-3.46,.63-35.59-1.51-41.73-4.54-22.75,13.02-42.75,29.37-46.27,32.66,0,0,23.76,54.2,39.01,75.29,9.83,13.6,29.91,40.69,46.27,46.27,.46,.16,22.47-7.38,26.65-9.76-.01,.02,20.5-.16,31.4-10.18Z"/>
      <path class="cls-5" d="M717.85,80.82c3.04-6.12,5.99-15.53,6.2-24.21,1.57-.36,3.08-.91,4.49-1.74,10.36-6.1,11.82-22.83,3.27-37.37-8.56-14.53-23.9-21.37-34.26-15.27-2.25,1.32-3.99,3.22-5.39,5.41-.15-.13-.28-.3-.44-.42-3.44-2.78-13.61-3.79-19.59-4.06-4.99-.22-18.43,4.24-23.26,6.98-6.03,3.42-11.43,6.99-16.05,10.6-2.31,1.8-4.73,3.84-7.42,6.24l-.32,.29c-1.86,1.66-3.75,3.39-5.42,5.31-.4,.17-.8,.35-1.21,.5-.2,.07-.35,.23-.43,.44s-.06,.42,.04,.6c.09,.16,.26,.27,.45,.3,.32,.05,.62,.03,.93,.02,.01,0,.01,.01,.02,.01s.03-.01,.04-.01c1.34-.07,2.62-.57,3.7-1.17,26.39-14.71,47.47,4.72,52.45,4.02,.96-.13,1.83-.48,2.61-1-1.87,4.9-.32,10.7,.95,14.02,1.16,3.04,2.67,5.95,4.11,8.78,4.95,9.67,15.93,35.48-16.13,53.89-.13,.07-.23,.17-.27,.3-.04,.13-.02,.29,.05,.42,.12,.2,.34,.31,.56,.27,.05-.01,.09-.02,.13-.03,.1,.07,.22,.11,.35,.07,5.46-1.49,10.79-3.64,15.74-5.73,4.37-1.86,29.53-18.27,34.1-27.46Z"/>
      <path class="cls-8" d="M649.81,80.87s-.44,15.95,13.32,20.23c-9.27,2.16-21.34-6.43-13.32-20.23Z"/>
      <path class="cls-7" d="M430.19,204.78c-22.18-37.67-26.23-75.04-26.29-75.61-.05-.54,.31-.96,.8-.93,.5,.04,.96,.5,1,1.06,.08,.83,9.26,85.15,75.94,127.34,.48,.3,.68,.91,.49,1.37s-.72,.6-1.18,.31c-23.04-14.59-39.32-34.11-50.76-53.54Z"/>
      <path class="cls-2" d="M575.4,439.62c-.11-.17-4.92-6.99-8.2-10.42-19.49-21.36-101.18-112.71-180.67-141.95-48.52,3.27-100.96-.11-148.33-15-2.31,6.18-4.1,12.64-5.1,19.52-4.96,34.26,22.22,63.11,56.35,86.41,58.85,43.88,164.06,60.67,215.3,84.59-9.16,9.39-19.26,12.17-31.73,27.21-19.63,24.4-26.94,47.92-34.75,68.48-9.56,24.59-23.51,55.19-41.9,82.79-10.52,15.78-31.8,45.99-31.68,45.99-8.18,12.27-11.83,26.96,0,30.66,12.59,4.01,30.84,3.56,43.95,3.07,10.03-.38,27.75,.96,50.08,4.09,28.62,1.02,55.19,0,47.01-16.35-2.86-2.5-10.2,1.84-27.6-1.02-23.18-3.81-50.24-26.51-48.04-41.9,3.38-23.66,127.23-155.47,142.48-198.79,3.65-10.37,6.24-18.79,2.73-27.14,.04-.09,.07-.16,.1-.24Z"/>
      <path class="cls-9" d="M492.55,474.7c.16,.15-2.3-1.22-2.14-1.06,16.76,16.69,43.89,26.01,68.15,30.05,10.99-15.09,19.13-27.95,22.21-36.69,3.65-10.37,6.24-18.79,2.73-27.14,.03-.08,.06-.15,.09-.22-.11-.17-.25-.34-.36-.51-.01-.01-.01-.02-.01-.04h-.01c-2.07-3.19-4.53-6.45-7.81-9.87-20.65-22.63-100.43-115.33-191.81-146.51,0,0-45.16-67.73-81.71-84.94-41.93,22.58-67.74,53.76-68.75,94.02-.87,34.61,22.22,63.11,56.35,86.41,58.85,43.88,164.06,60.67,215.3,84.59-4.02,4.08-8,7.8-12.23,11.91Z"/>
      <path class="cls-1" d="M596.7,432.75c.03-.08,.06-.15,.09-.22-.11-.17-.25-.34-.36-.51-.01-.01-.01-.02-.01-.04h-.01c-2.07-3.19-4.53-6.45-7.81-9.88-15.61-17.11-81.34-72.26-148.65-107.95,62.69,39.14,120.23,98.37,135.44,115.04,3.28,3.43,5.74,6.68,7.81,9.87h.01s.01,.02,.01,.04c.11,.17,.25,.34,.36,.51-.03,.08-.06,.15-.09,.22,3.51,8.35,.93,16.77-2.73,27.14-3.04,8.63-11.03,21.29-21.81,36.14,4.28,.99,8.58,1.88,12.89,2.6,10.99-15.09,19.13-27.95,22.21-36.69,3.66-10.36,6.17-27.91,2.65-36.27Z"/>
      <path class="cls-12" d="M495.52,702.58c-23.18-3.82-50.24-26.51-48.04-41.9,2.57-18.01,79.6-98.61,123.02-155.22-3.86-.67-7.71-1.44-11.54-2.33-.14,.19-.26,.37-.4,.55-2.18-.36-4.39-.82-6.61-1.27-39.7,56.69-119.14,144.48-121.84,163.37-2.2,15.39,24.86,38.09,48.04,41.9,17.4,2.86,24.74-1.48,27.6,1.02,2.46,4.91,1.73,8.42-1.2,10.93,14.73-1.38,23.82-5.54,18.58-16.04-2.88-2.49-10.21,1.85-27.61-1.01Z"/>
      <path class="cls-8" d="M632.78,49.28s-.44,15.95,13.32,20.23c-9.26,2.15-21.33-6.43-13.32-20.23Z"/>
      <path class="cls-8" d="M729.61,74.62c-1.74,.6-3.36-.56-3.32-2.62,.02-1.04-.11-2.21-.4-3.52-.12,.44-28.59-24.27-27.97-58.02,.41,.4,.75,.78,1.05,1.14,.15,.18,.25,.35,.39,.53,.02,.11,.01,.2,.04,.31,12.08,50.57,35.34,49.47,34.87,49.58,.76,.39,1.43,.84,1.99,1.33,2.08,1.81,1.9,4.53,.61,5.6-.73,.61-2.06,.81-3.4-.62-.86-.91-2.01-1.83-3.38-2.71,1.08,1.67,1.78,3.48,1.92,5.06,.18,2.07-1.12,3.49-2.4,3.94Z"/>
      <g>
        <path class="cls-3" d="M530.83,73.36c-11.82-11.34-20.6-21.32-36.41-20.76-38.23,1.36-156.09,31.42-159.66,38.1s15.55,45.87,42.11,66.92c26.56,21.06,68.12,33.9,68.12,33.9l77.81-31.47s-2.49-8.2-10.29-8.08c-7.8,.13-12.84-1.7-31.7,6.27-18.86,7.97-35.49,8.54-41.86,5.99-6.37-2.54-39.19-38.21-42.7-46.1-3.52-7.89,77.94-13.95,82.76-13.83,20.59,.55,58.98-24.06,51.82-30.94Z"/>
        <path class="cls-3" d="M587.85,168.72s17.24,27.22,14.51,48.99c-1.81,14.46-21.36,32.39-35.55,55.74s-56.15,83.57-76.34,90.82c-20.2,7.25-20.24-3.94-28.37-41.79-8.14-37.85-19.78-126.46-14.25-130.38s76.97-37.94,81.29-34.77,4.85,8.61-4.47,14.8c-9.32,6.19-58.82,31.3-58.38,40.13s30.51,80.64,33,88.84,17.6-37.14,36.39-67.49c18.79-30.33,32.19-53.22,52.17-64.89Z"/>
      </g>
    </g>
  </g>
</svg>