<?xml version="1.0" encoding="utf-8"?>
<!-- Generator: Adobe Illustrator 26.5.0, SVG Export Plug-In . SVG Version: 6.00 Build 0)  -->
<svg version="1.1" id="Layer_1" xmlns="http://www.w3.org/2000/svg" xmlns:xlink="http://www.w3.org/1999/xlink" x="0px" y="0px"
	 viewBox="0 0 250 400" style="enable-background:new 0 0 250 400;" xml:space="preserve">
<style type="text/css">
	.st0{fill:none;}
	.st1{fill:#355775;}
	.st2{font-family:'FarmWaveFree-Regular';}
	.st3{font-size:24px;}
	.st4{fill:#B2BCC4;}
	.st5{fill:#D1E5FF;}
	.st6{fill:url(#SVGID_1_);}
	.st7{fill:#FFFFFF;}
	.st8{fill:#8E5624;}
	.st9{fill:#452815;}
	.st10{fill:#F7B882;}
	.st11{fill:url(#SVGID_00000136385741137214059090000003662573032382965933_);}
	.st12{fill:url(#SVGID_00000160181382284426662700000011267213032079152282_);}
	.st13{fill:#F3B67F;}
</style>
<g>
	<rect x="32.5" y="346.61" class="st0" width="186.54" height="25.16"/>
	<text transform="matrix(1 0 0 1 53.6959 363.9336)" class="st1 st2 st3">Revolved chair</text>
</g>
<g>
	<g>
		<path class="st4" d="M224.35,325.86c0-4.83-44.93-8.74-100.36-8.74s-100.36,3.91-100.36,8.74c0,4.83,44.93,8.74,100.36,8.74
			S224.35,330.69,224.35,325.86z"/>
		<g>
			<path class="st5" d="M172.81,176.82c5.2-6.8,10.65-12.52,10.73-12.61c0.08-0.08,0.21-0.09,0.29-0.01
				c0.08,0.08,0.11,0.2,0.01,0.29c-0.12,0.13-12.35,12.98-17.63,23.03c-0.05,0.12-0.18,0.14-0.28,0.09
				c-0.1-0.05-0.14-0.18-0.09-0.28C167.63,183.95,170.19,180.25,172.81,176.82L172.81,176.82z"/>
			
				<radialGradient id="SVGID_1_" cx="315.7646" cy="-906.3428" r="39.6643" gradientTransform="matrix(1 0 0 1 -172.5 1107.38)" gradientUnits="userSpaceOnUse">
				<stop  offset="0.22" style="stop-color:#F8A164"/>
				<stop  offset="0.3" style="stop-color:#F8A469"/>
				<stop  offset="0.71" style="stop-color:#F7B37B"/>
				<stop  offset="1" style="stop-color:#F7B882"/>
			</radialGradient>
			<path class="st6" d="M181.03,177.54c-0.52-1.43-1.38-2.7-1.92-4.12c-0.41-1.05-0.66-2.41-0.09-3.45
				c-1.16,1.2-3.19-0.41-4.18-1.15c-0.84-0.64-0.27-2.05-1.34-2.19c-1.19-0.16-2.38,0.16-3.45,0.64c-0.88,0.39-1.67,0.91-2.48,1.43
				c-0.45,0.28-0.89,0.56-1.37,0.78c-0.25,0.12-0.51,0.24-0.79,0.27c-0.08,0-0.16,0-0.24-0.01c-0.06-0.01-0.07-0.08-0.04-0.12
				l-0.19-0.11l0,0c-0.02,0.01-0.09-0.08-0.13-0.07c-0.22,0.01-0.4,0.03-0.61,0.13c-0.24,0.11-0.46,0.25-0.67,0.42
				c-0.42,0.33-0.78,0.72-1.03,1.16c-0.46,0.81-0.39,1.86-1.1,2.56c0,0,0,0,0.01,0c-0.33,0.34-0.65,0.68-0.95,1.05
				c-0.43,0.53-0.85,1.09-1.17,1.68c-0.3,0.57-0.54,1.16-0.73,1.76c-0.16,0.51-0.4,1.54-0.62,2.67c-1.07,0.57-2.15,1.13-3.23,1.67
				c-2.53,1.28-4.56,0.32-6.66-1.19c-2.57-1.85-4.17-4.02-7.34-4.26c-2.7-0.21-33.21,18.26-52.3,33.62
				c3.88,6.88,15.43,9.63,19.06,16.64c0.75-0.99,37.53-10.43,38.43-10.42c-0.33,0.23,14.49-7.31,14.11-10.38
				c-0.07-0.58-2.19-8.93-2.23-9.51c0.01-0.01,0.03-0.03,0.04-0.04c0.01-0.02-0.01-0.04-0.03-0.03c0,0-0.01,0.01-0.02,0.01
				c-0.14-1.87,0.05-3.67,1.78-5c1.16-0.9,2.45-1.67,3.68-2.47c0.01-0.01,0-0.01-0.01-0.02l0,0l0.02-0.05
				c-0.04-0.01-0.08-0.03-0.12-0.04c1.03,0.33,1.98,0.6,2.48,0.7c0.62,0.12,1.25,0.21,1.9,0.22c0.67,0.01,1.37-0.09,2.04-0.21
				c0.61-0.11,1.21-0.27,1.8-0.45c0.78-0.03,1.52,0.34,2.3,0.33c0.51-0.01,1.03-0.13,1.52-0.34c0.24-0.1,0.47-0.23,0.69-0.38
				c0.19-0.13,0.29-0.29,0.4-0.47c0.02-0.03-0.02-0.13,0-0.14c0,0,0,0,0,0l0.08-0.78c-0.01-0.02-0.01-0.04,0.02-0.06
				c1.29-0.58,2.4-1.49,3.5-2.35c0.99-0.78,1.91-1.67,2.52-2.8C183.35,180.81,181.75,179.51,181.03,177.54L181.03,177.54z"/>
			<path class="st7" d="M145.05,217.14c1.83-1.68,2.23-5.74,3.85-7.65c3.09-3.64,9.37-9.31,9.34-9.29
				c-0.01-0.13-0.53-3.08-0.44-3.19c0.01-0.02-0.01-0.04-0.03-0.03c-4.64,4.29-5.46,3.07-12.51,5.56
				c-5.73,2.02-11.05,0.12-9.96-7.06c0.38-2.47,8.92-10.72,13.08-13.21c0.11-0.06-1.85-2.5-1.87-2.49
				c-1.94,2.59-7.26,6.43-14.11,7.68c-0.79,0.14-8.14-0.35-9.55-1.04c-5.2,2.98-9.78,6.72-10.59,7.47c0,0,5.44,12.4,8.92,17.23
				c2.25,3.11,6.84,9.31,10.59,10.59c0.11,0.04,5.14-1.69,6.1-2.23C137.87,219.47,142.56,219.43,145.05,217.14L145.05,217.14z"/>
			<path class="st8" d="M187.87,180.43c0.7-1.4,1.37-3.55,1.42-5.54c0.36-0.08,0.7-0.21,1.03-0.4c2.37-1.4,2.7-5.22,0.75-8.55
				c-1.96-3.32-5.47-4.89-7.84-3.49c-0.51,0.3-0.91,0.74-1.23,1.24c-0.03-0.03-0.06-0.07-0.1-0.1c-0.79-0.64-3.11-0.87-4.48-0.93
				c-1.14-0.05-4.22,0.97-5.32,1.6c-1.38,0.78-2.62,1.6-3.67,2.43c-0.53,0.41-1.08,0.88-1.7,1.43l-0.07,0.07
				c-0.43,0.38-0.86,0.78-1.24,1.21c-0.09,0.04-0.18,0.08-0.28,0.11c-0.05,0.02-0.08,0.05-0.1,0.1c-0.02,0.05-0.01,0.1,0.01,0.14
				c0.02,0.04,0.06,0.06,0.1,0.07c0.07,0.01,0.14,0.01,0.21,0c0,0,0,0,0,0s0.01,0,0.01,0c0.31-0.02,0.6-0.13,0.85-0.27
				c6.04-3.37,10.86,1.08,12,0.92c0.22-0.03,0.42-0.11,0.6-0.23c-0.43,1.12-0.07,2.45,0.22,3.21c0.27,0.7,0.61,1.36,0.94,2.01
				c1.13,2.21,3.64,8.12-3.69,12.33c-0.03,0.02-0.05,0.04-0.06,0.07c-0.01,0.03,0,0.07,0.01,0.1c0.03,0.05,0.08,0.07,0.13,0.06
				c0.01,0,0.02,0,0.03-0.01c0.02,0.02,0.05,0.03,0.08,0.02c1.25-0.34,2.47-0.83,3.6-1.31
				C181.07,186.28,186.83,182.53,187.87,180.43L187.87,180.43z"/>
			<path class="st9" d="M172.3,180.44c0,0-0.1,3.65,3.05,4.63C173.23,185.56,170.47,183.59,172.3,180.44z"/>
			<path class="st5" d="M122.06,208.79c-5.07-8.62-6-17.17-6.01-17.3c-0.01-0.12,0.07-0.22,0.18-0.21c0.11,0.01,0.22,0.11,0.23,0.24
				c0.02,0.19,2.12,19.48,17.37,29.13c0.11,0.07,0.16,0.21,0.11,0.31c-0.04,0.11-0.16,0.14-0.27,0.07
				C128.4,217.7,124.68,213.23,122.06,208.79L122.06,208.79z"/>
			<path class="st10" d="M155.28,262.51c-0.03-0.04-1.13-1.6-1.88-2.38c-4.46-4.89-23.15-25.79-41.33-32.48
				c-11.1,0.75-23.1-0.03-33.94-3.43c-0.53,1.41-0.94,2.89-1.17,4.47c-1.13,7.84,5.08,14.44,12.89,19.77
				c13.46,10.04,37.53,13.88,49.26,19.35c-2.1,2.15-4.41,2.78-7.26,6.23c-4.49,5.58-6.16,10.96-7.95,15.67
				c-2.19,5.63-5.38,12.63-9.59,18.94c-2.41,3.61-7.28,10.52-7.25,10.52c-1.87,2.81-2.71,6.17,0,7.01c2.88,0.92,7.06,0.81,10.06,0.7
				c2.29-0.09,6.35,0.22,11.46,0.94c6.55,0.23,12.63,0,10.76-3.74c-0.65-0.57-2.33,0.42-6.31-0.23c-5.3-0.87-11.49-6.07-10.99-9.59
				c0.77-5.41,29.11-35.57,32.6-45.48c0.84-2.37,1.43-4.3,0.62-6.21C155.27,262.55,155.27,262.53,155.28,262.51L155.28,262.51z"/>
			<path class="st1" d="M136.33,270.54c0.04,0.03-0.53-0.28-0.49-0.24c3.83,3.82,10.04,5.95,15.59,6.87
				c2.51-3.45,4.38-6.39,5.08-8.39c0.84-2.37,1.43-4.3,0.62-6.21c0.01-0.02,0.01-0.03,0.02-0.05c-0.03-0.04-0.06-0.08-0.08-0.12
				c0,0,0,0,0-0.01h0c-0.47-0.73-1.04-1.48-1.79-2.26c-4.72-5.18-22.98-26.39-43.88-33.52c0,0-10.33-15.5-18.69-19.43
				c-9.59,5.17-15.5,12.3-15.73,21.51c-0.2,7.92,5.08,14.44,12.89,19.77c13.46,10.04,37.53,13.88,49.26,19.35
				C138.2,268.75,137.29,269.6,136.33,270.54L136.33,270.54z"/>
			
				<linearGradient id="SVGID_00000011015982461870774560000012914635016067430845_" gradientUnits="userSpaceOnUse" x1="327.9835" y1="-860.7445" x2="322.1358" y2="-857.4455" gradientTransform="matrix(1 0 0 1 -172.5 1107.38)">
				<stop  offset="0" style="stop-color:#355775"/>
				<stop  offset="0.03" style="stop-color:#345572"/>
				<stop  offset="0.22" style="stop-color:#2E4B66"/>
				<stop  offset="0.47" style="stop-color:#2B465E"/>
				<stop  offset="1" style="stop-color:#2A445C"/>
			</linearGradient>
			<path style="fill:url(#SVGID_00000011015982461870774560000012914635016067430845_);" d="M160.15,260.94
				c0.01-0.02,0.01-0.03,0.02-0.05c-0.03-0.04-0.06-0.08-0.08-0.12c0,0,0,0,0-0.01h0c-0.47-0.73-1.04-1.48-1.79-2.26
				c-3.57-3.91-18.61-16.53-34.01-24.7c14.34,8.95,27.51,22.51,30.99,26.32c0.75,0.78,1.31,1.53,1.79,2.26h0c0,0,0,0,0,0.01
				c0.03,0.04,0.06,0.08,0.08,0.12c-0.01,0.02-0.01,0.03-0.02,0.05c0.8,1.91,0.21,3.84-0.62,6.21c-0.7,1.97-2.52,4.87-4.99,8.27
				c0.98,0.23,1.96,0.43,2.95,0.59c2.51-3.45,4.38-6.39,5.08-8.39C160.38,266.87,160.96,262.85,160.15,260.94L160.15,260.94z"/>
			
				<linearGradient id="SVGID_00000031187953964866461430000006284538449752599937_" gradientUnits="userSpaceOnUse" x1="313.8066" y1="-807.4813" x2="325.8064" y2="-799.9222" gradientTransform="matrix(1 0 0 1 -172.5 1107.38)">
				<stop  offset="0" style="stop-color:#F8A164"/>
				<stop  offset="0.1" style="stop-color:#F8A469"/>
				<stop  offset="0.63" style="stop-color:#F7B37B"/>
				<stop  offset="1" style="stop-color:#F7B882"/>
			</linearGradient>
			<path style="fill:url(#SVGID_00000031187953964866461430000006284538449752599937_);" d="M137.01,322.67
				c-5.3-0.87-11.49-6.07-10.99-9.59c0.59-4.12,18.21-22.56,28.15-35.51c-0.88-0.15-1.76-0.33-2.64-0.53
				c-0.03,0.04-0.06,0.08-0.09,0.13c-0.5-0.08-1-0.19-1.51-0.29c-9.08,12.97-27.26,33.05-27.88,37.38
				c-0.5,3.52,5.69,8.71,10.99,9.59c3.98,0.65,5.66-0.34,6.31,0.23c0.56,1.12,0.4,1.93-0.27,2.5c3.37-0.32,5.45-1.27,4.25-3.67
				C142.66,322.34,140.99,323.33,137.01,322.67L137.01,322.67z"/>
			<path class="st9" d="M168.41,173.21c0,0-0.1,3.65,3.05,4.63C169.34,178.33,166.58,176.37,168.41,173.21z"/>
			<path class="st9" d="M190.56,179.01c-0.4,0.14-0.77-0.13-0.76-0.6c0-0.24-0.03-0.51-0.09-0.81c-0.03,0.1-6.54-5.55-6.4-13.27
				c0.09,0.09,0.17,0.18,0.24,0.26c0.03,0.04,0.06,0.08,0.09,0.12c0,0.03,0,0.05,0.01,0.07c2.76,11.57,8.09,11.32,7.98,11.34
				c0.17,0.09,0.33,0.19,0.46,0.3c0.48,0.41,0.43,1.04,0.14,1.28c-0.17,0.14-0.47,0.19-0.78-0.14c-0.2-0.21-0.46-0.42-0.77-0.62
				c0.25,0.38,0.41,0.8,0.44,1.16C191.15,178.58,190.85,178.9,190.56,179.01L190.56,179.01z"/>
			<g>
				<path class="st13" d="M145.08,178.72c-2.7-2.59-4.71-4.88-8.33-4.75c-8.75,0.31-35.71,7.19-36.53,8.72
					c-0.82,1.53,3.56,10.49,9.63,15.31c6.08,4.82,15.58,7.76,15.58,7.76l17.8-7.2c0,0-0.57-1.88-2.35-1.85
					c-1.78,0.03-2.94-0.39-7.25,1.43c-4.31,1.82-8.12,1.95-9.58,1.37c-1.46-0.58-8.97-8.74-9.77-10.55
					c-0.81-1.81,17.83-3.19,18.93-3.16C137.94,185.92,146.72,180.29,145.08,178.72z"/>
				<path class="st13" d="M158.13,200.54c0,0,3.94,6.23,3.32,11.21c-0.41,3.31-4.89,7.41-8.13,12.75
					c-3.25,5.34-12.85,19.12-17.47,20.78c-4.62,1.66-4.63-0.9-6.49-9.56c-1.86-8.66-4.53-28.93-3.26-29.83
					c1.27-0.9,17.61-8.68,18.6-7.95c0.99,0.73,1.11,1.97-1.02,3.39c-2.13,1.42-13.46,7.16-13.36,9.18s6.98,18.45,7.55,20.33
					c0.57,1.88,4.03-8.5,8.33-15.44C150.49,208.44,153.56,203.21,158.13,200.54L158.13,200.54z"/>
			</g>
		</g>
	</g>
</g>
</svg>
