<?xml version="1.0" encoding="utf-8"?>
<!-- Generator: Adobe Illustrator 26.5.0, SVG Export Plug-In . SVG Version: 6.00 Build 0)  -->
<svg version="1.1" id="Layer_1" xmlns="http://www.w3.org/2000/svg" xmlns:xlink="http://www.w3.org/1999/xlink" x="0px" y="0px"
	 viewBox="0 0 250 180.6" style="enable-background:new 0 0 250 180.6;" xml:space="preserve">
<style type="text/css">
	.st0{fill:#B2BCC4;}
	.st1{fill:#D1E5FF;}
	.st2{fill:url(#SVGID_1_);}
	.st3{fill:#FFFFFF;}
	.st4{fill:#8E5624;}
	.st5{fill:#452815;}
	.st6{fill:#F7B882;}
	.st7{fill:#355775;}
	.st8{fill:url(#SVGID_00000134957351869745320600000015649589536951913124_);}
	.st9{fill:url(#SVGID_00000052104577549454855950000010930547777871006117_);}
	.st10{fill:#F3B67F;}
</style>
<g>
	<g>
		<path class="st0" d="M224.4,169.9c0-4.8-44.9-8.7-100.4-8.7S23.6,165,23.6,169.9s44.9,8.7,100.4,8.7S224.4,174.7,224.4,169.9z"/>
		<g>
			<path class="st1" d="M172.8,20.8C178,14,183.4,8.3,183.5,8.2c0.1-0.1,0.2-0.1,0.3,0s0.1,0.2,0,0.3s-12.4,13-17.6,23
				c-0.1,0.1-0.2,0.1-0.3,0.1s-0.1-0.2-0.1-0.3C167.6,27.9,170.2,24.2,172.8,20.8L172.8,20.8z"/>
			
				<radialGradient id="SVGID_1_" cx="315.7646" cy="-1062.3428" r="39.6643" gradientTransform="matrix(1 0 0 1 -172.5 1107.38)" gradientUnits="userSpaceOnUse">
				<stop  offset="0.22" style="stop-color:#F8A164"/>
				<stop  offset="0.3" style="stop-color:#F8A469"/>
				<stop  offset="0.71" style="stop-color:#F7B37B"/>
				<stop  offset="1" style="stop-color:#F7B882"/>
			</radialGradient>
			<path class="st2" d="M181,21.5c-0.5-1.4-1.4-2.7-1.9-4.1c-0.4-1.1-0.7-2.4-0.1-3.4c-1.2,1.2-3.2-0.4-4.2-1.1
				c-0.8-0.6-0.3-2.1-1.3-2.2c-1.2-0.2-2.4,0.2-3.4,0.6c-0.9,0.4-1.7,0.9-2.5,1.4c-0.4,0.3-0.9,0.6-1.4,0.8
				c-0.2,0.1-0.5,0.2-0.8,0.3c-0.1,0-0.2,0-0.2,0c-0.1,0-0.1-0.1,0-0.1l-0.2-0.1l0,0l-0.1-0.1c-0.2,0-0.4,0-0.6,0.1
				c-0.2,0.1-0.5,0.2-0.7,0.4c-0.4,0.3-0.8,0.7-1,1.2c-0.5,0.8-0.4,1.9-1.1,2.6l0,0c-0.3,0.3-0.6,0.7-0.9,1.1
				c-0.4,0.5-0.9,1.1-1.2,1.7c-0.3,0.6-0.5,1.2-0.7,1.8c-0.2,0.5-0.4,1.5-0.6,2.7c-1.1,0.6-2.1,1.1-3.2,1.7
				c-2.5,1.3-4.6,0.3-6.7-1.2c-2.6-1.9-4.2-4-7.3-4.3c-2.7-0.2-33.2,18.3-52.3,33.6c3.9,6.9,15.4,9.6,19.1,16.6
				c0.8-1,37.5-10.4,38.4-10.4c-0.3,0.2,14.5-7.3,14.1-10.4c-0.1-0.6-2.2-8.9-2.2-9.5l0,0l0,0l0,0c-0.1-1.9,0.1-3.7,1.8-5
				c1.2-0.9,2.4-1.7,3.7-2.5l0,0l0,0v-0.1h-0.1c1,0.3,2,0.6,2.5,0.7c0.6,0.1,1.2,0.2,1.9,0.2s1.4-0.1,2-0.2c0.6-0.1,1.2-0.3,1.8-0.4
				c0.8,0,1.5,0.3,2.3,0.3c0.5,0,1-0.1,1.5-0.3c0.2-0.1,0.5-0.2,0.7-0.4c0.2-0.1,0.3-0.3,0.4-0.5v-0.1l0,0l0.1-0.8c0,0,0,0,0-0.1
				c1.3-0.6,2.4-1.5,3.5-2.4c1-0.8,1.9-1.7,2.5-2.8C183.4,24.8,181.8,23.5,181,21.5L181,21.5z"/>
			<path class="st3" d="M145.1,61.1c1.8-1.7,2.2-5.7,3.9-7.6c3.1-3.6,9.4-9.3,9.3-9.3c0-0.1-0.5-3.1-0.4-3.2l0,0
				c-4.6,4.3-5.5,3.1-12.5,5.6c-5.7,2-11.1,0.1-10-7.1c0.4-2.5,8.9-10.7,13.1-13.2c0.1-0.1-1.9-2.5-1.9-2.5
				c-1.9,2.6-7.3,6.4-14.1,7.7c-0.8,0.1-8.1-0.4-9.6-1c-5.2,3-9.8,6.7-10.6,7.5c0,0,5.4,12.4,8.9,17.2c2.2,3.1,6.8,9.3,10.6,10.6
				c0.1,0,5.1-1.7,6.1-2.2C137.9,63.5,142.6,63.4,145.1,61.1L145.1,61.1z"/>
			<path class="st4" d="M187.9,24.4c0.7-1.4,1.4-3.6,1.4-5.5c0.4-0.1,0.7-0.2,1-0.4c2.4-1.4,2.7-5.2,0.8-8.6c-2-3.3-5.5-4.9-7.8-3.5
				c-0.5,0.3-0.9,0.7-1.2,1.2L182,7.5c-0.8-0.6-3.1-0.9-4.5-0.9c-1.1-0.1-4.2,1-5.3,1.6c-1.4,0.8-2.6,1.6-3.7,2.4
				c-0.5,0.4-1.1,0.9-1.7,1.4l-0.1,0.1c-0.4,0.4-0.9,0.8-1.2,1.2c-0.1,0-0.2,0.1-0.3,0.1s-0.1,0.1-0.1,0.1v0.1l0.1,0.1
				c0.1,0,0.1,0,0.2,0l0,0l0,0c0.3,0,0.6-0.1,0.9-0.3c6-3.4,10.9,1.1,12,0.9c0.2,0,0.4-0.1,0.6-0.2c-0.4,1.1-0.1,2.4,0.2,3.2
				c0.3,0.7,0.6,1.4,0.9,2c1.1,2.2,3.6,8.1-3.7,12.3c0,0-0.1,0-0.1,0.1v0.1c0,0.1,0.1,0.1,0.1,0.1l0,0h0.1c1.2-0.3,2.5-0.8,3.6-1.3
				C181.1,30.3,186.8,26.5,187.9,24.4L187.9,24.4z"/>
			<path class="st5" d="M172.3,24.4c0,0-0.1,3.6,3.1,4.6C173.2,29.6,170.5,27.6,172.3,24.4z"/>
			<path class="st1" d="M122.1,52.8c-5.1-8.6-6-17.2-6-17.3s0.1-0.2,0.2-0.2s0.2,0.1,0.2,0.2c0,0.2,2.1,19.5,17.4,29.1
				c0.1,0.1,0.2,0.2,0.1,0.3c0,0.1-0.2,0.1-0.3,0.1C128.4,61.7,124.7,57.2,122.1,52.8L122.1,52.8z"/>
			<path class="st6" d="M155.3,106.5c0,0-1.1-1.6-1.9-2.4c-4.5-4.9-23.1-25.8-41.3-32.5c-11.1,0.8-23.1,0-33.9-3.4
				c-0.5,1.4-0.9,2.9-1.2,4.5c-1.1,7.8,5.1,14.4,12.9,19.8c13.5,10,37.5,13.9,49.3,19.4c-2.1,2.1-4.4,2.8-7.3,6.2
				c-4.5,5.6-6.2,11-7.9,15.7c-2.2,5.6-5.4,12.6-9.6,18.9c-2.4,3.6-7.3,10.5-7.2,10.5c-1.9,2.8-2.7,6.2,0,7
				c2.9,0.9,7.1,0.8,10.1,0.7c2.3-0.1,6.3,0.2,11.5,0.9c6.6,0.2,12.6,0,10.8-3.7c-0.6-0.6-2.3,0.4-6.3-0.2c-5.3-0.9-11.5-6.1-11-9.6
				c0.8-5.4,29.1-35.6,32.6-45.5C155.5,110.4,156.1,108.5,155.3,106.5L155.3,106.5L155.3,106.5z"/>
			<path class="st7" d="M136.3,114.5c0,0-0.5-0.3-0.5-0.2c3.8,3.8,10,6,15.6,6.9c2.5-3.5,4.4-6.4,5.1-8.4c0.8-2.4,1.4-4.3,0.6-6.2
				l0,0l-0.1-0.1l0,0l0,0c-0.5-0.7-1-1.5-1.8-2.3c-4.7-5.2-23-26.4-43.9-33.5c0,0-10.3-15.5-18.7-19.4C83,56.5,77.1,63.6,76.9,72.8
				c-0.2,7.9,5.1,14.4,12.9,19.8c13.5,10,37.5,13.9,49.3,19.4C138.2,112.8,137.3,113.6,136.3,114.5L136.3,114.5z"/>
			
				<linearGradient id="SVGID_00000022550017736936098460000001766805640458945948_" gradientUnits="userSpaceOnUse" x1="327.9126" y1="-1016.8702" x2="322.0649" y2="-1013.5712" gradientTransform="matrix(1 0 0 1 -172.5 1107.38)">
				<stop  offset="0" style="stop-color:#355775"/>
				<stop  offset="3.000000e-02" style="stop-color:#345572"/>
				<stop  offset="0.22" style="stop-color:#2E4B66"/>
				<stop  offset="0.47" style="stop-color:#2B465E"/>
				<stop  offset="1" style="stop-color:#2A445C"/>
			</linearGradient>
			<path style="fill:url(#SVGID_00000022550017736936098460000001766805640458945948_);" d="M160.1,104.9
				C160.2,104.9,160.2,104.9,160.1,104.9c0-0.1,0-0.1-0.1-0.2l0,0l0,0c-0.5-0.7-1-1.5-1.8-2.3c-3.6-3.9-18.6-16.5-34-24.7
				c14.3,8.9,27.5,22.5,31,26.3c0.8,0.8,1.3,1.5,1.8,2.3l0,0l0,0l0.1,0.1l0,0c0.8,1.9,0.2,3.8-0.6,6.2c-0.7,2-2.5,4.9-5,8.3
				c1,0.2,2,0.4,2.9,0.6c2.5-3.5,4.4-6.4,5.1-8.4C160.4,110.9,161,106.9,160.1,104.9L160.1,104.9z"/>
			
				<linearGradient id="SVGID_00000150088596156986835740000014464773551312252815_" gradientUnits="userSpaceOnUse" x1="313.8086" y1="-963.4845" x2="325.8084" y2="-955.9253" gradientTransform="matrix(1 0 0 1 -172.5 1107.38)">
				<stop  offset="0" style="stop-color:#F8A164"/>
				<stop  offset="0.1" style="stop-color:#F8A469"/>
				<stop  offset="0.63" style="stop-color:#F7B37B"/>
				<stop  offset="1" style="stop-color:#F7B882"/>
			</linearGradient>
			<path style="fill:url(#SVGID_00000150088596156986835740000014464773551312252815_);" d="M137,166.7c-5.3-0.9-11.5-6.1-11-9.6
				c0.6-4.1,18.2-22.6,28.2-35.5c-0.9-0.1-1.8-0.3-2.6-0.5l-0.1,0.1c-0.5-0.1-1-0.2-1.5-0.3c-9.1,13-27.3,33-27.9,37.4
				c-0.5,3.5,5.7,8.7,11,9.6c4,0.6,5.7-0.3,6.3,0.2c0.6,1.1,0.4,1.9-0.3,2.5c3.4-0.3,5.4-1.3,4.2-3.7
				C142.7,166.3,141,167.3,137,166.7L137,166.7z"/>
			<path class="st5" d="M168.4,17.2c0,0-0.1,3.6,3.1,4.6C169.3,22.3,166.6,20.4,168.4,17.2z"/>
			<path class="st5" d="M190.6,23c-0.4,0.1-0.8-0.1-0.8-0.6c0-0.2,0-0.5-0.1-0.8c0,0.1-6.5-5.6-6.4-13.3c0.1,0.1,0.2,0.2,0.2,0.3
				l0.1,0.1v0.1c2.8,11.6,8.1,11.3,8,11.3c0.2,0.1,0.3,0.2,0.5,0.3c0.5,0.4,0.4,1,0.1,1.3c-0.2,0.1-0.5,0.2-0.8-0.1
				c-0.2-0.2-0.5-0.4-0.8-0.6c0.2,0.4,0.4,0.8,0.4,1.2C191.1,22.6,190.9,22.9,190.6,23L190.6,23z"/>
			<g>
				<path class="st10" d="M145.1,22.7c-2.7-2.6-4.7-4.9-8.3-4.8c-8.8,0.3-35.7,7.2-36.5,8.7s3.6,10.5,9.6,15.3
					c6.1,4.8,15.6,7.8,15.6,7.8l17.8-7.2c0,0-0.6-1.9-2.4-1.9s-2.9-0.4-7.2,1.4c-4.3,1.8-8.1,1.9-9.6,1.4s-9-8.7-9.8-10.6
					c-0.8-1.8,17.8-3.2,18.9-3.2C137.9,29.9,146.7,24.3,145.1,22.7z"/>
				<path class="st10" d="M158.1,44.5c0,0,3.9,6.2,3.3,11.2c-0.4,3.3-4.9,7.4-8.1,12.8c-3.2,5.3-12.9,19.1-17.5,20.8
					s-4.6-0.9-6.5-9.6s-4.5-28.9-3.3-29.8c1.3-0.9,17.6-8.7,18.6-7.9c1,0.7,1.1,2-1,3.4s-13.5,7.2-13.4,9.2s7,18.4,7.6,20.3
					s4-8.5,8.3-15.4C150.5,52.4,153.6,47.2,158.1,44.5L158.1,44.5z"/>
			</g>
		</g>
	</g>
</g>
</svg>
