<?xml version="1.0" encoding="utf-8"?>
<!-- Generator: Adobe Illustrator 26.5.0, SVG Export Plug-In . SVG Version: 6.00 Build 0)  -->
<svg version="1.1" id="Layer_1" xmlns="http://www.w3.org/2000/svg" xmlns:xlink="http://www.w3.org/1999/xlink" x="0px" y="0px"
	 viewBox="0 0 250 103.8" style="enable-background:new 0 0 250 103.8;" xml:space="preserve">
<style type="text/css">
	.st0{fill:#B2BCC4;}
	.st1{fill:url(#SVGID_1_);}
	.st2{fill:#F5B780;}
	.st3{fill:#F7B882;}
	.st4{fill:#8F5424;}
	.st5{fill:#452713;}
	.st6{fill:#CE986E;}
	.st7{fill:#F3AF80;}
	.st8{fill:#FFFFFF;}
	.st9{fill:#355775;}
	.st10{fill:#D1E5FF;}
</style>
<g>
	<g>
		<ellipse class="st0" cx="125" cy="95.7" rx="125" ry="8.1"/>
		<g>
			
				<linearGradient id="SVGID_1_" gradientUnits="userSpaceOnUse" x1="1657.2306" y1="-610.844" x2="1665.905" y2="-594.183" gradientTransform="matrix(-0.8067 0.4826 0.4827 0.8066 1803.5095 -254.9844)">
				<stop  offset="0" style="stop-color:#F8A164"/>
				<stop  offset="0.1" style="stop-color:#F8A469"/>
				<stop  offset="0.63" style="stop-color:#F7B37B"/>
				<stop  offset="1" style="stop-color:#F7B882"/>
			</linearGradient>
			<path class="st1" d="M130.2,58.7c-1.4-0.9,0.1-2.5,2.1-3.3c0.4-0.1,6.4-1.4,6.4-1.4c-0.8-0.5-5.1,0.2-4.3-1.4
				c1.3-0.4,2.5-0.5,6.5-0.3c1.6,0.1,3.3,1.6,4.7,2s27.1-0.4,31.6-1c9.7-1.5,22.1-7.9,25.1-8.7c10.7-2.7,14.7,6.9,9.7,10
				c-7,4-31.3,6.4-35.3,6c-8.4,1.5-25.5-2.4-32.6-1.3C144.1,59.2,132,60,130.2,58.7L130.2,58.7z"/>
			<path class="st2" d="M105.9,76.7c-3-1.7-6.2-3.6-8.6-4.6C85.5,67.2,72.5,72.2,61,68c-3.6-1.1-5-5.5-8-6.4
				c-3.2-1.3-6.4,2.2-9.1,3.8c0,0-13.4-1.1-14.6,0.3c-1.1,1.4,1.2,1.8,1.9,2.6c7.5,1.7,14.3,3.6,21.5,5.8c15,4.4,30.4,8.3,44.9,14.3
				c1.3,0.5,3.2,1.3,5.2,2C102.5,85.6,103,80.6,105.9,76.7L105.9,76.7z"/>
			<g>
				<path class="st3" d="M215.1,43.9c0.1-0.3,0.5-9,1.1-10c-4-0.4-7.7-0.8-11.7-1c0.9-0.9,0.3,7.4-1.1,8.9c-4,4.2-7.2,6.7-9.3,8.9
					c-8.1,8.7-4.2,22.4-20.8,19.5c3.8,5.8-0.6,19.3,2.6,25.4c8.6-0.4,16.2-4.6,23.4-12.1s18.5-26,17.4-26.3
					C216.9,56.3,214.7,45.8,215.1,43.9L215.1,43.9z"/>
				<path class="st3" d="M223.7,23.5c-0.7-0.6-1.6-1-2.2-1.7c-0.2-0.2-0.4-0.4-0.5-0.6c-0.1-0.1-0.1-0.2-0.2-0.3
					c0.5-0.1,1.1-0.8,1.1-1.4c-0.3,0.4-0.9,0.7-1.5,0.6c-0.1-0.5-0.2-1.1-0.3-1.7c-0.1-1.1-0.4-2.2-0.9-3.2
					c-0.2-0.6-1.1-1.9-2.3-3.4c-16.6,7.5-12.9,21.7-14,22.8c0.2,0.2,0.5,0.4,0.7,0.6c0.3,0.9,2,1.9,2,3.4c3.7-0.9,5.8-1.6,9.5-2.5
					c0.1-0.5,0.2-0.9,0.3-1.1c0.4,0,0.8,0,1.2,0c1.9,0,4.5-0.2,5.4-0.5c1.6-0.5,1.1-1.8,0.6-3.1c-0.2-0.7-0.4-1.4,0.2-1.9
					c0.3-0.3,0.5-0.3,0.7-0.7c0.1-0.2,0-0.5-0.1-0.7c-0.2-0.4-0.6-0.3-0.1-0.5c0.4-0.1,0.5-0.8,0.3-1.2c-0.2-0.6-0.9-0.5-0.3-1.5
					c0.2-0.3,0.4-0.5,0.6-0.8C224.1,24,223.9,23.7,223.7,23.5L223.7,23.5z"/>
				<path class="st4" d="M201.9,34.7c-1.2-1.1-3.5-3.5-4.7-6.5c-1-2.6-1-4.2-0.8-5c0-0.1,0.1-0.3,0.1-0.4c-0.9,0.2-3,0.4-4.4-2
					c-0.9-1.5-1.1-3.9-0.6-6.5c0.7-3.2,2.8-7.1,6.4-7.4c1.3-0.1,2.4,0.4,3.1,0.9c-0.1-0.2-0.1-0.4-0.1-0.6c0-0.7,0.6-1.1,1.1-1
					c0.3,0.1,0.5,0.3,0.5,0.8c-0.1,0.3,0,0.7,0,1.1c0.2-0.5,0.4-0.9,0.7-1.2c0.4-0.4,0.9-0.4,1.3-0.2c0.4,0.2,0.5,0.8,0,1.1
					c-0.2,0.2-0.4,0.4-0.7,0.7c2.1-0.9,5.2-1.9,8.6-0.6c2.1,0.8,4.5,2.2,5.5,4.7l0.1,0.1l-0.1,0.1c-3,4.6-6.4,6-6.5,10.3h-0.3
					c-0.4-1-1.4-1.1-1.9-1.2c-0.8-0.1-2.4,0.6-2.3,2.4c0.1,2.7,2.6,5.1,2.6,5.1s-2.9,7.2-4.8,7.5L201.9,34.7L201.9,34.7L201.9,34.7z
					"/>
				<path class="st5" d="M204.5,6.7c0.4,0.2,0.5,0.8,0,1.1c-0.2,0.2-0.4,0.4-0.7,0.7c0.1-0.1-0.2,9.7-7.5,15.1c0-0.1,0-0.3,0.1-0.4
					c0-0.1,0-0.1,0.1-0.2c0,0,0,0,0.1-0.1c8.7-10.8,4.4-15.2,4.5-15.1C201,7.6,201,7.4,201,7.2c0-0.7,0.6-1.1,1.1-1
					c0.3,0.1,0.5,0.3,0.5,0.8c-0.1,0.3,0,0.7,0,1.1c0.2-0.5,0.4-0.9,0.7-1.2C203.7,6.5,204.2,6.5,204.5,6.7z"/>
				<path class="st5" d="M222.1,19c0,0-1.2,1.3-3.4,1.7C217.1,21,221.5,22.5,222.1,19z"/>
				<path class="st6" d="M221.6,34.6c0,0-4.6,1-8.8,0.3C215.1,34.7,218.1,34.8,221.6,34.6z"/>
				<path class="st7" d="M218.8,29.8c-2.7,0.8-5.7-2.3-4.6-5.3C215.2,21.6,220.5,29.3,218.8,29.8z"/>
				<path class="st8" d="M216.6,49.1c-2.3-4.8-6.4-5.6-10.6-3.3c-5.4,2.9-7,8.4-9,9.4c-4.2,2.1-4.7-0.4-4.9-2.2
					c-1.8,3.2-4,8.2-5.2,11.5c1.5,1.9,11.1,12.2,16.5,14.2c0.6-1.1,6.9-8.5,6.9-8.5c4,0.8,9.5-2.2,9.6-6.9
					C219.8,61.5,217.6,52.1,216.6,49.1L216.6,49.1z"/>
			</g>
			<path class="st9" d="M179.3,70.2c-2.6,0.6-21.2-6.1-26.5,6.2c-7.7,1-38.4,1.1-43.6,1.1c-1.6-0.2-3.3-2.1-5.3-2.5
				c-1.6,4.6-3.9,10.6-2.2,15.3c11.7,5.6,66.1,8.7,72.8,7c3.9-1,7.1-1.8,9.6-3.4C184.9,86.4,180.5,70,179.3,70.2L179.3,70.2z"/>
			<path class="st10" d="M204.1,77.3H204c-6.1-3.3-16-13.8-16.1-14c-0.1-0.1-0.1-0.2,0-0.3c0.1-0.1,0.2-0.1,0.3,0s9.9,10.6,16,13.9
				c0.1,0.1,0.2,0.2,0.1,0.3C204.3,77.3,204.2,77.3,204.1,77.3z"/>
			<path class="st3" d="M128.1,63.1c-0.9-1.5,0.2-2.2,1.2-2.7c0.4-0.2,6.8-1.9,6.8-1.9c-0.9-0.5-5.4,0.5-4.7-1.2
				c1.3-0.5,2.6-0.7,6.9-0.7c1.7,0,3.6,1.5,5.1,1.8s28.5-1.7,33.2-2.6c10.1-2.2,23.1-10,26.2-11c11.1-3.5,16,6.4,10.9,10
				c-7.2,4.6-33,8.9-37.3,8.7c-8.8,2-25.5-1.5-32.9,0.1C143.6,63.5,128.9,64.3,128.1,63.1L128.1,63.1z"/>
		</g>
	</g>
</g>
</svg>
