<?xml version="1.0" encoding="utf-8"?>
<!-- Generator: Adobe Illustrator 26.5.0, SVG Export Plug-In . SVG Version: 6.00 Build 0)  -->
<svg version="1.1" id="Layer_1" xmlns="http://www.w3.org/2000/svg" xmlns:xlink="http://www.w3.org/1999/xlink" x="0px" y="0px"
	 viewBox="0 0 250 400" style="enable-background:new 0 0 250 400;" xml:space="preserve">
<style type="text/css">
	.st0{fill:#355775;}
	.st1{font-family:'FarmWaveFree-Regular';}
	.st2{font-size:24.2541px;}
	.st3{letter-spacing:1;}
	.st4{fill:#B2BCC4;}
	.st5{fill:url(#SVGID_1_);}
	.st6{fill:#F5B780;}
	.st7{fill:#F7B882;}
	.st8{fill:#8F5424;}
	.st9{fill:#452713;}
	.st10{fill:#CE986E;}
	.st11{fill:#F3AF80;}
	.st12{fill:#FFFFFF;}
	.st13{fill:#D1E5FF;}
</style>
<g>
	<text transform="matrix(1 0 0 1 87.52 364.6782)" class="st0 st1 st2 st3">Locu</text>
	<text transform="matrix(1 0 0 1 139.9658 364.6782)" class="st0 st1 st2 st3">s</text>
	<text transform="matrix(1 0 0 1 152.2617 364.6782)" class="st0 st1 st2 st3">t</text>
	<g>
		<ellipse class="st4" cx="125" cy="325.67" rx="125" ry="8.06"/>
		<g>
			
				<linearGradient id="SVGID_1_" gradientUnits="userSpaceOnUse" x1="1657.3147" y1="-380.8878" x2="1665.9891" y2="-364.2267" gradientTransform="matrix(-0.8067 0.4826 0.4827 0.8066 1692.4885 -210.5024)">
				<stop  offset="0" style="stop-color:#F8A164"/>
				<stop  offset="0.1" style="stop-color:#F8A469"/>
				<stop  offset="0.63" style="stop-color:#F7B37B"/>
				<stop  offset="1" style="stop-color:#F7B882"/>
			</linearGradient>
			<path class="st5" d="M130.17,288.73c-1.36-0.92,0.14-2.53,2.05-3.3c0.37-0.15,6.45-1.42,6.45-1.42
				c-0.84-0.48-5.08,0.24-4.31-1.38c1.26-0.42,2.5-0.53,6.52-0.33c1.56,0.08,3.28,1.62,4.7,1.96c1.42,0.35,27.15-0.39,31.61-0.98
				c9.66-1.55,22.05-7.9,25.06-8.73c10.66-2.68,14.66,6.86,9.7,9.96c-7.04,3.95-31.28,6.41-35.31,5.98
				c-8.36,1.47-25.51-2.44-32.55-1.31C144.1,289.17,131.97,289.95,130.17,288.73L130.17,288.73z"/>
			<path class="st6" d="M105.87,306.69c-3.04-1.7-6.25-3.56-8.64-4.6c-11.79-4.89-24.85,0.11-36.26-4.06
				c-3.58-1.12-4.95-5.48-7.98-6.43c-3.22-1.31-6.44,2.22-9.06,3.83c0,0-13.39-1.11-14.58,0.33c-1.13,1.36,1.19,1.83,1.85,2.64
				c7.49,1.72,14.32,3.59,21.49,5.83c14.97,4.37,30.4,8.28,44.86,14.31c1.26,0.53,3.16,1.28,5.18,2.05
				C102.52,315.65,103.01,310.59,105.87,306.69L105.87,306.69z"/>
			<g>
				<path class="st7" d="M215.13,273.85c0.14-0.3,0.53-9.01,1.06-9.96c-3.99-0.36-7.67-0.79-11.67-1.04
					c0.86-0.94,0.33,7.41-1.09,8.91c-3.99,4.24-7.23,6.67-9.27,8.88c-8.06,8.74-4.17,22.37-20.84,19.45
					c3.77,5.79-0.58,19.33,2.64,25.43c8.62-0.42,16.18-4.61,23.35-12.09c7.17-7.48,18.48-25.97,17.37-26.27
					C216.94,286.29,214.66,275.76,215.13,273.85L215.13,273.85z"/>
				<path class="st7" d="M223.68,253.48c-0.74-0.56-1.55-1.02-2.23-1.66c-0.19-0.21-0.37-0.42-0.53-0.6
					c-0.07-0.09-0.12-0.19-0.17-0.29c0.48-0.06,1.06-0.77,1.15-1.37c-0.33,0.43-0.9,0.66-1.46,0.6c-0.15-0.53-0.21-1.1-0.27-1.7
					c-0.13-1.11-0.44-2.21-0.88-3.25c-0.23-0.55-1.05-1.95-2.33-3.41c-16.65,7.46-12.85,21.72-14.04,22.85
					c0.24,0.23,0.47,0.44,0.69,0.64c0.28,0.85,2.01,1.94,1.96,3.4c3.72-0.93,5.79-1.64,9.52-2.51c0.11-0.46,0.21-0.86,0.27-1.09
					c0.43-0.03,0.84-0.05,1.23-0.04c1.88-0.05,4.53-0.17,5.38-0.46c1.61-0.53,1.13-1.8,0.65-3.07c-0.25-0.67-0.38-1.36,0.21-1.9
					c0.3-0.27,0.52-0.31,0.69-0.69c0.11-0.25-0.01-0.51-0.13-0.72c-0.22-0.37-0.64-0.3-0.12-0.46c0.41-0.13,0.5-0.78,0.34-1.16
					c-0.23-0.56-0.94-0.51-0.26-1.54c0.18-0.27,0.43-0.48,0.59-0.75C224.11,254,223.93,253.68,223.68,253.48L223.68,253.48z"/>
				<path class="st8" d="M201.92,264.72c-1.23-1.13-3.48-3.47-4.66-6.52c-1.02-2.62-1.02-4.18-0.84-5.02
					c0.03-0.14,0.07-0.28,0.11-0.4c-0.9,0.2-3,0.37-4.4-1.97c-0.92-1.54-1.15-3.95-0.62-6.46c0.68-3.23,2.76-7.11,6.43-7.42
					c1.3-0.11,2.35,0.37,3.11,0.91c-0.05-0.22-0.07-0.42-0.06-0.62c0.03-0.71,0.64-1.12,1.09-1.04c0.26,0.05,0.53,0.28,0.46,0.78
					c-0.05,0.32-0.04,0.7,0.01,1.12c0.17-0.49,0.43-0.93,0.74-1.22c0.41-0.38,0.94-0.36,1.26-0.18c0.43,0.25,0.47,0.76,0.02,1.09
					c-0.23,0.17-0.45,0.39-0.68,0.66c2.07-0.86,5.21-1.91,8.62-0.58c2.06,0.81,4.49,2.25,5.5,4.66l0.06,0.15l-0.14,0.08
					c-2.99,4.6-6.35,5.96-6.52,10.33l-0.34,0.01c-0.35-1.02-1.42-1.13-1.91-1.19c-0.8-0.1-2.36,0.61-2.28,2.41
					c0.11,2.73,2.58,5.08,2.58,5.08s-2.87,7.18-4.78,7.5l-2.69-2.13L201.92,264.72L201.92,264.72z"/>
				<path class="st9" d="M204.54,236.68c0.43,0.25,0.47,0.76,0.02,1.09c-0.23,0.17-0.45,0.39-0.68,0.66
					c0.12-0.05-0.2,9.7-7.52,15.14c0.01-0.15,0.04-0.28,0.06-0.4c0.01-0.06,0.03-0.11,0.05-0.17c0.02-0.02,0.04-0.03,0.06-0.06
					c8.7-10.75,4.41-15.19,4.51-15.12c-0.05-0.22-0.07-0.42-0.06-0.62c0.03-0.71,0.64-1.12,1.09-1.04c0.26,0.05,0.53,0.28,0.46,0.78
					c-0.05,0.32-0.04,0.7,0.01,1.12c0.17-0.49,0.43-0.93,0.74-1.22C203.69,236.47,204.22,236.5,204.54,236.68z"/>
				<path class="st9" d="M222.07,249.04c0,0-1.17,1.34-3.41,1.68C217.1,250.96,221.54,252.52,222.07,249.04z"/>
				<path class="st10" d="M221.65,264.64c0,0-4.65,1.03-8.77,0.26C215.06,264.73,218.06,264.77,221.65,264.64z"/>
				<path class="st11" d="M218.76,259.82c-2.74,0.82-5.74-2.34-4.65-5.3C215.22,251.57,220.53,259.3,218.76,259.82z"/>
				<path class="st12" d="M216.6,279.11c-2.29-4.79-6.41-5.61-10.63-3.34c-5.42,2.92-7.02,8.41-8.96,9.38
					c-4.23,2.11-4.73-0.35-4.93-2.22c-1.78,3.16-3.99,8.22-5.21,11.53c1.5,1.89,11.15,12.17,16.47,14.18
					c0.58-1.06,6.87-8.52,6.88-8.53c3.99,0.76,9.49-2.25,9.6-6.9C219.84,291.51,217.56,282.15,216.6,279.11L216.6,279.11z"/>
			</g>
			<path class="st0" d="M179.29,300.23c-2.64,0.56-21.23-6.12-26.54,6.25c-7.72,1.04-38.36,1.11-43.63,1.11
				c-1.57-0.23-3.34-2.09-5.28-2.5c-1.57,4.58-3.9,10.64-2.22,15.29c11.67,5.56,66.1,8.7,72.79,7c3.86-0.98,7.06-1.77,9.62-3.38
				C184.9,316.44,180.49,299.98,179.29,300.23L179.29,300.23z"/>
			<path class="st13" d="M204.13,307.32c-0.04,0-0.08-0.01-0.12-0.03c-6.12-3.34-16.01-13.84-16.11-13.95
				c-0.09-0.1-0.09-0.25,0.01-0.34c0.1-0.09,0.25-0.09,0.34,0.01c0.1,0.11,9.94,10.56,15.99,13.86c0.12,0.06,0.16,0.21,0.09,0.33
				C204.3,307.28,204.22,307.32,204.13,307.32z"/>
			<path class="st7" d="M128.12,293.08c-0.88-1.51,0.21-2.19,1.2-2.71c0.38-0.2,6.75-1.88,6.75-1.88c-0.92-0.46-5.38,0.55-4.66-1.22
				c1.31-0.52,2.62-0.71,6.89-0.73c1.66-0.01,3.58,1.53,5.11,1.81c1.53,0.29,28.53-1.73,33.22-2.62
				c10.14-2.21,23.1-9.96,26.25-11.01c11.13-3.47,15.98,6.44,10.92,10.03c-7.21,4.61-32.99,8.91-37.28,8.68
				c-8.77,2.05-25.47-1.54-32.87,0.07C143.64,293.49,128.85,294.33,128.12,293.08L128.12,293.08z"/>
		</g>
	</g>
</g>
</svg>
