<?xml version="1.0" encoding="UTF-8"?>
<svg id="Layer_1" data-name="Layer 1" xmlns="http://www.w3.org/2000/svg" xmlns:xlink="http://www.w3.org/1999/xlink" viewBox="0 0 876.14 496.19">
  <defs>
    <style>
      .cls-1 {
        letter-spacing: .05em;
      }

      .cls-2 {
        fill: url(#linear-gradient);
      }

      .cls-3 {
        fill: #f7b882;
      }

      .cls-4 {
        fill: #f3af80;
      }

      .cls-5 {
        fill: #f5b780;
      }

      .cls-6 {
        fill: #fff;
      }

      .cls-7 {
        fill: #8f5424;
      }

      .cls-8 {
        fill: #ce986e;
      }

      .cls-9 {
        fill: #b2bcc4;
      }

      .cls-10 {
        fill: #d1e5ff;
      }

      .cls-11, .cls-12 {
        fill: #355775;
      }

      .cls-13 {
        fill: #452713;
      }

      .cls-14 {
        letter-spacing: .07em;
      }

      .cls-12 {
        font-family: FarmWaveFree-Regular, 'Farm Wave Free';
        font-size: 85px;
        isolation: isolate;
      }
    </style>
    <linearGradient id="linear-gradient" x1="1450.48" y1="585.66" x2="1480.88" y2="527.27" gradientTransform="translate(2058.08 -66.87) rotate(149.11) scale(.94) skewX(.01)" gradientUnits="userSpaceOnUse">
      <stop offset="0" stop-color="#f8a164"/>
      <stop offset=".1" stop-color="#f8a469"/>
      <stop offset=".63" stop-color="#f7b37b"/>
      <stop offset="1" stop-color="#f7b882"/>
    </linearGradient>
  </defs>
  <text class="cls-12" transform="translate(306.72 474.94)"><tspan class="cls-14" x="0" y="0">Locu</tspan><tspan class="cls-1" x="183.8" y="0">s</tspan><tspan class="cls-14" x="226.89" y="0">t</tspan></text>
  <g>
    <ellipse class="cls-9" cx="438.07" cy="313.69" rx="438.07" ry="28.25"/>
    <g>
      <path class="cls-2" d="M456.18,184.23c-4.77-3.24,.48-8.86,7.18-11.57,1.3-.53,22.61-4.97,22.61-4.97-2.94-1.68-17.82,.84-15.1-4.84,4.42-1.48,8.77-1.86,22.85-1.16,5.47,.27,11.49,5.66,16.47,6.86,4.98,1.21,95.16-1.37,110.77-3.44,33.84-5.42,77.26-27.7,87.84-30.59,37.37-9.38,51.37,24.03,33.98,34.91-24.67,13.85-109.64,22.47-123.73,20.94-29.29,5.15-89.39-8.54-114.07-4.6,.01,0-42.48,2.76-48.8-1.54Z"/>
      <path class="cls-5" d="M371.04,247.17c-10.65-5.97-21.91-12.48-30.28-16.11-41.31-17.15-87.08,.38-127.06-14.23-12.56-3.92-17.34-19.2-27.97-22.52-11.3-4.58-22.58,7.79-31.76,13.41,0,0-46.93-3.9-51.11,1.14-3.96,4.78,4.18,6.4,6.49,9.24,26.24,6.03,50.19,12.58,75.31,20.42,52.48,15.33,106.54,29.03,157.2,50.15,4.43,1.85,11.06,4.48,18.17,7.2-.76-17.29,.97-35.03,11.01-48.7Z"/>
      <g>
        <path class="cls-3" d="M753.92,132.1c.49-1.06,1.85-31.58,3.71-34.89-14-1.26-26.88-2.78-40.91-3.65,3-3.3,1.14,25.96-3.81,31.22-14,14.87-25.35,23.39-32.47,31.12-28.26,30.62-14.61,78.41-73.05,68.18,13.2,20.28-2.04,67.76,9.25,89.12,30.2-1.46,56.69-16.15,81.82-42.37s64.78-91.02,60.88-92.05c.94-3.1-7.05-40.01-5.42-46.68Z"/>
        <path class="cls-3" d="M783.9,60.72c-2.6-1.98-5.43-3.59-7.83-5.83-.68-.73-1.31-1.46-1.85-2.09-.23-.33-.42-.66-.61-1,1.69-.22,3.72-2.71,4.02-4.81-1.16,1.5-3.14,2.31-5.11,2.12-.52-1.85-.72-3.86-.96-5.97-.45-3.9-1.55-7.75-3.1-11.38-.79-1.91-3.67-6.83-8.17-11.95-58.35,26.16-45.03,76.11-49.2,80.07,.85,.79,1.66,1.54,2.41,2.24,.98,2.98,7.06,6.81,6.88,11.91,13.02-3.27,20.28-5.76,33.37-8.78,.38-1.62,.72-3.03,.95-3.82,1.49-.11,2.94-.18,4.31-.14,6.58-.16,15.87-.6,18.85-1.6,5.65-1.87,3.97-6.31,2.27-10.77-.89-2.36-1.32-4.76,.72-6.66,1.05-.96,1.81-1.09,2.43-2.42,.38-.86-.02-1.79-.45-2.52-.77-1.31-2.23-1.04-.41-1.62,1.45-.45,1.74-2.72,1.2-4.05-.8-1.97-3.31-1.77-.92-5.41,.62-.93,1.49-1.68,2.06-2.64,.64-1.06,0-2.2-.86-2.88Z"/>
        <path class="cls-7" d="M707.64,100.08c-4.32-3.95-12.18-12.17-16.34-22.85-3.57-9.19-3.57-14.65-2.96-17.6,.11-.5,.24-.97,.39-1.39-3.15,.71-10.5,1.31-15.43-6.9-3.22-5.38-4.04-13.85-2.19-22.65,2.37-11.31,9.69-24.9,22.52-26.02,4.56-.39,8.25,1.29,10.89,3.18-.17-.76-.25-1.48-.22-2.16,.09-2.5,2.23-3.94,3.82-3.66,.9,.16,1.87,.97,1.62,2.73-.16,1.13-.14,2.46,.04,3.93,.59-1.72,1.52-3.25,2.61-4.26,1.45-1.33,3.31-1.25,4.42-.62,1.51,.86,1.63,2.67,.06,3.83-.79,.58-1.59,1.36-2.39,2.31,7.25-3,18.27-6.71,30.2-2.05,7.23,2.83,15.72,7.87,19.28,16.34l.21,.51-.48,.28c-10.48,16.11-22.25,20.87-22.86,36.2l-1.2,.05c-1.22-3.57-4.96-3.96-6.71-4.18-2.8-.36-8.26,2.15-8,8.46,.39,9.57,9.03,17.82,9.03,17.82,0,0-10.07,25.17-16.76,26.28l-9.41-7.46-.14-.12Z"/>
        <path class="cls-13" d="M716.81,1.82c1.51,.86,1.63,2.67,.06,3.83-.79,.58-1.59,1.36-2.39,2.31,.41-.17-.7,33.98-26.35,53.05,.05-.52,.13-.98,.21-1.39,.04-.21,.11-.38,.16-.58,.07-.08,.14-.12,.21-.2,30.48-37.66,15.44-53.25,15.81-52.99-.17-.76-.25-1.48-.22-2.16,.09-2.5,2.23-3.94,3.82-3.66,.9,.16,1.87,.97,1.62,2.73-.16,1.13-.14,2.46,.04,3.93,.59-1.72,1.52-3.25,2.61-4.26,1.45-1.32,3.3-1.24,4.42-.61Z"/>
        <path class="cls-13" d="M778.25,45.15s-4.11,4.68-11.95,5.88c-5.47,.84,10.11,6.3,11.95-5.88Z"/>
        <path class="cls-8" d="M776.8,99.81s-16.28,3.62-30.75,.92c7.65-.6,18.15-.47,30.75-.92Z"/>
        <path class="cls-4" d="M766.66,82.94c-9.62,2.88-20.13-8.19-16.28-18.56,3.86-10.36,22.48,16.71,16.28,18.56Z"/>
        <path class="cls-6" d="M759.1,150.54c-8.04-16.8-22.46-19.65-37.26-11.69-18.99,10.23-24.59,29.46-31.41,32.87-14.81,7.41-16.56-1.22-17.29-7.79-6.25,11.08-13.98,28.82-18.26,40.42,5.24,6.63,39.06,42.66,57.71,49.68,2.05-3.73,24.08-29.85,24.11-29.91,13.97,2.68,33.27-7.9,33.64-24.18,.09-5.97-7.88-38.75-11.24-49.4Z"/>
      </g>
      <path class="cls-11" d="M628.33,224.56c-9.25,1.95-74.41-21.46-93.02,21.92-27.06,3.64-134.42,3.9-152.92,3.9-5.51-.81-11.72-7.33-18.51-8.77-5.51,16.05-13.68,37.3-7.79,53.57,40.91,19.48,231.64,30.48,255.09,24.52,13.53-3.44,24.74-6.19,33.71-11.85,3.11-26.49-12.35-84.17-16.56-83.29Z"/>
      <path class="cls-10" d="M715.39,249.4c-.14,0-.28-.03-.41-.11-21.46-11.69-56.12-48.52-56.46-48.89-.32-.34-.3-.87,.05-1.19,.35-.31,.89-.3,1.2,.05,.35,.37,34.82,37,56.04,48.56,.41,.22,.56,.73,.33,1.14-.16,.28-.45,.44-.75,.44Z"/>
      <path class="cls-3" d="M448.99,199.48c-3.08-5.29,.73-7.67,4.19-9.49,1.32-.69,23.65-6.6,23.65-6.6-3.23-1.61-18.84,1.94-16.32-4.27,4.59-1.83,9.18-2.49,24.16-2.56,5.82-.03,12.55,5.35,17.91,6.34,5.36,1,99.99-6.05,116.41-9.17,35.53-7.73,80.95-34.89,91.98-38.58,39.01-12.15,56.01,22.56,38.28,35.14-25.26,16.17-115.62,31.21-130.66,30.41-30.72,7.18-89.26-5.39-115.18,.24,0,0-51.86,2.93-54.42-1.46Z"/>
    </g>
  </g>
</svg>