<?xml version="1.0" encoding="UTF-8"?>
<svg id="Layer_1" data-name="Layer 1" xmlns="http://www.w3.org/2000/svg" xmlns:xlink="http://www.w3.org/1999/xlink" viewBox="0 0 876.98 947.87">
  <defs>
    <style>
      .cls-1 {
        fill: url(#linear-gradient);
      }

      .cls-2 {
        fill: #f7b882;
      }

      .cls-3 {
        fill: #f5b080;
      }

      .cls-4 {
        fill: #fff;
      }

      .cls-5 {
        fill: #905423;
      }

      .cls-6 {
        fill: #b2bcc4;
      }

      .cls-7 {
        fill: #d1e5ff;
      }

      .cls-8 {
        fill: #d09a6f;
      }

      .cls-9, .cls-10 {
        fill: #355775;
      }

      .cls-11 {
        fill: #46260f;
      }

      .cls-10 {
        font-family: FarmWaveFree-Regular, 'Farm Wave Free';
        font-size: 85px;
        isolation: isolate;
        letter-spacing: .07em;
      }
    </style>
    <linearGradient id="linear-gradient" x1="445.29" y1="858.16" x2="433.72" y2="1059.35" gradientTransform="translate(0 1408.4) scale(1 -1)" gradientUnits="userSpaceOnUse">
      <stop offset="0" stop-color="#355775"/>
      <stop offset=".03" stop-color="#345572"/>
      <stop offset=".22" stop-color="#2e4b66"/>
      <stop offset=".47" stop-color="#2b465e"/>
      <stop offset="1" stop-color="#2a445c"/>
    </linearGradient>
  </defs>
  <text class="cls-10" transform="translate(228.55 926.62)"><tspan x="0" y="0">Half moon</tspan></text>
  <g>
    <ellipse class="cls-6" cx="438.49" cy="760.94" rx="438.49" ry="32.21"/>
    <g>
      <path class="cls-2" d="M483.96,615.94c-1.48-50.15-14.76-59.61-12.15-90.31h-42.64c1.4,21.96,16.82,197.66,4.56,208.91l-28.62,26.58c5.45,11.41,34.91,13.29,48.2,9.2,11.77,8.29,23.51-30.67,23.51-30.67,5.11-6.65-8.63-12.4-8.18-28.62,1.01-36.82,16.34-60.33,15.32-95.09Z"/>
      <path class="cls-1" d="M472.37,520.54c2.44-16.53,14.66-126.44,1.37-207.21-35.56,2.34-88.09,19.47-83.67,45.98,5.21,31.31,11.89,60.51,15.43,73.71,8.5,26.35,19.53,54.17,22.68,81.94,1.06,8.26-.41,27.32-.44,35.55,13.96,1.95,32.89,1.89,47.03,0-.46-6.27-3.4-23.24-2.4-29.97Z"/>
      <path class="cls-2" d="M854.28,83.88c-6.3-6.73-43.45,10.06-55.44,10.67-9.6,1.89-10.81-5.62-20.2-7.76-4.69-1.07-10.43-2.43-14.85,.43-3.94,2.77-6.74,8.8-7.33,13.4l-.04,.67c-7.7,11.48-11.15,12.36-24.66,18.13-43.2,18.45-69.85,19.71-101.53,35.89-26.44,13.51-35.6,36.98-62.06,45.64,11.08,12.56,22.99,24.38,33.71,37.24,20.33-12.27,121.36-77.92,150.96-93.54,18.05-9.52,26.3-10.13,52.92-23.83,39.08-20.13,54.06-31.55,48.52-36.94Z"/>
      <path class="cls-2" d="M387.84,273c-17.79,14.68-30.12,31.47-37.8,35.22-57.6,28.09-84.67,23.09-94.05,24.54-11.75,.97-32.71,13.8-38.34,7.16-3.07-9.2-.84-47.4-.84-60.63,.97-37.15,4.89-73.31-2.94-111.44-3.91-17.6-10.75-34.21-14.66-52.79-3.91-16.62-10.75-38.12-9.78-55.71l-.42-1.63h.26c-.58-10.98-1.83-21.31-4.72-32.28-1.74-8.09,.65-12.69-20.53-24.42-15.66-8.67-9.9,40.35-11.06,51.91l-.16,1.38c-6.16-5.19-12.45-10.76-21.26-3.46,3.84,2.65,6.31,3.99,9.34,8.17,3.06,2.88,6.71,7.31,9.77,10.2,5.36,4.73,12.39,4.8,17.28,16.52v.98c4.89,19.55,9.64,76.77,13.68,96.77,9.29,45.95-9.36,107.87-11.32,140.61-.77,12.84,5.95,65.4,1.35,67.96-1.31,.73-14.22,2.05-25.16,3-.02-.09-.03-.19-.06-.28-.54,.09-1.09,.2-1.61,.26-1.82-.97-4.95-3.13-8.98-5.85-3.26,5.53-60.98,3.58-74.8,73.67,6.71,3.61,12.79,5.51,15.07,5.89,4.34,.78,8.8,1.01,13.16,.52,2.36-.28,4.6-.56,6.74-.46,.71,2.09,.32,4.46-1.02,6.09,2.21-.86,4.41-3.69,4.23-5.59,.41,.12,.83,.25,1.24,.41,.83,.43,1.79,.93,2.75,1.49,3.05,2.06,5.51,4.73,8.32,7.06,.95,.77,2.35,1.18,3.33,.24,.9-.87,1.5-2,2.36-2.91,3.37-3.52,3.78-.74,6.12-.36,1.59,.25,3.98-.64,4.11-2.33,.18-2.13,.25-.48,1.87,.04,.9,.29,2.01,.49,2.85-.14,1.3-1.02,1.24-1.88,2.03-3.26,1.55-2.69,4.27-2.83,7.06-2.45,5.29,.73,10.54,1.43,11.16-5.18,.28-2.91-.96-10.46-2.23-17.06,6.92-.47,15.59-1.13,16.87-.67,4.04,1.46,5.37,5.87,5.54,10.61,2.12,0,4.19,.09,6.28,.14-1.22,.16-2.44,.33-3.64,.5-.04,4.11-2.05,15.33-2.05,15.33-5.62,18.73,6.77,45.64,10.42,64.08,3.32,17.53,5.68,74.97,5.97,84.25,.03,11.44-2.43,21.73-4.91,32-2.76,20.8,.46,35.24,4.79,55.53,1.75,8.22,4.39,19.5,5.27,30.43l-.71,2.71c-4.05,12.48-22.38,9-33.55,13.65-6.47,2.96-6.81,5.89-14.54,7.04-6.77,1.03-13.68,1.08-18.75,6.79,14.9,13.57,37.57,7.18,53.47,7.74,10.93,.33,37.23,1.02,33.87-21.22l-.02-.73c-1.73-16.03,4.84-31.69,6.78-49.06,4.81-35.1-.33-71.74,3.23-107.41,3.21-36.6-3.6-77.83,15.49-110.88l2.17-3.3c3.34-2.97,7.3-6.13,11.62-9.38-.53-.59-1.08-1.09-1.62-1.64,1.73,.82,3.46,1.57,5.19,2.46,23.16-.9,97.51-73.42,140.67-99.61,5.74-3.49-2.92-107.21-10.18-101.22Z"/>
      <path class="cls-9" d="M377.64,281.64c34.76-50.09,104.37-59.34,186.1-79.39,5.72-1.4,15.44-6.71,19.89-9.22,15.11,9.28,24.98,21.97,37.52,34.23-11.05,6.04-20.32,11.33-24.76,14.4-4.71,3.22-91.92,64.91-138.24,98.34-32.46,23.42-58.88,33.36-64.15,36.71-5.12-37.82-17.87-86-16.36-95.07Z"/>
      <g>
        <path class="cls-5" d="M135.21,385.38c-5.39-3.71-16.31-10.21-28.98-12.04-10.9-1.57-16.84-.21-19.91,1.21-.52,.24-1,.5-1.41,.78,0-3.6-1.21-11.76-11.38-15.07-6.67-2.15-16.09-.91-25.2,3.3-11.71,5.42-24.67,16.8-22.66,31.05,.72,5.06,3.48,8.66,6.19,11.05-.87,0-1.68,.1-2.4,.3-2.7,.72-3.73,3.42-3.03,5.08,.4,.94,1.52,1.79,3.38,1.07,1.19-.45,2.64-.77,4.28-.95-1.72,1.08-3.16,2.47-3.98,3.92-1.08,1.91-.53,3.91,.44,4.97,1.32,1.43,3.32,1.11,4.19-.89,.44-1,1.08-2.07,1.91-3.18-1.45,8.64-2.71,21.57,5.36,33.39,4.89,7.16,12.52,15.13,22.63,16.88l.6,.1,.18-.59c14.9-15.45,17.12-29.46,33.66-33.98l-.25-1.32c-4.19-.43-5.55-4.41-6.24-6.26-1.1-2.96,.26-9.52,7.21-10.83,10.52-1.98,21.67,5.35,21.67,5.35,0,0,22.96-17.16,22.5-24.72l-8.58-8.5-.18-.12Z"/>
        <path class="cls-11" d="M30.55,420.05c1.32,1.43,3.32,1.11,4.19-.89,.44-1,1.08-2.07,1.91-3.18-.08,.49,36.81-9.3,51.13-42.01-.55,.19-1.03,.38-1.46,.58-.22,.1-.39,.22-.59,.32-.07,.09-.1,.19-.17,.28-33.34,42.64-54.09,30.18-53.71,30.52-.87,0-1.68,.1-2.4,.3-2.7,.72-3.73,3.42-3.03,5.08,.4,.94,1.52,1.79,3.38,1.07,1.19-.45,2.64-.77,4.28-.95-1.72,1.08-3.16,2.47-3.98,3.92-1.07,1.9-.52,3.9,.45,4.96Z"/>
        <path class="cls-11" d="M93.15,476.04s4.06-5.65,3.4-14.48c-.46-6.17,9.4,9.42-3.4,14.48Z"/>
        <path class="cls-8" d="M152.29,460.73s-.14-18.63-6.73-33.71c1.28,8.49,4.06,19.88,6.73,33.71Z"/>
        <path class="cls-3" d="M131.38,453.94c.72-11.2-13.98-19.85-24.29-13.05-10.31,6.79,23.83,20.26,24.29,13.05Z"/>
      </g>
      <path class="cls-4" d="M173.68,377.23s29.74-3.64,48.56-16.87c12.91-9.07,12.78-18.4,12.78-18.4,0,0,14.44-15.6,32.2-17.38,10.22-1.02,24.54,5.11,24.54,5.11l17.38,113.48s-15.33,25.56-40.38,34.25c-12.79,4.44-23,3.58-23,3.58,0,0-1.02-14.82-24.02-19.94-10.98-2.44-49.58,1.02-49.58,1.02l.51-7.67s60.32-2.56,67.47-36.8c6.73-32.23-8.69-41.4-24.03-41.4s-42.43,6.13-42.43,6.13v-5.11h0Z"/>
      <path class="cls-7" d="M299.9,456.11c-.06,0-.12,0-.19-.02-.41-.11-.68-.62-.59-1.12,.58-3.88-10.24-70.16-18.1-128.83-.07-.51,.21-.99,.63-1.06,.43-.12,.81,.28,.88,.79,2.01,15.02,18.97,124.48,18.08,129.52-.06,.42-.36,.71-.71,.72Z"/>
    </g>
  </g>
</svg>