<?xml version="1.0" encoding="utf-8"?>
<!-- Generator: Adobe Illustrator 26.5.0, SVG Export Plug-In . SVG Version: 6.00 Build 0)  -->
<svg version="1.1" id="Layer_1" xmlns="http://www.w3.org/2000/svg" xmlns:xlink="http://www.w3.org/1999/xlink" x="0px" y="0px"
	 viewBox="0 0 250 400" style="enable-background:new 0 0 250 400;" xml:space="preserve">
<style type="text/css">
	.st0{fill:#355775;}
	.st1{font-family:'FarmWaveFree-Regular';}
	.st2{font-size:21.7349px;}
	.st3{letter-spacing:1;}
	.st4{fill:#B2BCC4;}
	.st5{fill:#F7B882;}
	.st6{fill:url(#SVGID_1_);}
	.st7{fill:#905423;}
	.st8{fill:#46260F;}
	.st9{fill:#D09A6F;}
	.st10{fill:#F5B080;}
	.st11{fill:#FFFFFF;}
	.st12{fill:#D1E5FF;}
</style>
<g>
	<text transform="matrix(1 0 0 1 76.4366 365.0454)" class="st0 st1 st2 st3">Half moon</text>
	<g>
		<ellipse class="st4" cx="124.03" cy="326.16" rx="100.32" ry="7.37"/>
		<g>
			<path class="st5" d="M134.44,292.98c-0.34-11.47-3.38-13.64-2.78-20.66h-9.76c0.32,5.02,3.85,45.22,1.04,47.8l-6.55,6.08
				c1.25,2.61,7.99,3.04,11.03,2.1c2.69,1.9,5.38-7.02,5.38-7.02c1.17-1.52-1.97-2.84-1.87-6.55
				C131.16,306.32,134.67,300.94,134.44,292.98L134.44,292.98z"/>
			
				<linearGradient id="SVGID_1_" gradientUnits="userSpaceOnUse" x1="298.0876" y1="-909.4468" x2="295.4405" y2="-955.4772" gradientTransform="matrix(1 0 0 1 -172.5 1187.4)">
				<stop  offset="0" style="stop-color:#355775"/>
				<stop  offset="0.03" style="stop-color:#345572"/>
				<stop  offset="0.22" style="stop-color:#2E4B66"/>
				<stop  offset="0.47" style="stop-color:#2B465E"/>
				<stop  offset="1" style="stop-color:#2A445C"/>
			</linearGradient>
			<path class="st6" d="M131.78,271.16c0.56-3.78,3.35-28.93,0.31-47.41c-8.14,0.54-20.15,4.45-19.14,10.52
				c1.19,7.16,2.72,13.84,3.53,16.86c1.94,6.03,4.47,12.39,5.19,18.75c0.24,1.89-0.09,6.25-0.1,8.13c3.19,0.45,7.52,0.43,10.76,0
				C132.23,276.58,131.55,272.7,131.78,271.16z"/>
			<path class="st5" d="M219.16,171.25c-1.44-1.54-9.94,2.3-12.68,2.44c-2.2,0.43-2.47-1.29-4.62-1.78c-1.07-0.24-2.39-0.56-3.4,0.1
				c-0.9,0.63-1.54,2.01-1.68,3.07l-0.01,0.15c-1.76,2.63-2.55,2.83-5.64,4.15c-9.88,4.22-15.98,4.51-23.23,8.21
				c-6.05,3.09-8.14,8.46-14.2,10.44c2.54,2.87,5.26,5.58,7.71,8.52c4.65-2.81,27.77-17.83,34.54-21.4
				c4.13-2.18,6.02-2.32,12.11-5.45C217,175.1,220.43,172.49,219.16,171.25L219.16,171.25z"/>
			<path class="st5" d="M112.44,214.52c-4.07,3.36-6.89,7.2-8.65,8.06c-13.18,6.43-19.37,5.28-21.52,5.61
				c-2.69,0.22-7.48,3.16-8.77,1.64c-0.7-2.1-0.19-10.84-0.19-13.87c0.22-8.5,1.12-16.77-0.67-25.5c-0.89-4.03-2.46-7.83-3.35-12.08
				c-0.89-3.8-2.46-8.72-2.24-12.75l-0.1-0.37h0.06c-0.13-2.51-0.42-4.88-1.08-7.39c-0.4-1.85,0.15-2.9-4.7-5.59
				c-3.58-1.98-2.27,9.23-2.53,11.88l-0.04,0.32c-1.41-1.19-2.85-2.46-4.86-0.79c0.88,0.61,1.44,0.91,2.14,1.87
				c0.7,0.66,1.54,1.67,2.24,2.33c1.23,1.08,2.83,1.1,3.95,3.78v0.22c1.12,4.47,2.21,17.56,3.13,22.14
				c2.13,10.51-2.14,24.68-2.59,32.17c-0.18,2.94,1.36,14.96,0.31,15.55c-0.3,0.17-3.25,0.47-5.76,0.69c0-0.02-0.01-0.04-0.01-0.06
				c-0.12,0.02-0.25,0.05-0.37,0.06c-0.42-0.22-1.13-0.72-2.05-1.34c-0.75,1.27-13.95,0.82-17.11,16.86
				c1.54,0.83,2.93,1.26,3.45,1.35c0.99,0.18,2.01,0.23,3.01,0.12c0.54-0.06,1.05-0.13,1.54-0.11c0.16,0.48,0.07,1.02-0.23,1.39
				c0.51-0.2,1.01-0.84,0.97-1.28c0.09,0.03,0.19,0.06,0.28,0.09c0.19,0.1,0.41,0.21,0.63,0.34c0.7,0.47,1.26,1.08,1.9,1.62
				c0.22,0.18,0.54,0.27,0.76,0.05c0.21-0.2,0.34-0.46,0.54-0.67c0.77-0.81,0.86-0.17,1.4-0.08c0.36,0.06,0.91-0.15,0.94-0.53
				c0.04-0.49,0.06-0.11,0.43,0.01c0.21,0.07,0.46,0.11,0.65-0.03c0.3-0.23,0.28-0.43,0.46-0.75c0.35-0.62,0.98-0.65,1.62-0.56
				c1.21,0.17,2.41,0.33,2.55-1.19c0.06-0.67-0.22-2.39-0.51-3.9c1.58-0.11,3.57-0.26,3.86-0.15c0.92,0.33,1.23,1.34,1.27,2.43
				c0.49,0,0.96,0.02,1.44,0.03c-0.28,0.04-0.56,0.08-0.83,0.11c-0.01,0.94-0.47,3.51-0.47,3.51c-1.29,4.29,1.55,10.44,2.38,14.66
				c0.76,4.01,1.3,17.15,1.37,19.28c0.01,2.62-0.56,4.97-1.12,7.32c-0.63,4.76,0.11,8.06,1.1,12.7c0.4,1.88,1,4.46,1.21,6.96
				l-0.16,0.62c-0.93,2.86-5.12,2.06-7.68,3.12c-1.48,0.68-1.56,1.35-3.33,1.61c-1.55,0.24-3.13,0.25-4.29,1.55
				c3.41,3.1,8.6,1.64,12.23,1.77c2.5,0.08,8.52,0.23,7.75-4.85l0-0.17c-0.4-3.67,1.11-7.25,1.55-11.22
				c1.1-8.03-0.08-16.41,0.74-24.57c0.73-8.37-0.82-17.81,3.54-25.37l0.5-0.76c0.76-0.68,1.67-1.4,2.66-2.15
				c-0.12-0.14-0.25-0.25-0.37-0.38c0.4,0.19,0.79,0.36,1.19,0.56c5.3-0.21,22.31-16.8,32.18-22.79
				C116.09,236.88,114.11,213.15,112.44,214.52L112.44,214.52z"/>
			<path class="st0" d="M110.11,216.5c7.95-11.46,23.88-13.58,42.58-18.16c1.31-0.32,3.53-1.54,4.55-2.11
				c3.46,2.12,5.72,5.03,8.58,7.83c-2.53,1.38-4.65,2.59-5.66,3.29c-1.08,0.74-21.03,14.85-31.63,22.5
				c-7.43,5.36-13.47,7.63-14.68,8.4C112.68,229.6,109.76,218.58,110.11,216.5L110.11,216.5z"/>
			<g>
				<path class="st7" d="M54.64,240.23c-1.23-0.85-3.73-2.34-6.63-2.75c-2.49-0.36-3.85-0.05-4.56,0.28
					c-0.12,0.05-0.23,0.11-0.32,0.18c0-0.82-0.28-2.69-2.6-3.45c-1.53-0.49-3.68-0.21-5.77,0.76c-2.68,1.24-5.64,3.84-5.18,7.1
					c0.16,1.16,0.8,1.98,1.42,2.53c-0.2,0-0.38,0.02-0.55,0.07c-0.62,0.16-0.85,0.78-0.69,1.16c0.09,0.22,0.35,0.41,0.77,0.24
					c0.27-0.1,0.6-0.18,0.98-0.22c-0.39,0.25-0.72,0.57-0.91,0.9c-0.25,0.44-0.12,0.89,0.1,1.14c0.3,0.33,0.76,0.25,0.96-0.2
					c0.1-0.23,0.25-0.47,0.44-0.73c-0.33,1.98-0.62,4.94,1.23,7.64c1.12,1.64,2.86,3.46,5.18,3.86l0.14,0.02l0.04-0.13
					c3.41-3.53,3.92-6.74,7.7-7.77l-0.06-0.3c-0.96-0.1-1.27-1.01-1.43-1.43c-0.25-0.68,0.06-2.18,1.65-2.48
					c2.41-0.45,4.96,1.22,4.96,1.22s5.25-3.93,5.15-5.66l-1.96-1.94L54.64,240.23L54.64,240.23z"/>
				<path class="st8" d="M30.7,248.17c0.3,0.33,0.76,0.25,0.96-0.2c0.1-0.23,0.25-0.47,0.44-0.73c-0.02,0.11,8.42-2.13,11.7-9.61
					c-0.13,0.04-0.24,0.09-0.33,0.13c-0.05,0.02-0.09,0.05-0.13,0.07c-0.02,0.02-0.02,0.04-0.04,0.06
					c-7.63,9.76-12.38,6.9-12.29,6.98c-0.2,0-0.38,0.02-0.55,0.07c-0.62,0.16-0.85,0.78-0.69,1.16c0.09,0.22,0.35,0.41,0.77,0.24
					c0.27-0.1,0.6-0.18,0.98-0.22c-0.39,0.25-0.72,0.57-0.91,0.9C30.35,247.47,30.48,247.92,30.7,248.17L30.7,248.17z"/>
				<path class="st8" d="M45.02,260.98c0,0,0.93-1.29,0.78-3.31C45.69,256.25,47.95,259.82,45.02,260.98z"/>
				<path class="st9" d="M58.55,257.47c0,0-0.03-4.26-1.54-7.71C57.31,251.7,57.94,254.31,58.55,257.47z"/>
				<path class="st10" d="M53.77,255.92c0.16-2.56-3.2-4.54-5.56-2.99C45.85,254.49,53.66,257.57,53.77,255.92z"/>
			</g>
			<path class="st11" d="M63.45,238.37c0,0,6.8-0.83,11.11-3.86c2.95-2.08,2.92-4.21,2.92-4.21s3.3-3.57,7.37-3.98
				c2.34-0.23,5.61,1.17,5.61,1.17l3.98,25.96c0,0-3.51,5.85-9.24,7.84c-2.93,1.02-5.26,0.82-5.26,0.82s-0.23-3.39-5.5-4.56
				c-2.51-0.56-11.34,0.23-11.34,0.23l0.12-1.75c0,0,13.8-0.59,15.44-8.42c1.54-7.37-1.99-9.47-5.5-9.47s-9.71,1.4-9.71,1.4V238.37
				L63.45,238.37z"/>
			<path class="st12" d="M92.32,256.42c-0.01,0-0.03,0-0.04,0c-0.09-0.03-0.16-0.14-0.13-0.26c0.13-0.89-2.34-16.05-4.14-29.48
				c-0.02-0.12,0.05-0.23,0.14-0.24c0.1-0.03,0.19,0.06,0.2,0.18c0.46,3.44,4.34,28.48,4.14,29.63
				C92.47,256.35,92.4,256.41,92.32,256.42L92.32,256.42z"/>
		</g>
	</g>
</g>
</svg>
