<?xml version="1.0" encoding="utf-8"?>
<!-- Generator: Adobe Illustrator 26.5.0, SVG Export Plug-In . SVG Version: 6.00 Build 0)  -->
<svg version="1.1" id="Layer_1" xmlns="http://www.w3.org/2000/svg" xmlns:xlink="http://www.w3.org/1999/xlink" x="0px" y="0px"
	 viewBox="0 0 250 185.6" style="enable-background:new 0 0 250 185.6;" xml:space="preserve">
<style type="text/css">
	.st0{fill:#B2BCC4;}
	.st1{fill:#F7B882;}
	.st2{fill:url(#SVGID_1_);}
	.st3{fill:#355775;}
	.st4{fill:#905423;}
	.st5{fill:#46260F;}
	.st6{fill:#D09A6F;}
	.st7{fill:#F5B080;}
	.st8{fill:#FFFFFF;}
	.st9{fill:#D1E5FF;}
</style>
<g>
	<g>
		<ellipse class="st0" cx="124" cy="178.2" rx="100.3" ry="7.4"/>
		<g>
			<path class="st1" d="M134.4,145c-0.3-11.5-3.4-13.6-2.8-20.7h-9.8c0.3,5,3.8,45.2,1,47.8l-6.6,6.1c1.2,2.6,8,3,11,2.1
				c2.7,1.9,5.4-7,5.4-7c1.2-1.5-2-2.8-1.9-6.5C131.2,158.3,134.7,152.9,134.4,145L134.4,145z"/>
			
				<linearGradient id="SVGID_1_" gradientUnits="userSpaceOnUse" x1="298.1194" y1="-1057.4486" x2="295.4724" y2="-1103.479" gradientTransform="matrix(1 0 0 1 -172.5 1187.4)">
				<stop  offset="0" style="stop-color:#355775"/>
				<stop  offset="3.000000e-02" style="stop-color:#345572"/>
				<stop  offset="0.22" style="stop-color:#2E4B66"/>
				<stop  offset="0.47" style="stop-color:#2B465E"/>
				<stop  offset="1" style="stop-color:#2A445C"/>
			</linearGradient>
			<path class="st2" d="M131.8,123.2c0.6-3.8,3.4-28.9,0.3-47.4c-8.1,0.5-20.2,4.4-19.1,10.5c1.2,7.2,2.7,13.8,3.5,16.9
				c1.9,6,4.5,12.4,5.2,18.8c0.2,1.9-0.1,6.2-0.1,8.1c3.2,0.5,7.5,0.4,10.8,0C132.2,128.6,131.6,124.7,131.8,123.2z"/>
			<path class="st1" d="M219.2,23.2c-1.4-1.5-9.9,2.3-12.7,2.4c-2.2,0.4-2.5-1.3-4.6-1.8c-1.1-0.2-2.4-0.6-3.4,0.1
				c-0.9,0.6-1.5,2-1.7,3.1v0.1c-1.8,2.6-2.6,2.8-5.6,4.1c-9.9,4.2-16,4.5-23.2,8.2c-6.1,3.1-8.1,8.5-14.2,10.4
				c2.5,2.9,5.3,5.6,7.7,8.5c4.6-2.8,27.8-17.8,34.5-21.4c4.1-2.2,6-2.3,12.1-5.4C217,27.1,220.4,24.5,219.2,23.2L219.2,23.2z"/>
			<path class="st1" d="M112.4,66.5c-4.1,3.4-6.9,7.2-8.7,8.1c-13.2,6.4-19.4,5.3-21.5,5.6c-2.7,0.2-7.5,3.2-8.8,1.6
				c-0.7-2.1-0.2-10.8-0.2-13.9c0.2-8.5,1.1-16.8-0.7-25.5c-0.9-4-2.5-7.8-3.3-12.1c-0.9-3.8-2.5-8.7-2.2-12.8l-0.1-0.4H67
				c-0.1-2.5-0.4-4.9-1.1-7.4c-0.4-1.9,0.2-2.9-4.7-5.6c-3.6-2-2.3,9.2-2.5,11.9v0.3c-1.4-1.2-2.8-2.5-4.9-0.8
				c0.9,0.6,1.4,0.9,2.1,1.9c0.7,0.7,1.5,1.7,2.2,2.3c1.2,1.1,2.8,1.1,4,3.8v0.2c1.1,4.5,2.2,17.6,3.1,22.1
				c2.1,10.5-2.1,24.7-2.6,32.2c-0.2,2.9,1.4,15,0.3,15.6c-0.3,0.2-3.2,0.5-5.8,0.7c0,0,0,0,0-0.1c-0.1,0-0.2,0.1-0.4,0.1
				c-0.4-0.2-1.1-0.7-2-1.3c-0.8,1.3-14,0.8-17.1,16.9c1.5,0.8,2.9,1.3,3.5,1.4c1,0.2,2,0.2,3,0.1c0.5-0.1,1-0.1,1.5-0.1
				c0.2,0.5,0.1,1-0.2,1.4c0.5-0.2,1-0.8,1-1.3c0.1,0,0.2,0.1,0.3,0.1c0.2,0.1,0.4,0.2,0.6,0.3c0.7,0.5,1.3,1.1,1.9,1.6
				c0.2,0.2,0.5,0.3,0.8,0c0.2-0.2,0.3-0.5,0.5-0.7c0.8-0.8,0.9-0.2,1.4-0.1c0.4,0.1,0.9-0.1,0.9-0.5c0-0.5,0.1-0.1,0.4,0
				c0.2,0.1,0.5,0.1,0.7,0c0.3-0.2,0.3-0.4,0.5-0.8c0.3-0.6,1-0.6,1.6-0.6c1.2,0.2,2.4,0.3,2.5-1.2c0.1-0.7-0.2-2.4-0.5-3.9
				c1.6-0.1,3.6-0.3,3.9-0.1c0.9,0.3,1.2,1.3,1.3,2.4c0.5,0,1,0,1.4,0c-0.3,0-0.6,0.1-0.8,0.1c0,0.9-0.5,3.5-0.5,3.5
				c-1.3,4.3,1.6,10.4,2.4,14.7c0.8,4,1.3,17.1,1.4,19.3c0,2.6-0.6,5-1.1,7.3c-0.6,4.8,0.1,8.1,1.1,12.7c0.4,1.9,1,4.5,1.2,7
				l-0.2,0.6c-0.9,2.9-5.1,2.1-7.7,3.1c-1.5,0.7-1.6,1.4-3.3,1.6c-1.5,0.2-3.1,0.2-4.3,1.5c3.4,3.1,8.6,1.6,12.2,1.8
				c2.5,0.1,8.5,0.2,7.8-4.9V176c-0.4-3.7,1.1-7.2,1.6-11.2c1.1-8-0.1-16.4,0.7-24.6c0.7-8.4-0.8-17.8,3.5-25.4l0.5-0.8
				c0.8-0.7,1.7-1.4,2.7-2.1c-0.1-0.1-0.2-0.2-0.4-0.4c0.4,0.2,0.8,0.4,1.2,0.6c5.3-0.2,22.3-16.8,32.2-22.8
				C116.1,88.9,114.1,65.1,112.4,66.5L112.4,66.5z"/>
			<path class="st3" d="M110.1,68.5C118,57,134,54.9,152.7,50.3c1.3-0.3,3.5-1.5,4.6-2.1c3.5,2.1,5.7,5,8.6,7.8
				c-2.5,1.4-4.6,2.6-5.7,3.3c-1.1,0.7-21,14.9-31.6,22.5c-7.4,5.4-13.5,7.6-14.7,8.4C112.7,81.6,109.8,70.6,110.1,68.5L110.1,68.5z
				"/>
			<g>
				<path class="st4" d="M54.6,92.2c-1.2-0.9-3.7-2.3-6.6-2.8c-2.5-0.4-3.8-0.1-4.6,0.3c-0.1,0.1-0.2,0.1-0.3,0.2
					c0-0.8-0.3-2.7-2.6-3.4c-1.5-0.5-3.7-0.2-5.8,0.8c-2.7,1.2-5.6,3.8-5.2,7.1c0.2,1.2,0.8,2,1.4,2.5c-0.2,0-0.4,0-0.5,0.1
					c-0.6,0.2-0.9,0.8-0.7,1.2c0.1,0.2,0.4,0.4,0.8,0.2c0.3-0.1,0.6-0.2,1-0.2c-0.4,0.2-0.7,0.6-0.9,0.9c-0.2,0.4-0.1,0.9,0.1,1.1
					c0.3,0.3,0.8,0.2,1-0.2c0.1-0.2,0.2-0.5,0.4-0.7c-0.3,2-0.6,4.9,1.2,7.6c1.1,1.6,2.9,3.5,5.2,3.9h0.1v-0.1
					c3.4-3.5,3.9-6.7,7.7-7.8l-0.1-0.3c-1-0.1-1.3-1-1.4-1.4c-0.2-0.7,0.1-2.2,1.7-2.5c2.4-0.4,5,1.2,5,1.2s5.2-3.9,5.2-5.7
					L54.6,92.2L54.6,92.2L54.6,92.2z"/>
				<path class="st5" d="M30.7,100.2c0.3,0.3,0.8,0.2,1-0.2c0.1-0.2,0.2-0.5,0.4-0.7c0,0.1,8.4-2.1,11.7-9.6c-0.1,0-0.2,0.1-0.3,0.1
					l-0.1,0.1c0,0,0,0,0,0.1c-7.6,9.8-12.4,6.9-12.3,7c-0.2,0-0.4,0-0.5,0.1c-0.6,0.2-0.9,0.8-0.7,1.2c0.1,0.2,0.4,0.4,0.8,0.2
					c0.3-0.1,0.6-0.2,1-0.2c-0.4,0.2-0.7,0.6-0.9,0.9C30.4,99.5,30.5,99.9,30.7,100.2L30.7,100.2z"/>
				<path class="st5" d="M45,113c0,0,0.9-1.3,0.8-3.3C45.7,108.2,48,111.8,45,113z"/>
				<path class="st6" d="M58.5,109.5c0,0,0-4.3-1.5-7.7C57.3,103.7,57.9,106.3,58.5,109.5z"/>
				<path class="st7" d="M53.8,107.9c0.2-2.6-3.2-4.5-5.6-3C45.8,106.5,53.7,109.6,53.8,107.9z"/>
			</g>
			<path class="st8" d="M63.5,90.4c0,0,6.8-0.8,11.1-3.9c2.9-2.1,2.9-4.2,2.9-4.2s3.3-3.6,7.4-4c2.3-0.2,5.6,1.2,5.6,1.2l4,26
				c0,0-3.5,5.9-9.2,7.8c-2.9,1-5.3,0.8-5.3,0.8s-0.2-3.4-5.5-4.6c-2.5-0.6-11.3,0.2-11.3,0.2l0.1-1.8c0,0,13.8-0.6,15.4-8.4
				c1.5-7.4-2-9.5-5.5-9.5s-9.7,1.4-9.7,1.4L63.5,90.4L63.5,90.4z"/>
			<path class="st9" d="M92.3,108.4L92.3,108.4c-0.1,0-0.2-0.1-0.2-0.3c0.1-0.9-2.3-16.1-4.1-29.5c0-0.1,0.1-0.2,0.1-0.2
				c0.1,0,0.2,0.1,0.2,0.2c0.5,3.4,4.3,28.5,4.1,29.6C92.5,108.4,92.4,108.4,92.3,108.4L92.3,108.4z"/>
		</g>
	</g>
</g>
</svg>
