<?xml version="1.0" encoding="UTF-8"?>
<svg id="Layer_1" data-name="Layer 1" xmlns="http://www.w3.org/2000/svg" xmlns:xlink="http://www.w3.org/1999/xlink" viewBox="0 0 878.58 460.4">
  <defs>
    <style>
      .cls-1 {
        letter-spacing: .1em;
      }

      .cls-2 {
        fill: url(#linear-gradient);
      }

      .cls-3 {
        fill: #f7b882;
      }

      .cls-4 {
        fill: #f5b080;
      }

      .cls-5 {
        fill: #fff;
      }

      .cls-6 {
        fill: #905423;
      }

      .cls-7 {
        fill: #d1e5ff;
      }

      .cls-8 {
        fill: #d09a6f;
      }

      .cls-9, .cls-10 {
        fill: #355775;
      }

      .cls-11 {
        fill: #46260f;
      }

      .cls-12 {
        letter-spacing: .02em;
      }

      .cls-13 {
        fill: #b2bcc4;
        opacity: .5;
      }

      .cls-13, .cls-10 {
        isolation: isolate;
      }

      .cls-10 {
        font-family: FarmWaveFree-Regular, 'Farm Wave Free';
        font-size: 80px;
      }

      .cls-14 {
        letter-spacing: .06em;
      }
    </style>
    <linearGradient id="linear-gradient" x1="558.34" y1="264.9" x2="683.9" y2="87.02" gradientUnits="userSpaceOnUse">
      <stop offset="0" stop-color="#f8a164"/>
      <stop offset=".46" stop-color="#f9a86d"/>
      <stop offset="1" stop-color="#fab57e"/>
    </linearGradient>
  </defs>
  <g>
    <path class="cls-13" d="M878.58,285.28c0-13.97-196.67-25.29-439.29-25.29S0,271.31,0,285.28s196.67,25.29,439.29,25.29c242.61-.01,439.29-11.33,439.29-25.29Z"/>
    <g>
      <path class="cls-3" d="M658.84,253.01c-5.92-2.63-18.28-1.29-24-.48-2.5-4.32-5.12-10.57-7.72-17.73-4.98,4.13-10.18,8.06-14,13.18,3.35,7.21,6.34,13.33,8.64,17.52,0,0,48.41-.28,58-2.02,9.6-1.75-13.07-6.98-20.92-10.47Z"/>
      <g>
        <path class="cls-2" d="M650.53,87.98c.5,.91,.98,1.77,1.42,2.58,0,3.58-1.61,8.88-3.99,14.59-17.02,20.56-30.86,30.24-38.82,38.87-25.3,27.41-13.08,70.19-65.4,61.04,11.82,18.15-1.82,60.66,8.28,79.78,27.03-1.31,50.75-14.46,73.24-37.93,22.5-23.47,57.99-81.48,54.5-82.4,.84-2.78-6.31-35.82-4.85-41.79,1.25-2.72,10.01-17.93,12.26-21.24,1.3,.32,2.56,.67,3.71,1.08,5.64,1.7,13.66,3.93,16.48,3.91,5.32-.01,5.14-4.25,4.94-8.53-.1-2.26,.21-4.41,2.47-5.46,1.16-.53,1.84-.42,2.75-1.38,.56-.63,.48-1.53,.32-2.27-.29-1.33-1.6-1.51,.11-1.49,1.35,.02,2.24-1.82,2.15-3.11-.13-1.9-2.32-2.43,.73-4.86,.79-.62,1.74-1.01,2.49-1.67,.82-.71,.59-1.86,.05-2.67-1.66-2.41-3.61-4.57-5.03-7.15-.38-.81-.71-1.61-.99-2.3-.1-.34-.18-.68-.24-1.02,1.5,.28,3.92-1.27,4.76-2.97-1.4,.95-3.32,1.09-4.94,.37,.07-1.72,.47-3.48,.86-5.35,.71-3.45,.85-7.02,.54-10.54-.14-1.84-1.21-6.83-3.61-12.45-56.91,5.95-59.55,52.16-64.19,54.36Z"/>
        <path class="cls-6" d="M647.54,87.2c-2.57-4.57-6.96-13.75-7.51-24-.47-8.81,1.05-13.45,2.41-15.8,.23-.4,.48-.76,.72-1.07-2.87-.27-9.3-1.82-11.2-10.18-1.23-5.48,.44-12.91,4.46-19.87,5.17-8.95,15.2-18.47,26.43-15.83,3.98,.94,6.66,3.4,8.37,5.74,.07-.69,.2-1.33,.41-1.9,.77-2.1,3-2.73,4.27-2.05,.72,.39,1.32,1.34,.61,2.78-.45,.91-.81,2.05-1.07,3.35,.99-1.3,2.2-2.34,3.41-2.89,1.6-.73,3.16-.14,3.93,.71,1.05,1.16,.64,2.73-1.02,3.28-.83,.28-1.73,.71-2.68,1.3,7-.53,17.41-.6,26.26,6.7,5.36,4.42,11.17,11.09,11.83,19.29l.04,.49-.48,.1c-13.41,10.77-24.75,11.53-29.56,24.4l-1.03-.29c-.04-3.38-3.12-4.75-4.54-5.43-2.28-1.09-7.62-.48-9.17,4.96-2.34,8.25,2.7,17.68,2.7,17.68,0,0-15.34,17.07-21.34,16.15l-6.16-7.46-.09-.16Z"/>
        <path class="cls-11" d="M682.8,6.2c1.05,1.16,.64,2.73-1.02,3.28-.83,.28-1.73,.71-2.68,1.3,.39-.03-10.09,28.7-37.23,37.76,.19-.42,.38-.8,.57-1.12,.1-.17,.2-.29,.3-.45,.08-.05,.15-.06,.23-.11,36.44-23.51,28.01-40.97,28.25-40.65,.07-.69,.2-1.33,.41-1.9,.77-2.1,3-2.73,4.27-2.05,.72,.39,1.32,1.34,.61,2.78-.45,.91-.81,2.05-1.07,3.35,.99-1.3,2.2-2.34,3.41-2.89,1.61-.74,3.17-.16,3.95,.7Z"/>
        <path class="cls-11" d="M722.94,60.21s-4.81,2.83-11.8,1.66c-4.89-.81,6.83,8.19,11.8-1.66Z"/>
        <path class="cls-8" d="M706.43,106.29s-14.86-1.47-26.41-7.81c6.67,1.63,15.57,4.68,26.41,7.81Z"/>
        <path class="cls-4" d="M702.52,89.12c-8.99-.24-14.83-12.59-8.65-20.33s14.45,20.48,8.65,20.33Z"/>
        <path class="cls-5" d="M676.75,139.72c-1.78-7.91-19.96-12.41-31.43-2.67-6.05,5.14-13.95,19.62-20.05,22.67-13.26,6.63-15.35,1.72-20.5-3.47-5.6,9.92-14.69,20.77-18.52,31.16,4.69,5.94,34.97,38.19,51.66,44.47,1.84-3.34,21.56-26.72,21.58-26.77,12.51,2.39,29.78-7.07,30.11-21.64,.1-5.37-9.83-34.22-12.85-43.75Z"/>
      </g>
      <path class="cls-9" d="M562.49,205.49c-8.28,1.74-10.46-.87-28.34-2.84-3.45-.38-27.53-6.72-48.49-1.16-20.03,5.31-27.41,14.59-31.82,22.34-24.22,3.26-58.86,10.71-80.62,15.71-1.73,.4-18.11,5.71-31.59,9.98-4.93-.73-10.8-1.92-16.88-3.21-4.93,14.36-1.68,29.99,3.59,44.55,11.46,.72,24.13,1.29,30.01,1.12-.04-.18-.07-.35-.11-.53,.99,.18,1.96,.37,2.99,.53,24.54,2.87,164.92,4.01,185.9-1.33,12.11-3.08,22.15-5.54,30.18-10.61,2.79-23.71-11.05-75.34-14.82-74.55Z"/>
      <path class="cls-3" d="M324.75,246.31c-10.7-2.26-22.05-4.82-30.17-5.68-39.87-3.63-74.31,23.56-112.37,21.74-11.78,0-19.94-11.78-29.91-11.78-10.88-.9-17.22,12.69-23.56,19.93,0,0-41.14,9.19-43.37,14.61-2.11,5.14,5.28,4.35,8.01,6.16,24.03-1.85,46.24-2.65,69.81-2.65,48.94-.9,98.78-3.62,147.71,.91,4.28,.4,10.65,.88,17.45,1.3-5.28-14.55-8.54-30.17-3.6-44.54Z"/>
      <path class="cls-7" d="M641.73,228.6c-.13,0-.25-.03-.37-.09-19.21-10.47-50.24-43.43-50.55-43.77-.29-.31-.27-.78,.04-1.06s.79-.26,1.08,.04c.31,.33,31.17,33.12,50.17,43.47,.37,.2,.5,.66,.3,1.02-.14,.25-.4,.39-.67,.39Z"/>
      <path class="cls-3" d="M650.25,135.01c-59.42,16.42-93.42,29.5-93.42,37.35-2.73,2.82,32.64,88.45,45.76,112.33,0,0,48.41-.28,58-2.02s-13.08-6.98-20.93-10.46c-5.92-2.63-18.28-1.29-24-.48-11.94-20.7-26.87-85.04-27.44-86.28,14.02-7.93,43.03-3.33,78.48-22.23,13.07-6.99,11.31-32.15-16.45-28.21Z"/>
    </g>
  </g>
  <text class="cls-10" transform="translate(70.37 440.4)"><tspan class="cls-1" x="0" y="0">Up</tspan><tspan class="cls-14" x="93.03" y="0">w</tspan><tspan class="cls-1" x="143.14" y="0">ard </tspan><tspan class="cls-12" x="309.59" y="0">f</tspan><tspan class="cls-1" x="338.18" y="0">acing dog</tspan></text>
</svg>