<?xml version="1.0" encoding="utf-8"?>
<!-- Generator: Adobe Illustrator 26.5.0, SVG Export Plug-In . SVG Version: 6.00 Build 0)  -->
<svg version="1.1" id="Layer_1" xmlns="http://www.w3.org/2000/svg" xmlns:xlink="http://www.w3.org/1999/xlink" x="0px" y="0px"
	 viewBox="0 0 250 88.5" style="enable-background:new 0 0 250 88.5;" xml:space="preserve">
<style type="text/css">
	.st0{opacity:0.5;fill:#B2BCC4;enable-background:new    ;}
	.st1{fill:#F7B882;}
	.st2{fill:url(#SVGID_1_);}
	.st3{fill:#905423;}
	.st4{fill:#46260F;}
	.st5{fill:#D09A6F;}
	.st6{fill:#F5B080;}
	.st7{fill:#FFFFFF;}
	.st8{fill:#355775;}
	.st9{fill:#D1E5FF;}
</style>
<g>
	<g>
		<path class="st0" d="M248.9,81.7c0-3.7-55.7-6.8-124.5-6.8S0,78,0,81.7s55.7,6.8,124.5,6.8C193.2,88.5,248.9,85.5,248.9,81.7z"/>
		<g>
			<path class="st1" d="M186.7,73.1c-1.7-0.7-5.2-0.4-6.8-0.1c-0.7-1.2-1.4-2.8-2.2-4.8c-1.4,1.1-2.9,2.2-4,3.5
				c0.9,1.9,1.8,3.6,2.4,4.7c0,0,13.7-0.1,16.4-0.5C195.3,75.4,188.9,74,186.7,73.1L186.7,73.1z"/>
			<g>
				
					<linearGradient id="SVGID_1_" gradientUnits="userSpaceOnUse" x1="331.1925" y1="6.4053" x2="365.4183" y2="54.8925" gradientTransform="matrix(1 0 0 -1 -172.5 83)">
					<stop  offset="0" style="stop-color:#F8A164"/>
					<stop  offset="0.46" style="stop-color:#F9A86D"/>
					<stop  offset="1" style="stop-color:#FAB57E"/>
				</linearGradient>
				<path class="st2" d="M184.3,28.9c0.1,0.2,0.3,0.5,0.4,0.7c0,1-0.5,2.4-1.1,3.9c-4.8,5.5-8.7,8.1-11,10.4
					c-7.2,7.3-3.7,18.8-18.5,16.3c3.4,4.9-0.5,16.2,2.4,21.4c7.7-0.4,14.4-3.9,20.8-10.1s16.4-21.8,15.4-22.1
					c0.2-0.7-1.8-9.6-1.4-11.2c0.4-0.7,2.8-4.8,3.5-5.7c0.4,0.1,0.7,0.2,1.1,0.3c1.6,0.5,3.9,1,4.7,1c1.5,0,1.5-1.1,1.4-2.3
					c0-0.6,0.1-1.2,0.7-1.5c0.3-0.1,0.5-0.1,0.8-0.4c0.2-0.2,0.1-0.4,0.1-0.6c-0.1-0.4-0.4-0.4,0-0.4s0.6-0.5,0.6-0.8
					c0-0.5-0.7-0.6,0.2-1.3c0.2-0.2,0.5-0.3,0.7-0.5s0.2-0.5,0-0.7c-0.5-0.6-1-1.2-1.4-1.9c-0.1-0.2-0.2-0.4-0.3-0.6
					c0-0.1-0.1-0.2-0.1-0.3c0.4,0.1,1.1-0.3,1.4-0.8c-0.4,0.2-0.9,0.3-1.4,0.1c0-0.5,0.1-0.9,0.2-1.4c0.2-0.9,0.2-1.9,0.1-2.8
					c0-0.5-0.3-1.8-1-3.3C186.4,16,185.6,28.3,184.3,28.9L184.3,28.9z"/>
				<path class="st3" d="M183.5,28.7c-0.7-1.2-2-3.7-2.1-6.4c-0.1-2.4,0.3-3.6,0.7-4.2c0.1-0.1,0.1-0.2,0.2-0.3
					c-0.8-0.1-2.6-0.5-3.2-2.7c-0.4-1.5,0.1-3.5,1.3-5.3c1.5-2.4,4.3-4.9,7.5-4.2c1.1,0.2,1.9,0.9,2.4,1.5c0-0.2,0.1-0.4,0.1-0.5
					c0.2-0.6,0.9-0.7,1.2-0.6c0.2,0.1,0.4,0.4,0.2,0.7c-0.1,0.2-0.2,0.6-0.3,0.9c0.3-0.4,0.6-0.6,1-0.8s0.9,0,1.1,0.2
					c0.3,0.3,0.2,0.7-0.3,0.9c-0.2,0.1-0.5,0.2-0.8,0.4c2-0.1,4.9-0.2,7.4,1.8c1.5,1.2,3.2,3,3.4,5.2v0.1h-0.1
					c-3.8,2.9-7,3.1-8.4,6.5l-0.3-0.1c0-0.9-0.9-1.3-1.3-1.5c-0.6-0.3-2.2-0.1-2.6,1.3c-0.7,2.2,0.8,4.7,0.8,4.7s-4.4,4.6-6.1,4.3
					L183.5,28.7L183.5,28.7L183.5,28.7z"/>
				<path class="st4" d="M193.4,7c0.3,0.3,0.2,0.7-0.3,0.9c-0.2,0.1-0.5,0.2-0.8,0.3c0.1,0-2.9,7.7-10.6,10.1
					c0.1-0.1,0.1-0.2,0.2-0.3l0.1-0.1c0,0,0,0,0.1,0c10.3-6.3,7.9-11,8-10.9c0-0.2,0.1-0.4,0.1-0.5c0.2-0.6,0.9-0.7,1.2-0.6
					c0.2,0.1,0.4,0.4,0.2,0.7c-0.1,0.2-0.2,0.6-0.3,0.9c0.3-0.4,0.6-0.6,1-0.8C192.8,6.6,193.2,6.8,193.4,7L193.4,7z"/>
				<path class="st4" d="M204.8,21.5c0,0-1.4,0.8-3.3,0.4C200.1,21.7,203.4,24.1,204.8,21.5z"/>
				<path class="st5" d="M200.1,33.8c0,0-4.2-0.4-7.5-2.1C194.6,32.2,197.1,33,200.1,33.8z"/>
				<path class="st6" d="M199,29.2c-2.6-0.1-4.2-3.4-2.4-5.4C198.3,21.7,200.7,29.3,199,29.2z"/>
				<path class="st7" d="M191.7,42.8c-0.5-2.1-5.6-3.3-8.9-0.7c-1.7,1.4-3.9,5.2-5.7,6.1c-3.8,1.8-4.4,0.5-5.8-0.9
					c-1.6,2.7-4.2,5.6-5.2,8.3c1.3,1.6,9.9,10.2,14.6,11.9c0.5-0.9,6.1-7.1,6.1-7.2c3.5,0.6,8.4-1.9,8.5-5.8
					C195.4,53,192.6,45.3,191.7,42.8z"/>
			</g>
			<path class="st8" d="M159.4,60.4c-2.4,0.5-3-0.2-8-0.8c-1-0.1-7.8-1.8-13.7-0.3c-5.7,1.4-7.8,3.9-9,6c-6.9,0.9-16.7,2.9-22.8,4.2
				c-0.5,0.1-5.1,1.5-8.9,2.7c-1.4-0.2-3.1-0.5-4.8-0.9c-1.4,3.8-0.5,8,1,11.9c3.2,0.2,6.8,0.4,8.5,0.3v-0.1c0.3,0,0.6,0.1,0.8,0.1
				c6.9,0.8,46.7,1.1,52.7-0.4c3.4-0.8,6.3-1.5,8.6-2.8C164.4,74,160.4,60.2,159.4,60.4z"/>
			<path class="st1" d="M92,71.3c-3-0.6-6.2-1.3-8.6-1.5c-11.3-1-21,6.3-31.8,5.8c-3.3,0-5.7-3.1-8.5-3.1c-3.1-0.2-4.9,3.4-6.7,5.3
				c0,0-11.7,2.5-12.3,3.9c-0.6,1.4,1.5,1.2,2.3,1.6c6.8-0.5,13.1-0.7,19.8-0.7c13.9-0.2,28-1,41.8,0.2c1.2,0.1,3,0.2,4.9,0.4
				C91.5,79.3,90.6,75.2,92,71.3L92,71.3z"/>
			<path class="st9" d="M181.8,66.6h-0.1c-5.4-2.8-14.2-11.6-14.3-11.7s-0.1-0.2,0-0.3s0.2-0.1,0.3,0s8.8,8.9,14.2,11.6
				c0.1,0,0.1,0.2,0.1,0.3C182,66.5,181.9,66.6,181.8,66.6z"/>
			<path class="st1" d="M184.2,41.5c-16.8,4.4-26.5,7.9-26.5,10c-0.8,0.8,9.2,23.7,13,30.1c0,0,13.7-0.1,16.4-0.5
				c2.7-0.5-3.7-1.9-5.9-2.8c-1.7-0.7-5.2-0.4-6.8-0.1c-3.4-5.5-7.6-22.8-7.8-23.1c4-2.1,12.2-0.9,22.2-6
				C192.6,47.2,192.1,40.5,184.2,41.5L184.2,41.5z"/>
		</g>
	</g>
</g>
</svg>
