<?xml version="1.0" encoding="utf-8"?>
<!-- Generator: Adobe Illustrator 26.5.0, SVG Export Plug-In . SVG Version: 6.00 Build 0)  -->
<svg version="1.1" id="Layer_1" xmlns="http://www.w3.org/2000/svg" xmlns:xlink="http://www.w3.org/1999/xlink" x="0px" y="0px"
	 viewBox="0 0 250 400" style="enable-background:new 0 0 250 400;" xml:space="preserve">
<style type="text/css">
	.st0{opacity:0.5;fill:#B2BCC4;enable-background:new    ;}
	.st1{fill:#F7B882;}
	.st2{fill:url(#SVGID_1_);}
	.st3{fill:#905423;}
	.st4{fill:#46260F;}
	.st5{fill:#D09A6F;}
	.st6{fill:#F5B080;}
	.st7{fill:#FFFFFF;}
	.st8{fill:#355775;}
	.st9{fill:#D1E5FF;}
	.st10{font-family:'FarmWaveFree-Regular';}
	.st11{font-size:21.4143px;}
	.st12{letter-spacing:1.89;}
	.st13{letter-spacing:0.94;}
</style>
<g>
	<g>
		<path class="st0" d="M248.92,329.74c0-3.74-55.72-6.77-124.46-6.77S0,326,0,329.74s55.72,6.77,124.46,6.77
			C193.19,336.51,248.92,333.48,248.92,329.74z"/>
		<g>
			<path class="st1" d="M186.66,321.11c-1.68-0.7-5.18-0.35-6.8-0.13c-0.71-1.16-1.45-2.83-2.19-4.75
				c-1.41,1.11-2.88,2.16-3.97,3.53c0.95,1.93,1.8,3.57,2.45,4.69c0,0,13.72-0.07,16.43-0.54
				C195.31,323.44,188.88,322.04,186.66,321.11L186.66,321.11z"/>
			<g>
				
					<linearGradient id="SVGID_1_" gradientUnits="userSpaceOnUse" x1="331.1269" y1="254.4515" x2="365.3527" y2="302.9389" gradientTransform="matrix(1 0 0 -1 -172.5 579)">
					<stop  offset="0" style="stop-color:#F8A164"/>
					<stop  offset="0.46" style="stop-color:#F9A86D"/>
					<stop  offset="1" style="stop-color:#FAB57E"/>
				</linearGradient>
				<path class="st2" d="M184.31,276.93c0.14,0.24,0.28,0.47,0.4,0.69c0,0.96-0.46,2.38-1.13,3.91c-4.82,5.5-8.74,8.09-11,10.4
					c-7.17,7.34-3.71,18.79-18.53,16.34c3.35,4.86-0.52,16.24,2.35,21.36c7.66-0.35,14.38-3.87,20.75-10.15
					c6.37-6.28,16.43-21.81,15.44-22.06c0.24-0.74-1.79-9.59-1.37-11.19c0.35-0.73,2.84-4.8,3.47-5.69
					c0.37,0.09,0.73,0.18,1.05,0.29c1.6,0.46,3.87,1.05,4.67,1.05c1.51,0,1.46-1.14,1.4-2.28c-0.03-0.6,0.06-1.18,0.7-1.46
					c0.33-0.14,0.52-0.11,0.78-0.37c0.16-0.17,0.14-0.41,0.09-0.61c-0.08-0.36-0.45-0.4,0.03-0.4c0.38,0.01,0.63-0.49,0.61-0.83
					c-0.04-0.51-0.66-0.65,0.21-1.3c0.22-0.17,0.49-0.27,0.71-0.45c0.23-0.19,0.17-0.5,0.01-0.71c-0.47-0.65-1.02-1.22-1.43-1.91
					c-0.11-0.22-0.2-0.43-0.28-0.62c-0.03-0.09-0.05-0.18-0.07-0.27c0.42,0.07,1.11-0.34,1.35-0.8c-0.4,0.25-0.94,0.29-1.4,0.1
					c0.02-0.46,0.13-0.93,0.24-1.43c0.2-0.92,0.24-1.88,0.15-2.82c-0.04-0.49-0.34-1.83-1.02-3.33
					C186.37,263.97,185.62,276.34,184.31,276.93L184.31,276.93z"/>
				<path class="st3" d="M183.46,276.72c-0.73-1.22-1.97-3.68-2.13-6.42c-0.13-2.36,0.3-3.6,0.68-4.23c0.07-0.11,0.14-0.2,0.2-0.29
					c-0.81-0.07-2.63-0.49-3.17-2.72c-0.35-1.47,0.12-3.46,1.26-5.32c1.46-2.4,4.31-4.94,7.49-4.24c1.13,0.25,1.89,0.91,2.37,1.54
					c0.02-0.18,0.06-0.36,0.12-0.51c0.22-0.56,0.85-0.73,1.21-0.55c0.2,0.1,0.37,0.36,0.17,0.74c-0.13,0.24-0.23,0.55-0.3,0.9
					c0.28-0.35,0.62-0.63,0.97-0.77c0.45-0.2,0.9-0.04,1.11,0.19c0.3,0.31,0.18,0.73-0.29,0.88c-0.24,0.07-0.49,0.19-0.76,0.35
					c1.98-0.14,4.93-0.16,7.44,1.79c1.52,1.18,3.16,2.97,3.35,5.16l0.01,0.13l-0.14,0.03c-3.8,2.88-7.01,3.09-8.37,6.53l-0.29-0.08
					c-0.01-0.9-0.88-1.27-1.29-1.45c-0.65-0.29-2.16-0.13-2.6,1.33c-0.66,2.21,0.76,4.73,0.76,4.73s-4.35,4.57-6.05,4.32l-1.75-2
					L183.46,276.72L183.46,276.72z"/>
				<path class="st4" d="M193.45,255.04c0.3,0.31,0.18,0.73-0.29,0.88c-0.24,0.07-0.49,0.19-0.76,0.35
					c0.11-0.01-2.86,7.68-10.55,10.11c0.05-0.11,0.11-0.21,0.16-0.3c0.03-0.05,0.06-0.08,0.08-0.12c0.02-0.01,0.04-0.02,0.07-0.03
					c10.32-6.29,7.94-10.97,8-10.88c0.02-0.18,0.06-0.36,0.12-0.51c0.22-0.56,0.85-0.73,1.21-0.55c0.2,0.1,0.37,0.36,0.17,0.74
					c-0.13,0.24-0.23,0.55-0.3,0.9c0.28-0.35,0.62-0.63,0.97-0.77C192.79,254.65,193.23,254.81,193.45,255.04L193.45,255.04z"/>
				<path class="st4" d="M204.82,269.5c0,0-1.36,0.76-3.34,0.44C200.09,269.72,203.41,272.13,204.82,269.5z"/>
				<path class="st5" d="M200.14,281.83c0,0-4.21-0.39-7.48-2.09C194.55,280.18,197.07,280.99,200.14,281.83z"/>
				<path class="st6" d="M199.04,277.24c-2.55-0.06-4.2-3.37-2.45-5.44C198.34,269.72,200.68,277.28,199.04,277.24z"/>
				<path class="st7" d="M191.73,290.78c-0.5-2.12-5.65-3.32-8.9-0.71c-1.71,1.38-3.95,5.25-5.68,6.07
					c-3.76,1.77-4.35,0.46-5.81-0.93c-1.59,2.66-4.16,5.56-5.25,8.34c1.33,1.59,9.91,10.22,14.64,11.9
					c0.52-0.89,6.11-7.15,6.11-7.17c3.54,0.64,8.44-1.89,8.53-5.79C195.4,301.05,192.59,293.33,191.73,290.78z"/>
			</g>
			<path class="st8" d="M159.36,308.39c-2.35,0.47-2.96-0.23-8.03-0.76c-0.98-0.1-7.8-1.8-13.74-0.31
				c-5.67,1.42-7.77,3.91-9.02,5.98c-6.86,0.87-16.68,2.87-22.84,4.21c-0.49,0.11-5.13,1.53-8.95,2.67c-1.4-0.2-3.06-0.51-4.78-0.86
				c-1.4,3.84-0.48,8.03,1.02,11.93c3.25,0.19,6.84,0.35,8.5,0.3c-0.01-0.05-0.02-0.09-0.03-0.14c0.28,0.05,0.56,0.1,0.85,0.14
				c6.95,0.77,46.72,1.07,52.67-0.36c3.43-0.82,6.28-1.48,8.55-2.84C164.35,321.99,160.43,308.17,159.36,308.39z"/>
			<path class="st1" d="M92.01,319.31c-3.03-0.6-6.25-1.29-8.55-1.52c-11.3-0.97-21.05,6.31-31.84,5.82c-3.34,0-5.65-3.15-8.47-3.15
				c-3.08-0.24-4.88,3.4-6.67,5.33c0,0-11.66,2.46-12.29,3.91c-0.6,1.38,1.5,1.16,2.27,1.65c6.81-0.5,13.1-0.71,19.78-0.71
				c13.87-0.24,27.99-0.97,41.85,0.24c1.21,0.11,3.02,0.24,4.94,0.35C91.53,327.34,90.61,323.16,92.01,319.31L92.01,319.31z"/>
			<path class="st9" d="M181.81,314.57c-0.04,0-0.07-0.01-0.1-0.02c-5.44-2.8-14.23-11.63-14.32-11.72
				c-0.08-0.08-0.08-0.21,0.01-0.28s0.22-0.07,0.31,0.01c0.09,0.09,8.83,8.87,14.21,11.64c0.1,0.05,0.14,0.18,0.08,0.27
				C181.96,314.53,181.89,314.57,181.81,314.57z"/>
			<path class="st1" d="M184.23,289.52c-16.83,4.4-26.47,7.9-26.47,10c-0.77,0.75,9.25,23.68,12.96,30.07c0,0,13.72-0.07,16.43-0.54
				c2.72-0.47-3.71-1.87-5.93-2.8c-1.68-0.7-5.18-0.35-6.8-0.13c-3.38-5.54-7.61-22.76-7.77-23.1c3.97-2.12,12.19-0.89,22.23-5.95
				C192.59,295.2,192.09,288.46,184.23,289.52L184.23,289.52z"/>
		</g>
	</g>
	<text transform="matrix(1.0584 0 0 1 19.9375 371.2656)" class="st8 st10 st11 st12">Up</text>
	<text transform="matrix(1.0584 0 0 1 46.2944 371.2656)" class="st8 st10 st11 st13">w</text>
	<text transform="matrix(1.0584 0 0 1 60.4912 371.2656)" class="st8 st10 st11 st12">ard </text>
	<text transform="matrix(1.0584 0 0 1 107.6494 371.2656)" class="st8 st10 st11">f</text>
	<text transform="matrix(1.0584 0 0 1 115.75 371.2656)" class="st8 st10 st11 st12">acing dog</text>
</g>
</svg>
