<?xml version="1.0" encoding="utf-8"?>
<!-- Generator: Adobe Illustrator 26.5.0, SVG Export Plug-In . SVG Version: 6.00 Build 0)  -->
<svg version="1.1" id="Layer_1" xmlns="http://www.w3.org/2000/svg" xmlns:xlink="http://www.w3.org/1999/xlink" x="0px" y="0px"
	 viewBox="0 0 250 224.7" style="enable-background:new 0 0 250 224.7;" xml:space="preserve">
<style type="text/css">
	.st0{fill:#B2BCC4;}
	.st1{fill:#F7B882;}
	.st2{fill:#8D5624;}
	.st3{fill:#452917;}
	.st4{fill:#FFFFFF;}
	.st5{fill:#D1E5FF;}
	.st6{fill:#355775;}
</style>
<g>
	<g>
		<path class="st0" d="M186.9,217.6c0-3.9-27.1-7.1-60.5-7.1S66,213.6,66,217.6s27.1,7.1,60.5,7.1S186.9,221.5,186.9,217.6z"/>
		<g>
			<path class="st1" d="M204.9,40.1c-2.4-6.4-6.5-17.2-6.8-24.5c1,0.3,1.5-0.1,0.7-1.9c-1.1-2.7-4.3-4.7-6.7-5.7
				c-0.7-0.3-2.4-2.4-4.1-2.9c-1.7-0.6-0.2,1.9-1.2,2.1s-2,0.4-2.5,0.5c-5.4,0.8-12.6,1-17.9,1.4c-6.5,0.6-11.9,1-13.9,5.5
				c-2.2,4.8-14.4,37.8-16.5,41.4c-3.5,5.9-5,9.6-8.6,14.5c-1.5,2.1-8.4,11.7-12.9,19.9c16.5,9.4,29.4,0.6,29.3,0.4
				c-1.3-3.9,8.3-5.4,20.2-19.4l8.6-6.3c6.2-4.1,12.9-6,18.8-10.5c4.4-3.4,11.9-8,13.8-13.5L204.9,40.1L204.9,40.1z M195.7,40.7
				c-5.8,3.9-21.9,15-25.5,14.3c-2.1-0.4-4.1-1.3-5.3-2.9c0.1-0.4,0.3-0.7,0.6-1.1c0.8-1.1,1.8-2.1,2.6-3l0,0l0,0l0,0H168
				c1,0.1,1.9,0.1,2.3,0c0.6,0,1.1-0.1,1.7-0.3c0.6-0.1,1.2-0.4,1.7-0.7c0.5-0.2,1-0.5,1.5-0.8c0.7-0.2,1.4-0.1,2.1-0.2
				c0.4-0.1,0.9-0.4,1.3-0.7c0.2-0.1,0.4-0.3,0.5-0.5c0.1-0.2,0.2-0.3,0.2-0.5c0,0-0.1-0.1,0-0.1l0,0l-0.1-0.7c0,0,0,0,0-0.1
				c1-0.8,1.8-1.9,2.5-2.9c0.7-0.9,1.3-1.9,1.6-3.1c0.4-1.9-1.3-2.7-2.4-4.2c-0.8-1.1-1.9-2.1-2.7-3.2c-0.6-0.8-1.1-2-0.9-3
				c-0.7,1.3-2.9,0.4-3.9,0c-0.9-0.4-0.7-1.7-1.7-1.6c-1.1,0.1-2.1,0.7-2.9,1.4c-0.7,0.6-1.2,1.2-1.9,1.8c-0.3,0.4-0.7,0.7-1,1
				c-0.2,0.2-0.4,0.3-0.6,0.4c-0.1,0-0.1,0-0.2,0.1c-0.1,0-0.1-0.1-0.1-0.1l-0.2-0.1l0,0h-0.1c-0.2,0.1-0.3,0.1-0.5,0.2
				c-0.2,0.2-0.4,0.3-0.5,0.5c-0.3,0.4-0.5,0.8-0.6,1.3c-0.2,0.8,0.1,1.7-0.4,2.5l0,0c-0.2,0.4-0.4,0.8-0.6,1.1
				c-0.2,0.6-0.5,1.2-0.6,1.8s-0.2,1.1-0.2,1.7c0,0.5,0,1.4,0.1,2.5c-0.8,0.8-1.6,1.5-2.4,2.2c-1.5,1.4-3.1,1.4-4.8,1
				c-1.1-1.4-1.3-4.2-0.5-6.9c2.8-9.6,4.3-12.7,5.7-19.3l0.3,0.2c7,0.6,21.1-7.6,27.4-7.7c1.2,0.1,2.2,0.3,3.1,0.6
				c1.1,1.4,3,3.7,3.1,3.9c1.5,5-0.3,18.2,2.4,24.8L195.7,40.7L195.7,40.7z"/>
			<path class="st2" d="M187.7,34.2c0.3-1.4,0.4-3.4-0.1-5.2c0.3-0.2,0.6-0.4,0.8-0.6c1.8-1.8,1.1-5.2-1.4-7.7s-6-3-7.7-1.2
				c-0.4,0.4-0.6,0.9-0.8,1.4c0,0-0.1,0-0.1-0.1c-0.8-0.4-2.9,0-4.2,0.2c-1,0.2-3.5,1.9-4.3,2.7c-1,1-1.9,2-2.6,3
				c-0.4,0.5-0.7,1-1.2,1.7l-0.1,0.1c-0.3,0.4-0.6,0.9-0.8,1.4c-0.1,0.1-0.1,0.1-0.2,0.2l-0.1,0.1v0.1h0.1c0.1,0,0.1,0,0.2-0.1l0,0
				l0,0c0.3-0.1,0.5-0.3,0.7-0.4c4.5-4.4,9.8-1.6,10.8-2c0.2-0.1,0.3-0.2,0.5-0.3c-0.1,1.1,0.5,2.2,0.9,2.8s0.9,1.1,1.3,1.5
				c1.5,1.7,5.1,6.3-0.3,11.7v0.1v0.1h0.1l0,0h0.1c1-0.6,2-1.3,2.9-2C183.1,40.9,187.3,36.3,187.7,34.2L187.7,34.2z"/>
			<path class="st3" d="M174,37.9c0,0,0.8,3.2,3.8,3.4C176.1,42.2,173.2,41.1,174,37.9z"/>
			<path class="st3" d="M168.9,32.4c0,0,0.8,3.2,3.8,3.4C170.9,36.7,168,35.7,168.9,32.4z"/>
			<path class="st3" d="M188.1,31.4c-0.3,0.2-0.7,0.1-0.8-0.4c-0.1-0.2-0.1-0.4-0.3-0.7c0,0.1-7.1-3.3-8.8-10.1
				c0.1,0.1,0.2,0.1,0.3,0.2l0.1,0.1c0,0,0,0,0,0.1c5.2,9.5,9.8,8,9.7,8.1c0.2,0,0.3,0.1,0.5,0.2c0.5,0.2,0.6,0.8,0.4,1.1
				c-0.1,0.2-0.4,0.3-0.7,0.1c-0.2-0.1-0.5-0.3-0.8-0.4c0.3,0.3,0.6,0.6,0.7,0.9C188.5,30.9,188.3,31.2,188.1,31.4z"/>
			<path class="st4" d="M167.8,54.1c-0.2-0.1-0.8-0.6-0.9-0.7c-1,1.3-9.7,14.7-16.7,9c-5.8-4.8,4.6-17.6,4.6-17.6l-0.8-0.6
				c0,0-11.8,12-16.5,8.6c-4.4,4.9-6.5,11.4-7.3,12.4c6.7,7.2,19.8,17.1,21,18.3c5.7-5,11.2-3.4,13.8-12.8
				C160.3,66.9,167.4,54.8,167.8,54.1L167.8,54.1z"/>
			<path class="st5" d="M143.5,74.5c-6.4-5.3-11.9-10.6-12-10.7s-0.1-0.2-0.1-0.2c0.1,0,0.1,0,0.2,0.1c0.1,0.1,12.5,12,21.6,18.1
				c0.1,0.1,0.1,0.2,0.1,0.2s-0.1,0.1-0.2,0C150.1,79.9,146.7,77.2,143.5,74.5L143.5,74.5z"/>
			<path class="st1" d="M149,162.8c-2.8,0.2-5.5,0.5-8.3,0.9c-0.2,4.4-0.6,12.4,1,19.5c1.4,6,3.1,9.7,3.6,17.9
				c0.2,4.1-1.9,7.3-1.4,11.1c0.2,2.1,1.3,5.1,2.2,6.7c0.1,0.3,0.3,0.5,0.5,0.7c0.1,0.1,0.2,0.2,0.3,0.2c2.8,1.8,11.2,0.7,10.2-2.7
				c-0.5-2.3-5-3.9-5.8-6.5c-0.5-2.3-0.2-4.3-0.2-6.6c0.1-12.4,2.9-15.7,2.6-28.5c0-2.3-1.2-8.1-2.2-13
				C150.8,162.6,149.9,162.7,149,162.8L149,162.8z"/>
			<path class="st1" d="M111.7,183c2-6.9,2.2-14.8,2.2-19.2c-3.6-0.6-7.3-1.2-10.8-2.1c-1.3,4.8-2.9,10.6-3.1,12.9
				c-1.1,12.8,1.5,16.2,0.8,28.6c-0.1,2.2,0,4.3-0.6,6.5c-1,2.5-5.6,3.8-6.2,6.1c-1.2,3.3,7.1,4.9,10,3.4c0.1,0,0.2-0.1,0.3-0.2
				c0.3-0.2,0.4-0.4,0.6-0.7c1-1.5,2.3-4.4,2.6-6.5c0.7-3.8-1.2-7.1-0.7-11.2C107.9,192.5,109.9,189,111.7,183L111.7,183z"/>
			<path class="st6" d="M140.5,167.4c4-0.1,7.9-0.7,11.7-2.1c-1.1-5.2-2.2-10.3-2.2-10.3c-1.7-6.9,3.7-30.6,0.8-46.9
				c-2.1-11.8-5.5-15.8-7-18.3c-0.1-0.2-2.8,0.5-6.6,1.3c-7.4,0.5-14.6-1.1-21.5-3.2c-0.3,0.5-0.6,1-0.9,1.5
				c-1.7,2.4-4.4,6.4-7.2,18c-3.9,16.1-0.1,40.1-2.2,46.9c0,0-1.5,5-2.9,10.1c3.7,1.6,7.6,2.4,11.5,2.8c0.1-2.4,0.1-4.4,0.1-5.6
				c-0.2-3.4,3.6-9.7,5.1-15.4c0.4-1.5,1-3.5,1.8-5.8l1.2-4.8c0.9-6.9,4.1-16.1,4.9-23.3c0.1-0.1,4.3-0.1,4.4,0
				c0.4,7.2,2.6,16,3.1,22.9l0.9,4.9c0.6,2.4,1.1,4.4,1.4,5.9c1.2,5.8,4.5,12.3,4.1,15.7C140.7,163.1,140.6,165,140.5,167.4
				L140.5,167.4z"/>
		</g>
	</g>
</g>
</svg>
