<?xml version="1.0" encoding="utf-8"?>
<!-- Generator: Adobe Illustrator 26.5.0, SVG Export Plug-In . SVG Version: 6.00 Build 0)  -->
<svg version="1.1" id="Layer_1" xmlns="http://www.w3.org/2000/svg" xmlns:xlink="http://www.w3.org/1999/xlink" x="0px" y="0px"
	 viewBox="0 0 250 400" style="enable-background:new 0 0 250 400;" xml:space="preserve">
<style type="text/css">
	.st0{enable-background:new    ;}
	.st1{fill:#355775;}
	.st2{fill:#B2BCC4;}
	.st3{fill:#F7B882;}
	.st4{fill:#8D5624;}
	.st5{fill:#452917;}
	.st6{fill:#FFFFFF;}
	.st7{fill:#D1E5FF;}
</style>
<g>
	<g class="st0">
		<path class="st1" d="M47.35,363.05c0,2.03-1.67,3.32-4.32,3.32c-3.11,0.01-4.87-1.9-3.94-3.34c0.24-0.38,0.44-0.36,0.51,0.07
			c0.16,1.26,0.92,3.08,3.43,3.07c2.13,0.02,3.08-1.11,3.08-2.93c0-3.78-7.18-4.16-7.18-8.91c0-1.97,1.61-3.22,4.17-3.22
			c3-0.01,4.46,1.9,3.53,3.34c-0.24,0.38-0.44,0.36-0.51-0.07c-0.16-1.26-0.62-3.07-3.01-3.07c-2.04,0-2.93,1.16-2.93,3.01
			C40.17,358.2,47.35,358.77,47.35,363.05z"/>
		<path class="st1" d="M58.18,355.42v10.12c0,0.29-0.26,0.52-0.61,0.52c-0.35,0-0.61-0.22-0.61-0.52v-5.01
			c-1.05,3.39-2.5,5.52-3.74,5.52c-1.91,0-3.1-2.12-3.1-5.53v-5.11c0-0.29,0.22-0.52,0.52-0.52h0.18c0.29,0,0.52,0.22,0.52,0.52
			v5.11c0,2.91,0.72,4.75,1.85,4.75c1.3,0,2.72-2.06,3.77-5.42v-4.42c0-0.29,0.25-0.52,0.61-0.52
			C57.91,354.91,58.18,355.13,58.18,355.42z"/>
		<path class="st1" d="M62.87,360.43c1.05-3.39,2.5-5.52,3.74-5.52l0.03,0.79c-1.31,0-2.72,2.06-3.77,5.42v4.42
			c0,0.29-0.25,0.52-0.61,0.52c-0.34,0-0.61-0.22-0.61-0.52v-9.92c0-0.29,0.26-0.52,0.61-0.52c0.35,0,0.61,0.22,0.61,0.52V360.43z
			 M66.61,354.9c1.91,0,3.1,2.13,3.1,5.54v5.11c0,0.29-0.22,0.52-0.52,0.52h-0.18c-0.29,0-0.52-0.22-0.52-0.52v-5.11
			c0-2.91-0.72-4.75-1.85-4.75L66.61,354.9z"/>
		<path class="st1" d="M80.25,351.11c0.29,0,0.52,0.22,0.52,0.52v13.92c0,0.29-0.22,0.52-0.52,0.52h-0.18
			c-0.29,0-0.52-0.22-0.52-0.52v-4.74c0,0.01-0.01,0.02-0.01,0.03c-1.05,3.39-2.5,5.52-3.74,5.52l-0.03-0.79
			c1.32,0,2.73-2.07,3.78-5.46v-3.17c-0.47-1.13-1.46-1.84-2.57-1.84c-1.87,0-3.06,2.21-3.06,5.74c0,2.9,0.71,4.73,1.84,4.73
			l0.03,0.8c-1.91,0-3.12-2.12-3.12-5.52v-0.01v-0.01c0.01-3.64,1.66-5.93,4.3-5.93c1.01,0,1.93,0.39,2.57,1.07v-4.35
			c0-0.29,0.22-0.52,0.52-0.52H80.25z"/>
		<path class="st1" d="M84.75,351.96c0-0.34,0.28-0.63,0.63-0.63c0.34,0,0.63,0.28,0.63,0.63s-0.28,0.63-0.63,0.63
			C85.03,352.58,84.75,352.3,84.75,351.96z M84.77,355.63c0-0.29,0.26-0.52,0.61-0.52c0.35,0,0.61,0.22,0.61,0.52v9.92
			c0,0.29-0.25,0.52-0.61,0.52c-0.34,0-0.61-0.22-0.61-0.52V355.63z"/>
		<path class="st1" d="M98.51,360.53v5.01c0,0.29-0.22,0.52-0.52,0.52h-0.18c-0.29,0-0.52-0.22-0.52-0.52v-2.77
			c-0.73,2.24-2.71,3.6-5.31,3.6c-1.79,0-2.91-0.9-2.91-2.35c0-2.74,5.03-2.12,5.03-4.41c0-1.92-2.88-1.49-2.88-3.3
			c0-0.87,0.89-1.42,2.31-1.42C96.79,354.9,98.51,356.81,98.51,360.53z M97.3,361.62v-0.95l-0.01-0.13c0-3.54-1.33-5.33-3.97-5.33
			c-1.14,0-1.86,0.42-1.86,1.11c0,1.7,2.84,1.14,2.84,3.3c0,2.35-4.12,1.84-4.12,4.31c0,1.02,0.81,1.66,2.1,1.66
			C95.16,365.58,97.04,364.06,97.3,361.62z"/>
		<path class="st1" d="M102.49,351.62c0-0.29,0.22-0.52,0.52-0.52h0.18c0.29,0,0.52,0.22,0.52,0.52v13.92
			c0,0.29-0.22,0.52-0.52,0.52h-0.18c-0.29,0-0.52-0.22-0.52-0.52V351.62z"/>
		<path class="st1" d="M123.25,363.37c0,1.84-1.68,3-4.36,3c-3.11,0.01-4.76-1.9-3.83-3.34c0.24-0.38,0.45-0.36,0.51,0.07
			c0.16,1.26,0.82,3.08,3.33,3.07c1.91-0.01,3.12-0.88,3.12-2.27c0-3.42-7.18-2.53-7.18-6.59c0-1.49,1.48-2.42,4.16-2.41
			c3.11-0.01,4.46,0.89,3.53,2.33c-0.24,0.38-0.45,0.36-0.51-0.07c-0.16-1.26-1.33-2.06-3.02-2.05c-1.91-0.01-2.91,0.76-2.91,2
			C116.07,360.18,123.25,359.38,123.25,363.37z"/>
		<path class="st1" d="M134.75,360.53v5.01c0,0.29-0.22,0.52-0.52,0.52h-0.18c-0.29,0-0.52-0.22-0.52-0.52v-2.77
			c-0.73,2.24-2.71,3.6-5.31,3.6c-1.79,0-2.91-0.9-2.91-2.35c0-2.74,5.03-2.12,5.03-4.41c0-1.92-2.88-1.49-2.88-3.3
			c0-0.87,0.89-1.42,2.31-1.42C133.04,354.9,134.75,356.81,134.75,360.53z M133.54,361.62v-0.95l-0.01-0.13
			c0-3.54-1.33-5.33-3.96-5.33c-1.14,0-1.86,0.42-1.86,1.11c0,1.7,2.84,1.14,2.84,3.3c0,2.35-4.12,1.84-4.12,4.31
			c0,1.02,0.81,1.66,2.1,1.66C131.41,365.58,133.29,364.06,133.54,361.62z"/>
		<path class="st1" d="M138.74,351.62c0-0.29,0.22-0.52,0.52-0.52h0.18c0.29,0,0.52,0.22,0.52,0.52v13.92
			c0,0.29-0.22,0.52-0.52,0.52h-0.18c-0.29,0-0.52-0.22-0.52-0.52V351.62z"/>
		<path class="st1" d="M151.99,355.42v10.12c0,0.29-0.26,0.52-0.61,0.52c-0.35,0-0.61-0.22-0.61-0.52v-5.01
			c-1.05,3.39-2.5,5.52-3.74,5.52c-1.91,0-3.1-2.12-3.1-5.53v-5.11c0-0.29,0.22-0.52,0.52-0.52h0.18c0.29,0,0.52,0.22,0.52,0.52
			v5.11c0,2.91,0.72,4.75,1.85,4.75c1.3,0,2.72-2.06,3.77-5.42v-4.42c0-0.29,0.25-0.52,0.61-0.52
			C151.72,354.91,151.99,355.13,151.99,355.42z"/>
		<path class="st1" d="M160.47,365.32c0,0.08-0.03,0.18-0.09,0.31c-0.24,0.53-0.59,0.74-0.97,0.74c-1.68,0-3.04-2.68-3.04-4.67
			v-6.38h-1.62v-0.2c1.62,0,2.63-1.46,2.63-3.78h0.2v3.78h2.03v0.2h-2.03v5.68c0,2.74,0.08,4.73,0.91,4.73
			c0.7,0,1.04-0.24,1.55-0.48c0.12-0.05,0.21-0.07,0.27-0.07C160.42,365.18,160.47,365.23,160.47,365.32z"/>
	</g>
	<g class="st0">
		<path class="st1" d="M171.57,360.53v5.01c0,0.29-0.22,0.52-0.52,0.52h-0.18c-0.29,0-0.52-0.22-0.52-0.52v-2.77
			c-0.73,2.24-2.71,3.6-5.31,3.6c-1.79,0-2.91-0.9-2.91-2.35c0-2.74,5.03-2.12,5.03-4.41c0-1.92-2.88-1.49-2.88-3.3
			c0-0.87,0.89-1.42,2.31-1.42C169.85,354.9,171.57,356.81,171.57,360.53z M170.35,361.62v-0.95l-0.01-0.13
			c0-3.54-1.33-5.33-3.96-5.33c-1.14,0-1.86,0.42-1.86,1.11c0,1.7,2.84,1.14,2.84,3.3c0,2.35-4.12,1.84-4.12,4.31
			c0,1.02,0.81,1.66,2.1,1.66C168.22,365.58,170.1,364.06,170.35,361.62z"/>
	</g>
	<g class="st0">
		<path class="st1" d="M179.45,365.32c0,0.08-0.03,0.18-0.09,0.31c-0.24,0.53-0.59,0.74-0.97,0.74c-1.68,0-3.04-2.68-3.04-4.67
			v-6.38h-1.62v-0.2c1.62,0,2.63-1.46,2.63-3.78h0.2v3.78h2.03v0.2h-2.03v5.68c0,2.74,0.08,4.73,0.91,4.73
			c0.7,0,1.04-0.24,1.55-0.48c0.12-0.05,0.21-0.07,0.27-0.07C179.39,365.18,179.45,365.23,179.45,365.32z"/>
	</g>
	<g class="st0">
		<path class="st1" d="M182.01,351.96c0-0.34,0.28-0.63,0.63-0.63s0.63,0.28,0.63,0.63s-0.28,0.63-0.63,0.63
			S182.01,352.3,182.01,351.96z M182.03,355.63c0-0.29,0.26-0.52,0.61-0.52c0.35,0,0.61,0.22,0.61,0.52v9.92
			c0,0.29-0.25,0.52-0.61,0.52c-0.34,0-0.61-0.22-0.61-0.52V355.63z"/>
		<path class="st1" d="M186.74,360.63c0-4.25,2.25-5.74,5.02-5.74c2.76,0,5.01,1.49,5.01,5.74c0,4.24-2.25,5.74-5.01,5.74
			C188.99,366.37,186.74,364.87,186.74,360.63z M195.52,360.63c0-3.82-1.67-5.53-3.76-5.53c-2.11,0-3.77,1.71-3.77,5.53
			c0,3.82,1.66,5.53,3.77,5.53C193.85,366.17,195.52,364.46,195.52,360.63z"/>
		<path class="st1" d="M200.95,360.43c1.05-3.39,2.5-5.52,3.74-5.52l0.03,0.79c-1.3,0-2.72,2.06-3.77,5.42v4.42
			c0,0.29-0.25,0.52-0.61,0.52c-0.34,0-0.61-0.22-0.61-0.52v-9.92c0-0.29,0.26-0.52,0.61-0.52c0.35,0,0.61,0.22,0.61,0.52V360.43z
			 M204.7,354.9c1.91,0,3.1,2.13,3.1,5.54v5.11c0,0.29-0.22,0.52-0.52,0.52h-0.18c-0.29,0-0.52-0.22-0.52-0.52v-5.11
			c0-2.91-0.72-4.75-1.85-4.75L204.7,354.9z"/>
	</g>
	<g>
		<path class="st2" d="M186.95,326.56c0-3.91-27.08-7.09-60.48-7.09s-60.48,3.17-60.48,7.09s27.08,7.09,60.48,7.09
			S186.95,330.47,186.95,326.56z"/>
		<g>
			<path class="st3" d="M194.88,149.12c-2.42-6.41-6.49-17.17-6.83-24.5c1.01,0.26,1.47-0.12,0.73-1.88
				c-1.12-2.67-4.26-4.65-6.7-5.72c-0.7-0.31-2.39-2.36-4.14-2.93c-1.74-0.57-0.16,1.94-1.2,2.13c-0.99,0.18-1.99,0.4-2.47,0.52
				c-5.37,0.81-12.65,0.97-17.89,1.45c-6.46,0.59-11.89,1.04-13.92,5.49c-2.2,4.83-14.43,37.81-16.54,41.44
				c-3.45,5.94-5.02,9.56-8.61,14.48c-1.52,2.08-8.44,11.73-12.86,19.95c16.52,9.37,29.43,0.64,29.35,0.4
				c-1.34-3.85,8.27-5.44,20.21-19.43l8.57-6.29c6.22-4.15,12.91-5.97,18.81-10.46c4.43-3.37,11.94-8.04,13.84-13.54L194.88,149.12
				L194.88,149.12z M185.73,149.67c-5.78,3.85-21.94,15.03-25.5,14.29c-2.13-0.44-4.08-1.34-5.27-2.85c0.14-0.35,0.32-0.7,0.59-1.05
				c0.81-1.06,1.76-2.05,2.65-3.04c0.01-0.01,0-0.01-0.01-0.01l0,0l0-0.04c-0.04,0-0.08,0-0.12,0c0.99,0.05,1.88,0.06,2.34,0.03
				c0.57-0.04,1.15-0.11,1.72-0.26c0.59-0.15,1.18-0.4,1.74-0.66c0.51-0.24,1-0.52,1.48-0.82c0.68-0.21,1.42-0.06,2.1-0.25
				c0.45-0.13,0.87-0.36,1.26-0.66c0.19-0.15,0.36-0.31,0.51-0.5c0.13-0.16,0.19-0.32,0.24-0.51c0.01-0.03-0.05-0.11-0.04-0.12h0
				l-0.12-0.7c-0.02-0.01-0.02-0.04,0-0.06c0.99-0.81,1.76-1.88,2.53-2.89c0.69-0.92,1.29-1.91,1.55-3.05
				c0.44-1.91-1.27-2.67-2.37-4.23c-0.8-1.13-1.86-2.05-2.67-3.17c-0.61-0.83-1.15-1.96-0.89-3.01c-0.73,1.33-2.9,0.4-3.95-0.02
				c-0.89-0.36-0.72-1.74-1.7-1.61c-1.08,0.14-2.05,0.7-2.89,1.38c-0.69,0.55-1.25,1.2-1.85,1.84c-0.33,0.35-0.66,0.7-1.02,1.01
				c-0.2,0.17-0.39,0.33-0.63,0.42c-0.07,0.02-0.14,0.04-0.21,0.05c-0.06,0-0.08-0.06-0.07-0.1l-0.19-0.05h0
				c-0.02,0.01-0.1-0.04-0.13-0.03c-0.19,0.06-0.34,0.12-0.5,0.25c-0.18,0.16-0.35,0.33-0.49,0.52c-0.29,0.39-0.51,0.82-0.63,1.27
				c-0.21,0.82,0.1,1.72-0.36,2.51h0.01c-0.21,0.37-0.41,0.75-0.58,1.15c-0.25,0.57-0.49,1.16-0.63,1.75
				c-0.13,0.57-0.2,1.15-0.22,1.72c-0.02,0.49,0.01,1.45,0.09,2.49c-0.81,0.75-1.62,1.5-2.45,2.24c-1.52,1.36-3.09,1.41-4.77,0.97
				c-1.12-1.35-1.26-4.21-0.49-6.86c2.77-9.55,4.32-12.69,5.67-19.3l0.29,0.22c6.96,0.62,21.1-7.59,27.42-7.69
				c1.16,0.07,2.16,0.27,3.12,0.61c1.11,1.36,2.99,3.65,3.06,3.88c1.54,4.97-0.34,18.21,2.41,24.75L185.73,149.67L185.73,149.67z"/>
			<path class="st4" d="M177.71,143.19c0.28-1.39,0.37-3.45-0.06-5.2c0.3-0.16,0.57-0.35,0.81-0.59c1.75-1.79,1.14-5.23-1.37-7.69
				c-2.51-2.46-5.96-3-7.72-1.22c-0.38,0.39-0.63,0.86-0.79,1.38c-0.04-0.02-0.07-0.04-0.11-0.06c-0.84-0.37-2.94-0.03-4.16,0.24
				c-1.02,0.22-3.48,1.85-4.3,2.66c-1.03,1.01-1.92,2.02-2.65,3c-0.37,0.49-0.74,1.03-1.16,1.66l-0.05,0.08
				c-0.28,0.43-0.57,0.89-0.8,1.36c-0.07,0.06-0.14,0.11-0.22,0.17c-0.04,0.02-0.06,0.07-0.06,0.11s0.01,0.09,0.04,0.12
				c0.03,0.03,0.07,0.04,0.11,0.04c0.07-0.01,0.13-0.03,0.19-0.05c0,0,0,0,0,0s0,0,0.01,0c0.27-0.09,0.49-0.26,0.68-0.44
				c4.51-4.39,9.8-1.62,10.77-2.03c0.19-0.08,0.34-0.2,0.47-0.34c-0.11,1.09,0.51,2.17,0.95,2.77c0.4,0.55,0.86,1.05,1.3,1.54
				c1.52,1.68,5.12,6.27-0.33,11.71c-0.02,0.02-0.04,0.05-0.04,0.08c0,0.03,0.01,0.06,0.03,0.08c0.03,0.03,0.09,0.04,0.13,0.02
				c0.01,0,0.02-0.01,0.02-0.01c0.02,0.01,0.05,0.01,0.07,0c1.02-0.59,1.97-1.31,2.86-2C173.12,149.94,177.29,145.28,177.71,143.19
				L177.71,143.19z"/>
			<path class="st5" d="M164.03,146.88c0,0,0.78,3.23,3.77,3.35C166.06,151.16,163.17,150.09,164.03,146.88z"/>
			<path class="st5" d="M158.9,141.45c0,0,0.78,3.23,3.77,3.35C160.93,145.73,158.04,144.66,158.9,141.45z"/>
			<path class="st5" d="M178.09,140.39c-0.32,0.21-0.7,0.07-0.81-0.35c-0.05-0.21-0.14-0.44-0.27-0.69c0,0.1-7.06-3.33-8.76-10.15
				c0.1,0.06,0.2,0.12,0.27,0.17c0.04,0.03,0.07,0.06,0.11,0.09c0.01,0.02,0.01,0.04,0.02,0.06c5.16,9.51,9.78,8.03,9.69,8.08
				c0.18,0.04,0.33,0.09,0.47,0.16c0.51,0.25,0.63,0.81,0.43,1.09c-0.11,0.16-0.37,0.28-0.72,0.06c-0.22-0.14-0.5-0.26-0.83-0.36
				c0.31,0.28,0.55,0.6,0.66,0.91C178.51,139.87,178.33,140.23,178.09,140.39z"/>
			<path class="st6" d="M157.81,163.1c-0.21-0.08-0.8-0.6-0.92-0.73c-0.99,1.28-9.72,14.67-16.68,8.98
				c-5.83-4.77,4.58-17.59,4.58-17.59l-0.82-0.64c0,0-11.84,12.01-16.47,8.57c-4.41,4.94-6.48,11.4-7.26,12.41
				c6.7,7.22,19.79,17.1,21.01,18.32c5.74-5.04,11.16-3.4,13.8-12.83C150.3,175.93,157.42,163.79,157.81,163.1L157.81,163.1z"/>
			<path class="st7" d="M133.48,183.49c-6.37-5.34-11.89-10.63-11.97-10.71c-0.08-0.08-0.1-0.18-0.05-0.22
				c0.05-0.04,0.15-0.04,0.24,0.06c0.12,0.12,12.51,11.99,21.57,18.1c0.1,0.07,0.14,0.17,0.11,0.23c-0.03,0.06-0.13,0.07-0.22,0
				C140.11,188.89,136.69,186.18,133.48,183.49L133.48,183.49z"/>
			<path class="st3" d="M138.98,271.77c-2.77,0.18-5.53,0.54-8.28,0.94c-0.22,4.42-0.63,12.38,0.99,19.54
				c1.36,6.04,3.15,9.7,3.62,17.89c0.24,4.12-1.88,7.31-1.39,11.12c0.23,2.12,1.28,5.15,2.22,6.67c0.1,0.26,0.28,0.49,0.52,0.7
				c0.11,0.11,0.21,0.19,0.31,0.23c2.84,1.75,11.16,0.7,10.24-2.7c-0.47-2.31-4.96-3.92-5.76-6.46c-0.47-2.31-0.22-4.33-0.21-6.57
				c0.07-12.44,2.87-15.69,2.63-28.51c-0.04-2.32-1.18-8.15-2.21-13.01C140.76,271.65,139.87,271.71,138.98,271.77L138.98,271.77z"
				/>
			<path class="st3" d="M101.67,292.03c2.04-6.94,2.18-14.77,2.25-19.24c-3.64-0.58-7.27-1.2-10.83-2.12
				c-1.35,4.8-2.88,10.61-3.07,12.94c-1.07,12.78,1.51,16.21,0.78,28.63c-0.13,2.24-0.02,4.27-0.64,6.54
				c-0.96,2.48-5.55,3.8-6.17,6.08c-1.15,3.34,7.1,4.93,10.04,3.36c0.1-0.03,0.21-0.1,0.33-0.21c0.26-0.19,0.45-0.41,0.56-0.66
				c1.03-1.47,2.28-4.42,2.64-6.52c0.74-3.77-1.17-7.09-0.67-11.18C97.89,301.51,99.92,297.97,101.67,292.03L101.67,292.03z"/>
			<path class="st1" d="M130.54,276.43c3.98-0.13,7.95-0.7,11.69-2.07c-1.06-5.23-2.25-10.31-2.25-10.31
				c-1.67-6.87,3.71-30.61,0.82-46.91c-2.08-11.75-5.52-15.75-7.01-18.26c-0.12-0.21-2.82,0.5-6.65,1.34
				c-7.44,0.49-14.64-1.07-21.53-3.22c-0.3,0.49-0.6,0.97-0.94,1.46c-1.65,2.41-4.4,6.45-7.24,18.03
				c-3.94,16.08-0.11,40.12-2.22,46.87c0,0-1.51,5-2.91,10.15c3.65,1.6,7.57,2.43,11.53,2.82c0.08-2.39,0.08-4.38,0.12-5.64
				c-0.21-3.42,3.57-9.71,5.1-15.4c0.4-1.47,1.04-3.46,1.8-5.84l1.17-4.8c0.93-6.87,4.06-16.14,4.92-23.28c0.11-0.1,4.27-0.13,4.4,0
				c0.39,7.18,2.58,16.01,3.06,22.92l0.86,4.86c0.6,2.42,1.11,4.45,1.41,5.94c1.17,5.77,4.53,12.3,4.1,15.7
				C130.74,272.06,130.61,274.04,130.54,276.43L130.54,276.43z"/>
		</g>
	</g>
</g>
</svg>
