<?xml version="1.0" encoding="UTF-8"?>
<svg id="Layer_1" data-name="Layer 1" xmlns="http://www.w3.org/2000/svg" viewBox="0 0 704.22 1054.93">
  <defs>
    <style>
      .cls-1 {
        letter-spacing: .05em;
      }

      .cls-2 {
        fill: #f7b882;
      }

      .cls-3 {
        fill: #fff;
      }

      .cls-4 {
        fill: #8d5624;
      }

      .cls-5 {
        fill: #b2bcc4;
      }

      .cls-6 {
        fill: #d1e5ff;
      }

      .cls-7 {
        fill: #452917;
      }

      .cls-8, .cls-9 {
        fill: #355775;
      }

      .cls-10 {
        letter-spacing: .04em;
      }

      .cls-11 {
        letter-spacing: .07em;
      }

      .cls-9 {
        font-family: FarmWaveFree-Regular, 'Farm Wave Free';
        font-size: 85px;
        isolation: isolate;
      }
    </style>
  </defs>
  <text class="cls-9" transform="translate(0 1033.68)"><tspan class="cls-11" x="0" y="0">Sundial salut</tspan><tspan class="cls-10" x="506.42" y="0">a</tspan><tspan class="cls-1" x="553.17" y="0">t</tspan><tspan class="cls-11" x="582.15" y="0">ion</tspan></text>
  <g>
    <path class="cls-5" d="M608.62,871.68c0-16.05-111.04-29.06-248.02-29.06s-248.02,13.01-248.02,29.06,111.04,29.06,248.02,29.06,248.02-13.01,248.02-29.06Z"/>
    <g>
      <path class="cls-2" d="M641.14,144.01c-9.93-26.3-26.61-70.43-27.99-100.49,4.16,1.07,6.03-.51,3.01-7.69-4.59-10.93-17.49-19.07-27.49-23.46-2.87-1.26-9.82-9.69-16.98-12.02-7.15-2.34-.67,7.96-4.92,8.74-4.08,.75-8.15,1.66-10.12,2.12-22.04,3.31-51.87,3.99-73.35,5.94-26.48,2.4-48.75,4.26-57.07,22.5-9.03,19.79-59.18,155.06-67.83,169.95-14.16,24.37-20.6,39.22-35.32,59.37-6.24,8.53-34.61,48.1-52.72,81.8,67.75,38.44,120.7,2.61,120.35,1.62-5.51-15.78,33.91-22.3,82.9-79.69l35.14-25.8c25.5-17.01,52.95-24.48,77.14-42.88,18.15-13.8,48.95-32.97,56.75-55.54l-1.5-4.47Zm-37.51,2.25c-23.7,15.78-89.98,61.63-104.58,58.62-8.72-1.8-16.75-5.49-21.6-11.69,.56-1.44,1.31-2.87,2.4-4.3,3.32-4.36,7.2-8.4,10.87-12.47,.03-.04-.02-.03-.05-.05h0l.02-.18c-.16-.01-.32-.02-.48-.02,4.05,.19,7.71,.24,9.6,.12,2.35-.15,4.72-.46,7.04-1.06,2.44-.63,4.83-1.65,7.14-2.72,2.1-.98,4.1-2.13,6.07-3.36,2.79-.85,5.82-.25,8.6-1.04,1.83-.52,3.58-1.49,5.15-2.7,.78-.6,1.48-1.29,2.11-2.04,.55-.67,.76-1.31,1-2.09,.04-.12-.19-.44-.16-.51h.01s-.48-2.89-.48-2.89c-.07-.06-.08-.15,0-.23,4.07-3.34,7.2-7.69,10.36-11.86,2.82-3.76,5.27-7.85,6.36-12.52,1.82-7.82-5.21-10.93-9.72-17.34-3.28-4.65-7.61-8.39-10.93-13-2.49-3.4-4.71-8.05-3.67-12.34-3,5.44-11.91,1.63-16.18-.09-3.67-1.48-2.94-7.12-6.96-6.61-4.44,.58-8.4,2.89-11.84,5.64-2.81,2.27-5.14,4.91-7.57,7.55-1.34,1.43-2.69,2.87-4.18,4.16-.8,.69-1.6,1.37-2.58,1.72-.27,.08-.56,.15-.87,.2-.24,.02-.34-.24-.28-.4l-.78-.22h-.01c-.07,.05-.4-.18-.52-.14-.78,.26-1.41,.48-2.07,1.04-.74,.64-1.42,1.36-2,2.15-1.18,1.59-2.11,3.36-2.6,5.2-.88,3.36,.39,7.07-1.48,10.31h.03c-.86,1.53-1.68,3.09-2.39,4.71-1.03,2.33-2,4.74-2.58,7.19-.55,2.34-.82,4.71-.92,7.06-.09,1.99,.05,5.94,.35,10.23-3.31,3.09-6.66,6.14-10.03,9.17-6.22,5.58-12.67,5.8-19.55,3.99-4.61-5.54-5.17-17.26-2.02-28.14,11.35-39.18,17.72-52.03,23.24-79.17l1.18,.9c28.56,2.54,86.52-31.13,112.46-31.54,4.77,.28,8.84,1.11,12.81,2.52,4.54,5.59,12.25,14.95,12.56,15.92,6.33,20.37-1.4,74.66,9.88,101.51l-.16,.81Z"/>
      <path class="cls-4" d="M570.75,119.67c1.15-5.72,1.5-14.14-.26-21.33,1.21-.65,2.34-1.43,3.32-2.43,7.19-7.33,4.68-21.45-5.6-31.54-10.28-10.09-24.45-12.32-31.64-4.99-1.56,1.59-2.58,3.54-3.24,5.66-.15-.07-.3-.18-.45-.25-3.46-1.53-12.07-.11-17.06,1-4.17,.92-14.26,7.58-17.63,10.91-4.21,4.16-7.87,8.3-10.88,12.3-1.5,2-3.05,4.22-4.74,6.79l-.2,.31c-1.16,1.78-2.34,3.63-3.29,5.58-.3,.23-.58,.47-.89,.68-.15,.1-.24,.27-.26,.46s.04,.36,.17,.48c.11,.11,.27,.16,.44,.15,.27-.03,.52-.11,.77-.19,.01,0,.01,.01,.02,.01s.02-.02,.03-.02c1.09-.35,2.03-1.05,2.79-1.79,18.5-17.99,40.19-6.64,44.15-8.32,.76-.32,1.4-.8,1.93-1.4-.46,4.45,2.11,8.89,3.9,11.35,1.63,2.25,3.52,4.32,5.34,6.33,6.22,6.87,21.01,25.72-1.34,48.02-.09,.09-.15,.19-.16,.31-.01,.12,.04,.24,.14,.33,.14,.14,.35,.18,.52,.1,.04-.02,.07-.04,.1-.06,.1,.03,.21,.04,.3-.02,4.17-2.44,8.09-5.39,11.71-8.22,3.17-2.5,20.28-21.61,22.01-30.21Z"/>
      <path class="cls-7" d="M514.65,134.83s3.18,13.25,15.47,13.73c-7.16,3.83-19.01-.57-15.47-13.73Z"/>
      <path class="cls-7" d="M493.6,112.55s3.18,13.25,15.47,13.73c-7.16,3.83-19.01-.57-15.47-13.73Z"/>
      <path class="cls-7" d="M572.31,108.2c-1.3,.88-2.89,.28-3.32-1.43-.21-.86-.58-1.8-1.11-2.81,0,.39-28.96-13.67-35.94-41.64,.42,.24,.8,.48,1.12,.71,.16,.11,.29,.24,.44,.35,.04,.08,.05,.16,.1,.24,21.18,39.02,40.12,32.95,39.75,33.15,.72,.15,1.37,.37,1.94,.65,2.11,1.04,2.57,3.32,1.75,4.48-.47,.66-1.52,1.13-2.94,.24-.91-.56-2.06-1.06-3.39-1.49,1.26,1.14,2.24,2.48,2.7,3.74,.61,1.7-.14,3.16-1.1,3.81Z"/>
      <path class="cls-3" d="M489.14,201.34c-.87-.34-3.29-2.46-3.76-3.01-4.07,5.23-39.87,60.15-68.39,36.82-23.92-19.56,18.79-72.14,18.79-72.14l-3.38-2.63s-48.54,49.26-67.55,35.14c-18.07,20.24-26.57,46.74-29.77,50.91,27.47,29.62,81.16,70.14,86.17,75.15,23.55-20.67,45.77-13.95,56.61-52.61-19.53-15.03,9.68-64.81,11.28-67.63Z"/>
      <path class="cls-6" d="M389.34,284.97c-26.11-21.91-48.75-43.61-49.09-43.94-.33-.31-.42-.72-.2-.9,.21-.18,.61-.16,.99,.24,.51,.48,51.32,49.19,88.45,74.24,.43,.27,.59,.68,.47,.93-.12,.26-.52,.27-.89,.02-12.52-8.45-26.57-19.55-39.73-30.59Z"/>
      <path class="cls-2" d="M411.9,647.01c-11.38,.75-22.68,2.22-33.97,3.84-.89,18.13-2.57,50.76,4.05,80.13,5.57,24.76,12.93,39.77,14.85,73.37,.97,16.9-7.72,29.97-5.7,45.59,.93,8.7,5.25,21.11,9.09,27.37,.4,1.07,1.13,2.03,2.13,2.86,.45,.46,.88,.77,1.29,.93,11.63,7.18,45.78,2.88,41.98-11.09-1.92-9.48-20.36-16.08-23.62-26.51-1.92-9.46-.92-17.77-.86-26.95,.29-51.03,11.78-64.36,10.79-116.94-.18-9.5-4.83-33.41-9.06-53.35-3.66,.27-7.31,.51-10.97,.75Z"/>
      <path class="cls-2" d="M258.89,730.11c8.38-28.46,8.93-60.59,9.21-78.89-14.94-2.37-29.82-4.92-44.41-8.71-5.54,19.7-11.81,43.53-12.61,53.07-4.39,52.41,6.21,66.46,3.2,117.4-.54,9.17-.08,17.52-2.61,26.84-3.93,10.19-22.76,15.59-25.29,24.92-4.7,13.69,29.1,20.2,41.17,13.78,.42-.14,.86-.42,1.35-.85,1.05-.76,1.84-1.67,2.31-2.71,4.24-6.01,9.35-18.11,10.84-26.73,3.02-15.46-4.8-29.06-2.74-45.86,4.1-33.41,12.42-47.91,19.58-72.26Z"/>
      <path class="cls-8" d="M377.28,666.13c16.31-.54,32.59-2.86,47.94-8.47-4.35-21.45-9.22-42.29-9.22-42.29-6.85-28.17,15.21-125.55,3.35-192.39-8.55-48.17-22.62-64.59-28.74-74.88-.51-.86-11.56,2.06-27.26,5.48-30.53,2.01-60.05-4.39-88.29-13.19-1.25,1.99-2.47,3.97-3.86,6-6.77,9.88-18.04,26.44-29.68,73.96-16.16,65.93-.45,164.53-9.11,192.2,0,0-6.21,20.49-11.94,41.61,14.95,6.58,31.06,9.95,47.3,11.55,.33-9.8,.33-17.96,.51-23.15-.87-14.02,14.63-39.84,20.93-63.15,1.64-6.02,4.26-14.21,7.37-23.93l4.81-19.67c3.81-28.17,16.66-66.2,20.17-95.48,.44-.4,17.53-.52,18.04,0,1.6,29.44,10.57,65.65,12.55,94l3.53,19.94c2.47,9.91,4.56,18.24,5.8,24.36,4.78,23.67,18.58,50.44,16.8,64.37-.16,5.18-.69,13.32-1,23.13Z"/>
    </g>
  </g>
</svg>