<?xml version="1.0" encoding="utf-8"?>
<!-- Generator: Adobe Illustrator 26.5.0, SVG Export Plug-In . SVG Version: 6.00 Build 0)  -->
<svg version="1.1" id="Layer_1" xmlns="http://www.w3.org/2000/svg" xmlns:xlink="http://www.w3.org/1999/xlink" x="0px" y="0px"
	 viewBox="0 0 250 86.2" style="enable-background:new 0 0 250 86.2;" xml:space="preserve">
<style type="text/css">
	.st0{fill:#B2BCC4;}
	.st1{fill:url(#SVGID_1_);}
	.st2{fill:#905423;}
	.st3{fill:#46260F;}
	.st4{fill:#D09A6F;}
	.st5{fill:#F5B080;}
	.st6{fill:#F7B882;}
	.st7{fill:#FFFFFF;}
	.st8{fill:#355775;}
	.st9{fill:#D1E5FF;}
</style>
<g>
	<g>
		<ellipse class="st0" cx="125" cy="79" rx="125" ry="7.2"/>
		<g>
			<g>
				
					<linearGradient id="SVGID_1_" gradientUnits="userSpaceOnUse" x1="315.4753" y1="-117.8295" x2="338.8078" y2="-117.8295" gradientTransform="matrix(0.9578 -0.2874 0.2874 0.9578 -96.066 273.6464)">
					<stop  offset="0" style="stop-color:#F8A164"/>
					<stop  offset="1" style="stop-color:#FAB57E"/>
				</linearGradient>
				<path class="st1" d="M169.2,60c-0.5,4.4-1.5,8.6-2.6,12.8c0.5,0.3,0.9,0.5,1.3,0.7c0.2,1.8,0.4,3.9,0.8,4.6
					c0.6,1.5,1.8,1,3.1,0.4c0.6-0.3,1.3-0.5,1.9,0.1c0.3,0.3,0.3,0.5,0.7,0.6c0.2,0.1,0.5,0,0.7-0.2c0.4-0.2,0.2-0.6,0.4-0.1
					c0.1,0.4,0.8,0.4,1.1,0.3c0.5-0.3,0.4-1,1.5-0.4c0.3,0.2,0.5,0.4,0.8,0.5s0.6,0,0.8-0.3c0.5-0.8,0.9-1.6,1.5-2.3
					c0.2-0.2,0.4-0.4,0.6-0.6c0.1-0.1,0.2-0.1,0.3-0.2c0.1,0.5,0.8,1,1.4,1c-0.4-0.3-0.7-0.8-0.7-1.4c0.5-0.2,1.1-0.3,1.6-0.4
					c1.1-0.2,2.1-0.6,3.1-1.1c0.5-0.3,1.8-1.2,3.2-2.5c-8.4-15.8-19.9-10.8-21.1-11.9C169.4,59.9,169.3,60,169.2,60L169.2,60z"/>
				<path class="st2" d="M168.2,58.5c1-1.3,2.1-3.5,5.1-4.9c2.5-1.2,4-1.3,4.9-1.2c0.1,0,0.3,0,0.4,0.1c-0.3-0.9-0.6-2.9,1.6-4.4
					c1.4-1,3.8-1.4,6.3-1c3.2,0.4,7.1,2.2,7.7,5.8c0.2,1.3-0.2,2.3-0.7,3.1c0.2-0.1,0.4-0.1,0.6-0.1c0.7,0,1.1,0.5,1.1,1
					c0,0.2-0.2,0.5-0.7,0.5c-0.3,0-0.7,0-1.1,0.1c0.5,0.1,0.9,0.4,1.2,0.6c0.4,0.4,0.4,0.9,0.3,1.2c-0.2,0.4-0.7,0.5-1.1,0.1
					c-0.2-0.2-0.4-0.4-0.7-0.6c1,2,2.2,5,1.1,8.4c-0.6,2.1-1.9,4.5-4.2,5.7l-0.1,0.1l-0.1-0.1c-4.7-2.6-6.2-5.8-10.5-5.7v-0.3
					c1-0.4,1-1.5,1-2c0.1-0.8-0.8-2.3-2.5-2.1c-2.7,0.3-4.8,2.9-4.8,2.9s-5,0.4-5.4-1.5L168.2,58.5L168.2,58.5z"/>
				<path class="st3" d="M194.8,59.3c-0.2,0.4-0.7,0.5-1.1,0.1c-0.2-0.2-0.4-0.4-0.7-0.6c0.1,0.1-9.5,0.5-15.3-6.3
					c0.1,0,0.3,0,0.4,0c0.1,0,0.1,0,0.2,0c0,0,0,0,0.1,0c11.1,7.8,15.1,3.3,15.1,3.4c0.2-0.1,0.4-0.1,0.6-0.1c0.7,0,1.1,0.5,1.1,1
					c0,0.2-0.2,0.5-0.7,0.5c-0.3,0-0.7,0-1.1,0.1c0.5,0.1,0.9,0.4,1.2,0.6C194.9,58.4,194.9,58.9,194.8,59.3L194.8,59.3z"/>
				<path class="st3" d="M183.9,77.2c0,0-1.4-1.1-1.9-3.2C181.7,72.5,180.4,76.9,183.9,77.2z"/>
				<path class="st4" d="M168.6,77.9c0,0-1.3-4.5-0.8-8.6C168.1,71.4,168.2,74.4,168.6,77.9z"/>
				<path class="st5" d="M173.1,74.7c-1-2.6,1.9-5.8,4.9-4.9C180.9,70.7,173.8,76.4,173.1,74.7z"/>
			</g>
			<path class="st6" d="M231.2,79.1c-4.2-0.2-12.9-3.5-14.4-3.7s-20.8-0.7-25.2-1.2s-14.9-4.5-20.5-6.9c-0.1,0-0.1,0-0.2-0.1
				c-1.8-2.1-2.7-4-6.2-6.6c-4.9-3.7-8.7-5.9-11.7-7.5c-11.5-5.7-15.5-15.8-18.7-22.5c-4.1-8.6-4.6-12-13.1-18.8
				c-3.9,8.8-9.2,22.7-9.2,22.5c8.9,6.9,7.1,18.8,12.1,25c3.8,4.7,8.1,8.2,12.6,15.1c3.6,5.5,9.1,6.1,12.6,5.5
				c0.9-0.1,8.9-0.4,13.1-0.6c6.2,0,16.4,0,24.2,1c9.9,1.2,22.5-0.2,26.7-0.5c4.2-0.2,4.7,0.7,5.9,1.2s6.7-0.2,11.9,0.2
				c5.2,0.5,6.4-1.7,6.4-1.7S235.4,79.4,231.2,79.1L231.2,79.1z"/>
			<path class="st6" d="M82.2,67.7c0-0.2,0-0.3,0-0.5c-2-0.4-4.8-1.3-8.3-1.3c-6.5,0-19.5,6.2-21.5,6.9c-2,0.5-3.5,0.8-4.1,0.9
				c-2.4,0.3-3.4-5.3-7.1-5.2c-2.4,0-4.2,2.2-6.8,3.9c-2.5,1.6-3.1,1.4-6.1,1.8c-7.3,1-9,3.6-8.2,4.3c0.9,0.6,11.5,0.8,17.2,1.6
				c1.4,0.2,35.3,2.5,52.2,0.6C86.3,76.8,83,72.9,82.2,67.7z"/>
			<path class="st7" d="M170.9,66.8c-4.8-7.2-16.7-13.1-21.1-15.2c-5.9,2.9-14.9,12.5-17,17.7c1.7,1.7,2.1,2.4,3.9,5.1
				c4.8,7.3,13.1,6.9,16.3,5.5c-7-0.4-6.4-6.7-1.2-10.8C157.1,64.8,167.2,65,170.9,66.8L170.9,66.8z"/>
			<path class="st8" d="M86.9,68.5c-0.9-0.6-5.1-1.4-6.3-1.6c-0.1,0.3-0.2,0.7-0.4,1c-2.3,4.2-0.6,9.2,1.9,12.9
				c0.1,0.2,0.2,0.4,0.3,0.5c7.8-0.4,13.9-1.2,15.8-2.9c0.3-0.3,0.5-0.6,0.7-1c-3.9-2.7-4.3-4.5-8.4-6.8
				C90.2,70.6,87,68.6,86.9,68.5L86.9,68.5z"/>
			<path class="st8" d="M132.9,27.6c-1.9-5.8-4-11.7-10.6-15.1c-4.2-2.4-12.2-4.9-19.5,4c-10.6,12.8-16.7,43.4-17.9,54
				c0.5,0.1,12.3,5.7,13.3,8.1c5.4-7.3,16.5-23.2,18.1-37.8C116.4,41.3,129.4,32.1,132.9,27.6z"/>
			<path class="st9" d="M134,70.6c-0.1,0-0.1-0.1-0.1-0.2c4.7-11.9,17.3-17.7,17.4-17.8s0.2,0,0.2,0.1s0,0.2-0.1,0.2
				S138.8,58.7,134,70.6C134.3,70.6,134.1,70.6,134,70.6C134.1,70.6,134,70.6,134,70.6z"/>
		</g>
	</g>
</g>
</svg>
