<?xml version="1.0" encoding="utf-8"?>
<!-- Generator: Adobe Illustrator 26.5.0, SVG Export Plug-In . SVG Version: 6.00 Build 0)  -->
<svg version="1.1" id="Layer_1" xmlns="http://www.w3.org/2000/svg" xmlns:xlink="http://www.w3.org/1999/xlink" x="0px" y="0px"
	 viewBox="0 0 250 400" style="enable-background:new 0 0 250 400;" xml:space="preserve">
<style type="text/css">
	.st0{fill:#355775;}
	.st1{font-family:'FarmWaveFree-Regular';}
	.st2{font-size:24.1868px;}
	.st3{letter-spacing:1;}
	.st4{fill:#B2BCC4;}
	.st5{fill:url(#SVGID_1_);}
	.st6{fill:#905423;}
	.st7{fill:#46260F;}
	.st8{fill:#D09A6F;}
	.st9{fill:#F5B080;}
	.st10{fill:#F7B882;}
	.st11{fill:#FFFFFF;}
	.st12{fill:#D1E5FF;}
</style>
<g>
	<text transform="matrix(1 0 0 1 59.8867 367)" class="st0 st1 st2 st3">Puppy pose</text>
	<g>
		<ellipse class="st4" cx="125" cy="322" rx="125" ry="7.18"/>
		<g>
			<g>
				
					<linearGradient id="SVGID_1_" gradientUnits="userSpaceOnUse" x1="315.4753" y1="125.2886" x2="338.8" y2="125.2886" gradientTransform="matrix(0.9578 -0.2874 0.2874 0.9578 -165.9042 283.901)">
					<stop  offset="0" style="stop-color:#F8A164"/>
					<stop  offset="1" style="stop-color:#FAB57E"/>
				</linearGradient>
				<path class="st5" d="M169.23,303.02c-0.53,4.35-1.47,8.6-2.64,12.8c0.49,0.26,0.95,0.51,1.34,0.73
					c0.17,1.75,0.44,3.88,0.75,4.61c0.63,1.54,1.84,0.99,3.05,0.43c0.64-0.29,1.3-0.46,1.87,0.07c0.29,0.27,0.34,0.48,0.72,0.63
					c0.25,0.09,0.5-0.04,0.69-0.17c0.35-0.24,0.25-0.64,0.44-0.15c0.15,0.4,0.79,0.43,1.15,0.26c0.53-0.26,0.43-0.96,1.49-0.36
					c0.27,0.16,0.5,0.38,0.78,0.53c0.3,0.15,0.61-0.05,0.78-0.3c0.5-0.76,0.9-1.58,1.48-2.3c0.19-0.2,0.38-0.39,0.55-0.56
					c0.09-0.07,0.18-0.13,0.27-0.19c0.09,0.47,0.83,0.98,1.42,1.03c-0.44-0.29-0.71-0.83-0.69-1.39c0.5-0.18,1.06-0.27,1.65-0.38
					c1.08-0.2,2.13-0.58,3.11-1.08c0.52-0.26,1.83-1.16,3.18-2.51c-8.41-15.77-19.92-10.84-21.11-11.92
					C169.44,302.9,169.33,302.96,169.23,303.02L169.23,303.02z"/>
				<path class="st6" d="M168.24,301.49c1.02-1.28,2.15-3.54,5.05-4.9c2.5-1.17,4.01-1.27,4.85-1.16c0.14,0.02,0.28,0.05,0.4,0.08
					c-0.26-0.86-0.57-2.91,1.63-4.43c1.44-1,3.78-1.39,6.27-1.04c3.2,0.44,7.13,2.23,7.68,5.78c0.2,1.26-0.2,2.33-0.68,3.1
					c0.21-0.06,0.41-0.1,0.6-0.1c0.7-0.02,1.14,0.55,1.09,1c-0.03,0.25-0.23,0.54-0.73,0.5c-0.32-0.02-0.69,0.01-1.1,0.09
					c0.49,0.13,0.94,0.36,1.24,0.65c0.4,0.38,0.41,0.9,0.26,1.22c-0.21,0.44-0.71,0.51-1.07,0.09c-0.18-0.21-0.41-0.42-0.69-0.62
					c0.98,1.96,2.22,4.97,1.15,8.38c-0.65,2.07-1.9,4.53-4.19,5.69l-0.14,0.07l-0.09-0.13c-4.69-2.62-6.24-5.81-10.53-5.69
					l-0.04-0.33c0.97-0.41,1.01-1.46,1.04-1.95c0.05-0.79-0.76-2.26-2.51-2.07c-2.66,0.29-4.8,2.86-4.8,2.86s-5.01,0.35-5.45-1.49
					L168.24,301.49L168.24,301.49z"/>
				<path class="st7" d="M194.8,302.26c-0.21,0.44-0.71,0.51-1.07,0.09c-0.18-0.21-0.41-0.42-0.69-0.62
					c0.05,0.11-9.49,0.45-15.3-6.34c0.15,0.01,0.28,0.02,0.39,0.03c0.06,0.01,0.11,0.02,0.17,0.03c0.02,0.02,0.04,0.04,0.06,0.05
					c11.08,7.78,15.14,3.29,15.08,3.4c0.21-0.06,0.41-0.1,0.6-0.1c0.7-0.02,1.14,0.55,1.09,1c-0.03,0.25-0.23,0.54-0.73,0.5
					c-0.32-0.02-0.69,0.01-1.1,0.09c0.49,0.13,0.94,0.36,1.24,0.65C194.94,301.42,194.95,301.94,194.8,302.26L194.8,302.26z"/>
				<path class="st7" d="M183.88,320.23c0,0-1.38-1.06-1.87-3.22C181.68,315.5,180.45,319.94,183.88,320.23z"/>
				<path class="st8" d="M168.62,320.86c0,0-1.32-4.47-0.84-8.56C168.09,314.43,168.25,317.36,168.62,320.86z"/>
				<path class="st9" d="M173.13,317.71c-0.99-2.63,1.9-5.77,4.87-4.89C180.95,313.7,173.76,319.41,173.13,317.71z"/>
			</g>
			<path class="st10" d="M231.19,322.1c-4.21-0.25-12.87-3.47-14.36-3.71c-1.49-0.25-20.79-0.74-25.25-1.24
				c-4.46-0.5-14.85-4.46-20.54-6.93c-0.07-0.03-0.14-0.05-0.2-0.08c-1.84-2.08-2.74-4.01-6.23-6.6c-4.94-3.68-8.67-5.94-11.72-7.47
				c-11.46-5.72-15.5-15.8-18.72-22.48c-4.13-8.58-4.63-12.04-13.12-18.81c-3.87,8.81-9.2,22.68-9.16,22.52
				c8.91,6.93,7.1,18.81,12.13,25c3.85,4.73,8.14,8.23,12.62,15.1c3.59,5.49,9.08,6.06,12.63,5.52c0.9-0.14,8.88-0.36,13.15-0.59
				c6.18-0.02,16.41,0.03,24.21,1.01c9.9,1.24,22.52-0.25,26.73-0.5c4.21-0.25,4.7,0.74,5.94,1.24c1.24,0.5,6.68-0.25,11.88,0.25
				c5.2,0.5,6.43-1.73,6.43-1.73S235.4,322.35,231.19,322.1L231.19,322.1z"/>
			<path class="st10" d="M82.22,310.69c-0.03-0.18-0.03-0.34-0.01-0.5c-2-0.4-4.81-1.26-8.33-1.28c-6.54-0.03-19.51,6.23-21.49,6.92
				c-1.99,0.49-3.54,0.84-4.12,0.9c-2.38,0.26-3.43-5.28-7.13-5.2c-2.38,0.05-4.22,2.2-6.76,3.89c-2.46,1.64-3.07,1.43-6.14,1.84
				c-7.26,0.97-9.05,3.65-8.19,4.3c0.87,0.65,11.46,0.82,17.19,1.64c1.42,0.2,35.35,2.47,52.15,0.6
				C86.26,319.82,83.03,315.87,82.22,310.69z"/>
			<path class="st11" d="M170.86,309.79c-4.83-7.24-16.66-13.06-21.11-15.17c-5.85,2.89-14.88,12.5-17.02,17.68
				c1.71,1.67,2.14,2.39,3.91,5.1c4.78,7.32,13.13,6.94,16.34,5.45c-6.99-0.43-6.43-6.74-1.24-10.83
				C157.12,307.75,167.2,307.96,170.86,309.79L170.86,309.79z"/>
			<path class="st0" d="M86.89,311.46c-0.94-0.6-5.08-1.35-6.28-1.62c-0.07,0.34-0.18,0.68-0.37,1.03
				c-2.28,4.17-0.6,9.23,1.86,12.92c0.12,0.18,0.2,0.36,0.28,0.53c7.76-0.36,13.95-1.2,15.75-2.89c0.31-0.32,0.54-0.65,0.67-0.98
				c-3.87-2.71-4.27-4.5-8.44-6.77C90.15,313.58,87.02,311.61,86.89,311.46L86.89,311.46z"/>
			<path class="st0" d="M132.93,270.62c-1.9-5.83-4.04-11.69-10.58-15.13c-4.25-2.35-12.21-4.87-19.5,3.99
				c-10.55,12.83-16.72,43.4-17.94,53.96c0.53,0.14,12.26,5.71,13.3,8.07c5.42-7.29,16.54-23.18,18.14-37.79
				C116.43,284.27,129.39,275.06,132.93,270.62z"/>
			<path class="st12" d="M134.01,313.56c-0.06-0.05-0.08-0.13-0.05-0.21c4.71-11.94,17.34-17.72,17.43-17.77
				c0.09-0.05,0.2-0.02,0.25,0.07c0.05,0.09,0.02,0.2-0.07,0.25c-0.09,0.05-12.6,5.77-17.27,17.59c-0.04,0.09-0.15,0.14-0.24,0.11
				C134.05,313.59,134.03,313.58,134.01,313.56z"/>
		</g>
	</g>
</g>
</svg>
