<?xml version="1.0" encoding="UTF-8"?>
<svg id="Layer_1" data-name="Layer 1" xmlns="http://www.w3.org/2000/svg" xmlns:xlink="http://www.w3.org/1999/xlink" viewBox="0 0 878.58 420.95">
  <defs>
    <style>
      .cls-1 {
        fill: url(#linear-gradient);
      }

      .cls-2 {
        fill: #f7b882;
      }

      .cls-3 {
        fill: #f5b080;
      }

      .cls-4 {
        fill: #fff;
      }

      .cls-5 {
        fill: #905423;
      }

      .cls-6 {
        fill: #b2bcc4;
      }

      .cls-7 {
        fill: #d1e5ff;
      }

      .cls-8 {
        fill: #d09a6f;
      }

      .cls-9, .cls-10 {
        fill: #355775;
      }

      .cls-11 {
        fill: #46260f;
      }

      .cls-10 {
        font-family: FarmWaveFree-Regular, 'Farm Wave Free';
        font-size: 85px;
        isolation: isolate;
        letter-spacing: .07em;
      }
    </style>
    <linearGradient id="linear-gradient" x1="543.12" y1="126.53" x2="625.09" y2="126.53" gradientTransform="translate(121.54 488.03) rotate(-16.7) scale(1 -1)" gradientUnits="userSpaceOnUse">
      <stop offset="0" stop-color="#f8a164"/>
      <stop offset="1" stop-color="#fab57e"/>
    </linearGradient>
  </defs>
  <text class="cls-10" transform="translate(210.46 399.7)"><tspan x="0" y="0">Puppy pose</tspan></text>
  <g>
    <ellipse class="cls-6" cx="439.29" cy="241.57" rx="439.29" ry="25.22"/>
    <g>
      <g>
        <path class="cls-1" d="M594.72,174.84c-1.86,15.29-5.16,30.23-9.27,44.97,1.72,.91,3.34,1.8,4.71,2.58,.61,6.16,1.56,13.64,2.62,16.19,2.21,5.41,6.45,3.47,10.71,1.51,2.25-1.03,4.58-1.61,6.57,.26,1.01,.96,1.19,1.7,2.54,2.22,.87,.31,1.75-.14,2.44-.61,1.23-.85,.87-2.25,1.56-.51,.53,1.39,2.78,1.52,4.05,.91,1.88-.92,1.51-3.36,5.24-1.26,.96,.55,1.74,1.35,2.73,1.85,1.06,.54,2.13-.16,2.74-1.05,1.76-2.68,3.15-5.56,5.19-8.07,.66-.72,1.34-1.38,1.93-1.96,.31-.24,.62-.46,.94-.66,.33,1.64,2.91,3.46,4.99,3.62-1.55-1.03-2.48-2.92-2.42-4.87,1.77-.63,3.73-.96,5.79-1.34,3.8-.71,7.49-2.04,10.94-3.8,1.82-.9,6.44-4.06,11.17-8.81-29.54-55.43-70.01-38.08-74.17-41.9-.27,.32-.63,.52-1,.73Z"/>
        <path class="cls-5" d="M591.25,169.47c3.58-4.5,7.54-12.43,17.73-17.22,8.77-4.11,14.11-4.48,17.06-4.07,.5,.07,.97,.17,1.39,.29-.91-3.03-1.99-10.21,5.73-15.58,5.06-3.51,13.3-4.88,22.05-3.67,11.24,1.56,25.05,7.83,27,20.33,.69,4.44-.71,8.18-2.39,10.88,.73-.22,1.44-.34,2.1-.36,2.45-.08,4.01,1.93,3.84,3.5-.09,.89-.82,1.89-2.57,1.77-1.11-.08-2.42,.02-3.85,.3,1.73,.47,3.29,1.27,4.35,2.28,1.4,1.33,1.45,3.16,.9,4.29-.75,1.54-2.51,1.78-3.75,.32-.63-.73-1.44-1.46-2.42-2.19,3.43,6.9,7.8,17.45,4.03,29.46-2.29,7.28-6.66,15.93-14.72,19.99l-.48,.24-.3-.45c-16.49-9.19-21.94-20.41-37.01-19.98l-.13-1.17c3.42-1.43,3.54-5.13,3.65-6.86,.16-2.77-2.66-7.95-8.83-7.27-9.36,1.03-16.86,10.05-16.86,10.05,0,0-17.62,1.24-19.16-5.24l2.64-19.64Z"/>
        <path class="cls-11" d="M684.59,172.2c-.75,1.54-2.51,1.78-3.75,.32-.63-.73-1.44-1.46-2.42-2.19,.19,.39-33.35,1.59-53.76-22.27,.51,.02,.97,.06,1.38,.12,.21,.03,.38,.08,.58,.12,.08,.06,.13,.13,.21,.19,38.95,27.35,53.22,11.57,52.99,11.95,.73-.22,1.44-.34,2.1-.36,2.45-.08,4.01,1.93,3.84,3.5-.09,.89-.82,1.89-2.57,1.77-1.11-.08-2.42,.02-3.85,.3,1.73,.47,3.29,1.27,4.35,2.28,1.39,1.31,1.44,3.14,.9,4.27Z"/>
        <path class="cls-11" d="M646.23,235.32s-4.86-3.72-6.56-11.32c-1.18-5.3-5.5,10.33,6.56,11.32Z"/>
        <path class="cls-8" d="M592.57,237.56s-4.64-15.71-2.96-30.08c1.1,7.46,1.67,17.76,2.96,30.08Z"/>
        <path class="cls-3" d="M608.42,226.49c-3.47-9.24,6.68-20.28,17.1-17.19,10.41,3.08-14.87,23.15-17.1,17.19Z"/>
      </g>
      <path class="cls-2" d="M812.47,241.92c-14.79-.87-45.23-12.18-50.45-13.05-5.22-.87-73.06-2.61-88.72-4.35s-52.19-15.66-72.19-24.35c-.25-.11-.48-.18-.72-.28-6.45-7.31-9.64-14.09-21.89-23.2-17.36-12.92-30.46-20.88-41.2-26.24-40.28-20.11-54.48-55.52-65.79-79.01-14.53-30.17-16.28-42.31-46.1-66.11-13.6,30.97-32.34,79.71-32.18,79.15,31.31,24.35,24.95,66.11,42.62,87.85,13.52,16.62,28.59,28.93,44.36,53.06,12.62,19.31,31.9,21.31,44.4,19.4,3.17-.49,31.19-1.27,46.23-2.06,21.72-.07,57.68,.11,85.07,3.54,34.79,4.35,79.15-.87,93.94-1.74s16.53,2.61,20.88,4.35,23.48-.87,41.75,.87,22.61-6.09,22.61-6.09c0,0-7.83-.87-22.62-1.74Z"/>
      <path class="cls-2" d="M288.96,201.82c-.1-.62-.09-1.2-.03-1.77-7.04-1.41-16.91-4.43-29.27-4.49-23-.12-68.57,21.89-75.51,24.33-7.01,1.73-12.44,2.96-14.49,3.18-8.36,.91-12.06-18.56-25.07-18.29-8.35,.17-14.83,7.73-23.74,13.67-8.63,5.75-10.79,5.03-21.58,6.47-25.5,3.4-31.81,12.81-28.77,15.1,3.04,2.29,40.28,2.88,60.42,5.75,4.98,.71,124.22,8.69,183.26,2.11-11.04-13.98-22.37-27.88-25.22-46.06Z"/>
      <path class="cls-4" d="M600.46,198.64c-16.96-25.44-58.56-45.9-74.17-53.32-20.56,10.16-52.31,43.92-59.82,62.14,6.01,5.88,7.51,8.41,13.73,17.93,16.8,25.71,46.16,24.4,57.41,19.14-24.57-1.52-22.61-23.7-4.35-38.05,18.92-15.01,54.35-14.28,67.2-7.84Z"/>
      <path class="cls-9" d="M305.37,204.52c-3.31-2.1-17.87-4.73-22.08-5.7-.26,1.19-.64,2.4-1.31,3.62-8.02,14.64-2.12,32.45,6.52,45.42,.42,.63,.71,1.25,.99,1.87,27.28-1.25,49.01-4.22,55.35-10.14,1.09-1.13,1.9-2.29,2.36-3.46-13.61-9.51-15.01-15.83-29.66-23.78-.71-.4-11.71-7.32-12.17-7.83Z"/>
      <path class="cls-9" d="M467.16,61c-6.67-20.49-14.2-41.08-37.18-53.17-14.93-8.27-42.92-17.1-68.54,14.02-37.09,45.08-58.75,152.52-63.03,189.62,1.86,.5,43.08,20.06,46.74,28.35,19.05-25.62,58.14-81.45,63.76-132.8,.25,1.94,45.81-30.44,58.25-46.02Z"/>
      <path class="cls-7" d="M470.96,211.91c-.2-.18-.28-.46-.17-.73,16.57-41.95,60.93-62.26,61.25-62.45,.31-.18,.7-.07,.89,.23,.18,.31,.08,.71-.24,.89-.31,.18-44.29,20.28-60.69,61.8-.13,.33-.51,.5-.85,.37-.06-.03-.13-.07-.19-.11Z"/>
    </g>
  </g>
</svg>