<?xml version="1.0" encoding="utf-8"?>
<!-- Generator: Adobe Illustrator 26.5.0, SVG Export Plug-In . SVG Version: 6.00 Build 0)  -->
<svg version="1.1" id="Layer_1" xmlns="http://www.w3.org/2000/svg" xmlns:xlink="http://www.w3.org/1999/xlink" x="0px" y="0px"
	 viewBox="0 0 250 400" style="enable-background:new 0 0 250 400;" xml:space="preserve">
<style type="text/css">
	.st0{fill:#355775;}
	.st1{font-family:'FarmWaveFree-Regular';}
	.st2{font-size:24.1868px;}
	.st3{letter-spacing:1;}
	.st4{fill:#B2BCC4;}
	.st5{fill:#F7B882;}
	.st6{fill:url(#SVGID_1_);}
	.st7{fill:#8F5424;}
	.st8{fill:#452713;}
	.st9{fill:#CE986E;}
	.st10{fill:#F5B780;}
	.st11{fill:#FFFFFF;}
	.st12{fill:url(#SVGID_00000122721649296639676360000007137016963591781027_);}
	.st13{fill:#D1E5FF;}
</style>
<g>
	<text transform="matrix(1 0 0 1 45.1836 367.7383)" class="st0 st1 st2 st3">Elbow to knee</text>
</g>
<g>
	<path class="st4" d="M239.98,321.3c0-3.86-51.25-7-114.48-7s-114.48,3.13-114.48,7c0,3.86,51.25,7,114.48,7
		S239.98,325.17,239.98,321.3z"/>
	<g>
		<path class="st5" d="M37.88,307.27c0.63-2.63,3.1-12.66,5.33-17.13c-1.96-1.05-3.83-2.27-5.56-3.69
			c-2.98,6.38-12.85,29.49-10.54,32.44v0c1.09,3.38,7.48,4.1,25.09-9.05l-5.67-13.63C46.53,296.21,42.22,302.15,37.88,307.27z"/>
		<g>
			<linearGradient id="SVGID_1_" gradientUnits="userSpaceOnUse" x1="49.4033" y1="282.3114" x2="50.0065" y2="288.8259">
				<stop  offset="0" style="stop-color:#F8A164"/>
				<stop  offset="0.1041" style="stop-color:#F8A469"/>
				<stop  offset="0.6304" style="stop-color:#F7B37B"/>
				<stop  offset="1" style="stop-color:#F7B882"/>
			</linearGradient>
			<path class="st6" d="M56.05,271.19c-0.95-0.19-1.91-0.26-2.84-0.55c-0.28-0.11-0.54-0.22-0.76-0.32c-0.1-0.06-0.2-0.12-0.29-0.19
				c0.42-0.28,0.64-1.2,0.45-1.8c-0.12,0.55-0.54,1.02-1.09,1.22c-0.38-0.43-0.69-0.94-1.02-1.47c-0.62-0.98-1.41-1.87-2.29-2.64
				c-0.46-0.41-1.86-1.35-3.72-2.14c-12.21,14.49-2.22,26.11-2.82,27.71c0.33,0.1,0.64,0.2,0.93,0.29c0.65,0.67,2.76,0.91,3.37,2.29
				c1.11,3.98-0.99,12.28,8.06,16.26c-0.11-0.48,6.16-10.35-0.52-24.04c0.38-0.22,0.76-0.43,1.13-0.59c1.74-0.89,4.16-2.2,4.83-2.85
				c1.27-1.23,0.25-2.19-0.78-3.17c-0.54-0.51-0.96-1.1-0.66-1.87c0.16-0.39,0.34-0.52,0.34-0.96c-0.01-0.28-0.24-0.47-0.45-0.61
				c-0.38-0.25-0.73,0.01-0.32-0.38c0.33-0.31,0.11-0.95-0.2-1.24c-0.47-0.42-1.11-0.05-0.94-1.33c0.05-0.33,0.18-0.64,0.21-0.97
				C56.68,271.48,56.37,271.26,56.05,271.19z"/>
			<path class="st7" d="M40.76,291.51c-1.66-0.5-4.82-1.68-7.3-4c-2.13-1.99-2.84-3.45-3.06-4.32c-0.04-0.15-0.06-0.29-0.07-0.42
				c-0.75,0.6-2.64,1.7-5.01,0.15c-1.55-1.02-2.86-3.18-3.5-5.76c-0.82-3.32-0.62-7.89,2.66-9.84c1.17-0.69,2.37-0.72,3.31-0.55
				c-0.14-0.18-0.26-0.36-0.34-0.55c-0.3-0.68,0.09-1.34,0.55-1.47c0.26-0.07,0.62,0.02,0.78,0.52c0.1,0.32,0.28,0.67,0.51,1.04
				c-0.06-0.54-0.01-1.06,0.15-1.47c0.22-0.54,0.72-0.76,1.1-0.73c0.52,0.04,0.78,0.5,0.51,1.01c-0.14,0.26-0.25,0.57-0.34,0.92
				c1.55-1.73,4.01-4.14,7.8-4.43c2.29-0.18,5.21,0.08,7.25,1.88l0.12,0.11l-0.09,0.14c-0.72,5.65-3.25,8.43-1.44,12.61l-0.31,0.17
				c-0.78-0.8-1.83-0.42-2.33-0.25c-0.79,0.27-1.93,1.64-1.04,3.29c1.34,2.5,4.71,3.59,4.71,3.59s0.55,8.01-1.09,9.17l-3.47-0.78
				L40.76,291.51z"/>
			<path class="st8" d="M30.56,264.1c0.52,0.04,0.78,0.5,0.51,1.01c-0.14,0.26-0.25,0.57-0.34,0.92c0.09-0.1,4.19,9.16-0.2,17.55
				c-0.05-0.14-0.09-0.28-0.12-0.4c-0.02-0.06-0.02-0.12-0.03-0.18c0.01-0.03,0.02-0.05,0.03-0.08c3.29-13.98-2.73-16.2-2.6-16.18
				c-0.14-0.18-0.26-0.36-0.34-0.55c-0.3-0.68,0.09-1.34,0.55-1.47c0.26-0.07,0.62,0.02,0.78,0.52c0.1,0.32,0.28,0.67,0.51,1.04
				c-0.06-0.54-0.01-1.06,0.15-1.47C29.67,264.29,30.18,264.08,30.56,264.1z"/>
			<path class="st8" d="M52.54,267.76c0,0-0.5,1.78-2.43,3.11C48.75,271.79,53.61,271.24,52.54,267.76z"/>
			<path class="st9" d="M59.19,282.53c0,0-3.88,3.06-8.09,4.2C53.06,285.59,55.88,284.28,59.19,282.53z"/>
		</g>
		<path class="st10" d="M173.6,298.32c2.69-0.02,5.55-0.01,7.55-0.23c9.77-1.24,15.5-9.83,24.74-11.41
			c2.83-0.62,4.06,1.61,6.45,1.09c2.66-0.36,3.96-3.27,5.07-4.52c3.98-4.52,9.23-4.04,11.04-5.13c0.68-0.41,2.48-1.13,1.09-1.57
			c-1.02-0.32-11.82-0.12-16.89,1.69c-1.83,0.65-7.87,1.94-9.77,2.41c-9.85,2.44-17.01,3.5-28.24,6.55
			c-1.02,0.28-2.61,0.35-4.26,0.61C172.42,291.03,174.03,294.61,173.6,298.32z"/>
		<path class="st5" d="M104.68,300.68c-6.73,0.5-13.1-0.07-22.44-2.53c-3.88-1.02-7.59-4.47-10.37-5.79
			c-1.45-0.69-2.65-1.55-3.67-2.41c0.62-1.05,1.23-1.94,1.74-2.54c4.34-5.07,9.77-15.56,11.22-20.63c0.76-2.65,0.36-4.7-0.72-5.79
			c-0.07-0.07-0.18-0.08-0.32-0.05c-2.98-3.33-32.02,9.18-34.58,9.86c-2.56,0.68-8.6,2.92-10.52,4.28
			c-1.92,1.36-1.92,5.77-1.92,5.77s-4.48,4.66-2.24,4.75c5.99,0.24,9.95-1.72,11.71-2.84c-0.27,0.41-0.57,1-0.87,1.96
			c-0.96,3.06,0.96,3.06,0.96,3.06s0-1.02,2.24-4.07c2.24-3.06,1.6-4.41,2.24-5.77c0.5-1.06,15.69-4.41,22.3-5.82
			c-2.52,2.86-9.91,11.23-12.89,14.21c-0.68,0.68-13.62,11.67-13.15,13.63c-0.6,6.15,4.46,13.13,8.44,14.96
			c4.02,1.84,5.16,3.51,8.69,3.98c18.82,2.53,38.64,3.41,44.88,3.98C106.46,322.97,101.79,308.44,104.68,300.68z"/>
		<path class="st11" d="M80.91,297.66c-0.7-0.3-2.17-3.62-5.91-6.27c-1.34-1.32-4.15-1.81-6.94-1.78c-0.05,0.05-0.1,0.1-0.14,0.15
			c-0.1,0.18-1.12,1.1-1.23,1.27c1.81,0.97,4.7,3.98,4.61,7.43c0.25,1.42-1.31,3.76-2.92,4.75c-5.07,3.14-9.17,2.41-13.03-2.41
			c-2.18-2.72-4.34-7.96-0.72-12.91c-0.6-0.08,0.1,0.54-0.48,0.48c-5.31,4.7-1.85,12.43,1.21,17.01c2.41,3.62,0.12,9.05-4.1,7.24
			c-7.24-3.26-7.61-10.85-7.72-13.75c-2.33,3.67,1.72,12.89,4.7,15.32c5.4,4.39,10.16,5.26,14.11,5.79
			c0.44,0.06,0.81,0.08,1.17,0.08c4.06,0.43,8.54,0.43,11.86,0.64C77.99,315.63,82.36,303.81,80.91,297.66z"/>
		<path class="st10" d="M111.69,264.88c1.83,1.98,3.74,4.11,5.25,5.44c7.49,6.41,17.69,4.88,25.07,10.66
			c2.37,1.68,1.53,4.09,3.53,5.51c2.06,1.73,5.09,0.74,6.75,0.71c6.03-0.09,9.19,4.12,11.21,4.73c0.76,0.23,2.5,1.08,1.89-0.25
			c-0.45-0.97-7.85-8.84-12.6-11.37c-1.72-0.92-6.73-4.53-8.35-5.62c-8.43-5.66-14.02-10.25-23.82-16.52
			c-0.89-0.57-2.7-1.32-4.01-2.37C115.61,259.47,114.72,262.7,111.69,264.88z"/>
		
			<linearGradient id="SVGID_00000044875824823728417160000014840659384404257720_" gradientUnits="userSpaceOnUse" x1="106.3237" y1="249.0385" x2="118.8772" y2="295.39">
			<stop  offset="0" style="stop-color:#355775"/>
			<stop  offset="0.0277" style="stop-color:#345572"/>
			<stop  offset="0.2179" style="stop-color:#2E4B66"/>
			<stop  offset="0.4673" style="stop-color:#2B465E"/>
			<stop  offset="1" style="stop-color:#2A445C"/>
		</linearGradient>
		<path style="fill:url(#SVGID_00000044875824823728417160000014840659384404257720_);" d="M110.39,302.62c0,0-6.76-14.48-9.33-28
			s-2.25-21.89,0-22.53c2.25-0.64,5.47-2.25,7.4-1.61c1.93,0.64,11.27,7.08,11.27,7.08l-5.15,9.98c0,0,13.84,25.43,16.74,28.33
			C134.21,298.75,110.39,302.62,110.39,302.62z"/>
		<path class="st0" d="M101.06,300.43c0,0,7.6,0.32,10.5,0c2.9-0.32,13.64-5.86,23.94-7.15c10.3-1.29,19.97-2.62,20.93-2.62
			c0.97,0,6.43-3.17,8.68-3.17c2.25,0,8.05-0.32,8.05-0.32s3.18,3.74,2.82,11.22c-4.3,0.84-7.4-0.33-9.9,0.37
			c-6.03,1.68-18.91,8.66-24.85,13.26c-6.94,5.37-13.03,10.86-20.86,11.52c-9.07,0.77-14.37,0.18-22.33-1.27
			C97.72,316.48,101.06,300.43,101.06,300.43z"/>
		<g>
			<path class="st13" d="M73.07,320.52c-0.04,0-0.07-0.01-0.11-0.03c-0.08-0.06-0.1-0.17-0.04-0.25c6.29-8.78,7.2-22.81,7.2-22.95
				c0.01-0.1,0.09-0.17,0.18-0.17c0,0,0.01,0,0.01,0c0.1,0.01,0.18,0.09,0.17,0.19c-0.01,0.14-0.92,14.27-7.27,23.14
				C73.18,320.49,73.13,320.52,73.07,320.52z"/>
		</g>
	</g>
</g>
</svg>
