<?xml version="1.0" encoding="utf-8"?>
<!-- Generator: Adobe Illustrator 26.5.0, SVG Export Plug-In . SVG Version: 6.00 Build 0)  -->
<svg version="1.1" id="Layer_1" xmlns="http://www.w3.org/2000/svg" xmlns:xlink="http://www.w3.org/1999/xlink" x="0px" y="0px"
	 viewBox="0 0 250 84.3" style="enable-background:new 0 0 250 84.3;" xml:space="preserve">
<style type="text/css">
	.st0{fill:#B2BCC4;}
	.st1{fill:#F7B882;}
	.st2{fill:url(#SVGID_1_);}
	.st3{fill:#8F5424;}
	.st4{fill:#452713;}
	.st5{fill:#CE986E;}
	.st6{fill:#F5B780;}
	.st7{fill:#FFFFFF;}
	.st8{fill:url(#SVGID_00000180357434244270580220000002197354709496068481_);}
	.st9{fill:#355775;}
	.st10{fill:#D1E5FF;}
</style>
<g>
	<path class="st0" d="M240,77.3c0-3.9-51.2-7-114.5-7S11,73.4,11,77.3c0,3.9,51.2,7,114.5,7S240,81.2,240,77.3z"/>
	<g>
		<path class="st1" d="M37.9,63.3c0.6-2.6,3.1-12.7,5.3-17.1c-2-1-3.8-2.3-5.6-3.7c-3,6.4-12.9,29.5-10.5,32.4l0,0
			c1.1,3.4,7.5,4.1,25.1-9l-5.7-13.6C46.5,52.2,42.2,58.1,37.9,63.3z"/>
		<g>
			
				<linearGradient id="SVGID_1_" gradientUnits="userSpaceOnUse" x1="49.4349" y1="220.3085" x2="50.0381" y2="226.823" gradientTransform="matrix(1 0 0 1 0 -182)">
				<stop  offset="0" style="stop-color:#F8A164"/>
				<stop  offset="0.1041" style="stop-color:#F8A469"/>
				<stop  offset="0.6304" style="stop-color:#F7B37B"/>
				<stop  offset="1" style="stop-color:#F7B882"/>
			</linearGradient>
			<path class="st2" d="M56,27.2c-1-0.2-1.9-0.3-2.8-0.5c-0.3-0.1-0.5-0.2-0.8-0.3c-0.1-0.1-0.2-0.1-0.3-0.2
				c0.4-0.3,0.6-1.2,0.5-1.8c-0.1,0.5-0.5,1-1.1,1.2c-0.4-0.4-0.7-0.9-1-1.5c-0.6-1-1.4-1.9-2.3-2.6c-0.5-0.4-1.9-1.4-3.7-2.1
				c-12.2,14.5-2.2,26.1-2.8,27.7c0.3,0.1,0.6,0.2,0.9,0.3c0.7,0.7,2.8,0.9,3.4,2.3c1.1,4-1,12.3,8.1,16.3c-0.1-0.5,6.2-10.4-0.5-24
				c0.4-0.2,0.8-0.4,1.1-0.6c1.7-0.9,4.2-2.2,4.8-2.9c1.3-1.2,0.2-2.2-0.8-3.2c-0.5-0.5-1-1.1-0.7-1.9c0.2-0.4,0.3-0.5,0.3-1
				c0-0.3-0.2-0.5-0.5-0.6c-0.4-0.2-0.7,0-0.3-0.4c0.3-0.3,0.1-1-0.2-1.2c-0.5-0.4-1.1,0-0.9-1.3c0-0.3,0.2-0.6,0.2-1
				C56.7,27.5,56.4,27.3,56,27.2z"/>
			<path class="st3" d="M40.8,47.5c-1.7-0.5-4.8-1.7-7.3-4c-2.1-2-2.8-3.5-3.1-4.3c0-0.1-0.1-0.3-0.1-0.4c-0.8,0.6-2.6,1.7-5,0.1
				c-1.5-1-2.9-3.2-3.5-5.8c-0.8-3.3-0.6-7.9,2.7-9.8c1.2-0.7,2.4-0.7,3.3-0.5c-0.1-0.2-0.3-0.4-0.3-0.5c-0.3-0.7,0.1-1.3,0.5-1.5
				c0.3-0.1,0.6,0,0.8,0.5c0.1,0.3,0.3,0.7,0.5,1c-0.1-0.5,0-1.1,0.1-1.5c0.2-0.5,0.7-0.8,1.1-0.7c0.5,0,0.8,0.5,0.5,1
				c-0.1,0.3-0.2,0.6-0.3,0.9c1.5-1.7,4-4.1,7.8-4.4c2.3-0.2,5.2,0.1,7.2,1.9l0.1,0.1l-0.1,0.1c-0.7,5.6-3.2,8.4-1.4,12.6L44,32.5
				c-0.8-0.8-1.8-0.4-2.3-0.2c-0.8,0.3-1.9,1.6-1,3.3c1.3,2.5,4.7,3.6,4.7,3.6s0.5,8-1.1,9.2L40.8,47.5L40.8,47.5z"/>
			<path class="st4" d="M30.6,20.1c0.5,0,0.8,0.5,0.5,1c-0.1,0.3-0.2,0.6-0.3,0.9c0.1-0.1,4.2,9.2-0.2,17.5c0-0.1-0.1-0.3-0.1-0.4
				c0-0.1,0-0.1,0-0.2c0,0,0,0,0-0.1c3.3-14-2.7-16.2-2.6-16.2c-0.1-0.2-0.3-0.4-0.3-0.5c-0.3-0.7,0.1-1.3,0.5-1.5
				c0.3-0.1,0.6,0,0.8,0.5c0.1,0.3,0.3,0.7,0.5,1c-0.1-0.5,0-1.1,0.1-1.5C29.7,20.3,30.2,20.1,30.6,20.1z"/>
			<path class="st4" d="M52.5,23.8c0,0-0.5,1.8-2.4,3.1C48.8,27.8,53.6,27.2,52.5,23.8z"/>
			<path class="st5" d="M59.2,38.5c0,0-3.9,3.1-8.1,4.2C53.1,41.6,55.9,40.3,59.2,38.5z"/>
		</g>
		<path class="st6" d="M173.6,54.3c2.7,0,5.6,0,7.6-0.2c9.8-1.2,15.5-9.8,24.7-11.4c2.8-0.6,4.1,1.6,6.4,1.1c2.7-0.4,4-3.3,5.1-4.5
			c4-4.5,9.2-4,11-5.1c0.7-0.4,2.5-1.1,1.1-1.6c-1-0.3-11.8-0.1-16.9,1.7c-1.8,0.6-7.9,1.9-9.8,2.4c-9.9,2.4-17,3.5-28.2,6.5
			c-1,0.3-2.6,0.4-4.3,0.6C172.4,47,174,50.6,173.6,54.3z"/>
		<path class="st1" d="M104.7,56.7c-6.7,0.5-13.1-0.1-22.4-2.5c-3.9-1-7.6-4.5-10.4-5.8c-1.4-0.7-2.7-1.5-3.7-2.4
			c0.6-1,1.2-1.9,1.7-2.5c4.3-5.1,9.8-15.6,11.2-20.6c0.8-2.6,0.4-4.7-0.7-5.8c-0.1-0.1-0.2-0.1-0.3,0c-3-3.3-32,9.2-34.6,9.9
			s-8.6,2.9-10.5,4.3c-1.9,1.4-1.9,5.8-1.9,5.8s-4.5,4.7-2.2,4.8c6,0.2,9.9-1.7,11.7-2.8c-0.3,0.4-0.6,1-0.9,2c-1,3.1,1,3.1,1,3.1
			s0-1,2.2-4.1s1.6-4.4,2.2-5.8c0.5-1.1,15.7-4.4,22.3-5.8c-2.5,2.9-9.9,11.2-12.9,14.2C55.9,43,42.9,54,43.4,56
			c-0.6,6.1,4.5,13.1,8.4,15c4,1.8,5.2,3.5,8.7,4c18.8,2.5,38.6,3.4,44.9,4C106.5,79,101.8,64.4,104.7,56.7z"/>
		<path class="st7" d="M80.9,53.7c-0.7-0.3-2.2-3.6-5.9-6.3c-1.3-1.3-4.2-1.8-6.9-1.8c-0.1,0-0.1,0.1-0.1,0.1
			c-0.1,0.2-1.1,1.1-1.2,1.3c1.8,1,4.7,4,4.6,7.4c0.2,1.4-1.3,3.8-2.9,4.8c-5.1,3.1-9.2,2.4-13-2.4c-2.2-2.7-4.3-8-0.7-12.9
			c-0.6-0.1,0.1,0.5-0.5,0.5c-5.3,4.7-1.8,12.4,1.2,17c2.4,3.6,0.1,9-4.1,7.2c-7.2-3.3-7.6-10.9-7.7-13.8
			c-2.3,3.7,1.7,12.9,4.7,15.3c5.4,4.4,10.2,5.3,14.1,5.8c0.4,0.1,0.8,0.1,1.2,0.1c4.1,0.4,8.5,0.4,11.9,0.6
			C78,71.6,82.4,59.8,80.9,53.7z"/>
		<path class="st6" d="M111.7,20.9c1.8,2,3.7,4.1,5.2,5.4c7.5,6.4,17.7,4.9,25.1,10.7c2.4,1.7,1.5,4.1,3.5,5.5
			c2.1,1.7,5.1,0.7,6.8,0.7c6-0.1,9.2,4.1,11.2,4.7c0.8,0.2,2.5,1.1,1.9-0.2c-0.4-1-7.9-8.8-12.6-11.4c-1.7-0.9-6.7-4.5-8.4-5.6
			c-8.4-5.7-14-10.2-23.8-16.5c-0.9-0.6-2.7-1.3-4-2.4C115.6,15.5,114.7,18.7,111.7,20.9z"/>
		
			<linearGradient id="SVGID_00000176003869501286717720000017500032030697062323_" gradientUnits="userSpaceOnUse" x1="106.3198" y1="187.0396" x2="118.8733" y2="233.3911" gradientTransform="matrix(1 0 0 1 0 -182)">
			<stop  offset="0" style="stop-color:#355775"/>
			<stop  offset="2.770000e-02" style="stop-color:#345572"/>
			<stop  offset="0.2179" style="stop-color:#2E4B66"/>
			<stop  offset="0.4673" style="stop-color:#2B465E"/>
			<stop  offset="1" style="stop-color:#2A445C"/>
		</linearGradient>
		<path style="fill:url(#SVGID_00000176003869501286717720000017500032030697062323_);" d="M110.4,58.6c0,0-6.8-14.5-9.3-28
			s-2.2-21.9,0-22.5s5.5-2.2,7.4-1.6s11.3,7.1,11.3,7.1l-5.2,10c0,0,13.8,25.4,16.7,28.3C134.2,54.8,110.4,58.6,110.4,58.6z"/>
		<path class="st9" d="M101.1,56.4c0,0,7.6,0.3,10.5,0s13.6-5.9,23.9-7.1s20-2.6,20.9-2.6c1,0,6.4-3.2,8.7-3.2s8.1-0.3,8.1-0.3
			s3.2,3.7,2.8,11.2c-4.3,0.8-7.4-0.3-9.9,0.4c-6,1.7-18.9,8.7-24.9,13.3c-6.9,5.4-13,10.9-20.9,11.5c-9.1,0.8-14.4,0.2-22.3-1.3
			C97.7,72.5,101.1,56.4,101.1,56.4z"/>
		<g>
			<path class="st10" d="M73.1,76.5L73.1,76.5c-0.2-0.1-0.2-0.2-0.1-0.2c6.3-8.8,7.2-22.8,7.2-23c0-0.1,0.1-0.2,0.2-0.2l0,0
				c0.1,0,0.2,0.1,0.2,0.2c0,0.1-0.9,14.3-7.3,23.1C73.2,76.5,73.1,76.5,73.1,76.5z"/>
		</g>
	</g>
</g>
</svg>
