<?xml version="1.0" encoding="utf-8"?>
<!-- Generator: Adobe Illustrator 26.5.0, SVG Export Plug-In . SVG Version: 6.00 Build 0)  -->
<svg version="1.1" id="Layer_1" xmlns="http://www.w3.org/2000/svg" xmlns:xlink="http://www.w3.org/1999/xlink" x="0px" y="0px"
	 viewBox="0 0 250 107.9" style="enable-background:new 0 0 250 107.9;" xml:space="preserve">
<style type="text/css">
	.st0{fill:#B2BCC4;}
	.st1{fill:#F7B882;}
	.st2{fill:#905423;}
	.st3{fill:#46260F;}
	.st4{fill:#D09A6F;}
	.st5{fill:#F5B080;}
	.st6{fill:#FFFFFF;}
	.st7{fill:#D1E5FF;}
	.st8{fill:#355775;}
	.st9{fill:url(#SVGID_1_);}
	.st10{fill:url(#SVGID_00000140730181557498476060000007533826033851492752_);}
</style>
<g>
	<g>
		<path class="st0" d="M224.4,100.9c0-3.9-44.9-7-100.3-7s-100.3,3.1-100.3,7s44.9,7,100.3,7S224.4,104.8,224.4,100.9z"/>
		<g>
			<g>
				<path class="st1" d="M189.4,19.4c-0.5,1.1-0.9,2-1.1,2.4l0,0c-0.7,0.9-2.1,2.1-3.9,2.3c-0.1-0.1-0.1-0.1-0.1-0.1
					c-5.2-0.4-11.5-1-18.8,0.5c-11.9,2.4-40.9,23.3-43.4,33c-0.2,1,27.1,6.4,65.4-16.5c1.6-1.5,2.2-3.4,2.2-5.4
					c1.8-1.4,3.8-2.8,4.2-3c0.5,1.2,1.1,2.5,1.4,2.9c0.9,1.2,1.9,0.4,2.8-0.4c0.5-0.4,1-0.7,1.7-0.4c0.3,0.2,0.4,0.3,0.8,0.4
					c0.2,0,0.4-0.2,0.6-0.3c0.2-0.3,0.1-0.6,0.4-0.2c0.2,0.3,0.8,0.2,1.1-0.1c0.4-0.4,0.1-0.9,1.2-0.7c0.3,0.1,0.5,0.2,0.8,0.3
					s0.5-0.2,0.6-0.4c0.2-0.8,0.4-1.6,0.7-2.4c0.1-0.2,0.2-0.4,0.3-0.6c0.1-0.1,0.1-0.2,0.2-0.2c0.2,0.4,1,0.7,1.5,0.6
					c-0.5-0.1-0.8-0.6-0.9-1.1c0.4-0.3,0.9-0.5,1.4-0.7c0.9-0.4,1.7-1,2.5-1.7c0.4-0.4,1.3-1.5,2.2-3
					C201.6,12.6,190.7,20.1,189.4,19.4L189.4,19.4z"/>
				<path class="st2" d="M189.1,18.6c0.6-1.4,1.9-4,4.1-5.9c1.9-1.6,3.2-2.1,4-2.2c0.1,0,0.2,0,0.4,0c-0.4-0.7-1.2-2.4,0.3-4.3
					c1-1.2,3-2.2,5.2-2.5c2.9-0.4,6.8,0.2,8.2,3.2c0.5,1.1,0.4,2.1,0.2,2.9c0.2-0.1,0.3-0.2,0.5-0.2c0.6-0.2,1.1,0.2,1.2,0.6
					c0,0.2-0.1,0.5-0.5,0.6c-0.3,0.1-0.6,0.2-0.9,0.3c0.5,0,0.9,0.1,1.2,0.3c0.4,0.2,0.6,0.7,0.5,1c-0.1,0.4-0.5,0.6-0.9,0.3
					c-0.2-0.1-0.5-0.3-0.8-0.4c1.3,1.5,3.2,3.8,3.1,7.1c-0.1,2-0.5,4.4-2.3,6l-0.1,0.1l-0.1-0.1c-4.8-1.1-6.9-3.6-10.7-2.4l-0.1-0.3
					c0.8-0.6,0.5-1.5,0.4-2c-0.1-0.7-1.2-1.8-2.7-1.2c-2.3,0.9-3.5,3.7-3.5,3.7s-6.5-0.5-7.4-2L189.1,18.6
					C189.1,18.7,189.1,18.6,189.1,18.6z"/>
				<path class="st3" d="M213.5,12.4c-0.1,0.4-0.5,0.6-0.9,0.3c-0.2-0.1-0.5-0.3-0.8-0.4c0.1,0.1-8.2,2.8-15-1.8
					c0.1,0,0.2-0.1,0.4-0.1c0.1,0,0.1,0,0.1,0s0,0,0.1,0c11.7,4.1,14.1-0.9,14.1-0.7c0.2-0.1,0.3-0.2,0.5-0.2
					c0.6-0.2,1.1,0.2,1.2,0.6c0,0.2-0.1,0.5-0.5,0.6c-0.3,0.1-0.6,0.2-0.9,0.3c0.5,0,0.9,0.1,1.2,0.3
					C213.4,11.6,213.5,12.1,213.5,12.4L213.5,12.4z"/>
				<path class="st3" d="M208.3,30.9c0,0-1.5-0.6-2.4-2.4C205.2,27.2,205.2,31.5,208.3,30.9z"/>
				<path class="st4" d="M195.1,35.2c0,0-2.3-3.6-2.9-7.3C193,29.7,193.9,32.2,195.1,35.2z"/>
				<path class="st5" d="M198.3,31.3c-1.5-2.1,0.2-5.5,3.1-5.5C204.1,25.9,199.2,32.6,198.3,31.3z"/>
				<path class="st6" d="M174.8,30.2c-4.5-1.2-5.4-4.6-4.6-6.6c-0.5,0.1-9.4,1.5-12.7,3.5c-1.5,7.9,1,18.1,5.6,24.5
					c0.9,0.1,9.9-3.1,9.6-3.9c-4.4-2.3-3.5-7.7,0.3-10.2c3.7-2.4,13.2-3.6,16.5-0.2v-0.1C191.5,32.6,178.8,31.4,174.8,30.2
					L174.8,30.2z"/>
				<path class="st7" d="M163.8,50c-0.1,0-0.1,0-0.1-0.1c-6-12.9-4.2-23.7-4.2-23.8s0.1-0.2,0.2-0.1c0.1,0,0.2,0.1,0.1,0.2
					c0,0.1-1.8,10.9,4.1,23.6C163.9,49.9,163.9,50,163.8,50L163.8,50L163.8,50z"/>
			</g>
			<path class="st8" d="M95.5,85.6c4.5,1.1,7.7,2.2,10.4-1.5c3.6-5,9.4-12.9,13.8-18c-1.8-7.5,3.8-15.8,10.8-20.1
				c0.1,0,19.9,7.3,19.9,7.9c12.6-8.7,29.1-16.1,34.6-16.1c4.5-0.1,7.5,4.1,8.3,7.5c0.4,1.5,0.3,5.9,0.2,11.4
				c-3.1,0.7-10.8-0.3-11.3-0.2c0.2-1.8,0.4-3.5,0.4-4.7l-0.7,0.6c-8.5,8.5-28.6,29.6-45.6,25.9c-0.1,0-0.3-0.1-0.4-0.2
				c-5.6,5.6-14.5,13.1-20.1,16.9c-7,4.5-12.2,4-20.2,3.2c-0.5,0-1-0.1-1.5-0.1C94,94,94.6,89.8,95.5,85.6z"/>
			<path class="st1" d="M95.5,85.6c-1.3-0.3-2.8-0.6-4.3-0.8c-11-1-20.5,6.5-31,6c-3.2,0-5.5-3.2-8.2-3.2c-3-0.2-4.8,3.5-6.5,5.5
				c0,0-8.2,5.4-8.8,6.9c-0.6,1.4-0.9,3.3-0.2,3.8C41.3,99,48.5,98,55,98c13-0.2,26.2-0.9,39.3,0.1C94,94,94.6,89.8,95.5,85.6
				L95.5,85.6z"/>
			
				<linearGradient id="SVGID_1_" gradientUnits="userSpaceOnUse" x1="355.9155" y1="-430.3264" x2="380.4129" y2="-430.3264" gradientTransform="matrix(1 0 0 1 -172.5 510.11)">
				<stop  offset="0" style="stop-color:#F8A164"/>
				<stop  offset="0.1" style="stop-color:#F8A469"/>
				<stop  offset="0.63" style="stop-color:#F7B37B"/>
				<stop  offset="1" style="stop-color:#F7B882"/>
			</linearGradient>
			<path class="st9" d="M205.6,100.5c-5.9,0-10.8-4.6-12.6-7.2c-1.9-2.6,0.4-24.8,0.6-36.6c-3.1,0.7-10.8-0.3-11.3-0.2l0,0
				c-0.3,2.8-0.8,5.9-1.1,7.8c-0.2,3.8,0.6,7.3,1.8,11c4.3,14.5,2,20.2,2,20.2c-1.1,3.2,0.9,5.8,3.3,6.5c3.9,1.2,3.2,0,7.4,0.8
				C197.9,103.1,206.1,103.8,205.6,100.5L205.6,100.5z"/>
			
				<linearGradient id="SVGID_00000170995184423321664120000014956284901527653563_" gradientUnits="userSpaceOnUse" x1="264.1178" y1="-414.7695" x2="232.6038" y2="-436.42" gradientTransform="matrix(-1 0 0 1 360.39 510.11)">
				<stop  offset="0" style="stop-color:#355775"/>
				<stop  offset="3.000000e-02" style="stop-color:#345572"/>
				<stop  offset="0.22" style="stop-color:#2E4B66"/>
				<stop  offset="0.47" style="stop-color:#2B465E"/>
				<stop  offset="1" style="stop-color:#2A445C"/>
			</linearGradient>
			<path style="fill:url(#SVGID_00000170995184423321664120000014956284901527653563_);" d="M95.5,85.6c4.5,1.1,7.7,2.2,10.4-1.5
				c3.6-5,9.4-12.9,13.8-18V66c0.9,1.9,4.7,10.4,16.5,12.3c-0.1,0-0.2-0.1-0.2-0.1c-5.6,5.6-14.5,13.1-20.1,16.9
				c-7,4.5-12.2,4-20.2,3.2c-0.5,0-1-0.1-1.5-0.1C94,94,94.6,89.8,95.5,85.6L95.5,85.6z"/>
			<path class="st1" d="M193.8,102.5c-2,0-2.2-0.7-4-1.2c-1.6-0.4-5-1.7-6.8-2.4c-2.4-1.6,2.5-13.7,2.5-20.9
				c-0.6-2.5-0.8-8.8-0.7-11.5c0.1-2.2,3.5-24.5,4.5-28.7c0.3-1.3-9.7-3.2-13.2,0.4c-3.2,3.3,1,24.2,1.3,28.7
				c0.7,8.7-1.7,13.9-0.7,22.4c0.4,4.2-0.1,13,0.6,14.6c0.7,1.6,5.7,1.8,7.9,1.4c4-0.7,10.3,2.1,13.6-1.7
				C197.3,102.3,195.5,102.5,193.8,102.5L193.8,102.5z"/>
		</g>
	</g>
</g>
</svg>
