<?xml version="1.0" encoding="UTF-8"?>
<svg id="Layer_1" data-name="Layer 1" xmlns="http://www.w3.org/2000/svg" xmlns:xlink="http://www.w3.org/1999/xlink" viewBox="0 0 878.56 609.22">
  <defs>
    <style>
      .cls-1 {
        fill: url(#linear-gradient);
      }

      .cls-2 {
        fill: #f7b882;
      }

      .cls-3 {
        fill: #f5b080;
      }

      .cls-4 {
        fill: #fff;
      }

      .cls-5 {
        fill: #905423;
      }

      .cls-6 {
        fill: #b2bcc4;
      }

      .cls-7 {
        fill: #d1e5ff;
      }

      .cls-8 {
        fill: #d09a6f;
      }

      .cls-9, .cls-10 {
        fill: #355775;
      }

      .cls-11 {
        fill: #46260f;
      }

      .cls-12 {
        fill: url(#linear-gradient-2);
      }

      .cls-10 {
        font-family: FarmWaveFree-Regular, 'Farm Wave Free';
        font-size: 85px;
        isolation: isolate;
        letter-spacing: .07em;
      }
    </style>
    <linearGradient id="linear-gradient" x1="699.3" y1="397.33" x2="806.56" y2="397.33" gradientTransform="translate(0 731.11) scale(1 -1)" gradientUnits="userSpaceOnUse">
      <stop offset="0" stop-color="#f8a164"/>
      <stop offset=".1" stop-color="#f8a469"/>
      <stop offset=".63" stop-color="#f7b37b"/>
      <stop offset="1" stop-color="#f7b882"/>
    </linearGradient>
    <linearGradient id="linear-gradient-2" x1="215.12" y1="329.32" x2="77.13" y2="424.12" gradientTransform="translate(532.89 731.11) rotate(-180)" gradientUnits="userSpaceOnUse">
      <stop offset="0" stop-color="#355775"/>
      <stop offset=".03" stop-color="#345572"/>
      <stop offset=".22" stop-color="#2e4b66"/>
      <stop offset=".47" stop-color="#2b465e"/>
      <stop offset="1" stop-color="#2a445c"/>
    </linearGradient>
  </defs>
  <text class="cls-10" transform="translate(223.08 587.97)"><tspan x="0" y="0">High lunge</tspan></text>
  <g>
    <path class="cls-6" d="M878.56,426.2c0-16.87-196.67-30.55-439.28-30.55S0,409.33,0,426.2s196.67,30.55,439.28,30.55,439.28-13.68,439.28-30.55Z"/>
    <g>
      <g>
        <path class="cls-2" d="M725.62,69.26c-2.12,4.91-3.72,8.77-4.72,10.34l.02,.03c-3.15,4.12-9.33,9.15-17.25,10.02-.32-.32-.53-.49-.59-.49-22.89-1.97-50.52-4.35-82.38,2-52.32,10.43-179.06,101.84-190.12,144.5-1.1,4.24,118.53,28.14,286.27-72.42,6.99-6.79,9.52-15.01,9.44-23.45,7.98-5.91,16.57-12.08,18.44-13.05,2.22,5.39,4.63,10.75,6.16,12.71,4.09,5.24,8.13,1.81,12.19-1.65,2.15-1.82,4.51-3.17,7.27-1.74,1.41,.74,1.82,1.5,3.46,1.65,1.05,.07,1.87-.7,2.48-1.42,1.09-1.31,.26-2.73,1.56-1.04,1.01,1.35,3.51,.81,4.71-.26,1.77-1.58,.62-4.15,5.35-3,1.22,.31,2.33,.94,3.55,1.18,1.33,.27,2.28-.83,2.67-1.99,1.1-3.48,1.74-7.05,3.2-10.43,.51-.99,1.04-1.93,1.51-2.74,.26-.36,.54-.69,.82-1.02,.87,1.69,4.25,2.9,6.57,2.42-2.01-.65-3.61-2.44-4.14-4.58,1.75-1.24,3.79-2.21,5.92-3.25,3.94-1.94,7.57-4.54,10.81-7.54,1.71-1.55,5.8-6.43,9.51-13.08-49.43-51.56-96.98-18.8-102.71-21.7Z"/>
        <path class="cls-5" d="M724.1,65.72c2.53-6.03,8.23-17.39,17.91-25.77,8.33-7.2,14.07-9.26,17.41-9.72,.57-.08,1.11-.11,1.61-.11-1.93-3.04-5.32-10.56,1.46-18.82,4.46-5.41,13.06-9.45,23-10.81,12.78-1.75,29.84,.84,35.83,13.93,2.12,4.65,1.74,9.17,.74,12.65,.73-.47,1.47-.82,2.19-1.04,2.66-.84,4.99,.87,5.29,2.64,.17,1.01-.32,2.33-2.27,2.73-1.24,.26-2.64,.77-4.12,1.51,2.03-.02,3.99,.38,5.46,1.15,1.94,1.02,2.56,3.01,2.31,4.42-.34,1.92-2.2,2.72-4.01,1.51-.91-.61-2.02-1.16-3.33-1.65,5.88,6.5,13.92,16.7,13.49,31.01-.26,8.67-2.38,19.49-9.95,26.42l-.45,.41-.47-.4c-20.88-4.97-30.31-15.58-46.67-10.46l-.5-1.24c3.3-2.62,2.3-6.71,1.88-8.63-.67-3.08-5.36-7.88-11.91-5.23-9.93,4.01-15.36,16.19-15.36,16.19,0,0-28.59-2.07-32.27-8.68l2.64-11.78,.09-.23Z"/>
        <path class="cls-11" d="M830.92,38.48c-.34,1.92-2.2,2.72-4.01,1.51-.91-.61-2.02-1.16-3.33-1.65,.33,.36-36.01,12.02-65.71-7.8,.56-.14,1.08-.23,1.54-.3,.24-.03,.44-.03,.67-.05,.11,.04,.18,.1,.29,.14,51.07,17.92,61.82-3.75,61.68-3.26,.73-.47,1.47-.82,2.19-1.04,2.66-.84,4.99,.87,5.29,2.64,.17,1.01-.32,2.33-2.27,2.73-1.24,.26-2.64,.77-4.12,1.51,2.03-.02,3.99,.38,5.46,1.15,1.96,1.02,2.57,3.01,2.32,4.42Z"/>
        <path class="cls-11" d="M808.41,119.39s-6.47-2.57-10.67-10.36c-2.94-5.45-2.84,13,10.67,10.36Z"/>
        <path class="cls-8" d="M750.36,138.39s-9.93-15.77-12.51-32.01c3.49,7.82,7.29,18.92,12.51,32.01Z"/>
        <path class="cls-3" d="M764.29,121.39c-6.64-9.04,1.06-24.26,13.42-24.09,12.35,.16-9.14,29.92-13.42,24.09Z"/>
        <path class="cls-4" d="M661.36,116.7c-19.58-5.45-23.78-20.29-20.33-29-2.27,.36-41.37,6.55-55.59,15.24-6.51,34.72,4.26,79.41,24.49,107.45,3.99,.32,43.4-13.5,42.01-16.85-19.33-10.16-15.43-33.56,1.49-44.62,16.22-10.6,57.82-15.74,72.37-1,.03-.13,.07-.25,.1-.37,8.83-20.44-46.69-25.88-64.54-30.85Z"/>
        <path class="cls-7" d="M613.17,203.27c-.28,0-.55-.16-.67-.43-26.16-56.26-18.39-103.89-18.31-104.36,.07-.41,.45-.69,.86-.61,.41,.07,.68,.45,.61,.86-.08,.47-7.76,47.66,18.19,103.48,.17,.37,.01,.82-.36,.99-.1,.05-.21,.07-.32,.07Z"/>
      </g>
      <path class="cls-9" d="M314.29,359.31c19.86,4.68,33.72,9.79,45.58-6.74,15.74-21.92,41.2-56.32,60.55-78.62-8.01-32.75,16.48-69.1,47.3-88.06,.33-.2,87.26,32.1,87.1,34.73,55.35-38.25,127.25-70.43,151.45-70.43,19.7-.46,32.95,17.91,36.39,32.76,1.52,6.59,1.44,25.61,.98,49.84-13.8,2.95-47.05-1.4-49.3-.97,.96-7.92,1.65-15.32,1.65-20.5l-3.01,2.46c-37.04,37.05-125.23,129.7-199.54,113.59-.63-.14-1.15-.54-1.74-.81-24.36,24.76-63.5,57.18-88.04,74.17-30.66,19.71-53.65,17.52-88.69,14.23-2.18-.2-4.37-.31-6.55-.49-.53-18.42,1.98-36.82,5.87-55.16Z"/>
      <path class="cls-2" d="M314.29,359.31c-5.8-1.37-12.09-2.7-19.02-3.44-48.17-4.38-89.77,28.46-135.76,26.27-14.24,0-24.09-14.23-36.13-14.23-13.14-1.09-20.8,15.33-28.47,24.08,0,0-35.99,23.75-38.69,30.29-2.55,6.21-4.02,14.6-.72,16.79,20.79-20.8,52.55-25.19,81.02-25.19,56.94-1.05,114.89-4.05,171.9,.61-.53-18.44,1.98-36.84,5.87-55.18Z"/>
      <path class="cls-1" d="M796.39,424.5c-25.79,0-47.14-20.35-55.3-31.6-8.17-11.25,1.59-108.49,2.56-160.09-13.8,2.95-47.06-1.4-49.3-.97h0c-1.47,12.18-3.59,25.62-4.92,34.24-1.1,16.42,2.86,31.87,7.66,48.18,18.72,63.63,8.57,88.68,8.57,88.68-4.78,14.24,3.82,25.19,14.32,28.47,17.19,5.47,14.02,.08,32.17,3.36,10.5,1.09,46.61,3.95,44.24-10.27Z"/>
      <path class="cls-12" d="M314.29,359.31c19.86,4.68,33.72,9.79,45.58-6.74,15.74-21.92,41.2-56.32,60.55-78.62-.04-.19-.06-.39-.1-.58,3.89,8.35,20.48,45.38,72.41,53.7-.34-.16-.68-.32-1.03-.48-24.36,24.76-63.5,57.18-88.04,74.17-30.66,19.71-53.65,17.52-88.69,14.23-2.18-.2-4.37-.31-6.55-.49-.53-18.45,1.98-36.85,5.87-55.19Z"/>
      <path class="cls-2" d="M744.7,432.95c-8.81-.07-9.64-3.1-17.32-5.25-6.9-1.69-21.81-7.54-29.75-10.32-10.27-7.11,11.06-60.05,11.06-91.65-2.48-10.96-3.55-38.44-3.16-50.56,.61-9.82,15.48-107.14,19.75-125.62,1.32-5.5-42.32-14.2-57.68,1.58-14.05,14.44,4.26,105.82,5.53,125.62,2.91,37.9-7.5,60.64-3.16,97.97,1.66,18.46-.33,56.89,2.64,63.83,2.97,6.94,25.13,7.69,34.65,6.16,17.64-2.94,44.92,9.05,59.41-7.39-6.54-5.25-14.26-4.29-21.97-4.37Z"/>
    </g>
  </g>
</svg>