<?xml version="1.0" encoding="utf-8"?>
<!-- Generator: Adobe Illustrator 26.5.0, SVG Export Plug-In . SVG Version: 6.00 Build 0)  -->
<svg version="1.1" id="Layer_1" xmlns="http://www.w3.org/2000/svg" xmlns:xlink="http://www.w3.org/1999/xlink" x="0px" y="0px"
	 viewBox="0 0 250 400" style="enable-background:new 0 0 250 400;" xml:space="preserve">
<style type="text/css">
	.st0{fill:#355775;}
	.st1{font-family:'FarmWaveFree-Regular';}
	.st2{font-size:23.9188px;}
	.st3{letter-spacing:1;}
	.st4{fill:#B2BCC4;}
	.st5{fill:#F7B882;}
	.st6{fill:#905423;}
	.st7{fill:#46260F;}
	.st8{fill:#D09A6F;}
	.st9{fill:#F5B080;}
	.st10{fill:#FFFFFF;}
	.st11{fill:#D1E5FF;}
	.st12{fill:url(#SVGID_1_);}
	.st13{fill:url(#SVGID_00000071560848159794976940000005447206484940880512_);}
</style>
<g>
	<text transform="matrix(1 0 0 1 63.5854 367.2383)" class="st0 st1 st2 st3">High lunge</text>
	<g>
		<path class="st4" d="M224.35,321.93c0-3.85-44.92-6.98-100.32-6.98s-100.32,3.12-100.32,6.98c0,3.85,44.92,6.98,100.32,6.98
			S224.35,325.78,224.35,321.93z"/>
		<g>
			<g>
				<path class="st5" d="M189.43,240.41c-0.48,1.12-0.85,2-1.08,2.36l0,0.01c-0.72,0.94-2.13,2.09-3.94,2.29
					c-0.07-0.07-0.12-0.11-0.13-0.11c-5.23-0.45-11.54-0.99-18.81,0.46c-11.95,2.38-40.89,23.26-43.42,33
					c-0.25,0.97,27.07,6.43,65.38-16.54c1.6-1.55,2.17-3.43,2.16-5.36c1.82-1.35,3.78-2.76,4.21-2.98c0.51,1.23,1.06,2.46,1.41,2.9
					c0.93,1.2,1.86,0.41,2.78-0.38c0.49-0.42,1.03-0.72,1.66-0.4c0.32,0.17,0.42,0.34,0.79,0.38c0.24,0.02,0.43-0.16,0.57-0.32
					c0.25-0.3,0.06-0.62,0.36-0.24c0.23,0.31,0.8,0.18,1.08-0.06c0.4-0.36,0.14-0.95,1.22-0.69c0.28,0.07,0.53,0.21,0.81,0.27
					c0.3,0.06,0.52-0.19,0.61-0.45c0.25-0.79,0.4-1.61,0.73-2.38c0.12-0.23,0.24-0.44,0.34-0.63c0.06-0.08,0.12-0.16,0.19-0.23
					c0.2,0.39,0.97,0.66,1.5,0.55c-0.46-0.15-0.82-0.56-0.95-1.05c0.4-0.28,0.87-0.5,1.35-0.74c0.9-0.44,1.73-1.04,2.47-1.72
					c0.39-0.35,1.32-1.47,2.17-2.99C201.59,233.59,190.74,241.07,189.43,240.41L189.43,240.41z"/>
				<path class="st6" d="M189.08,239.6c0.58-1.38,1.88-3.97,4.09-5.89c1.9-1.64,3.21-2.11,3.98-2.22c0.13-0.02,0.25-0.03,0.37-0.03
					c-0.44-0.69-1.21-2.41,0.33-4.3c1.02-1.24,2.98-2.16,5.25-2.47c2.92-0.4,6.81,0.19,8.18,3.18c0.48,1.06,0.4,2.09,0.17,2.89
					c0.17-0.11,0.34-0.19,0.5-0.24c0.61-0.19,1.14,0.2,1.21,0.6c0.04,0.23-0.07,0.53-0.52,0.62c-0.28,0.06-0.6,0.18-0.94,0.34
					c0.46,0,0.91,0.09,1.25,0.26c0.44,0.23,0.58,0.69,0.53,1.01c-0.08,0.44-0.5,0.62-0.92,0.34c-0.21-0.14-0.46-0.26-0.76-0.38
					c1.34,1.48,3.18,3.81,3.08,7.08c-0.06,1.98-0.54,4.45-2.27,6.03l-0.1,0.09l-0.11-0.09c-4.77-1.14-6.92-3.56-10.66-2.39
					l-0.11-0.28c0.75-0.6,0.53-1.53,0.43-1.97c-0.15-0.7-1.22-1.8-2.72-1.19c-2.27,0.92-3.51,3.7-3.51,3.7s-6.53-0.47-7.37-1.98
					l0.6-2.69C189.06,239.66,189.08,239.6,189.08,239.6z"/>
				<path class="st7" d="M213.47,233.38c-0.08,0.44-0.5,0.62-0.92,0.34c-0.21-0.14-0.46-0.26-0.76-0.38
					c0.08,0.08-8.22,2.75-15.01-1.78c0.13-0.03,0.25-0.05,0.35-0.07c0.05-0.01,0.1-0.01,0.15-0.01c0.03,0.01,0.04,0.02,0.07,0.03
					c11.66,4.09,14.12-0.86,14.09-0.74c0.17-0.11,0.34-0.19,0.5-0.24c0.61-0.19,1.14,0.2,1.21,0.6c0.04,0.23-0.07,0.53-0.52,0.62
					c-0.28,0.06-0.6,0.18-0.94,0.34c0.46,0,0.91,0.09,1.25,0.26C213.39,232.61,213.53,233.06,213.47,233.38L213.47,233.38z"/>
				<path class="st7" d="M208.33,251.86c0,0-1.48-0.59-2.44-2.37C205.23,248.25,205.25,252.46,208.33,251.86z"/>
				<path class="st8" d="M195.08,256.2c0,0-2.27-3.6-2.86-7.31C193.02,250.67,193.88,253.21,195.08,256.2z"/>
				<path class="st9" d="M198.26,252.32c-1.52-2.06,0.24-5.54,3.06-5.5C204.14,246.85,199.24,253.65,198.26,252.32z"/>
				<path class="st10" d="M174.75,251.25c-4.47-1.24-5.43-4.63-4.64-6.62c-0.52,0.08-9.45,1.5-12.7,3.48
					c-1.49,7.93,0.97,18.14,5.59,24.54c0.91,0.07,9.91-3.08,9.59-3.85c-4.41-2.32-3.52-7.66,0.34-10.19
					c3.7-2.42,13.2-3.59,16.53-0.23c0.01-0.03,0.02-0.06,0.02-0.08C191.51,253.62,178.83,252.38,174.75,251.25L174.75,251.25z"/>
				<path class="st11" d="M163.75,271.02c-0.06,0-0.13-0.04-0.15-0.1c-5.97-12.85-4.2-23.73-4.18-23.83c0.02-0.09,0.1-0.16,0.2-0.14
					c0.09,0.02,0.16,0.1,0.14,0.2c-0.02,0.11-1.77,10.88,4.15,23.63c0.04,0.08,0,0.19-0.08,0.23
					C163.8,271.01,163.77,271.02,163.75,271.02L163.75,271.02z"/>
			</g>
			<path class="st0" d="M95.49,306.65c4.54,1.07,7.7,2.24,10.41-1.54c3.59-5.01,9.41-12.86,13.83-17.96
				c-1.83-7.48,3.76-15.78,10.8-20.11c0.08-0.05,19.93,7.33,19.89,7.93c12.64-8.74,29.06-16.08,34.59-16.08
				c4.5-0.11,7.53,4.09,8.31,7.48c0.35,1.51,0.33,5.85,0.22,11.38c-3.15,0.67-10.75-0.32-11.26-0.22c0.22-1.81,0.38-3.5,0.38-4.68
				l-0.69,0.56c-8.46,8.46-28.6,29.62-45.57,25.94c-0.14-0.03-0.26-0.12-0.4-0.18c-5.56,5.65-14.5,13.06-20.11,16.94
				c-7,4.5-12.25,4-20.25,3.25c-0.5-0.05-1-0.07-1.5-0.11C94.03,315.04,94.6,310.84,95.49,306.65z"/>
			<path class="st5" d="M95.49,306.65c-1.32-0.31-2.76-0.62-4.34-0.79c-11-1-20.5,6.5-31,6c-3.25,0-5.5-3.25-8.25-3.25
				c-3-0.25-4.75,3.5-6.5,5.5c0,0-8.22,5.42-8.84,6.92c-0.58,1.42-0.92,3.33-0.16,3.83c4.75-4.75,12-5.75,18.5-5.75
				c13-0.24,26.24-0.92,39.26,0.14C94.03,315.04,94.6,310.84,95.49,306.65L95.49,306.65z"/>
			
				<linearGradient id="SVGID_1_" gradientUnits="userSpaceOnUse" x1="355.9155" y1="-209.2868" x2="380.4107" y2="-209.2868" gradientTransform="matrix(1 0 0 1 -172.5 510.11)">
				<stop  offset="0" style="stop-color:#F8A164"/>
				<stop  offset="0.1" style="stop-color:#F8A469"/>
				<stop  offset="0.63" style="stop-color:#F7B37B"/>
				<stop  offset="1" style="stop-color:#F7B882"/>
			</linearGradient>
			<path class="st12" d="M205.59,321.54c-5.89,0-10.77-4.65-12.63-7.22c-1.87-2.57,0.36-24.78,0.58-36.56
				c-3.15,0.67-10.75-0.32-11.26-0.22l0,0c-0.34,2.78-0.82,5.85-1.12,7.82c-0.25,3.75,0.65,7.28,1.75,11
				c4.28,14.53,1.96,20.25,1.96,20.25c-1.09,3.25,0.87,5.75,3.27,6.5c3.93,1.25,3.2,0.02,7.35,0.77
				C197.88,324.14,206.13,324.79,205.59,321.54L205.59,321.54z"/>
			
				<linearGradient id="SVGID_00000043416320250808295310000013172992920117666954_" gradientUnits="userSpaceOnUse" x1="264.1076" y1="-193.7547" x2="232.5936" y2="-215.4051" gradientTransform="matrix(-1 0 0 1 360.39 510.11)">
				<stop  offset="0" style="stop-color:#355775"/>
				<stop  offset="0.03" style="stop-color:#345572"/>
				<stop  offset="0.22" style="stop-color:#2E4B66"/>
				<stop  offset="0.47" style="stop-color:#2B465E"/>
				<stop  offset="1" style="stop-color:#2A445C"/>
			</linearGradient>
			<path style="fill:url(#SVGID_00000043416320250808295310000013172992920117666954_);" d="M95.49,306.65
				c4.54,1.07,7.7,2.24,10.41-1.54c3.59-5.01,9.41-12.86,13.83-17.96c-0.01-0.04-0.01-0.09-0.02-0.13
				c0.89,1.91,4.68,10.36,16.54,12.26c-0.08-0.04-0.16-0.07-0.24-0.11c-5.56,5.65-14.5,13.06-20.11,16.94c-7,4.5-12.25,4-20.25,3.25
				c-0.5-0.05-1-0.07-1.5-0.11C94.03,315.04,94.6,310.84,95.49,306.65L95.49,306.65z"/>
			<path class="st5" d="M193.78,323.47c-2.01-0.02-2.2-0.71-3.96-1.2c-1.58-0.39-4.98-1.72-6.79-2.36
				c-2.35-1.62,2.53-13.71,2.53-20.93c-0.57-2.5-0.81-8.78-0.72-11.55c0.14-2.24,3.54-24.47,4.51-28.69
				c0.3-1.26-9.67-3.24-13.17,0.36c-3.21,3.3,0.97,24.17,1.26,28.69c0.66,8.66-1.71,13.85-0.72,22.37
				c0.38,4.22-0.08,12.99,0.6,14.58c0.68,1.58,5.74,1.76,7.91,1.41c4.03-0.67,10.26,2.07,13.57-1.69
				C197.31,323.27,195.54,323.49,193.78,323.47L193.78,323.47z"/>
		</g>
	</g>
</g>
</svg>
