<?xml version="1.0" encoding="utf-8"?>
<!-- Generator: Adobe Illustrator 26.5.0, SVG Export Plug-In . SVG Version: 6.00 Build 0)  -->
<svg version="1.1" id="Layer_1" xmlns="http://www.w3.org/2000/svg" xmlns:xlink="http://www.w3.org/1999/xlink" x="0px" y="0px"
	 viewBox="0 0 250 400" style="enable-background:new 0 0 250 400;" xml:space="preserve">
<style type="text/css">
	.st0{fill:#355775;}
	.st1{font-family:'FarmWaveFree-Regular';}
	.st2{font-size:19.4123px;}
	.st3{letter-spacing:1;}
	.st4{fill:#B2BCC4;}
	.st5{fill:#F7B882;}
	.st6{fill:#905423;}
	.st7{fill:#46260F;}
	.st8{fill:#FFFFFF;}
	.st9{fill:#D1E5FF;}
</style>
<g>
	<text transform="matrix(1 0 0 1 66.5762 359.4624)" class="st0 st1 st2 st3">Wide Legged</text>
	<text transform="matrix(1 0 0 1 60.3647 382.7568)" class="st0 st1 st2">F</text>
	<text transform="matrix(1 0 0 1 68.8037 382.7568)" class="st0 st1 st2 st3">or</text>
	<text transform="matrix(1 0 0 1 89.8257 382.7568)" class="st0 st1 st2">w</text>
	<text transform="matrix(1 0 0 1 101.4023 382.7568)" class="st0 st1 st2 st3">ard Bend</text>
	<g>
		<path class="st4" d="M224.35,322.35c0-3.81-44.92-6.91-100.32-6.91s-100.32,3.09-100.32,6.91s44.92,6.91,100.32,6.91
			S224.35,326.16,224.35,322.35z"/>
		<g>
			<path class="st5" d="M80.77,293.55c-1.68-2.62-3.19-5.33-4.27-8.25c-3.46,1.95-7.46,2.94-10.82,5.27
				c-8.41,5.82-10.55,12.49-16.27,16.78c-2.79,2.09-5.06,3.45-5.72,4.76c-0.66,1.31-3.78,11.92-1.13,12.62
				c2.65,0.7,4.26,0.33,7.87,0c3.61-0.33,3.5-0.18,3.5-2.15s-3.57-2.62-3.57-2.62s0.73-3.1,0.4-5.07c-0.03-0.17,0.06-0.38,0.23-0.62
				C53.45,310.44,76.08,296.53,80.77,293.55L80.77,293.55z"/>
			<path class="st5" d="M174.64,293.55c1.68-2.62,3.19-5.33,4.27-8.25c3.46,1.95,7.46,2.94,10.82,5.27
				c8.41,5.82,10.55,12.49,16.27,16.78c2.79,2.09,5.06,3.45,5.72,4.76c0.66,1.31,3.78,11.92,1.13,12.62c-2.65,0.7-4.26,0.33-7.87,0
				c-3.61-0.33-3.5-0.18-3.5-2.15s3.57-2.62,3.57-2.62s-0.73-3.1-0.4-5.07c0.03-0.17-0.06-0.38-0.23-0.62
				C201.96,310.44,179.33,296.53,174.64,293.55L174.64,293.55z"/>
			<path class="st0" d="M174.72,282.63c-5.02-3.58-9.2-8.68-13.38-13.14c-4-3.87-8.01-9.15-14.65-15.26
				c-4.65-3.93-12.15-7.63-18.22-5c-6.07-2.14-11.66-1.53-16.69,3.89c-7.25,6.47-13.72,12.5-17.72,16.37
				c-4.17,4.46-8.36,9.56-13.38,13.14c-2.08,1.53-4.28,2.78-6.56,3.93c0.43,3.38,1.78,6.42,3.81,9.04c1.96-1.56,3.91-2.91,6.4-3.85
				c3.45-1.3,13.73-4.51,25.08-12.51c3.09-2.18,12.5-8.49,18.28-12.73c5.78,4.23,15.19,10.54,18.28,12.73
				c11.35,8,21.63,11.21,25.08,12.51c2.49,0.94,4.44,2.29,6.4,3.85c2.03-2.62,3.38-5.66,3.81-9.04
				C179.01,285.41,176.8,284.16,174.72,282.63L174.72,282.63z"/>
			<path class="st5" d="M184.83,321.28c-1.82-0.4-11.73-3.23-12.53-4.85c-0.81-1.62,1.01-10.51,1.82-16.78
				c0.81-6.27-0.81-12.73-0.81-12.73s-5.66-1.82-12.53-1.62c-4.68,0.14-10.95,1.03-14.47,1.58c-1.24-4.25-5.81-16.22-6.13-18.59
				c-0.36-2.66,0.71-9.45,0.71-9.45c-0.71-4.14-6.07-4.73-11.79-5.32c-0.24-0.03-1.1-0.03-1.34,0c-5.72,0.59-11.07,1.18-11.79,5.32
				c0,0,1.07,6.79,0.71,9.45c-0.32,2.4-4.98,14.6-6.17,18.72c-3.28-0.53-10.24-1.56-15.33-1.71c-6.87-0.2-12.53,1.62-12.53,1.62
				s-1.62,6.47-0.81,12.73c0.81,6.27,2.63,15.16,1.82,16.78c-0.81,1.62-10.71,4.45-12.53,4.85c-1.82,0.4-3.03,2.83-3.03,2.83h5.66
				c1.21,0,12.13,0.81,13.75-2.22c1.62-3.03,1.62-16.58,1.62-19.2c0-2.63,0.77-8.44,0.77-8.44s9.63,2.66,12.86,2.86
				c2.39,0.15,11.43,1.59,17.97,1.36c0.68,1.47,1.33,3.61,1.33,6.5c0,4.55,3.8,3.69,5.72,2.97c1.91,0.72,5.72,1.58,5.72-2.97
				c0-2.85,0.63-4.97,1.3-6.44c0.29-0.01,0.59-0.03,0.89-0.05c6.5,0.15,15.2-1.22,17.54-1.37c3.23-0.2,12.86-2.86,12.86-2.86
				s0.77,5.81,0.77,8.44c0,2.63,0,16.17,1.62,19.2s12.53,2.22,13.75,2.22h5.66C187.86,324.11,186.65,321.69,184.83,321.28
				L184.83,321.28z"/>
			<g>
				<path class="st6" d="M139.33,312.38c-2.3-6.66-8.53-10.6-10.5-10.3l-0.86-1.4c-0.13-0.46-0.33-0.53-0.33-0.53l-0.12-0.19
					c0,0-0.08,0.26-0.21,0.72l-0.86,1.4c-1.97-0.3-8.21,3.64-10.5,10.3c-1.48,4.29,1.26,9.08,4.98,10.74
					c0.29,2.64,3.07,4.71,6.51,4.71s6.09-1.98,6.48-4.53C137.84,321.84,140.87,316.84,139.33,312.38L139.33,312.38z"/>
				<path class="st7" d="M119.39,321.31c0.07-0.37,0.46-0.52,0.84-0.29c0.19,0.12,0.42,0.22,0.7,0.32
					c-0.07-0.07,7.55-2.29,13.76,1.55c-0.12,0.03-0.23,0.04-0.32,0.06c-0.05,0.01-0.09,0-0.14,0.01c-0.02-0.01-0.04-0.02-0.06-0.03
					c-10.69-3.48-12.95,0.68-12.92,0.58c-0.15,0.09-0.31,0.16-0.46,0.2c-0.56,0.16-1.04-0.17-1.11-0.51
					c-0.04-0.19,0.07-0.45,0.48-0.52c0.26-0.05,0.55-0.15,0.86-0.29c-0.42,0-0.84-0.08-1.14-0.23
					C119.46,321.96,119.33,321.58,119.39,321.31L119.39,321.31z"/>
			</g>
			<path class="st8" d="M144.37,280.76c-0.08-2.99-1.99-7.76-3.39-9.14c-7.96-2.88-16.83-2.18-25.03-0.6
				c-2.21,2.14-3.55,5.81-3.46,10.09c1.07,2.5,4.29,4.11,4.65,17.33c0,0.17,1.1-0.18,1.82-0.12c0.86-6.1,1.24-16.4,10.77-16.4
				c7.86,0,9.09,10.78,8.84,16.79c1.26-0.08,1.63-0.17,1.7-0.18C140.46,292.14,141.6,285.23,144.37,280.76z"/>
			<path class="st9" d="M141.93,273.47c-0.02,0-0.04,0-0.06-0.01c-12.31-4.34-26.9-0.74-27.05-0.71c-0.1,0.03-0.19-0.03-0.22-0.13
				c-0.02-0.1,0.03-0.19,0.13-0.22c0.15-0.04,14.84-3.65,27.25,0.72c0.09,0.03,0.14,0.13,0.11,0.23
				C142.07,273.42,142,273.47,141.93,273.47z"/>
		</g>
	</g>
</g>
</svg>
