<?xml version="1.0" encoding="UTF-8"?>
<svg id="Layer_1" data-name="Layer 1" xmlns="http://www.w3.org/2000/svg" viewBox="0 0 878.56 610.94">
  <defs>
    <style>
      .cls-1 {
        fill: #f7b882;
      }

      .cls-2 {
        fill: #fff;
      }

      .cls-3 {
        fill: #905423;
      }

      .cls-4 {
        fill: #b2bcc4;
      }

      .cls-5 {
        fill: #d1e5ff;
      }

      .cls-6, .cls-7, .cls-8 {
        fill: #355775;
      }

      .cls-9 {
        fill: #46260f;
      }

      .cls-10 {
        letter-spacing: .07em;
      }

      .cls-11, .cls-7 {
        letter-spacing: .07em;
      }

      .cls-7, .cls-8 {
        font-family: FarmWaveFree-Regular, 'Farm Wave Free';
        font-size: 85px;
        isolation: isolate;
      }

      .cls-12 {
        letter-spacing: .03em;
      }

      .cls-13 {
        letter-spacing: .02em;
      }
    </style>
  </defs>
  <text class="cls-7" transform="translate(187.7 487.69)"><tspan x="0" y="0">Wide Legged </tspan></text>
  <text class="cls-8" transform="translate(160.5 589.69)"><tspan class="cls-13" x="0" y="0">F</tspan><tspan class="cls-10" x="36.95" y="0">or</tspan><tspan class="cls-12" x="129" y="0">w</tspan><tspan class="cls-11" x="179.69" y="0">ard Bend</tspan></text>
  <g>
    <path class="cls-4" d="M878.56,325.18c0-16.7-196.67-30.24-439.28-30.24S0,308.48,0,325.18s196.67,30.24,439.28,30.24,439.28-13.54,439.28-30.24Z"/>
    <g>
      <path class="cls-1" d="M249.84,199.08c-7.35-11.47-13.97-23.32-18.71-36.12-15.15,8.52-32.68,12.89-47.39,23.07-36.82,25.49-46.21,54.69-71.23,73.46-12.21,9.15-22.16,15.12-25.03,20.86s-16.54,52.21-4.94,55.28c11.6,3.07,18.66,1.44,34.45,0,15.79-1.43,15.34-.78,15.34-9.4s-15.64-11.47-15.64-11.47c0,0,3.18-13.58,1.74-22.19-.13-.76,.26-1.68,1.02-2.73,10.78-16.8,109.85-77.71,130.39-90.76Z"/>
      <path class="cls-1" d="M660.88,199.08c7.35-11.47,13.97-23.32,18.71-36.12,15.15,8.52,32.68,12.89,47.39,23.07,36.82,25.49,46.21,54.69,71.24,73.46,12.21,9.15,22.16,15.12,25.03,20.86,2.87,5.74,16.54,52.21,4.94,55.28-11.6,3.07-18.66,1.44-34.45,0-15.79-1.43-15.34-.78-15.34-9.4s15.64-11.47,15.64-11.47c0,0-3.18-13.58-1.74-22.19,.13-.76-.26-1.68-1.02-2.73-10.8-16.8-109.86-77.71-130.4-90.76Z"/>
      <path class="cls-6" d="M661.24,151.27c-21.98-15.67-40.3-38.02-58.57-57.53-17.53-16.94-35.07-40.05-64.16-66.81-20.34-17.21-53.21-33.43-79.78-21.9-26.59-9.39-51.07-6.69-73.08,17.04-31.73,28.32-60.07,54.72-77.6,71.66-18.27,19.51-36.6,41.86-58.57,57.53-9.09,6.68-18.75,12.17-28.71,17.22,1.9,14.8,7.8,28.11,16.68,39.58,8.6-6.84,17.13-12.76,28.02-16.86,15.1-5.68,60.13-19.75,109.83-54.78,13.55-9.56,54.73-37.19,80.06-55.72,25.33,18.53,66.5,46.16,80.06,55.72,49.7,35.03,94.73,49.1,109.83,54.78,10.89,4.1,19.42,10.02,28.02,16.86,8.89-11.46,14.78-24.77,16.68-39.58-9.96-5.04-19.62-10.52-28.71-17.21Z"/>
      <path class="cls-1" d="M705.49,320.51c-7.97-1.77-51.34-14.16-54.88-21.24s4.43-46.03,7.97-73.47-3.54-55.76-3.54-55.76c0,0-24.78-7.97-54.88-7.08-20.5,.6-47.94,4.49-63.38,6.9-5.45-18.63-25.43-71.02-26.83-81.39-1.56-11.64,3.13-41.39,3.13-41.39-3.13-18.11-26.59-20.69-51.62-23.28-1.05-.11-4.81-.11-5.85,0-25.03,2.59-48.49,5.17-51.62,23.28,0,0,4.69,29.75,3.13,41.39-1.41,10.49-21.82,63.94-27,81.99-14.35-2.31-44.84-6.84-67.13-7.5-30.09-.89-54.88,7.08-54.88,7.08,0,0-7.08,28.32-3.54,55.76,3.54,27.44,11.51,66.39,7.97,73.47s-46.91,19.47-54.88,21.24-13.28,12.39-13.28,12.39h24.78c5.31,0,53.11,3.54,60.19-9.74,7.08-13.28,7.08-72.58,7.08-84.09s3.37-36.95,3.37-36.95c0,0,42.15,11.63,56.31,12.51,10.45,.65,50.05,6.95,78.67,5.96,2.97,6.45,5.81,15.81,5.81,28.46,0,19.91,16.65,16.15,25.03,13,8.37,3.15,25.03,6.91,25.03-13,0-12.5,2.77-21.77,5.7-28.21,1.27-.06,2.57-.13,3.91-.2,28.44,.67,66.57-5.36,76.79-6,14.16-.89,56.31-12.51,56.31-12.51,0,0,3.37,25.44,3.37,36.95s0,70.81,7.08,84.09c7.08,13.28,54.88,9.74,60.19,9.74h24.78s-5.32-10.63-13.29-12.4Z"/>
      <g>
        <path class="cls-3" d="M506.26,281.53c-10.06-29.18-37.36-46.42-45.98-45.09l-3.78-6.11c-.57-2.02-1.45-2.34-1.45-2.34l-.51-.83s-.36,1.15-.93,3.17l-3.78,6.11c-8.62-1.33-35.93,15.92-45.98,45.09-6.48,18.79,5.53,39.76,21.8,47.01,1.26,11.54,13.46,20.63,28.49,20.63s26.67-8.68,28.39-19.84c17.23-6.38,30.46-28.26,23.73-47.8Z"/>
        <path class="cls-9" d="M418.94,320.64c.32-1.61,2.02-2.28,3.68-1.26,.83,.52,1.85,.98,3.05,1.4-.3-.31,33.04-10.01,60.24,6.77-.52,.11-.99,.19-1.42,.25-.22,.03-.41,.02-.61,.04-.1-.04-.17-.09-.27-.12-46.8-15.24-56.7,2.96-56.57,2.55-.67,.39-1.35,.68-2.01,.87-2.44,.7-4.57-.75-4.84-2.24-.16-.85,.29-1.96,2.08-2.29,1.14-.21,2.42-.64,3.78-1.26-1.86,.01-3.66-.33-5.01-.99-1.77-.86-2.33-2.53-2.1-3.72Z"/>
      </g>
      <path class="cls-2" d="M528.34,143.08c-.34-13.1-8.7-33.97-14.86-40.02-34.85-12.59-73.68-9.54-109.6-2.62-9.68,9.39-15.54,25.43-15.15,44.2,4.69,10.95,18.77,17.99,20.34,75.87,.02,.75,4.81-.77,7.97-.52,3.76-26.7,5.42-71.82,47.17-71.82,34.41,0,39.79,47.19,38.72,73.52,5.51-.33,7.14-.75,7.43-.78,.83-28.02,5.86-58.28,17.98-77.83Z"/>
      <path class="cls-5" d="M517.65,111.14c-.09,0-.17-.01-.26-.04-53.88-18.99-117.78-3.26-118.43-3.11-.42,.12-.84-.15-.95-.57-.1-.42,.15-.84,.57-.95,.64-.17,64.99-15.99,119.34,3.15,.4,.15,.62,.59,.48,1-.13,.32-.43,.52-.75,.52Z"/>
    </g>
  </g>
</svg>