<?xml version="1.0" encoding="utf-8"?>
<!-- Generator: Adobe Illustrator 26.5.0, SVG Export Plug-In . SVG Version: 6.00 Build 0)  -->
<svg version="1.1" id="Layer_1" xmlns="http://www.w3.org/2000/svg" xmlns:xlink="http://www.w3.org/1999/xlink" x="0px" y="0px"
	 viewBox="0 0 250 105.3" style="enable-background:new 0 0 250 105.3;" xml:space="preserve">
<style type="text/css">
	.st0{fill:#B2BCC4;}
	.st1{fill:#F7B882;}
	.st2{fill:#355775;}
	.st3{fill:#905423;}
	.st4{fill:#46260F;}
	.st5{fill:#FFFFFF;}
	.st6{fill:#D1E5FF;}
</style>
<g>
	<g>
		<path class="st0" d="M224.4,98.4c0-3.8-44.9-6.9-100.3-6.9S23.8,94.6,23.8,98.4s44.9,6.9,100.3,6.9S224.4,102.2,224.4,98.4z"/>
		<g>
			<path class="st1" d="M80.8,69.5c-1.7-2.6-3.2-5.3-4.3-8.2c-3.5,2-7.5,2.9-10.8,5.3c-8.4,5.8-10.5,12.5-16.3,16.8
				c-2.8,2.1-5.1,3.5-5.7,4.8s-3.8,11.9-1.1,12.6s4.3,0.3,7.9,0c3.6-0.3,3.5-0.2,3.5-2.1s-3.6-2.6-3.6-2.6s0.7-3.1,0.4-5.1
				c0-0.2,0.1-0.4,0.2-0.6C53.5,86.4,76.1,72.5,80.8,69.5L80.8,69.5z"/>
			<path class="st1" d="M174.6,69.5c1.7-2.6,3.2-5.3,4.3-8.2c3.5,2,7.5,2.9,10.8,5.3c8.4,5.8,10.6,12.5,16.3,16.8
				c2.8,2.1,5.1,3.5,5.7,4.8s3.8,11.9,1.1,12.6c-2.6,0.7-4.3,0.3-7.9,0s-3.5-0.2-3.5-2.1s3.6-2.6,3.6-2.6s-0.7-3.1-0.4-5.1
				c0-0.2-0.1-0.4-0.2-0.6C202,86.4,179.3,72.5,174.6,69.5L174.6,69.5z"/>
			<path class="st2" d="M174.7,58.6c-5-3.6-9.2-8.7-13.4-13.1c-4-3.9-8-9.1-14.6-15.3c-4.6-3.9-12.1-7.6-18.2-5
				c-6.1-2.1-11.7-1.5-16.7,3.9c-7.2,6.5-13.7,12.5-17.7,16.4c-4.2,4.5-8.4,9.6-13.4,13.1c-2.1,1.5-4.3,2.8-6.6,3.9
				c0.4,3.4,1.8,6.4,3.8,9c2-1.6,3.9-2.9,6.4-3.9c3.4-1.3,13.7-4.5,25.1-12.5c3.1-2.2,12.5-8.5,18.3-12.7
				c5.8,4.2,15.2,10.5,18.3,12.7c11.4,8,21.6,11.2,25.1,12.5c2.5,0.9,4.4,2.3,6.4,3.9c2-2.6,3.4-5.7,3.8-9
				C179,61.4,176.8,60.2,174.7,58.6L174.7,58.6z"/>
			<path class="st1" d="M184.8,97.3c-1.8-0.4-11.7-3.2-12.5-4.9c-0.8-1.6,1-10.5,1.8-16.8s-0.8-12.7-0.8-12.7s-5.7-1.8-12.5-1.6
				c-4.7,0.1-10.9,1-14.5,1.6c-1.2-4.2-5.8-16.2-6.1-18.6c-0.4-2.7,0.7-9.5,0.7-9.5c-0.7-4.1-6.1-4.7-11.8-5.3c-0.2,0-1.1,0-1.3,0
				c-5.7,0.6-11.1,1.2-11.8,5.3c0,0,1.1,6.8,0.7,9.5c-0.3,2.4-5,14.6-6.2,18.7c-3.3-0.5-10.2-1.6-15.3-1.7
				c-6.9-0.2-12.5,1.6-12.5,1.6s-1.6,6.5-0.8,12.7c0.8,6.3,2.6,15.2,1.8,16.8S73,96.9,71.2,97.3s-3,2.8-3,2.8h5.7
				c1.2,0,12.1,0.8,13.8-2.2s1.6-16.6,1.6-19.2s0.8-8.4,0.8-8.4s9.6,2.7,12.9,2.9c2.4,0.1,11.4,1.6,18,1.4c0.7,1.5,1.3,3.6,1.3,6.5
				c0,4.5,3.8,3.7,5.7,3c1.9,0.7,5.7,1.6,5.7-3c0-2.9,0.6-5,1.3-6.4c0.3,0,0.6,0,0.9,0c6.5,0.1,15.2-1.2,17.5-1.4
				c3.2-0.2,12.9-2.9,12.9-2.9s0.8,5.8,0.8,8.4s0,16.2,1.6,19.2s12.5,2.2,13.8,2.2h5.7C187.9,100.1,186.6,97.7,184.8,97.3
				L184.8,97.3z"/>
			<g>
				<path class="st3" d="M139.3,88.4c-2.3-6.7-8.5-10.6-10.5-10.3l-0.9-1.4c-0.1-0.5-0.3-0.5-0.3-0.5l-0.1-0.2c0,0-0.1,0.3-0.2,0.7
					l-0.9,1.4c-2-0.3-8.2,3.6-10.5,10.3c-1.5,4.3,1.3,9.1,5,10.7c0.3,2.6,3.1,4.7,6.5,4.7s6.1-2,6.5-4.5
					C137.8,97.8,140.9,92.8,139.3,88.4L139.3,88.4z"/>
				<path class="st4" d="M119.4,97.3c0.1-0.4,0.5-0.5,0.8-0.3c0.2,0.1,0.4,0.2,0.7,0.3c-0.1-0.1,7.6-2.3,13.8,1.5
					c-0.1,0-0.2,0-0.3,0.1c-0.1,0-0.1,0-0.1,0s0,0-0.1,0c-10.7-3.5-12.9,0.7-12.9,0.6c-0.2,0.1-0.3,0.2-0.5,0.2
					c-0.6,0.2-1-0.2-1.1-0.5c0-0.2,0.1-0.5,0.5-0.5c0.3,0,0.6-0.1,0.9-0.3c-0.4,0-0.8-0.1-1.1-0.2C119.5,98,119.3,97.6,119.4,97.3
					L119.4,97.3z"/>
			</g>
			<path class="st5" d="M144.4,56.8c-0.1-3-2-7.8-3.4-9.1c-8-2.9-16.8-2.2-25-0.6c-2.2,2.1-3.6,5.8-3.5,10.1
				c1.1,2.5,4.3,4.1,4.7,17.3c0,0.2,1.1-0.2,1.8-0.1c0.9-6.1,1.2-16.4,10.8-16.4c7.9,0,9.1,10.8,8.8,16.8c1.3-0.1,1.6-0.2,1.7-0.2
				C140.5,68.1,141.6,61.2,144.4,56.8z"/>
			<path class="st6" d="M141.9,49.5L141.9,49.5c-12.4-4.4-27-0.8-27.1-0.7c-0.1,0-0.2,0-0.2-0.1s0-0.2,0.1-0.2
				c0.2,0,14.8-3.6,27.2,0.7c0.1,0,0.1,0.1,0.1,0.2C142.1,49.4,142,49.5,141.9,49.5z"/>
		</g>
	</g>
</g>
</svg>
