<?xml version="1.0" encoding="UTF-8"?>
<svg id="Layer_1" data-name="Layer 1" xmlns="http://www.w3.org/2000/svg" xmlns:xlink="http://www.w3.org/1999/xlink" viewBox="0 0 876.32 565.31">
  <defs>
    <style>
      .cls-1 {
        fill: url(#linear-gradient);
      }

      .cls-2 {
        fill: #f7b882;
      }

      .cls-3 {
        fill: #f5b080;
      }

      .cls-4 {
        fill: #fff;
      }

      .cls-5 {
        fill: #905423;
      }

      .cls-6 {
        fill: #b2bcc4;
      }

      .cls-7 {
        fill: #d1e5ff;
      }

      .cls-8 {
        fill: #d09a6f;
      }

      .cls-9, .cls-10 {
        fill: #355775;
      }

      .cls-11 {
        fill: #46260f;
      }

      .cls-12 {
        fill: url(#linear-gradient-3);
      }

      .cls-13 {
        fill: url(#linear-gradient-2);
      }

      .cls-10 {
        font-family: FarmWaveFree-Regular, 'Farm Wave Free';
        font-size: 85px;
        isolation: isolate;
        letter-spacing: .07em;
      }
    </style>
    <linearGradient id="linear-gradient" x1="642.43" y1="1564.42" x2="721.01" y2="1567.28" gradientTransform="translate(0 -1318)" gradientUnits="userSpaceOnUse">
      <stop offset="0" stop-color="#f8a164"/>
      <stop offset=".1" stop-color="#f8a469"/>
      <stop offset=".63" stop-color="#f7b37b"/>
      <stop offset="1" stop-color="#f7b882"/>
    </linearGradient>
    <linearGradient id="linear-gradient-2" x1="614.04" y1="1608.45" x2="611.17" y2="1565.49" gradientTransform="translate(0 -1318)" gradientUnits="userSpaceOnUse">
      <stop offset="0" stop-color="#355775"/>
      <stop offset=".03" stop-color="#345572"/>
      <stop offset=".22" stop-color="#2e4b66"/>
      <stop offset=".47" stop-color="#2b465e"/>
      <stop offset="1" stop-color="#2a445c"/>
    </linearGradient>
    <linearGradient id="linear-gradient-3" x1="674.56" y1="1619.8" x2="771.56" y2="1619.8" gradientTransform="translate(0 -1318)" gradientUnits="userSpaceOnUse">
      <stop offset="0" stop-color="#f8a164"/>
      <stop offset=".1" stop-color="#f8a469"/>
      <stop offset=".63" stop-color="#f7b37b"/>
      <stop offset="1" stop-color="#f7b882"/>
    </linearGradient>
  </defs>
  <text class="cls-10" transform="translate(181.93 544.06)"><tspan x="0" y="0">High lunge ||</tspan></text>
  <g>
    <ellipse class="cls-6" cx="438.16" cy="385.37" rx="438.16" ry="27.62"/>
    <g>
      <path class="cls-1" d="M702.76,372.9c-7.96-.06-8.72-2.8-15.66-4.74-6.24-1.53-19.72-6.82-26.9-9.33-9.29-6.43,10-54.29,10-82.87-2.24-9.91-3.21-34.76-2.86-45.72,.55-8.88,14-96.88,17.86-113.59,1.2-4.97-38.26-12.84-52.15,1.43-12.7,13.05,3.85,95.68,5,113.59,2.63,34.26-6.78,54.83-2.86,88.58,1.5,16.69-.3,51.44,2.39,57.71,2.69,6.28,22.72,6.95,31.33,5.57,15.95-2.66,40.61,8.18,53.72-6.68-5.93-4.75-12.9-3.88-19.87-3.95Z"/>
      <path class="cls-13" d="M713.76,165.43c-3.11-13.43-15.09-30.04-32.9-29.62-20.67,0-90.1,23.49-139.91,55.24-1.58,23.69-30.59,49.34-37.16,72.1,26.93-5.5,105.81-23.67,165.05-69.83l2.72-2.23c0,4.68-.62,11.37-1.49,18.53,2.03-.39,32.1,3.54,44.58,.87,.42-21.9,.49-39.1-.89-45.06h0Z"/>
      <path class="cls-12" d="M762.35,383.83c-23.32,0-42.62-18.4-50.01-28.58s1.44-98.09,2.31-144.76c-12.48,2.67-42.55-1.27-44.58-.88h0c-1.33,11.01-3.25,23.16-4.45,30.96-.99,14.85,2.59,28.81,6.93,43.56,16.92,57.53,7.75,80.18,7.75,80.18-4.33,12.88,3.45,22.77,12.95,25.75,15.54,4.95,12.68,.07,29.09,3.04,9.5,1.01,42.15,3.59,40.01-9.27h0Z"/>
      <path class="cls-2" d="M698.36,62.63c-1.91,4.44-3.36,7.93-4.27,9.35l.02,.03c-2.85,3.72-8.43,8.27-15.59,9.06-.29-.29-.48-.45-.54-.44-20.7-1.78-45.68-3.94-74.49,1.81-25.89,5.16-71.93,32.25-109.95,62.04-31.46,24.65,38.72,76.69,41.69,75.1,18.57-10,46.04-25.57,64.77-30,9.33-2.21,23.26,3.8,32.86,0,4.71-1.86,5.7-10.56,8.74-15.83,1.86,28.95,8.58,65.33,9.3,76.51,2.63,34.26-6.78,54.83-2.86,88.58,1.5,16.69-.3,51.44,2.39,57.71,2.69,6.28,22.72,6.95,31.33,5.57,15.95-2.66,40.61,8.18,53.72-6.68-5.92-4.74-12.9-3.88-19.87-3.95-7.96-.06-8.72-2.8-15.66-4.74-6.24-1.53-19.72-6.82-26.9-9.33-9.29-6.43,10-54.29,10-82.87-2.24-9.91-3.21-34.76-2.86-45.72,.55-8.88,14-96.88,17.86-113.59,.03-.12-.07-.25-.09-.37,.73-2.75,1.03-5.59,1-8.46,7.22-5.34,14.98-10.93,16.68-11.8,2,4.88,4.19,9.72,5.57,11.49,3.7,4.74,7.35,1.64,11.02-1.49,1.94-1.65,4.08-2.87,6.58-1.58,1.27,.67,1.65,1.35,3.13,1.49,.95,.06,1.69-.63,2.24-1.29,.99-1.18,.23-2.47,1.41-.94,.92,1.22,3.18,.73,4.26-.23,1.6-1.43,.56-3.75,4.84-2.71,1.1,.28,2.1,.85,3.21,1.07,1.2,.24,2.07-.75,2.42-1.8,1-3.14,1.57-6.38,2.89-9.43,.46-.89,.94-1.74,1.36-2.47,.24-.33,.49-.63,.74-.92,.78,1.53,3.84,2.62,5.94,2.19-1.82-.59-3.27-2.2-3.75-4.14,1.58-1.12,3.43-2,5.36-2.94,3.56-1.76,6.84-4.1,9.77-6.81,1.55-1.4,5.25-5.81,8.6-11.83-44.69-46.65-87.69-17.02-92.87-19.64h0Z"/>
      <g>
        <path class="cls-5" d="M696.99,59.43c2.29-5.45,7.44-15.72,16.19-23.3,7.53-6.51,12.72-8.37,15.74-8.79,.51-.07,1.01-.1,1.45-.1-1.75-2.75-4.81-9.55,1.32-17.02,4.03-4.89,11.8-8.54,20.8-9.78,11.56-1.59,26.98,.76,32.4,12.59,1.92,4.2,1.58,8.29,.67,11.44,.66-.42,1.33-.74,1.98-.94,2.41-.76,4.51,.79,4.78,2.39,.16,.91-.29,2.1-2.05,2.46-1.12,.23-2.38,.7-3.72,1.37,1.84-.02,3.61,.34,4.94,1.04,1.76,.93,2.31,2.72,2.09,4-.31,1.73-1.99,2.46-3.62,1.36-.82-.55-1.83-1.05-3.01-1.49,5.32,5.88,12.59,15.1,12.2,28.04-.23,7.84-2.15,17.63-9,23.89l-.41,.37-.42-.36c-18.88-4.5-27.41-14.08-42.2-9.46l-.45-1.12c2.98-2.37,2.08-6.07,1.7-7.8-.61-2.79-4.84-7.12-10.77-4.73-8.97,3.62-13.89,14.64-13.89,14.64,0,0-25.85-1.87-29.18-7.85l2.39-10.65,.07-.2h0Z"/>
        <path class="cls-11" d="M793.57,34.79c-.31,1.73-1.99,2.46-3.62,1.36-.82-.55-1.83-1.05-3.01-1.49,.3,.33-32.56,10.87-59.41-7.05,.51-.12,.97-.21,1.4-.27,.21-.03,.4-.02,.61-.04,.1,.04,.16,.09,.26,.13,46.17,16.21,55.9-3.39,55.77-2.95,.66-.42,1.33-.74,1.98-.94,2.41-.76,4.51,.79,4.78,2.39,.16,.91-.29,2.1-2.05,2.46-1.12,.23-2.38,.7-3.72,1.37,1.84-.02,3.61,.34,4.94,1.04,1.74,.92,2.3,2.71,2.07,3.99h0Z"/>
        <path class="cls-11" d="M773.21,107.95s-5.85-2.33-9.65-9.37c-2.65-4.92-2.56,11.76,9.65,9.37Z"/>
        <path class="cls-8" d="M720.73,125.13s-8.97-14.26-11.31-28.94c3.15,7.07,6.59,17.1,11.31,28.94Z"/>
        <path class="cls-3" d="M733.33,109.76c-6.01-8.18,.96-21.93,12.13-21.78,11.17,.14-8.26,27.05-12.13,21.78Z"/>
        <path class="cls-4" d="M640.25,105.52c-17.71-4.93-21.5-18.34-18.38-26.22-2.05,.33-37.41,5.92-50.27,13.78-5.89,31.4,3.85,71.8,22.15,97.16,3.61,.29,42.44,17.91,47.21-14.48-17.48-9.19-23.18-31.1-7.88-41.1,14.66-9.59,52.29-14.23,65.43-.9,.02-.11,.06-.23,.09-.34,7.99-18.49-42.2-23.41-58.35-27.9h0Z"/>
        <path class="cls-7" d="M600.53,192.01c-.31,0-.6-.16-.74-.42-28.65-55.26-20.14-102.03-20.05-102.5,.07-.4,.49-.68,.94-.6,.45,.07,.74,.45,.66,.84-.09,.46-8.5,46.81,19.92,101.63,.19,.37,.01,.8-.39,.97-.11,.06-.23,.08-.34,.08h0Z"/>
      </g>
      <path class="cls-9" d="M497.13,140.04c-8.1,3.81-22.36,11.06-25.24,11.91-24.6,7.23-38.4,29.49-40.96,57.63-17.5,20.16-89.66,80.93-103.89,100.74-10.72,14.94-23.26,10.32-41.21,6.09-3.51,16.59-5.79,33.22-5.31,49.9,1.97,.16,3.95,.26,5.92,.44,31.68,2.97,52.47,4.95,80.19-12.87,30.95-11.46,120.73-50.72,164.31-127.16,8.57-6.43,7.86-4.29,20.72-12.14-38.58-30.01-51.2-68.83-54.53-74.54h0Z"/>
      <path class="cls-2" d="M285.82,316.4c-5.25-1.24-10.93-2.44-17.2-3.11-43.56-3.96-81.17,25.73-122.75,23.75-12.87,0-21.78-12.87-32.67-12.87-11.88-.98-18.81,13.86-25.74,21.78,0,0-32.54,21.47-34.98,27.39-2.31,5.61-3.63,13.21-.65,15.18,18.8-18.81,47.52-22.77,73.26-22.77,51.49-.95,103.89-3.66,155.44,.55-.49-16.68,1.78-33.31,5.29-49.9h0Z"/>
    </g>
  </g>
</svg>