<?xml version="1.0" encoding="utf-8"?>
<!-- Generator: Adobe Illustrator 26.5.0, SVG Export Plug-In . SVG Version: 6.00 Build 0)  -->
<svg version="1.1" id="Layer_1" xmlns="http://www.w3.org/2000/svg" xmlns:xlink="http://www.w3.org/1999/xlink" x="0px" y="0px"
	 viewBox="0 0 250 105.5" style="enable-background:new 0 0 250 105.5;" xml:space="preserve">
<style type="text/css">
	.st0{fill:#B2BCC4;}
	.st1{fill:url(#SVGID_1_);}
	.st2{fill:url(#SVGID_00000159428952164551497170000014450285055968579731_);}
	.st3{fill:url(#SVGID_00000041983723800773471870000007868151010372816796_);}
	.st4{fill:#F7B882;}
	.st5{fill:#905423;}
	.st6{fill:#46260F;}
	.st7{fill:#D09A6F;}
	.st8{fill:#F5B080;}
	.st9{fill:#FFFFFF;}
	.st10{fill:#D1E5FF;}
	.st11{fill:#355775;}
</style>
<g>
	<g>
		<ellipse class="st0" cx="123.9" cy="99.2" rx="100.2" ry="6.3"/>
		<g>
			
				<linearGradient id="SVGID_1_" gradientUnits="userSpaceOnUse" x1="348.0807" y1="-1252.3541" x2="366.0452" y2="-1253.0081" gradientTransform="matrix(1 0 0 -1 -172.5 -1187)">
				<stop  offset="0" style="stop-color:#F8A164"/>
				<stop  offset="0.1" style="stop-color:#F8A469"/>
				<stop  offset="0.63" style="stop-color:#F7B37B"/>
				<stop  offset="1" style="stop-color:#F7B882"/>
			</linearGradient>
			<path class="st1" d="M189.4,94.4c-1.8,0-2-0.6-3.6-1.1c-1.4-0.4-4.5-1.6-6.1-2.1c-2.1-1.5,2.3-12.4,2.3-19
				c-0.5-2.3-0.7-8-0.6-10.5c0.1-2,3.2-22.1,4.1-26c0.3-1.1-8.8-2.9-11.9,0.3c-2.9,3,0.9,21.9,1.1,26c0.6,7.8-1.6,12.5-0.6,20.2
				c0.3,3.8-0.1,11.8,0.6,13.2c0.6,1.4,5.2,1.6,7.2,1.3c3.6-0.6,9.3,1.9,12.3-1.5C192.6,94.2,191,94.4,189.4,94.4z"/>
			
				<linearGradient id="SVGID_00000142876543047101912540000005558379305542312078_" gradientUnits="userSpaceOnUse" x1="341.6021" y1="-1262.505" x2="340.946" y2="-1252.6837" gradientTransform="matrix(1 0 0 -1 -172.5 -1187)">
				<stop  offset="0" style="stop-color:#355775"/>
				<stop  offset="3.000000e-02" style="stop-color:#345572"/>
				<stop  offset="0.22" style="stop-color:#2E4B66"/>
				<stop  offset="0.47" style="stop-color:#2B465E"/>
				<stop  offset="1" style="stop-color:#2A445C"/>
			</linearGradient>
			<path style="fill:url(#SVGID_00000142876543047101912540000005558379305542312078_);" d="M191.9,46.9c-0.7-3.1-3.4-6.9-7.5-6.8
				c-4.7,0-20.6,5.4-32,12.6c-0.4,5.4-7,11.3-8.5,16.5c6.2-1.3,24.2-5.4,37.7-16l0.6-0.5c0,1.1-0.1,2.6-0.3,4.2
				c0.5-0.1,7.3,0.8,10.2,0.2C192.2,52.2,192.2,48.3,191.9,46.9L191.9,46.9L191.9,46.9z"/>
			
				<linearGradient id="SVGID_00000163764412135386373880000007343524509349536928_" gradientUnits="userSpaceOnUse" x1="355.4229" y1="-1265.1554" x2="377.5776" y2="-1265.1554" gradientTransform="matrix(1 0 0 -1 -172.5 -1187)">
				<stop  offset="0" style="stop-color:#F8A164"/>
				<stop  offset="0.1" style="stop-color:#F8A469"/>
				<stop  offset="0.63" style="stop-color:#F7B37B"/>
				<stop  offset="1" style="stop-color:#F7B882"/>
			</linearGradient>
			<path style="fill:url(#SVGID_00000163764412135386373880000007343524509349536928_);" d="M203,96.9c-5.3,0-9.7-4.2-11.4-6.5
				s0.3-22.4,0.5-33.1c-2.9,0.6-9.7-0.3-10.2-0.2l0,0c-0.3,2.5-0.7,5.3-1,7.1c-0.2,3.4,0.6,6.6,1.6,10c3.9,13.1,1.8,18.3,1.8,18.3
				c-1,2.9,0.8,5.2,3,5.9c3.6,1.1,2.9,0,6.6,0.7C196,99.2,203.5,99.8,203,96.9L203,96.9L203,96.9z"/>
			<path class="st4" d="M188.4,23.4c-0.4,1-0.8,1.8-1,2.1l0,0c-0.6,0.9-1.9,1.9-3.6,2.1c-0.1-0.1-0.1-0.1-0.1-0.1
				c-4.7-0.4-10.4-0.9-17,0.4c-5.9,1.2-16.4,7.4-25.1,14.2c-7.2,5.6,8.9,17.5,9.5,17.2c4.2-2.3,10.5-5.9,14.8-6.9
				c2.1-0.5,5.3,0.9,7.5,0c1.1-0.4,1.3-2.4,2-3.6c0.4,6.6,2,14.9,2.1,17.5c0.6,7.8-1.6,12.5-0.6,20.2c0.3,3.8-0.1,11.8,0.6,13.2
				c0.6,1.4,5.2,1.6,7.2,1.3c3.6-0.6,9.3,1.9,12.3-1.5c-1.4-1.1-2.9-0.9-4.5-0.9c-1.8,0-2-0.6-3.6-1.1c-1.4-0.4-4.5-1.6-6.1-2.1
				c-2.1-1.5,2.3-12.4,2.3-19c-0.5-2.3-0.7-8-0.6-10.5c0.1-2,3.2-22.1,4.1-26v-0.1c0.2-0.6,0.2-1.3,0.2-1.9c1.6-1.2,3.4-2.5,3.8-2.7
				c0.5,1.1,1,2.2,1.3,2.6c0.9,1.1,1.7,0.4,2.5-0.3c0.4-0.4,0.9-0.7,1.5-0.4c0.3,0.1,0.4,0.3,0.7,0.3c0.2,0,0.4-0.1,0.5-0.3
				c0.2-0.3,0.1-0.6,0.3-0.2c0.2,0.3,0.7,0.2,1,0c0.4-0.3,0.1-0.9,1.1-0.6c0.2,0.1,0.5,0.2,0.7,0.2c0.3,0,0.5-0.2,0.6-0.4
				c0.2-0.7,0.4-1.5,0.7-2.2c0.1-0.2,0.2-0.4,0.3-0.6c0.1-0.1,0.1-0.1,0.2-0.2c0.2,0.4,0.9,0.6,1.4,0.5c-0.4-0.1-0.8-0.5-0.9-1
				c0.4-0.3,0.8-0.5,1.2-0.7c0.8-0.4,1.6-0.9,2.2-1.6c0.4-0.3,1.2-1.3,2-2.7C199.4,17.2,189.6,24,188.4,23.4L188.4,23.4L188.4,23.4z
				"/>
			<g>
				<path class="st5" d="M188.1,22.7c0.5-1.2,1.7-3.6,3.7-5.3c1.7-1.5,2.9-1.9,3.6-2c0.1,0,0.2,0,0.3,0c-0.4-0.6-1.1-2.2,0.3-3.9
					c0.9-1.1,2.7-1.9,4.8-2.2c2.6-0.4,6.2,0.2,7.4,2.9c0.4,1,0.4,1.9,0.1,2.6c0.1-0.1,0.3-0.2,0.4-0.2c0.6-0.2,1,0.2,1.1,0.6
					c0,0.2-0.1,0.5-0.5,0.6c-0.3,0.1-0.5,0.2-0.9,0.3c0.4,0,0.8,0.1,1.1,0.2c0.4,0.2,0.5,0.6,0.5,0.9c-0.1,0.4-0.4,0.6-0.8,0.3
					c-0.2-0.1-0.4-0.2-0.7-0.3c1.2,1.3,2.9,3.4,2.8,6.4c-0.1,1.8-0.5,4-2.1,5.5l-0.1,0.1l-0.1-0.1c-4.3-1-6.3-3.2-9.6-2.2l-0.1-0.3
					c0.7-0.5,0.5-1.4,0.4-1.8c-0.1-0.6-1.1-1.6-2.5-1.1c-2.1,0.8-3.2,3.4-3.2,3.4s-5.9-0.4-6.7-1.8L188.1,22.7L188.1,22.7
					L188.1,22.7L188.1,22.7z"/>
				<path class="st6" d="M210.1,17.1c-0.1,0.4-0.4,0.6-0.8,0.3c-0.2-0.1-0.4-0.2-0.7-0.3c0.1,0.1-7.4,2.5-13.6-1.6
					c0.1,0,0.2-0.1,0.3-0.1s0.1,0,0.1,0s0,0,0.1,0c10.6,3.7,12.8-0.8,12.8-0.7c0.1-0.1,0.3-0.2,0.4-0.2c0.6-0.2,1,0.2,1.1,0.6
					c0,0.2-0.1,0.5-0.5,0.6c-0.3,0.1-0.5,0.2-0.9,0.3c0.4,0,0.8,0.1,1.1,0.2C210.1,16.4,210.2,16.8,210.1,17.1L210.1,17.1
					L210.1,17.1z"/>
				<path class="st6" d="M205.5,33.8c0,0-1.3-0.5-2.2-2.1C202.7,30.5,202.7,34.3,205.5,33.8z"/>
				<path class="st7" d="M193.5,37.7c0,0-2.1-3.3-2.6-6.6C191.6,32.7,192.4,35,193.5,37.7z"/>
				<path class="st8" d="M196.4,34.2c-1.4-1.9,0.2-5,2.8-5C201.7,29.2,197.2,35.4,196.4,34.2z"/>
				<path class="st9" d="M175.1,33.2c-4.1-1.1-4.9-4.2-4.2-6c-0.5,0.1-8.6,1.4-11.5,3.2c-1.4,7.2,0.9,16.4,5.1,22.2
					c0.8,0.1,9.7,4.1,10.8-3.3c-4-2.1-5.3-7.1-1.8-9.4c3.4-2.2,11.9-3.2,15-0.2c0,0,0,0,0-0.1C190.2,35.4,178.8,34.3,175.1,33.2
					L175.1,33.2L175.1,33.2z"/>
				<path class="st10" d="M166,53c-0.1,0-0.1,0-0.2-0.1c-6.6-12.6-4.6-23.3-4.6-23.4c0-0.1,0.1-0.2,0.2-0.1s0.2,0.1,0.1,0.2
					c0,0.1-1.9,10.7,4.6,23.2C166.2,52.8,166.2,52.9,166,53C166.1,53,166,53,166,53L166,53L166,53z"/>
			</g>
			<path class="st11" d="M142.4,41.1c-1.9,0.9-5.1,2.5-5.8,2.7c-5.6,1.6-8.8,6.7-9.4,13.2c-4,4.6-20.5,18.5-23.8,23
				c-2.4,3.4-5.3,2.4-9.4,1.4c-0.8,3.8-1.3,7.6-1.2,11.4c0.4,0,0.9,0.1,1.3,0.1c7.2,0.7,12,1.1,18.3-2.9
				c7.1-2.6,27.6-11.6,37.6-29.1c2-1.5,1.8-1,4.7-2.8C146,51.3,143.1,42.4,142.4,41.1L142.4,41.1L142.4,41.1z"/>
			<path class="st4" d="M94.1,81.4c-1.2-0.3-2.5-0.6-3.9-0.7c-10-0.9-18.6,5.9-28.1,5.4c-2.9,0-5-2.9-7.5-2.9
				c-2.7-0.2-4.3,3.2-5.9,5c0,0-7.4,4.9-8,6.3c-0.5,1.3-0.8,3-0.2,3.5c4.3-4.3,10.9-5.2,16.8-5.2C69.1,92.6,81,92,92.8,92.9
				C92.7,89,93.2,85.2,94.1,81.4L94.1,81.4L94.1,81.4z"/>
		</g>
	</g>
</g>
</svg>
