<?xml version="1.0" encoding="utf-8"?>
<!-- Generator: Adobe Illustrator 26.5.0, SVG Export Plug-In . SVG Version: 6.00 Build 0)  -->
<svg version="1.1" id="Layer_1" xmlns="http://www.w3.org/2000/svg" xmlns:xlink="http://www.w3.org/1999/xlink" x="0px" y="0px"
	 viewBox="0 0 250 400" style="enable-background:new 0 0 250 400;" xml:space="preserve">
<style type="text/css">
	.st0{fill:#355775;}
	.st1{font-family:'FarmWaveFree-Regular';}
	.st2{font-size:19.4321px;}
	.st3{letter-spacing:1;}
	.st4{fill:#B2BCC4;}
	.st5{fill:url(#SVGID_1_);}
	.st6{fill:url(#SVGID_00000096772720273578107650000010682934179988382599_);}
	.st7{fill:url(#SVGID_00000052065559364653881770000010374525874561491122_);}
	.st8{fill:#F7B882;}
	.st9{fill:#905423;}
	.st10{fill:#46260F;}
	.st11{fill:#D09A6F;}
	.st12{fill:#F5B080;}
	.st13{fill:#FFFFFF;}
	.st14{fill:#D1E5FF;}
</style>
<g>
	<text transform="matrix(1 0 0 1 69.3018 359.4863)" class="st0 st1 st2 st3">High lunge ||</text>
	<g>
		<ellipse class="st4" cx="123.88" cy="323.21" rx="100.17" ry="6.31"/>
		<g>
			
				<linearGradient id="SVGID_1_" gradientUnits="userSpaceOnUse" x1="343.0776" y1="-1030.4399" x2="361.042" y2="-1031.0939" gradientTransform="matrix(1 0 0 -1 -172.5 -739)">
				<stop  offset="0" style="stop-color:#F8A164"/>
				<stop  offset="0.1" style="stop-color:#F8A469"/>
				<stop  offset="0.63" style="stop-color:#F7B37B"/>
				<stop  offset="1" style="stop-color:#F7B882"/>
			</linearGradient>
			<path class="st5" d="M184.37,320.36c-1.82-0.01-1.99-0.64-3.58-1.08c-1.43-0.35-4.51-1.56-6.15-2.13
				c-2.12-1.47,2.29-12.41,2.29-18.95c-0.51-2.27-0.73-7.95-0.65-10.45c0.13-2.03,3.2-22.15,4.08-25.97
				c0.27-1.14-8.75-2.94-11.92,0.33c-2.9,2.98,0.88,21.87,1.14,25.97c0.6,7.83-1.55,12.53-0.65,20.25
				c0.34,3.82-0.07,11.76,0.55,13.19c0.61,1.44,5.19,1.59,7.16,1.27c3.65-0.61,9.28,1.87,12.28-1.53
				C187.56,320.17,185.96,320.37,184.37,320.36z"/>
			
				<linearGradient id="SVGID_00000084500254005990656350000015469695587310422962_" gradientUnits="userSpaceOnUse" x1="336.5866" y1="-1040.5061" x2="335.9305" y2="-1030.6848" gradientTransform="matrix(1 0 0 -1 -172.5 -739)">
				<stop  offset="0" style="stop-color:#355775"/>
				<stop  offset="0.03" style="stop-color:#345572"/>
				<stop  offset="0.22" style="stop-color:#2E4B66"/>
				<stop  offset="0.47" style="stop-color:#2B465E"/>
				<stop  offset="1" style="stop-color:#2A445C"/>
			</linearGradient>
			<path style="fill:url(#SVGID_00000084500254005990656350000015469695587310422962_);" d="M186.88,272.92
				c-0.71-3.07-3.45-6.87-7.52-6.77c-4.73,0-20.6,5.37-31.99,12.63c-0.36,5.42-6.99,11.28-8.5,16.48
				c6.16-1.26,24.19-5.41,37.73-15.96l0.62-0.51c0,1.07-0.14,2.6-0.34,4.24c0.46-0.09,7.34,0.81,10.19,0.2
				C187.18,278.22,187.2,274.29,186.88,272.92L186.88,272.92L186.88,272.92z"/>
			
				<linearGradient id="SVGID_00000065789580280378160640000009208277329458632094_" gradientUnits="userSpaceOnUse" x1="350.4229" y1="-1043.0997" x2="372.5976" y2="-1043.0997" gradientTransform="matrix(1 0 0 -1 -172.5 -739)">
				<stop  offset="0" style="stop-color:#F8A164"/>
				<stop  offset="0.1" style="stop-color:#F8A469"/>
				<stop  offset="0.63" style="stop-color:#F7B37B"/>
				<stop  offset="1" style="stop-color:#F7B882"/>
			</linearGradient>
			<path style="fill:url(#SVGID_00000065789580280378160640000009208277329458632094_);" d="M197.99,322.85
				c-5.33,0-9.74-4.21-11.43-6.53c-1.69-2.33,0.33-22.42,0.53-33.09c-2.85,0.61-9.73-0.29-10.19-0.2l0,0
				c-0.3,2.52-0.74,5.29-1.02,7.08c-0.23,3.39,0.59,6.59,1.58,9.96c3.87,13.15,1.77,18.33,1.77,18.33
				c-0.99,2.94,0.79,5.21,2.96,5.89c3.55,1.13,2.9,0.02,6.65,0.69C191.02,325.2,198.48,325.79,197.99,322.85L197.99,322.85
				L197.99,322.85z"/>
			<path class="st8" d="M183.36,249.42c-0.44,1.02-0.77,1.81-0.98,2.14l0,0.01c-0.65,0.85-1.93,1.89-3.56,2.07
				c-0.07-0.07-0.11-0.1-0.12-0.1c-4.73-0.41-10.44-0.9-17.03,0.41c-5.92,1.18-16.44,7.37-25.14,14.18
				c-7.19,5.64,8.85,17.53,9.53,17.17c4.25-2.29,10.53-5.85,14.81-6.86c2.13-0.51,5.32,0.87,7.51,0c1.08-0.43,1.3-2.41,2-3.62
				c0.43,6.62,1.96,14.94,2.13,17.49c0.6,7.83-1.55,12.53-0.65,20.25c0.34,3.82-0.07,11.76,0.55,13.19
				c0.61,1.44,5.19,1.59,7.16,1.27c3.65-0.61,9.28,1.87,12.28-1.53c-1.35-1.08-2.95-0.89-4.54-0.9c-1.82-0.01-1.99-0.64-3.58-1.08
				c-1.43-0.35-4.51-1.56-6.15-2.13c-2.12-1.47,2.29-12.41,2.29-18.95c-0.51-2.27-0.73-7.95-0.65-10.45
				c0.13-2.03,3.2-22.15,4.08-25.97c0.01-0.03-0.02-0.06-0.02-0.08c0.17-0.63,0.24-1.28,0.23-1.93c1.65-1.22,3.42-2.5,3.81-2.7
				c0.46,1.12,0.96,2.22,1.27,2.63c0.85,1.08,1.68,0.37,2.52-0.34c0.44-0.38,0.93-0.66,1.5-0.36c0.29,0.15,0.38,0.31,0.72,0.34
				c0.22,0.01,0.39-0.14,0.51-0.29c0.23-0.27,0.05-0.56,0.32-0.21c0.21,0.28,0.73,0.17,0.97-0.05c0.37-0.33,0.13-0.86,1.11-0.62
				c0.25,0.06,0.48,0.19,0.73,0.24c0.27,0.05,0.47-0.17,0.55-0.41c0.23-0.72,0.36-1.46,0.66-2.16c0.11-0.2,0.21-0.4,0.31-0.56
				c0.05-0.08,0.11-0.14,0.17-0.21c0.18,0.35,0.88,0.6,1.36,0.5c-0.42-0.13-0.75-0.5-0.86-0.95c0.36-0.26,0.78-0.46,1.23-0.67
				c0.81-0.4,1.56-0.94,2.23-1.56c0.35-0.32,1.2-1.33,1.97-2.7C194.38,243.25,184.55,250.02,183.36,249.42L183.36,249.42
				L183.36,249.42z"/>
			<g>
				<path class="st9" d="M183.05,248.69c0.52-1.25,1.7-3.59,3.7-5.33c1.72-1.49,2.91-1.91,3.6-2.01c0.12-0.02,0.23-0.02,0.33-0.02
					c-0.4-0.63-1.1-2.18,0.3-3.89c0.92-1.12,2.7-1.95,4.76-2.24c2.64-0.36,6.17,0.17,7.41,2.88c0.44,0.96,0.36,1.9,0.15,2.62
					c0.15-0.1,0.3-0.17,0.45-0.21c0.55-0.17,1.03,0.18,1.09,0.55c0.04,0.21-0.07,0.48-0.47,0.56c-0.26,0.05-0.54,0.16-0.85,0.31
					c0.42,0,0.83,0.08,1.13,0.24c0.4,0.21,0.53,0.62,0.48,0.91c-0.07,0.4-0.45,0.56-0.83,0.31c-0.19-0.13-0.42-0.24-0.69-0.34
					c1.22,1.34,2.88,3.45,2.79,6.41c-0.05,1.79-0.49,4.03-2.06,5.46l-0.09,0.08l-0.1-0.08c-4.32-1.03-6.27-3.22-9.65-2.16l-0.1-0.26
					c0.68-0.54,0.48-1.39,0.39-1.78c-0.14-0.64-1.11-1.63-2.46-1.08c-2.05,0.83-3.18,3.35-3.18,3.35s-5.91-0.43-6.67-1.79l0.55-2.43
					L183.05,248.69L183.05,248.69L183.05,248.69z"/>
				<path class="st10" d="M205.13,243.06c-0.07,0.4-0.45,0.56-0.83,0.31c-0.19-0.13-0.42-0.24-0.69-0.34
					c0.07,0.08-7.44,2.49-13.58-1.61c0.12-0.03,0.22-0.05,0.32-0.06c0.05-0.01,0.09,0,0.14-0.01c0.02,0.01,0.04,0.02,0.06,0.03
					c10.56,3.71,12.78-0.78,12.75-0.67c0.15-0.1,0.3-0.17,0.45-0.21c0.55-0.17,1.03,0.18,1.09,0.55c0.04,0.21-0.07,0.48-0.47,0.56
					c-0.26,0.05-0.54,0.16-0.85,0.31c0.42,0,0.83,0.08,1.13,0.24C205.05,242.36,205.18,242.77,205.13,243.06L205.13,243.06
					L205.13,243.06z"/>
				<path class="st10" d="M200.48,259.78c0,0-1.34-0.53-2.21-2.14C197.66,256.52,197.68,260.33,200.48,259.78z"/>
				<path class="st11" d="M188.48,263.71c0,0-2.05-3.26-2.59-6.62C186.61,258.71,187.4,261,188.48,263.71z"/>
				<path class="st12" d="M191.36,260.2c-1.37-1.87,0.22-5.01,2.77-4.98C196.69,255.25,192.24,261.4,191.36,260.2z"/>
				<path class="st13" d="M170.08,259.23c-4.05-1.13-4.92-4.19-4.2-5.99c-0.47,0.08-8.55,1.35-11.49,3.15
					c-1.35,7.18,0.88,16.41,5.06,22.21c0.83,0.07,9.7,4.09,10.79-3.31c-4-2.1-5.3-7.11-1.8-9.4c3.35-2.19,11.95-3.25,14.96-0.21
					c0-0.03,0.01-0.05,0.02-0.08C185.25,261.38,173.77,260.26,170.08,259.23L170.08,259.23L170.08,259.23z"/>
				<path class="st14" d="M161,279c-0.07,0-0.14-0.04-0.17-0.1c-6.55-12.63-4.6-23.33-4.58-23.43c0.02-0.09,0.11-0.16,0.21-0.14
					c0.1,0.02,0.17,0.1,0.15,0.19c-0.02,0.11-1.94,10.7,4.55,23.23c0.04,0.08,0,0.18-0.09,0.22C161.05,279,161.02,279,161,279
					L161,279L161,279z"/>
			</g>
			<path class="st0" d="M137.36,267.12c-1.85,0.87-5.11,2.53-5.77,2.72c-5.62,1.65-8.78,6.74-9.36,13.17
				c-4,4.61-20.5,18.5-23.75,23.03c-2.45,3.42-5.32,2.36-9.42,1.39c-0.8,3.79-1.32,7.59-1.21,11.41c0.45,0.04,0.9,0.06,1.35,0.1
				c7.24,0.68,12,1.13,18.33-2.94c7.08-2.62,27.6-11.6,37.56-29.07c1.96-1.47,1.8-0.98,4.74-2.78
				C141.01,277.3,138.12,268.43,137.36,267.12L137.36,267.12L137.36,267.12z"/>
			<path class="st8" d="M89.05,307.44c-1.2-0.28-2.5-0.56-3.93-0.71c-9.96-0.91-18.56,5.88-28.06,5.43c-2.94,0-4.98-2.94-7.47-2.94
				c-2.72-0.22-4.3,3.17-5.88,4.98c0,0-7.44,4.91-8,6.26c-0.53,1.28-0.83,3.02-0.15,3.47c4.3-4.3,10.86-5.21,16.75-5.21
				c11.77-0.22,23.75-0.84,35.54,0.13C87.73,315.03,88.25,311.23,89.05,307.44L89.05,307.44L89.05,307.44z"/>
		</g>
	</g>
</g>
</svg>
