<?xml version="1.0" encoding="UTF-8"?>
<svg id="Layer_1" data-name="Layer 1" xmlns="http://www.w3.org/2000/svg" xmlns:xlink="http://www.w3.org/1999/xlink" viewBox="0 0 878.57 726.56">
  <defs>
    <style>
      .cls-1 {
        fill: none;
      }

      .cls-2 {
        letter-spacing: .05em;
      }

      .cls-3 {
        fill: url(#linear-gradient);
      }

      .cls-4 {
        fill: #f7b882;
      }

      .cls-5 {
        fill: #f5b780;
      }

      .cls-6 {
        fill: #f5b080;
      }

      .cls-7 {
        fill: #fff;
      }

      .cls-8 {
        fill: #905423;
      }

      .cls-9 {
        fill: #b2bcc4;
      }

      .cls-10 {
        fill: #d1e5ff;
      }

      .cls-11 {
        fill: #d09a6f;
      }

      .cls-12, .cls-13 {
        fill: #355775;
      }

      .cls-14 {
        fill: #838385;
      }

      .cls-15 {
        fill: #46260f;
      }

      .cls-16 {
        letter-spacing: .07em;
      }

      .cls-17 {
        fill: url(#linear-gradient-3);
      }

      .cls-18 {
        fill: url(#linear-gradient-4);
      }

      .cls-19 {
        fill: url(#linear-gradient-2);
      }

      .cls-20 {
        fill: url(#linear-gradient-5);
      }

      .cls-21 {
        opacity: .4;
      }

      .cls-13 {
        font-family: FarmWaveFree-Regular, 'Farm Wave Free';
        font-size: 85px;
        isolation: isolate;
      }
    </style>
    <linearGradient id="linear-gradient" x1="369.78" y1="494.15" x2="659.93" y2="494.15" gradientTransform="translate(4.12 950.03) rotate(.75) scale(.98 -.99) skewX(-.02)" gradientUnits="userSpaceOnUse">
      <stop offset="0" stop-color="#355775"/>
      <stop offset=".03" stop-color="#345572"/>
      <stop offset=".22" stop-color="#2e4b66"/>
      <stop offset=".47" stop-color="#2b465e"/>
      <stop offset="1" stop-color="#2a445c"/>
    </linearGradient>
    <linearGradient id="linear-gradient-2" x1="763.51" y1="581.32" x2="769.54" y2="536.07" gradientTransform="translate(4.12 950.03) rotate(.75) scale(.98 -.99) skewX(-.02)" gradientUnits="userSpaceOnUse">
      <stop offset="0" stop-color="#f8a164"/>
      <stop offset=".1" stop-color="#f8a469"/>
      <stop offset=".63" stop-color="#f7b37b"/>
      <stop offset="1" stop-color="#f7b882"/>
    </linearGradient>
    <linearGradient id="linear-gradient-3" x1="285.8" y1="440.32" x2="286.68" y2="506.7" gradientTransform="translate(0 965.8) scale(1 -1)" gradientUnits="userSpaceOnUse">
      <stop offset="0" stop-color="#f8a164"/>
      <stop offset=".1" stop-color="#f8a469"/>
      <stop offset=".63" stop-color="#f7b37b"/>
      <stop offset="1" stop-color="#f7b882"/>
    </linearGradient>
    <linearGradient id="linear-gradient-4" x1="375.97" y1="821.87" x2="666.11" y2="821.87" gradientTransform="translate(1098.41 1060.63) rotate(-76.57) scale(.98 -.99) skewX(-.02)" gradientUnits="userSpaceOnUse">
      <stop offset="0" stop-color="#355775"/>
      <stop offset=".03" stop-color="#345572"/>
      <stop offset=".22" stop-color="#2e4b66"/>
      <stop offset=".47" stop-color="#2b465e"/>
      <stop offset="1" stop-color="#2a445c"/>
    </linearGradient>
    <linearGradient id="linear-gradient-5" x1="769.7" y1="909.05" x2="775.73" y2="863.8" gradientTransform="translate(1098.41 1060.63) rotate(-76.57) scale(.98 -.99) skewX(-.02)" gradientUnits="userSpaceOnUse">
      <stop offset="0" stop-color="#f8a164"/>
      <stop offset=".1" stop-color="#f8a469"/>
      <stop offset=".63" stop-color="#f7b37b"/>
      <stop offset="1" stop-color="#f7b882"/>
    </linearGradient>
  </defs>
  <rect class="cls-1" y="643.97" width="878.57" height="82.55"/>
  <text class="cls-13" transform="translate(125.17 705.31)"><tspan class="cls-16" x="0" y="0">Double leg li</tspan><tspan class="cls-2" x="489.48" y="0">f</tspan><tspan class="cls-16" x="521.87" y="0">ts</tspan></text>
  <g>
    <g>
      <ellipse class="cls-9" cx="436.74" cy="543.8" rx="436.73" ry="29.17"/>
      <g>
        <path class="cls-3" d="M648.73,402.93s-23.67-.89-32.82-1.75c-9.16-.86-32.55,10.06-36.48,9.7-3.92-.37-47.24,3.56-89.12,9.99-49.15,7.55-105.01,24.05-116.9,24.26-1.19,.02-1.39,47.68-.97,82.44,43.52,15.36,71.09,15.02,137.15-34.99,24.5-18.55,80.86-40.28,105.99-44.86,10.42-1.9,22.56,4.04,40.36,2.26,4.3-30.52-7.21-47.05-7.21-47.05Z"/>
        <path class="cls-19" d="M864.85,364.67c-7.87,1.09-30.98,11.26-52.26,16.74-7.7,1.98-32.73,4.96-40.62,6.16-40.97,6.23-70.45,7.85-117.24,16.05-1.49,.26-3.33,.38-5.3,.46,2.39,4.13,10.08,19.81,6.55,45.57,7.77,.65,15.31,1.2,21.11,1.1,40.19-1.36,66.7-34.35,104.86-37.3,11.74-1.48,15.88,8.16,25.82,6.91,10.95-.46,17.35-11.89,22.3-16.6,17.89-17.02,34.53-15.63,35.95-24.19,1.91-11.54,4.74-15.72-1.17-14.9Z"/>
        <g>
          <path class="cls-4" d="M157.36,517.74c3.64-3.1,6.47-5.56,8.14-6.7,.52,.01,1.07,.05,1.6,.08,.25-1.96,31.99-.66,33.05-2.52,7.43-13.06,.77-27.34,0-41.23-.82-.09-35.59,5.13-36.21,5.03,.59-6.94,2.28-24.51,1.64-27.57-1.33-6.4-6.38-5.13-11.47-3.84-2.69,.67-5.36,.84-7.18-1.62-.92-1.27-.96-2.11-2.34-2.96-.89-.52-1.96-.2-2.8,.18-1.53,.68-1.41,2.3-1.82,.24-.3-1.63-2.75-2.24-4.27-1.82-2.25,.63-2.35,3.39-6.03,.32-.94-.8-1.64-1.84-2.62-2.59-1.06-.81-2.38-.26-3.23,.6-2.49,2.59-4.6,5.47-7.36,7.82-.88,.65-1.76,1.25-2.52,1.76-.39,.21-.77,.38-1.17,.54-.03-1.87-2.49-4.4-4.75-5,1.49,1.45,2.13,3.72,1.66,5.85-2.08,.34-4.31,.3-6.64,.29-4.32,0-8.65,.71-12.81,1.95-2.18,.62-7.92,3.15-14.08,7.41,21.2,66.97,77.41,58.74,81.21,63.78Z"/>
          <g>
            <path class="cls-8" d="M157.16,521.53c-4.86,4.22-14.82,11.76-27.01,14.95-10.48,2.73-16.44,2.05-19.59,1-.53-.18-1.03-.38-1.46-.6,.38,3.52,.1,11.63-9.48,15.98-6.28,2.83-15.63,2.66-25-.46-12.04-4.01-25.96-13.72-25.56-27.87,.15-5.02,2.45-8.85,4.84-11.48-.85,.09-1.65,.08-2.38-.03-2.71-.41-4.02-2.94-3.52-4.63,.28-.96,1.29-1.92,3.19-1.42,1.21,.31,2.66,.47,4.29,.46-1.8-.86-3.36-2.07-4.32-3.39-1.27-1.75-.95-3.77-.12-4.9,1.13-1.54,3.12-1.44,4.19,.41,.54,.93,1.28,1.9,2.22,2.9-2.36-8.29-5.02-20.79,1.58-33.23,4-7.54,10.58-16.17,20.27-18.98l.58-.17,.24,.56c16.26,13.47,19.97,26.93,36.64,29.53l-.1,1.31c-4.05,.88-4.95,4.92-5.41,6.8-.75,3.02,1.3,9.28,8.23,9.8,10.5,.78,20.6-7.61,20.6-7.61,0,0,24.33,14.26,24.7,21.7l-7.45,9.25-.17,.12Z"/>
            <path class="cls-15" d="M51.04,499.12c1.13-1.54,3.12-1.44,4.19,.41,.54,.93,1.28,1.9,2.22,2.9-.13-.46,37.01,5.05,54.59,35.46-.56-.12-1.05-.26-1.49-.41-.22-.07-.4-.17-.61-.25-.08-.08-.12-.17-.19-.25-37.27-38.03-56.19-23.58-55.85-23.95-.85,.09-1.65,.08-2.38-.03-2.71-.41-4.02-2.94-3.52-4.63,.28-.96,1.29-1.92,3.19-1.42,1.21,.31,2.66,.47,4.29,.46-1.8-.86-3.36-2.07-4.32-3.39-1.27-1.75-.95-3.77-.12-4.9Z"/>
            <path class="cls-15" d="M106.1,437.51s4.59,5.08,4.91,13.78c.22,6.09,8.16-10.24-4.91-13.78Z"/>
            <path class="cls-11" d="M165.59,445.99s1.9,18.23-2.88,33.69c.32-8.43,1.79-19.87,2.88-33.69Z"/>
            <path class="cls-6" d="M145.9,454.93c1.93,10.87-11.49,20.94-22.32,15.42-10.83-5.51,21.08-22.42,22.32-15.42Z"/>
          </g>
        </g>
        <path class="cls-17" d="M260.44,439.74l-.93-.27c-12.36-22.2-36.69-20.33-53.33,.75-15.09,19.11-18.78,23.22-29.61,34.3,5.7,57.75,184.45,51.14,194.55,56.22,6.64,.23,8.5-.5,9.05,0,4.46-25.09,4-62.32,16.59-84.48-49.78,4.51-117.54-7.59-136.32-6.52Z"/>
        <path class="cls-7" d="M278.34,440.21c-5.66-1.51-12.04-.81-17.9-.47l-.93-.27c-7.07-19.37-26.3-20.12-40.38-12.08-8.3,19.03-13.95,36.96-38.09,51.04,18.79-1.36,45.71-2.96,52.56,15.9,8.03,22.1-14.58,39.2-35.24,48.51,22.6-1.13,50.92-6.53,76.31-10.79,2.61-30.74,6.58-57.61,3.67-91.84Z"/>
        <path class="cls-10" d="M272.8,483.45c-1.17,25.77-3.71,50.18-3.75,50.57-.05,.41-.42,.71-.83,.67-.42-.05-.7-.39-.67-.83,.07-.63,6.59-63.09,3.5-93.6-.04-.45,.26-.78,.67-.82,.41-.04,.78,.26,.82,.67,1.18,11.58,.97,27.71,.26,43.34Z"/>
        <path class="cls-12" d="M653.81,407.9s-24.16-1.2-33.5-2.18c-9.34-.98-33.37,9.79-37.37,9.37s-48.28,3.02-91.14,9.02c-50.29,7.04-107.53,23.06-119.68,23.13-1.21,.01-2.01,48.28-2.01,83.47,44.25,16.09,72.41,16.09,140.49-33.75,25.25-18.49,83.07-39.79,108.79-44.13,10.67-1.8,22.98,4.37,41.19,2.78,4.77-30.82-6.77-47.71-6.77-47.71Z"/>
        <path class="cls-5" d="M874.98,371.82c-8.05,1.01-31.78,11.02-53.58,16.31-7.88,1.91-33.48,4.62-41.56,5.74-41.91,5.81-72.04,7.08-119.92,14.8-1.53,.25-3.41,.34-5.42,.4,2.39,4.22,10.05,20.19,6.12,46.23,7.93,.76,15.62,1.41,21.55,1.37,41.06-.88,68.54-33.96,107.55-36.49,12.01-1.35,16.12,8.46,26.28,7.32,11.19-.33,17.86-11.83,22.98-16.54,18.48-17.02,35.46-15.4,37.01-24.06,2.09-11.64,5.03-15.84-1.01-15.08Z"/>
        <g class="cls-21">
          <path class="cls-18" d="M392.84,230.7s-6.07,22.89-8.91,31.64c-2.85,8.75,2.67,33.97,1.45,37.72s-6.89,46.87-9.81,89.14c-3.42,49.61,.41,107.73-1.99,119.38-.24,1.16,46.22,11.82,80.21,19.04,24.54-39.09,30.26-66.06-4.04-141.49-12.72-27.98-21.55-87.73-20.5-113.25,.43-10.59,8.9-21.12,11.06-38.88-28.82-10.9-47.47-3.3-47.47-3.3Z"/>
          <path class="cls-20" d="M402.95,11.45c-.66,7.91,4.18,32.7,4.86,54.66,.24,7.94-2.35,33.02-2.91,40.98-2.91,41.34-7.81,70.45-10.08,117.9-.07,1.52-.36,3.34-.71,5.27,4.56-1.43,21.54-5.49,45.89,3.62,2.35-7.44,4.53-14.67,5.71-20.36,7.5-39.51-18.87-72.61-13.38-110.49,1.14-11.78,11.45-13.7,12.41-23.67,1.96-10.79-7.8-19.53-11.3-25.4-12.68-21.19-7.67-37.12-15.71-40.38-10.83-4.39-14.28-8.07-14.78-2.13Z"/>
          <path class="cls-12" d="M398.81,226.84s-6.47,23.31-9.48,32.2c-3.01,8.9,2.23,34.7,.94,38.52-1.29,3.81-7.65,47.77-11.2,90.89-4.17,50.61-1.1,109.97-3.7,121.84-.26,1.19,46.66,12.56,81,20.29,25.41-39.64,31.59-67.11-2.09-144.47-12.49-28.69-20.59-89.78-19.17-115.82,.59-10.8,9.31-21.46,11.76-39.57-29.06-11.43-48.06-3.88-48.06-3.88Z"/>
          <path class="cls-5" d="M412.15,3.14c-.78,8.07,3.78,33.43,4.15,55.85,.14,8.11-2.85,33.68-3.53,41.81-3.53,42.17-8.91,71.84-11.88,120.25-.1,1.55-.41,3.4-.8,5.37,4.64-1.41,21.91-5.37,46.44,4.18,2.48-7.57,4.8-14.93,6.07-20.72,8.15-40.25-18.09-74.32-11.99-112.93,1.32-12.02,11.8-13.87,12.91-24.03,2.13-10.99-7.62-20.02-11.09-26.05-12.54-21.76-7.24-37.98-15.35-41.39-10.9-4.61-14.34-8.4-14.93-2.34Z"/>
        </g>
        <path class="cls-4" d="M177.03,488.57c-7.11,10.89-3.46,41.9,11.22,51.28,10.89,6.96,63.43,4.75,122.52,4.95,37.19,10.05,89.43-4.43,124.9,3.05,0,0,15.42,8.96,40.96,8.52,5.75-.1,25.73-2.52,35.78-4.53,10.06-2.01-28.7-13.65-32.18-14.08,0,0-27.37-10.35-34.19-9.05-6.82,1.31-107.1-11.16-127.22-14.08-8.21-2.57-55.46-16.17-60.34-17.1-19.63-2.21-66.34-9.14-66.35-8.68-4.53-.43-9.4-.82-14.62-1.2-.17,.31-.28,.62-.48,.92Z"/>
      </g>
    </g>
    <path class="cls-14" d="M742.68,309.36c-.68-.21-1.41,.16-1.63,.85l-3.81,12.1c-14.08-87.13-63.42-132.48-102.59-155.16-33.51-19.4-65.33-25.96-77.86-27.93l10.79-3.07c.69-.2,1.09-.91,.89-1.6s-.91-1.1-1.6-.89l-16.61,4.72c-.48,.13-.84,.53-.92,1.02-.09,.49,.11,.99,.52,1.28l14.87,10.76c.23,.16,.5,.25,.76,.25,.4,0,.8-.18,1.05-.54,.42-.58,.29-1.39-.29-1.81l-10.58-7.65c26.44,4.12,154.93,31.81,179.02,181.08l-6.57-9.64c-.4-.6-1.21-.73-1.8-.34-.59,.4-.74,1.21-.34,1.8l9.73,14.27c.24,.36,.65,.57,1.07,.57,.06,0,.13,0,.19-.02,.49-.07,.9-.42,1.05-.89l5.51-17.51c.21-.71-.17-1.43-.85-1.65Z"/>
  </g>
</svg>