<?xml version="1.0" encoding="utf-8"?>
<!-- Generator: Adobe Illustrator 26.5.0, SVG Export Plug-In . SVG Version: 6.00 Build 0)  -->
<svg version="1.1" id="Layer_1" xmlns="http://www.w3.org/2000/svg" xmlns:xlink="http://www.w3.org/1999/xlink" x="0px" y="0px"
	 viewBox="0 0 250 400" style="enable-background:new 0 0 250 400;" xml:space="preserve">
<style type="text/css">
	.st0{fill:#355775;}
	.st1{font-family:'FarmWaveFree-Regular';}
	.st2{font-size:18.1772px;}
	.st3{letter-spacing:1;}
	.st4{fill:#B2BCC4;}
	.st5{fill:url(#SVGID_1_);}
	.st6{fill:#F7B882;}
	.st7{fill:url(#SVGID_00000075139887739198005570000018005508476777387679_);}
	.st8{fill:#FFFFFF;}
	.st9{fill:#905423;}
	.st10{fill:#46260F;}
	.st11{fill:#D1E5FF;}
</style>
<g>
	<text transform="matrix(1 0 0 1 80.7256 365.7734)" class="st0 st1 st2 st3">Plow pose</text>
	<g>
		<path class="st4" d="M223.71,329.54c0-3.57-44.69-6.46-99.81-6.46s-99.81,2.89-99.81,6.46c0,3.57,44.69,6.46,99.81,6.46
			S223.71,333.11,223.71,329.54z"/>
		<g>
			
				<linearGradient id="SVGID_1_" gradientUnits="userSpaceOnUse" x1="351.3442" y1="255.9704" x2="358.0311" y2="271.3506" gradientTransform="matrix(1 0 0 -1 -172.5 579)">
				<stop  offset="0" style="stop-color:#F8A164"/>
				<stop  offset="0.1" style="stop-color:#F8A469"/>
				<stop  offset="0.63" style="stop-color:#F7B37B"/>
				<stop  offset="1" style="stop-color:#F7B882"/>
			</linearGradient>
			<path class="st5" d="M203.62,321.8c-2.38-1.72-3.97-3.19-6.91-3.66c-1.78-0.29-19.77-1.36-25.62-2.06
				c-0.69-0.08-11.84-1.38-20.29-2.3c-0.75,3.34-1.99,6.53-3.04,9.78c6.49-0.03,13.19-0.13,17.44-0.23
				c12.63,2.62,27.29-3.19,31.2-0.57c0,0,5.06,1.59,8.26,2.27c1.38,0.29,5.02,0.44,5.15,0.2
				C211.52,324.08,205.16,322.91,203.62,321.8L203.62,321.8z"/>
			<path class="st6" d="M209.42,325.58c-2.38-1.72-3.97-3.19-6.91-3.66c-1.99-0.32-24.28-1.63-27.13-2.29
				c-0.05,0.07-0.13,0.14-0.19,0.2c-0.81-0.25-1.4-0.44-1.41-0.44c-0.02,0-10.65-1.12-19.83-2.12c3.82-14.02,6.54-36.02-2.02-49.84
				c-1.45-2.33-9.29,9.19-15.38,10.05c1.72,3,2.92,4.94,2.23,7.36c-1.34,4.68-6.32,11.75-6.02,14.71c0,0-2.67,20.73,2.73,27.42
				c4.2,0.61,26,0.35,35.51,0.14c12.63,2.62,27.29-3.19,31.2-0.57c0,0,5.06,1.59,8.26,2.27c1.38,0.29,5.02,0.44,5.15,0.2
				C217.31,327.87,210.96,326.7,209.42,325.58L209.42,325.58z"/>
			
				<linearGradient id="SVGID_00000018947083015948533970000001057090122273691327_" gradientUnits="userSpaceOnUse" x1="292.5227" y1="258.6609" x2="311.8314" y2="258.6609" gradientTransform="matrix(1 0 0 -1 -172.5 579)">
				<stop  offset="0" style="stop-color:#F8A164"/>
				<stop  offset="0.1" style="stop-color:#F8A469"/>
				<stop  offset="0.63" style="stop-color:#F7B37B"/>
				<stop  offset="1" style="stop-color:#F7B882"/>
			</linearGradient>
			<path style="fill:url(#SVGID_00000018947083015948533970000001057090122273691327_);" d="M134.09,317.39
				c-1.91-1.54-9.95-2.18-11.65-3.96c-1.03,3.38-4.01,8.03-1.34,11.87c6.69-1.34,12.04,3.01,18.22,1.67
				C138.64,325.23,135.26,318.89,134.09,317.39L134.09,317.39z"/>
			<g>
				<path class="st6" d="M44.76,313.39c-1.72-1.61-3.46-3.52-5.83-1.88c-2.84,1.97-2.07,5.02-3.6,7.3
					c-2.89,4.32-4.11,11.98-1.32,12.85h2.24c1.57-0.64-1.36-3.89-0.67-4.69c5.83-6.82,41.37-20.41,44.36-21.92
					c-0.2-0.18-0.37-0.42-0.45-0.74c-0.8-3.02-1.7-6.01-2.66-8.99c-2.44,0.97-7.01,1.36-9.43,2.49
					c-7.26,3.41-14.29,11.57-21.29,15.3C45.41,313.35,44.86,313.49,44.76,313.39z"/>
				<path class="st0" d="M86.2,289.82c-3.12,3.04-7.03,4.61-11.03,6.15c1.05,2.96,2.23,6.54,3.91,9.52
					c2.79-1.47,5.68-2.73,8.96-3.52c3.86-0.82,23.04-8.2,34.73-13.92c13.67-6.69,29.77-14.45,31.6-17.14
					c-0.9-5.33-6.1-9.49-10.09-11.3c-5.16-2.34-14.12-1.71-20.17,8.1C113.57,274.05,90.22,285.84,86.2,289.82L86.2,289.82z"/>
			</g>
			<path class="st8" d="M136.15,327.31c-3.01-5.01-2.5-12.62,5.74-14.16c6.76-1.26,11.7,4.68,12.04,4.68
				c0.22-2.9,2.23-10.25,2.9-14.71c-4.24-2.01-16.3-6.34-23.85-5.35C127.4,303.13,119.16,315.61,136.15,327.31L136.15,327.31z"/>
			<g>
				<path class="st6" d="M124.6,311.18c-0.32-0.71-1.25-0.72-2.18-0.72c-0.62,0-1.22-0.12-1.48-0.75c-0.13-0.33-0.09-0.52-0.35-0.78
					c-0.17-0.16-0.42-0.15-0.62-0.12c-0.37,0.06-0.44,0.42-0.41-0.05c0.02-0.37-0.47-0.64-0.83-0.64c-0.53,0.01-0.7,0.61-1.33-0.27
					c-0.16-0.23-0.26-0.49-0.43-0.71c-0.19-0.24-0.5-0.19-0.74-0.05c-0.69,0.43-1.31,0.94-2.04,1.3c-0.23,0.09-0.45,0.17-0.65,0.24
					c-0.1,0.02-0.19,0.04-0.28,0.05c0.1-0.41-0.3-1.1-0.76-1.36c0.25,0.4,0.26,0.93,0.04,1.37c-0.47-0.04-0.96-0.17-1.47-0.31
					c-0.94-0.24-1.93-0.33-2.91-0.29c-0.51,0.01-1.9,0.25-3.49,0.83c0.89,15.82,10.15,14.39,10.7,15.7c0.18-0.09,7.21-1.67,7.8-3.23
					C125.3,315.8,124.67,311.33,124.6,311.18L124.6,311.18z"/>
				<g>
					<path class="st9" d="M118.6,328.23c-1.3,0.65-3.89,1.74-6.73,1.76c-2.44,0.01-3.71-0.47-4.34-0.87
						c-0.11-0.07-0.2-0.14-0.29-0.21c-0.11,0.79-0.63,2.55-2.96,2.96c-1.53,0.27-3.56-0.29-5.43-1.5c-2.41-1.55-4.91-4.44-4.03-7.51
						c0.31-1.09,1.03-1.8,1.7-2.24c-0.19-0.03-0.37-0.07-0.52-0.14c-0.57-0.24-0.72-0.87-0.51-1.21c0.12-0.2,0.39-0.35,0.77-0.13
						c0.25,0.14,0.56,0.25,0.91,0.34c-0.35-0.29-0.62-0.64-0.75-0.98c-0.18-0.45,0-0.88,0.25-1.08c0.33-0.27,0.76-0.14,0.89,0.32
						c0.07,0.23,0.17,0.49,0.32,0.76c-0.05-1.94,0.06-4.82,2.2-7.17c1.29-1.42,3.21-2.94,5.49-3.02l0.14,0l0.02,0.13
						c2.8,3.85,2.86,7,6.36,8.49l-0.09,0.28c-0.93-0.03-1.35,0.8-1.56,1.18c-0.33,0.62-0.23,2.1,1.25,2.6
						c2.25,0.76,4.92-0.51,4.92-0.51s5.95,3.18,5.62,4.83l-3.58,2.9L118.6,328.23L118.6,328.23z"/>
					<path class="st10" d="M96.66,317.41c0.33-0.27,0.76-0.14,0.89,0.32c0.07,0.23,0.17,0.49,0.32,0.76c0-0.11,7.8,3.17,9.95,10.79
						c-0.11-0.06-0.22-0.12-0.3-0.17c-0.05-0.03-0.08-0.06-0.12-0.09c-0.01-0.02-0.02-0.04-0.03-0.07
						c-6.02-10.39-10.96-8.28-10.87-8.35c-0.19-0.03-0.37-0.07-0.52-0.14c-0.57-0.24-0.72-0.87-0.51-1.21
						c0.12-0.2,0.39-0.35,0.77-0.13c0.25,0.14,0.56,0.25,0.91,0.34c-0.35-0.29-0.62-0.64-0.75-0.98
						C96.24,318.04,96.42,317.62,96.66,317.41L96.66,317.41z"/>
					<path class="st10" d="M112.13,307.02c0,0,0.72,1.37,0.3,3.29C112.14,311.65,114.79,308.53,112.13,307.02z"/>
					<path class="st6" d="M124.65,312.2c0,0-0.6,4.09-2.51,7.2C122.68,317.57,123.64,315.15,124.65,312.2z"/>
				</g>
			</g>
			<path class="st11" d="M156.38,305.08c-0.02,0-0.04,0-0.06-0.01c-8.49-3.44-14.81-4.77-18.61-5.28c-4.12-0.55-6.25-0.28-6.28-0.28
				c-0.11,0.01-0.17-0.05-0.19-0.15c-0.01-0.09,0.05-0.17,0.14-0.19c0.09-0.01,2.19-0.27,6.34,0.28c3.82,0.51,10.17,1.84,18.71,5.31
				c0.09,0.03,0.13,0.13,0.09,0.22C156.51,305.04,156.45,305.08,156.38,305.08z"/>
		</g>
	</g>
</g>
</svg>
