<?xml version="1.0" encoding="utf-8"?>
<!-- Generator: Adobe Illustrator 26.5.0, SVG Export Plug-In . SVG Version: 6.00 Build 0)  -->
<svg version="1.1" id="Layer_1" xmlns="http://www.w3.org/2000/svg" xmlns:xlink="http://www.w3.org/1999/xlink" x="0px" y="0px"
	 viewBox="0 0 250 86" style="enable-background:new 0 0 250 86;" xml:space="preserve">
<style type="text/css">
	.st0{fill:#B2BCC4;}
	.st1{fill:url(#SVGID_1_);}
	.st2{fill:#F7B882;}
	.st3{fill:url(#SVGID_00000011710670314469711930000012441402033400921246_);}
	.st4{fill:#355775;}
	.st5{fill:#FFFFFF;}
	.st6{fill:#905423;}
	.st7{fill:#46260F;}
	.st8{fill:#D1E5FF;}
</style>
<g>
	<g>
		<path class="st0" d="M223.7,79.5c0-3.6-44.7-6.5-99.8-6.5s-99.8,2.9-99.8,6.5S68.8,86,123.9,86S223.7,83.1,223.7,79.5z"/>
		<g>
			
				<linearGradient id="SVGID_1_" gradientUnits="userSpaceOnUse" x1="351.3208" y1="5.9805" x2="358.0077" y2="21.3607" gradientTransform="matrix(1 0 0 -1 -172.5 79)">
				<stop  offset="0" style="stop-color:#F8A164"/>
				<stop  offset="0.1" style="stop-color:#F8A469"/>
				<stop  offset="0.63" style="stop-color:#F7B37B"/>
				<stop  offset="1" style="stop-color:#F7B882"/>
			</linearGradient>
			<path class="st1" d="M203.6,71.8c-2.4-1.7-4-3.2-6.9-3.7c-1.8-0.3-19.8-1.4-25.6-2.1c-0.7-0.1-11.8-1.4-20.3-2.3
				c-0.8,3.3-2,6.5-3,9.8c6.5,0,13.2-0.1,17.4-0.2c12.6,2.6,27.3-3.2,31.2-0.6c0,0,5.1,1.6,8.3,2.3c1.4,0.3,5,0.4,5.1,0.2
				C211.5,74.1,205.2,72.9,203.6,71.8L203.6,71.8z"/>
			<path class="st2" d="M209.4,75.6c-2.4-1.7-4-3.2-6.9-3.7c-2-0.3-24.3-1.6-27.1-2.3c-0.1,0.1-0.1,0.1-0.2,0.2
				c-0.8-0.2-1.4-0.4-1.4-0.4s-10.6-1.1-19.8-2.1c3.8-14,6.5-36-2-49.8c-1.4-2.3-9.3,9.2-15.4,10c1.7,3,2.9,4.9,2.2,7.4
				c-1.3,4.7-6.3,11.8-6,14.7c0,0-2.7,20.7,2.7,27.4c4.2,0.6,26,0.4,35.5,0.1c12.6,2.6,27.3-3.2,31.2-0.6c0,0,5.1,1.6,8.3,2.3
				c1.4,0.3,5,0.4,5.1,0.2C217.3,77.9,211,76.7,209.4,75.6L209.4,75.6z"/>
			
				<linearGradient id="SVGID_00000016762038753291625450000003702481252569096068_" gradientUnits="userSpaceOnUse" x1="292.5009" y1="8.6761" x2="311.8" y2="8.6761" gradientTransform="matrix(1 0 0 -1 -172.5 79)">
				<stop  offset="0" style="stop-color:#F8A164"/>
				<stop  offset="0.1" style="stop-color:#F8A469"/>
				<stop  offset="0.63" style="stop-color:#F7B37B"/>
				<stop  offset="1" style="stop-color:#F7B882"/>
			</linearGradient>
			<path style="fill:url(#SVGID_00000016762038753291625450000003702481252569096068_);" d="M134.1,67.4c-1.9-1.5-9.9-2.2-11.7-4
				c-1,3.4-4,8-1.3,11.9c6.7-1.3,12,3,18.2,1.7C138.6,75.2,135.3,68.9,134.1,67.4L134.1,67.4z"/>
			<g>
				<path class="st2" d="M44.8,63.4c-1.7-1.6-3.5-3.5-5.8-1.9c-2.8,2-2.1,5-3.6,7.3c-2.9,4.3-4.1,12-1.3,12.9h2.2
					c1.6-0.6-1.4-3.9-0.7-4.7C41.4,70.2,77,56.6,80,55.1c-0.2-0.2-0.4-0.4-0.4-0.7c-0.8-3-1.7-6-2.7-9c-2.4,1-7,1.4-9.4,2.5
					c-7.3,3.4-14.3,11.6-21.3,15.3C45.4,63.4,44.9,63.5,44.8,63.4z"/>
				<path class="st4" d="M86.2,39.8c-3.1,3-7,4.6-11,6.1c1.1,3,2.2,6.5,3.9,9.5c2.8-1.5,5.7-2.7,9-3.5c3.9-0.8,23-8.2,34.7-13.9
					c13.7-6.7,29.8-14.5,31.6-17.1c-0.9-5.3-6.1-9.5-10.1-11.3c-5.2-2.3-14.1-1.7-20.2,8.1C113.6,24,90.2,35.8,86.2,39.8L86.2,39.8z
					"/>
			</g>
			<path class="st5" d="M136.1,77.3c-3-5-2.5-12.6,5.7-14.2c6.8-1.3,11.7,4.7,12,4.7c0.2-2.9,2.2-10.2,2.9-14.7
				c-4.2-2-16.3-6.3-23.9-5.4C127.4,53.1,119.2,65.6,136.1,77.3L136.1,77.3z"/>
			<g>
				<path class="st2" d="M124.6,61.2c-0.3-0.7-1.2-0.7-2.2-0.7c-0.6,0-1.2-0.1-1.5-0.8c-0.1-0.3-0.1-0.5-0.3-0.8
					c-0.2-0.2-0.4-0.1-0.6-0.1c-0.4,0.1-0.4,0.4-0.4,0s-0.5-0.6-0.8-0.6c-0.5,0-0.7,0.6-1.3-0.3c-0.2-0.2-0.3-0.5-0.4-0.7
					c-0.2-0.2-0.5-0.2-0.7,0c-0.7,0.4-1.3,0.9-2,1.3c-0.2,0.1-0.4,0.2-0.7,0.2c-0.1,0-0.2,0-0.3,0c0.1-0.4-0.3-1.1-0.8-1.4
					c0.2,0.4,0.3,0.9,0,1.4c-0.5,0-1-0.2-1.5-0.3c-0.9-0.2-1.9-0.3-2.9-0.3c-0.5,0-1.9,0.2-3.5,0.8c0.9,15.8,10.2,14.4,10.7,15.7
					c0.2-0.1,7.2-1.7,7.8-3.2C125.3,65.8,124.7,61.3,124.6,61.2L124.6,61.2z"/>
				<g>
					<path class="st6" d="M118.6,78.2c-1.3,0.6-3.9,1.7-6.7,1.8c-2.4,0-3.7-0.5-4.3-0.9c-0.1-0.1-0.2-0.1-0.3-0.2
						c-0.1,0.8-0.6,2.5-3,3c-1.5,0.3-3.6-0.3-5.4-1.5c-2.4-1.5-4.9-4.4-4-7.5c0.3-1.1,1-1.8,1.7-2.2c-0.2,0-0.4-0.1-0.5-0.1
						c-0.6-0.2-0.7-0.9-0.5-1.2c0.1-0.2,0.4-0.4,0.8-0.1c0.2,0.1,0.6,0.2,0.9,0.3c-0.3-0.3-0.6-0.6-0.8-1c-0.2-0.5,0-0.9,0.2-1.1
						c0.3-0.3,0.8-0.1,0.9,0.3c0.1,0.2,0.2,0.5,0.3,0.8c-0.1-1.9,0.1-4.8,2.2-7.2c1.3-1.4,3.2-2.9,5.5-3h0.1v0.1
						c2.8,3.9,2.9,7,6.4,8.5l-0.1,0.3c-0.9,0-1.3,0.8-1.6,1.2c-0.3,0.6-0.2,2.1,1.2,2.6c2.2,0.8,4.9-0.5,4.9-0.5s5.9,3.2,5.6,4.8
						L118.6,78.2L118.6,78.2L118.6,78.2z"/>
					<path class="st7" d="M96.7,67.4c0.3-0.3,0.8-0.1,0.9,0.3c0.1,0.2,0.2,0.5,0.3,0.8c0-0.1,7.8,3.2,9.9,10.8
						c-0.1-0.1-0.2-0.1-0.3-0.2c-0.1,0-0.1-0.1-0.1-0.1s0,0,0-0.1c-6-10.4-11-8.3-10.9-8.4c-0.2,0-0.4-0.1-0.5-0.1
						c-0.6-0.2-0.7-0.9-0.5-1.2c0.1-0.2,0.4-0.4,0.8-0.1c0.2,0.1,0.6,0.2,0.9,0.3c-0.3-0.3-0.6-0.6-0.8-1
						C96.2,68,96.4,67.6,96.7,67.4L96.7,67.4z"/>
					<path class="st7" d="M112.1,57c0,0,0.7,1.4,0.3,3.3C112.1,61.6,114.8,58.5,112.1,57z"/>
					<path class="st2" d="M124.7,62.2c0,0-0.6,4.1-2.5,7.2C122.7,67.6,123.6,65.1,124.7,62.2z"/>
				</g>
			</g>
			<path class="st8" d="M156.4,55.1C156.4,55.1,156.3,55.1,156.4,55.1c-8.6-3.5-14.9-4.8-18.7-5.3c-4.1-0.5-6.2-0.3-6.3-0.3
				s-0.2,0-0.2-0.1s0.1-0.2,0.1-0.2c0.1,0,2.2-0.3,6.3,0.3c3.8,0.5,10.2,1.8,18.7,5.3c0.1,0,0.1,0.1,0.1,0.2
				C156.5,55,156.4,55.1,156.4,55.1z"/>
		</g>
	</g>
</g>
</svg>
