<?xml version="1.0" encoding="UTF-8"?>
<svg id="Layer_1" data-name="Layer 1" xmlns="http://www.w3.org/2000/svg" xmlns:xlink="http://www.w3.org/1999/xlink" viewBox="0 0 878.58 492.27">
  <defs>
    <style>
      .cls-1 {
        font-family: FarmWaveFree-Regular, 'Farm Wave Free';
        font-size: 80px;
        isolation: isolate;
        letter-spacing: .1em;
      }

      .cls-1, .cls-2 {
        fill: #355775;
      }

      .cls-3 {
        fill: url(#linear-gradient);
      }

      .cls-4 {
        fill: #f7b882;
      }

      .cls-5 {
        fill: #fff;
      }

      .cls-6 {
        fill: #905423;
      }

      .cls-7 {
        fill: #b2bcc4;
      }

      .cls-8 {
        fill: #d1e5ff;
      }

      .cls-9 {
        fill: #46260f;
      }

      .cls-10 {
        fill: url(#linear-gradient-2);
      }
    </style>
    <linearGradient id="linear-gradient" x1="681.13" y1="284.15" x2="710.56" y2="216.46" gradientUnits="userSpaceOnUse">
      <stop offset="0" stop-color="#f8a164"/>
      <stop offset=".1" stop-color="#f8a469"/>
      <stop offset=".63" stop-color="#f7b37b"/>
      <stop offset="1" stop-color="#f7b882"/>
    </linearGradient>
    <linearGradient id="linear-gradient-2" x1="422.25" y1="272.31" x2="507.23" y2="272.31" gradientUnits="userSpaceOnUse">
      <stop offset="0" stop-color="#f8a164"/>
      <stop offset=".1" stop-color="#f8a469"/>
      <stop offset=".63" stop-color="#f7b37b"/>
      <stop offset="1" stop-color="#f7b882"/>
    </linearGradient>
  </defs>
  <text class="cls-1" transform="translate(249.3 472.27)"><tspan x="0" y="0">Plow pose</tspan></text>
  <g>
    <path class="cls-7" d="M878.58,312.82c0-15.71-196.67-28.45-439.29-28.45S0,297.11,0,312.82s196.68,28.45,439.29,28.45c242.61,0,439.29-12.74,439.29-28.45Z"/>
    <g>
      <path class="cls-3" d="M790.17,278.72c-10.47-7.56-17.46-14.04-30.41-16.11-7.85-1.26-87.03-5.99-112.74-9.05-3.05-.36-52.13-6.06-89.32-10.11-3.28,14.7-8.75,28.72-13.39,43.03,28.57-.14,58.07-.59,76.77-1,55.59,11.54,120.1-14.05,137.3-2.5,0,0,22.29,6.99,36.37,9.99,6.06,1.29,22.09,1.92,22.68,.86,7.49-5.06-20.48-10.22-27.26-15.11Z"/>
      <path class="cls-4" d="M815.68,295.39c-10.47-7.56-17.46-14.04-30.41-16.12-8.78-1.4-106.86-7.16-119.42-10.06-.23,.3-.56,.6-.83,.89-3.58-1.11-6.18-1.94-6.21-1.93-.11,.01-46.88-4.91-87.26-9.33,16.82-61.72,28.79-158.53-8.91-219.37-6.36-10.26-40.9,40.45-67.67,44.25,7.59,13.21,12.85,21.73,9.81,32.38-5.89,20.6-27.83,51.72-26.49,64.75,0,0-11.77,91.24,12.02,120.67,18.49,2.67,114.43,1.52,156.29,.62,55.59,11.54,120.1-14.05,137.3-2.5,0,0,22.29,6.99,36.37,9.99,6.06,1.29,22.09,1.92,22.68,.86,7.48-5.05-20.49-10.2-27.27-15.1Z"/>
      <path class="cls-10" d="M484.18,259.35c-8.4-6.79-43.79-9.59-51.26-17.41-4.55,14.89-17.66,35.32-5.89,52.24,29.43-5.89,52.98,13.24,80.2,7.36-3.04-7.71-17.94-35.63-23.05-42.19Z"/>
      <g>
        <path class="cls-4" d="M91,241.74c-7.58-7.1-15.22-15.5-25.65-8.29-12.52,8.65-9.11,22.08-15.83,32.13-12.72,19.03-18.07,52.74-5.81,56.56h9.87c6.91-2.81-5.98-17.11-2.96-20.64,25.65-30.02,182.09-89.83,195.24-96.49-.9-.78-1.62-1.84-1.99-3.26-3.52-13.3-7.49-26.46-11.7-39.56-10.72,4.26-30.85,5.97-41.5,10.97-31.96,15.02-62.89,50.94-93.68,67.35-3.14,1.04-5.53,1.66-5.99,1.23Z"/>
        <path class="cls-2" d="M273.41,137.98c-13.74,13.4-30.93,20.28-48.53,27.06,4.63,13.02,9.83,28.78,17.2,41.88,12.26-6.46,24.98-12.03,39.43-15.48,17-3.61,101.39-36.07,152.86-61.27,60.17-29.45,131.03-63.6,139.09-75.43-3.95-23.46-26.86-41.75-44.39-49.73-22.69-10.32-62.15-7.51-88.79,35.65-46.44,27.94-149.2,79.82-166.87,97.32Z"/>
      </g>
      <path class="cls-5" d="M493.25,303.01c-13.24-22.07-11.02-55.54,25.26-62.3,29.73-5.54,51.51,20.6,52.98,20.6,.98-12.75,9.81-45.13,12.75-64.75-18.64-8.83-71.75-27.9-104.98-23.55-24.52,23.55-60.82,78.49,13.99,130Z"/>
      <g>
        <path class="cls-4" d="M442.39,231.99c-1.42-3.14-5.48-3.16-9.58-3.16-2.75-.01-5.36-.51-6.5-3.32-.57-1.44-.4-2.27-1.52-3.42-.73-.72-1.83-.67-2.74-.52-1.64,.28-1.93,1.86-1.81-.22,.11-1.65-2.09-2.83-3.66-2.8-2.32,.05-3.09,2.68-5.87-1.17-.71-1-1.13-2.17-1.89-3.13-.82-1.04-2.22-.83-3.25-.22-3.03,1.88-5.77,4.13-8.99,5.71-1,.41-2,.77-2.86,1.07-.42,.1-.84,.17-1.25,.23,.43-1.81-1.31-4.84-3.34-5.97,1.08,1.76,1.13,4.1,.17,6.03-2.08-.19-4.21-.77-6.46-1.35-4.15-1.06-8.49-1.44-12.8-1.27-2.25,.06-8.38,1.08-15.36,3.67,3.93,69.63,44.67,63.31,47.08,69.09,.79-.39,31.73-7.36,34.34-14.23,9.36-24.67,6.59-44.34,6.29-45.02Z"/>
        <g>
          <path class="cls-6" d="M415.98,307.03c-5.71,2.86-17.14,7.67-29.64,7.75-10.75,.06-16.31-2.06-19.08-3.84-.47-.3-.9-.62-1.26-.94-.5,3.48-2.76,11.21-13.03,13.03-6.74,1.18-15.68-1.28-23.92-6.58-10.6-6.81-21.6-19.56-17.73-33.07,1.37-4.79,4.53-7.91,7.48-9.85-.84-.12-1.61-.33-2.28-.61-2.51-1.06-3.15-3.81-2.24-5.31,.51-.86,1.71-1.52,3.41-.58,1.09,.6,2.45,1.1,4.01,1.49-1.52-1.27-2.72-2.81-3.32-4.32-.79-1.99,.01-3.86,1.09-4.75,1.47-1.21,3.35-.62,3.93,1.43,.29,1.03,.77,2.15,1.42,3.33-.24-8.55,.28-21.22,9.67-31.56,5.69-6.27,14.14-12.95,24.15-13.28l.6-.02,.1,.59c12.33,16.95,12.59,30.79,27.98,37.38l-.41,1.24c-4.11-.15-5.96,3.52-6.87,5.21-1.46,2.72-1.03,9.24,5.51,11.44,9.91,3.33,21.67-2.26,21.67-2.26,0,0,26.2,14,24.74,21.24l-15.75,12.75-.23,.09Z"/>
          <path class="cls-9" d="M319.45,259.43c1.47-1.21,3.35-.62,3.93,1.43,.29,1.03,.77,2.15,1.42,3.33-.01-.48,34.34,13.94,43.79,47.5-.5-.25-.95-.51-1.33-.76-.2-.13-.34-.26-.52-.39-.05-.1-.07-.19-.12-.29-26.5-45.71-48.24-36.46-47.82-36.73-.84-.12-1.61-.33-2.28-.61-2.51-1.06-3.15-3.81-2.24-5.31,.51-.86,1.71-1.52,3.41-.58,1.09,.6,2.45,1.1,4.01,1.49-1.52-1.27-2.72-2.81-3.32-4.32-.81-2-.01-3.87,1.07-4.76Z"/>
          <path class="cls-9" d="M387.51,213.71s3.17,6.01,1.34,14.46c-1.28,5.9,10.36-7.84-1.34-14.46Z"/>
          <path class="cls-4" d="M442.63,236.47s-2.65,18-11.04,31.68c2.37-8.02,6.6-18.67,11.04-31.68Z"/>
        </g>
      </g>
      <path class="cls-8" d="M582.28,205.14c-.09,0-.18-.02-.28-.05-37.38-15.15-65.17-21-81.89-23.24-18.12-2.43-27.52-1.25-27.62-1.24-.48,.04-.77-.24-.83-.64-.05-.4,.23-.77,.63-.83,.38-.05,9.63-1.21,27.91,1.23,16.83,2.24,44.77,8.11,82.34,23.35,.38,.15,.56,.58,.41,.96-.1,.29-.37,.46-.67,.46Z"/>
    </g>
  </g>
</svg>