<?xml version="1.0" encoding="utf-8"?>
<!-- Generator: Adobe Illustrator 26.5.0, SVG Export Plug-In . SVG Version: 6.00 Build 0)  -->
<svg version="1.1" id="Layer_1" xmlns="http://www.w3.org/2000/svg" xmlns:xlink="http://www.w3.org/1999/xlink" x="0px" y="0px"
	 viewBox="0 0 250 400" style="enable-background:new 0 0 250 400;" xml:space="preserve">
<style type="text/css">
	.st0{fill:#355775;}
	.st1{font-family:'FarmWaveFree-Regular';}
	.st2{font-size:19.4118px;}
	.st3{letter-spacing:1;}
	.st4{opacity:0.4;}
	.st5{fill:#F3AF80;}
	.st6{fill:#FFFFFF;}
	.st7{fill:#8F5424;}
	.st8{fill:#452713;}
	.st9{fill:#CE986E;}
	.st10{fill:#B2BCC4;}
	.st11{fill:#F7B882;}
	.st12{fill:#905423;}
	.st13{fill:#46260F;}
	.st14{fill:#D09A6F;}
	.st15{fill:#F5B080;}
	.st16{fill:#D1E5FF;}
	.st17{fill:#838385;}
</style>
<g>
	<text transform="matrix(1 0 0 1 81.1484 365.8389)" class="st0 st1 st2 st3">Crunches</text>
	<g>
		<g>
			<g class="st4">
				<g>
					<path class="st5" d="M175.93,270.78c-3.08-0.05-4.44,0.17-4.44,0.17s-2.81,0.12-6.21,1.09c-0.76,0-17.24,2.9-24.12,4.42
						c-2.12,0.47-11.61,0.77-20.42,1.42c-0.03-0.21-0.07-0.42-0.11-0.63c-0.11-0.58-0.11-1.14,0.43-1.49
						c0.28-0.18,0.46-0.18,0.65-0.46c0.12-0.18,0.07-0.41,0-0.59c-0.13-0.33-0.47-0.33-0.03-0.39c0.35-0.05,0.51-0.55,0.44-0.88
						c-0.11-0.48-0.69-0.54,0-1.27c0.18-0.19,0.41-0.32,0.58-0.52c0.18-0.21,0.08-0.5-0.09-0.69c-0.52-0.55-1.1-1.04-1.56-1.65
						c-0.13-0.19-0.24-0.39-0.34-0.55c-0.04-0.08-0.07-0.17-0.1-0.25c0.4,0.02,0.96-0.47,1.11-0.94c-0.32,0.3-0.81,0.4-1.25,0.28
						c-0.05-0.44-0.01-0.91,0.02-1.4c0.05-0.91-0.05-1.83-0.26-2.73c-0.11-0.47-0.57-1.71-1.4-3.06
						c-13.68,3.49-14.38,16.23-14.43,16.26c0.32,0.26,0.37,1.87,0.39,3.63c-0.11,0.08-0.2,0.17-0.27,0.25
						c-4.55,6.04-2.07,17.82,0.54,22.01c9.19,14.77,36.21,27.6,49.34,17.38c-6.3-6.13-16.16-14.91-25.39-22.93
						c0.27-0.58,0.52-1.18,0.76-1.8c-0.1-2.99,0.13-5.59-7.1-8.26c-1.58-0.18-3.14-0.18-4.62-0.12c5.56-0.46,23.65-4.15,23.67-4.2
						c5.85-0.05,18.33-5.98,23.51-6.17c0,0,2.77-0.51,6.15-1.54c3.37-1.03,7.71-1.58,9.54-4.3
						C181.86,269.48,179.01,270.83,175.93,270.78L175.93,270.78z"/>
					<path class="st6" d="M104.52,282.29c0,0,0.01,0.02,0.01,0.02c0.02-0.04,0.04-0.09,0.05-0.12
						C104.55,282.24,104.52,282.29,104.52,282.29L104.52,282.29z"/>
					<path class="st6" d="M104.58,282.19c0.06-0.08,0.14-0.18,0.13-0.2C104.68,282.02,104.63,282.09,104.58,282.19z"/>
				</g>
				<g>
					<path class="st7" d="M100.77,271.05c-0.45-2.24-0.24-3.49,0.02-4.15c0.04-0.11,0.09-0.21,0.14-0.3
						c-0.75,0.04-2.46-0.12-3.26-2.19c-0.52-1.36-0.37-3.33,0.4-5.27c0.99-2.49,3.21-5.31,6.19-5.06c1.06,0.09,1.84,0.62,2.37,1.16
						c-0.01-0.18,0-0.35,0.03-0.5c0.12-0.57,0.67-0.81,1.02-0.69c0.2,0.07,0.39,0.29,0.26,0.69c-0.08,0.25-0.13,0.56-0.15,0.9
						c0.2-0.37,0.48-0.68,0.77-0.87c0.38-0.25,0.81-0.16,1.04,0.03c0.31,0.26,0.27,0.68-0.14,0.88c-0.2,0.1-0.42,0.25-0.64,0.43
						c1.78-0.4,4.45-0.81,6.99,0.73c1.54,0.93,3.28,2.43,3.76,4.51l0.03,0.12l-0.12,0.04c-3.04,3.27-5.92,3.89-6.67,7.38l-0.28-0.04
						c-0.14-0.87-0.98-1.1-1.37-1.22c-0.63-0.19-1.97,0.16-2.16,1.62c-0.29,2.21,1.36,4.44,1.36,4.44l-5.52,3.12
						C104.84,276.83,101.3,273.66,100.77,271.05z"/>
					<path class="st8" d="M109.6,254.81c0.31,0.26,0.27,0.68-0.14,0.88c-0.2,0.1-0.42,0.25-0.64,0.43c0.1-0.02-1.51,7.75-8.14,11.09
						c0.03-0.12,0.07-0.22,0.11-0.31c0.02-0.05,0.04-0.08,0.06-0.13c0.02-0.02,0.04-0.02,0.05-0.04c8.47-7.41,5.65-11.57,5.72-11.5
						c-0.01-0.18,0-0.35,0.03-0.5c0.12-0.57,0.67-0.81,1.02-0.69c0.2,0.07,0.39,0.29,0.26,0.69c-0.08,0.25-0.13,0.56-0.15,0.9
						c0.2-0.37,0.48-0.68,0.77-0.87C108.95,254.53,109.37,254.62,109.6,254.81L109.6,254.81z"/>
					<path class="st8" d="M121.94,267.17c0,0-1.13,0.91-2.97,0.87C117.69,268.01,121.04,269.88,121.94,267.17z"/>
					<path class="st9" d="M119.44,279.62c0,0-3.87,0.18-7.07-1.01C114.14,278.77,116.54,279.22,119.44,279.62z"/>
					<path class="st5" d="M117.79,275.36c-2.32,0.28-4.28-2.67-2.99-4.89C116.1,268.25,119.28,275.18,117.79,275.36z"/>
				</g>
			</g>
			<path class="st10" d="M224.35,329.16c0-3.7-44.91-6.7-100.32-6.7s-100.32,3-100.32,6.7c0,3.7,44.92,6.7,100.32,6.7
				S224.35,332.86,224.35,329.16z"/>
			<g>
				<path class="st11" d="M141.64,306.65c-7.75,5.56-23.21-2.03-27.52-1.79l-0.21-0.06c-2.84-5.1-8.43-4.67-12.25,0.17
					c-2.96,3.75-4.01,4.99-5.81,6.85c-1.95,0.28-3.83,0.55-3.9,0.54c0.13-1.6,0.53-5.63,0.38-6.33c-0.31-1.47-1.47-1.18-2.64-0.88
					c-0.62,0.16-1.23,0.19-1.65-0.37c-0.21-0.29-0.22-0.49-0.54-0.68c-0.21-0.12-0.45-0.05-0.64,0.04
					c-0.35,0.16-0.32,0.53-0.42,0.05c-0.07-0.37-0.63-0.52-0.98-0.42c-0.52,0.14-0.54,0.78-1.38,0.07c-0.22-0.18-0.38-0.42-0.6-0.59
					c-0.24-0.19-0.55-0.06-0.74,0.14c-0.57,0.59-1.06,1.26-1.69,1.8c-0.2,0.15-0.4,0.29-0.58,0.4c-0.09,0.05-0.18,0.09-0.27,0.12
					c-0.01-0.43-0.57-1.01-1.09-1.15c0.34,0.33,0.49,0.85,0.38,1.34c-0.48,0.08-0.99,0.07-1.53,0.07c-0.99,0-1.99,0.16-2.94,0.45
					c-0.5,0.14-1.82,0.72-3.24,1.7c4.87,15.39,28.91,18.07,28.25,20.41c8.8-0.48,21.29-3.71,27.87-3.7
					c3.48,0.01,9.32-0.24,11.64,0.92c1.53,0.05,1.95-0.11,2.08,0C142.65,320,138.75,311.74,141.64,306.65L141.64,306.65z"/>
				<path class="st11" d="M213.99,326.72c-3.63-1.31-7.27-5.29-8.6-8.56c-2.69-5.68-9.43-31.78-10.33-38.33
					c-0.15-1.13-10.6,3.6-10.92,9.33c-0.52,9.03,15.89,25.02,14.7,32.53c-0.31,1.94-2.48,5.78,0.27,7.26
					c2.75,1.47,3.73-0.98,6.08-0.06c2.35,0.92,13.51,1.49,13.9-0.3l-0.03-0.48C218.67,326.49,214.9,327.05,213.99,326.72
					L213.99,326.72z"/>
				<g>
					<path class="st12" d="M90.39,323.65c-1.12,0.97-3.41,2.7-6.2,3.43c-2.41,0.63-3.78,0.47-4.5,0.23
						c-0.12-0.04-0.24-0.09-0.34-0.14c0.09,0.81-14.18,3.31-13.79-2.84c0.07-1.15,0.56-2.03,1.11-2.64
						c-0.2,0.02-0.38,0.02-0.55-0.01c-0.62-0.1-0.92-0.67-0.81-1.06c0.07-0.22,0.3-0.44,0.73-0.33c0.28,0.07,0.61,0.11,0.99,0.11
						c-0.41-0.2-0.77-0.48-0.99-0.78c-0.29-0.4-0.22-0.87-0.03-1.13c0.26-0.35,0.72-0.33,0.96,0.1c0.12,0.21,0.29,0.44,0.51,0.67
						c-0.54-1.9-1.15-4.78,0.36-7.63c0.92-1.73,2.43-3.71,4.66-4.36l0.13-0.04l0.05,0.13c3.74,3.09,4.59,6.18,8.42,6.78l-0.02,0.3
						c-0.93,0.2-1.14,1.13-1.24,1.56c-0.17,0.69,0.3,2.13,1.89,2.25c2.41,0.18,4.73-1.75,4.73-1.75s5.59,3.27,5.68,4.98l-1.71,2.12
						L90.39,323.65L90.39,323.65z"/>
					<path class="st13" d="M66.02,318.5c0.26-0.35,0.72-0.33,0.96,0.1c0.12,0.21,0.29,0.44,0.51,0.67
						c-0.03-0.11,8.5,1.16,12.54,8.15c-0.13-0.03-0.24-0.06-0.34-0.09c-0.05-0.02-0.09-0.04-0.14-0.06
						c-0.02-0.02-0.03-0.04-0.05-0.06c-8.56-8.74-12.91-5.41-12.83-5.5c-0.2,0.02-0.38,0.02-0.55-0.01
						c-0.62-0.1-0.92-0.67-0.81-1.06c0.07-0.22,0.3-0.44,0.73-0.33c0.28,0.07,0.61,0.11,0.99,0.11c-0.41-0.2-0.77-0.48-0.99-0.78
						C65.76,319.22,65.83,318.76,66.02,318.5L66.02,318.5z"/>
					<path class="st13" d="M78.67,304.35c0,0,1.06,1.17,1.13,3.17C79.85,308.91,81.67,305.16,78.67,304.35z"/>
					<path class="st14" d="M92.33,306.29c0,0,0.44,4.19-0.66,7.74C91.74,312.1,92.08,309.47,92.33,306.29L92.33,306.29z"/>
					<path class="st15" d="M87.81,308.35c0.44,2.5-2.64,4.81-5.13,3.54C80.2,310.62,87.52,306.74,87.81,308.35z"/>
				</g>
				<path class="st6" d="M118.41,305.58c-1.3-0.35-2.94-0.8-4.28-0.72l-0.21-0.06c-1.62-4.45-6.04-4.62-9.28-2.77
					c-1.91,4.37-3.21,8.49-8.75,11.72c4.32-0.31,10.5-0.68,12.07,3.65c1.85,5.08-3.35,9-8.1,11.14c5.19-0.26,11.7-1.5,17.53-2.48
					C117.99,319,119.07,313.45,118.41,305.58L118.41,305.58z"/>
				<path class="st16" d="M116.95,315.12c-0.26,5.81-0.84,11.31-0.85,11.4c-0.01,0.09-0.1,0.16-0.19,0.15
					c-0.1-0.01-0.16-0.09-0.16-0.19c0.02-0.14,1.5-14.22,0.79-21.1c-0.01-0.1,0.06-0.18,0.16-0.18c0.1-0.01,0.18,0.06,0.19,0.15
					C117.15,307.96,117.11,311.6,116.95,315.12z"/>
				<path class="st0" d="M197.45,288.58c0,0-2.51-11.22-5.09-14.94c-1.54-2.23-8.63-2.99-11.59-1.74
					c-16.88,7.15-38.72,35.93-41.51,35.95c-0.28,0,0.05,9.83,0.05,17.92c10.16,3.7,17.68,1.43,28.94-14.34
					c7.56-10.59,11.89-18.04,16-23.34c-0.51,0.84-0.51,1.14-0.51,2.48C189.63,291.83,197.45,288.58,197.45,288.58L197.45,288.58z"/>
				<path class="st11" d="M103.25,324.44c-0.37-2.92-1.81-6.23-4.09-7.4c-2.64-1.36-14.61,0.29-28.13,1.52
					c-8.72-1.49-20.36,2.95-28.63,2.01c0,0-3.72-1.72-9.55-1.06c-1.31,0.15-5.83,1.13-8.08,1.81c-2.26,0.68,6.86,2.5,7.66,2.52
					c0,0,6.48,1.77,8.02,1.33c1.53-0.45,24.74,0.24,29.4,0.47c1.93,0.41,13.03,2.5,14.17,2.6c4.54,0.08,15.53,0.46,15.52,0.35
					C100.58,328.59,103.46,326.07,103.25,324.44L103.25,324.44z"/>
			</g>
		</g>
		<path class="st17" d="M78.12,257.89l2.09,2.02c-0.11-0.03-0.22-0.06-0.32-0.09l0.01-0.05c-6.72-0.91-10.88,1.61-13.18,3.88
			c-3.35,3.3-4.63,7.77-4.51,10.03c-0.01,0-0.03-0.01-0.04-0.01c0.02,0.15,0.04,0.3,0.06,0.45l-1.37-2.3
			c-0.08-0.14-0.27-0.18-0.41-0.1c-0.14,0.08-0.19,0.27-0.11,0.41l2.03,3.41c0.05,0.09,0.14,0.14,0.24,0.15h0.04
			c0.11-0.01,0.21-0.08,0.25-0.19l1.51-3.93c0.06-0.15-0.02-0.33-0.17-0.38c-0.15-0.06-0.33,0.02-0.38,0.17l-1.04,2.72
			c0-0.04-0.01-0.07-0.01-0.11h0.01c-0.21-1.74,0.84-6.44,4.33-9.87c3.13-3.09,7.44-4.37,12.48-3.74c0,0,0,0.01-0.01,0.01
			c0.15,0.05,0.29,0.08,0.44,0.12l-2.66,0.36c-0.16,0.02-0.28,0.17-0.26,0.34c0.02,0.16,0.17,0.28,0.34,0.26l3.93-0.53
			c0.1-0.01,0.18-0.08,0.23-0.16c0.01-0.01,0.01-0.03,0.02-0.04c0.04-0.11,0.01-0.23-0.08-0.31l-3.03-2.93
			c-0.12-0.11-0.31-0.11-0.42,0.01C78,257.59,78,257.78,78.12,257.89L78.12,257.89z"/>
	</g>
</g>
</svg>
