<?xml version="1.0" encoding="utf-8"?>
<!-- Generator: Adobe Illustrator 26.5.0, SVG Export Plug-In . SVG Version: 6.00 Build 0)  -->
<svg version="1.1" id="Layer_1" xmlns="http://www.w3.org/2000/svg" xmlns:xlink="http://www.w3.org/1999/xlink" x="0px" y="0px"
	 viewBox="0 0 250 88.9" style="enable-background:new 0 0 250 88.9;" xml:space="preserve">
<style type="text/css">
	.st0{opacity:0.4;}
	.st1{fill:#F3AF80;}
	.st2{fill:#FFFFFF;}
	.st3{fill:#8F5424;}
	.st4{fill:#452713;}
	.st5{fill:#CE986E;}
	.st6{fill:#B2BCC4;}
	.st7{fill:#F7B882;}
	.st8{fill:#905423;}
	.st9{fill:#46260F;}
	.st10{fill:#D09A6F;}
	.st11{fill:#F5B080;}
	.st12{fill:#D1E5FF;}
	.st13{fill:#355775;}
	.st14{fill:#838385;}
</style>
<g>
	<g>
		<g>
			<g class="st0">
				<g>
					<path class="st1" d="M175.9,23.8c-3.1,0-4.4,0.2-4.4,0.2s-2.8,0.1-6.2,1.1c-0.8,0-17.2,2.9-24.1,4.4
						c-2.1,0.5-11.6,0.8-20.4,1.4c0-0.2-0.1-0.4-0.1-0.6c-0.1-0.6-0.1-1.1,0.4-1.5c0.3-0.2,0.5-0.2,0.7-0.5c0.1-0.2,0.1-0.4,0-0.6
						c-0.1-0.3-0.5-0.3,0-0.4c0.3,0,0.5-0.5,0.4-0.9c-0.1-0.5-0.7-0.5,0-1.3c0.2-0.2,0.4-0.3,0.6-0.5s0.1-0.5-0.1-0.7
						c-0.5-0.5-1.1-1-1.6-1.6c-0.1-0.2-0.2-0.4-0.3-0.5c0-0.1-0.1-0.2-0.1-0.2c0.4,0,1-0.5,1.1-0.9c-0.3,0.3-0.8,0.4-1.2,0.3
						c-0.1-0.4,0-0.9,0-1.4c0.1-0.9-0.1-1.8-0.3-2.7c-0.1-0.5-0.6-1.7-1.4-3.1c-13.7,3.5-14.4,16.2-14.4,16.3
						c0.3,0.3,0.4,1.9,0.4,3.6c-0.1,0.1-0.2,0.2-0.3,0.2c-4.6,6-2.1,17.8,0.5,22c9.2,14.8,36.2,27.6,49.3,17.4
						c-6.3-6.1-16.2-14.9-25.4-22.9c0.3-0.6,0.5-1.2,0.8-1.8c-0.1-3,0.1-5.6-7.1-8.3c-1.6-0.2-3.1-0.2-4.6-0.1
						c5.6-0.5,23.6-4.1,23.7-4.2c5.9,0,18.3-6,23.5-6.2c0,0,2.8-0.5,6.1-1.5c3.4-1,7.7-1.6,9.5-4.3C181.9,22.5,179,23.8,175.9,23.8
						L175.9,23.8z"/>
					<path class="st2" d="M104.5,35.3L104.5,35.3l0.1-0.1C104.6,35.2,104.5,35.3,104.5,35.3L104.5,35.3z"/>
					<path class="st2" d="M104.6,35.2c0.1-0.1,0.1-0.2,0.1-0.2S104.6,35.1,104.6,35.2z"/>
				</g>
				<g>
					<path class="st3" d="M100.8,24c-0.4-2.2-0.2-3.5,0-4.1c0-0.1,0.1-0.2,0.1-0.3c-0.8,0-2.5-0.1-3.3-2.2c-0.5-1.4-0.4-3.3,0.4-5.3
						c1-2.5,3.2-5.3,6.2-5.1c1.1,0.1,1.8,0.6,2.4,1.2c0-0.2,0-0.4,0-0.5c0.1-0.6,0.7-0.8,1-0.7c0.2,0.1,0.4,0.3,0.3,0.7
						c-0.1,0.2-0.1,0.6-0.2,0.9c0.2-0.4,0.5-0.7,0.8-0.9c0.4-0.2,0.8-0.2,1,0c0.3,0.3,0.3,0.7-0.1,0.9c-0.2,0.1-0.4,0.2-0.6,0.4
						c1.8-0.4,4.4-0.8,7,0.7c1.5,0.9,3.3,2.4,3.8,4.5v0.1h-0.1c-3,3.3-5.9,3.9-6.7,7.4h-0.3c-0.1-0.9-1-1.1-1.4-1.2
						c-0.6-0.2-2,0.2-2.2,1.6c-0.3,2.2,1.4,4.4,1.4,4.4l-5.5,3.1C104.8,29.8,101.3,26.7,100.8,24z"/>
					<path class="st4" d="M109.6,7.8c0.3,0.3,0.3,0.7-0.1,0.9c-0.2,0.1-0.4,0.2-0.6,0.4c0.1,0-1.5,7.8-8.1,11.1
						c0-0.1,0.1-0.2,0.1-0.3c0,0,0-0.1,0.1-0.1c0,0,0,0,0.1,0c8.5-7.4,5.7-11.6,5.7-11.5c0-0.2,0-0.4,0-0.5c0.1-0.6,0.7-0.8,1-0.7
						c0.2,0.1,0.4,0.3,0.3,0.7C108,8,108,8.4,107.9,8.7c0.2-0.4,0.5-0.7,0.8-0.9C108.9,7.5,109.4,7.6,109.6,7.8L109.6,7.8z"/>
					<path class="st4" d="M121.9,20.2c0,0-1.1,0.9-3,0.9C117.7,21,121,22.9,121.9,20.2z"/>
					<path class="st5" d="M119.4,32.6c0,0-3.9,0.2-7.1-1C114.1,31.8,116.5,32.2,119.4,32.6z"/>
					<path class="st1" d="M117.8,28.4c-2.3,0.3-4.3-2.7-3-4.9C116.1,21.2,119.3,28.2,117.8,28.4z"/>
				</g>
			</g>
			<path class="st6" d="M224.4,82.2c0-3.7-44.9-6.7-100.3-6.7s-100.3,3-100.3,6.7s44.9,6.7,100.3,6.7S224.4,85.9,224.4,82.2z"/>
			<g>
				<path class="st7" d="M141.6,59.6c-7.8,5.6-23.2-2-27.5-1.8l-0.2-0.1c-2.8-5.1-8.4-4.7-12.2,0.2c-3,3.8-4,5-5.8,6.9
					c-1.9,0.3-3.8,0.5-3.9,0.5c0.1-1.6,0.5-5.6,0.4-6.3c-0.3-1.5-1.5-1.2-2.6-0.9c-0.6,0.2-1.2,0.2-1.7-0.4
					c-0.2-0.3-0.2-0.5-0.5-0.7c-0.2-0.1-0.4,0-0.6,0c-0.3,0.2-0.3,0.5-0.4,0c-0.1-0.4-0.6-0.5-1-0.4c-0.5,0.1-0.5,0.8-1.4,0.1
					c-0.2-0.2-0.4-0.4-0.6-0.6S83,56,82.9,56.2c-0.6,0.6-1.1,1.3-1.7,1.8c-0.2,0.1-0.4,0.3-0.6,0.4c-0.1,0-0.2,0.1-0.3,0.1
					c0-0.4-0.6-1-1.1-1.1c0.3,0.3,0.5,0.9,0.4,1.3c-0.5,0.1-1,0.1-1.5,0.1c-1,0-2,0.2-2.9,0.5C74.7,59.4,73.4,60,72,61
					c4.9,15.4,28.9,18.1,28.2,20.4c8.8-0.5,21.3-3.7,27.9-3.7c3.5,0,9.3-0.2,11.6,0.9c1.5,0,1.9-0.1,2.1,0
					C142.6,73,138.8,64.7,141.6,59.6L141.6,59.6z"/>
				<path class="st7" d="M214,79.7c-3.6-1.3-7.3-5.3-8.6-8.6c-2.7-5.7-9.4-31.8-10.3-38.3c-0.1-1.1-10.6,3.6-10.9,9.3
					c-0.5,9,15.9,25,14.7,32.5c-0.3,1.9-2.5,5.8,0.3,7.3s3.7-1,6.1-0.1s13.5,1.5,13.9-0.3V81C218.7,79.5,214.9,80,214,79.7L214,79.7
					z"/>
				<g>
					<path class="st8" d="M90.4,76.6c-1.1,1-3.4,2.7-6.2,3.4c-2.4,0.6-3.8,0.5-4.5,0.2c-0.1,0-0.2-0.1-0.3-0.1
						c0.1,0.8-14.2,3.3-13.8-2.8c0.1-1.1,0.6-2,1.1-2.6c-0.2,0-0.4,0-0.6,0c-0.6-0.1-0.9-0.7-0.8-1.1c0.1-0.2,0.3-0.4,0.7-0.3
						c0.3,0.1,0.6,0.1,1,0.1c-0.4-0.2-0.8-0.5-1-0.8c-0.3-0.4-0.2-0.9,0-1.1c0.3-0.4,0.7-0.3,1,0.1c0.1,0.2,0.3,0.4,0.5,0.7
						c-0.5-1.9-1.2-4.8,0.4-7.6c0.9-1.7,2.4-3.7,4.7-4.4h0.1l0.1,0.1c3.7,3.1,4.6,6.2,8.4,6.8v0.3c-0.9,0.2-1.1,1.1-1.2,1.6
						c-0.2,0.7,0.3,2.1,1.9,2.2c2.4,0.2,4.7-1.8,4.7-1.8s5.6,3.3,5.7,5L90.4,76.6L90.4,76.6L90.4,76.6z"/>
					<path class="st9" d="M66,71.5c0.3-0.4,0.7-0.3,1,0.1c0.1,0.2,0.3,0.4,0.5,0.7c0-0.1,8.5,1.2,12.5,8.1c-0.1,0-0.2-0.1-0.3-0.1
						c-0.1,0-0.1,0-0.1-0.1c0,0,0,0-0.1-0.1c-8.6-8.7-12.9-5.4-12.8-5.5c-0.2,0-0.4,0-0.6,0c-0.6-0.1-0.9-0.7-0.8-1.1
						c0.1-0.2,0.3-0.4,0.7-0.3c0.3,0.1,0.6,0.1,1,0.1c-0.4-0.2-0.8-0.5-1-0.8C65.8,72.2,65.8,71.8,66,71.5L66,71.5z"/>
					<path class="st9" d="M78.7,57.4c0,0,1.1,1.2,1.1,3.2C79.8,61.9,81.7,58.2,78.7,57.4z"/>
					<path class="st10" d="M92.3,59.3c0,0,0.4,4.2-0.7,7.7C91.7,65.1,92.1,62.5,92.3,59.3L92.3,59.3z"/>
					<path class="st11" d="M87.8,61.4c0.4,2.5-2.6,4.8-5.1,3.5C80.2,63.6,87.5,59.7,87.8,61.4z"/>
				</g>
				<path class="st2" d="M118.4,58.6c-1.3-0.4-2.9-0.8-4.3-0.7l-0.2-0.1c-1.6-4.5-6-4.6-9.3-2.8c-1.9,4.4-3.2,8.5-8.8,11.7
					c4.3-0.3,10.5-0.7,12.1,3.6c1.8,5.1-3.3,9-8.1,11.1c5.2-0.3,11.7-1.5,17.5-2.5C118,72,119.1,66.5,118.4,58.6L118.4,58.6z"/>
				<path class="st12" d="M116.9,68.1c-0.3,5.8-0.8,11.3-0.8,11.4s-0.1,0.2-0.2,0.1c-0.1,0-0.2-0.1-0.2-0.2s1.5-14.2,0.8-21.1
					c0-0.1,0.1-0.2,0.2-0.2s0.2,0.1,0.2,0.1C117.2,61,117.1,64.6,116.9,68.1z"/>
				<path class="st13" d="M197.4,41.6c0,0-2.5-11.2-5.1-14.9c-1.5-2.2-8.6-3-11.6-1.7c-16.9,7.1-38.7,35.9-41.5,36
					c-0.3,0,0.1,9.8,0.1,17.9c10.2,3.7,17.7,1.4,28.9-14.3c7.6-10.6,11.9-18,16-23.3c-0.5,0.8-0.5,1.1-0.5,2.5
					C189.6,44.8,197.4,41.6,197.4,41.6L197.4,41.6z"/>
				<path class="st7" d="M103.2,77.4c-0.4-2.9-1.8-6.2-4.1-7.4c-2.6-1.4-14.6,0.3-28.1,1.5c-8.7-1.5-20.4,3-28.6,2
					c0,0-3.7-1.7-9.5-1.1c-1.3,0.1-5.8,1.1-8.1,1.8c-2.3,0.7,6.9,2.5,7.7,2.5c0,0,6.5,1.8,8,1.3s24.7,0.2,29.4,0.5
					c1.9,0.4,13,2.5,14.2,2.6c4.5,0.1,15.5,0.5,15.5,0.4C100.6,81.6,103.5,79.1,103.2,77.4L103.2,77.4z"/>
			</g>
		</g>
		<path class="st14" d="M78.1,10.9l2.1,2c-0.1,0-0.2-0.1-0.3-0.1l0,0c-6.7-0.9-10.9,1.6-13.2,3.9c-3.3,3.3-4.6,7.8-4.5,10l0,0
			c0,0.1,0,0.3,0.1,0.5l-1.4-2.3c-0.1-0.1-0.3-0.2-0.4-0.1s-0.2,0.3-0.1,0.4l2,3.4c0,0.1,0.1,0.1,0.2,0.1l0,0c0.1,0,0.2-0.1,0.2-0.2
			l1.5-3.9c0.1-0.1,0-0.3-0.2-0.4c-0.2-0.1-0.3,0-0.4,0.2l-1,2.7V27l0,0c-0.2-1.7,0.8-6.4,4.3-9.9c3.1-3.1,7.4-4.4,12.5-3.7l0,0
			c0.2,0,0.3,0.1,0.4,0.1l-2.7,0.4c-0.2,0-0.3,0.2-0.3,0.3c0,0.2,0.2,0.3,0.3,0.3l3.9-0.5c0.1,0,0.2-0.1,0.2-0.2l0,0
			c0-0.1,0-0.2-0.1-0.3l-3-2.9c-0.1-0.1-0.3-0.1-0.4,0C78,10.6,78,10.8,78.1,10.9L78.1,10.9z"/>
	</g>
</g>
</svg>
