<?xml version="1.0" encoding="UTF-8"?>
<svg id="Layer_1" data-name="Layer 1" xmlns="http://www.w3.org/2000/svg" viewBox="0 0 878.58 510.85">
  <defs>
    <style>
      .cls-1 {
        fill: #f7b882;
      }

      .cls-2 {
        fill: #f3af80;
      }

      .cls-3 {
        fill: #f5b080;
      }

      .cls-4 {
        fill: #fff;
      }

      .cls-5 {
        fill: #905423;
      }

      .cls-6 {
        fill: #8f5424;
      }

      .cls-7 {
        fill: #ce986e;
      }

      .cls-8 {
        fill: #b2bcc4;
      }

      .cls-9 {
        fill: #d1e5ff;
      }

      .cls-10 {
        fill: #d09a6f;
      }

      .cls-11, .cls-12 {
        fill: #355775;
      }

      .cls-13 {
        fill: #452713;
      }

      .cls-14 {
        fill: #838385;
      }

      .cls-15 {
        fill: #46260f;
      }

      .cls-12 {
        font-family: FarmWaveFree-Regular, 'Farm Wave Free';
        font-size: 85px;
        isolation: isolate;
        letter-spacing: .08em;
      }

      .cls-16 {
        opacity: .4;
      }
    </style>
  </defs>
  <text class="cls-12" transform="translate(251.51 489.6)"><tspan x="0" y="0">Crunches</tspan></text>
  <g>
    <g>
      <g class="cls-16">
        <g>
          <path class="cls-2" d="M666.55,73.35c-13.48-.23-19.46,.75-19.46,.75,0,0-12.3,.51-27.2,4.79-3.32,.02-75.51,12.69-105.6,19.37-9.27,2.06-50.83,3.37-89.4,6.21-.13-.91-.29-1.83-.48-2.77-.48-2.52-.49-5,1.88-6.54,1.22-.78,2-.77,2.86-2,.53-.8,.29-1.8-.02-2.6-.55-1.45-2.05-1.43-.13-1.7,1.53-.2,2.22-2.42,1.91-3.85-.46-2.11-3.01-2.35,.02-5.58,.79-.83,1.79-1.42,2.53-2.29,.81-.93,.36-2.18-.38-3.01-2.26-2.43-4.81-4.54-6.83-7.21-.56-.85-1.06-1.69-1.49-2.42-.17-.37-.31-.74-.44-1.11,1.73,.07,4.2-2.07,4.87-4.12-1.42,1.3-3.55,1.77-5.49,1.23-.2-1.94-.05-3.99,.08-6.15,.23-3.99-.2-8.03-1.13-11.94-.46-2.05-2.49-7.48-6.11-13.4-59.92,15.27-62.98,71.06-63.18,71.19,1.41,1.13,1.61,8.21,1.71,15.88-.47,.36-.88,.73-1.17,1.11-19.91,26.46-9.06,78.02,2.37,96.38,40.24,64.66,158.55,120.86,216.05,76.12-27.59-26.84-70.76-65.28-111.18-100.4,1.17-2.56,2.29-5.16,3.34-7.86-.43-13.1,.57-24.49-31.1-36.19-6.94-.77-13.73-.77-20.25-.52,24.33-2.03,103.57-18.19,103.63-18.4,25.62-.22,80.27-26.18,102.94-27.03,0,0,12.14-2.23,26.91-6.73,14.77-4.5,33.77-6.94,41.78-18.81,4.11-6.09-8.37-.16-21.84-.4Z"/>
          <path class="cls-4" d="M353.86,123.77s.03,.07,.04,.1c.08-.18,.16-.38,.23-.53-.15,.21-.28,.4-.27,.43Z"/>
          <path class="cls-4" d="M354.13,123.34c.26-.36,.61-.8,.59-.87-.17,.09-.37,.43-.59,.87Z"/>
        </g>
        <g>
          <path class="cls-6" d="M337.44,74.56c-1.98-9.83-1.03-15.3,.1-18.15,.19-.48,.41-.93,.63-1.32-3.28,.17-10.75-.52-14.26-9.59-2.29-5.95-1.64-14.58,1.74-23.07,4.34-10.92,14.04-23.27,27.09-22.15,4.63,.4,8.05,2.73,10.36,5.08-.04-.79,.01-1.53,.15-2.2,.52-2.49,2.92-3.56,4.46-3,.88,.31,1.7,1.29,1.14,3.02-.35,1.1-.57,2.44-.65,3.94,.89-1.62,2.09-2.99,3.36-3.81,1.68-1.08,3.53-.68,4.54,.15,1.37,1.13,1.17,2.96-.6,3.85-.89,.45-1.83,1.08-2.8,1.9,7.78-1.75,19.47-3.55,30.62,3.2,6.75,4.09,14.38,10.62,16.47,19.73l.13,.54-.53,.19c-13.3,14.32-25.92,17.04-29.2,32.3l-1.21-.16c-.6-3.79-4.29-4.83-6-5.36-2.75-.85-8.64,.71-9.48,7.09-1.27,9.66,5.95,19.43,5.95,19.43l-24.18,13.68s-15.52-13.86-17.83-25.29Z"/>
          <path class="cls-13" d="M376.11,3.45c1.37,1.13,1.17,2.96-.6,3.85-.89,.45-1.83,1.08-2.8,1.9,.44-.1-6.61,33.92-35.63,48.57,.14-.51,.3-.96,.46-1.36,.08-.2,.18-.36,.26-.55,.08-.07,.16-.1,.24-.17,37.09-32.43,24.73-50.67,25.05-50.34-.04-.79,.01-1.53,.15-2.2,.52-2.49,2.92-3.56,4.46-3,.88,.31,1.7,1.29,1.14,3.02-.35,1.1-.57,2.44-.65,3.94,.89-1.62,2.09-2.99,3.36-3.81,1.71-1.08,3.55-.69,4.56,.15Z"/>
          <path class="cls-13" d="M430.14,57.54s-4.94,3.97-12.99,3.81c-5.64-.11,9.03,8.08,12.99-3.81Z"/>
          <path class="cls-7" d="M419.18,112.06s-16.94,.8-30.97-4.43c7.77,.73,18.26,2.69,30.97,4.43Z"/>
          <path class="cls-2" d="M411.95,93.4c-10.14,1.21-18.74-11.71-13.08-21.43,5.67-9.71,19.62,20.65,13.08,21.43Z"/>
        </g>
      </g>
      <path class="cls-8" d="M878.58,328.99c0-16.2-196.67-29.34-439.29-29.34S0,312.78,0,328.99s196.68,29.34,439.29,29.34,439.29-13.14,439.29-29.34Z"/>
      <g>
        <path class="cls-1" d="M516.39,230.42c-33.92,24.35-101.61-8.91-120.51-7.84l-.93-.28c-12.43-22.33-36.91-20.44-53.64,.75-12.95,16.41-17.57,21.84-25.42,30-8.55,1.24-16.77,2.42-17.07,2.37,.59-6.99,2.3-24.66,1.65-27.73-1.34-6.44-6.42-5.16-11.54-3.87-2.7,.68-5.39,.84-7.22-1.63-.92-1.27-.96-2.13-2.35-2.98-.9-.52-1.97-.2-2.82,.18-1.54,.68-1.42,2.31-1.83,.24-.31-1.64-2.76-2.26-4.29-1.83-2.27,.63-2.36,3.41-6.06,.32-.95-.8-1.65-1.85-2.64-2.6-1.06-.82-2.39-.26-3.24,.6-2.5,2.6-4.63,5.5-7.4,7.86-.88,.66-1.77,1.26-2.54,1.77-.39,.21-.78,.38-1.17,.54-.03-1.88-2.5-4.43-4.78-5.03,1.5,1.46,2.14,3.74,1.67,5.88-2.09,.34-4.33,.3-6.68,.29-4.35,0-8.7,.72-12.89,1.96-2.19,.62-7.96,3.16-14.17,7.45,21.32,67.4,126.61,79.11,123.69,89.39,38.54-2.08,93.24-16.24,122.04-16.19,15.25,.03,40.79-1.07,50.95,4.04,6.68,.23,8.55-.5,9.1,0,4.5-25.22-12.57-61.38,.09-83.66Z"/>
        <path class="cls-1" d="M833.19,318.32c-15.9-5.73-31.85-23.18-37.64-37.47-11.78-24.85-41.31-139.14-45.22-167.84-.67-4.94-46.4,15.77-47.83,40.87-2.26,39.52,69.57,109.57,64.37,142.42-1.34,8.48-10.85,25.32,1.18,31.77,12.02,6.44,16.34-4.28,26.63-.26s59.14,6.52,60.87-1.3l-.13-2.1c-1.74-7.09-18.26-4.66-22.23-6.09Z"/>
        <g>
          <path class="cls-5" d="M292,304.85c-4.89,4.24-14.91,11.83-27.17,15.04-10.54,2.75-16.54,2.07-19.71,1.01-.54-.18-1.04-.39-1.47-.61,.39,3.54-62.07,14.48-60.39-12.43,.32-5.05,2.46-8.9,4.87-11.55-.86,.09-1.66,.08-2.4-.03-2.73-.42-4.04-2.95-3.54-4.66,.29-.97,1.3-1.93,3.21-1.43,1.22,.31,2.68,.47,4.32,.46-1.81-.87-3.38-2.08-4.35-3.41-1.28-1.76-.96-3.79-.12-4.93,1.14-1.55,3.14-1.45,4.22,.42,.54,.94,1.29,1.92,2.23,2.92-2.38-8.34-5.05-20.91,1.59-33.42,4.02-7.58,10.64-16.26,20.39-19.09l.58-.17,.24,.56c16.36,13.55,20.09,27.08,36.85,29.7l-.1,1.32c-4.07,.89-4.97,4.95-5.44,6.84-.75,3.03,1.31,9.34,8.28,9.86,10.56,.78,20.72-7.66,20.72-7.66,0,0,24.47,14.34,24.85,21.82l-7.5,9.3-.16,.14Z"/>
          <path class="cls-15" d="M185.27,282.31c1.14-1.55,3.14-1.45,4.22,.42,.54,.94,1.29,1.92,2.23,2.92-.13-.47,37.22,5.08,54.91,35.67-.56-.12-1.06-.26-1.5-.41-.22-.07-.4-.17-.61-.25-.08-.08-.12-.17-.2-.25-37.48-38.25-56.52-23.71-56.18-24.09-.86,.09-1.66,.08-2.4-.03-2.73-.42-4.04-2.95-3.54-4.66,.29-.97,1.3-1.93,3.21-1.43,1.22,.31,2.68,.47,4.32,.46-1.81-.87-3.38-2.08-4.35-3.41-1.27-1.77-.95-3.8-.11-4.94Z"/>
          <path class="cls-15" d="M240.65,220.34s4.62,5.11,4.94,13.86c.22,6.12,8.2-10.29-4.94-13.86Z"/>
          <path class="cls-10" d="M300.48,228.87s1.91,18.34-2.9,33.89c.33-8.48,1.8-19.99,2.9-33.89Z"/>
          <path class="cls-3" d="M280.68,237.86c1.94,10.93-11.55,21.06-22.45,15.51-10.89-5.54,21.2-22.55,22.45-15.51Z"/>
        </g>
        <path class="cls-4" d="M414.65,225.74c-5.69-1.52-12.87-3.5-18.76-3.16l-.93-.28c-7.11-19.48-26.45-20.24-40.62-12.15-8.35,19.14-14.04,37.18-38.31,51.34,18.9-1.37,45.98-2.98,52.87,15.99,8.08,22.23-14.67,39.43-35.45,48.8,22.73-1.14,51.22-6.57,76.75-10.85,2.63-30.92,7.38-55.25,4.45-89.69Z"/>
        <path class="cls-9" d="M408.28,267.52c-1.15,25.44-3.69,49.53-3.73,49.91-.04,.41-.42,.7-.83,.66-.42-.04-.71-.38-.68-.82,.07-.62,6.57-62.27,3.44-92.39-.04-.44,.26-.77,.68-.81s.79,.26,.83,.66c1.18,11.44,.99,27.36,.29,42.79Z"/>
        <path class="cls-11" d="M760.76,151.28s-11.01-49.13-22.28-65.44c-6.76-9.78-37.8-13.1-50.77-7.61-73.92,31.31-169.53,157.33-181.75,157.4-1.22,.01,.24,43.06,.24,78.47,44.51,16.19,77.4,6.25,126.73-62.81,33.11-46.36,52.07-79,70.07-102.19-2.23,3.7-2.23,5-2.23,10.88,25.75,5.54,59.99-8.7,59.99-8.7Z"/>
        <path class="cls-1" d="M348.29,308.33c-1.62-12.78-7.92-27.26-17.93-32.4-11.56-5.94-63.97,1.26-123.16,6.66-38.19-6.54-89.14,12.91-125.36,8.79,0,0-16.29-7.51-41.83-4.65-5.75,.65-25.52,4.96-35.4,7.93-9.88,2.97,30.03,10.95,33.56,11.05,0,0,28.39,7.77,35.1,5.82,6.7-1.96,108.31,1.03,128.73,2.04,8.47,1.8,57.07,10.94,62.05,11.4,19.87,.36,68,2,67.97,1.54,4.59,0,17.18-11.04,16.27-18.18Z"/>
      </g>
    </g>
    <path class="cls-14" d="M238.24,16.93l9.17,8.86c-.48-.15-.95-.27-1.42-.4l.03-.2c-29.41-3.98-47.62,7.05-57.72,17.01-14.66,14.45-20.26,34.02-19.77,43.93-.05-.02-.12-.03-.18-.05,.07,.67,.19,1.3,.25,1.98l-6-10.09c-.36-.62-1.17-.81-1.79-.45-.62,.37-.82,1.17-.46,1.79l8.88,14.93c.22,.38,.61,.61,1.04,.64h.19c.5-.04,.93-.36,1.11-.83l6.62-17.23c.26-.67-.08-1.43-.75-1.68s-1.43,.08-1.68,.75l-4.57,11.91c-.02-.16-.04-.31-.06-.46h.03c-.93-7.64,3.69-28.18,18.97-43.24,13.7-13.51,32.59-19.13,54.65-16.36-.01,.01-.02,.03-.03,.04,.65,.2,1.27,.34,1.92,.54l-11.63,1.58c-.72,.09-1.21,.76-1.12,1.47,.1,.71,.75,1.21,1.47,1.12l17.21-2.34c.43-.06,.8-.33,.99-.71,.03-.06,.05-.12,.07-.18,.16-.47,.03-.99-.33-1.34l-13.28-12.83c-.52-.5-1.34-.49-1.84,.03-.49,.49-.49,1.32,.03,1.81Z"/>
  </g>
</svg>