<?xml version="1.0" encoding="UTF-8"?>
<svg id="Layer_1" data-name="Layer 1" xmlns="http://www.w3.org/2000/svg" xmlns:xlink="http://www.w3.org/1999/xlink" viewBox="0 0 881.24 932.2">
  <defs>
    <style>
      .cls-1 {
        fill: url(#linear-gradient);
      }

      .cls-2 {
        fill: #f7b882;
      }

      .cls-3 {
        fill: #f5b780;
      }

      .cls-4 {
        fill: #fff;
      }

      .cls-5 {
        fill: #905423;
      }

      .cls-6 {
        fill: #b2bcc4;
      }

      .cls-7 {
        fill: #d1e5ff;
      }

      .cls-8 {
        fill: #355775;
      }

      .cls-9 {
        fill: #46260f;
      }

      .cls-10 {
        fill: url(#linear-gradient-3);
      }

      .cls-11 {
        fill: url(#linear-gradient-2);
      }
    </style>
    <linearGradient id="linear-gradient" x1="194.38" y1="1655.45" x2="420.89" y2="1655.45" gradientTransform="translate(-417.3 1774.87) rotate(13.67) scale(1 -1)" gradientUnits="userSpaceOnUse">
      <stop offset="0" stop-color="#355775"/>
      <stop offset=".17" stop-color="#32526e"/>
      <stop offset=".6" stop-color="#2c4761"/>
      <stop offset="1" stop-color="#2a445c"/>
    </linearGradient>
    <linearGradient id="linear-gradient-2" x1="570.08" y1="1462.84" x2="554.5" y2="1450.37" gradientTransform="translate(0 1995.99) scale(1 -1)" gradientUnits="userSpaceOnUse">
      <stop offset="0" stop-color="#f8a164"/>
      <stop offset=".1" stop-color="#f8a469"/>
      <stop offset=".63" stop-color="#f7b37b"/>
      <stop offset="1" stop-color="#f7b882"/>
    </linearGradient>
    <linearGradient id="linear-gradient-3" x1="687.17" y1="1389.6" x2="761.63" y2="1389.6" gradientTransform="translate(0 1995.99) scale(1 -1)" gradientUnits="userSpaceOnUse">
      <stop offset="0" stop-color="#f8a164"/>
      <stop offset="1" stop-color="#fab57e"/>
    </linearGradient>
  </defs>
  <ellipse class="cls-6" cx="440.62" cy="648.3" rx="440.62" ry="24.64"/>
  <g>
    <path class="cls-3" d="M16.53,.53c6.47-4.11,32.89,17.11,42.42,20.09,7.33,3.51,9.87-2.28,17.87-2.06,3.99,.11,8.9,.21,11.87,3.42,2.6,3.04,3.6,8.48,3.12,12.31l-.11,.54c3.82,10.84,6.41,12.26,16.09,19.71,30.95,23.81,52.14,30.34,74.29,49.94,18.48,16.35,20.99,37.15,40.49,49.6-11.52,7.81-23.56,14.86-34.86,22.99-13.82-14.09-81.53-87.89-102.12-106.59-12.55-11.41-19.07-13.61-37.66-30.16C20.64,16.01,10.95,3.72,16.53,.53Z"/>
    <path class="cls-1" d="M381.6,271.03c-17.59-47.53-94.11-81.89-155.74-114.98-4.31-2.31-11.04-8.6-14.1-11.54-14.08,4.34-24.66,12.5-37.29,19.77,7.64,7.16,14.01,13.33,16.94,16.73,3.13,3.57,60.53,71.31,90.89,107.82,21.27,25.59,40.48,39.06,44.03,42.85,11.95-29.39,54.61-53.03,55.27-60.65Z"/>
    <path class="cls-11" d="M540.83,500.89c-.68-.15-1.24-.41-1.86-.62-.62,1.44-1.61,1.79-1.95,2.04-5.07,3.73-10.67,8.19-12.42,10.56-3.42,4.58,.32,7.16,4.11,9.75,1.99,1.37,3.66,3.02,3.09,5.64-.3,1.34-.83,1.86-.59,3.25,.18,.88,1.01,1.4,1.74,1.73,1.33,.61,2.34-.4,1.22,1.05-.9,1.16,.11,3.1,1.27,3.86,1.72,1.11,3.58-.41,3.7,3.77,.02,1.08-.25,2.13-.17,3.22,.07,1.16,1.2,1.71,2.25,1.76,3.14,.14,6.26-.14,9.38,.31,.94,.2,1.83,.42,2.62,.64,.35,.13,.7,.28,1.02,.45-1.21,1.11-1.45,4.18-.53,6,.09-1.82,1.21-3.55,2.86-4.47,1.44,1.17,2.69,2.64,4.04,4.18,2.5,2.85,5.47,5.26,8.69,7.29,1.67,1.07,26.26,4.59,32.36,3.72,5.78,3.83-16.44-54.18-60.83-64.13h0Z"/>
    <g>
      <path class="cls-5" d="M652.23,485.27c-6.92-6.46-17.5-12.14-24.1-12.18-10.08-.04-13.55,6.92-14.62,10.14-.29-.36-.64-.74-1.04-1.11-2.33-2.17-7.12-6.24-17.47-6.94-18.35-1.24-37.77,17.36-37.77,17.36,0,0,3.6,.7,11.54,13.79l.24,.4,.46-.1c.11-.02,10.82-2.31,18.2,4.57,1.71,1.59,3.13,3.58,4.23,5.9,.89,1.88,.7,5.21-1.15,7.54-1.15,1.45-3.34,3-7.22,2.15l-2.18-.48,1.58,1.58c25.81,25.94,25.49,40.48,25.38,45.95v.58l.1,.02c.31-.28,.53-.58,.87-.85,10.95-8.74,35.91-24.66,36.88-24.93,1.31-4.11,2.1-7.98,2.55-10.94,.42,1.24,.68,2.39,.78,3.42,.19,2.05,1.89,2.93,3.49,2.03,1.18-.66,2.26-2.29,1.85-4.32-.31-1.54-1.19-3.21-2.42-4.68,1.42,.64,2.63,1.36,3.56,2.11,1.45,1.19,2.71,.76,3.34,.04,1.12-1.27,.98-4-1.22-5.44-.59-.39-1.29-.72-2.06-.98,3.14-1.34,6.67-3.76,8.79-8.08,5.99-12.16-3.69-28.24-12.59-36.55h0Z"/>
      <path class="cls-9" d="M652.97,543.18c-1.6,.89-3.29,.01-3.49-2.03-.1-1.03-.36-2.17-.78-3.41-.07,.46-34.15-23.04-37.36-56.56,.44,.33,.81,.65,1.14,.95,.16,.15,.28,.31,.43,.46,.03,.1,.03,.19,.07,.3,17.33,48.02,43.49,46.84,43.05,47.03,.78,.26,1.47,.59,2.06,.98,2.2,1.44,2.34,4.16,1.22,5.44-.63,.73-1.89,1.15-3.34-.04-.93-.75-2.13-1.47-3.56-2.11,1.23,1.47,2.1,3.14,2.42,4.68,.4,2.02-.68,3.65-1.86,4.31h0Z"/>
    </g>
    <path class="cls-2" d="M786.06,631.3c-19.55,2.55-45.76-7.28-47.59-7.45-8.18-.76-17.53-3.58-25.89-7.46l4.59-.54c2.85-.66,5.57-1.43,8.88-2.08l5.1-.9,3.7-.61,11.04-1.74c5.13-.82,10.22-1.57,14.71-2.6,0,0,1.94-2.07,.48-2.99-2.97-2.01-7.13-3.17-10.88-3.96-3.81-.81-7.5-1.28-10.88-1.63-8.62-.79-15.24-.96-18.93-1.01-2.01,.34-4.68,.65-8.04,.69-6.65,.04-15.93-.78-26.62-4.21-11.92-13.35-24.03-26.84-37.23-38.72-.68-.61-1.38-1.17-2.08-1.76h-.06c-1.24-1.04-2.47-2.09-3.74-3.07-1.28-.71-2.64-1.56-4.04-2.49-.17-.12-.34-.22-.52-.34-1.34-.91-2.72-1.92-4.14-3.01-.25-.19-.5-.38-.75-.58-1.41-1.09-2.85-2.26-4.32-3.49-.27-.23-.55-.46-.82-.7-1.49-1.27-3.01-2.6-4.55-3.99-.21-.19-.42-.39-.64-.58-1.53-1.39-3.08-2.83-4.64-4.31-.13-.12-.25-.24-.38-.36-1.6-1.53-3.21-3.1-4.82-4.7-.29-.28-.57-.56-.86-.85-1.54-1.53-3.07-3.09-4.6-4.65-.35-.36-.7-.72-1.05-1.08-1.5-1.54-2.98-3.09-4.45-4.65-.34-.36-.69-.73-1.03-1.09-1.49-1.58-2.96-3.15-4.41-4.71-.24-.26-.48-.52-.71-.78-1.37-1.48-2.71-2.95-4.02-4.39-.23-.25-.46-.51-.69-.76-1.36-1.5-2.67-2.97-3.96-4.41-.33-.37-.66-.74-.98-1.1-1.22-1.37-2.4-2.7-3.54-3.99-.32-.36-.64-.72-.95-1.08-1.09-1.25-2.15-2.46-3.15-3.6-.32-.36-.62-.71-.93-1.06-.86-.99-1.69-1.95-2.46-2.83-.52-.61-1.02-1.18-1.5-1.73-.3-.34-.59-.69-.87-1.01-1.18-1.36-2.18-2.52-2.99-3.46-.03-.03-.07-.08-.1-.11h0c-1.18-1.36-1.97-2.25-2.23-2.49-.03,.02-.16,.06-.24,.1h0c-.12,.05-.19,.08-.39,.15,.06-.12,.1-.25,.16-.37-4.19-4.05-7.19-6.96-8.33-8.1-1.02-1.53-2.01-3.1-3.05-4.59-13.1-18.88-49.69-76.41-58.56-87.71-8.88-12.11-38.3-41.44-47.99-51.93-10.5-12.11-42.58-47.97-50.25-56.28-8-8.68-18.94-16.92-35.43-19.49-28.8-5.84-42.13,.29-64.33,24.88-24.39,28.72-46.68,66.6-58.32,102.32-24.38,74.85-45.51,70.5-64.21,100.96-18.69,30.46-17.06,55.7-31.69,88.77-7.31,16.54-11.92,29.59-20.04,46.13-2.38,4.36-5.99,8.57-9.75,12.76-6.23,6.96-11.03,17.49-6.77,24.08,8.13,13.06,18.94,4.74,31.94,5.61,12.2,.87,48.49,13.05,59.87,6.09,8.94-6.09,19.8-3.87,13.3-8.22-8.94-8.71-57.75-16.19-57.98-29.88-.38-23.57,75.81-125.09,83.76-134.4,8.87-10.38,15.17-24.58,28.45-37.42,24.23-22.9,75.39-97.82,89.8-121.19l1.03,2.48c8.48,4.44,34.73,19.56,46.84,49.83,6.3,15.76,15.93,53.99,15.93,53.99-.06,13.46,4.41,26.05,17.36,33.46,15.34,7.26,33.1,4.84,49.24,4.84,6.46,0,16.81,2.36,24.48,6.12,3.8,3.27,9.65,7.7,15.73,12.24h0c.57,.43,1.15,.85,1.72,1.28,.11,.08,.22,.17,.34,.25h0c1.28,.95,2.55,1.9,3.81,2.85,1.71,1.27,3.4,2.54,5.01,3.76-.22,.51-.48,.85-.75,1.13h0c2.12,1.9,4.24,3.8,6.36,5.7,9.59,8.59,19.16,17.25,28.2,26.41,.1,.1,.2,.19,.3,.29,3.71,3.77,7.33,7.62,10.82,11.58,1.12,1.27,2.15,2.56,3.14,3.86,.07,.09,.13,.18,.2,.27,6.82,9.15,11.02,18.99,20.36,26.12,3.2,1.88,8.01,4.25,11.72,5.72,3.75,1.86,7.56,3.64,11.43,5.4,16.15,8.07,33.1,19.38,48.44,29.87,10.72,7.34,19.47,15.46,30.11,21.07l5.94,2.61c18.3,4.44,29.6,15.34,36.06,14.53,0-4.84-6.46-6.46-8.88-10.49,8.88-.81,43.73-2.16,45.34-5.39,1.17-2.53,5.3-8.54-1.69-7.63h0Z"/>
    <path class="cls-10" d="M687.17,595.9c2.05,7.18,22.11,20.86,26.68,21-.41-.19-.85-.34-1.26-.53l4.59-.54c2.85-.66,5.57-1.43,8.88-2.08l5.1-.9,3.7-.61,11.04-1.74c5.13-.82,10.22-1.57,14.71-2.6,0,0,1.94-2.07,.48-2.99-2.97-2.01-7.13-3.17-10.88-3.96-3.81-.81-7.5-1.28-10.88-1.63-8.62-.79-15.24-.96-18.93-1.01-2.01,.34-4.68,.65-8.04,.69-6.41,.06-25.28-3.39-25.19-3.1h0Z"/>
    <path class="cls-4" d="M470.79,451.99c-6.71-12.19-2.67-29.08,5.84-41.97,7.83-11.87,20.41-15.85,33.38-15.11-5.7-8.54-10.4-15.39-12.88-18.56-5.26-7.18-17.73-20.39-29.03-32.15-2.38-2.48-34.69,37.29-50.04,58.56-1.31,1.82-2.82,3.2-4.41,4.37,4.15,14.46,7.64,28.31,7.64,28.31-.06,13.46,4.41,26.05,17.36,33.46,15.34,7.26,33.1,4.84,49.24,4.84,3.68,0,8.64,.79,13.63,2.15-8.38-6.39-25.72-14.79-30.73-23.9h0Z"/>
    <path class="cls-8" d="M359.05,239.12c-28.04-7.22-42.96-3-65.16,21.59-24.39,28.72-41.43,79.43-53.07,115.14-16.96,52.08-32.35,65.82-46.45,79.62,15.27,10.49,31.95,19.58,46.02,30.83,8.27-10.23,14.61-23.7,27.3-35.97,22.47-21.24,71.13-91.34,89.12-119.43,.26-1.02,7.48,3.96,7.75,2.97,8.76-31.21,30.81-60.34,34.63-66.07-11.26-12.32-32.5-26.34-40.14-28.68h0Z"/>
    <path class="cls-9" d="M553.39,554.48s2.35-5.88,9.61-9.76c5.07-2.71-12.19-2.46-9.61,9.76Z"/>
    <path class="cls-7" d="M417.25,418.64c-.13,0-.27-.04-.38-.13-.28-.21-.34-.61-.12-.89,.39-.52,39.56-52.17,57.26-66.5,.27-.22,.67-.18,.9,.09,.22,.27,.18,.67-.09,.9-17.58,14.23-56.65,65.76-57.04,66.28-.15,.16-.34,.25-.53,.25h0Z"/>
  </g>
</svg>