<?xml version="1.0" encoding="utf-8"?>
<!-- Generator: Adobe Illustrator 26.5.0, SVG Export Plug-In . SVG Version: 6.00 Build 0)  -->
<svg version="1.1" id="Layer_1" xmlns="http://www.w3.org/2000/svg" xmlns:xlink="http://www.w3.org/1999/xlink" x="0px" y="0px"
	 viewBox="0 0 250 400" style="enable-background:new 0 0 250 400;" xml:space="preserve">
<style type="text/css">
	.st0{fill:#355775;}
	.st1{font-family:'FarmWaveFree-Regular';}
	.st2{font-size:19.4118px;}
	.st3{letter-spacing:1;}
	.st4{fill:#B2BCC4;}
	.st5{fill:#F5B780;}
	.st6{fill:url(#SVGID_1_);}
	.st7{fill:url(#SVGID_00000014630646647808791980000012130359442164714673_);}
	.st8{fill:#905423;}
	.st9{fill:#46260F;}
	.st10{fill:#F7B882;}
	.st11{fill:url(#SVGID_00000023268137781499090230000016761640677469260731_);}
	.st12{fill:#FFFFFF;}
	.st13{fill:#D1E5FF;}
</style>
<g>
	<text transform="matrix(1 0 0 1 24.1484 365.8389)" class="st0 st1 st2 st3">Downward_facing_dog</text>
</g>
<g>
	<ellipse class="st4" cx="124.03" cy="329.72" rx="100.32" ry="5.61"/>
	<g>
		<path class="st5" d="M27.47,182.24c1.47-0.94,7.49,3.9,9.66,4.57c1.67,0.8,2.25-0.52,4.07-0.47c0.91,0.03,2.03,0.05,2.7,0.78
			c0.59,0.69,0.82,1.93,0.71,2.8l-0.03,0.12c0.87,2.47,1.46,2.79,3.66,4.49c7.05,5.42,11.87,6.91,16.91,11.37
			c4.21,3.72,4.78,8.46,9.22,11.29c-2.62,1.78-5.36,3.38-7.94,5.23c-3.15-3.21-18.56-20.01-23.25-24.27
			c-2.86-2.6-4.34-3.1-8.57-6.87C28.41,185.76,26.2,182.96,27.47,182.24z"/>
		
			<linearGradient id="SVGID_1_" gradientUnits="userSpaceOnUse" x1="224.8519" y1="-1428.3582" x2="276.4267" y2="-1428.3582" gradientTransform="matrix(0.9717 0.2363 -0.2363 0.9717 -495.2682 1565.2008)">
			<stop  offset="0" style="stop-color:#355775"/>
			<stop  offset="0.17" style="stop-color:#32526E"/>
			<stop  offset="0.6" style="stop-color:#2C4761"/>
			<stop  offset="1" style="stop-color:#2A445C"/>
		</linearGradient>
		<path class="st6" d="M110.59,243.83c-4-10.82-21.43-18.65-35.46-26.18c-0.98-0.53-2.51-1.96-3.21-2.63
			c-3.21,0.99-5.61,2.85-8.49,4.5c1.74,1.63,3.19,3.04,3.86,3.81c0.71,0.81,13.78,16.24,20.69,24.55c4.84,5.83,9.22,8.89,10.02,9.76
			C100.73,250.94,110.44,245.56,110.59,243.83L110.59,243.83z"/>
		
			<linearGradient id="SVGID_00000144326834850915525570000003354264455536219786_" gradientUnits="userSpaceOnUse" x1="326.0094" y1="-1471.4829" x2="322.4621" y2="-1468.6437" gradientTransform="matrix(1 0 0 1 -172.5 1774.99)">
			<stop  offset="0" style="stop-color:#F8A164"/>
			<stop  offset="0.1" style="stop-color:#F8A469"/>
			<stop  offset="0.63" style="stop-color:#F7B37B"/>
			<stop  offset="1" style="stop-color:#F7B882"/>
		</linearGradient>
		<path style="fill:url(#SVGID_00000144326834850915525570000003354264455536219786_);" d="M146.85,296.16
			c-0.15-0.03-0.28-0.09-0.42-0.14c-0.14,0.33-0.37,0.41-0.44,0.46c-1.15,0.85-2.43,1.86-2.83,2.4c-0.78,1.04,0.07,1.63,0.94,2.22
			c0.45,0.31,0.83,0.69,0.7,1.28c-0.07,0.31-0.19,0.42-0.13,0.74c0.04,0.2,0.23,0.32,0.4,0.39c0.3,0.14,0.53-0.09,0.28,0.24
			c-0.2,0.26,0.03,0.71,0.29,0.88c0.39,0.25,0.82-0.09,0.84,0.86c0,0.25-0.06,0.48-0.04,0.73c0.02,0.26,0.27,0.39,0.51,0.4
			c0.71,0.03,1.43-0.03,2.14,0.07c0.21,0.05,0.42,0.1,0.6,0.15c0.08,0.03,0.16,0.06,0.23,0.1c-0.28,0.25-0.33,0.95-0.12,1.37
			c0.02-0.41,0.28-0.81,0.65-1.02c0.33,0.27,0.61,0.6,0.92,0.95c0.57,0.65,1.25,1.2,1.98,1.66c0.38,0.24,5.98,1.05,7.37,0.85
			C162.01,311.63,156.96,298.43,146.85,296.16L146.85,296.16L146.85,296.16z"/>
		<g>
			<path class="st8" d="M172.21,292.6c-1.58-1.47-3.98-2.76-5.49-2.77c-2.3-0.01-3.09,1.58-3.33,2.31
				c-0.07-0.08-0.15-0.17-0.24-0.25c-0.53-0.49-1.62-1.42-3.98-1.58c-4.18-0.28-8.6,3.95-8.6,3.95s0.82,0.16,2.63,3.14l0.05,0.09
				l0.1-0.02c0.03,0,2.46-0.53,4.14,1.04c0.39,0.36,0.71,0.82,0.96,1.34c0.2,0.43,0.16,1.19-0.26,1.72
				c-0.26,0.33-0.76,0.68-1.64,0.49l-0.5-0.11l0.36,0.36c5.88,5.91,5.8,9.22,5.78,10.46v0.13l0.02,0c0.07-0.06,0.12-0.13,0.2-0.19
				c2.49-1.99,8.18-5.61,8.4-5.68c0.3-0.94,0.48-1.82,0.58-2.49c0.1,0.28,0.15,0.54,0.18,0.78c0.04,0.47,0.43,0.67,0.79,0.46
				c0.27-0.15,0.51-0.52,0.42-0.98c-0.07-0.35-0.27-0.73-0.55-1.07c0.32,0.15,0.6,0.31,0.81,0.48c0.33,0.27,0.62,0.17,0.76,0.01
				c0.26-0.29,0.22-0.91-0.28-1.24c-0.13-0.09-0.29-0.16-0.47-0.22c0.71-0.31,1.52-0.86,2-1.84
				C176.44,298.16,174.24,294.5,172.21,292.6L172.21,292.6L172.21,292.6z"/>
			<path class="st9" d="M172.38,305.79c-0.36,0.2-0.75,0-0.79-0.46c-0.02-0.23-0.08-0.49-0.18-0.78c-0.02,0.1-7.78-5.25-8.51-12.88
				c0.1,0.08,0.18,0.15,0.26,0.22c0.04,0.03,0.06,0.07,0.1,0.1c0.01,0.02,0.01,0.04,0.02,0.07c3.95,10.93,9.9,10.66,9.8,10.71
				c0.18,0.06,0.33,0.13,0.47,0.22c0.5,0.33,0.53,0.95,0.28,1.24c-0.14,0.17-0.43,0.26-0.76-0.01c-0.21-0.17-0.48-0.33-0.81-0.48
				c0.28,0.33,0.48,0.71,0.55,1.07C172.9,305.27,172.65,305.64,172.38,305.79L172.38,305.79L172.38,305.79z"/>
		</g>
		<path class="st10" d="M202.68,325.85c-4.45,0.58-10.42-1.66-10.84-1.7c-1.86-0.17-3.99-0.82-5.89-1.7l1.05-0.12
			c0.65-0.15,1.27-0.33,2.02-0.47l1.16-0.2l0.84-0.14l2.51-0.4c1.17-0.19,2.33-0.36,3.35-0.59c0,0,0.44-0.47,0.11-0.68
			c-0.68-0.46-1.62-0.72-2.48-0.9c-0.87-0.18-1.71-0.29-2.48-0.37c-1.96-0.18-3.47-0.22-4.31-0.23c-0.46,0.08-1.07,0.15-1.83,0.16
			c-1.51,0.01-3.63-0.18-6.06-0.96c-2.71-3.04-5.47-6.11-8.48-8.82c-0.15-0.14-0.31-0.27-0.47-0.4h-0.01
			c-0.28-0.24-0.56-0.48-0.85-0.7c-0.29-0.16-0.6-0.36-0.92-0.57c-0.04-0.03-0.08-0.05-0.12-0.08c-0.31-0.21-0.62-0.44-0.94-0.69
			c-0.06-0.04-0.11-0.09-0.17-0.13c-0.32-0.25-0.65-0.51-0.98-0.79c-0.06-0.05-0.13-0.1-0.19-0.16c-0.34-0.29-0.69-0.59-1.04-0.91
			c-0.05-0.04-0.1-0.09-0.15-0.13c-0.35-0.32-0.7-0.64-1.06-0.98c-0.03-0.03-0.06-0.05-0.09-0.08c-0.36-0.35-0.73-0.71-1.1-1.07
			c-0.07-0.06-0.13-0.13-0.2-0.19c-0.35-0.35-0.7-0.7-1.05-1.06c-0.08-0.08-0.16-0.16-0.24-0.25c-0.34-0.35-0.68-0.7-1.01-1.06
			c-0.08-0.08-0.16-0.17-0.23-0.25c-0.34-0.36-0.67-0.72-1-1.07c-0.05-0.06-0.11-0.12-0.16-0.18c-0.31-0.34-0.62-0.67-0.92-1
			c-0.05-0.06-0.1-0.12-0.16-0.17c-0.31-0.34-0.61-0.68-0.9-1c-0.08-0.08-0.15-0.17-0.22-0.25c-0.28-0.31-0.55-0.61-0.81-0.91
			c-0.07-0.08-0.15-0.16-0.22-0.25c-0.25-0.28-0.49-0.56-0.72-0.82c-0.07-0.08-0.14-0.16-0.21-0.24c-0.2-0.23-0.38-0.44-0.56-0.64
			c-0.12-0.14-0.23-0.27-0.34-0.39c-0.07-0.08-0.13-0.16-0.2-0.23c-0.27-0.31-0.5-0.57-0.68-0.79c-0.01-0.01-0.02-0.02-0.02-0.03
			l0,0c-0.27-0.31-0.45-0.51-0.51-0.57c-0.01,0-0.04,0.01-0.05,0.02l0,0c-0.03,0.01-0.04,0.02-0.09,0.03
			c0.01-0.03,0.02-0.06,0.04-0.08c-0.95-0.92-1.64-1.58-1.9-1.84c-0.23-0.35-0.46-0.71-0.69-1.05c-2.98-4.3-11.31-17.4-13.33-19.97
			c-2.02-2.76-8.72-9.44-10.93-11.82c-2.39-2.76-9.69-10.92-11.44-12.81c-1.82-1.98-4.31-3.85-8.07-4.44
			c-6.56-1.33-9.59,0.07-14.65,5.66c-5.55,6.54-10.63,15.16-13.28,23.3c-5.55,17.04-10.36,16.05-14.62,22.99
			c-4.26,6.94-3.88,12.68-7.22,20.21c-1.66,3.77-2.71,6.74-4.56,10.5c-0.54,0.99-1.36,1.95-2.22,2.91
			c-1.42,1.58-2.51,3.98-1.54,5.48c1.85,2.97,4.31,1.08,7.27,1.28c2.78,0.2,11.04,2.97,13.63,1.39c2.04-1.39,4.51-0.88,3.03-1.87
			c-2.04-1.98-13.15-3.69-13.2-6.8c-0.09-5.37,17.26-28.48,19.07-30.6c2.02-2.36,3.45-5.6,6.48-8.52
			c5.52-5.21,17.17-22.27,20.45-27.59l0.23,0.56c1.93,1.01,7.91,4.45,10.66,11.35c1.43,3.59,3.63,12.29,3.63,12.29
			c-0.01,3.06,1,5.93,3.95,7.62c3.49,1.65,7.54,1.1,11.21,1.1c1.47,0,3.83,0.54,5.57,1.39c0.87,0.74,2.2,1.75,3.58,2.79l0,0
			c0.13,0.1,0.26,0.19,0.39,0.29c0.03,0.02,0.05,0.04,0.08,0.06l0,0c0.29,0.22,0.58,0.43,0.87,0.65c0.39,0.29,0.77,0.58,1.14,0.86
			c-0.05,0.12-0.11,0.19-0.17,0.26l0,0c0.48,0.43,0.97,0.87,1.45,1.3c2.18,1.96,4.36,3.93,6.42,6.01c0.02,0.02,0.05,0.04,0.07,0.07
			c0.84,0.86,1.67,1.73,2.46,2.64c0.26,0.29,0.49,0.58,0.71,0.88c0.02,0.02,0.03,0.04,0.05,0.06c1.55,2.08,2.51,4.32,4.64,5.95
			c0.73,0.43,1.82,0.97,2.67,1.3c0.85,0.42,1.72,0.83,2.6,1.23c3.68,1.84,7.54,4.41,11.03,6.8c2.44,1.67,4.43,3.52,6.86,4.8
			l1.35,0.59c4.17,1.01,6.74,3.49,8.21,3.31c0-1.1-1.47-1.47-2.02-2.39c2.02-0.18,9.96-0.49,10.32-1.23
			C203.33,327.01,204.28,325.65,202.68,325.85L202.68,325.85L202.68,325.85z"/>
		
			<linearGradient id="SVGID_00000170277713854214631720000017213064238320352394_" gradientUnits="userSpaceOnUse" x1="352.668" y1="-1454.8082" x2="369.6224" y2="-1454.8082" gradientTransform="matrix(1 0 0 1 -172.5 1774.99)">
			<stop  offset="0" style="stop-color:#F8A164"/>
			<stop  offset="1" style="stop-color:#FAB57E"/>
		</linearGradient>
		<path style="fill:url(#SVGID_00000170277713854214631720000017213064238320352394_);" d="M180.17,317.79
			c0.47,1.63,5.03,4.75,6.07,4.78c-0.09-0.04-0.19-0.08-0.29-0.12l1.05-0.12c0.65-0.15,1.27-0.33,2.02-0.47l1.16-0.2l0.84-0.14
			l2.51-0.4c1.17-0.19,2.33-0.36,3.35-0.59c0,0,0.44-0.47,0.11-0.68c-0.68-0.46-1.62-0.72-2.48-0.9c-0.87-0.18-1.71-0.29-2.48-0.37
			c-1.96-0.18-3.47-0.22-4.31-0.23c-0.46,0.08-1.07,0.15-1.83,0.16C184.44,318.51,180.15,317.73,180.17,317.79L180.17,317.79z"/>
		<path class="st12" d="M130.9,285.03c-1.53-2.78-0.61-6.62,1.33-9.56c1.78-2.7,4.65-3.61,7.6-3.44c-1.3-1.94-2.37-3.5-2.93-4.23
			c-1.2-1.63-4.04-4.64-6.61-7.32c-0.54-0.56-7.9,8.49-11.39,13.33c-0.3,0.41-0.64,0.73-1,0.99c0.94,3.29,1.74,6.45,1.74,6.45
			c-0.01,3.06,1,5.93,3.95,7.62c3.49,1.65,7.54,1.1,11.21,1.1c0.84,0,1.97,0.18,3.1,0.49C135.99,289.01,132.04,287.1,130.9,285.03
			L130.9,285.03z"/>
		<path class="st0" d="M105.46,236.56c-6.38-1.64-9.78-0.68-14.84,4.92c-5.55,6.54-9.43,18.08-12.08,26.22
			c-3.86,11.86-7.37,14.99-10.58,18.13c3.48,2.39,7.27,4.46,10.48,7.02c1.88-2.33,3.33-5.4,6.22-8.19
			c5.12-4.84,16.2-20.8,20.29-27.19c0.06-0.23,1.7,0.9,1.76,0.68c1.99-7.11,7.01-13.74,7.88-15.04
			C112.04,240.28,107.2,237.09,105.46,236.56L105.46,236.56L105.46,236.56z"/>
		<path class="st9" d="M149.71,308.36c0,0,0.54-1.34,2.19-2.22C153.05,305.52,149.12,305.58,149.71,308.36z"/>
		<path class="st13" d="M118.71,277.43c-0.03,0-0.06-0.01-0.09-0.03c-0.06-0.05-0.08-0.14-0.03-0.2
			c0.09-0.12,9.01-11.88,13.04-15.14c0.06-0.05,0.15-0.04,0.2,0.02c0.05,0.06,0.04,0.15-0.02,0.2c-4,3.24-12.9,14.97-12.99,15.09
			C118.8,277.41,118.75,277.43,118.71,277.43L118.71,277.43L118.71,277.43z"/>
	</g>
</g>
</svg>
