<?xml version="1.0" encoding="utf-8"?>
<!-- Generator: Adobe Illustrator 26.5.0, SVG Export Plug-In . SVG Version: 6.00 Build 0)  -->
<svg version="1.1" id="Layer_1" xmlns="http://www.w3.org/2000/svg" xmlns:xlink="http://www.w3.org/1999/xlink" x="0px" y="0px"
	 viewBox="0 0 250 161.3" style="enable-background:new 0 0 250 161.3;" xml:space="preserve">
<style type="text/css">
	.st0{fill:#B2BCC4;}
	.st1{fill:#F5B780;}
	.st2{fill:url(#SVGID_1_);}
	.st3{fill:url(#SVGID_00000036965059396337116500000003130075033635997576_);}
	.st4{fill:#905423;}
	.st5{fill:#46260F;}
	.st6{fill:#F7B882;}
	.st7{fill:url(#SVGID_00000033364288966976683340000003350154664861751954_);}
	.st8{fill:#FFFFFF;}
	.st9{fill:#355775;}
	.st10{fill:#D1E5FF;}
</style>
<g>
	<ellipse class="st0" cx="124" cy="155.7" rx="100.3" ry="5.6"/>
	<g>
		<path class="st1" d="M27.5,8.2c1.5-0.9,7.5,3.9,9.7,4.6c1.7,0.8,2.2-0.5,4.1-0.5c0.9,0,2,0.1,2.7,0.8c0.6,0.7,0.8,1.9,0.7,2.8V16
			c0.9,2.5,1.5,2.8,3.7,4.5c7,5.4,11.9,6.9,16.9,11.4c4.2,3.7,4.8,8.5,9.2,11.3c-2.6,1.8-5.4,3.4-7.9,5.2
			c-3.2-3.2-18.6-20-23.2-24.3c-2.9-2.6-4.3-3.1-8.6-6.9C28.4,11.8,26.2,9,27.5,8.2z"/>
		
			<linearGradient id="SVGID_1_" gradientUnits="userSpaceOnUse" x1="224.8601" y1="-1602.2948" x2="276.4692" y2="-1602.2948" gradientTransform="matrix(0.9717 0.2363 -0.2363 0.9717 -536.3844 1560.2766)">
			<stop  offset="0" style="stop-color:#355775"/>
			<stop  offset="0.17" style="stop-color:#32526E"/>
			<stop  offset="0.6" style="stop-color:#2C4761"/>
			<stop  offset="1" style="stop-color:#2A445C"/>
		</linearGradient>
		<path class="st2" d="M110.6,69.8c-4-10.8-21.4-18.6-35.5-26.2c-1-0.5-2.5-2-3.2-2.6c-3.2,1-5.6,2.9-8.5,4.5c1.7,1.6,3.2,3,3.9,3.8
			C68,50.1,81.1,65.5,88,73.9c4.8,5.8,9.2,8.9,10,9.8C100.7,76.9,110.4,71.6,110.6,69.8L110.6,69.8z"/>
		
			<linearGradient id="SVGID_00000083769388411246808520000008756092725472966805_" gradientUnits="userSpaceOnUse" x1="326.1094" y1="-1645.3579" x2="322.5621" y2="-1642.5187" gradientTransform="matrix(1 0 0 1 -172.5 1774.99)">
			<stop  offset="0" style="stop-color:#F8A164"/>
			<stop  offset="0.1" style="stop-color:#F8A469"/>
			<stop  offset="0.63" style="stop-color:#F7B37B"/>
			<stop  offset="1" style="stop-color:#F7B882"/>
		</linearGradient>
		<path style="fill:url(#SVGID_00000083769388411246808520000008756092725472966805_);" d="M146.9,122.2c-0.1,0-0.3-0.1-0.4-0.1
			c-0.1,0.3-0.4,0.4-0.4,0.5c-1.1,0.9-2.4,1.9-2.8,2.4c-0.8,1,0.1,1.6,0.9,2.2c0.4,0.3,0.8,0.7,0.7,1.3c-0.1,0.3-0.2,0.4-0.1,0.7
			c0,0.2,0.2,0.3,0.4,0.4c0.3,0.1,0.5-0.1,0.3,0.2c-0.2,0.3,0,0.7,0.3,0.9c0.4,0.2,0.8-0.1,0.8,0.9c0,0.2-0.1,0.5,0,0.7
			c0,0.3,0.3,0.4,0.5,0.4c0.7,0,1.4,0,2.1,0.1c0.2,0,0.4,0.1,0.6,0.1c0.1,0,0.2,0.1,0.2,0.1c-0.3,0.2-0.3,1-0.1,1.4
			c0-0.4,0.3-0.8,0.6-1c0.3,0.3,0.6,0.6,0.9,1c0.6,0.6,1.2,1.2,2,1.7c0.4,0.2,6,1,7.4,0.9C162,137.6,157,124.4,146.9,122.2
			L146.9,122.2L146.9,122.2z"/>
		<g>
			<path class="st4" d="M172.2,118.6c-1.6-1.5-4-2.8-5.5-2.8c-2.3,0-3.1,1.6-3.3,2.3c-0.1-0.1-0.1-0.2-0.2-0.2
				c-0.5-0.5-1.6-1.4-4-1.6c-4.2-0.3-8.6,4-8.6,4s0.8,0.2,2.6,3.1l0.1,0.1h0.1c0,0,2.5-0.5,4.1,1c0.4,0.4,0.7,0.8,1,1.3
				c0.2,0.4,0.2,1.2-0.3,1.7c-0.3,0.3-0.8,0.7-1.6,0.5l-0.5-0.1l0.4,0.4c5.9,5.9,5.8,9.2,5.8,10.5v0.1l0,0c0.1-0.1,0.1-0.1,0.2-0.2
				c2.5-2,8.2-5.6,8.4-5.7c0.3-0.9,0.5-1.8,0.6-2.5c0.1,0.3,0.1,0.5,0.2,0.8c0,0.5,0.4,0.7,0.8,0.5c0.3-0.1,0.5-0.5,0.4-1
				c-0.1-0.4-0.3-0.7-0.6-1.1c0.3,0.1,0.6,0.3,0.8,0.5c0.3,0.3,0.6,0.2,0.8,0c0.3-0.3,0.2-0.9-0.3-1.2c-0.1-0.1-0.3-0.2-0.5-0.2
				c0.7-0.3,1.5-0.9,2-1.8C176.4,124.2,174.2,120.5,172.2,118.6L172.2,118.6L172.2,118.6z"/>
			<path class="st5" d="M172.4,131.8c-0.4,0.2-0.8,0-0.8-0.5c0-0.2-0.1-0.5-0.2-0.8c0,0.1-7.8-5.2-8.5-12.9c0.1,0.1,0.2,0.1,0.3,0.2
				l0.1,0.1c0,0,0,0,0,0.1c3.9,10.9,9.9,10.7,9.8,10.7c0.2,0.1,0.3,0.1,0.5,0.2c0.5,0.3,0.5,1,0.3,1.2c-0.1,0.2-0.4,0.3-0.8,0
				c-0.2-0.2-0.5-0.3-0.8-0.5c0.3,0.3,0.5,0.7,0.6,1.1C172.9,131.3,172.6,131.6,172.4,131.8L172.4,131.8L172.4,131.8z"/>
		</g>
		<path class="st6" d="M202.7,151.9c-4.4,0.6-10.4-1.7-10.8-1.7c-1.9-0.2-4-0.8-5.9-1.7l1.1-0.1c0.6-0.1,1.3-0.3,2-0.5l1.2-0.2
			l0.8-0.1l2.5-0.4c1.2-0.2,2.3-0.4,3.4-0.6c0,0,0.4-0.5,0.1-0.7c-0.7-0.5-1.6-0.7-2.5-0.9c-0.9-0.2-1.7-0.3-2.5-0.4
			c-2-0.2-3.5-0.2-4.3-0.2c-0.5,0.1-1.1,0.1-1.8,0.2c-1.5,0-3.6-0.2-6.1-1c-2.7-3-5.5-6.1-8.5-8.8c-0.1-0.1-0.3-0.3-0.5-0.4l0,0
			c-0.3-0.2-0.6-0.5-0.9-0.7c-0.3-0.2-0.6-0.4-0.9-0.6c0,0-0.1,0-0.1-0.1c-0.3-0.2-0.6-0.4-0.9-0.7c-0.1,0-0.1-0.1-0.2-0.1
			c-0.3-0.2-0.6-0.5-1-0.8c-0.1,0-0.1-0.1-0.2-0.2c-0.3-0.3-0.7-0.6-1-0.9c-0.1,0-0.1-0.1-0.1-0.1c-0.4-0.3-0.7-0.6-1.1-1
			c0,0-0.1,0-0.1-0.1c-0.4-0.4-0.7-0.7-1.1-1.1c-0.1-0.1-0.1-0.1-0.2-0.2c-0.4-0.4-0.7-0.7-1.1-1.1c-0.1-0.1-0.2-0.2-0.2-0.2
			c-0.3-0.4-0.7-0.7-1-1.1c-0.1-0.1-0.2-0.2-0.2-0.2c-0.3-0.4-0.7-0.7-1-1.1c-0.1-0.1-0.1-0.1-0.2-0.2c-0.3-0.3-0.6-0.7-0.9-1
			c-0.1-0.1-0.1-0.1-0.2-0.2c-0.3-0.3-0.6-0.7-0.9-1c-0.1-0.1-0.1-0.2-0.2-0.2c-0.3-0.3-0.6-0.6-0.8-0.9c-0.1-0.1-0.1-0.2-0.2-0.2
			c-0.2-0.3-0.5-0.6-0.7-0.8c-0.1-0.1-0.1-0.2-0.2-0.2c-0.2-0.2-0.4-0.4-0.6-0.6c-0.1-0.1-0.2-0.3-0.3-0.4s-0.1-0.2-0.2-0.2
			c-0.3-0.3-0.5-0.6-0.7-0.8l0,0l0,0c-0.3-0.3-0.4-0.5-0.5-0.6c0,0,0,0-0.1,0l0,0c0,0,0,0-0.1,0v-0.1c-0.9-0.9-1.6-1.6-1.9-1.8
			c-0.2-0.4-0.5-0.7-0.7-1c-3-4.3-11.3-17.4-13.3-20c-2-2.8-8.7-9.4-10.9-11.8c-2.4-2.8-9.7-10.9-11.4-12.8c-1.8-2-4.3-3.9-8.1-4.4
			c-6.6-1.3-9.6,0.1-14.7,5.7c-5.6,6.5-10.6,15.2-13.3,23.3c-5.6,17-10.4,16-14.6,23s-3.9,12.7-7.2,20.2c-1.7,3.8-2.7,6.7-4.6,10.5
			c-0.5,1-1.4,2-2.2,2.9c-1.4,1.6-2.5,4-1.5,5.5c1.8,3,4.3,1.1,7.3,1.3c2.8,0.2,11,3,13.6,1.4c2-1.4,4.5-0.9,3-1.9
			c-2-2-13.2-3.7-13.2-6.8c-0.1-5.4,17.3-28.5,19.1-30.6c2-2.4,3.4-5.6,6.5-8.5c5.5-5.2,17.2-22.3,20.5-27.6l0.2,0.6
			c1.9,1,7.9,4.5,10.7,11.4c1.4,3.6,3.6,12.3,3.6,12.3c0,3.1,1,5.9,3.9,7.6c3.5,1.6,7.5,1.1,11.2,1.1c1.5,0,3.8,0.5,5.6,1.4
			c0.9,0.7,2.2,1.8,3.6,2.8l0,0c0.1,0.1,0.3,0.2,0.4,0.3c0,0,0.1,0,0.1,0.1l0,0c0.3,0.2,0.6,0.4,0.9,0.6c0.4,0.3,0.8,0.6,1.1,0.9
			c-0.1,0.1-0.1,0.2-0.2,0.3l0,0c0.5,0.4,1,0.9,1.4,1.3c2.2,2,4.4,3.9,6.4,6c0,0,0.1,0,0.1,0.1c0.8,0.9,1.7,1.7,2.5,2.6
			c0.3,0.3,0.5,0.6,0.7,0.9c0,0,0,0,0.1,0.1c1.6,2.1,2.5,4.3,4.6,6c0.7,0.4,1.8,1,2.7,1.3c0.9,0.4,1.7,0.8,2.6,1.2
			c3.7,1.8,7.5,4.4,11,6.8c2.4,1.7,4.4,3.5,6.9,4.8l1.4,0.6c4.2,1,6.7,3.5,8.2,3.3c0-1.1-1.5-1.5-2-2.4c2-0.2,10-0.5,10.3-1.2
			C203.3,153,204.3,151.6,202.7,151.9L202.7,151.9L202.7,151.9z"/>
		
			<linearGradient id="SVGID_00000022534912650166784950000010896108059832996019_" gradientUnits="userSpaceOnUse" x1="352.6699" y1="-1628.7943" x2="369.6128" y2="-1628.7943" gradientTransform="matrix(1 0 0 1 -172.5 1774.99)">
			<stop  offset="0" style="stop-color:#F8A164"/>
			<stop  offset="1" style="stop-color:#FAB57E"/>
		</linearGradient>
		<path style="fill:url(#SVGID_00000022534912650166784950000010896108059832996019_);" d="M180.2,143.8c0.5,1.6,5,4.8,6.1,4.8
			c-0.1,0-0.2-0.1-0.3-0.1l1.1-0.1c0.6-0.1,1.3-0.3,2-0.5l1.2-0.2l0.8-0.1l2.5-0.4c1.2-0.2,2.3-0.4,3.4-0.6c0,0,0.4-0.5,0.1-0.7
			c-0.7-0.5-1.6-0.7-2.5-0.9c-0.9-0.2-1.7-0.3-2.5-0.4c-2-0.2-3.5-0.2-4.3-0.2c-0.5,0.1-1.1,0.1-1.8,0.2
			C184.4,144.5,180.1,143.7,180.2,143.8L180.2,143.8z"/>
		<path class="st8" d="M130.9,111c-1.5-2.8-0.6-6.6,1.3-9.6c1.8-2.7,4.6-3.6,7.6-3.4c-1.3-1.9-2.4-3.5-2.9-4.2
			c-1.2-1.6-4-4.6-6.6-7.3c-0.5-0.6-7.9,8.5-11.4,13.3c-0.3,0.4-0.6,0.7-1,1c0.9,3.3,1.7,6.5,1.7,6.5c0,3.1,1,5.9,3.9,7.6
			c3.5,1.6,7.5,1.1,11.2,1.1c0.8,0,2,0.2,3.1,0.5C136,115,132,113.1,130.9,111L130.9,111z"/>
		<path class="st9" d="M105.5,62.6c-6.4-1.6-9.8-0.7-14.8,4.9c-5.6,6.5-9.4,18.1-12.1,26.2c-3.9,11.9-7.4,15-10.6,18.1
			c3.5,2.4,7.3,4.5,10.5,7c1.9-2.3,3.3-5.4,6.2-8.2c5.1-4.8,16.2-20.8,20.3-27.2c0.1-0.2,1.7,0.9,1.8,0.7c2-7.1,7-13.7,7.9-15
			C112,66.3,107.2,63.1,105.5,62.6L105.5,62.6L105.5,62.6z"/>
		<path class="st5" d="M149.7,134.4c0,0,0.5-1.3,2.2-2.2C153.1,131.5,149.1,131.6,149.7,134.4z"/>
		<path class="st10" d="M118.7,103.4L118.7,103.4c-0.1-0.1-0.2-0.2-0.1-0.2c0.1-0.1,9-11.9,13-15.1c0.1,0,0.1,0,0.2,0s0,0.1,0,0.2
			c-4,3.2-12.9,15-13,15.1C118.8,103.4,118.8,103.4,118.7,103.4L118.7,103.4L118.7,103.4z"/>
	</g>
</g>
</svg>
