<?xml version="1.0" encoding="UTF-8"?>
<svg id="Layer_1" data-name="Layer 1" xmlns="http://www.w3.org/2000/svg" xmlns:xlink="http://www.w3.org/1999/xlink" viewBox="0 0 878.58 771">
  <defs>
    <style>
      .cls-1 {
        fill: url(#linear-gradient);
      }

      .cls-2 {
        fill: #f7b882;
      }

      .cls-3 {
        fill: #f5b080;
      }

      .cls-4 {
        fill: #fff;
      }

      .cls-5 {
        fill: #905423;
      }

      .cls-6 {
        fill: #b2bcc4;
      }

      .cls-7 {
        fill: #d1e5ff;
      }

      .cls-8 {
        fill: #d09a6f;
      }

      .cls-9, .cls-10 {
        fill: #355775;
      }

      .cls-11 {
        fill: #46260f;
      }

      .cls-10 {
        font-family: FarmWaveFree-Regular, 'Farm Wave Free';
        font-size: 85px;
        isolation: isolate;
        letter-spacing: .08em;
      }

      .cls-12 {
        fill: url(#linear-gradient-2);
      }
    </style>
    <linearGradient id="linear-gradient" x1="713.86" y1="535.85" x2="776.61" y2="535.85" gradientUnits="userSpaceOnUse">
      <stop offset="0" stop-color="#f8a164"/>
      <stop offset=".1" stop-color="#f8a469"/>
      <stop offset=".63" stop-color="#f7b37b"/>
      <stop offset="1" stop-color="#f7b882"/>
    </linearGradient>
    <linearGradient id="linear-gradient-2" x1="144.92" y1="248.04" x2="335.09" y2="328.11" gradientUnits="userSpaceOnUse">
      <stop offset="0" stop-color="#355775"/>
      <stop offset=".17" stop-color="#32526e"/>
      <stop offset=".6" stop-color="#2c4761"/>
      <stop offset="1" stop-color="#2a445c"/>
    </linearGradient>
  </defs>
  <text class="cls-10" transform="translate(266.73 749.75)"><tspan x="0" y="0">Half bow</tspan></text>
  <g>
    <path class="cls-2" d="M45.36,23.32c1.39,2.81,4.65,33.51,10.36,55.46,1.73,6.64,43.52,109.24,72.32,177.17,12.4-11.2,49.02-16.74,66.41-17.46-3.3-11.69-7.12-26.38-13.18-38.44-14.53-28.89-58.5-71.66-65.2-78.25-5.92-7.08-10.38-12.63-11.79-14.86-5.74-9.1,15.4-23.23,7.78-38.03-4.88-9.49-18.11-11.89-26.97-22.33-8.86-10.43-6.53-13.61-10.35-26.34-3.82-12.72-12.88-14.68-24.18-18.42-12.48-4.13-17.97-.59-18.9,4.19-.94,4.79,12.3,14.5,13.7,17.31Z"/>
    <path class="cls-6" d="M878.58,584.28c0-17.81-196.67-32.25-439.29-32.25S0,566.47,0,584.28s196.68,32.25,439.29,32.25,439.29-14.44,439.29-32.25Z"/>
    <g>
      <path class="cls-2" d="M674.71,236.86c17.91,9.53,48.16,36.64,50.22,35.4,7.25,3.17,16.18,6.8,19.68,7.22,7.41,.92,7.91-5.01,8.39-10.99,.26-3.16,1.07-6.11,4.4-7.16,1.71-.53,2.64-.26,4.07-1.44,.89-.78,.94-2.04,.84-3.1-.17-1.91-1.97-2.38,.42-2.06,1.88,.27,3.44-2.14,3.55-3.94,.15-2.67-2.8-3.79,1.88-6.64,1.21-.72,2.6-1.1,3.77-1.88,1.27-.84,1.16-2.48,.54-3.71-1.88-3.64-4.22-6.99-5.74-10.84-.38-1.19-.7-2.36-.97-3.38-.08-.49-.12-.98-.15-1.46,2.03,.66,5.68-1.07,7.16-3.29-2.12,1.08-4.81,.93-6.94-.35,.41-2.38,1.26-4.77,2.14-7.29,1.59-4.67,2.42-9.62,2.62-14.58,.13-2.59-.48-9.72-2.82-17.97-80.29-1.79-86.3,54.19-93.16,56.43,.09,.32,.06,.68,.1,1.03Z"/>
      <path class="cls-2" d="M763.96,584.44c-16.93-2.17-45.64-15.82-55.16-19.08l-.05,.09c-1.59-5.56-2.76-10.64-3.61-15.39,7.9,1.49,16.23,1.53,23.97,1.53,10.67,1.08,13.44-1.29,25.02-3.46,2.67,0,12.46-2.17,12.46-8.69-.89-6.51-10.68-6.51-14.25-6.51-14.24-2.16-13.44-6.36-26.79-9.63-7.1-.95-14.19,.61-21.29-1.27-5.31-26.45-5.11-71.13-1.63-105.41,.5-4.98,6.66-55.92,5.47-96.12-.11-3.77-.8-8.66-1.47-13.92-.29-13.76,18.89-39.87,21.26-44.83-16.6-6.89-22.33-38.04-40.59-38.37-.57,3.4,1.11,23.35-30.58,43.37-19.24,12.15-127.31,18.85-166.26,15.01-42.96-4.23-62.26-25.69-111.92-22.01-21.79,1.14-50.97,12.06-57.67,63.16-9.98,76.14,41.72,162.66,60.77,204.21,.68,4.91,.61,7.97-.5,8.54-7.4,3.78-24.4-5.65-49.14-5.79-29.41-.16-87.67,27.98-96.54,31.11-8.96,2.21-15.9,3.79-18.53,4.07-10.69,1.16-15.42-23.73-32.05-23.38-10.67,.22-18.96,9.88-30.35,17.47-11.04,7.36-13.79,6.44-27.59,8.28-32.6,4.35-40.67,16.38-36.79,19.31,3.89,2.93,51.5,3.68,77.25,7.36,8,1.14,246.83,17,273.53-7.92,2.05-2.12,3.39-4.31,3.57-6.51,2.31-27.52,13.93-133.92-19.42-203.08,33.13-31.43,91.43,3.41,173.53,25.57,52.55,14.18,56.07-24.16,58.02-26.09,0,.03,.01,.06,.02,.08,5.52,33.11,7.42,75.36,6.18,102.47,0,24.65,12.84,112.31,38.93,118.29,12.37,4.21,26.8,4.28,39.83,4.28,12.71,1.08,10.74,.61,24.49-1.57,3.18,0,14.82-2.16,14.82-8.68-1.06-6.49-12.71-6.49-16.94-6.49Z"/>
      <path class="cls-1" d="M704.26,522.04c-.14-.71-.26-1.48-.4-2.21-.01,8.82-.15,17.81,1.1,26.56,.18,1.24,.24,2.47,.23,3.68,7.88,1.48,16.2,1.53,23.93,1.53,10.67,1.08,13.44-1.29,25.02-3.46,2.67,0,12.46-2.17,12.46-8.69-.88-6.51-10.68-6.51-14.24-6.51-14.24-2.16-13.44-6.36-26.79-9.63-7.12-.96-14.22,.61-21.31-1.27Z"/>
      <path class="cls-4" d="M616.12,276.23c-21.69,3.89-33.36,5-49.49,6.12-10.97,27.19-4.73,90.64,3.61,114.41,10.74,.5,14.32,1.63,28.36,5.42,37.91,10.23,50.05-5.84,56.3-20.44-13.35,5-39.62-33.78-15.85-60.47,15.82-17.76,61.72-28.78,67.56-14.18,.36-1.59,.42-4.31,.83-5.84-4.16-17.52-69.48-9.54-91.32-25.02Z"/>
      <path class="cls-9" d="M451.52,270.67c-25.58-8.9-37.68-18.35-70.78-15.9-21.79,1.14-58.13,10.52-64.84,61.62-9.99,76.14,46.66,169.21,65.71,210.76,.68,4.91,.61,7.97-.5,8.54-3.82,1.95-10.24,.38-18.91-1.61-.33,1.52-.82,3.06-1.68,4.63-10.26,18.72-2.71,41.49,8.34,58.07,.54,.8,.9,1.6,1.27,2.39,34.89-1.6,62.66-5.39,70.77-12.97,2.05-2.12,3.39-4.31,3.57-6.51,2.31-27.52,13.93-133.92-19.42-203.08,1.59,1.94,23.54-80.62,26.47-105.94Z"/>
      <path class="cls-12" d="M315.91,316.39c3.44-26.26,14.73-41.45,27.83-50.22-55.11,2.35-137.27-5.1-141.13-8-3.02-2.27-5.41-9.94-8.16-19.68-17.63,.73-55.11,6.4-66.97,17.93,14.87,35.16,25.59,57.7,27.3,59.05,10.49,8.35,100.81,47.93,162.76,50.67-2.85-16.91-3.73-33.71-1.63-49.75Z"/>
      <path class="cls-5" d="M666.62,237.9c-2.77-6.81-9.14-16.19-8.09-30.54,.91-12.34,3.84-18.54,6.14-21.56,.39-.51,.8-.98,1.19-1.36-3.95-.89-12.62-4.18-13.79-16.14-.75-7.84,2.89-17.88,9.72-26.87,8.78-11.55,24.42-23.02,39.58-17.36,5.38,2.01,8.67,5.91,10.64,9.47,.21-.95,.52-1.82,.91-2.57,1.45-2.78,4.66-3.27,6.31-2.1,.94,.66,1.6,2.1,.36,3.97-.78,1.19-1.49,2.71-2.08,4.47,1.6-1.63,3.48-2.87,5.26-3.42,2.36-.73,4.43,.36,5.35,1.68,1.25,1.8,.41,3.91-1.99,4.38-1.21,.24-2.53,.68-3.96,1.33,9.84,.5,24.34,2.24,35.36,13.96,6.68,7.11,13.59,17.4,13.06,28.93l-.03,.69-.69,.06c-20.57,12.62-36.49,11.67-45.45,28.74l-1.38-.59c.54-4.71-3.5-7.16-5.36-8.36-2.99-1.92-10.52-2.02-13.63,5.29-4.72,11.07,.64,25.09,.64,25.09,0,0-20.87,16.79-29.06,14.45l-9.01-11.64Z"/>
      <path class="cls-11" d="M728.12,135.57c1.25,1.8,.41,3.91-1.99,4.38-1.21,.24-2.53,.68-3.96,1.33,.55,.03-19.11,38.17-58.5,45.97,.34-.56,.67-1.04,.99-1.46,.16-.21,.33-.37,.5-.57,.12-.05,.23-.06,.34-.12,54.88-26.28,46.23-52.08,46.5-51.58,.21-.95,.52-1.82,.91-2.57,1.45-2.78,4.66-3.27,6.31-2.1,.94,.66,1.6,2.1,.36,3.97-.78,1.19-1.49,2.71-2.08,4.47,1.6-1.63,3.48-2.87,5.26-3.42,2.37-.71,4.44,.38,5.36,1.7Z"/>
      <path class="cls-11" d="M774.45,217.85s-7.19,3.09-16.72,.23c-6.66-2.01,8.07,12.6,16.72-.23Z"/>
      <path class="cls-8" d="M743.33,279.07s-20.42-4.67-35.38-15.54c9,3.45,20.84,9.26,35.38,15.54Z"/>
      <path class="cls-3" d="M740.93,254.47c-12.47-1.92-18.41-20.15-8.45-29.83,9.96-9.67,16.48,31.07,8.45,29.83Z"/>
      <path class="cls-7" d="M578.31,397.17c-.34,0-.66-.24-.78-.63-19.89-62.06-5.72-113.56-5.57-114.08,.14-.5,.61-.76,1.05-.61,.44,.16,.68,.7,.53,1.21-.14,.5-14.13,51.41,5.55,112.83,.16,.49-.06,1.05-.5,1.23-.09,.03-.19,.05-.28,.05Z"/>
    </g>
  </g>
</svg>