<?xml version="1.0" encoding="utf-8"?>
<!-- Generator: Adobe Illustrator 26.5.0, SVG Export Plug-In . SVG Version: 6.00 Build 0)  -->
<svg version="1.1" id="Layer_1" xmlns="http://www.w3.org/2000/svg" xmlns:xlink="http://www.w3.org/1999/xlink" x="0px" y="0px"
	 viewBox="0 0 250 128" style="enable-background:new 0 0 250 128;" xml:space="preserve">
<style type="text/css">
	.st0{fill:#F7B882;}
	.st1{fill:#B2BCC4;}
	.st2{fill:url(#SVGID_1_);}
	.st3{fill:#FFFFFF;}
	.st4{fill:#355775;}
	.st5{fill:url(#SVGID_00000065768730041758022010000006951245631962328467_);}
	.st6{fill:#905423;}
	.st7{fill:#46260F;}
	.st8{fill:#D09A6F;}
	.st9{fill:#F5B080;}
	.st10{fill:#D1E5FF;}
</style>
<g>
	<g>
		<path class="st0" d="M47.1,12.1c0.3,0.6,0.9,6.6,2,10.8c0.3,1.3,8.5,21.3,14.1,34.6c2.4-2.2,9.6-3.3,13-3.4
			c-0.6-2.3-1.4-5.1-2.6-7.5c-2.8-5.6-11.4-14-12.7-15.3c-1.2-1.4-2-2.5-2.3-2.9c-1.1-1.8,3-4.5,1.5-7.4c-1-1.9-3.5-2.3-5.3-4.4
			s-1.3-2.7-2-5.1C52,9,50.3,8.6,48.1,7.9c-2.4-0.8-3.5-0.1-3.7,0.8C44.2,9.6,46.8,11.5,47.1,12.1L47.1,12.1z"/>
		<path class="st1" d="M209.9,121.7c0-3.5-38.4-6.3-85.8-6.3s-85.8,2.8-85.8,6.3s38.4,6.3,85.8,6.3S209.9,125.1,209.9,121.7z"/>
		<g>
			<path class="st0" d="M170,53.8c3.5,1.9,9.4,7.2,9.8,6.9c1.4,0.6,3.2,1.3,3.9,1.4c1.4,0.2,1.6-1,1.6-2.1c0.1-0.6,0.2-1.2,0.9-1.4
				c0.3-0.1,0.5,0,0.8-0.3c0.2-0.1,0.2-0.4,0.2-0.6c0-0.4-0.4-0.5,0.1-0.4c0.4,0,0.7-0.4,0.7-0.8c0-0.5-0.6-0.7,0.4-1.3
				c0.2-0.1,0.5-0.2,0.7-0.4c0.2-0.2,0.2-0.5,0.1-0.7c-0.4-0.7-0.8-1.4-1.1-2.1c-0.1-0.2-0.1-0.5-0.2-0.7c0-0.1,0-0.2,0-0.3
				c0.4,0.1,1.1-0.2,1.4-0.6c-0.4,0.2-0.9,0.2-1.4-0.1c0.1-0.5,0.2-0.9,0.4-1.4c0.3-0.9,0.5-1.9,0.5-2.9c0-0.5-0.1-1.9-0.6-3.5
				c-15.7-0.4-16.9,10.6-18.2,11C170,53.6,170,53.7,170,53.8L170,53.8z"/>
			<path class="st0" d="M187.5,121.7c-3.3-0.4-8.9-3.1-10.8-3.7l0,0c-0.3-1.1-0.5-2.1-0.7-3c1.5,0.3,3.2,0.3,4.7,0.3
				c2.1,0.2,2.6-0.2,4.9-0.7c0.5,0,2.4-0.4,2.4-1.7c-0.2-1.3-2.1-1.3-2.8-1.3c-2.8-0.4-2.6-1.2-5.2-1.9c-1.4-0.2-2.8,0.1-4.2-0.2
				c-1-5.2-1-13.9-0.3-20.6c0.1-1,1.3-10.9,1.1-18.8c0-0.7-0.2-1.7-0.3-2.7c-0.1-2.7,3.7-7.8,4.1-8.8c-3.2-1.4-4.4-7.4-7.9-7.5
				c-0.1,0.7,0.2,4.6-6,8.5c-3.8,2.4-24.9,3.7-32.5,2.9c-8.4-0.8-12.2-5-21.9-4.3c-4.3,0.2-10,2.4-11.3,12.3
				c-1.9,14.9,8.2,31.8,11.9,39.9c0.1,1,0.1,1.6-0.1,1.7c-1.4,0.7-4.8-1.1-9.6-1.1c-5.8,0-17.1,5.5-18.9,6.1
				c-1.8,0.4-3.1,0.7-3.6,0.8c-2.1,0.2-3-4.6-6.3-4.6c-2.1,0-3.7,1.9-5.9,3.4c-2.2,1.4-2.7,1.3-5.4,1.6c-6.4,0.9-8,3.2-7.2,3.8
				c0.8,0.6,10.1,0.7,15.1,1.4c1.6,0.2,48.2,3.3,53.4-1.5c0.4-0.4,0.7-0.8,0.7-1.3c0.4-5.4,2.7-26.2-3.8-39.7
				c6.5-6.1,17.9,0.7,33.9,5c10.3,2.8,11-4.7,11.3-5.1l0,0c1.1,6.5,1.4,14.7,1.2,20c0,4.8,2.5,21.9,7.6,23.1
				c2.4,0.8,5.2,0.8,7.8,0.8c2.5,0.2,2.1,0.1,4.8-0.3c0.6,0,2.9-0.4,2.9-1.7C190.6,121.7,188.3,121.7,187.5,121.7L187.5,121.7z"/>
			
				<linearGradient id="SVGID_1_" gradientUnits="userSpaceOnUse" x1="350.1803" y1="50.7737" x2="362.4315" y2="50.7737" gradientTransform="matrix(1 0 0 -1 -172.5 163)">
				<stop  offset="0" style="stop-color:#F8A164"/>
				<stop  offset="0.1" style="stop-color:#F8A469"/>
				<stop  offset="0.63" style="stop-color:#F7B37B"/>
				<stop  offset="1" style="stop-color:#F7B882"/>
			</linearGradient>
			<path class="st2" d="M175.8,109.5c0-0.1-0.1-0.3-0.1-0.4c0,1.7,0,3.5,0.2,5.2c0,0.2,0.1,0.5,0,0.7c1.5,0.3,3.2,0.3,4.7,0.3
				c2.1,0.2,2.6-0.2,4.9-0.7c0.5,0,2.4-0.4,2.4-1.7c-0.2-1.3-2.1-1.3-2.8-1.3c-2.8-0.4-2.6-1.2-5.2-1.9
				C178.6,109.6,177.2,109.9,175.8,109.5L175.8,109.5z"/>
			<path class="st3" d="M158.6,61.5c-4.2,0.8-6.5,1-9.7,1.2c-2.1,5.3-0.9,17.7,0.7,22.4c2.1,0.1,2.8,0.3,5.5,1.1c7.4,2,9.8-1.1,11-4
				c-2.6,1-7.7-6.6-3.1-11.8c3.1-3.5,12.1-5.6,13.2-2.8c0.1-0.3,0.1-0.8,0.2-1.1C175.6,62.9,162.9,64.5,158.6,61.5L158.6,61.5z"/>
			<path class="st4" d="M126.4,60.4c-5-1.7-7.4-3.6-13.8-3.1c-4.3,0.2-11.4,2.1-12.7,12c-1.9,14.9,9.1,33.1,12.8,41.2
				c0.1,1,0.1,1.6-0.1,1.7c-0.8,0.4-2,0.1-3.7-0.3c-0.1,0.3-0.2,0.6-0.3,0.9c-2,3.7-0.5,8.1,1.6,11.4c0.1,0.2,0.2,0.3,0.2,0.5
				c6.8-0.3,12.2-1,13.8-2.5c0.4-0.4,0.7-0.8,0.7-1.3c0.4-5.4,2.7-26.2-3.8-39.7C121.6,81.5,125.8,65.3,126.4,60.4L126.4,60.4z"/>
			
				<linearGradient id="SVGID_00000165913038033369229210000003911073714661654968_" gradientUnits="userSpaceOnUse" x1="239.0288" y1="107.0678" x2="276.186" y2="91.4229" gradientTransform="matrix(1 0 0 -1 -172.5 163)">
				<stop  offset="0" style="stop-color:#355775"/>
				<stop  offset="0.17" style="stop-color:#32526E"/>
				<stop  offset="0.6" style="stop-color:#2C4761"/>
				<stop  offset="1" style="stop-color:#2A445C"/>
			</linearGradient>
			<path style="fill:url(#SVGID_00000165913038033369229210000003911073714661654968_);" d="M99.9,69.3c0.7-5.1,2.9-8.1,5.4-9.8
				c-10.8,0.5-26.8-1-27.6-1.6c-0.6-0.4-1.1-1.9-1.6-3.9c-3.4,0.1-10.8,1.2-13.1,3.5c2.9,6.9,5,11.3,5.3,11.5
				c2.1,1.6,19.7,9.4,31.8,9.9C99.7,75.7,99.5,72.5,99.9,69.3L99.9,69.3z"/>
			<path class="st6" d="M168.4,54c-0.5-1.3-1.8-3.2-1.6-6c0.2-2.4,0.8-3.6,1.2-4.2c0.1-0.1,0.2-0.2,0.2-0.3
				c-0.8-0.2-2.5-0.8-2.7-3.1c-0.1-1.5,0.6-3.5,1.9-5.2c1.7-2.3,4.8-4.5,7.7-3.4c1.1,0.4,1.7,1.1,2.1,1.9c0-0.2,0.1-0.4,0.2-0.5
				c0.3-0.5,0.9-0.6,1.2-0.4c0.2,0.1,0.3,0.4,0.1,0.8c-0.1,0.2-0.3,0.5-0.4,0.9c0.3-0.3,0.7-0.6,1-0.7c0.5-0.1,0.9,0.1,1.1,0.3
				c0.2,0.4,0.1,0.8-0.4,0.9c-0.2,0.1-0.5,0.1-0.8,0.3c1.9,0.1,4.8,0.4,6.9,2.7c1.3,1.4,2.7,3.4,2.6,5.6v0.1h-0.1
				c-4,2.5-7.1,2.3-8.9,5.6l-0.3-0.1c0.1-0.9-0.7-1.4-1.1-1.6c-0.6-0.4-2.1-0.4-2.7,1c-0.9,2.2,0.1,4.9,0.1,4.9s-4.1,3.3-5.7,2.8
				L168.4,54L168.4,54z"/>
			<path class="st7" d="M180.5,34c0.2,0.4,0.1,0.8-0.4,0.9c-0.2,0.1-0.5,0.1-0.8,0.3c0.1,0-3.7,7.5-11.4,9c0.1-0.1,0.1-0.2,0.2-0.3
				l0.1-0.1c0,0,0,0,0.1,0c10.7-5.1,9-10.2,9.1-10.1c0-0.2,0.1-0.4,0.2-0.5c0.3-0.5,0.9-0.6,1.2-0.4c0.2,0.1,0.3,0.4,0.1,0.8
				c-0.1,0.2-0.3,0.5-0.4,0.9c0.3-0.3,0.7-0.6,1-0.7C179.9,33.5,180.3,33.7,180.5,34L180.5,34z"/>
			<path class="st7" d="M189.5,50.1c0,0-1.4,0.6-3.3,0C184.9,49.7,187.8,52.6,189.5,50.1z"/>
			<path class="st8" d="M183.4,62c0,0-4-0.9-6.9-3C178.3,59.7,180.6,60.8,183.4,62z"/>
			<path class="st9" d="M183,57.2c-2.4-0.4-3.6-3.9-1.6-5.8C183.3,49.5,184.5,57.5,183,57.2z"/>
			<path class="st10" d="M151.2,85.1c-0.1,0-0.1,0-0.1-0.1c-3.9-12.1-1.1-22.2-1.1-22.3s0.1-0.1,0.2-0.1c0.1,0,0.1,0.1,0.1,0.2
				s-2.8,10,1.1,22C151.4,85,151.3,85.1,151.2,85.1L151.2,85.1L151.2,85.1z"/>
		</g>
	</g>
</g>
</svg>
