<?xml version="1.0" encoding="utf-8"?>
<!-- Generator: Adobe Illustrator 26.5.0, SVG Export Plug-In . SVG Version: 6.00 Build 0)  -->
<svg version="1.1" id="Layer_1" xmlns="http://www.w3.org/2000/svg" xmlns:xlink="http://www.w3.org/1999/xlink" x="0px" y="0px"
	 viewBox="0 0 250 400" style="enable-background:new 0 0 250 400;" xml:space="preserve">
<style type="text/css">
	.st0{fill:#355775;}
	.st1{font-family:'FarmWaveFree-Regular';}
	.st2{font-size:16.6081px;}
	.st3{letter-spacing:1;}
	.st4{fill:#F7B882;}
	.st5{fill:#B2BCC4;}
	.st6{fill:url(#SVGID_1_);}
	.st7{fill:#FFFFFF;}
	.st8{fill:url(#SVGID_00000093883701046189635770000001956174427630425728_);}
	.st9{fill:#905423;}
	.st10{fill:#46260F;}
	.st11{fill:#D09A6F;}
	.st12{fill:#F5B080;}
	.st13{fill:#D1E5FF;}
</style>
<g>
	<text transform="matrix(1 0 0 1 90.3163 361.9927)" class="st0 st1 st2 st3">Half bow</text>
	<g>
		<path class="st4" d="M47.06,220.06c0.27,0.55,0.91,6.55,2.02,10.84c0.34,1.3,8.5,21.34,14.13,34.62
			c2.42-2.19,9.58-3.27,12.98-3.41c-0.64-2.28-1.39-5.15-2.58-7.51c-2.84-5.64-11.43-14-12.74-15.29c-1.16-1.38-2.03-2.47-2.3-2.9
			c-1.12-1.78,3.01-4.54,1.52-7.43c-0.95-1.85-3.54-2.32-5.27-4.36c-1.73-2.04-1.28-2.66-2.02-5.15c-0.75-2.49-2.52-2.87-4.72-3.6
			c-2.44-0.81-3.51-0.12-3.69,0.82C44.2,217.61,46.79,219.51,47.06,220.06L47.06,220.06z"/>
		<path class="st5" d="M209.86,329.66c0-3.48-38.43-6.3-85.83-6.3s-85.83,2.82-85.83,6.3c0,3.48,38.43,6.3,85.83,6.3
			S209.86,333.14,209.86,329.66z"/>
		<g>
			<path class="st4" d="M170.03,261.78c3.5,1.86,9.41,7.16,9.81,6.92c1.42,0.62,3.16,1.33,3.85,1.41c1.45,0.18,1.55-0.98,1.64-2.15
				c0.05-0.62,0.21-1.19,0.86-1.4c0.33-0.1,0.52-0.05,0.8-0.28c0.17-0.15,0.18-0.4,0.16-0.61c-0.03-0.37-0.38-0.47,0.08-0.4
				c0.37,0.05,0.67-0.42,0.69-0.77c0.03-0.52-0.55-0.74,0.37-1.3c0.24-0.14,0.51-0.21,0.74-0.37c0.25-0.16,0.23-0.48,0.11-0.72
				c-0.37-0.71-0.82-1.37-1.12-2.12c-0.07-0.23-0.14-0.46-0.19-0.66c-0.02-0.1-0.02-0.19-0.03-0.29c0.4,0.13,1.11-0.21,1.4-0.64
				c-0.41,0.21-0.94,0.18-1.36-0.07c0.08-0.47,0.25-0.93,0.42-1.42c0.31-0.91,0.47-1.88,0.51-2.85c0.03-0.51-0.09-1.9-0.55-3.51
				c-15.69-0.35-16.86,10.59-18.2,11.03C170.03,261.64,170.02,261.71,170.03,261.78L170.03,261.78z"/>
			<path class="st4" d="M187.47,329.69c-3.31-0.42-8.92-3.09-10.78-3.73l-0.01,0.02c-0.31-1.09-0.54-2.08-0.71-3.01
				c1.54,0.29,3.17,0.3,4.68,0.3c2.08,0.21,2.63-0.25,4.89-0.68c0.52,0,2.43-0.42,2.43-1.7c-0.17-1.27-2.09-1.27-2.78-1.27
				c-2.78-0.42-2.63-1.24-5.23-1.88c-1.39-0.19-2.77,0.12-4.16-0.25c-1.04-5.17-1-13.9-0.32-20.6c0.1-0.97,1.3-10.93,1.07-18.78
				c-0.02-0.74-0.16-1.69-0.29-2.72c-0.06-2.69,3.69-7.79,4.15-8.76c-3.24-1.35-4.36-7.43-7.93-7.5c-0.11,0.66,0.22,4.56-5.98,8.47
				c-3.76,2.37-24.88,3.68-32.49,2.93c-8.39-0.83-12.16-5.02-21.87-4.3c-4.26,0.22-9.96,2.36-11.27,12.34
				c-1.95,14.88,8.15,31.78,11.87,39.9c0.13,0.96,0.12,1.56-0.1,1.67c-1.45,0.74-4.77-1.1-9.6-1.13
				c-5.75-0.03-17.13,5.47-18.86,6.08c-1.75,0.43-3.11,0.74-3.62,0.8c-2.09,0.23-3.01-4.64-6.26-4.57c-2.08,0.04-3.7,1.93-5.93,3.41
				c-2.16,1.44-2.69,1.26-5.39,1.62c-6.37,0.85-7.95,3.2-7.19,3.77c0.76,0.57,10.06,0.72,15.09,1.44
				c1.56,0.22,48.23,3.32,53.44-1.55c0.4-0.41,0.66-0.84,0.7-1.27c0.45-5.38,2.72-26.17-3.79-39.68c6.47-6.14,17.86,0.67,33.91,5
				c10.27,2.77,10.96-4.72,11.34-5.1c0,0.01,0,0.01,0,0.02c1.08,6.47,1.45,14.72,1.21,20.02c0,4.82,2.51,21.94,7.61,23.11
				c2.42,0.82,5.24,0.84,7.78,0.84c2.48,0.21,2.1,0.12,4.79-0.31c0.62,0,2.9-0.42,2.9-1.7C190.57,329.69,188.3,329.69,187.47,329.69
				L187.47,329.69z"/>
			
				<linearGradient id="SVGID_1_" gradientUnits="userSpaceOnUse" x1="350.1803" y1="258.8009" x2="362.4409" y2="258.8009" gradientTransform="matrix(1 0 0 -1 -172.5 579)">
				<stop  offset="0" style="stop-color:#F8A164"/>
				<stop  offset="0.1" style="stop-color:#F8A469"/>
				<stop  offset="0.63" style="stop-color:#F7B37B"/>
				<stop  offset="1" style="stop-color:#F7B882"/>
			</linearGradient>
			<path class="st6" d="M175.8,317.5c-0.03-0.14-0.05-0.29-0.08-0.43c0,1.72-0.03,3.48,0.21,5.19c0.04,0.24,0.05,0.48,0.04,0.72
				c1.54,0.29,3.17,0.3,4.68,0.3c2.08,0.21,2.63-0.25,4.89-0.68c0.52,0,2.43-0.42,2.43-1.7c-0.17-1.27-2.09-1.27-2.78-1.27
				c-2.78-0.42-2.63-1.24-5.23-1.88C178.58,317.56,177.19,317.87,175.8,317.5L175.8,317.5z"/>
			<path class="st7" d="M158.58,269.47c-4.24,0.76-6.52,0.98-9.67,1.2c-2.14,5.31-0.92,17.71,0.71,22.35c2.1,0.1,2.8,0.32,5.54,1.06
				c7.41,2,9.78-1.14,11-3.99c-2.61,0.98-7.74-6.6-3.1-11.82c3.09-3.47,12.06-5.62,13.2-2.77c0.07-0.31,0.08-0.84,0.16-1.14
				C175.61,270.94,162.85,272.5,158.58,269.47L158.58,269.47z"/>
			<path class="st0" d="M126.42,268.39c-5-1.74-7.36-3.59-13.83-3.11c-4.26,0.22-11.36,2.06-12.67,12.04
				c-1.95,14.88,9.12,33.06,12.84,41.18c0.13,0.96,0.12,1.56-0.1,1.67c-0.75,0.38-2,0.07-3.69-0.31c-0.06,0.3-0.16,0.6-0.33,0.9
				c-2,3.66-0.53,8.11,1.63,11.35c0.11,0.16,0.18,0.31,0.25,0.47c6.82-0.31,12.24-1.05,13.83-2.53c0.4-0.41,0.66-0.84,0.7-1.27
				c0.45-5.38,2.72-26.17-3.79-39.68C121.56,289.46,125.85,273.33,126.42,268.39L126.42,268.39z"/>
			
				<linearGradient id="SVGID_00000105391943698918109110000006945428848327358129_" gradientUnits="userSpaceOnUse" x1="239.0153" y1="315.0356" x2="276.1725" y2="299.3907" gradientTransform="matrix(1 0 0 -1 -172.5 579)">
				<stop  offset="0" style="stop-color:#355775"/>
				<stop  offset="0.17" style="stop-color:#32526E"/>
				<stop  offset="0.6" style="stop-color:#2C4761"/>
				<stop  offset="1" style="stop-color:#2A445C"/>
			</linearGradient>
			<path style="fill:url(#SVGID_00000105391943698918109110000006945428848327358129_);" d="M99.93,277.32
				c0.67-5.13,2.88-8.1,5.44-9.81c-10.77,0.46-26.82-1-27.58-1.56c-0.59-0.44-1.06-1.94-1.59-3.85c-3.44,0.14-10.77,1.25-13.09,3.5
				c2.91,6.87,5,11.27,5.33,11.54c2.05,1.63,19.7,9.36,31.8,9.9C99.69,283.74,99.51,280.45,99.93,277.32L99.93,277.32z"/>
			<path class="st9" d="M168.45,261.98c-0.54-1.33-1.79-3.16-1.58-5.97c0.18-2.41,0.75-3.62,1.2-4.21c0.08-0.1,0.16-0.19,0.23-0.27
				c-0.77-0.17-2.47-0.82-2.69-3.15c-0.15-1.53,0.56-3.49,1.9-5.25c1.72-2.26,4.77-4.5,7.73-3.39c1.05,0.39,1.69,1.15,2.08,1.85
				c0.04-0.19,0.1-0.36,0.18-0.5c0.28-0.54,0.91-0.64,1.23-0.41c0.18,0.13,0.31,0.41,0.07,0.78c-0.15,0.23-0.29,0.53-0.41,0.87
				c0.31-0.32,0.68-0.56,1.03-0.67c0.46-0.14,0.87,0.07,1.05,0.33c0.24,0.35,0.08,0.76-0.39,0.86c-0.24,0.05-0.49,0.13-0.77,0.26
				c1.92,0.1,4.76,0.44,6.91,2.73c1.31,1.39,2.66,3.4,2.55,5.65l-0.01,0.13l-0.13,0.01c-4.02,2.47-7.13,2.28-8.88,5.62l-0.27-0.12
				c0.11-0.92-0.68-1.4-1.05-1.63c-0.58-0.38-2.06-0.39-2.66,1.03c-0.92,2.16,0.13,4.9,0.13,4.9s-4.08,3.28-5.68,2.82L168.45,261.98
				L168.45,261.98z"/>
			<path class="st10" d="M180.47,241.99c0.24,0.35,0.08,0.76-0.39,0.86c-0.24,0.05-0.49,0.13-0.77,0.26
				c0.11,0.01-3.73,7.46-11.43,8.98c0.07-0.11,0.13-0.2,0.19-0.29c0.03-0.04,0.06-0.07,0.1-0.11c0.02-0.01,0.04-0.01,0.07-0.02
				c10.72-5.13,9.03-10.18,9.09-10.08c0.04-0.19,0.1-0.36,0.18-0.5c0.28-0.54,0.91-0.64,1.23-0.41c0.18,0.13,0.31,0.41,0.07,0.78
				c-0.15,0.23-0.29,0.53-0.41,0.87c0.31-0.32,0.68-0.56,1.03-0.67C179.88,241.52,180.29,241.73,180.47,241.99L180.47,241.99z"/>
			<path class="st10" d="M189.52,258.07c0,0-1.4,0.6-3.27,0.04C184.95,257.72,187.83,260.57,189.52,258.07z"/>
			<path class="st11" d="M183.44,270.03c0,0-3.99-0.91-6.91-3.04C178.28,267.66,180.6,268.8,183.44,270.03z"/>
			<path class="st12" d="M182.97,265.22c-2.44-0.38-3.6-3.94-1.65-5.83C183.26,257.5,184.54,265.46,182.97,265.22z"/>
			<path class="st13" d="M151.2,293.1c-0.07,0-0.13-0.05-0.15-0.12c-3.89-12.13-1.12-22.19-1.09-22.29c0.03-0.1,0.12-0.15,0.21-0.12
				c0.09,0.03,0.13,0.14,0.1,0.24c-0.03,0.1-2.76,10.04,1.08,22.05c0.03,0.1-0.01,0.21-0.1,0.24
				C151.23,293.1,151.21,293.1,151.2,293.1L151.2,293.1z"/>
		</g>
	</g>
</g>
</svg>
