<?xml version="1.0" encoding="UTF-8"?>
<svg id="Layer_1" data-name="Layer 1" xmlns="http://www.w3.org/2000/svg" xmlns:xlink="http://www.w3.org/1999/xlink" viewBox="0 0 876.46 709.65">
  <defs>
    <style>
      .cls-1 {
        fill: url(#linear-gradient);
      }

      .cls-2 {
        fill: #f7b882;
      }

      .cls-3 {
        fill: #f5b080;
      }

      .cls-4 {
        fill: #fff;
      }

      .cls-5 {
        fill: #905423;
      }

      .cls-6 {
        fill: #b2bcc4;
      }

      .cls-7 {
        fill: #d1e5ff;
      }

      .cls-8 {
        fill: #d09a6f;
      }

      .cls-9, .cls-10 {
        fill: #355775;
      }

      .cls-11 {
        fill: #46260f;
      }

      .cls-10 {
        font-family: FarmWaveFree-Regular, 'Farm Wave Free';
        font-size: 85px;
        isolation: isolate;
        letter-spacing: .08em;
      }

      .cls-12 {
        fill: url(#linear-gradient-2);
      }
    </style>
    <linearGradient id="linear-gradient" x1="668.66" y1="539.26" x2="651.62" y2="588.48" gradientUnits="userSpaceOnUse">
      <stop offset="0" stop-color="#f8a164"/>
      <stop offset=".1" stop-color="#f8a469"/>
      <stop offset=".63" stop-color="#f7b37b"/>
      <stop offset="1" stop-color="#f7b882"/>
    </linearGradient>
    <linearGradient id="linear-gradient-2" x1="359.27" y1="405.17" x2="594" y2="461.96" gradientUnits="userSpaceOnUse">
      <stop offset="0" stop-color="#355775"/>
      <stop offset=".03" stop-color="#345572"/>
      <stop offset=".22" stop-color="#2e4b66"/>
      <stop offset=".47" stop-color="#2b465e"/>
      <stop offset="1" stop-color="#2a445c"/>
    </linearGradient>
  </defs>
  <text class="cls-10" transform="translate(235.77 688.4)"><tspan x="0" y="0">Side plank</tspan></text>
  <g>
    <ellipse class="cls-6" cx="438.23" cy="529.87" rx="438.23" ry="27.45"/>
    <g>
      <path class="cls-1" d="M598.99,480.16s29.5,18.48,52.22,24.16,56.79,5.68,72.88,13.25,10.41,16.09,31.23,16.09-.95-24.61-.95-24.61l-148.6-53.95-6.78,25.06Z"/>
      <path class="cls-12" d="M560.24,467.09c-25.74-9.37-119.46,1.19-180.97-16.91-44.33-13.04-58.83-33.7-67.86-40.52-1.85-1.4-3.67-2.64-5.49-3.9,11.38-31.36,12.27-11.78,19.57-44.47,5.84,.2,88.67,16.29,89.69,17.52,27.48,4.57,49.22,15.07,75.64,19.88l18.35,5.39c9.04,3.35,16.65,6.18,22.26,7.98,21.72,6.96,45.42,22.7,58.68,22.48,4.89,.4,24.41,8.46,33.65,9.2-2.21,15.25-6.09,30.3-12.95,44.13-19.68-6.32-50.57-20.78-50.57-20.78Z"/>
      <path class="cls-2" d="M819.68,530.82c-7.57-17.04-38.55-23.83-48.68-25.81-8.72-2.66-15.17-7.23-22.78-11.4-42.26-23.19-48.16-38.72-92.29-61.55-14.73-7.61-77.15-24.67-77.15-24.67-26.48-6.98-97.46-69.09-158.31-89.3-43.86-14.56-63.82-10.26-75.13-9.8-56.14,2.26-82.23-22.45-119.69-48.67l-22.21-14.44c-6.21-14.11-5.17-64.7-8.46-93.91-1.98-15.3-3.56-34.08-5.46-50.21-2.06-14.47-6.23-33.32-4.05-48.24l-.24-1.42h.23c.35-9.39,.07-18.29-1.54-27.86-.86-7.03,1.53-10.77-15.62-22.39-12.69-8.6-11.54,33.63-13.42,43.4l-.24,1.17c-4.86-4.89-9.78-10.13-17.86-4.59,3.07,2.55,5.07,3.89,7.34,7.68,2.38,2.69,5.16,6.75,7.54,9.44,4.2,4.44,10.19,5.04,13.46,15.41l-.08,.83c2.66,17.04-1.3,62.25,.61,79.61,4.39,39.88-5.34,84.41-9.52,112.18-.57,3.8-.76,7.22-.75,10.53-.8,1.24-1.53,2.35-2.14,3.28-2.8,4.19-4.91,2.46-8.29,2.77-.54,.05-11.56-2.78-15.6-3.75,.04-.17,.07-.35,.02-.37,4.38-5.29,10.39-12.9,11.65-15.94,2.39-5.73-2.25-7.45-6.93-9.17-2.47-.91-4.65-2.22-4.75-5.12-.04-1.48,.38-2.17-.24-3.58-.42-.89-1.43-1.21-2.29-1.37-1.56-.29-2.34,1.04-1.56-.79,.64-1.44-.95-3.23-2.37-3.72-2.1-.72-3.66,1.39-4.89-2.98-.31-1.13-.3-2.32-.67-3.44-.39-1.2-1.72-1.48-2.85-1.26-3.34,.69-6.54,1.82-9.96,2.18-1.04,.04-2.05,.04-2.92,.02-.41-.05-.81-.12-1.2-.2,.98-1.48,.41-4.78-1.04-6.46,.39,1.94-.33,4.06-1.83,5.47-1.81-.85-3.53-2.08-5.36-3.34-3.39-2.32-7.16-4.09-11.08-5.35-2.04-.68-7.89-1.78-15.01-1.75-19.36,63.86,29.1,87.58,29.36,93.57,4.96-.52,8.85-.99,10.58-.89l.33-.55c.28,.02,.63-.13,1.04-.39,4.97,.83,12.53,2.94,23.62,8.86,8.9,4.75-.96,19.87-2.16,30.31-2.3,7.65-1.78,19.34-1.54,25.57,1.3,34.11,10.1,71.8,13.12,103.8-.53,.12-1.08,.21-1.6,.38,0,0-11.95,6.57-17.92,11.35-2.05,1.64-5.45,3.41-9.22,5.06-4.96-2.68-10.65-4.18-10.65-4.18,0,0-12.07,3.55-17.75,7.81s-.71,7.1-.71,7.1c0,0-9.23,.71-9.23,4.97s2.13,19.88,2.13,19.88c0,0,17.04,9.23,20.59,7.81,2.31-.92,6.71-11.74,9.51-19.2,14.01-.73,61.84-6.69,65.77-18.49,.62-1.86,.55-3.78,.05-5.69,1.02-31.92,2.04-102.94,8.07-117.19,14.49-1.39,27.88-2.73,36.32-3.27,16.24-1.04,28.8-.74,51.26,6.4,12.89,4.1,26.13,10.36,40.09,20.44,.61-.12,8.44-4.51,11.93-6.04,85.09-37.03,254.21,38.56,264.93,46.26,12.18,7.06,43.56,33.01,75.53,42.01,23.07,6.51,38.85,7.14,67.63,20.66,14.47,6.8,21.42,19.89,35.3,25.24,7.65,3.14,31.19,3.89,31.52,3.62,23.82,1.24,27.61,1.24,25.71-6.33Z"/>
      <path class="cls-5" d="M93.25,318.39c-6.07,.7-17.93,1.26-29.18-2.78-9.68-3.48-13.98-7.21-15.89-9.73-.32-.43-.6-.85-.82-1.26-1.59,2.97-6.16,9.17-16,7.43-6.44-1.15-13.67-6.3-19.34-13.78-7.28-9.61-12.98-24.68-5.06-35.55,2.81-3.86,6.67-5.62,9.96-6.4-.72-.38-1.34-.82-1.85-1.3-1.91-1.78-1.57-4.46-.27-5.51,.74-.6,2.04-.81,3.26,.6,.78,.89,1.84,1.79,3.12,2.66-.95-1.65-1.52-3.42-1.57-4.98-.06-2.05,1.28-3.46,2.54-3.91,1.72-.6,3.22,.54,3.06,2.57-.08,1.02-.02,2.18,.18,3.46,2.6-7.76,7.22-18.98,19.07-25.19,7.18-3.76,16.96-6.99,26.07-3.99l.54,.18-.11,.56c5.51,19.28,1.2,31.81,12.86,42.79l-.78,.98c-3.65-1.48-6.51,1.2-7.89,2.42-2.2,1.96-3.96,7.97,1.19,12.09,7.81,6.25,20.22,5.09,20.22,5.09,0,0,11.41,24.22,7.71,30.25l-10.8,3.25-.22,.05Z"/>
      <path class="cls-11" d="M22.15,243.88c1.72-.6,3.22,.54,3.06,2.57-.08,1.02-.02,2.18,.18,3.46,.15-.44,26.28,23.82,23.74,57.08-.37-.39-.68-.77-.95-1.12-.13-.18-.22-.35-.34-.52,0-.11,0-.2-.02-.3-8.79-49.79-31.37-48.62-30.9-48.73-.72-.38-1.34-.82-1.85-1.3-1.91-1.78-1.57-4.46-.27-5.51,.74-.6,2.04-.81,3.26,.6,.78,.89,1.84,1.79,3.12,2.66-.95-1.65-1.52-3.42-1.57-4.98-.05-2.05,1.28-3.46,2.54-3.91Z"/>
      <path class="cls-11" d="M98.35,225.17s.87,6.45-3.55,13.43c-3.09,4.88,11.88-3.64,3.55-13.43Z"/>
      <path class="cls-8" d="M140.4,263.74s-8.29,15.3-20.34,24.84c4.77-6.43,12.07-14.61,20.34-24.84Z"/>
      <path class="cls-4" d="M156.88,267.84c-.05,.88-.82,3.9-1.17,4.48,5.9,2.08,59.3,19.67,46.96,52.21-10.34,27.29-67.57,10.89-67.57,10.89l-2.39,3.68s70.63,19.45,63.69,40.71c17.03,2.86,41.78-2.5,46.48-.88,18.29-33.49,31.96-87.35,31.96-87.35,0,0-32.13-20.08-38.59-25.3-13.88,30.5-76.36,2.15-79.37,1.56Z"/>
      <path class="cls-3" d="M120.17,260.17c-4.32,9.55-20.24,10.24-25.76,.11-5.52-10.13,28.55-6.26,25.76-.11Z"/>
      <path class="cls-7" d="M254.38,326.9c-9.54,27.68-21.02,52.15-21.19,52.52-.17,.35-.59,.51-.94,.34-.35-.16-.58-.53-.34-.94,.25-.55,26.03-55.48,32.31-93.78,.04-.44,.43-.66,.81-.59,.39,.06,.65,.43,.59,.81-2.12,12.91-6.43,27.69-11.24,41.64Z"/>
      <path class="cls-9" d="M578.79,407.38c-26.48-6.98-97.46-69.09-158.31-89.3-43.86-14.56-63.82-10.26-75.13-9.8-2.32,.09-4.52,.07-6.74,.07-8.53,32.25-19.05,66.03-31.7,97.05,4.91,3.16,100.83-7.78,102.36-8.21,25.18,11.91,49.03,15.68,73.48,26.8l18.15,6.04c9.34,2.41,17.2,4.42,22.84,6.14,21.81,6.67,50.25,7.25,61.03,14.99,4.25,2.46,10.77,6.56,18.78,11.23,6.88-13.79,12.28-28.36,14.53-43.64-19.78-6.04-39.29-11.37-39.29-11.37Z"/>
    </g>
  </g>
</svg>