<?xml version="1.0" encoding="utf-8"?>
<!-- Generator: Adobe Illustrator 26.5.0, SVG Export Plug-In . SVG Version: 6.00 Build 0)  -->
<svg version="1.1" id="Layer_1" xmlns="http://www.w3.org/2000/svg" xmlns:xlink="http://www.w3.org/1999/xlink" x="0px" y="0px"
	 viewBox="0 0 250 132.2" style="enable-background:new 0 0 250 132.2;" xml:space="preserve">
<style type="text/css">
	.st0{fill:#B2BCC4;}
	.st1{fill:url(#SVGID_1_);}
	.st2{fill:url(#SVGID_00000023281745366574164210000002978350435300751783_);}
	.st3{fill:#F7B882;}
	.st4{fill:#905423;}
	.st5{fill:#46260F;}
	.st6{fill:#D09A6F;}
	.st7{fill:#FFFFFF;}
	.st8{fill:#F5B080;}
	.st9{fill:#D1E5FF;}
	.st10{fill:#355775;}
</style>
<g>
	<g>
		<ellipse class="st0" cx="124" cy="125.9" rx="100.3" ry="6.3"/>
		<g>
			
				<linearGradient id="SVGID_1_" gradientUnits="userSpaceOnUse" x1="349.181" y1="51.003" x2="345.28" y2="39.7353" gradientTransform="matrix(1 0 0 -1 -172.5 179)">
				<stop  offset="0" style="stop-color:#F8A164"/>
				<stop  offset="0.1" style="stop-color:#F8A469"/>
				<stop  offset="0.63" style="stop-color:#F7B37B"/>
				<stop  offset="1" style="stop-color:#F7B882"/>
			</linearGradient>
			<path class="st1" d="M160.8,114.5c0,0,6.8,4.2,11.9,5.5s13,1.3,16.7,3s2.4,3.7,7.1,3.7c4.8,0-0.2-5.6-0.2-5.6l-34-12.4
				L160.8,114.5L160.8,114.5z"/>
			
				<linearGradient id="SVGID_00000181809725355839086970000017665018954823154818_" gradientUnits="userSpaceOnUse" x1="278.4759" y1="81.7457" x2="332.2118" y2="68.7449" gradientTransform="matrix(1 0 0 -1 -172.5 179)">
				<stop  offset="0" style="stop-color:#355775"/>
				<stop  offset="3.000000e-02" style="stop-color:#345572"/>
				<stop  offset="0.22" style="stop-color:#2E4B66"/>
				<stop  offset="0.47" style="stop-color:#2B465E"/>
				<stop  offset="1" style="stop-color:#2A445C"/>
			</linearGradient>
			<path style="fill:url(#SVGID_00000181809725355839086970000017665018954823154818_);" d="M152,111.5c-5.9-2.1-27.3,0.3-41.4-3.9
				c-10.2-3-13.5-7.7-15.5-9.3c-0.4-0.3-0.8-0.6-1.3-0.9c2.6-7.2,2.8-2.7,4.5-10.2c1.3,0,20.3,3.7,20.5,4c6.3,1,11.3,3.5,17.3,4.5
				l4.2,1.2c2.1,0.8,3.8,1.4,5.1,1.8c5,1.6,10.4,5.2,13.4,5.1c1.1,0.1,5.6,1.9,7.7,2.1c-0.5,3.5-1.4,6.9-3,10.1
				C159,114.8,152,111.5,152,111.5L152,111.5z"/>
			<path class="st3" d="M211.4,126.1c-1.7-3.9-8.8-5.5-11.1-5.9c-2-0.6-3.5-1.7-5.2-2.6c-9.7-5.3-11-8.9-21.1-14.1
				c-3.4-1.7-17.7-5.6-17.7-5.6c-6.1-1.6-22.3-15.8-36.2-20.4c-10-3.3-14.6-2.4-17.2-2.2C89.9,75.7,84,70,75.4,64l-5.1-3.3
				c-1.4-3.2-1.2-14.8-1.9-21.5c-0.4-3.5-0.8-7.8-1.2-11.5c-0.5-3.3-1.4-7.6-0.9-11l-0.1-0.3h0.1c0.1-2.1,0-4.2-0.3-6.4
				c-0.2-1.6,0.3-2.5-3.6-5.1c-2.9-2-2.6,7.7-3.1,9.9v0.3c-1.1-1.1-2.2-2.3-4.1-1.1c0.7,0.6,1.2,0.9,1.7,1.8
				c0.5,0.6,1.2,1.6,1.7,2.2c1,1,2.3,1.1,3.1,3.5v0.2c0.6,3.9-0.3,14.2,0.1,18.2c1,9.1-1.2,19.3-2.2,25.7c-0.1,0.9-0.2,1.6-0.2,2.4
				c-0.2,0.3-0.3,0.5-0.5,0.8c-0.6,1-1.1,0.6-1.9,0.6c-0.1,0-2.7-0.6-3.6-0.9v-0.1c1-1.2,2.4-3,2.7-3.6c0.5-1.3-0.5-1.7-1.6-2.1
				c-0.6-0.2-1.1-0.5-1.1-1.2c0-0.3,0.1-0.5,0-0.8c-0.1-0.2-0.3-0.3-0.5-0.3c-0.4-0.1-0.5,0.2-0.4-0.2c0.2-0.3-0.2-0.7-0.5-0.9
				c-0.5-0.2-0.8,0.3-1.1-0.7c-0.1-0.3-0.1-0.5-0.2-0.8c-0.1-0.3-0.4-0.3-0.7-0.3c-0.8,0.2-1.5,0.4-2.3,0.5c-0.2,0-0.5,0-0.7,0
				c-0.1,0-0.2,0-0.3,0c0.2-0.3,0.1-1.1-0.2-1.5c0.1,0.4-0.1,0.9-0.4,1.2c-0.4-0.2-0.8-0.5-1.2-0.8c-0.8-0.5-1.6-0.9-2.5-1.2
				c-0.5-0.2-1.8-0.4-3.4-0.4c-4.4,14.6,6.7,20,6.7,21.4c1.1-0.1,2-0.2,2.4-0.2l0.1-0.1c0.1,0,0.1,0,0.2-0.1c1.1,0.2,2.9,0.7,5.4,2
				c2,1.1-0.2,4.5-0.5,6.9c-0.5,1.8-0.4,4.4-0.3,5.9c0.3,7.8,2.3,16.4,3,23.8c-0.1,0-0.2,0-0.4,0.1c0,0-2.7,1.5-4.1,2.6
				c-0.5,0.4-1.2,0.8-2.1,1.2c-1.1-0.6-2.4-1-2.4-1s-2.8,0.8-4.1,1.8s-0.2,1.6-0.2,1.6s-2.1,0.2-2.1,1.1S41,127,41,127
				s3.9,2.1,4.7,1.8c0.5-0.2,1.5-2.7,2.2-4.4c3.2-0.2,14.2-1.5,15.1-4.2c0.1-0.4,0.1-0.9,0-1.3c0.2-7.3,0.5-23.6,1.8-26.8
				c3.3-0.3,6.4-0.6,8.3-0.8c3.7-0.2,6.6-0.2,11.7,1.5c2.9,0.9,6,2.4,9.2,4.7c0.1,0,1.9-1,2.7-1.4c19.5-8.5,58.2,8.8,60.7,10.6
				c2.8,1.6,10,7.6,17.3,9.6c5.3,1.5,8.9,1.6,15.5,4.7c3.3,1.6,4.9,4.5,8.1,5.8c1.8,0.7,7.1,0.9,7.2,0.8
				C210.9,127.8,211.8,127.8,211.4,126.1L211.4,126.1z"/>
			<path class="st4" d="M45.1,77.5c-1.4,0.2-4.1,0.3-6.7-0.6c-2.2-0.8-3.2-1.6-3.6-2.2c-0.1-0.1-0.1-0.2-0.2-0.3
				c-0.4,0.7-1.4,2.1-3.7,1.7c-1.5-0.3-3.1-1.4-4.4-3.1c-1.7-2.2-3-5.6-1.2-8.1c0.6-0.9,1.5-1.3,2.3-1.5c-0.2-0.1-0.3-0.2-0.4-0.3
				c-0.4-0.4-0.4-1-0.1-1.3c0.2-0.1,0.5-0.2,0.8,0.1c0.2,0.2,0.4,0.4,0.7,0.6c-0.2-0.4-0.4-0.8-0.4-1.1c0-0.5,0.3-0.8,0.6-0.9
				c0.4-0.1,0.7,0.1,0.7,0.6c0,0.2,0,0.5,0,0.8c0.6-1.8,1.6-4.4,4.4-5.8c1.6-0.9,3.9-1.6,6-0.9H40v0.1c1.3,4.4,0.3,7.3,2.9,9.8
				l-0.2,0.2c-0.8-0.3-1.5,0.3-1.8,0.5c-0.5,0.5-0.9,1.8,0.3,2.8c1.8,1.4,4.6,1.2,4.6,1.2s2.6,5.5,1.8,6.9L45.1,77.5L45.1,77.5z"/>
			<path class="st5" d="M28.8,60.4c0.4-0.1,0.7,0.1,0.7,0.6c0,0.2,0,0.5,0,0.8c0-0.1,6,5.5,5.4,13.1c-0.1-0.1-0.2-0.2-0.2-0.3
				c0,0,0-0.1-0.1-0.1c0,0,0,0,0-0.1c-2-11.4-7.2-11.1-7.1-11.2c-0.2-0.1-0.3-0.2-0.4-0.3c-0.4-0.4-0.4-1-0.1-1.3
				c0.2-0.1,0.5-0.2,0.8,0.1c0.2,0.2,0.4,0.4,0.7,0.6c-0.2-0.4-0.4-0.8-0.4-1.1C28.2,60.8,28.5,60.5,28.8,60.4L28.8,60.4z"/>
			<path class="st5" d="M46.2,56.1c0,0,0.2,1.5-0.8,3.1C44.7,60.3,48.1,58.4,46.2,56.1L46.2,56.1z"/>
			<path class="st6" d="M55.8,65c0,0-1.9,3.5-4.7,5.7C52.3,69.2,54,67.3,55.8,65z"/>
			<path class="st7" d="M59.6,65.9c0,0.2-0.2,0.9-0.3,1c1.3,0.5,13.6,4.5,10.8,12c-2.4,6.2-15.5,2.5-15.5,2.5l-0.5,0.8
				c0,0,16.2,4.5,14.6,9.3c3.9,0.6,9.6-0.6,10.6-0.2c4.2-7.7,7.3-20,7.3-20s-7.4-4.6-8.8-5.8C74.6,72.5,60.3,66,59.6,65.9z"/>
			<path class="st8" d="M51.2,64.1c-1,2.2-4.6,2.3-5.9,0C44.1,61.9,51.9,62.7,51.2,64.1z"/>
			<path class="st9" d="M81.9,79.4c-2.2,6.3-4.8,11.9-4.8,12s-0.1,0.1-0.2,0.1s-0.1-0.1-0.1-0.2c0.1-0.1,6-12.7,7.4-21.5
				c0-0.1,0.1-0.1,0.2-0.1s0.2,0.1,0.1,0.2C84,72.8,83.1,76.2,81.9,79.4L81.9,79.4z"/>
			<path class="st10" d="M156.2,97.8c-6.1-1.6-22.3-15.8-36.2-20.4c-10-3.3-14.6-2.4-17.2-2.2c-0.5,0-1,0-1.5,0
				c-1.9,7.4-4.4,15.1-7.3,22.2c1.1,0.7,23.1-1.8,23.4-1.9c5.8,2.7,11.2,3.6,16.8,6.1l4.2,1.4c2.1,0.5,3.9,1,5.2,1.4
				c5,1.5,11.5,1.7,14,3.4c1,0.6,2.5,1.5,4.3,2.6c1.6-3.2,2.8-6.5,3.3-10C160.7,99.1,156.2,97.8,156.2,97.8L156.2,97.8z"/>
		</g>
	</g>
</g>
</svg>
