<?xml version="1.0" encoding="utf-8"?>
<!-- Generator: Adobe Illustrator 26.5.0, SVG Export Plug-In . SVG Version: 6.00 Build 0)  -->
<svg version="1.1" id="Layer_1" xmlns="http://www.w3.org/2000/svg" xmlns:xlink="http://www.w3.org/1999/xlink" x="0px" y="0px"
	 viewBox="0 0 250 400" style="enable-background:new 0 0 250 400;" xml:space="preserve">
<style type="text/css">
	.st0{fill:#355775;}
	.st1{font-family:'FarmWaveFree-Regular';}
	.st2{font-size:19.4588px;}
	.st3{letter-spacing:1;}
	.st4{fill:#B2BCC4;}
	.st5{fill:url(#SVGID_1_);}
	.st6{fill:url(#SVGID_00000110457870716311986030000016598167678629907855_);}
	.st7{fill:#F7B882;}
	.st8{fill:#905423;}
	.st9{fill:#46260F;}
	.st10{fill:#D09A6F;}
	.st11{fill:#FFFFFF;}
	.st12{fill:#F5B080;}
	.st13{fill:#D1E5FF;}
</style>
<g>
	<text transform="matrix(1 0 0 1 77.6831 362.1748)" class="st0 st1 st2 st3">Side plank</text>
	<g>
		<ellipse class="st4" cx="124.03" cy="325.88" rx="100.32" ry="6.28"/>
		<g>
			
				<linearGradient id="SVGID_1_" gradientUnits="userSpaceOnUse" x1="349.284" y1="250.9673" x2="345.3831" y2="239.6996" gradientTransform="matrix(1 0 0 -1 -172.5 579)">
				<stop  offset="0" style="stop-color:#F8A164"/>
				<stop  offset="0.1" style="stop-color:#F8A469"/>
				<stop  offset="0.63" style="stop-color:#F7B37B"/>
				<stop  offset="1" style="stop-color:#F7B882"/>
			</linearGradient>
			<path class="st5" d="M160.83,314.5c0,0,6.75,4.23,11.95,5.53c5.2,1.3,13,1.3,16.68,3.03s2.38,3.68,7.15,3.68
				c4.77,0-0.22-5.63-0.22-5.63l-34.02-12.35L160.83,314.5L160.83,314.5z"/>
			
				<linearGradient id="SVGID_00000116226846100373504870000001879130974746836880_" gradientUnits="userSpaceOnUse" x1="278.456" y1="281.6632" x2="332.1919" y2="268.6624" gradientTransform="matrix(1 0 0 -1 -172.5 579)">
				<stop  offset="0" style="stop-color:#355775"/>
				<stop  offset="0.03" style="stop-color:#345572"/>
				<stop  offset="0.22" style="stop-color:#2E4B66"/>
				<stop  offset="0.47" style="stop-color:#2B465E"/>
				<stop  offset="1" style="stop-color:#2A445C"/>
			</linearGradient>
			<path style="fill:url(#SVGID_00000116226846100373504870000001879130974746836880_);" d="M151.96,311.51
				c-5.89-2.15-27.35,0.27-41.43-3.87c-10.15-2.99-13.47-7.71-15.53-9.28c-0.42-0.32-0.84-0.6-1.26-0.89
				c2.61-7.18,2.81-2.7,4.48-10.18c1.34,0.05,20.3,3.73,20.53,4.01c6.29,1.05,11.27,3.45,17.32,4.55l4.2,1.23
				c2.07,0.77,3.81,1.41,5.1,1.83c4.97,1.59,10.4,5.2,13.43,5.15c1.12,0.09,5.59,1.94,7.7,2.11c-0.51,3.49-1.39,6.94-2.96,10.1
				C159.04,314.82,151.96,311.51,151.96,311.51L151.96,311.51z"/>
			<path class="st7" d="M211.36,326.1c-1.73-3.9-8.83-5.46-11.14-5.91c-2-0.61-3.47-1.66-5.21-2.61
				c-9.67-5.31-11.03-8.86-21.13-14.09c-3.37-1.74-17.66-5.65-17.66-5.65c-6.06-1.6-22.31-15.82-36.24-20.44
				c-10.04-3.33-14.61-2.35-17.2-2.24c-12.85,0.52-18.82-5.14-27.4-11.14l-5.08-3.31c-1.42-3.23-1.18-14.81-1.94-21.5
				c-0.45-3.5-0.81-7.8-1.25-11.49c-0.47-3.31-1.43-7.63-0.93-11.04l-0.05-0.33h0.05c0.08-2.15,0.02-4.19-0.35-6.38
				c-0.2-1.61,0.35-2.47-3.58-5.13c-2.91-1.97-2.64,7.7-3.07,9.94l-0.05,0.27c-1.11-1.12-2.24-2.32-4.09-1.05
				c0.7,0.58,1.16,0.89,1.68,1.76c0.54,0.62,1.18,1.55,1.73,2.16c0.96,1.02,2.33,1.15,3.08,3.53l-0.02,0.19
				c0.61,3.9-0.3,14.25,0.14,18.22c1,9.13-1.22,19.32-2.18,25.68c-0.13,0.87-0.17,1.65-0.17,2.41c-0.18,0.28-0.35,0.54-0.49,0.75
				c-0.64,0.96-1.12,0.56-1.9,0.63c-0.12,0.01-2.65-0.64-3.57-0.86c0.01-0.04,0.02-0.08,0-0.08c1-1.21,2.38-2.95,2.67-3.65
				c0.55-1.31-0.52-1.71-1.59-2.1c-0.57-0.21-1.06-0.51-1.09-1.17c-0.01-0.34,0.09-0.5-0.05-0.82c-0.1-0.2-0.33-0.28-0.52-0.31
				c-0.36-0.07-0.54,0.24-0.36-0.18c0.15-0.33-0.22-0.74-0.54-0.85c-0.48-0.16-0.84,0.32-1.12-0.68c-0.07-0.26-0.07-0.53-0.15-0.79
				c-0.09-0.27-0.39-0.34-0.65-0.29c-0.76,0.16-1.5,0.42-2.28,0.5c-0.24,0.01-0.47,0.01-0.67,0c-0.09-0.01-0.19-0.03-0.27-0.05
				c0.22-0.34,0.09-1.09-0.24-1.48c0.09,0.44-0.08,0.93-0.42,1.25c-0.41-0.19-0.81-0.48-1.23-0.76c-0.78-0.53-1.64-0.94-2.54-1.22
				c-0.47-0.16-1.81-0.41-3.44-0.4c-4.43,14.62,6.66,20.05,6.72,21.42c1.14-0.12,2.03-0.23,2.42-0.2l0.08-0.13
				c0.06,0,0.14-0.03,0.24-0.09c1.14,0.19,2.87,0.67,5.41,2.03c2.04,1.09-0.22,4.55-0.49,6.94c-0.53,1.75-0.41,4.43-0.35,5.85
				c0.3,7.81,2.31,16.44,3,23.76c-0.12,0.03-0.25,0.05-0.37,0.09c0,0-2.74,1.5-4.1,2.6c-0.47,0.38-1.25,0.78-2.11,1.16
				c-1.14-0.61-2.44-0.96-2.44-0.96s-2.76,0.81-4.06,1.79c-1.3,0.98-0.16,1.63-0.16,1.63s-2.11,0.16-2.11,1.14s0.49,4.55,0.49,4.55
				s3.9,2.11,4.71,1.79c0.53-0.21,1.54-2.69,2.18-4.4c3.21-0.17,14.16-1.53,15.06-4.23c0.14-0.43,0.13-0.87,0.01-1.3
				c0.23-7.31,0.47-23.57,1.85-26.83c3.32-0.32,6.38-0.62,8.31-0.75c3.72-0.24,6.59-0.17,11.73,1.47c2.95,0.94,5.98,2.37,9.18,4.68
				c0.14-0.03,1.93-1.03,2.73-1.38c19.48-8.48,58.2,8.83,60.65,10.59c2.79,1.62,9.97,7.56,17.29,9.62
				c5.28,1.49,8.89,1.63,15.48,4.73c3.31,1.56,4.9,4.55,8.08,5.78c1.75,0.72,7.14,0.89,7.22,0.83
				C210.92,327.83,211.79,327.83,211.36,326.1L211.36,326.1z"/>
			<path class="st8" d="M45.06,277.47c-1.39,0.16-4.1,0.29-6.68-0.64c-2.22-0.8-3.2-1.65-3.64-2.23c-0.07-0.1-0.14-0.19-0.19-0.29
				c-0.36,0.68-1.41,2.1-3.66,1.7c-1.47-0.26-3.13-1.44-4.43-3.15c-1.67-2.2-2.97-5.65-1.16-8.14c0.64-0.88,1.53-1.29,2.28-1.47
				c-0.16-0.09-0.31-0.19-0.42-0.3c-0.44-0.41-0.36-1.02-0.06-1.26c0.17-0.14,0.47-0.19,0.75,0.14c0.18,0.2,0.42,0.41,0.71,0.61
				c-0.22-0.38-0.35-0.78-0.36-1.14c-0.01-0.47,0.29-0.79,0.58-0.9c0.39-0.14,0.74,0.12,0.7,0.59c-0.02,0.23,0,0.5,0.04,0.79
				c0.6-1.78,1.65-4.35,4.37-5.77c1.64-0.86,3.88-1.6,5.97-0.91l0.12,0.04l-0.03,0.13c1.26,4.41,0.27,7.28,2.94,9.8l-0.18,0.22
				c-0.84-0.34-1.49,0.27-1.81,0.55c-0.5,0.45-0.91,1.82,0.27,2.77c1.79,1.43,4.63,1.17,4.63,1.17s2.61,5.54,1.77,6.93l-2.47,0.74
				L45.06,277.47z"/>
			<path class="st9" d="M28.78,260.41c0.39-0.14,0.74,0.12,0.7,0.59c-0.02,0.23,0,0.5,0.04,0.79c0.03-0.1,6.02,5.45,5.43,13.07
				c-0.08-0.09-0.16-0.18-0.22-0.26c-0.03-0.04-0.05-0.08-0.08-0.12c0-0.03,0-0.05,0-0.07c-2.01-11.4-7.18-11.13-7.07-11.16
				c-0.16-0.09-0.31-0.19-0.42-0.3c-0.44-0.41-0.36-1.02-0.06-1.26c0.17-0.14,0.47-0.19,0.75,0.14c0.18,0.2,0.42,0.41,0.71,0.61
				c-0.22-0.38-0.35-0.78-0.36-1.14C28.19,260.84,28.49,260.52,28.78,260.41L28.78,260.41z"/>
			<path class="st9" d="M46.22,256.13c0,0,0.2,1.48-0.81,3.07C44.7,260.32,48.13,258.37,46.22,256.13L46.22,256.13z"/>
			<path class="st10" d="M55.85,264.96c0,0-1.9,3.5-4.66,5.69C52.29,269.17,53.96,267.3,55.85,264.96z"/>
			<path class="st11" d="M59.62,265.9c-0.01,0.2-0.19,0.89-0.27,1.03c1.35,0.48,13.58,4.5,10.75,11.95
				c-2.37,6.25-15.47,2.49-15.47,2.49l-0.55,0.84c0,0,16.17,4.45,14.58,9.32c3.9,0.65,9.56-0.57,10.64-0.2
				c4.19-7.67,7.32-20,7.32-20s-7.36-4.6-8.83-5.79C74.62,272.52,60.31,266.03,59.62,265.9z"/>
			<path class="st12" d="M51.22,264.14c-0.99,2.19-4.63,2.34-5.9,0.03C44.06,261.85,51.86,262.73,51.22,264.14z"/>
			<path class="st13" d="M81.94,279.42c-2.18,6.34-4.81,11.94-4.85,12.02c-0.04,0.08-0.14,0.12-0.22,0.08
				c-0.08-0.04-0.13-0.12-0.08-0.22c0.06-0.13,5.96-12.7,7.4-21.47c0.01-0.1,0.1-0.15,0.19-0.14c0.09,0.01,0.15,0.1,0.14,0.19
				C84.03,272.84,83.05,276.22,81.94,279.42L81.94,279.42z"/>
			<path class="st0" d="M156.21,297.84c-6.06-1.6-22.31-15.82-36.24-20.44c-10.04-3.33-14.61-2.35-17.2-2.24
				c-0.53,0.02-1.03,0.02-1.54,0.02c-1.95,7.38-4.36,15.12-7.26,22.22c1.12,0.72,23.08-1.78,23.43-1.88
				c5.76,2.73,11.22,3.59,16.82,6.14l4.16,1.38c2.14,0.55,3.94,1.01,5.23,1.41c4.99,1.53,11.5,1.66,13.97,3.43
				c0.97,0.56,2.47,1.5,4.3,2.57c1.58-3.16,2.81-6.49,3.33-9.99C160.68,299.06,156.21,297.84,156.21,297.84L156.21,297.84z"/>
		</g>
	</g>
</g>
</svg>
