<?xml version="1.0" encoding="utf-8"?>
<!-- Generator: Adobe Illustrator 26.5.0, SVG Export Plug-In . SVG Version: 6.00 Build 0)  -->
<svg version="1.1" id="Layer_1" xmlns="http://www.w3.org/2000/svg" xmlns:xlink="http://www.w3.org/1999/xlink" x="0px" y="0px"
	 viewBox="0 0 250 132" style="enable-background:new 0 0 250 132;" xml:space="preserve">
<style type="text/css">
	.st0{fill:#B2BCC4;}
	.st1{fill:#C5D0D9;}
	.st2{opacity:0.4;}
	.st3{fill:#F7B882;}
	.st4{fill:#905423;}
	.st5{fill:#46260F;}
	.st6{fill:#D09A6F;}
	.st7{fill:#F5B080;}
	.st8{fill:#355775;}
	.st9{fill:#F5B780;}
	.st10{fill:#FFFFFF;}
	.st11{fill:#D1E5FF;}
	.st12{fill:url(#SVGID_1_);}
	.st13{fill:url(#SVGID_00000050650455833206928890000004049128767998318005_);}
	.st14{fill:#838385;}
</style>
<g>
	<g>
		<path class="st0" d="M224.5,126.1c0-3.7-44.8-6.6-100-6.6s-100,3-100,6.6s44.8,6.6,100,6.6S224.5,129.7,224.5,126.1z"/>
		<g>
			<path class="st1" d="M223.7,113.2c-1.8-0.1-7.6,1.1-12.6,1.4c-1.8,0.1-7.7-0.4-9.5-0.5c-9.6-0.5-16.4-1.5-27.4-1.8
				c-0.4,0-0.8-0.1-1.2-0.1c-0.1-0.2-0.1-0.3-0.1-0.3s-5.3-1.3-7.4-1.9c-2-0.6-7.9,0.8-8.7,0.5c-0.9-0.3-10.9-1.4-20.7-1.8
				c-11.5-0.6-25,0.6-27.7,0.1c-0.2,0-1.9,7.8-3.3,15c-3.9-0.5-7.2-0.9-8.7-1.1c-1.9-0.6-12.6-3.7-13.7-3.9
				c-3.1-0.4-9.1-1.2-12.5-1.7c-0.2-1.7-0.7-3.5-0.7-5.2c-0.2,0-7.1,1-8.1,1.1c0.5-2.4,0.3-4.8,0.3-5.6c0-0.3,0-0.5,0-0.6
				c-0.3-1.5-1.5-1.2-2.6-0.9c-0.6,0.1-1.2,0.2-1.6-0.4c-0.2-0.3-0.2-0.5-0.5-0.7c-0.2-0.1-0.4,0-0.6,0c-0.3,0.1-0.3,0.5-0.4,0
				c-0.1-0.4-0.6-0.5-1-0.4c-0.5,0.1-0.5,0.8-1.4,0.1c-0.2-0.2-0.4-0.4-0.6-0.6c-0.2-0.2-0.5-0.1-0.7,0.1c-0.6,0.6-1,1.2-1.7,1.8
				c-0.2,0.1-0.4,0.3-0.6,0.4c-0.1,0-0.1,0.1-0.2,0.1c-0.2-0.6-0.7-1.1-1.6-1.3c0,0,0.5,0.5,0.8,1.5l0,0c-0.5,0.1-1,0.1-1.5,0.1
				c-1,0-2,0.2-2.9,0.4c-0.4,0.1-1.2,0.5-2.2,1l-0.1-0.1v-0.1h-0.1c-2.2,0.6-3.7,2.6-4.6,4.3c-1.5,2.8-0.9,5.7-0.4,7.5
				c-0.2-0.2-0.4-0.5-0.5-0.7c-0.2-0.4-0.7-0.4-1-0.1c-0.2,0.3-0.3,0.7,0,1.1c0.2,0.3,0.6,0.6,1,0.8c-0.4,0-0.7,0-1-0.1
				c-0.4-0.1-0.7,0.1-0.7,0.3c-0.1,0.4,0.2,1,0.8,1c0.2,0,0.3,0,0.5,0c-0.5,0.6-1.1,1.5-1.1,2.6c-0.1,3.2,13.7,3.6,13.6,2.8
				c0.1,0,0.1,0,0.2,0.1l0,0c0,0,0.1,0,0.1,0.1c0.1,0,0.2,0.1,0.3,0.1l0,0l0,0c0.8,0.2,2.1,0.2,4.1-0.3c2.8-0.7,5-2.4,6.1-3.4l0,0
				l1.7-2.1v-0.1c0.1,0,0.1-0.1,0.2-0.1c0.1,0,0.2,0,0.4,0c0-0.1,0.7-0.2,1.5-0.2c0.3,2.7,1.4,5.5,3.3,6.8
				c2.5,1.6,14.4,1.1,27.8,1.1c4.4,1.2,9.8,0.9,15.1,0.5c4.3,1.8,8.6,2.2,14.5,0.7c1.5,0.6,4.3,1.4,8.1,1.4c1.3,0,5.8-0.6,8.1-1
				c2.3-0.5-6.5-3.1-7.3-3.2c0,0-0.1,0-0.4-0.1c1.4-0.6,2.9-1.3,4.5-2c6.4-3.1,20.2-5.4,26.1-5.2c2.5,0,4.9,2,9.1,2.4c0,0,0,0,0-0.1
				c1.7,0.5,3.4,1,4.8,1.2c9.2,1.5,16.7-4.7,25.6-3.6c2.7,0.2,3.2,2.6,5.6,2.8c2.5,0.4,4.5-1.9,5.8-2.7c4.8-3,8.6-1.9,9.3-3.8
				C224.3,114.1,225.1,113.3,223.7,113.2L223.7,113.2z"/>
			<g class="st2">
				<g>
					<path class="st3" d="M59.6,123.3c0.8-0.7,1.5-1.3,1.8-1.5c0.1,0,0.2,0,0.4,0c0.1-0.5,7.3-0.1,7.5-0.6c1.7-3,0.2-6.2,0-9.4
						c-0.2,0-8.1,1.2-8.2,1.1c0.1-1.6,0.5-5.6,0.4-6.3c-0.3-1.5-1.5-1.2-2.6-0.9c-0.6,0.1-1.2,0.2-1.6-0.4c-0.2-0.3-0.2-0.5-0.5-0.7
						c-0.2-0.1-0.4,0-0.6,0c-0.3,0.1-0.3,0.5-0.4,0c-0.1-0.4-0.6-0.5-1-0.4c-0.5,0.1-0.5,0.8-1.4,0.1c-0.2-0.2-0.4-0.4-0.6-0.6
						c-0.2-0.2-0.5-0.1-0.7,0.1c-0.6,0.6-1,1.2-1.7,1.8c-0.2,0.1-0.4,0.3-0.6,0.4c-0.1,0-0.2,0.1-0.3,0.1c0-0.4-0.6-1-1.1-1.1
						c0.3,0.3,0.5,0.9,0.4,1.3c-0.5,0.1-1,0.1-1.5,0.1c-1,0-2,0.2-2.9,0.4c-0.5,0.1-1.8,0.7-3.2,1.7C46,124,58.8,122.2,59.6,123.3
						L59.6,123.3z"/>
					<g>
						<path class="st4" d="M59.6,124.2c-1.1,1-3.4,2.7-6.1,3.4c-2.4,0.6-3.7,0.5-4.5,0.2c-0.1,0-0.2-0.1-0.3-0.1
							c0.1,0.8-13.7,0.4-13.6-2.8c0-1.1,0.6-2,1.1-2.6c-0.2,0-0.4,0-0.5,0c-0.6-0.1-0.9-0.7-0.8-1c0.1-0.2,0.3-0.4,0.7-0.3
							c0.3,0.1,0.6,0.1,1,0.1c-0.4-0.2-0.8-0.5-1-0.8c-0.3-0.4-0.2-0.9,0-1.1c0.3-0.4,0.7-0.3,1,0.1c0.1,0.2,0.3,0.4,0.5,0.7
							c-0.5-1.9-1.1-4.7,0.4-7.5c0.9-1.7,2.4-3.7,4.6-4.3h0.1v0.1c3.7,3.1,4.5,6.1,8.3,6.7v0.3c-0.9,0.2-1.1,1.1-1.2,1.5
							c-0.2,0.7,0.3,2.1,1.9,2.2c2.4,0.2,4.7-1.7,4.7-1.7s5.5,3.2,5.6,4.9L59.6,124.2L59.6,124.2z"/>
						<path class="st5" d="M35.5,119.1c0.3-0.4,0.7-0.3,1,0.1c0.1,0.2,0.3,0.4,0.5,0.7c0-0.1,8.4,1.1,12.4,8c-0.1,0-0.2-0.1-0.3-0.1
							c0,0-0.1,0-0.1-0.1c0,0,0,0,0-0.1c-8.5-8.6-12.8-5.4-12.7-5.4c-0.2,0-0.4,0-0.5,0c-0.6-0.1-0.9-0.7-0.8-1
							c0.1-0.2,0.3-0.4,0.7-0.3c0.3,0.1,0.6,0.1,1,0.1c-0.4-0.2-0.8-0.5-1-0.8C35.2,119.8,35.3,119.3,35.5,119.1L35.5,119.1z"/>
						<path class="st5" d="M48,105.1c0,0,1,1.2,1.1,3.1C49.2,109.6,51,105.9,48,105.1z"/>
						<path class="st6" d="M61.5,107c0,0,0.4,4.1-0.7,7.6C60.9,112.7,61.2,110.1,61.5,107z"/>
						<path class="st7" d="M57,109c0.4,2.5-2.6,4.8-5.1,3.5C49.5,111.3,56.7,107.4,57,109z"/>
					</g>
				</g>
				<path class="st8" d="M172.9,111.9c0,0-5.3-1.3-7.4-1.9c-2-0.6-7.9,0.8-8.7,0.5c-0.9-0.3-10.9-1.4-20.7-1.8
					c-11.5-0.6-25,0.6-27.7,0.1c-0.3,0-2.5,10.7-4,18.5c9.2,5.5,15.5,6.7,32.8-1.6c6.4-3.1,20.2-5.4,26.1-5.2c2.5,0,4.9,2,9.1,2.4
					C174.7,116.1,172.9,111.9,172.9,111.9L172.9,111.9z"/>
				<path class="st9" d="M223.7,113.2c-1.8-0.1-7.6,1.1-12.6,1.4c-1.8,0.1-7.7-0.4-9.5-0.5c-9.6-0.5-16.4-1.5-27.4-1.8
					c-0.4,0-0.8-0.1-1.2-0.1c0.4,1,1.4,4.9-0.6,10.6c1.7,0.5,3.4,1,4.8,1.2c9.2,1.5,16.7-4.7,25.6-3.6c2.7,0.2,3.2,2.6,5.6,2.8
					c2.5,0.4,4.5-1.9,5.8-2.7c4.8-3,8.6-1.9,9.3-3.8C224.3,114.1,225.1,113.3,223.7,113.2L223.7,113.2z"/>
				<path class="st3" d="M64.1,116.7c-1.6,2.5-0.8,9.5,2.6,11.6c2.5,1.6,14.4,1.1,27.8,1.1c8.4,2.3,20.3-1,28.4,0.7
					c0,0,3.5,2,9.3,1.9c1.3,0,5.8-0.6,8.1-1c2.3-0.5-6.5-3.1-7.3-3.2c0,0-6.2-2.4-7.8-2.1c-1.6,0.3-24.3-2.5-28.9-3.2
					c-1.9-0.6-12.6-3.7-13.7-3.9c-4.5-0.5-15.1-2.1-15.1-2c-1-0.1-2.1-0.2-3.3-0.3C64.2,116.5,64.1,116.6,64.1,116.7L64.1,116.7z"/>
			</g>
		</g>
		<g>
			<path class="st3" d="M82.8,109.4l-2.3-0.5c-2.1-4.1-10.4,1.4-15.5,3.7c-1.2-0.9-2.1-1.6-2.2-1.6c1.2-1,2.7-2.3,3.1-2.9
				c0.8-1.2-0.2-1.9-1.2-2.5c-0.5-0.3-1-0.7-0.9-1.4c0.1-0.4,0.2-0.5,0.1-0.9c-0.1-0.2-0.3-0.4-0.5-0.4c-0.4-0.1-0.6,0.1-0.3-0.3
				c0.2-0.3-0.1-0.8-0.4-1c-0.5-0.3-0.9,0.2-1-0.9c0-0.3,0-0.6,0-0.8c0-0.3-0.3-0.4-0.6-0.4c-0.8,0-1.6,0.1-2.4,0.1
				c-0.2,0-0.5-0.1-0.7-0.1c-0.1,0-0.2-0.1-0.3-0.1c0.3-0.3,0.3-1.1,0-1.6c0,0.5-0.3,0.9-0.7,1.2c-0.4-0.3-0.7-0.6-1.1-1
				c-0.7-0.7-1.5-1.3-2.4-1.8C53,96,51.7,95.4,50,95.1c-7.4,14.1,3,21.9,2.7,23.3c1.1,0.1,1.9,0.1,2.4,0.2c0.1,0.1,0.2,0.2,0.2,0.3
				c0.2-0.2,2.1,2,3.8,3.4c1.8,1.5,3.4,3.7,5.8,5.1c1.8,1.4,4,1.5,4.8,1.6c19.7,2,37.5-1.3,39.8-0.1c1.5,0.1-0.4-15.4,2.6-20.4
				C102.3,114.3,87.1,109.3,82.8,109.4L82.8,109.4z"/>
			<g>
				<path class="st4" d="M52.1,119c-1.5-0.1-4.3-0.5-6.7-2c-2.1-1.2-3-2.3-3.3-3c-0.1-0.1-0.1-0.2-0.1-0.3c-0.5,0.6-1.9,1.9-4.1,1
					c-1.5-0.6-2.9-2.1-3.9-4.1c-1.3-2.6-2-6.4,0.4-8.6c0.8-0.8,1.8-1,2.6-1.1c-0.2-0.1-0.3-0.2-0.4-0.4c-0.4-0.5-0.2-1.1,0.2-1.3
					c0.2-0.1,0.5-0.1,0.7,0.3c0.1,0.2,0.3,0.5,0.6,0.8c-0.2-0.4-0.2-0.9-0.2-1.2c0.1-0.5,0.5-0.8,0.8-0.8c0.4-0.1,0.7,0.3,0.6,0.7
					c-0.1,0.2-0.1,0.5-0.1,0.8c1-1.7,2.5-4.1,5.6-5.1c1.9-0.6,4.3-0.9,6.3,0.2l0.1,0.1v0.1c0.4,4.8-1.1,7.5,1.1,10.6l-0.2,0.2
					c-0.8-0.5-1.6,0-2,0.2c-0.6,0.4-1.3,1.7-0.3,2.9c1.6,1.8,4.5,2.1,4.5,2.1s1.6,6.2,0.5,7.5L52.1,119L52.1,119L52.1,119z"/>
				<path class="st5" d="M38.7,98.4c0.4-0.1,0.7,0.3,0.6,0.7c-0.1,0.2-0.1,0.5-0.1,0.8c0-0.1,5.1,6.8,3,14.5
					c-0.1-0.1-0.1-0.2-0.2-0.3c0,0,0-0.1-0.1-0.1c0,0,0,0,0-0.1c0.2-12.1-5.2-12.8-5.1-12.8c-0.2-0.1-0.3-0.2-0.4-0.4
					c-0.4-0.5-0.2-1.1,0.2-1.3c0.2-0.1,0.5-0.1,0.7,0.3c0.1,0.2,0.3,0.5,0.6,0.8c-0.2-0.4-0.2-0.9-0.2-1.2
					C38,98.7,38.4,98.4,38.7,98.4z"/>
				<path class="st5" d="M57.5,97.4c0,0-0.1,1.5-1.4,3C55.1,101.4,59,100,57.5,97.4z"/>
				<path class="st6" d="M65.7,108.3c0,0-2.6,3.2-5.9,4.9C61.2,111.9,63.2,110.3,65.7,108.3L65.7,108.3z"/>
				<path class="st7" d="M61,106.6c-1.4,2-5.2,1.5-6.1-1.1C54.2,102.8,62,105.2,61,106.6z"/>
			</g>
			<path class="st10" d="M90.3,110.5c-2.7-0.3-3.6-1.6-4.2-2.1c-3.3-2.5-9.9-6.6-23.2,6.1c4.3-0.2,11.9,0.8,13.3,5.1
				c1.7,5.1-0.9,10.1-9.1,9c6.7,1.4,14.8,1.8,20.6,1C89.9,124.3,90.8,118.3,90.3,110.5L90.3,110.5z"/>
			<path class="st11" d="M88.1,109.9L88.1,109.9c0.1,3.5,0.5,14.5-2.5,19.9c0,0.1,0,0.1,0.1,0.2h0.1c0.1,0,0.1,0,0.2-0.1
				c2.9-5.4,2.7-16,2.4-19.9C88.3,110,88.2,110,88.1,109.9L88.1,109.9z"/>
			<g>
				
					<linearGradient id="SVGID_1_" gradientUnits="userSpaceOnUse" x1="698.9008" y1="275.06" x2="764.4034" y2="275.06" gradientTransform="matrix(0.256 -0.946 -0.9461 -0.2556 189.3397 854.3198)">
					<stop  offset="0" style="stop-color:#355775"/>
					<stop  offset="3.000000e-02" style="stop-color:#345572"/>
					<stop  offset="0.22" style="stop-color:#2E4B66"/>
					<stop  offset="0.47" style="stop-color:#2B465E"/>
					<stop  offset="1" style="stop-color:#2A445C"/>
				</linearGradient>
				<path class="st12" d="M112.7,59.7c0,0-1.5,5.2-2.2,7.1s0.4,7.7,0.1,8.6c-0.3,0.8-2.8,44.6-3.5,47.2c-0.1,0.3,24.8-9.9,17.5-27.2
					c-2.7-6.4-4.3-20.1-3.9-25.9c0.2-2.4,2.2-4.7,2.8-8.8C117,58.1,112.7,59.7,112.7,59.7L112.7,59.7z"/>
				
					<linearGradient id="SVGID_00000018935729216610918280000018228612618110663076_" gradientUnits="userSpaceOnUse" x1="787.8739" y1="291.5802" x2="789.2459" y2="281.301" gradientTransform="matrix(0.256 -0.946 -0.9461 -0.2556 189.3397 854.3198)">
					<stop  offset="0" style="stop-color:#F8A164"/>
					<stop  offset="0.1" style="stop-color:#F8A469"/>
					<stop  offset="0.63" style="stop-color:#F7B37B"/>
					<stop  offset="1" style="stop-color:#F7B882"/>
				</linearGradient>
				<path style="fill:url(#SVGID_00000018935729216610918280000018228612618110663076_);" d="M116.5,10c-0.2,1.8,0.7,7.4,0.7,12.4
					c0,1.8-0.8,7.5-0.9,9.3c-0.9,9.4-2.2,15.9-3.1,26.7c0,0.3-0.1,0.8-0.2,1.2c1-0.3,4.9-1.1,10.4,1.1c0.6-1.7,1.1-3.3,1.4-4.6
					c2-8.9-3.8-16.6-2.3-25.2c0.3-2.7,2.7-3,3-5.3c0.5-2.4-1.6-4.5-2.4-5.8c-2.7-4.9-1.5-8.5-3.3-9.3C117.4,9.5,116.6,8.6,116.5,10
					L116.5,10z"/>
				<path class="st8" d="M114.1,58.8c0,0-1.6,5.2-2.4,7.2c-0.7,2,0.3,7.9-0.1,8.8c-0.3,0.9-2.1,10.8-3.2,20.6
					c-1.3,11.5-1.8,30.7-2.5,33.3c-0.1,0.3,17.8,2.3,21.6-4.7c3.9-7,2.7-11.3-2.1-28.7c-1.9-6.9-4.1-20.5-3.6-26.4
					c0.2-2.5,2.3-4.8,2.9-8.9C118.4,57.2,114.1,58.8,114.1,58.8L114.1,58.8z"/>
				<path class="st9" d="M118.6,8.1c-0.2,1.8,0.6,7.6,0.6,12.7c0,1.8-0.9,7.6-1.1,9.5c-1.1,9.6-2.5,16.2-3.5,27.2
					c0,0.4-0.1,0.8-0.2,1.2c1.1-0.3,5-1.1,10.5,1.3c0.6-1.7,1.2-3.4,1.5-4.7c2.1-9.1-3.6-17-2-25.7c0.4-2.7,2.8-3.1,3.1-5.4
					c0.6-2.5-1.6-4.6-2.3-6c-2.7-5-1.4-8.7-3.2-9.5C119.6,7.6,118.8,6.8,118.6,8.1z"/>
			</g>
			<path class="st3" d="M72.5,121.3c2.1-2.1,6.2-13,11.2-25.5c5.2-7,6.4-19.3,10.9-26.2c0,0,3.2-2.5,5.2-8c0.4-1.2,1.6-5.6,2-7.9
				s-5.2,4.9-5.6,5.7c0,0-4.4,4.9-4.7,6.5C91.2,67.4,80.3,87.7,78,91.7c-1.2,1.5-16,24.6-15.9,24.7
				C59.2,122.3,67.9,125.8,72.5,121.3L72.5,121.3z"/>
		</g>
		<path class="st14" d="M186,90.2c-0.1,0-0.3,0-0.4,0.2l-0.9,2.8c-3.2-19.8-14.4-30.1-23.3-35.2c-7.6-4.4-14.8-5.9-17.7-6.4l2.4-0.7
			c0.2,0,0.2-0.2,0.2-0.4s-0.2-0.2-0.4-0.2l-3.8,1.1c-0.1,0-0.2,0.1-0.2,0.2s0,0.2,0.1,0.3l3.4,2.4c0.1,0,0.1,0.1,0.2,0.1
			c0.1,0,0.2,0,0.2-0.1c0.1-0.1,0.1-0.3-0.1-0.4l-2.4-1.7c6,0.9,35.2,7.2,40.7,41.1l-1.5-2.2c-0.1-0.1-0.3-0.2-0.4-0.1
			c-0.1,0.1-0.2,0.3-0.1,0.4l2.2,3.2c0.1,0.1,0.1,0.1,0.2,0.1l0,0c0.1,0,0.2-0.1,0.2-0.2l1.2-4C186.3,90.4,186.2,90.2,186,90.2
			L186,90.2z"/>
	</g>
</g>
</svg>
