<?xml version="1.0" encoding="utf-8"?>
<!-- Generator: Adobe Illustrator 26.5.0, SVG Export Plug-In . SVG Version: 6.00 Build 0)  -->
<svg version="1.1" id="Layer_1" xmlns="http://www.w3.org/2000/svg" xmlns:xlink="http://www.w3.org/1999/xlink" x="0px" y="0px"
	 viewBox="0 0 250 400" style="enable-background:new 0 0 250 400;" xml:space="preserve">
<style type="text/css">
	.st0{fill:#355775;}
	.st1{font-family:'FarmWaveFree-Regular';}
	.st2{font-size:19.3734px;}
	.st3{letter-spacing:1;}
	.st4{fill:#B2BCC4;}
	.st5{fill:#C5D0D9;}
	.st6{opacity:0.4;}
	.st7{fill:#F7B882;}
	.st8{fill:#905423;}
	.st9{fill:#46260F;}
	.st10{fill:#D09A6F;}
	.st11{fill:#F5B080;}
	.st12{fill:#F5B780;}
	.st13{fill:#FFFFFF;}
	.st14{fill:#D1E5FF;}
	.st15{fill:url(#SVGID_1_);}
	.st16{fill:url(#SVGID_00000086674015371625439490000007121579016976528263_);}
	.st17{fill:#838385;}
</style>
<g>
	<text transform="matrix(1 0 0 1 52.0013 362.9848)" class="st0 st1 st2 st3">Jackkni</text>
	<text transform="matrix(1 0 0 1 116.1246 362.9848)" class="st0 st1 st2">f</text>
	<text transform="matrix(1 0 0 1 122.7915 362.9848)" class="st0 st1 st2 st3">e sit up</text>
	<g>
		<path class="st4" d="M224.46,326.08c0-3.66-44.78-6.63-100.02-6.63s-100.02,2.97-100.02,6.63c0,3.66,44.78,6.63,100.02,6.63
			S224.46,329.74,224.46,326.08z"/>
		<g>
			<path class="st5" d="M223.74,313.18c-1.84-0.12-7.56,1.11-12.65,1.37c-1.84,0.09-7.67-0.39-9.52-0.48
				c-9.6-0.48-16.38-1.47-27.39-1.77c-0.35-0.01-0.77-0.07-1.23-0.14c-0.06-0.18-0.11-0.29-0.11-0.29s-5.34-1.29-7.38-1.91
				c-2.04-0.62-7.86,0.77-8.74,0.51c-0.88-0.26-10.9-1.37-20.72-1.84c-11.52-0.56-24.98,0.59-27.69,0.1c-0.23-0.04-1.89,7.81-3.3,15
				c-3.91-0.48-7.25-0.92-8.71-1.13c-1.87-0.58-12.6-3.67-13.71-3.88c-3.08-0.35-9.08-1.2-12.51-1.67
				c-0.15-1.72-0.65-3.46-0.74-5.19c-0.18-0.02-7.1,1.02-8.1,1.13c0.45-2.43,0.34-4.79,0.28-5.65c0-0.28-0.01-0.49-0.03-0.61
				c-0.3-1.45-1.45-1.17-2.61-0.87c-0.61,0.15-1.22,0.19-1.63-0.37c-0.21-0.29-0.22-0.48-0.53-0.67c-0.2-0.12-0.44-0.05-0.64,0.04
				c-0.35,0.15-0.32,0.52-0.41,0.05c-0.07-0.37-0.62-0.51-0.97-0.41c-0.51,0.14-0.53,0.77-1.37,0.07c-0.21-0.18-0.37-0.42-0.59-0.59
				c-0.24-0.18-0.54-0.06-0.73,0.14c-0.57,0.59-1.05,1.24-1.67,1.78c-0.2,0.15-0.4,0.28-0.57,0.4c-0.07,0.04-0.14,0.07-0.21,0.1
				c-0.2-0.56-0.66-1.08-1.57-1.32c0,0,0.48,0.55,0.82,1.52v0.01c-0.47,0.08-0.98,0.07-1.51,0.07c-0.98,0-1.96,0.16-2.91,0.44
				c-0.37,0.1-1.2,0.46-2.18,1.03c-0.04-0.03-0.08-0.07-0.12-0.1l-0.05-0.13l-0.13,0.04c-2.2,0.64-3.7,2.6-4.61,4.31
				c-1.5,2.83-0.9,5.67-0.36,7.55c-0.21-0.23-0.38-0.45-0.5-0.66c-0.24-0.42-0.7-0.44-0.95-0.09c-0.19,0.26-0.26,0.72,0.03,1.11
				c0.22,0.3,0.57,0.57,0.98,0.77c-0.37,0-0.7-0.03-0.98-0.1c-0.43-0.11-0.66,0.1-0.72,0.32c-0.11,0.39,0.18,0.96,0.8,1.05
				c0.17,0.03,0.35,0.03,0.54,0.01c-0.54,0.6-1.07,1.47-1.1,2.61c-0.09,3.22,13.73,3.61,13.64,2.81c0.06,0.03,0.13,0.05,0.19,0.08
				l0,0c0.05,0.02,0.09,0.04,0.14,0.06c0.1,0.03,0.21,0.06,0.33,0.09c0,0,0.01,0,0.01,0l0,0c0.77,0.17,2.06,0.21,4.11-0.32
				c2.77-0.72,5.03-2.44,6.14-3.4l0.04-0.03l1.69-2.1c0-0.03-0.02-0.07-0.03-0.11c0.06-0.05,0.13-0.1,0.18-0.14
				c0.12,0,0.24,0.01,0.36,0.02c0.02-0.13,0.65-0.2,1.53-0.24c0.27,2.68,1.35,5.53,3.28,6.76c2.47,1.58,14.41,1.08,27.83,1.12
				c4.44,1.2,9.81,0.86,15.09,0.52c4.29,1.78,8.56,2.24,14.51,0.74c1.49,0.59,4.29,1.44,8.08,1.37c1.31-0.02,5.84-0.57,8.13-1.03
				c2.28-0.46-6.52-3.1-7.31-3.2c0,0-0.14-0.05-0.37-0.14c1.43-0.61,2.91-1.26,4.51-2.03c6.42-3.06,20.23-5.37,26.15-5.24
				c2.46,0.05,4.95,1.95,9.08,2.37c0.01-0.03,0.02-0.05,0.02-0.07c1.74,0.51,3.43,0.98,4.75,1.22c9.2,1.54,16.73-4.68,25.55-3.59
				c2.74,0.21,3.24,2.57,5.56,2.75c2.51,0.4,4.49-1.88,5.83-2.72c4.84-3.02,8.57-1.94,9.28-3.8
				C224.28,314.08,225.12,313.27,223.74,313.18L223.74,313.18z"/>
			<g class="st6">
				<g>
					<path class="st7" d="M59.62,323.31c0.83-0.7,1.47-1.26,1.85-1.52c0.12,0,0.24,0.01,0.36,0.02c0.06-0.45,7.27-0.15,7.51-0.57
						c1.69-2.97,0.18-6.21,0-9.37c-0.19-0.02-8.08,1.16-8.23,1.14c0.13-1.58,0.52-5.57,0.37-6.26c-0.3-1.45-1.45-1.17-2.61-0.87
						c-0.61,0.15-1.22,0.19-1.63-0.37c-0.21-0.29-0.22-0.48-0.53-0.67c-0.2-0.12-0.44-0.05-0.64,0.04
						c-0.35,0.15-0.32,0.52-0.41,0.05c-0.07-0.37-0.62-0.51-0.97-0.41c-0.51,0.14-0.53,0.77-1.37,0.07
						c-0.21-0.18-0.37-0.42-0.59-0.59c-0.24-0.18-0.54-0.06-0.73,0.14c-0.57,0.59-1.05,1.24-1.67,1.78c-0.2,0.15-0.4,0.28-0.57,0.4
						c-0.09,0.05-0.18,0.09-0.26,0.12c-0.01-0.42-0.57-1-1.08-1.14c0.34,0.33,0.48,0.85,0.38,1.33c-0.47,0.08-0.98,0.07-1.51,0.07
						c-0.98,0-1.96,0.16-2.91,0.44c-0.49,0.14-1.8,0.72-3.2,1.68C45.99,324.03,58.76,322.16,59.62,323.31L59.62,323.31z"/>
					<g>
						<path class="st8" d="M59.58,324.16c-1.1,0.96-3.37,2.67-6.14,3.4c-2.38,0.62-3.74,0.47-4.45,0.23
							c-0.12-0.04-0.23-0.09-0.33-0.14c0.09,0.8-13.73,0.41-13.64-2.81c0.03-1.14,0.56-2.01,1.1-2.61
							c-0.19,0.02-0.38,0.02-0.54-0.01c-0.62-0.09-0.91-0.67-0.8-1.05c0.06-0.22,0.29-0.44,0.72-0.32c0.27,0.07,0.6,0.1,0.98,0.1
							c-0.41-0.2-0.76-0.47-0.98-0.77c-0.29-0.4-0.22-0.85-0.03-1.11c0.26-0.35,0.71-0.33,0.95,0.09c0.12,0.21,0.29,0.43,0.5,0.66
							c-0.54-1.88-1.14-4.72,0.36-7.55c0.91-1.71,2.4-3.67,4.61-4.31l0.13-0.04l0.05,0.13c3.69,3.06,4.54,6.12,8.32,6.71l-0.02,0.3
							c-0.92,0.2-1.12,1.12-1.23,1.55c-0.17,0.69,0.3,2.11,1.87,2.23c2.39,0.18,4.68-1.73,4.68-1.73s5.53,3.24,5.61,4.93l-1.69,2.1
							L59.58,324.16z"/>
						<path class="st9" d="M35.47,319.07c0.26-0.35,0.71-0.33,0.95,0.09c0.12,0.21,0.29,0.43,0.5,0.66
							c-0.03-0.1,8.41,1.15,12.4,8.05c-0.13-0.03-0.24-0.06-0.34-0.09c-0.05-0.02-0.09-0.04-0.14-0.06
							c-0.02-0.02-0.03-0.04-0.04-0.06c-8.46-8.64-12.76-5.36-12.69-5.44c-0.19,0.02-0.38,0.02-0.54-0.01
							c-0.62-0.09-0.91-0.67-0.8-1.05c0.06-0.22,0.29-0.44,0.72-0.32c0.27,0.07,0.6,0.1,0.98,0.1c-0.41-0.2-0.76-0.47-0.98-0.77
							C35.21,319.79,35.28,319.33,35.47,319.07L35.47,319.07z"/>
						<path class="st9" d="M47.98,305.08c0,0,1.04,1.16,1.11,3.13C49.15,309.59,50.95,305.88,47.98,305.08z"/>
						<path class="st10" d="M61.49,307c0,0,0.43,4.14-0.65,7.65C60.91,312.74,61.25,310.14,61.49,307z"/>
						<path class="st11" d="M57.02,309.04c0.44,2.47-2.61,4.76-5.07,3.5C49.49,311.29,56.74,307.44,57.02,309.04z"/>
					</g>
				</g>
				<path class="st0" d="M172.85,311.87c0,0-5.34-1.29-7.38-1.91c-2.04-0.62-7.86,0.77-8.74,0.51c-0.88-0.26-10.9-1.37-20.72-1.84
					c-11.52-0.56-24.98,0.59-27.69,0.1c-0.27-0.05-2.49,10.69-3.98,18.55c9.19,5.47,15.48,6.66,32.78-1.58
					c6.42-3.06,20.23-5.37,26.15-5.24c2.46,0.05,4.95,1.95,9.08,2.37C174.71,316.13,172.85,311.87,172.85,311.87L172.85,311.87z"/>
				<path class="st12" d="M223.74,313.18c-1.84-0.12-7.56,1.11-12.65,1.37c-1.84,0.09-7.67-0.39-9.52-0.48
					c-9.6-0.48-16.38-1.47-27.39-1.77c-0.35-0.01-0.77-0.07-1.23-0.14c0.36,1.04,1.39,4.93-0.59,10.58
					c1.74,0.51,3.43,0.98,4.75,1.22c9.2,1.54,16.73-4.68,25.55-3.59c2.74,0.21,3.24,2.57,5.56,2.75c2.51,0.4,4.49-1.88,5.83-2.72
					c4.84-3.02,8.57-1.94,9.28-3.8C224.28,314.08,225.12,313.27,223.74,313.18L223.74,313.18z"/>
				<path class="st7" d="M64.09,316.68c-1.61,2.48-0.79,9.52,2.55,11.65c2.47,1.58,14.41,1.08,27.83,1.12
					c8.45,2.28,20.32-1.01,28.37,0.69c0,0,3.5,2.04,9.31,1.94c1.31-0.02,5.84-0.57,8.13-1.03c2.28-0.46-6.52-3.1-7.31-3.2
					c0,0-6.22-2.35-7.77-2.06c-1.55,0.3-24.33-2.54-28.9-3.2c-1.87-0.58-12.6-3.67-13.71-3.88c-4.46-0.5-15.07-2.07-15.07-1.97
					c-1.03-0.1-2.14-0.19-3.32-0.27C64.16,316.54,64.14,316.61,64.09,316.68L64.09,316.68z"/>
			</g>
		</g>
		<g>
			<path class="st7" d="M82.81,309.44l-2.34-0.46c-2.14-4.14-10.39,1.39-15.51,3.68c-1.17-0.88-2.13-1.61-2.17-1.65
				c1.21-1.02,2.66-2.3,3.05-2.89c0.82-1.24-0.2-1.85-1.22-2.46c-0.54-0.32-0.99-0.73-0.89-1.42c0.06-0.35,0.19-0.49,0.1-0.85
				c-0.06-0.23-0.28-0.35-0.48-0.42c-0.36-0.14-0.6,0.14-0.33-0.26c0.21-0.31-0.08-0.8-0.39-0.98c-0.46-0.26-0.92,0.16-1.02-0.92
				c-0.02-0.28,0.03-0.56,0-0.84c-0.04-0.3-0.34-0.42-0.61-0.42c-0.82,0.01-1.62,0.14-2.44,0.07c-0.25-0.04-0.48-0.08-0.69-0.12
				c-0.1-0.03-0.18-0.06-0.27-0.1c0.3-0.3,0.31-1.11,0.04-1.57c0,0.47-0.26,0.94-0.67,1.21c-0.39-0.28-0.74-0.65-1.11-1.02
				c-0.69-0.7-1.5-1.28-2.37-1.75c-0.45-0.25-1.78-0.77-3.45-1.08c-7.39,14.15,2.95,21.88,2.74,23.3c1.08,0.09,1.93,0.15,2.38,0.23
				c0.08,0.08,0.16,0.18,0.24,0.27c0.22-0.17,2.12,1.96,3.8,3.36c1.83,1.52,3.36,3.68,5.8,5.15c1.81,1.42,4.03,1.5,4.78,1.58
				c19.65,1.99,37.49-1.29,39.75-0.07c1.51,0.1-0.42-15.41,2.59-20.36C102.31,314.34,87.09,309.32,82.81,309.44L82.81,309.44z"/>
			<g>
				<path class="st8" d="M52.14,319.05c-1.46-0.11-4.27-0.5-6.74-1.95c-2.12-1.25-2.97-2.32-3.3-2.99c-0.06-0.11-0.1-0.23-0.14-0.33
					c-0.51,0.63-1.86,1.88-4.09,1.03c-1.46-0.56-2.93-2.09-3.93-4.1c-1.29-2.58-1.95-6.38,0.39-8.58c0.83-0.78,1.82-1.02,2.63-1.06
					c-0.15-0.12-0.28-0.25-0.38-0.39c-0.37-0.5-0.17-1.12,0.18-1.31c0.2-0.11,0.52-0.1,0.74,0.28c0.14,0.24,0.35,0.5,0.62,0.76
					c-0.15-0.43-0.21-0.87-0.15-1.24c0.08-0.49,0.45-0.76,0.77-0.8c0.43-0.07,0.73,0.27,0.61,0.74c-0.06,0.24-0.1,0.51-0.11,0.82
					c0.95-1.71,2.54-4.14,5.6-5.07c1.86-0.57,4.3-0.89,6.31,0.22l0.12,0.07l-0.05,0.13c0.44,4.78-1.13,7.53,1.12,10.63l-0.23,0.2
					c-0.79-0.51-1.58-0.01-1.96,0.22c-0.6,0.36-1.29,1.7-0.26,2.89c1.56,1.82,4.53,2.09,4.53,2.09s1.6,6.2,0.47,7.46l-2.68,0.28
					L52.14,319.05L52.14,319.05z"/>
				<path class="st9" d="M38.74,298.38c0.43-0.07,0.73,0.27,0.61,0.74c-0.06,0.24-0.1,0.51-0.11,0.82c0.05-0.1,5.12,6.77,3.04,14.47
					c-0.07-0.11-0.13-0.21-0.17-0.31c-0.02-0.05-0.04-0.09-0.06-0.14c0-0.03,0.01-0.05,0.01-0.07c0.15-12.09-5.21-12.82-5.1-12.83
					c-0.15-0.12-0.28-0.25-0.38-0.39c-0.37-0.5-0.17-1.12,0.18-1.31c0.2-0.11,0.52-0.1,0.74,0.28c0.14,0.24,0.35,0.5,0.62,0.76
					c-0.15-0.43-0.21-0.87-0.15-1.24C38.04,298.7,38.42,298.42,38.74,298.38z"/>
				<path class="st9" d="M57.48,297.36c0,0-0.08,1.55-1.43,3C55.1,301.37,59,300.03,57.48,297.36z"/>
				<path class="st10" d="M65.65,308.3c0,0-2.63,3.23-5.88,4.94C61.17,311.93,63.25,310.34,65.65,308.3L65.65,308.3z"/>
				<path class="st11" d="M61.05,306.56c-1.44,2.05-5.21,1.51-6.06-1.12C54.15,302.82,61.98,305.24,61.05,306.56z"/>
			</g>
			<path class="st13" d="M90.35,310.49c-2.73-0.33-3.56-1.58-4.21-2.09c-3.27-2.53-9.91-6.64-23.2,6.1
				c4.28-0.18,11.86,0.78,13.29,5.11c1.67,5.07-0.89,10.14-9.11,9.01c6.74,1.38,14.84,1.84,20.64,1.04
				C89.87,324.32,90.78,318.28,90.35,310.49L90.35,310.49z"/>
			<path class="st14" d="M88.12,309.94c-0.03-0.03-0.05-0.06-0.08-0.09c0.22,3.6,0.6,14.54-2.39,19.99c-0.04,0.07,0,0.15,0.08,0.18
				c0.02,0.01,0.05,0.01,0.07,0.01c0.06,0,0.12-0.03,0.15-0.08c2.95-5.37,2.66-16,2.44-19.86C88.29,310.05,88.2,310.01,88.12,309.94
				L88.12,309.94z"/>
			<g>
				
					<linearGradient id="SVGID_1_" gradientUnits="userSpaceOnUse" x1="698.9788" y1="475.0791" x2="764.449" y2="475.0791" gradientTransform="matrix(0.256 -0.946 -0.9461 -0.2556 378.5597 1105.4398)">
					<stop  offset="0" style="stop-color:#355775"/>
					<stop  offset="0.03" style="stop-color:#345572"/>
					<stop  offset="0.22" style="stop-color:#2E4B66"/>
					<stop  offset="0.47" style="stop-color:#2B465E"/>
					<stop  offset="1" style="stop-color:#2A445C"/>
				</linearGradient>
				<path class="st15" d="M112.7,259.67c0,0-1.53,5.16-2.24,7.12s0.38,7.73,0.08,8.57c-0.3,0.84-2.83,44.59-3.46,47.22
					c-0.06,0.26,24.77-9.88,17.49-27.24c-2.7-6.44-4.3-20.06-3.89-25.85c0.17-2.4,2.16-4.74,2.77-8.75
					C116.98,258.08,112.7,259.67,112.7,259.67L112.7,259.67z"/>
				
					<linearGradient id="SVGID_00000119091031372253447290000006027821234489575582_" gradientUnits="userSpaceOnUse" x1="787.8873" y1="491.582" x2="789.2594" y2="481.3028" gradientTransform="matrix(0.256 -0.946 -0.9461 -0.2556 378.5597 1105.4398)">
					<stop  offset="0" style="stop-color:#F8A164"/>
					<stop  offset="0.1" style="stop-color:#F8A469"/>
					<stop  offset="0.63" style="stop-color:#F7B37B"/>
					<stop  offset="1" style="stop-color:#F7B882"/>
				</linearGradient>
				<path style="fill:url(#SVGID_00000119091031372253447290000006027821234489575582_);" d="M116.47,209.96
					c-0.21,1.79,0.73,7.45,0.74,12.44c0,1.81-0.76,7.48-0.94,9.29c-0.94,9.37-2.25,15.95-3.08,26.7c-0.03,0.34-0.1,0.75-0.2,1.19
					c1.04-0.29,4.93-1.1,10.4,1.13c0.58-1.67,1.13-3.3,1.43-4.58c1.97-8.92-3.79-16.61-2.29-25.18c0.34-2.67,2.69-3.03,2.98-5.29
					c0.52-2.44-1.64-4.49-2.4-5.84c-2.74-4.9-1.49-8.48-3.3-9.28C117.39,209.47,116.63,208.61,116.47,209.96L116.47,209.96z"/>
				<path class="st0" d="M114.08,258.84c0,0-1.63,5.25-2.37,7.25c-0.74,2,0.27,7.9-0.05,8.75c-0.32,0.86-2.06,10.79-3.16,20.56
					c-1.29,11.46-1.82,30.67-2.49,33.34c-0.07,0.27,17.76,2.3,21.63-4.67c3.86-6.95,2.71-11.26-2.05-28.7
					c-1.87-6.86-4.07-20.52-3.57-26.43c0.21-2.45,2.26-4.81,2.94-8.91C118.44,257.25,114.08,258.84,114.08,258.84L114.08,258.84z"/>
				<path class="st12" d="M118.62,208.13c-0.23,1.83,0.63,7.61,0.57,12.71c-0.02,1.84-0.87,7.63-1.08,9.47
					c-1.09,9.55-2.51,16.25-3.51,27.22c-0.03,0.35-0.12,0.77-0.22,1.21c1.06-0.29,5.01-1.07,10.52,1.26
					c0.62-1.7,1.19-3.36,1.52-4.66c2.12-9.08-3.61-17-1.96-25.72c0.38-2.72,2.77-3.07,3.09-5.37c0.56-2.48-1.6-4.6-2.34-5.99
					c-2.7-5.03-1.39-8.67-3.2-9.5C119.55,207.65,118.79,206.76,118.62,208.13z"/>
			</g>
			<path class="st7" d="M72.52,321.26c2.08-2.07,6.23-13.03,11.15-25.53c5.19-7.04,6.43-19.3,10.94-26.19c0,0,3.17-2.53,5.18-7.97
				c0.45-1.23,1.59-5.65,1.99-7.95c0.4-2.3-5.25,4.95-5.63,5.65c0,0-4.45,4.94-4.73,6.49c-0.28,1.55-11.19,21.75-13.47,25.77
				c-1.22,1.53-16,24.65-15.9,24.7C59.19,322.34,67.93,325.84,72.52,321.26L72.52,321.26z"/>
		</g>
		<path class="st17" d="M186.03,290.18c-0.15-0.05-0.32,0.04-0.37,0.19l-0.86,2.75c-3.2-19.79-14.41-30.09-23.3-35.25
			c-7.61-4.41-14.84-5.9-17.69-6.35l2.45-0.7c0.16-0.04,0.25-0.21,0.2-0.36c-0.04-0.16-0.21-0.25-0.36-0.2l-3.77,1.07
			c-0.11,0.03-0.19,0.12-0.21,0.23c-0.02,0.11,0.03,0.22,0.12,0.29l3.38,2.44c0.05,0.04,0.11,0.05,0.17,0.05
			c0.09,0,0.18-0.04,0.24-0.12c0.1-0.13,0.07-0.32-0.07-0.41l-2.4-1.74c6.01,0.93,35.19,7.23,40.67,41.14l-1.49-2.19
			c-0.09-0.14-0.28-0.17-0.41-0.08c-0.13,0.09-0.17,0.28-0.08,0.41l2.21,3.24c0.05,0.08,0.15,0.13,0.24,0.13c0.01,0,0.03,0,0.04,0
			c0.11-0.02,0.2-0.1,0.24-0.2l1.25-3.98C186.27,290.39,186.18,290.22,186.03,290.18L186.03,290.18z"/>
	</g>
</g>
</svg>
