<?xml version="1.0" encoding="UTF-8"?>
<svg id="Layer_1" data-name="Layer 1" xmlns="http://www.w3.org/2000/svg" xmlns:xlink="http://www.w3.org/1999/xlink" viewBox="0 0 877.66 703.72">
  <defs>
    <style>
      .cls-1 {
        fill: url(#linear-gradient);
      }

      .cls-2 {
        fill: #f7b882;
      }

      .cls-3 {
        fill: #f5b780;
      }

      .cls-4 {
        fill: #f5b080;
      }

      .cls-5 {
        fill: #fff;
      }

      .cls-6 {
        fill: #905423;
      }

      .cls-7 {
        fill: #b2bcc4;
      }

      .cls-8 {
        fill: #d1e5ff;
      }

      .cls-9 {
        fill: #d09a6f;
      }

      .cls-10 {
        fill: #c5d0d9;
      }

      .cls-11, .cls-12 {
        fill: #355775;
      }

      .cls-13 {
        fill: #838385;
      }

      .cls-14 {
        fill: #46260f;
      }

      .cls-15 {
        letter-spacing: 0em;
      }

      .cls-16 {
        fill: url(#linear-gradient-2);
      }

      .cls-17 {
        opacity: .4;
      }

      .cls-18 {
        letter-spacing: .08em;
      }

      .cls-12 {
        font-family: FarmWaveFree-Regular, 'Farm Wave Free';
        font-size: 85px;
        isolation: isolate;
      }
    </style>
    <linearGradient id="linear-gradient" x1="365.05" y1="105.6" x2="652.54" y2="105.6" gradientTransform="translate(172.63 824.19) rotate(-74.86) scale(.98) skewX(.02)" gradientUnits="userSpaceOnUse">
      <stop offset="0" stop-color="#355775"/>
      <stop offset=".03" stop-color="#345572"/>
      <stop offset=".22" stop-color="#2e4b66"/>
      <stop offset=".47" stop-color="#2b465e"/>
      <stop offset="1" stop-color="#2a445c"/>
    </linearGradient>
    <linearGradient id="linear-gradient-2" x1="755.78" y1="33.88" x2="761.8" y2="78.98" gradientTransform="translate(172.63 824.19) rotate(-74.86) scale(.98) skewX(.02)" gradientUnits="userSpaceOnUse">
      <stop offset="0" stop-color="#f8a164"/>
      <stop offset=".1" stop-color="#f8a469"/>
      <stop offset=".63" stop-color="#f7b37b"/>
      <stop offset="1" stop-color="#f7b882"/>
    </linearGradient>
  </defs>
  <text class="cls-12" transform="translate(120.98 682.47)"><tspan class="cls-18" x="0" y="0">Jackkni</tspan><tspan class="cls-15" x="281.34" y="0">f</tspan><tspan class="cls-18" x="310.59" y="0">e sit up</tspan></text>
  <g>
    <path class="cls-7" d="M877.66,520.56c0-16.05-196.47-29.07-438.83-29.07S0,504.5,0,520.56s196.47,29.07,438.83,29.07,438.83-13.02,438.83-29.07Z"/>
    <g>
      <path class="cls-10" d="M874.46,463.95c-8.07-.51-33.17,4.89-55.49,6.02-8.08,.41-33.65-1.7-41.76-2.1-42.12-2.1-71.86-6.45-120.18-7.78-1.54-.04-3.4-.3-5.38-.61-.28-.81-.47-1.27-.47-1.27,0,0-23.43-5.66-32.4-8.36-8.96-2.7-34.49,3.39-38.33,2.23s-47.84-6.01-90.92-8.09c-50.55-2.45-109.58,2.61-121.49,.42-1.02-.19-8.3,34.27-14.47,65.82-17.14-2.12-31.79-4.03-38.22-4.97-8.19-2.56-55.28-16.12-60.14-17.04-13.5-1.52-39.84-5.28-54.89-7.31-.68-7.53-2.83-15.2-3.25-22.76-.77-.08-31.14,4.46-35.55,4.97,1.96-10.64,1.51-21.02,1.24-24.77,.01-1.21-.03-2.15-.14-2.67-1.32-6.38-6.36-5.12-11.44-3.83-2.68,.67-5.34,.83-7.15-1.62-.91-1.26-.96-2.11-2.33-2.95-.89-.52-1.95-.2-2.8,.18-1.53,.68-1.41,2.29-1.82,.24-.3-1.63-2.74-2.24-4.26-1.82-2.25,.63-2.34,3.38-6.01,.32-.94-.8-1.64-1.83-2.61-2.58-1.05-.81-2.37-.26-3.21,.6-2.48,2.58-4.59,5.45-7.33,7.79-.88,.65-1.75,1.25-2.51,1.75-.31,.17-.62,.3-.94,.43-.89-2.45-2.9-4.72-6.87-5.79,0,0,2.12,2.42,3.58,6.69v.05c-2.07,.33-4.29,.3-6.62,.29-4.31,0-8.62,.71-12.77,1.94-1.63,.46-5.25,2-9.56,4.53-.18-.15-.34-.3-.52-.45l-.24-.55-.58,.17c-9.66,2.81-16.22,11.41-20.21,18.92-6.58,12.4-3.93,24.86-1.57,33.12-.94-.99-1.68-1.96-2.21-2.89-1.07-1.85-3.05-1.95-4.18-.41-.83,1.13-1.15,3.15,.12,4.89,.96,1.32,2.51,2.52,4.31,3.38-1.62,.01-3.07-.15-4.28-.46-1.89-.49-2.89,.45-3.18,1.41-.5,1.69,.8,4.2,3.5,4.61,.73,.11,1.53,.12,2.37,.03-2.39,2.63-4.68,6.44-4.83,11.45-.4,14.11,60.22,15.83,59.84,12.32,.25,.13,.56,.24,.85,.35h0c.21,.08,.39,.18,.61,.25,.42,.14,.9,.27,1.43,.39,.02,0,.04,.01,.06,.02h0c3.4,.75,9.04,.94,18.04-1.41,12.14-3.18,22.08-10.7,26.92-14.9l.18-.15,7.43-9.22c-.01-.15-.08-.32-.11-.47,.28-.21,.58-.45,.81-.61,.51,.01,1.06,.05,1.6,.08,.07-.57,2.85-.86,6.72-1.04,1.18,11.74,5.94,24.28,14.37,29.67,10.85,6.94,63.22,4.73,122.11,4.93,19.46,5.26,43.05,3.78,66.19,2.27,18.83,7.82,37.54,9.83,63.66,3.24,6.55,2.61,18.83,6.32,35.47,6.03,5.73-.1,25.64-2.51,35.67-4.51,10.02-2-28.6-13.6-32.08-14.03,0,0-.62-.23-1.62-.6,6.26-2.66,12.76-5.54,19.8-8.9,28.16-13.41,88.74-23.54,114.72-23,10.78,.22,21.7,8.55,39.82,10.38,.04-.11,.07-.21,.1-.32,7.63,2.22,15.03,4.28,20.84,5.35,40.37,6.76,73.42-20.53,112.09-15.75,12.01,.91,14.21,11.28,24.38,12.05,11.02,1.76,19.69-8.27,25.57-11.93,21.25-13.23,37.58-8.5,40.71-16.69,4.2-11.03,7.87-14.58,1.81-14.97Z"/>
      <g class="cls-17">
        <g>
          <path class="cls-2" d="M154.42,508.38c3.63-3.09,6.45-5.54,8.11-6.68,.51,.01,1.06,.05,1.6,.08,.25-1.96,31.88-.65,32.94-2.51,7.4-13.02,.77-27.25,0-41.1-.82-.09-35.47,5.11-36.09,5.01,.59-6.92,2.28-24.43,1.63-27.48-1.32-6.38-6.36-5.12-11.44-3.83-2.68,.67-5.34,.83-7.15-1.62-.92-1.26-.96-2.11-2.33-2.95-.89-.52-1.95-.2-2.8,.18-1.53,.68-1.41,2.29-1.82,.24-.3-1.63-2.74-2.24-4.26-1.82-2.25,.63-2.34,3.38-6.01,.32-.94-.8-1.64-1.83-2.61-2.58-1.05-.81-2.37-.26-3.21,.6-2.48,2.58-4.59,5.45-7.33,7.79-.87,.65-1.75,1.25-2.51,1.75-.39,.21-.77,.38-1.16,.54-.03-1.86-2.48-4.39-4.73-4.98,1.49,1.45,2.12,3.71,1.66,5.83-2.07,.33-4.29,.3-6.62,.29-4.31,0-8.62,.71-12.77,1.94-2.17,.62-7.89,3.14-14.04,7.39,21.13,66.76,77.16,58.56,80.94,63.59Z"/>
          <g>
            <path class="cls-6" d="M154.22,512.15c-4.84,4.2-14.77,11.73-26.92,14.9-10.45,2.72-16.39,2.05-19.53,1-.53-.18-1.03-.38-1.46-.6,.38,3.51-60.24,1.79-59.84-12.32,.15-5.01,2.44-8.82,4.83-11.45-.85,.09-1.65,.08-2.37-.03-2.71-.41-4.01-2.93-3.5-4.61,.28-.96,1.29-1.91,3.18-1.41,1.2,.31,2.65,.46,4.28,.46-1.8-.86-3.34-2.06-4.31-3.38-1.27-1.74-.95-3.75-.12-4.89,1.13-1.54,3.11-1.44,4.18,.41,.54,.93,1.28,1.9,2.21,2.89-2.35-8.26-5-20.72,1.57-33.12,3.98-7.51,10.54-16.11,20.21-18.92l.58-.17,.24,.55c16.21,13.43,19.91,26.84,36.52,29.43l-.1,1.31c-4.04,.88-4.93,4.9-5.39,6.78-.74,3.01,1.3,9.25,8.21,9.77,10.47,.78,20.53-7.59,20.53-7.59,0,0,24.25,14.21,24.62,21.63l-7.43,9.22-.19,.14Z"/>
            <path class="cls-14" d="M48.46,489.81c1.13-1.54,3.11-1.44,4.18,.41,.54,.93,1.28,1.9,2.21,2.89-.13-.46,36.88,5.03,54.41,35.34-.55-.12-1.05-.26-1.49-.41-.22-.07-.4-.17-.61-.25-.07-.08-.11-.17-.19-.25-37.14-37.9-56-23.5-55.67-23.87-.85,.09-1.65,.08-2.37-.03-2.71-.41-4.01-2.93-3.5-4.61,.28-.96,1.29-1.91,3.18-1.41,1.2,.31,2.65,.46,4.28,.46-1.8-.86-3.34-2.06-4.31-3.38-1.27-1.74-.95-3.76-.12-4.89Z"/>
            <path class="cls-14" d="M103.34,428.41s4.57,5.07,4.89,13.74c.22,6.06,8.13-10.21-4.89-13.74Z"/>
            <path class="cls-9" d="M162.63,436.86s1.9,18.17-2.87,33.58c.32-8.4,1.78-19.81,2.87-33.58Z"/>
            <path class="cls-4" d="M143,445.77c1.92,10.83-11.45,20.87-22.24,15.37-10.79-5.49,21-22.35,22.24-15.37Z"/>
          </g>
        </g>
        <path class="cls-11" d="M651.18,458.21s-23.43-5.66-32.4-8.36c-8.96-2.7-34.49,3.39-38.33,2.23s-47.84-6.01-90.92-8.09c-50.55-2.45-109.58,2.61-121.49,.42-1.19-.22-10.94,46.9-17.47,81.37,40.34,23.98,67.92,29.21,143.84-6.95,28.16-13.41,88.74-23.54,114.72-23,10.78,.22,21.7,8.55,39.82,10.38,10.4-29.33,2.23-48,2.23-48Z"/>
        <path class="cls-3" d="M874.46,463.95c-8.07-.51-33.17,4.89-55.49,6.02-8.08,.41-33.65-1.7-41.76-2.1-42.12-2.1-71.86-6.45-120.18-7.78-1.54-.04-3.4-.3-5.38-.61,1.56,4.57,6.09,21.64-2.6,46.4,7.63,2.22,15.03,4.28,20.84,5.35,40.37,6.76,73.42-20.53,112.09-15.75,12.01,.91,14.21,11.28,24.38,12.05,11.02,1.76,19.69-8.27,25.57-11.93,21.25-13.23,37.58-8.5,40.71-16.68,4.21-11.03,7.88-14.59,1.82-14.97Z"/>
        <path class="cls-2" d="M174.03,479.3c-7.08,10.86-3.45,41.76,11.18,51.11,10.85,6.94,63.22,4.73,122.11,4.93,37.07,10.02,89.14-4.42,124.49,3.04,0,0,15.37,8.93,40.83,8.49,5.73-.1,25.64-2.51,35.67-4.51,10.02-2-28.6-13.6-32.08-14.03,0,0-27.28-10.32-34.08-9.02-6.8,1.31-106.75-11.13-126.8-14.03-8.19-2.56-55.27-16.12-60.14-17.04-19.57-2.21-66.12-9.1-66.13-8.65-4.52-.43-9.37-.82-14.57-1.19-.17,.29-.28,.6-.48,.9Z"/>
      </g>
    </g>
    <g>
      <path class="cls-2" d="M256.16,447.54l-10.28-2.03c-9.41-18.15-45.59,6.08-68.07,16.15-5.15-3.88-9.36-7.07-9.5-7.26,5.32-4.47,11.67-10.09,13.38-12.7,3.59-5.44-.86-8.12-5.36-10.81-2.37-1.42-4.36-3.2-3.9-6.21,.25-1.54,.82-2.16,.45-3.74-.26-1-1.23-1.52-2.1-1.86-1.56-.6-2.62,.62-1.45-1.12,.94-1.36-.35-3.52-1.71-4.3-2.03-1.15-4.05,.72-4.46-4.03-.1-1.23,.14-2.46-.02-3.67-.17-1.32-1.49-1.86-2.69-1.86-3.58,.06-7.1,.6-10.69,.3-1.08-.16-2.12-.36-3.02-.54-.42-.13-.81-.28-1.2-.44,1.3-1.33,1.36-4.86,.19-6.87,.02,2.07-1.13,4.12-2.96,5.29-1.7-1.23-3.24-2.83-4.88-4.49-3.04-3.05-6.59-5.61-10.39-7.68-1.97-1.1-7.79-3.38-15.14-4.73-32.41,62.09,12.94,96,12.04,102.23,4.75,.39,8.47,.66,10.46,1.03,.36,.37,.71,.79,1.07,1.19,.98-.76,9.32,8.62,16.68,14.73,8.02,6.67,14.73,16.15,25.44,22.59,7.96,6.22,17.67,6.59,20.98,6.92,86.21,8.73,164.5-5.65,174.41-.29,6.61,.43-1.84-67.6,11.36-89.31-43.07,25.02-109.89,3-128.64,3.51Z"/>
      <g>
        <path class="cls-6" d="M121.59,489.7c-6.4-.47-18.73-2.19-29.55-8.56-9.3-5.48-13.01-10.17-14.49-13.13-.25-.5-.45-1-.6-1.46-2.22,2.75-8.14,8.25-17.95,4.54-6.42-2.45-12.87-9.17-17.25-17.98-5.64-11.33-8.57-27.99,1.71-37.65,3.65-3.43,7.97-4.49,11.52-4.66-.66-.54-1.22-1.11-1.65-1.7-1.62-2.21-.75-4.91,.8-5.74,.88-.48,2.26-.44,3.24,1.25,.63,1.07,1.54,2.21,2.7,3.35-.66-1.88-.9-3.83-.64-5.44,.34-2.13,1.99-3.32,3.38-3.53,1.89-.29,3.21,1.19,2.66,3.25-.28,1.04-.44,2.24-.49,3.61,4.19-7.5,11.15-18.17,24.58-22.26,8.14-2.48,18.86-3.9,27.67,.97l.53,.29-.22,.56c1.92,20.96-4.97,33.04,4.91,46.64l-1,.86c-3.47-2.24-6.95-.03-8.61,.96-2.65,1.59-5.64,7.45-1.13,12.7,6.83,7.97,19.86,9.19,19.86,9.19,0,0,7.04,27.21,2.05,32.71l-11.77,1.24h-.26Z"/>
        <path class="cls-14" d="M62.78,399c1.89-.29,3.21,1.19,2.66,3.25-.28,1.04-.44,2.24-.49,3.61,.24-.42,22.46,29.69,13.35,63.49-.3-.48-.55-.93-.76-1.34-.1-.21-.16-.4-.25-.61,0-.11,.04-.2,.04-.31,.65-53.06-22.87-56.26-22.37-56.29-.66-.54-1.22-1.11-1.65-1.7-1.62-2.21-.75-4.91,.8-5.74,.88-.48,2.26-.44,3.24,1.25,.63,1.07,1.54,2.21,2.7,3.35-.66-1.88-.9-3.83-.64-5.44,.33-2.11,1.98-3.31,3.37-3.52Z"/>
        <path class="cls-14" d="M145.02,394.56s-.36,6.82-6.28,13.16c-4.15,4.43,12.96-1.44,6.28-13.16Z"/>
        <path class="cls-9" d="M180.86,442.53s-11.54,14.16-25.82,21.66c6.18-5.7,15.3-12.71,25.82-21.66Z"/>
        <path class="cls-4" d="M160.7,434.91c-6.32,9.01-22.87,6.62-26.59-4.91-3.72-11.52,30.66-.89,26.59,4.91Z"/>
      </g>
      <path class="cls-5" d="M289.22,452.15c-11.98-1.43-15.62-6.95-18.49-9.18-14.35-11.12-43.46-29.14-101.8,26.75,18.76-.8,52.05,3.44,58.31,22.43,7.34,22.26-3.91,44.5-39.97,39.55,29.56,6.05,65.12,8.06,90.54,4.57,9.33-23.43,13.3-49.92,11.41-84.12Z"/>
      <path class="cls-8" d="M279.46,449.73c-.12-.13-.23-.26-.35-.38,.96,15.78,2.63,63.8-10.5,87.72-.17,.3,0,.66,.36,.79,.1,.04,.2,.05,.3,.05,.28,0,.54-.13,.66-.35,12.94-23.58,11.66-70.18,10.7-87.13-.42-.19-.85-.37-1.17-.7Z"/>
      <g>
        <path class="cls-1" d="M387.28,229.2s-6.72,22.63-9.82,31.26,1.66,33.92,.33,37.62c-1.33,3.7-12.42,195.62-15.16,207.16-.27,1.15,108.68-43.35,76.74-119.51-11.84-28.25-18.87-88.03-17.07-113.43,.74-10.53,9.49-20.78,12.17-38.41-28.38-11.7-47.19-4.69-47.19-4.69Z"/>
        <path class="cls-16" d="M403.85,11.08c-.9,7.86,3.2,32.7,3.23,54.6,.01,7.92-3.32,32.82-4.11,40.74-4.12,41.09-9.87,69.96-13.53,117.16-.12,1.51-.46,3.31-.87,5.23,4.58-1.29,21.63-4.83,45.61,4.96,2.56-7.34,4.95-14.48,6.29-20.11,8.64-39.14-16.65-72.89-10.05-110.47,1.48-11.71,11.81-13.31,13.07-23.22,2.27-10.69-7.19-19.69-10.51-25.64-12-21.48-6.54-37.21-14.46-40.7-10.67-4.69-14-8.46-14.67-2.55Z"/>
        <path class="cls-11" d="M393.34,225.54s-7.14,23.03-10.4,31.8c-3.26,8.77,1.19,34.64-.21,38.4s-9.04,47.36-13.85,90.22c-5.65,50.29-7.99,134.55-10.93,146.3-.29,1.17,77.94,10.08,94.92-20.5,16.95-30.51,11.9-49.39-9-125.91-8.22-30.09-17.85-90.05-15.67-115.95,.91-10.74,9.91-21.11,12.89-39.08-28.6-12.25-47.75-5.28-47.75-5.28Z"/>
        <path class="cls-3" d="M413.26,3.07c-1.02,8.02,2.77,33.41,2.48,55.76-.1,8.09-3.83,33.47-4.75,41.54-4.77,41.9-11,71.3-15.4,119.44-.14,1.54-.51,3.38-.95,5.33,4.66-1.27,21.98-4.71,46.15,5.54,2.7-7.47,5.23-14.73,6.66-20.46,9.32-39.86-15.82-74.58-8.6-112.86,1.67-11.93,12.16-13.47,13.57-23.56,2.45-10.89-7-20.17-10.28-26.28-11.85-22.05-6.09-38.05-14.06-41.69-10.73-4.9-14.05-8.78-14.82-2.76Z"/>
      </g>
      <path class="cls-2" d="M211.02,499.41c9.11-9.1,27.35-57.19,48.9-112,22.79-30.9,28.23-84.67,48-114.9,0,0,13.9-11.08,22.73-34.96,1.99-5.38,6.97-24.8,8.74-34.87s-23.05,21.72-24.72,24.8c0,0-19.51,21.68-20.77,28.49-1.25,6.81-49.1,95.44-59.09,113.07-5.36,6.7-70.18,108.17-69.76,108.35-12.52,26.77,25.82,42.13,45.97,22.02Z"/>
    </g>
    <path class="cls-13" d="M709.01,363.02c-.68-.2-1.41,.16-1.62,.84l-3.79,12.06c-14.03-86.84-63.21-132.04-102.25-154.65-33.4-19.34-65.11-25.88-77.6-27.84l10.76-3.06c.69-.19,1.09-.91,.89-1.6-.19-.69-.91-1.1-1.6-.89l-16.55,4.71c-.48,.13-.83,.53-.92,1.02-.09,.49,.11,.98,.51,1.27l14.82,10.72c.23,.16,.49,.24,.76,.24,.4,0,.8-.18,1.05-.54,.42-.58,.29-1.39-.29-1.8l-10.54-7.63c26.35,4.1,154.41,31.7,178.43,180.48l-6.55-9.61c-.4-.6-1.21-.73-1.8-.34-.59,.4-.74,1.21-.34,1.8l9.69,14.22c.24,.36,.64,.57,1.07,.57,.06,0,.13-.01,.19-.02,.49-.07,.89-.42,1.04-.89l5.49-17.45c.21-.67-.17-1.4-.85-1.61Z"/>
  </g>
</svg>