<?xml version="1.0" encoding="utf-8"?>
<!-- Generator: Adobe Illustrator 26.5.0, SVG Export Plug-In . SVG Version: 6.00 Build 0)  -->
<svg version="1.1" id="Layer_1" xmlns="http://www.w3.org/2000/svg" xmlns:xlink="http://www.w3.org/1999/xlink" x="0px" y="0px"
	 viewBox="0 0 250 400" style="enable-background:new 0 0 250 400;" xml:space="preserve">
<style type="text/css">
	.st0{enable-background:new    ;}
	.st1{fill:#355775;}
	.st2{fill:#B2BCC4;}
	.st3{fill:url(#SVGID_1_);}
	.st4{fill:#905423;}
	.st5{fill:#46260F;}
	.st6{fill:#F7B882;}
	.st7{fill:#FFFFFF;}
	.st8{fill:url(#SVGID_00000137125580845161834050000011162003619435104908_);}
	.st9{fill:#D1E5FF;}
</style>
<g>
	<g class="st0">
		<path class="st1" d="M157.95,361.41c-0.94,0-1.8-0.37-2.4-1v5.05c0,0.27-0.21,0.48-0.48,0.48h-0.17c-0.27,0-0.48-0.21-0.48-0.48
			v-14.07c0-0.27,0.21-0.48,0.48-0.48h0.17c0.27,0,0.48,0.21,0.48,0.48v4.51c0-0.01,0.01-0.02,0.01-0.03
			c0.98-3.16,2.33-5.15,3.49-5.15l0.03,0.74c-1.23,0-2.55,1.93-3.53,5.09v2.95c0.43,1.06,1.36,1.72,2.4,1.72
			c1.74,0,2.85-2.06,2.85-5.35c0-2.71-0.66-4.41-1.72-4.41l-0.03-0.75c1.78,0,2.9,1.98,2.9,5.15v0.02
			C161.95,359.28,160.41,361.41,157.95,361.41z"/>
		<path class="st1" d="M163.8,356.06c0-3.96,2.09-5.35,4.68-5.35c2.57,0,4.67,1.39,4.67,5.35c0,3.95-2.09,5.35-4.67,5.35
			C165.9,361.41,163.8,360.01,163.8,356.06z M171.99,356.06c0-3.56-1.56-5.16-3.51-5.16c-1.97,0-3.52,1.59-3.52,5.16
			s1.55,5.16,3.52,5.16C170.43,361.22,171.99,359.62,171.99,356.06z"/>
		<path class="st1" d="M182.87,358.61c0,1.72-1.57,2.8-4.06,2.8c-2.9,0.01-4.44-1.77-3.57-3.11c0.23-0.36,0.42-0.34,0.47,0.07
			c0.15,1.18,0.76,2.87,3.1,2.86c1.78-0.01,2.9-0.82,2.9-2.11c0-3.19-6.7-2.36-6.7-6.14c0-1.39,1.38-2.25,3.88-2.24
			c2.89-0.01,4.16,0.83,3.29,2.17c-0.23,0.36-0.42,0.34-0.47-0.07c-0.15-1.18-1.24-1.92-2.82-1.91c-1.78-0.01-2.72,0.71-2.72,1.87
			C176.17,355.64,182.87,354.89,182.87,358.61z"/>
		<path class="st1" d="M192.64,359.22c0,1.35-1.62,2.19-3.28,2.19c-2.74,0-4.64-1.4-4.64-5.36c0-3.96,1.9-5.34,4.49-5.34
			c2-0.01,3.27,1,3.27,2.08c0.01,2.97-5.3-0.01-5.66,1.84C186.41,356.75,192.64,356.66,192.64,359.22z M191.6,359.13
			c0-2.3-5.35-2.32-4.97-4.49c0.35-1.99,5.51,0.64,4.94-1.85c-0.3-0.97-0.97-1.9-2.37-1.89c-1.97,0-3.36,1.58-3.36,5.15
			s1.39,5.17,3.51,5.17C191.03,361.22,191.6,360.08,191.6,359.13z"/>
	</g>
	<g>
		<path class="st2" d="M224.07,325.66c0-3.75-44.67-6.79-99.77-6.79s-99.77,3.04-99.77,6.79c0,3.75,44.67,6.79,99.77,6.79
			S224.07,329.41,224.07,325.66z"/>
		<g>
			<g>
				
					<linearGradient id="SVGID_1_" gradientUnits="userSpaceOnUse" x1="333.5905" y1="2309.438" x2="334.1174" y2="2319.1016" gradientTransform="matrix(1 0 0 1 -172.5 -1992.22)">
					<stop  offset="0" style="stop-color:#F8A164"/>
					<stop  offset="0.1" style="stop-color:#F8A469"/>
					<stop  offset="0.63" style="stop-color:#F7B37B"/>
					<stop  offset="1" style="stop-color:#F7B882"/>
				</linearGradient>
				<path class="st3" d="M159.87,322.62c0.27,0.01,0.53,0.02,0.76,0.04c0.11,0.02,0.21,0.05,0.31,0.07
					c-0.28,0.37-0.19,1.24,0.16,1.7c-0.07-0.51,0.15-1.05,0.57-1.39c0.46,0.25,0.89,0.6,1.34,0.96c0.84,0.66,1.8,1.19,2.8,1.58
					c0.52,0.21,2.03,0.6,3.88,0.71c6.13-16.31-6.09-23.32-6.06-24.88c-1.3,0.05-2.32,0.11-2.77,0.05l-0.1,0.14
					c-1.09-0.17-3.7,6.05-6.6,8.82c-1.23,1.3-2.93,3.19-3.31,3.96c-0.72,1.45,0.46,1.98,1.65,2.51c0.63,0.28,1.17,0.66,1.15,1.41
					c-0.02,0.39-0.14,0.56,0,0.94c0.1,0.24,0.35,0.34,0.57,0.4c0.4,0.1,0.63-0.23,0.39,0.23c-0.19,0.37,0.19,0.86,0.55,1.01
					c0.54,0.22,0.98-0.3,1.22,0.86c0.06,0.3,0.04,0.61,0.12,0.91c0.08,0.32,0.42,0.41,0.72,0.38
					C158.12,322.89,158.98,322.65,159.87,322.62L159.87,322.62z"/>
				<g>
					<path class="st4" d="M164.25,300.7c1.59-0.08,4.69-0.02,7.56,1.22c2.46,1.07,3.52,2.12,3.97,2.8c0.08,0.12,0.14,0.23,0.19,0.34
						c0.47-0.74,1.76-2.28,4.29-1.66c1.66,0.41,3.45,1.88,4.8,3.92c1.74,2.63,2.96,6.65,0.72,9.35c-0.8,0.96-1.83,1.35-2.7,1.5
						c0.18,0.11,0.33,0.24,0.46,0.37c0.47,0.5,0.33,1.19-0.02,1.44c-0.2,0.15-0.55,0.17-0.84-0.21c-0.19-0.25-0.45-0.5-0.77-0.75
						c0.22,0.45,0.34,0.92,0.32,1.32c-0.02,0.54-0.39,0.88-0.73,0.97c-0.46,0.13-0.83-0.2-0.75-0.72c0.04-0.26,0.04-0.57,0.01-0.91
						c-0.81,1.98-2.21,4.82-5.4,6.24c-1.94,0.86-4.54,1.53-6.86,0.6l-0.14-0.05l0.04-0.15c-1.11-5.12,0.23-8.31-2.62-11.37
						l0.22-0.24c0.92,0.45,1.72-0.2,2.1-0.5c0.61-0.47,1.17-2.01-0.1-3.17c-1.93-1.76-5.18-1.67-5.18-1.67s-2.56-6.51-1.49-8.01
						l2.87-0.66L164.25,300.7L164.25,300.7z"/>
					<path class="st5" d="M181.51,321.33c-0.46,0.13-0.83-0.2-0.75-0.72c0.04-0.26,0.04-0.57,0.01-0.91
						c-0.05,0.11-6.44-6.65-5.21-15.28c0.09,0.11,0.17,0.21,0.23,0.31c0.03,0.05,0.05,0.1,0.08,0.14c0,0.03,0,0.05,0,0.08
						c1.44,13.12,7.35,13.2,7.22,13.22c0.18,0.11,0.33,0.24,0.46,0.37c0.47,0.5,0.33,1.19-0.02,1.44c-0.2,0.15-0.55,0.17-0.84-0.21
						c-0.19-0.25-0.45-0.5-0.77-0.75c0.22,0.45,0.34,0.92,0.32,1.32C182.22,320.89,181.85,321.24,181.51,321.33L181.51,321.33z"/>
					<path class="st5" d="M161.34,324.91c0,0-0.12-1.69,1.15-3.44C163.38,320.25,159.33,322.22,161.34,324.91z"/>
					<path class="st6" d="M151.04,314.14c0,0,2.42-3.85,5.72-6.13C155.41,309.61,153.37,311.62,151.04,314.14z"/>
				</g>
			</g>
			<path class="st6" d="M157.12,296.56c-19.77-12.77-34.21-16.09-55.05-15.88c-10.81,0.11-18.69,2.07-23.66,6.44
				c-15.81,13.88-4.79,26.47,11.42,29.7c-0.28,0.09-7-0.03-7.56,0.06c-2.25,0.37-2.45-3.19-5.97-2.93c-2.26,0.17-2.8,0.98-5.04,2.81
				c-2.66,2.18-3.87,2.24-6.68,2.58c-4.39,0.53-7.38,1.58-8.06,2.72c-1.43,2.37,3.65,1.39,7.36,1.85
				c0.66,0.08,10.44-0.82,15.23-0.12c2.16,0.32,41,1.72,46.16,1.15c2.18-0.24,12.6-3.03,12.88-9.87c13.03,5.08,8.72,3.79,17.5,0.02
				C162.13,311.07,164.81,301.64,157.12,296.56L157.12,296.56z"/>
			<path class="st7" d="M153.96,294.62c0,0-13.23-4.76-12.71,9.37c0.35,9.49,13,9.49,13,9.49s-6.5,5.97-10.37,5.62
				c-6.48-0.59-5.74-4.04-5.74-4.04s-4.04-4.74-6.15-5.97c-2.11-1.23-1.52-24.66-0.99-25.01
				C131.54,283.73,142.72,287.59,153.96,294.62z"/>
			<path class="st1" d="M136.96,312.59c-4.08-4.73-14.17-9.2-18.84-10.71c-7.53-2.43-18.8-4.92-23.14-5.87
				c-1.29-0.57-5.82-9.79-7.32-13.69c-4.01,1.31-20.85,5.51-18.48,21.86c0.79,5.44,5.76,9.6,13.57,11.59
				c0.6,0.15,0.49,0.31,1.85,0.42c12.25,1.87,22.62-1.47,27.36-1.12c4.39,0.35,2.63,0.17,5.45,0.88c0.17,2.81,0.91,7.79,1.11,9.21
				c3.34-0.04,5.78-0.1,6.75-0.21c2.18-0.24,12.41-1.06,12.7-7.9c0.05,0.01,0.1,0.03,0.15,0.04
				C138.08,315.53,137.74,313.92,136.96,312.59L136.96,312.59z"/>
			
				<linearGradient id="SVGID_00000140006773129654072170000003245655310998970496_" gradientUnits="userSpaceOnUse" x1="268.1967" y1="2322.1792" x2="250.1866" y2="2300.8101" gradientTransform="matrix(1 0 0 1 -172.5 -1992.22)">
				<stop  offset="0" style="stop-color:#F8A164"/>
				<stop  offset="0.1" style="stop-color:#F8A469"/>
				<stop  offset="0.63" style="stop-color:#F7B37B"/>
				<stop  offset="1" style="stop-color:#F7B882"/>
			</linearGradient>
			<path style="fill:url(#SVGID_00000140006773129654072170000003245655310998970496_);" d="M117.42,315.93
				c-2.81-0.7-1.05-0.53-5.45-0.88c-4.16-0.31-12.63,2.21-22.9,1.59c0.25,0.05,0.5,0.12,0.76,0.17c-0.28,0.09-7-0.03-7.56,0.06
				c-2.25,0.37-2.45-3.19-5.97-2.93c-2.26,0.17-2.8,0.98-5.04,2.81c-2.66,2.18-3.87,2.24-6.68,2.58c-4.39,0.53-7.38,1.58-8.06,2.72
				c-1.43,2.37,3.65,1.39,7.36,1.85c0.66,0.08,10.44-0.82,15.23-0.12c1.72,0.25,26.69,1.19,39.4,1.28
				C118.31,323.55,117.59,318.7,117.42,315.93L117.42,315.93z"/>
			<path class="st9" d="M133.23,309.2c-0.09,0-0.16-0.06-0.17-0.15c-1.22-8.07,0.92-24.02,0.94-24.18c0.01-0.1,0.11-0.17,0.2-0.15
				c0.1,0.01,0.16,0.1,0.15,0.2c-0.02,0.16-2.15,16.06-0.94,24.08c0.01,0.1-0.05,0.19-0.15,0.2
				C133.25,309.2,133.24,309.2,133.23,309.2z"/>
			<path class="st6" d="M75.76,327.7c3.73-1.3,5.49-1.6,5.49-1.6s-5.98,0.18-7.04,0.33s3.04-1.85,6.04-2.29
				c2.77-0.41,9.25,0.63,13.84,0.34c2.06-0.67,30.14-5.7,30.11-5.74c2.57-0.68,5.94-3.52,11.55-6.08c2.24-1.03,14.01-6.9,14.09-7.04
				c7.76-3.03,14.65,7.02,2.67,11.53c-8.17,4.04-27.36,9.58-27.4,9.53c-7.15,2.31-25.05-0.35-31.44,1.53c0,0-3.05,2.2-7.63,2.42
				c-4.58,0.22-15.69-0.5-16.32-0.81C67.82,328.88,72.04,329,75.76,327.7z"/>
		</g>
	</g>
	<g class="st0">
		<path class="st1" d="M66.98,361.26c-1.43,0-2.41-0.95-2.41-2.52c0-2.93,2.79-2.47,2.79-5.06c0-0.58-0.41-0.95-0.92-0.95
			c-0.75,0-1.43,0.69-2.35,3.87v3.91c0,0.26-0.2,0.46-0.46,0.46h-0.16c-0.26,0-0.46-0.2-0.46-0.46V348.2c0-0.26,0.2-0.46,0.46-0.46
			h2.99c2.43-0.01,3.74,1.53,2.9,2.82c-0.22,0.35-0.4,0.33-0.45-0.06c-0.14-1.09-0.69-2.47-2.26-2.56l-2.56-0.02V356
			c0.99-3.21,1.72-3.97,2.84-3.97c0.76,0,1.44,0.6,1.44,1.56c0,2.83-3.61,2.27-3.61,5.15c0,1.46,0.91,2.34,2.23,2.34
			c2.09,0.01,1.96-1.62,2.1-2.75c0.05-0.39,0.24-0.41,0.45-0.06C70.37,359.55,69.61,361.26,66.98,361.26z"/>
		<path class="st1" d="M73.72,355.92c0.95-3.05,2.25-4.96,3.36-4.96l0.03,0.71c-1.17,0-2.45,1.86-3.39,4.87v3.97
			c0,0.26-0.23,0.46-0.55,0.46c-0.31,0-0.55-0.2-0.55-0.46v-8.91c0-0.26,0.24-0.46,0.55-0.46c0.32,0,0.55,0.2,0.55,0.46V355.92z
			 M83.22,350.95l0.03,0.71c-1.17,0-2.44,1.85-3.38,4.85v4.01c0,0.26-0.2,0.46-0.46,0.46h-0.16c-0.26,0-0.46-0.2-0.46-0.46v-4.59
			c0-2.62-0.65-4.27-1.66-4.27l-0.03-0.72c1.71,0,2.77,1.9,2.78,4.95C80.81,352.86,82.1,350.95,83.22,350.95z M83.22,350.94
			c1.72,0,2.78,1.92,2.78,4.98v4.59c0,0.26-0.2,0.46-0.46,0.46h-0.16c-0.26,0-0.46-0.2-0.46-0.46v-4.59c0-2.62-0.65-4.27-1.66-4.27
			L83.22,350.94z"/>
		<path class="st1" d="M92.8,361.26c-0.91,0-1.74-0.36-2.31-0.96v0.22c0,0.26-0.2,0.46-0.46,0.46h-0.16c-0.26,0-0.46-0.2-0.46-0.46
			V348c0-0.26,0.2-0.46,0.46-0.46h0.16c0.26,0,0.46,0.2,0.46,0.46v7.95c0-0.01,0.01-0.02,0.01-0.03c0.95-3.05,2.25-4.96,3.36-4.96
			l0.03,0.71c-1.18,0-2.46,1.86-3.4,4.91v2.85c0.42,1.02,1.31,1.65,2.31,1.65c1.68,0,2.75-1.99,2.75-5.16
			c0-2.61-0.64-4.26-1.66-4.26l-0.03-0.72c1.72,0,2.8,1.91,2.8,4.97v0.02C96.66,359.2,95.18,361.26,92.8,361.26z"/>
		<path class="st1" d="M105.66,353.04c-0.23,0.36-0.4,0.33-0.45-0.06c-0.1-0.81-0.53-1.32-1.11-1.32c-1.17,0-2.45,1.86-3.39,4.87
			v3.97c0,0.26-0.23,0.46-0.55,0.46c-0.31,0-0.55-0.2-0.55-0.46v-8.91c0-0.26,0.24-0.46,0.55-0.46c0.32,0,0.55,0.2,0.55,0.46v4.32
			c0.95-3.05,2.25-4.96,3.55-4.96C105.5,350.95,106.32,352.03,105.66,353.04z"/>
		<path class="st1" d="M112.07,358.79c2.41,0,4.37,1.16,4.37,3.41s-1.96,3.42-4.37,3.42c-2.18,0-3.76-1.32-4.04-2.91
			c-0.05-0.28,0.15-0.51,0.41-0.51h0.21c0.23,0,0.39,0.18,0.41,0.44c0.15,1.65,1.13,2.8,3.01,2.8c2.05,0,3.41-1.28,3.41-3.24
			s-1.36-3.23-3.41-3.23h-0.05l0.7,2h-0.81c-0.2,0-0.37-0.13-0.44-0.32l-0.52-1.5c-0.61,0.21-1.11,0.61-1.41,1.16
			c-0.18,0.33-0.47,0.43-0.73,0.18l-0.3-0.29c0.25-0.27,0.55-0.52,0.9-0.73c0.42-0.25,0.87-0.56,1.34-0.89l-2.37-6.82
			c-0.12-0.34,0.05-0.64,0.34-0.64h0.22c0.2,0,0.36,0.12,0.44,0.32l2.27,6.47c1.7-1.34,3.26-2.98,3.13-4.44
			c-0.1-1.19-1.02-1.33-2.26-1.46c-0.28-0.03-0.46-0.21-0.49-0.47l-0.02-0.16c-0.04-0.31,0.15-0.49,0.46-0.45
			c1.33,0.17,2.34,0.73,2.49,2.54c0.14,1.54-1.53,3.48-3.18,4.79l0.18,0.51H112.07z"/>
		<path class="st1" d="M117.47,356.1c0-3.82,2.02-5.16,4.51-5.16c2.48,0,4.5,1.34,4.5,5.16c0,3.81-2.02,5.16-4.5,5.16
			C119.49,361.26,117.47,359.91,117.47,356.1z M125.36,356.1c0-3.44-1.5-4.97-3.38-4.97c-1.9,0-3.39,1.54-3.39,4.97
			c0,3.44,1.49,4.97,3.39,4.97C123.86,361.07,125.36,359.54,125.36,356.1z"/>
	</g>
	<g class="st0">
		<path class="st1" d="M131.42,350.12h-1.32l-2.1-2.55h2.19L131.42,350.12z"/>
	</g>
	<g class="st0">
		<path class="st1" d="M142.69,358.55c0,1.66-1.51,2.7-3.92,2.7c-2.79,0.01-4.28-1.71-3.45-3c0.22-0.35,0.4-0.33,0.46,0.06
			c0.15,1.14,0.74,2.76,2.99,2.75c1.72-0.01,2.8-0.79,2.8-2.04c0-3.07-6.46-2.27-6.46-5.92c0-1.34,1.33-2.17,3.74-2.16
			c2.79-0.01,4.01,0.8,3.17,2.09c-0.22,0.35-0.4,0.33-0.46-0.06c-0.15-1.14-1.19-1.85-2.72-1.85c-1.72-0.01-2.62,0.68-2.62,1.8
			C136.24,355.69,142.69,354.97,142.69,358.55z"/>
	</g>
</g>
</svg>
