<?xml version="1.0" encoding="utf-8"?>
<!-- Generator: Adobe Illustrator 26.5.0, SVG Export Plug-In . SVG Version: 6.00 Build 0)  -->
<svg version="1.1" id="Layer_1" xmlns="http://www.w3.org/2000/svg" xmlns:xlink="http://www.w3.org/1999/xlink" x="0px" y="0px"
	 viewBox="0 0 878.58 387.4" style="enable-background:new 0 0 878.58 387.4;" xml:space="preserve">
<style type="text/css">
	.st0{fill:#355775;}
	.st1{font-family:'FarmWaveFree-Regular';}
	.st2{font-size:85px;}
	.st3{letter-spacing:4;}
	.st4{fill:#B2BCC4;}
	.st5{fill:url(#SVGID_1_);}
	.st6{fill:#905423;}
	.st7{fill:#46260F;}
	.st8{fill:#F7B882;}
	.st9{fill:#FFFFFF;}
	.st10{fill:url(#SVGID_00000066494440583915440100000005306576198148573848_);}
	.st11{fill:#D1E5FF;}
	.st12{fill:none;}
	.st13{font-size:82px;}
	.st14{letter-spacing:7;}
	.st15{font-family:'ArialMT';}
</style>
<text transform="matrix(1 0 0 1 559.19 359.8)" class="st0 st1 st2 st3">pose</text>
<g>
	<path class="st4" d="M878.58,198.09c0-16.52-196.68-29.91-439.29-29.91S0,181.57,0,198.09S196.68,228,439.29,228
		S878.58,214.62,878.58,198.09z"/>
	<g>
		<g>
			
				<linearGradient id="SVGID_1_" gradientUnits="userSpaceOnUse" x1="601.2837" y1="-1932.1599" x2="603.6036" y2="-1974.7097" gradientTransform="matrix(1 0 0 -1 0 -1771.22)">
				<stop  offset="0" style="stop-color:#F8A164"/>
				<stop  offset="0.1" style="stop-color:#F8A469"/>
				<stop  offset="0.63" style="stop-color:#F7B37B"/>
				<stop  offset="1" style="stop-color:#F7B882"/>
			</linearGradient>
			<path class="st5" d="M595.93,184.72c1.19,0.03,2.35,0.11,3.35,0.19c0.47,0.08,0.92,0.2,1.37,0.32c-1.24,1.62-0.83,5.46,0.71,7.49
				c-0.3-2.25,0.68-4.63,2.51-6.14c2.01,1.12,3.9,2.65,5.9,4.23c3.71,2.91,7.91,5.22,12.32,6.96c2.29,0.94,8.92,2.64,17.09,3.14
				c26.99-71.83-26.83-102.68-26.68-109.57c-5.73,0.23-10.22,0.47-12.21,0.23l-0.42,0.61c-4.78-0.75-16.29,26.62-29.05,38.82
				c-5.42,5.74-12.89,14.03-14.56,17.42c-3.18,6.39,2.02,8.71,7.26,11.04c2.76,1.23,5.17,2.9,5.07,6.23
				c-0.07,1.71-0.6,2.46,0.01,4.12c0.42,1.05,1.54,1.49,2.53,1.74c1.77,0.45,2.77-1.02,1.73,1.02c-0.84,1.61,0.85,3.78,2.44,4.45
				c2.36,0.98,4.3-1.33,5.39,3.79c0.27,1.32,0.17,2.69,0.51,3.99c0.36,1.41,1.87,1.82,3.17,1.66
				C588.22,185.92,591.98,184.87,595.93,184.72L595.93,184.72z"/>
			<g>
				<path class="st6" d="M615.21,88.23c7.02-0.34,20.66-0.1,33.28,5.38c10.84,4.72,15.5,9.32,17.5,12.35
					c0.34,0.51,0.63,1.03,0.85,1.51c2.05-3.28,7.76-10.06,18.91-7.33c7.3,1.81,15.21,8.26,21.15,17.26
					c7.64,11.57,13.04,29.29,3.15,41.17c-3.51,4.22-8.07,5.95-11.9,6.59c0.79,0.49,1.47,1.04,2.03,1.63
					c2.05,2.19,1.47,5.23-0.1,6.35c-0.9,0.64-2.4,0.77-3.69-0.93c-0.83-1.08-1.97-2.2-3.38-3.29c0.97,1.96,1.49,4.04,1.42,5.83
					c-0.09,2.36-1.72,3.88-3.21,4.29c-2.02,0.56-3.65-0.86-3.32-3.18c0.17-1.16,0.18-2.5,0.05-3.99
					c-3.56,8.71-9.71,21.24-23.77,27.47c-8.52,3.78-19.99,6.75-30.21,2.63l-0.61-0.24l0.17-0.64c-4.88-22.54,1.01-36.59-11.55-50.07
					l0.97-1.06c4.07,1.97,7.56-0.89,9.23-2.19c2.67-2.09,5.14-8.85-0.46-13.97c-8.49-7.75-22.82-7.35-22.82-7.35
					s-11.28-28.65-6.58-35.29l12.64-2.92h0.25L615.21,88.23z"/>
				<path class="st7" d="M691.21,179.04c-2.02,0.56-3.65-0.86-3.32-3.18c0.17-1.16,0.18-2.5,0.05-3.99
					c-0.2,0.49-28.37-29.3-22.96-67.27c0.39,0.48,0.73,0.93,1.01,1.36c0.14,0.21,0.23,0.42,0.35,0.63c0.01,0.12-0.02,0.22,0,0.35
					c6.35,57.79,32.35,58.14,31.81,58.23c0.79,0.49,1.47,1.04,2.03,1.63c2.05,2.19,1.47,5.23-0.1,6.35c-0.9,0.64-2.4,0.77-3.69-0.93
					c-0.83-1.08-1.97-2.2-3.38-3.29c0.97,1.96,1.49,4.04,1.42,5.83C694.33,177.11,692.69,178.63,691.21,179.04L691.21,179.04z"/>
				<path class="st7" d="M602.38,194.81c0,0-0.51-7.46,5.08-15.15C611.37,174.29,593.55,182.95,602.38,194.81z"/>
				<path class="st8" d="M557.02,147.4c0,0,10.66-16.94,25.2-26.99C576.25,127.44,567.27,136.28,557.02,147.4z"/>
			</g>
		</g>
		<path class="st8" d="M583.81,69.98C496.78,13.74,433.18-0.86,341.42,0.04c-47.59,0.47-82.28,9.11-104.18,28.35
			c-69.62,61.13-21.09,116.54,50.29,130.76c-1.22,0.4-30.83-0.14-33.27,0.26c-9.91,1.61-10.78-14.04-26.3-12.89
			c-9.96,0.73-12.31,4.3-22.18,12.38c-11.73,9.6-17.02,9.86-29.4,11.35c-19.34,2.32-32.49,6.96-35.51,11.98
			c-6.28,10.45,16.05,6.1,32.41,8.14c2.91,0.36,45.98-3.63,67.05-0.52c9.49,1.4,180.54,7.57,203.23,5.06
			c9.62-1.07,55.48-13.33,56.71-43.48c57.38,22.36,38.39,16.67,77.04,0.07C605.85,133.86,617.64,92.35,583.81,69.98L583.81,69.98z"
			/>
		<path class="st9" d="M569.9,61.42c0,0-58.26-20.98-55.96,41.26c1.55,41.78,57.25,41.78,57.25,41.78s-28.62,26.3-45.64,24.76
			c-28.55-2.6-25.27-17.79-25.27-17.79s-17.79-20.89-27.08-26.3c-9.28-5.42-6.71-108.56-4.38-110.11S520.39,30.48,569.9,61.42z"/>
		<path class="st0" d="M495.02,140.56c-17.98-20.81-62.39-40.52-82.94-47.16C378.94,82.69,329.3,71.74,310.2,67.54
			c-5.69-2.52-25.62-43.12-32.22-60.27c-17.67,5.77-91.8,24.24-81.36,96.24c3.48,23.97,25.38,42.29,59.76,51.01
			c2.64,0.67,2.16,1.35,8.14,1.84c53.95,8.22,99.59-6.48,120.48-4.93c19.34,1.55,11.6,0.77,23.98,3.87
			c0.77,12.38,4.02,34.3,4.87,40.54c14.72-0.16,25.46-0.46,29.71-0.93c9.62-1.07,54.66-4.66,55.9-34.8
			c0.21,0.06,0.42,0.12,0.64,0.19C499.98,153.5,498.46,146.44,495.02,140.56L495.02,140.56z"/>
		
			<linearGradient id="SVGID_00000112623565078161430060000011480746663952557197_" gradientUnits="userSpaceOnUse" x1="313.3488" y1="-1988.261" x2="234.0488" y2="-1894.1709" gradientTransform="matrix(1 0 0 -1 0 -1771.22)">
			<stop  offset="0" style="stop-color:#F8A164"/>
			<stop  offset="0.1" style="stop-color:#F8A469"/>
			<stop  offset="0.63" style="stop-color:#F7B37B"/>
			<stop  offset="1" style="stop-color:#F7B882"/>
		</linearGradient>
		<path style="fill:url(#SVGID_00000112623565078161430060000011480746663952557197_);" d="M408.99,155.29
			c-12.38-3.09-4.64-2.32-23.98-3.87c-18.3-1.36-55.59,9.75-100.81,7c1.11,0.24,2.21,0.51,3.34,0.73
			c-1.22,0.4-30.83-0.14-33.27,0.26c-9.91,1.61-10.78-14.04-26.3-12.89c-9.96,0.73-12.31,4.3-22.18,12.38
			c-11.73,9.6-17.02,9.86-29.4,11.35c-19.34,2.32-32.49,6.96-35.51,11.98c-6.28,10.45,16.05,6.1,32.41,8.14
			c2.91,0.36,45.98-3.63,67.05-0.52c7.56,1.12,117.52,5.25,173.47,5.62C412.9,188.8,409.75,167.45,408.99,155.29L408.99,155.29z"/>
		<path class="st11" d="M478.61,125.63c-0.38,0-0.71-0.27-0.76-0.66c-5.37-35.54,4.03-105.76,4.12-106.46
			c0.06-0.42,0.48-0.73,0.87-0.67c0.42,0.06,0.72,0.45,0.67,0.87c-0.1,0.7-9.47,70.7-4.13,106.02c0.06,0.42-0.23,0.82-0.65,0.88
			C478.69,125.63,478.65,125.63,478.61,125.63z"/>
		<path class="st8" d="M225.58,207.08c16.41-5.73,24.19-7.06,24.19-7.06s-26.34,0.81-31,1.45s13.38-8.14,26.6-10.09
			c12.21-1.8,40.74,2.79,60.94,1.5c9.09-2.94,132.72-25.09,132.56-25.26c11.3-3,26.15-15.49,50.87-26.79
			c9.88-4.52,61.7-30.38,62.03-31.01c34.17-13.32,64.52,30.91,11.77,50.78c-35.96,17.77-120.48,42.17-120.64,41.96
			c-31.5,10.15-110.28-1.54-138.45,6.72c0,0-13.43,9.68-33.58,10.67s-69.1-2.2-71.87-3.56
			C190.61,212.29,209.17,212.81,225.58,207.08z"/>
	</g>
</g>
<rect x="139.15" y="300" class="st12" width="472.89" height="549"/>
<text transform="matrix(1 0 0 1 139.1507 359.1777)" class="st0 st1 st13 st14">Embryo</text>
<text transform="matrix(1 0 0 1 443.4407 359.1777)" class="st0 st15 st13 st14">`</text>
<text transform="matrix(1 0 0 1 476.2407 359.1777)" class="st0 st1 st13 st14">s</text>
</svg>
