<?xml version="1.0" encoding="utf-8"?>
<!-- Generator: Adobe Illustrator 26.5.0, SVG Export Plug-In . SVG Version: 6.00 Build 0)  -->
<svg version="1.1" id="Layer_1" xmlns="http://www.w3.org/2000/svg" xmlns:xlink="http://www.w3.org/1999/xlink" x="0px" y="0px"
	 viewBox="0 0 250 57.5" style="enable-background:new 0 0 250 57.5;" xml:space="preserve">
<style type="text/css">
	.st0{fill:#B2BCC4;}
	.st1{fill:url(#SVGID_1_);}
	.st2{fill:#905423;}
	.st3{fill:#46260F;}
	.st4{fill:#F7B882;}
	.st5{fill:#FFFFFF;}
	.st6{fill:#355775;}
	.st7{fill:url(#SVGID_00000130642310656742245770000014862150085650973332_);}
	.st8{fill:#D1E5FF;}
</style>
<g>
	<g>
		<path class="st0" d="M224.1,50.7c0-3.8-44.7-6.8-99.8-6.8s-99.8,3-99.8,6.8s44.7,6.8,99.8,6.8S224.1,54.4,224.1,50.7z"/>
		<g>
			<g>
				
					<linearGradient id="SVGID_1_" gradientUnits="userSpaceOnUse" x1="333.6602" y1="2034.4342" x2="334.1871" y2="2044.0978" gradientTransform="matrix(1 0 0 1 -172.5 -1992.22)">
					<stop  offset="0" style="stop-color:#F8A164"/>
					<stop  offset="0.1" style="stop-color:#F8A469"/>
					<stop  offset="0.63" style="stop-color:#F7B37B"/>
					<stop  offset="1" style="stop-color:#F7B882"/>
				</linearGradient>
				<path class="st1" d="M159.9,47.6c0.3,0,0.5,0,0.8,0c0.1,0,0.2,0,0.3,0.1c-0.3,0.4-0.2,1.2,0.2,1.7c-0.1-0.5,0.1-1,0.6-1.4
					c0.5,0.2,0.9,0.6,1.3,1c0.8,0.7,1.8,1.2,2.8,1.6c0.5,0.2,2,0.6,3.9,0.7c6.1-16.3-6.1-23.3-6.1-24.9c-1.3,0-2.3,0.1-2.8,0
					l-0.1,0.1c-1.1-0.2-3.7,6-6.6,8.8c-1.2,1.3-2.9,3.2-3.3,4c-0.7,1.5,0.5,2,1.6,2.5c0.6,0.3,1.2,0.7,1.1,1.4c0,0.4-0.1,0.6,0,0.9
					c0.1,0.2,0.4,0.3,0.6,0.4c0.4,0.1,0.6-0.2,0.4,0.2c-0.2,0.4,0.2,0.9,0.6,1c0.5,0.2,1-0.3,1.2,0.9c0.1,0.3,0,0.6,0.1,0.9
					s0.4,0.4,0.7,0.4C158.1,47.9,159,47.6,159.9,47.6L159.9,47.6z"/>
				<g>
					<path class="st2" d="M164.2,25.7c1.6-0.1,4.7,0,7.6,1.2c2.5,1.1,3.5,2.1,4,2.8c0.1,0.1,0.1,0.2,0.2,0.3
						c0.5-0.7,1.8-2.3,4.3-1.7c1.7,0.4,3.4,1.9,4.8,3.9c1.7,2.6,3,6.6,0.7,9.4c-0.8,1-1.8,1.4-2.7,1.5c0.2,0.1,0.3,0.2,0.5,0.4
						c0.5,0.5,0.3,1.2,0,1.4c-0.2,0.1-0.6,0.2-0.8-0.2c-0.2-0.2-0.4-0.5-0.8-0.8c0.2,0.5,0.3,0.9,0.3,1.3c0,0.5-0.4,0.9-0.7,1
						c-0.5,0.1-0.8-0.2-0.8-0.7c0-0.3,0-0.6,0-0.9c-0.8,2-2.2,4.8-5.4,6.2c-1.9,0.9-4.5,1.5-6.9,0.6h-0.1v-0.1
						c-1.1-5.1,0.2-8.3-2.6-11.4l0.2-0.2c0.9,0.5,1.7-0.2,2.1-0.5c0.6-0.5,1.2-2-0.1-3.2c-1.9-1.8-5.2-1.7-5.2-1.7s-2.6-6.5-1.5-8
						L164.2,25.7L164.2,25.7L164.2,25.7z"/>
					<path class="st3" d="M181.5,46.3c-0.5,0.1-0.8-0.2-0.8-0.7c0-0.3,0-0.6,0-0.9c-0.1,0.1-6.4-6.6-5.2-15.3
						c0.1,0.1,0.2,0.2,0.2,0.3l0.1,0.1c0,0,0,0,0,0.1c1.4,13.1,7.4,13.2,7.2,13.2c0.2,0.1,0.3,0.2,0.5,0.4c0.5,0.5,0.3,1.2,0,1.4
						c-0.2,0.1-0.6,0.2-0.8-0.2c-0.2-0.2-0.4-0.5-0.8-0.8c0.2,0.5,0.3,0.9,0.3,1.3C182.2,45.9,181.9,46.2,181.5,46.3L181.5,46.3z"/>
					<path class="st3" d="M161.3,49.9c0,0-0.1-1.7,1.1-3.4C163.4,45.2,159.3,47.2,161.3,49.9z"/>
					<path class="st4" d="M151,39.1c0,0,2.4-3.9,5.7-6.1C155.4,34.6,153.4,36.6,151,39.1z"/>
				</g>
			</g>
			<path class="st4" d="M157.1,21.6C137.3,8.8,122.9,5.5,102,5.7c-10.8,0.1-18.7,2.1-23.7,6.4C62.5,26,73.5,38.6,89.7,41.8
				c-0.3,0.1-7,0-7.6,0.1c-2.2,0.4-2.4-3.2-6-2.9c-2.3,0.2-2.8,1-5,2.8c-2.7,2.2-3.9,2.2-6.7,2.6C60,44.9,57,46,56.3,47.1
				c-1.4,2.4,3.7,1.4,7.4,1.9c0.7,0.1,10.4-0.8,15.2-0.1c2.2,0.3,41,1.7,46.2,1.1c2.2-0.2,12.6-3,12.9-9.9c13,5.1,8.7,3.8,17.5,0
				C162.1,36.1,164.8,26.6,157.1,21.6L157.1,21.6z"/>
			<path class="st5" d="M154,19.6c0,0-13.2-4.8-12.7,9.4c0.4,9.5,13,9.5,13,9.5s-6.5,6-10.4,5.6c-6.5-0.6-5.7-4-5.7-4s-4-4.7-6.1-6
				s-1.5-24.7-1-25C131.5,8.7,142.7,12.6,154,19.6z"/>
			<path class="st6" d="M137,37.6c-4.1-4.7-14.2-9.2-18.8-10.7c-7.5-2.4-18.8-4.9-23.1-5.9c-1.3-0.6-5.8-9.8-7.3-13.7
				c-4,1.3-20.8,5.5-18.5,21.9c0.8,5.4,5.8,9.6,13.6,11.6c0.6,0.1,0.5,0.3,1.8,0.4c12.2,1.9,22.6-1.5,27.4-1.1
				c4.4,0.4,2.6,0.2,5.4,0.9c0.2,2.8,0.9,7.8,1.1,9.2c3.3,0,5.8-0.1,6.8-0.2c2.2-0.2,12.4-1.1,12.7-7.9c0.1,0,0.1,0,0.1,0
				C138.1,40.5,137.7,38.9,137,37.6L137,37.6z"/>
			
				<linearGradient id="SVGID_00000041985338244146626430000008408704644581827723_" gradientUnits="userSpaceOnUse" x1="268.1823" y1="2047.1913" x2="250.1723" y2="2025.8221" gradientTransform="matrix(1 0 0 1 -172.5 -1992.22)">
				<stop  offset="0" style="stop-color:#F8A164"/>
				<stop  offset="0.1" style="stop-color:#F8A469"/>
				<stop  offset="0.63" style="stop-color:#F7B37B"/>
				<stop  offset="1" style="stop-color:#F7B882"/>
			</linearGradient>
			<path style="fill:url(#SVGID_00000041985338244146626430000008408704644581827723_);" d="M117.4,40.9c-2.8-0.7-1.1-0.5-5.4-0.9
				c-4.2-0.3-12.6,2.2-22.9,1.6c0.2,0,0.5,0.1,0.8,0.2c-0.3,0.1-7,0-7.6,0.1c-2.2,0.4-2.4-3.2-6-2.9c-2.3,0.2-2.8,1-5,2.8
				c-2.7,2.2-3.9,2.2-6.7,2.6c-4.4,0.5-7.4,1.6-8.1,2.7c-1.4,2.4,3.7,1.4,7.4,1.9c0.7,0.1,10.4-0.8,15.2-0.1
				c1.7,0.2,26.7,1.2,39.4,1.3C118.3,48.5,117.6,43.7,117.4,40.9L117.4,40.9z"/>
			<path class="st8" d="M133.2,34.2c-0.1,0-0.2-0.1-0.2-0.1c-1.2-8.1,0.9-24,0.9-24.2c0-0.1,0.1-0.2,0.2-0.1c0.1,0,0.2,0.1,0.1,0.2
				c0,0.2-2.1,16.1-0.9,24.1C133.4,34.1,133.4,34.2,133.2,34.2L133.2,34.2z"/>
			<path class="st4" d="M75.8,52.7c3.7-1.3,5.5-1.6,5.5-1.6s-6,0.2-7,0.3s3-1.9,6-2.3c2.8-0.4,9.2,0.6,13.8,0.3
				c2.1-0.7,30.1-5.7,30.1-5.7c2.6-0.7,5.9-3.5,11.6-6.1c2.2-1,14-6.9,14.1-7c7.8-3,14.6,7,2.7,11.5c-8.2,4-27.4,9.6-27.4,9.5
				c-7.2,2.3-25-0.4-31.4,1.5c0,0-3.1,2.2-7.6,2.4c-4.6,0.2-15.7-0.5-16.3-0.8C67.8,53.9,72,54,75.8,52.7z"/>
		</g>
	</g>
</g>
</svg>
