<?xml version="1.0" encoding="UTF-8"?>
<svg id="Layer_1" data-name="Layer 1" xmlns="http://www.w3.org/2000/svg" xmlns:xlink="http://www.w3.org/1999/xlink" viewBox="0 0 877.76 976.29">
  <defs>
    <style>
      .cls-1 {
        letter-spacing: .05em;
      }

      .cls-2 {
        fill: url(#linear-gradient);
      }

      .cls-3 {
        fill: #f7b882;
      }

      .cls-4 {
        fill: #f5b780;
      }

      .cls-5 {
        fill: #f5b080;
      }

      .cls-6 {
        fill: #fff;
      }

      .cls-7 {
        fill: #905423;
      }

      .cls-8 {
        fill: #b2bcc4;
      }

      .cls-9 {
        fill: #d1e5ff;
      }

      .cls-10 {
        fill: #d09a6f;
      }

      .cls-11, .cls-12 {
        fill: #355775;
      }

      .cls-13 {
        fill: #46260f;
      }

      .cls-14 {
        letter-spacing: .07em;
      }

      .cls-12 {
        font-family: FarmWaveFree-Regular, 'Farm Wave Free';
        font-size: 85px;
        isolation: isolate;
      }

      .cls-15 {
        letter-spacing: .02em;
      }
    </style>
    <linearGradient id="linear-gradient" x1="270.48" y1="794.68" x2="143.96" y2="671.11" gradientTransform="translate(0 1465.26) scale(1 -1)" gradientUnits="userSpaceOnUse">
      <stop offset="0" stop-color="#f8a164"/>
      <stop offset="1" stop-color="#fab57e"/>
    </linearGradient>
  </defs>
  <text class="cls-12" transform="translate(272.03 955.04)"><tspan class="cls-15" x="0" y="0">T</tspan><tspan class="cls-1" x="41.56" y="0">r</tspan><tspan class="cls-14" x="80.71" y="0">iangle</tspan></text>
  <g>
    <ellipse class="cls-8" cx="438.88" cy="795.27" rx="438.88" ry="28.44"/>
    <g>
      <path class="cls-3" d="M779,750.58c-.95-4.29-7.04-22.32-9.1-29.96-7.28-27.07-45.34-104.83-57.58-123.01-13.74-21.08-30.53-40.12-39.94-63.02-9.75-22.76-56.55-152.97-112.82-200.93-21.88-21.29-53.05-23.03-63.68-23.18-48.66-.67-120,5.69-130.97,6.57-33.51,2.69-54.59,1.19-62.05,2.34-8.62,.71-18.63-9.42-18.84-16.24-.4-13.06-1.93-26.89-1.93-35.23,.93-35.63,4.69-70.33-2.82-106.9-3.75-16.88-10.31-32.82-14.06-50.64-3.75-15.94-10.31-36.57-9.38-53.45l-.41-1.56h.25c-.55-10.53-1.76-20.44-4.53-30.97-1.66-7.76,.62-12.18-19.69-23.42-15.03-8.32-9.5,38.71-10.61,49.79l-.16,1.33c-5.91-4.98-11.94-10.33-20.4-3.32,3.68,2.54,6.05,3.83,8.96,7.83,2.93,2.77,6.44,7.01,9.37,9.78,5.14,4.53,11.89,4.6,16.58,15.85v.94c4.69,18.75,9.25,73.65,13.13,92.84,8.91,44.08-13.13,105.49-15,136.9-.74,12.31,1.48,20.84,3.75,32.83,2.35,12.41,5.36,16.41,2.23,21.91-8.05-.11-22.56-2.87-29.49-4.2-.47-7.2-1.27-15.89-2.38-18.89-2.37-6.43-7.42-4.34-12.5-2.21-2.68,1.12-5.43,1.7-7.69-.58-1.15-1.17-1.32-2.04-2.88-2.71-1.01-.4-2.06,.1-2.88,.62-1.48,.94-1.11,2.6-1.85,.53-.57-1.65-3.2-1.9-4.71-1.23-2.24,1-1.91,3.88-6.2,1.26-1.1-.68-1.99-1.65-3.12-2.28-1.22-.68-2.51,.1-3.25,1.12-2.18,3.07-3.93,6.39-6.42,9.24-.81,.81-1.63,1.57-2.34,2.22-.37,.27-.74,.51-1.13,.74-.32-1.94-3.26-4.18-5.7-4.45,1.77,1.28,2.79,3.53,2.63,5.81-2.11,.67-4.42,.98-6.85,1.33-4.48,.67-8.86,2.08-12.99,4.01-2.17,.98-7.72,4.49-13.46,9.86,32.35,66.23,89.39,48.99,94.1,53.64,3.62-4.15,6.41-7.45,7.89-8.68l-.15-.69c.06-.05,.08-.15,.14-.21,14.51,2.96,21.01,9.34,21.42,10.41,1.92,5,1.34,12.41,.36,18.37,20.94,2.72,43.29,13.82,59.53,22.54,28.61-18.41,81.32-49.86,111.36-53.03,7.94-.84,10.89,1.41,14.7,3.49-27.11,35.49-105.67,144.27-118.38,161.88,11.03,12.04,24.54,20.73,38.56,28.71,.71-.52,1.37-1.06,2.13-1.56,53.94-35.94,132.32-125.57,171.08-168.38,45.2,45.63,113.01,117.74,119.37,125.86,19.9,25.41,16.87,53.24,45.85,94.93,20.24,29.12,61.29,71.03,63.57,91.27,.03,6.17-1.25,12.28-4.38,18.06l-5.63,8.43c-26.39,17.27,2.81,17.27,19.84,15.65,11.74,0,17.67-2.19,20.47-6.35,1.76-2.62,4.73-15.19,1.08-31.61Z"/>
      <path class="cls-2" d="M301.04,583.46c-14.76,18.07-52.11,58.1-61.34,68.9-21.21,24.78-36.83,54.69-58.43,78.44-2.77,3.05-4.66,5.38-6.13,7.33-17.29,15.86-51.35,32.83-58.9,36.98-1.58,.87-13.8,2.98-18.13,5.09,0,.36-.02,.72,.02,1.09-.29,.52-.63,1-.79,1.66l-.15,2.37c-1.71,12.71,65.62,4.86,77.22,.32s23.53,7.73,37.09,.47c13.56-7.27,3.87-26.48,1.33-35.82-.71-2.6-.66-5.02-.1-7.31,2.36-3.15,5.51-6.04,10.47-10.67,32.95-30.74,56.58-40.57,79.88-65.52,17.29-18.51,19.7-39.65,34.81-55.68-13.37-7.75-26.16-16.27-36.85-27.65Z"/>
      <path class="cls-11" d="M672.38,534.59c-9.75-22.76-56.55-152.97-112.82-200.93-21.88-21.29-53.11-21.98-63.68-23.18-7.42-.84-15.68,.06-23.16-.18-2.9,11.77-50.43,101.7-47.29,103.41-28.91,37.85-116.36,159.08-120.01,164.13-2.12,2.99-6.13,7.83-11.1,13.59,11.4,10.57,24.08,19.54,37.66,26.99,3.97-5.76,8.86-11.09,15.76-15.69,53.94-35.94,132.32-125.57,171.08-168.38,45.2,45.63,113.01,117.74,119.37,125.86,8.45,10.79,12.77,22.04,17.16,34.59,13.69-5.91,26.09-15.03,37.58-24.91-7.92-11.25-15.37-22.69-20.55-35.3Z"/>
      <path class="cls-7" d="M210.57,425.46c-4.39,5.13-13.56,14.5-25.7,19.69-10.45,4.46-16.74,4.67-20.17,4.07-.58-.1-1.13-.24-1.61-.4,.94,3.6,1.91,12.05-7.36,18.04-6.08,3.91-15.8,5.17-26,3.39-13.11-2.3-29.05-10.21-30.82-24.96-.63-5.23,1.17-9.56,3.25-12.66-.87,.23-1.7,.34-2.48,.34-2.88-.01-4.63-2.42-4.36-4.26,.15-1.05,1.04-2.19,3.09-1.97,1.3,.14,2.83,.07,4.52-.19-2.01-.62-3.8-1.63-5.01-2.85-1.59-1.62-1.57-3.76-.88-5.07,.94-1.78,3.01-1.98,4.41-.22,.7,.89,1.62,1.78,2.75,2.67-3.73-8.24-8.42-20.79-3.5-34.71,2.98-8.44,8.47-18.41,18.09-22.83l.57-.26,.34,.54c18.96,11.46,24.88,24.84,42.57,24.96l.1,1.38c-4.07,1.54-4.37,5.87-4.56,7.89-.31,3.24,2.79,9.43,10.06,8.89,11.01-.82,20.19-11.08,20.19-11.08,0,0,27.44,11.02,28.98,18.69l-6.3,10.75-.17,.16Z"/>
      <path class="cls-13" d="M97.03,418.62c.94-1.78,3.01-1.98,4.41-.22,.7,.89,1.62,1.78,2.75,2.67-.21-.46,39.17-.48,62.11,28.34-.6-.04-1.13-.11-1.61-.19-.24-.04-.44-.11-.67-.17-.09-.07-.15-.16-.24-.23-44.54-33.68-61.93-15.76-61.64-16.2-.87,.23-1.7,.34-2.48,.34-2.88-.01-4.63-2.42-4.36-4.26,.15-1.05,1.04-2.19,3.09-1.97,1.3,.14,2.83,.07,4.52-.19-2.01-.62-3.8-1.63-5.01-2.85-1.58-1.61-1.56-3.76-.87-5.07Z"/>
      <path class="cls-13" d="M144.61,346.2s5.55,4.56,7.22,13.54c1.18,6.27,6.88-11.88-7.22-13.54Z"/>
      <path class="cls-10" d="M207.63,345.8s4.79,18.62,2.22,35.39c-.97-8.79-1.22-20.9-2.22-35.39Z"/>
      <path class="cls-5" d="M188.59,358.11c3.68,10.98-8.68,23.5-20.76,19.45-12.09-4.04,18.38-26.52,20.76-19.45Z"/>
      <path class="cls-4" d="M241.26,427.5c-.27,1.64-.48,2.82-.48,2.82-5.39,17.97,6.79,71.32,10.29,89.01,3.18,16.82,5.45,71.92,5.73,80.82,.03,10.98-2.33,20.84-4.71,30.7-2.65,19.96,7.45,110.08,8.29,120.57l-.68,2.6c-3.88,11.98-21.47,8.63-32.18,13.1-6.21,2.84-6.53,5.65-13.95,6.76-6.49,.98-13.12,1.04-17.99,6.52,14.3,13.01,36.04,6.88,51.29,7.43,10.48,.31,35.71,.97,32.49-20.35l-.02-.7c-1.66-15.38,6.15-76.42,8.01-93.08,4.61-33.67-.47-60.92,2.94-95.13,3.08-35.11-.78-92.63,17.53-124.33l2.08-3.16c.89-.79,1.92-1.62,2.9-2.44-16.91-23.53-45.1-25.18-71.54-21.14Z"/>
      <path class="cls-6" d="M302.37,398.16c-3.6,27.42-37.27,32.56-61.7,30.34,.12,2.02,.08,4.15-.09,6.25,25.92,.94,58.71,.51,80.51,15,14.81,1.77,35.9-10.49,42.77-23.24,5.73-38.74-.98-74.54-5-109.03-10.57,.72-19.83,1.06-27.62,1.21-12.29,35.15-58.53,42.6-92.11,36.03,.18,.69,.99,4.48,1.15,5.1,26.88,3.97,66.94,1.45,62.09,38.34Z"/>
      <path class="cls-9" d="M352.09,440.98c-.06,0-.11-.01-.17-.02-.4-.1-.64-.49-.54-.89,10.63-43.48-1.84-120.54-1.97-121.32-.07-.4,.2-.78,.6-.85,.39-.08,.78,.21,.85,.61,.13,.78,12.65,78.13,1.95,121.91-.09,.34-.39,.56-.72,.56Z"/>
    </g>
  </g>
</svg>