<?xml version="1.0" encoding="utf-8"?>
<!-- Generator: Adobe Illustrator 26.5.0, SVG Export Plug-In . SVG Version: 6.00 Build 0)  -->
<svg version="1.1" id="Layer_1" xmlns="http://www.w3.org/2000/svg" xmlns:xlink="http://www.w3.org/1999/xlink" x="0px" y="0px"
	 viewBox="0 0 250 400" style="enable-background:new 0 0 250 400;" xml:space="preserve">
<style type="text/css">
	.st0{enable-background:new    ;}
	.st1{fill:#355775;}
	.st2{fill:#B2BCC4;}
	.st3{fill:#F7B882;}
	.st4{fill:url(#SVGID_1_);}
	.st5{fill:#905423;}
	.st6{fill:#46260F;}
	.st7{fill:#D09A6F;}
	.st8{fill:#F5B080;}
	.st9{fill:#F5B780;}
	.st10{fill:#FFFFFF;}
	.st11{fill:#D1E5FF;}
</style>
<g>
	<g class="st0">
		<path class="st1" d="M94.36,350.38l-0.16,0.02c-0.27,0.03-0.47-0.16-0.51-0.44c-0.15-1.09-1.57-1.24-2.61-1.26v13.15
			c0,0.28-0.21,0.48-0.48,0.48h-0.17c-0.28,0-0.48-0.21-0.48-0.48V348.7c-1.04,0.02-2.46,0.17-2.61,1.26
			c-0.04,0.28-0.25,0.46-0.51,0.44l-0.16-0.02c-0.28-0.04-0.49-0.26-0.45-0.55c0.22-1.36,2.53-1.31,4.21-1.31h0.17
			c1.68,0,4-0.05,4.21,1.31C94.85,350.12,94.64,350.34,94.36,350.38z"/>
	</g>
	<g class="st0">
		<path class="st1" d="M102.67,354.06c-0.24,0.37-0.42,0.34-0.47-0.07c-0.1-0.84-0.55-1.38-1.16-1.38c-1.22,0-2.55,1.94-3.54,5.09
			v4.15c0,0.28-0.24,0.48-0.57,0.48c-0.32,0-0.57-0.21-0.57-0.48v-9.3c0-0.28,0.25-0.48,0.57-0.48c0.33,0,0.57,0.21,0.57,0.48v4.51
			c0.99-3.18,2.34-5.18,3.7-5.18C102.5,351.88,103.36,353,102.67,354.06z"/>
	</g>
	<g class="st0">
		<path class="st1" d="M105.79,349.1c0-0.32,0.27-0.59,0.59-0.59s0.59,0.27,0.59,0.59c0,0.32-0.27,0.59-0.59,0.59
			S105.79,349.43,105.79,349.1z M105.81,352.55c0-0.28,0.25-0.48,0.57-0.48c0.33,0,0.57,0.21,0.57,0.48v9.3
			c0,0.28-0.24,0.48-0.57,0.48c-0.32,0-0.57-0.21-0.57-0.48V352.55z"/>
		<path class="st1" d="M118.7,357.15v4.7c0,0.28-0.21,0.48-0.48,0.48h-0.17c-0.27,0-0.48-0.21-0.48-0.48v-2.6
			c-0.68,2.1-2.54,3.38-4.98,3.38c-1.68,0-2.73-0.84-2.73-2.2c0-2.57,4.72-1.99,4.72-4.14c0-1.8-2.71-1.39-2.71-3.09
			c0-0.82,0.84-1.33,2.16-1.33C117.09,351.87,118.7,353.66,118.7,357.15z M117.56,358.17v-0.89l-0.01-0.12c0-3.32-1.24-5-3.72-5
			c-1.07,0-1.75,0.4-1.75,1.04c0,1.59,2.67,1.07,2.67,3.09c0,2.2-3.86,1.73-3.86,4.04c0,0.96,0.76,1.56,1.97,1.56
			C115.56,361.89,117.33,360.46,117.56,358.17z"/>
		<path class="st1" d="M123.1,357.06c0.99-3.18,2.34-5.18,3.51-5.18l0.03,0.74c-1.22,0-2.55,1.94-3.54,5.09v4.15
			c0,0.28-0.24,0.48-0.57,0.48c-0.32,0-0.57-0.21-0.57-0.48v-9.3c0-0.28,0.25-0.48,0.57-0.48c0.33,0,0.57,0.21,0.57,0.48V357.06z
			 M126.61,351.87c1.79,0,2.9,2,2.9,5.2v4.79c0,0.28-0.21,0.48-0.48,0.48h-0.17c-0.28,0-0.48-0.21-0.48-0.48v-4.79
			c0-2.73-0.67-4.45-1.74-4.45L126.61,351.87z"/>
		<path class="st1" d="M142.58,363.62c0,2.34-2.38,3.57-5.33,3.57c-2.67,0-4.58-1.38-4.94-3.04c-0.07-0.29,0.19-0.53,0.5-0.53h0.26
			c0.28,0,0.47,0.19,0.49,0.46c0.18,1.72,1.38,2.92,3.68,2.92c2.51,0,4.17-1.34,4.17-3.38c0-2.04-1.66-3.37-4.17-3.37
			c-1.35,0-2.51,0.49-3.08,1.4c-0.22,0.34-0.57,0.45-0.88,0.19l-0.37-0.3c0.01-0.01,0.02-0.01,0.02-0.02l-0.04,0.02
			c-0.19-0.85,0.12-1.98,0.68-3.14c-0.79-0.62-1.28-1.53-1.28-2.78c0-2.59,2.11-3.75,4.52-3.75c0.79,0,1.54,0.12,2.2,0.38
			c1.33-0.75,2.5-0.83,3.42-0.23c0.25,0.14,0.28,0.39,0.11,0.63l-0.08,0.1c-0.15,0.2-0.37,0.23-0.57,0.08
			c-0.67-0.46-1.46-0.56-2.33-0.32c1.06,0.6,1.76,1.61,1.76,3.11c0,2.57-2.11,3.74-4.51,3.74c-1.15,0-2.22-0.27-3.04-0.82
			c-0.49,1.02-0.79,2.04-0.65,2.81c0.98-0.79,2.46-1.29,4.12-1.29C140.2,360.06,142.58,361.27,142.58,363.62z M133.98,357.64
			c0.7-1.22,1.62-2.43,2.46-3.29c0.74-0.77,1.45-1.38,2.13-1.82c-0.51-0.3-1.12-0.46-1.75-0.46c-1.79,0-3.35,1.25-3.35,3.56
			C133.46,356.42,133.65,357.1,133.98,357.64z M138.89,352.75c-0.76,0.34-1.56,0.93-2.35,1.76c-0.68,0.71-1.67,2-2.42,3.35
			c0.63,0.86,1.61,1.31,2.7,1.31c1.77,0,3.34-1.24,3.34-3.55C140.15,354.31,139.65,353.34,138.89,352.75z"/>
		<path class="st1" d="M145.47,348.79c0-0.28,0.21-0.48,0.48-0.48h0.17c0.28,0,0.48,0.21,0.48,0.48v13.06
			c0,0.28-0.21,0.48-0.48,0.48h-0.17c-0.27,0-0.48-0.21-0.48-0.48V348.79z"/>
		<path class="st1" d="M157.84,360.43c0,1.36-1.63,2.2-3.3,2.2c-2.75,0-4.67-1.41-4.67-5.39c0-3.99,1.92-5.37,4.52-5.37
			c2.01-0.01,3.29,1.01,3.29,2.1c0.01,2.99-5.33-0.01-5.69,1.85C151.58,357.94,157.84,357.86,157.84,360.43z M156.8,360.33
			c0-2.32-5.38-2.33-5-4.52c0.35-2,5.54,0.65,4.97-1.86c-0.3-0.98-0.98-1.91-2.38-1.9c-1.98,0-3.38,1.59-3.38,5.18s1.4,5.2,3.53,5.2
			C156.22,362.44,156.8,361.29,156.8,360.33z"/>
	</g>
	<g>
		<ellipse class="st2" cx="124.06" cy="330.44" rx="86.19" ry="5.59"/>
		<g>
			<path class="st3" d="M190.86,321.66c-0.19-0.84-1.38-4.38-1.79-5.88c-1.43-5.32-8.9-20.59-11.31-24.16
				c-2.7-4.14-6-7.88-7.84-12.38c-1.91-4.47-11.11-30.04-22.16-39.46c-4.3-4.18-10.42-4.52-12.51-4.55
				c-9.56-0.13-23.57,1.12-25.72,1.29c-6.58,0.53-10.72,0.23-12.19,0.46c-1.69,0.14-3.66-1.85-3.7-3.19
				c-0.08-2.56-0.38-5.28-0.38-6.92c0.18-7,0.92-13.81-0.55-20.99c-0.74-3.32-2.02-6.45-2.76-9.95c-0.74-3.13-2.02-7.18-1.84-10.5
				l-0.08-0.31h0.05c-0.11-2.07-0.35-4.01-0.89-6.08c-0.33-1.52,0.12-2.39-3.87-4.6c-2.95-1.63-1.87,7.6-2.08,9.78l-0.03,0.26
				c-1.16-0.98-2.34-2.03-4.01-0.65c0.72,0.5,1.19,0.75,1.76,1.54c0.58,0.54,1.26,1.38,1.84,1.92c1.01,0.89,2.34,0.9,3.26,3.11v0.18
				c0.92,3.68,1.82,14.46,2.58,18.23c1.75,8.66-2.58,20.72-2.95,26.89c-0.15,2.42,0.29,4.09,0.74,6.45c0.46,2.44,1.05,3.22,0.44,4.3
				c-1.58-0.02-4.43-0.56-5.79-0.82c-0.09-1.41-0.25-3.12-0.47-3.71c-0.47-1.26-1.46-0.85-2.45-0.43c-0.53,0.22-1.07,0.33-1.51-0.11
				c-0.23-0.23-0.26-0.4-0.57-0.53c-0.2-0.08-0.4,0.02-0.57,0.12c-0.29,0.18-0.22,0.51-0.36,0.1c-0.11-0.32-0.63-0.37-0.93-0.24
				c-0.44,0.2-0.38,0.76-1.22,0.25c-0.22-0.13-0.39-0.32-0.61-0.45c-0.24-0.13-0.49,0.02-0.64,0.22c-0.43,0.6-0.77,1.25-1.26,1.81
				c-0.16,0.16-0.32,0.31-0.46,0.44c-0.07,0.05-0.15,0.1-0.22,0.15c-0.06-0.38-0.64-0.82-1.12-0.87c0.35,0.25,0.55,0.69,0.52,1.14
				c-0.41,0.13-0.87,0.19-1.35,0.26c-0.88,0.13-1.74,0.41-2.55,0.79c-0.43,0.19-1.52,0.88-2.64,1.94
				c6.35,13.01,17.56,9.62,18.48,10.53c0.71-0.82,1.26-1.46,1.55-1.7l-0.03-0.14c0.01-0.01,0.02-0.03,0.03-0.04
				c2.85,0.58,4.13,1.83,4.21,2.04c0.38,0.98,0.26,2.44,0.07,3.61c4.11,0.53,8.5,2.71,11.69,4.43c5.62-3.62,15.97-9.79,21.87-10.41
				c1.56-0.16,2.14,0.28,2.89,0.69c-5.32,6.97-20.75,28.33-23.25,31.79c2.17,2.36,4.82,4.07,7.57,5.64c0.14-0.1,0.27-0.21,0.42-0.31
				c10.59-7.06,25.99-24.66,33.6-33.07c8.88,8.96,22.19,23.12,23.44,24.72c3.91,4.99,3.31,10.46,9,18.64
				c3.98,5.72,12.04,13.95,12.48,17.93c0.01,1.21-0.25,2.41-0.86,3.55l-1.11,1.66c-5.18,3.39,0.55,3.39,3.9,3.07
				c2.31,0,3.47-0.43,4.02-1.25C190.99,327.36,191.58,324.89,190.86,321.66L190.86,321.66z"/>
			
				<linearGradient id="SVGID_1_" gradientUnits="userSpaceOnUse" x1="263.4888" y1="-938.3099" x2="238.6407" y2="-914.0412" gradientTransform="matrix(1 0 0 1 -172.5 1244.26)">
				<stop  offset="0" style="stop-color:#F8A164"/>
				<stop  offset="1" style="stop-color:#FAB57E"/>
			</linearGradient>
			<path class="st4" d="M96.99,288.84c-2.9,3.55-10.23,11.41-12.05,13.53c-4.17,4.87-7.23,10.74-11.48,15.41
				c-0.54,0.6-0.92,1.06-1.2,1.44c-3.4,3.11-10.08,6.45-11.57,7.26c-0.31,0.17-2.71,0.59-3.56,1c0,0.07,0,0.14,0,0.21
				c-0.06,0.1-0.12,0.2-0.16,0.33l-0.03,0.47c-0.34,2.5,12.89,0.95,15.17,0.06s4.62,1.52,7.28,0.09c2.66-1.43,0.76-5.2,0.26-7.03
				c-0.14-0.51-0.13-0.99-0.02-1.44c0.46-0.62,1.08-1.19,2.06-2.1c6.47-6.04,11.11-7.97,15.69-12.87c3.4-3.64,3.87-7.79,6.84-10.94
				C101.6,292.75,99.09,291.07,96.99,288.84L96.99,288.84z"/>
			<path class="st1" d="M169.92,279.24c-1.91-4.47-11.11-30.04-22.16-39.46c-4.3-4.18-10.43-4.32-12.51-4.55
				c-1.46-0.16-3.08,0.01-4.55-0.04c-0.57,2.31-9.9,19.97-9.29,20.31c-5.68,7.43-22.85,31.24-23.57,32.23
				c-0.42,0.59-1.2,1.54-2.18,2.67c2.24,2.08,4.73,3.84,7.4,5.3c0.78-1.13,1.74-2.18,3.1-3.08c10.59-7.06,25.99-24.66,33.6-33.07
				c8.88,8.96,22.19,23.12,23.44,24.72c1.66,2.12,2.51,4.33,3.37,6.79c2.69-1.16,5.12-2.95,7.38-4.89
				C172.4,283.97,170.94,281.72,169.92,279.24L169.92,279.24z"/>
			<path class="st5" d="M79.22,257.81c-0.86,1.01-2.66,2.85-5.05,3.87c-2.05,0.88-3.29,0.92-3.96,0.8
				c-0.11-0.02-0.22-0.05-0.32-0.08c0.18,0.71,0.38,2.37-1.45,3.54c-1.19,0.77-3.1,1.02-5.11,0.67c-2.57-0.45-5.71-2.01-6.05-4.9
				c-0.12-1.03,0.23-1.88,0.64-2.49c-0.17,0.05-0.33,0.07-0.49,0.07c-0.57,0-0.91-0.48-0.86-0.84c0.03-0.21,0.2-0.43,0.61-0.39
				c0.26,0.03,0.56,0.01,0.89-0.04c-0.39-0.12-0.75-0.32-0.98-0.56c-0.31-0.32-0.31-0.74-0.17-1c0.18-0.35,0.59-0.39,0.87-0.04
				c0.14,0.17,0.32,0.35,0.54,0.52c-0.73-1.62-1.65-4.08-0.69-6.82c0.59-1.66,1.66-3.62,3.55-4.48l0.11-0.05l0.07,0.11
				c3.72,2.25,4.89,4.88,8.36,4.9l0.02,0.27c-0.8,0.3-0.86,1.15-0.9,1.55c-0.06,0.64,0.55,1.85,1.98,1.75
				C73,254.01,74.8,252,74.8,252s5.39,2.16,5.69,3.67l-1.24,2.11L79.22,257.81L79.22,257.81z"/>
			<path class="st6" d="M56.92,256.47c0.18-0.35,0.59-0.39,0.87-0.04c0.14,0.17,0.32,0.35,0.54,0.52c-0.04-0.09,7.69-0.09,12.2,5.57
				c-0.12-0.01-0.22-0.02-0.32-0.04c-0.05-0.01-0.09-0.02-0.13-0.03c-0.02-0.01-0.03-0.03-0.05-0.05
				c-8.75-6.61-12.16-3.1-12.11-3.18c-0.17,0.05-0.33,0.07-0.49,0.07c-0.57,0-0.91-0.48-0.86-0.84c0.03-0.21,0.2-0.43,0.61-0.39
				c0.26,0.03,0.56,0.01,0.89-0.04c-0.39-0.12-0.75-0.32-0.98-0.56C56.78,257.15,56.79,256.72,56.92,256.47L56.92,256.47z"/>
			<path class="st6" d="M66.27,242.24c0,0,1.09,0.9,1.42,2.66C67.92,246.13,69.04,242.57,66.27,242.24z"/>
			<path class="st7" d="M78.65,242.16c0,0,0.94,3.66,0.44,6.95C78.89,247.39,78.84,245.01,78.65,242.16z"/>
			<path class="st8" d="M74.91,244.58c0.72,2.16-1.7,4.62-4.08,3.82C68.45,247.61,74.44,243.19,74.91,244.58z"/>
			<path class="st9" d="M85.25,258.21c-0.05,0.32-0.09,0.55-0.09,0.55c-1.06,3.53,1.33,14.01,2.02,17.48
				c0.62,3.3,1.07,14.12,1.13,15.87c0.01,2.16-0.46,4.09-0.93,6.03c-0.52,3.92,1.46,21.62,1.63,23.68l-0.13,0.51
				c-0.76,2.35-4.22,1.69-6.32,2.57c-1.22,0.56-1.28,1.11-2.74,1.33c-1.27,0.19-2.58,0.2-3.53,1.28c2.81,2.56,7.08,1.35,10.07,1.46
				c2.06,0.06,7.01,0.19,6.38-4l0-0.14c-0.33-3.02,1.21-15.01,1.57-18.28c0.91-6.61-0.09-11.96,0.58-18.68
				c0.6-6.9-0.15-18.19,3.44-24.42l0.41-0.62c0.17-0.16,0.38-0.32,0.57-0.48C95.98,257.74,90.44,257.42,85.25,258.21L85.25,258.21z"
				/>
			<path class="st10" d="M97.25,252.45c-0.71,5.39-7.32,6.39-12.12,5.96c0.02,0.4,0.02,0.82-0.02,1.23
				c5.09,0.18,11.53,0.1,15.81,2.95c2.91,0.35,7.05-2.06,8.4-4.56c1.13-7.61-0.19-14.64-0.98-21.41c-2.08,0.14-3.89,0.21-5.42,0.24
				c-2.41,6.9-11.5,8.37-18.09,7.08c0.04,0.14,0.19,0.88,0.23,1C90.34,245.7,98.2,245.2,97.25,252.45z"/>
			<path class="st11" d="M107.02,260.86c-0.01,0-0.02,0-0.03,0c-0.08-0.02-0.13-0.1-0.11-0.17c2.09-8.54-0.36-23.67-0.39-23.83
				c-0.01-0.08,0.04-0.15,0.12-0.17c0.08-0.02,0.15,0.04,0.17,0.12c0.03,0.15,2.48,15.34,0.38,23.94
				C107.14,260.81,107.08,260.86,107.02,260.86L107.02,260.86z"/>
		</g>
	</g>
</g>
</svg>
