<?xml version="1.0" encoding="utf-8"?>
<!-- Generator: Adobe Illustrator 26.5.0, SVG Export Plug-In . SVG Version: 6.00 Build 0)  -->
<svg version="1.1" id="Layer_1" xmlns="http://www.w3.org/2000/svg" xmlns:xlink="http://www.w3.org/1999/xlink" x="0px" y="0px"
	 viewBox="0 0 250 167" style="enable-background:new 0 0 250 167;" xml:space="preserve">
<style type="text/css">
	.st0{fill:#B2BCC4;}
	.st1{fill:#F7B882;}
	.st2{fill:url(#SVGID_1_);}
	.st3{fill:#355775;}
	.st4{fill:#905423;}
	.st5{fill:#46260F;}
	.st6{fill:#D09A6F;}
	.st7{fill:#F5B080;}
	.st8{fill:#F5B780;}
	.st9{fill:#FFFFFF;}
	.st10{fill:#D1E5FF;}
</style>
<g>
	<g>
		<ellipse class="st0" cx="124.1" cy="161.4" rx="86.2" ry="5.6"/>
		<g>
			<path class="st1" d="M190.9,152.7c-0.2-0.8-1.4-4.4-1.8-5.9c-1.4-5.3-8.9-20.6-11.3-24.2c-2.7-4.1-6-7.9-7.8-12.4
				c-1.9-4.5-11.1-30-22.2-39.5c-4.3-4.2-10.4-4.5-12.5-4.6c-9.6-0.1-23.6,1.1-25.7,1.3c-6.6,0.5-10.7,0.2-12.2,0.5
				c-1.7,0.1-3.7-1.9-3.7-3.2c-0.1-2.6-0.4-5.3-0.4-6.9c0.2-7,0.9-13.8-0.6-21c-0.7-3.3-2-6.4-2.8-9.9c-0.7-3.1-2-7.2-1.8-10.5
				L88,16.1h0.1c-0.1-2.1-0.3-4-0.9-6.1c-0.3-1.5,0.1-2.4-3.9-4.6c-2.9-1.6-1.9,7.6-2.1,9.8v0.3c-1.2-1-2.3-2-4-0.6
				c0.7,0.5,1.2,0.8,1.8,1.5c0.6,0.5,1.3,1.4,1.8,1.9c1,0.9,2.3,0.9,3.3,3.1v0.2c0.9,3.7,1.8,14.5,2.6,18.2
				c1.8,8.7-2.6,20.7-2.9,26.9c-0.2,2.4,0.3,4.1,0.7,6.4c0.5,2.4,1.1,3.2,0.4,4.3c-1.6,0-4.4-0.6-5.8-0.8c-0.1-1.4-0.2-3.1-0.5-3.7
				c-0.5-1.3-1.5-0.9-2.4-0.4c-0.5,0.2-1.1,0.3-1.5-0.1c-0.2-0.2-0.3-0.4-0.6-0.5c-0.2-0.1-0.4,0-0.6,0.1c-0.3,0.2-0.2,0.5-0.4,0.1
				c-0.1-0.3-0.6-0.4-0.9-0.2c-0.4,0.2-0.4,0.8-1.2,0.2c-0.2-0.1-0.4-0.3-0.6-0.4c-0.2-0.1-0.5,0-0.6,0.2c-0.4,0.6-0.8,1.2-1.3,1.8
				c-0.2,0.2-0.3,0.3-0.5,0.4c-0.1,0.1-0.2,0.1-0.2,0.1c-0.1-0.4-0.6-0.8-1.1-0.9c0.3,0.2,0.6,0.7,0.5,1.1c-0.4,0.1-0.9,0.2-1.3,0.3
				c-0.9,0.1-1.7,0.4-2.5,0.8c-0.4,0.2-1.5,0.9-2.6,1.9c6.4,13,17.6,9.6,18.5,10.5c0.7-0.8,1.3-1.5,1.6-1.7v-0.1l0,0
				c2.8,0.6,4.1,1.8,4.2,2c0.4,1,0.3,2.4,0.1,3.6c4.1,0.5,8.5,2.7,11.7,4.4c5.6-3.6,16-9.8,21.9-10.4c1.6-0.2,2.1,0.3,2.9,0.7
				c-5.3,7-20.8,28.3-23.2,31.8c2.2,2.4,4.8,4.1,7.6,5.6c0.1-0.1,0.3-0.2,0.4-0.3c10.6-7.1,26-24.7,33.6-33.1
				c8.9,9,22.2,23.1,23.4,24.7c3.9,5,3.3,10.5,9,18.6c4,5.7,12,14,12.5,17.9c0,1.2-0.2,2.4-0.9,3.5l-1.1,1.7
				c-5.2,3.4,0.6,3.4,3.9,3.1c2.3,0,3.5-0.4,4-1.2C191,158.4,191.6,155.9,190.9,152.7L190.9,152.7z"/>
			
				<linearGradient id="SVGID_1_" gradientUnits="userSpaceOnUse" x1="263.4044" y1="-1107.3964" x2="238.5563" y2="-1083.1277" gradientTransform="matrix(1 0 0 1 -172.5 1244.26)">
				<stop  offset="0" style="stop-color:#F8A164"/>
				<stop  offset="1" style="stop-color:#FAB57E"/>
			</linearGradient>
			<path class="st2" d="M97,119.8c-2.9,3.5-10.2,11.4-12.1,13.5c-4.2,4.9-7.2,10.7-11.5,15.4c-0.5,0.6-0.9,1.1-1.2,1.4
				c-3.4,3.1-10.1,6.5-11.6,7.3c-0.3,0.2-2.7,0.6-3.6,1c0,0.1,0,0.1,0,0.2c-0.1,0.1-0.1,0.2-0.2,0.3v0.5c-0.3,2.5,12.9,1,15.2,0.1
				s4.6,1.5,7.3,0.1c2.7-1.4,0.8-5.2,0.3-7c-0.1-0.5-0.1-1,0-1.4c0.5-0.6,1.1-1.2,2.1-2.1c6.5-6,11.1-8,15.7-12.9
				c3.4-3.6,3.9-7.8,6.8-10.9C101.6,123.8,99.1,122.1,97,119.8L97,119.8z"/>
			<path class="st3" d="M169.9,110.2c-1.9-4.5-11.1-30-22.2-39.5c-4.3-4.2-10.4-4.3-12.5-4.6c-1.5-0.2-3.1,0-4.6,0
				c-0.6,2.3-9.9,20-9.3,20.3c-5.7,7.4-22.8,31.2-23.6,32.2c-0.4,0.6-1.2,1.5-2.2,2.7c2.2,2.1,4.7,3.8,7.4,5.3
				c0.8-1.1,1.7-2.2,3.1-3.1c10.6-7.1,26-24.7,33.6-33.1c8.9,9,22.2,23.1,23.4,24.7c1.7,2.1,2.5,4.3,3.4,6.8c2.7-1.2,5.1-3,7.4-4.9
				C172.4,115,170.9,112.7,169.9,110.2L169.9,110.2z"/>
			<path class="st4" d="M79.2,88.8c-0.9,1-2.7,2.9-5.1,3.9c-2.1,0.9-3.3,0.9-4,0.8c-0.1,0-0.2,0-0.3-0.1c0.2,0.7,0.4,2.4-1.4,3.5
				c-1.2,0.8-3.1,1-5.1,0.7c-2.6-0.5-5.7-2-6-4.9c-0.1-1,0.2-1.9,0.6-2.5c-0.2,0-0.3,0.1-0.5,0.1c-0.6,0-0.9-0.5-0.9-0.8
				c0-0.2,0.2-0.4,0.6-0.4c0.3,0,0.6,0,0.9,0c-0.4-0.1-0.8-0.3-1-0.6c-0.3-0.3-0.3-0.7-0.2-1c0.2-0.4,0.6-0.4,0.9,0
				c0.1,0.2,0.3,0.4,0.5,0.5c-0.7-1.6-1.7-4.1-0.7-6.8c0.6-1.7,1.7-3.6,3.5-4.5l0.1-0.1l0.1,0.1c3.7,2.2,4.9,4.9,8.4,4.9v0.3
				c-0.8,0.3-0.9,1.1-0.9,1.6c-0.1,0.6,0.6,1.9,2,1.8c2.2-0.2,4-2.2,4-2.2s5.4,2.2,5.7,3.7L79.2,88.8L79.2,88.8L79.2,88.8z"/>
			<path class="st5" d="M56.9,87.5c0.2-0.4,0.6-0.4,0.9,0c0.1,0.2,0.3,0.4,0.5,0.5c0-0.1,7.7-0.1,12.2,5.6c-0.1,0-0.2,0-0.3,0
				c-0.1,0-0.1,0-0.1,0s0,0-0.1,0c-8.8-6.6-12.2-3.1-12.1-3.2c-0.2,0-0.3,0.1-0.5,0.1c-0.6,0-0.9-0.5-0.9-0.8c0-0.2,0.2-0.4,0.6-0.4
				c0.3,0,0.6,0,0.9,0c-0.4-0.1-0.8-0.3-1-0.6C56.8,88.1,56.8,87.7,56.9,87.5L56.9,87.5z"/>
			<path class="st5" d="M66.3,73.2c0,0,1.1,0.9,1.4,2.7C67.9,77.1,69,73.6,66.3,73.2z"/>
			<path class="st6" d="M78.7,73.2c0,0,0.9,3.7,0.4,6.9C78.9,78.4,78.8,76,78.7,73.2z"/>
			<path class="st7" d="M74.9,75.6c0.7,2.2-1.7,4.6-4.1,3.8S74.4,74.2,74.9,75.6z"/>
			<path class="st8" d="M85.2,89.2c-0.1,0.3-0.1,0.5-0.1,0.5c-1.1,3.5,1.3,14,2,17.5c0.6,3.3,1.1,14.1,1.1,15.9c0,2.2-0.5,4.1-0.9,6
				c-0.5,3.9,1.5,21.6,1.6,23.7l-0.1,0.5c-0.8,2.4-4.2,1.7-6.3,2.6c-1.2,0.6-1.3,1.1-2.7,1.3c-1.3,0.2-2.6,0.2-3.5,1.3
				c2.8,2.6,7.1,1.4,10.1,1.5c2.1,0.1,7,0.2,6.4-4v-0.1c-0.3-3,1.2-15,1.6-18.3c0.9-6.6-0.1-12,0.6-18.7c0.6-6.9-0.2-18.2,3.4-24.4
				l0.4-0.6c0.2-0.2,0.4-0.3,0.6-0.5C96,88.7,90.4,88.4,85.2,89.2L85.2,89.2z"/>
			<path class="st9" d="M97.2,83.4c-0.7,5.4-7.3,6.4-12.1,6c0,0.4,0,0.8,0,1.2c5.1,0.2,11.5,0.1,15.8,3c2.9,0.4,7.1-2.1,8.4-4.6
				c1.1-7.6-0.2-14.6-1-21.4c-2.1,0.1-3.9,0.2-5.4,0.2c-2.4,6.9-11.5,8.4-18.1,7.1c0,0.1,0.2,0.9,0.2,1
				C90.3,76.7,98.2,76.2,97.2,83.4z"/>
			<path class="st10" d="M107,91.9L107,91.9c-0.1,0-0.2-0.1-0.1-0.2c2.1-8.5-0.4-23.7-0.4-23.8s0-0.1,0.1-0.2s0.2,0,0.2,0.1
				s2.5,15.3,0.4,23.9C107.1,91.8,107.1,91.9,107,91.9L107,91.9z"/>
		</g>
	</g>
</g>
</svg>
