<?xml version="1.0" encoding="utf-8"?>
<!-- Generator: Adobe Illustrator 26.5.0, SVG Export Plug-In . SVG Version: 6.00 Build 0)  -->
<svg version="1.1" id="Layer_1" xmlns="http://www.w3.org/2000/svg" xmlns:xlink="http://www.w3.org/1999/xlink" x="0px" y="0px"
	 viewBox="0 0 250 132.2" style="enable-background:new 0 0 250 132.2;" xml:space="preserve">
<style type="text/css">
	.st0{fill:#F5B780;}
	.st1{fill:#355775;}
	.st2{fill:#8F5524;}
	.st3{fill:#452713;}
	.st4{fill:#FFFFFF;}
	.st5{fill:#D1E5FF;}
</style>
<g>
	<g>
		<path class="st0" d="M77.5,90.4c-1.8-2.7-3.3-5.6-4.5-8.6c-3.6,2-7.8,3.1-11.3,5.5c-8.8,6.1-11,13.1-17,17.5c-2.9,2.2-5.3,3.6-6,5
			c-0.7,1.4-3.9,12.5-1.2,13.2c2.8,0.7,4.5,0.3,8.2,0c3.8-0.3,3.7-0.2,3.7-2.2c0-2.1-3.7-2.7-3.7-2.7s0.8-3.2,0.4-5.3
			c0-0.2,0.1-0.4,0.2-0.7C48.9,108.1,72.6,93.5,77.5,90.4z"/>
		<path class="st0" d="M175.6,90.4c1.8-2.7,3.3-5.6,4.5-8.6c3.6,2,7.8,3.1,11.3,5.5c8.8,6.1,11,13.1,17,17.5c2.9,2.2,5.3,3.6,6,5
			c0.7,1.4,3.9,12.5,1.2,13.2c-2.8,0.7-4.5,0.3-8.2,0c-3.8-0.3-3.7-0.2-3.7-2.2c0-2.1,3.7-2.7,3.7-2.7s-0.8-3.2-0.4-5.3
			c0-0.2-0.1-0.4-0.2-0.7C204.1,108.1,180.5,93.5,175.6,90.4z"/>
		<path class="st1" d="M175.7,79c-5.2-3.7-9.6-9.1-14-13.7c-4.2-4-8.4-9.6-15.3-15.9c-4.9-4.1-12.7-8-19-5.2
			c-6.3-2.2-12.2-1.6-17.4,4.1c-7.6,6.8-14.3,13.1-18.5,17.1c-4.4,4.7-8.7,10-14,13.7c-2.2,1.6-4.5,2.9-6.9,4.1
			c0.5,3.5,1.9,6.7,4,9.4c2.1-1.6,4.1-3,6.7-4c3.6-1.4,14.4-4.7,26.2-13.1c3.2-2.3,13.1-8.9,19.1-13.3c6,4.4,15.9,11,19.1,13.3
			c11.9,8.4,22.6,11.7,26.2,13.1c2.6,1,4.6,2.4,6.7,4c2.1-2.7,3.5-5.9,4-9.4C180.2,81.9,177.8,80.6,175.7,79z"/>
		<path class="st0" d="M146.3,83.4c-0.1,0-0.3,0-0.4,0.1c-1.3-4.4-6.1-17-6.4-19.4c-0.4-2.8,0.7-9.9,0.7-9.9
			c-0.7-4.3-6.3-4.9-12.3-5.6c-0.2,0-1.1,0-1.4,0c-6,0.6-11.6,1.2-12.3,5.6c0,0,1.1,7.1,0.7,9.9c-0.3,2.3-4.3,13-6,18.1
			c0.5,4.3,1.6,9.1,3.7,13.2c2.2,0.2,4.5,0.2,6.6,0.2c0.7,1.5,1.4,3.8,1.4,6.8c0,4.8,4,3.9,6,3.1c2,0.8,6,1.6,6-3.1
			c0-3,0.7-5.2,1.4-6.7c0.3,0,0.6,0,0.9,0c2,0,4.2,0,6.4-0.2C143.5,91.8,144.7,87.3,146.3,83.4z"/>
		<g>
			<path class="st2" d="M138.7,110.1c-2.4-7-8.9-11.1-11-10.8l-0.9-1.5c-0.1-0.5-0.3-0.6-0.3-0.6l-0.1-0.2c0,0-0.1,0.3-0.2,0.8
				l-0.9,1.5c-2.1-0.3-8.6,3.8-11,10.8c-1.5,4.5,1.3,9.5,5.2,11.2c0.3,2.8,3.2,4.9,6.8,4.9c3.5,0,6.4-2.1,6.8-4.7
				C137.1,120,140.3,114.8,138.7,110.1z"/>
			<path class="st3" d="M117.8,119.4c0.1-0.4,0.5-0.5,0.9-0.3c0.2,0.1,0.4,0.2,0.7,0.3c-0.1-0.1,7.9-2.4,14.4,1.6
				c-0.1,0-0.2,0-0.3,0.1c-0.1,0-0.1,0-0.1,0c0,0,0,0-0.1,0c-11.2-3.6-13.5,0.7-13.5,0.6c-0.2,0.1-0.3,0.2-0.5,0.2
				c-0.6,0.2-1.1-0.2-1.2-0.5c0-0.2,0.1-0.5,0.5-0.5c0.3-0.1,0.6-0.2,0.9-0.3c-0.4,0-0.9-0.1-1.2-0.2
				C117.9,120.1,117.8,119.7,117.8,119.4z"/>
		</g>
		<path class="st4" d="M144,77.1c-0.1-3.1-2.1-8.1-3.5-9.6c-8.3-3-17.6-2.3-26.2-0.6c-2.3,2.2-3.7,6.1-3.6,10.5
			c1.1,2.6,4.5,4.3,4.9,18.1c0,0.2,1.1-0.2,1.9-0.1c0.9-6.4,1.3-17.1,11.3-17.1c8.2,0,9.5,11.3,9.2,17.5c1.3-0.1,1.7-0.2,1.8-0.2
			C139.9,88.9,141.1,81.7,144,77.1z"/>
		<g>
			<path class="st5" d="M141.4,69.4C141.4,69.4,141.4,69.4,141.4,69.4c-12.9-4.5-28.2-0.8-28.3-0.8c-0.1,0-0.2,0-0.2-0.1
				c0-0.1,0-0.2,0.1-0.2c0.2,0,15.5-3.8,28.5,0.8c0.1,0,0.1,0.1,0.1,0.2C141.6,69.4,141.5,69.4,141.4,69.4z"/>
		</g>
		<path class="st0" d="M146.1,45c0.7,12.2,2.1,22,3.5,30.4c1.3,7.9,0.6,11.5-0.8,14.2c-1.6,3-4.2,6.3-9.4,6.1
			c-0.6-5.5-0.3-17-0.3-17c-0.6-4.5,0.8-22.9,0.3-32.7c-0.2-4.7-2.9-22.3-2.8-23.2c-2.5-0.3-7.2-0.5-8.3-0.3
			c-1.1,0.2-2.2,0.7-3.4-0.4c0.4-1.1-0.9-3.9,0.4-4.3c4-1.3,13.2,1.8,14.7,1.8C141.2,22.7,145.8,39.7,146.1,45z"/>
		<path class="st0" d="M131.3,22.6c-1.1-0.3-5.7-0.6-8.3-0.6c0,1-4.6,18.1-5.4,22.8c-1.7,10-2.3,29.4-3.4,33c0,0-1.4,15.9-1.8,17.3
			c-8-0.3-9.1-11.7-9.1-13c-0.3-2.2-0.1-5.2,1-9.2c2.3-8.2,4.8-17.8,6.8-29.9c0.9-5.2,7.3-22,8.8-25c1.6,0.2,11.7-1.7,15.3,0.7
			c0.8,0.6-0.7,3-0.6,3.9C133.4,23.5,132.4,23,131.3,22.6z"/>
	</g>
</g>
</svg>
