<?xml version="1.0" encoding="utf-8"?>
<!-- Generator: Adobe Illustrator 26.5.0, SVG Export Plug-In . SVG Version: 6.00 Build 0)  -->
<svg version="1.1" id="Layer_1" xmlns="http://www.w3.org/2000/svg" xmlns:xlink="http://www.w3.org/1999/xlink" x="0px" y="0px"
	 viewBox="0 0 700 700" style="enable-background:new 0 0 700 700;" xml:space="preserve">
<style type="text/css">
	.st0{fill:#355775;}
</style>
<g>
	<path class="st0" d="M563.3,93.6l-39.9-3.5l-0.8-9.3c-1.1-12.5-11-22.9-24-25.2c-2.7-0.5-5.5-0.6-8.3-0.4l-43,3.8
		c-4.8-6.8-12.6-11.5-21.6-12.3c-2.7-0.2-5.5-0.1-8.3,0.4L359,57.5c-3-1-6.1-1.5-9.4-1.5c-2.8,0-5.5,0.4-8.2,1.1l-38.3,10.3
		l-99.3,17.5c-7.8,1.4-14.7,5.6-19.4,11.8c-0.7,1-1.4,2-1.9,3.1l-50.8,13.6c-7.7,2.1-14.2,6.8-18.3,13.4c-1.4,2.2-2.3,4.5-3,6.9
		c-3.7,5.8-5.1,12.8-3.3,19.6l92.2,344c3.6,13.6,18.3,21.4,32.8,17.5l65.2-17.5l0,0c3.3,1.6,7,2.5,10.9,2.7l216.9,9.5
		c9.5,0.4,18-3.8,23.2-10.5c6.3-4.6,10.6-11.6,11.3-19.7l31-354.8C592,108.9,579.8,95.1,563.3,93.6L563.3,93.6z M490.8,60.9
		c2.3-0.2,4.6-0.1,6.8,0.3c10.6,1.9,18.6,10.1,19.4,20.1l0.5,5.7l-15,1.3l15.6,1.4l-30.1-2.6l1.1,0.1l-2.3-25.9L490.8,60.9z
		 M481.3,61.8l2.2,24.9l-4.6-0.4l-2.1-24.1L481.3,61.8z M471.2,62.6l2,23.1l-4.6-0.4l-2-22.3L471.2,62.6z M461,63.5l1.9,21.3
		l1.7,0.2l-11.5-1l5.1,0.4l-1.8-20.5L461,63.5z M452.6,84l-4.6-0.4l-1.6-18.7l4.6-0.4L452.6,84z M283.9,484l-0.5-2.9
		c-1-0.8-1.9-1.7-2.7-2.6c0.9,0.9,1.8,1.8,2.8,2.6c0.3,0.9,0.6,1.9,0.9,2.8L283.9,484z M278.4,485l-3.9,0.7
		c-2.3,0.4-4.6,0.5-6.8,0.3c-10.7-0.9-19.3-8.5-21.1-18.4l-1-5.6l27.9-4.9l0,0.1l0.6,6.9c0.2,2.5,0.9,4.8,1.9,7.1L278.4,485z
		 M234.9,456.9l2.9,16.3c0.2,1.4,0.7,2.6,1.1,3.9c-0.5-1.2-0.9-2.5-1.1-3.9l-0.7-3.7l-0.4-1.5c0.1,0.1,0.1,0.1,0.2,0.1L234.9,456.9z
		 M200.4,314c-1.5,2.1-2.5,4.5-3.1,6.9l-1.5-5.6L200.4,314z M194.3,309.8l-1.5-5.6c1.7,1.8,3.7,3.3,6.1,4.4L194.3,309.8z
		 M193.9,295.3c-1-3.6-0.2-7.4,2.2-10.8c1.8-2.6,4.3-4.6,7.3-6l-1.1-6.2c-8,0.9-15.4-3.1-17.2-9.8c-2-7.3,3.5-15.2,12.3-17.9
		l11.3,63.9l-0.6-3.4C201.3,304.8,195.5,301.1,193.9,295.3L193.9,295.3z M165.2,183C165.2,183,165.2,183,165.2,183
		c-1.5,2.2-2.5,4.5-3.1,6.8l-1.5-5.6L165.2,183z M159.2,178.8l-1.5-5.6c1.7,1.8,3.8,3.3,6.1,4.4L159.2,178.8z M158.8,164.2
		c-2-7.5,3.8-15.7,13.1-18.2l7-1.9c0.3-0.1,0.5-0.1,0.8-0.2l4.9,27.9l-5.4,1.5C170,175.9,160.8,171.8,158.8,164.2L158.8,164.2z
		 M174,215.7C174,215.7,173.9,215.7,174,215.7c-1.5,2.2-2.5,4.5-3.1,6.8l-1.5-5.6L174,215.7z M168,211.5l-1.5-5.6
		c1.7,1.8,3.8,3.3,6.1,4.4L168,211.5z M167.6,197c-1-3.6-0.2-7.4,2.2-10.8c2.5-3.5,6.3-6.2,10.9-7.4l4.9-1.3l-0.5-2.6l5.4,30.6
		l-2.6,0.7C178.7,208.6,169.6,204.5,167.6,197L167.6,197z M258,88c1.2-1.4,2.6-2.6,4.1-3.6c0.1-0.1,0.2-0.1,0.3-0.2
		c1.5-1,3-1.8,4.7-2.5h0c2.4-1,4.8-1.7,7.5-1.9l4-0.3l2.5,28.2l-28.2,2.5l-0.5-5.7C251.8,98.5,253.8,92.7,258,88L258,88z
		 M260.2,79.1c0.5-0.3,0.9-0.6,1.4-0.9C261.1,78.5,260.6,78.8,260.2,79.1z M264.3,76.9c0.8-0.4,1.6-0.7,2.5-0.9
		C265.9,76.2,265.1,76.5,264.3,76.9z M324.4,69.3l4.5-0.8l0.2,1l-6.8,0.6l2.2-0.2L324.4,69.3z M334.7,69l-0.3-1.5l4.5-0.8l0.3,1.9
		l5.6-0.5l-0.4-2.3l4.5-0.8l0.5,2.7L334.7,69z M354.5,64l4.5-0.8l0.6,3.6l-7.5,0.7l2.9-0.3L354.5,64z M318.9,70.4l-1.2,0.1l1.2-0.2
		L318.9,70.4z M289.4,311.3l-18.8,1.6l-0.5-5.7l19.6-1.7L289.4,311.3z M288.9,322.7l-17.3,1.5l-0.4-4.7l-0.1-1l18.1-1.6L288.9,322.7
		z M284.9,413.8l-5.5,0.5l-0.5-5.7l6.2-0.5L284.9,413.8z M279.9,419.9l4.8-0.4l-0.3,5.8l-4,0.4L279.9,419.9z M282.9,453.6l0.3,0
		l-0.1,2.3L282.9,453.6z M284.2,430.8l-0.3,5.8l-2.5,0.2l-0.4-4.4l-0.1-1.3L284.2,430.8z M283.7,442.2l-0.3,5.8l-1,0.1l0-0.5
		l-0.5-5.2L283.7,442.2z M285.4,402.4l-7,0.6l-0.5-5.7l7.7-0.7L285.4,402.4z M277.4,391.7l-0.4-4.3l-0.1-1.4l9.2-0.8l-0.2,5.8
		L277.4,391.7z M276.5,380.5l-0.5-5.7l10.7-0.9l-0.3,5.8L276.5,380.5z M275.5,369.2l-0.4-4l-0.1-1.7l12.2-1.1l-0.3,5.8L275.5,369.2z
		 M274.5,358l-0.5-5.7l13.6-1.2l-0.3,5.8L274.5,358z M287.9,345.4l-14.4,1.3L273,341l15.1-1.3L287.9,345.4z M232.8,389.7l-1-5.6
		l27.9-4.9l1,5.6L232.8,389.7z M209.3,256.1l-0.6-3.4l-0.4-2.2l27.9-4.9l1,5.6L209.3,256.1z M196.5,183.7l27.9-4.9l1,5.6l-27.9,4.9
		L196.5,183.7z M195.5,178.2l-1-5.6l27.9-4.9l1,5.6L195.5,178.2z M226.3,189.9l1,5.6l-27.9,4.9l-1-5.6L226.3,189.9z M255.3,249.1
		l0-0.3c-5.8-1.4-10.3-5.3-11.3-10.6c-1.1-6,2.8-12,9-15.1L255.3,249.1z M297.9,117.3c0,0.1,0,0.1,0,0.2l-0.9,20.4
		c-2.8-2.2-4.7-5.3-5-8.8C291.5,124.5,293.9,120.3,297.9,117.3L297.9,117.3z M294.3,78.1l4.6-0.4l2.5,28.2l-4.6,0.4L294.3,78.1z
		 M267.6,279.1l-0.2-2.6l-0.3-3.1l24-2.1l-0.3,5.8L267.6,279.1z M253.7,285.3l-4.7,0.8l-1-5.7C249.5,282.3,251.4,284,253.7,285.3
		L253.7,285.3z M245.1,263.9l-1-5.7l4.6-0.8c0,0,0,0,0,0C247,259.4,245.8,261.6,245.1,263.9L245.1,263.9z M258.1,281.2
		c-4.3-1.9-7.4-5.3-8.2-9.6c-0.6-3.6,0.5-7.4,3.1-10.5c0.9-1.1,1.9-2,3.1-2.8L258.1,281.2z M291.9,254.3l-26.2,2.3l-0.5-5.7l27-2.4
		L291.9,254.3z M294.8,186.7c-0.4,0.7-0.8,1.3-1.1,2l-0.5-5.8l1.8-0.2L294.8,186.7z M295.2,177.1l-2.5,0.2l-0.5-5.8
		c0.9,1.3,1.9,2.5,3.1,3.6L295.2,177.1z M290.8,154.9l-0.5-5.8l4.7-0.4c0,0,0,0,0,0C293.1,150.6,291.7,152.7,290.8,154.9
		L290.8,154.9z M260.8,312.8c-2.7-2-4.5-4.7-5.1-7.8c-0.7-3.9,0.7-7.8,3.4-10.9l4.9,55.9l-0.6-7.3c-0.9-1.3-1.5-2.8-1.8-4.4
		c-0.4-2.3,0-4.6,0.8-6.7L260.8,312.8z M262.2,217.1l28.2-2.5l0.5,5.7l-28.2,2.5L262.2,217.1z M263.2,228.4l28.2-2.5l0.5,5.7
		l-28.2,2.5L263.2,228.4z M289.8,143.5l-0.5-5.8c1.4,2.1,3.1,3.9,5.2,5.4L289.8,143.5z M289.4,203.4l0.5,5.7l-28.2,2.5l-0.3-3.8
		l-0.2-1.9L289.4,203.4z M260.7,200.3l-0.5-5.7l28.2-2.5l0.5,5.7L260.7,200.3z M259.7,189l-0.5-5.7l28.2-2.5l0.5,5.7L259.7,189z
		 M258.7,177.7l-0.5-5.7l28.2-2.5l0.5,5.7L258.7,177.7z M257.7,166.5l-0.5-5.7l28.2-2.5l0.5,5.7L257.7,166.5z M254.7,290.8
		c-1.7,2-2.9,4.2-3.7,6.6l-1-5.8L254.7,290.8z M259.5,318.7C259.5,318.7,259.5,318.7,259.5,318.7l-4.6,0.8l-1-5.7
		C255.4,315.7,257.2,317.4,259.5,318.7L259.5,318.7z M260.6,324.2c-1.7,2-2.9,4.2-3.7,6.6l-1-5.8L260.6,324.2z M264.2,351.2l0.1,1.1
		l-3.5,0.6l-1-5.7C261,348.7,262.5,350,264.2,351.2L264.2,351.2z M264.6,245.3l-0.3-3.4l-0.2-2.3l28.2-2.5l0.2,2l-0.2,3.8
		L264.6,245.3z M266.3,264.8l-0.2-2.6l25.5-2.2l-0.3,5.8l-24.8,2.2L266.3,264.8z M290.6,282.7l-0.3,5.7l-21.8,1.9l-0.3-3l-0.2-2.7
		L290.6,282.7z M294.9,162.9c-0.2-2.1,0.3-4.3,1.2-6.2l-0.4,9.5C295.3,165.1,295,164.1,294.9,162.9L294.9,162.9z M287.8,121.1
		l-0.5-5.8l4.8-0.4C290.2,116.7,288.8,118.9,287.8,121.1L287.8,121.1z M286.6,107.2L284.1,79l4.6-0.4l2.5,28.2L286.6,107.2z
		 M284.5,147.1l0.5,5.7l-28.2,2.5l-0.5-5.7L284.5,147.1z M255.8,144l-0.1-1.3l-0.4-4.3l28.2-2.5l0.5,5.7L255.8,144z M254.8,132.7
		l-0.5-5.7l28.2-2.5l0.5,5.7L254.8,132.7z M253.8,121.4l-0.5-5.7l28.2-2.5l0.5,5.7L253.8,121.4z M247.8,251.9l-4.7,0.8l-1-5.7
		C243.6,248.9,245.5,250.6,247.8,251.9L247.8,251.9z M239.2,230.6l-1-5.8l4.7-0.8C241.2,226,240,228.2,239.2,230.6L239.2,230.6z
		 M237.2,219.3l-1-5.7c1.5,1.9,3.3,3.6,5.6,4.9c0,0,0,0,0,0L237.2,219.3z M236.9,190.6c-1.7,2-2.8,4.2-3.6,6.5l-1-5.7L236.9,190.6
		C236.9,190.6,236.9,190.6,236.9,190.6L236.9,190.6z M231.3,185.9l-1-5.7c1.5,1.9,3.4,3.6,5.7,4.9L231.3,185.9z M231,157.2
		c-1.7,2-2.8,4.2-3.6,6.5l-1-5.7L231,157.2C231,157.2,231,157.2,231,157.2L231,157.2z M228.3,201l1,5.6l-27.9,4.9l-1-5.6L228.3,201z
		 M230.3,212.1l1,5.6l-27.9,4.9l-0.7-3.7l-0.3-1.9L230.3,212.1z M232.2,223.3l1,5.6l-27.9,4.9l-1-5.6L232.2,223.3z M234.2,234.4
		l1,5.6l-27.9,4.9l-1-5.6L234.2,234.4z M238.1,256.7l1,5.6l-27.9,4.9l-1-5.6L238.1,256.7z M240.1,267.8l1,5.6l-27.9,4.9l-0.5-3
		l-0.5-2.6L240.1,267.8z M214.2,283.9l27.9-4.9l1,5.6l-27.9,4.9l-0.5-2.6L214.2,283.9z M244,290.1l1,5.6l-27.9,4.9l-0.5-3l-0.5-2.6
		L244,290.1z M246,301.2l1,5.6l-27.9,4.9l-0.5-2.7l-0.5-3L246,301.2z M247.9,312.4l1,5.6l-27.9,4.9l-1-5.6L247.9,312.4z
		 M249.9,323.5l1,5.6L223,334l-0.8-4.6l-0.2-1L249.9,323.5z M251.9,334.6l1,5.6l-27.9,4.9l-0.7-4.1l-0.3-1.5L251.9,334.6z
		 M253.8,345.8l1,5.6l-27.9,4.9l-1-5.6L253.8,345.8z M255.8,356.9l1,5.6l-27.9,4.9l-1-5.6L255.8,356.9z M230.9,378.6l-0.7-4
		l-0.3-1.7l27.9-4.9l1,5.6L230.9,378.6z M234,396.6l-0.3-1.4l27.9-4.9l1,5.6l-27.9,4.9L234,396.6z M263.6,401.4l1,5.6l-27.9,4.9
		l-1-5.6L263.6,401.4z M262.8,364.2l-1-5.8l3-0.5l0.2,1.9C264.1,361.2,263.3,362.6,262.8,364.2L262.8,364.2z M266.7,379.4l0.6,6.8
		l-0.6,0.1l-1-5.7c0.4,0.5,0.8,0.9,1.2,1.3L266.7,379.4z M267.8,391.8l5.2,59.4l-5.1-58l-0.2-1.4L267.8,391.8z M288.4,334l-15.9,1.4
		l-0.4-4.2l-0.1-1.5l16.6-1.4L288.4,334z M269.6,301.6l-0.2-2.7l-0.3-3l21.1-1.8l-0.3,5.8L269.6,301.6z M306.4,100.2l-2-22.9
		l4.6-0.4l1.8,20.3C309.2,98,307.7,99,306.4,100.2L306.4,100.2z M252.4,215.9c-2.8-0.2-5.4-0.9-7.7-2.3c-3.6-2.1-5.9-5.2-6.5-8.9
		c-0.6-3.6,0.5-7.4,3.1-10.6c2.2-2.6,5.3-4.6,8.8-5.7L252.4,215.9z M232.2,171.4c-0.6-3.6,0.5-7.4,3.1-10.6
		c2.8-3.3,6.8-5.6,11.5-6.4l0.2,0l-0.4-4.7l2.9,32.8C241,183.1,233.5,178.4,232.2,171.4L232.2,171.4z M245.8,148.9
		c-9.4,1.6-18.2-3.3-19.5-10.9c-1.3-7.7,5.2-15.3,14.6-17l3.1-0.5l-0.3-3.2l2.8,31.5L245.8,148.9z M230.1,151.7l-4.7,0.8l-1-5.7
		C226,148.7,227.9,150.4,230.1,151.7L230.1,151.7z M221.5,130.4l-1-5.8l4.7-0.8C223.6,125.8,222.3,128,221.5,130.4L221.5,130.4z
		 M221.4,162.1l-27.9,4.9l-1-5.6l27.9-4.9L221.4,162.1z M191.6,155.9l-0.2-1.3l-0.8-4.3l27.9-4.9l1,5.6L191.6,155.9z M189.6,144.7
		l-1-5.6l27.9-4.9l1,5.6L189.6,144.7z M187.7,133.6l-1-5.6l27.9-4.9l1,5.6L187.7,133.6z M182.8,248.4c-1.5,2.1-2.5,4.5-3.1,6.9
		l-1.5-5.6L182.8,248.4z M176.7,244.3l-1.5-5.6c1.7,1.7,3.6,3.3,6,4.4c0,0,0,0,0.1,0L176.7,244.3z M176.4,229.7
		c-1-3.6-0.2-7.4,2.2-10.8c2.5-3.5,6.3-6.2,10.9-7.4l2.1-0.6l-0.5-2.7l5.4,30.8l0-0.1c-4.5,1.1-9,0.8-12.8-1
		C179.9,236.2,177.3,233.3,176.4,229.7L176.4,229.7z M191.5,281.2C191.5,281.2,191.5,281.2,191.5,281.2c-1.5,2.2-2.5,4.5-3.1,6.8
		l-1.5-5.6L191.5,281.2z M185.5,277l-1.5-5.6c1.7,1.8,3.8,3.3,6.1,4.4L185.5,277z M209.2,346.7c-1.5,2.1-2.5,4.5-3.1,6.9l-1.5-5.7
		L209.2,346.7z M203.1,342.6l-1.5-5.6c1.7,1.8,3.7,3.3,6,4.4c0,0,0,0,0.1,0L203.1,342.6z M202.7,328c-1.5-5.6,1.4-11.6,6.8-15.3
		l4.4,24.7c-1.3-0.3-2.6-0.6-3.8-1.2C206.2,334.5,203.6,331.6,202.7,328L202.7,328z M217.9,379.5c-1.5,2.1-2.5,4.5-3.1,6.9l-1.5-5.7
		L217.9,379.5z M211.9,375.3l-1.5-5.6c1.7,1.8,3.8,3.3,6.1,4.4L211.9,375.3z M211.5,360.8c-1.2-4.6,0.5-9.4,4.1-13.1l-0.7-4
		l4.5,25.6C215.5,367.6,212.5,364.7,211.5,360.8L211.5,360.8z M226.8,412.2c-0.4,0.5-0.8,1-1.2,1.6c-1,1.7-1.6,3.5-2,5.3l-1.5-5.7
		L226.8,412.2z M220.6,408.1l-1.5-5.6c1.7,1.8,3.8,3.3,6.1,4.4L220.6,408.1z M224.9,400.1c-2.2-1.7-3.9-3.9-4.6-6.6
		c-0.9-3.4-0.2-6.9,1.7-9.9l-2.3-13.3l10.2,57.9c-0.3-0.6-0.6-1.2-0.8-1.9c-0.4-1.3-0.4-2.8-0.3-4.2L224.9,400.1z M231.6,438.2
		l0.4,2l-2.5,0.7l-1.5-5.6C229,436.4,230.2,437.3,231.6,438.2L231.6,438.2z M232.9,445.7l0.5,3c-0.4,1-0.8,2.1-1.1,3.2l-1.5-5.6
		L232.9,445.7z M237.7,417.5l27.9-4.9l1,5.6l-27.9,4.9L237.7,417.5z M267.6,423.7l1,5.6l-27.9,4.9l-1-5.6L267.6,423.7z M269.5,434.8
		l1,5.6l-27.9,4.9l-0.8-4.3l-0.2-1.3L269.5,434.8z M271.5,446l1,5.6l-27.9,4.9l-0.1-0.5l-0.9-5.1L271.5,446z M279.3,476.9
		c-0.2-0.3-0.5-0.7-0.7-1C278.8,476.2,279,476.5,279.3,476.9z M316.1,94.1l-1.6-17.8l4.6-0.4l0.9,10.7
		C318.4,88.9,317,91.4,316.1,94.1L316.1,94.1z M325.2,81.1l-0.5-5.7l4.6-0.4l0.3,3.2c-2.8,1.5-5.3,3.5-7.4,5.8
		C323.1,83,324.1,82,325.2,81.1L325.2,81.1z M334.9,76l-0.1-1.4l4.6-0.4l0.1,0.9C337.9,75.3,336.4,75.5,334.9,76L334.9,76z
		 M345,74.7l-0.1-1l4.6-0.4l0.1,1.7l-2.6-0.2C346.4,74.6,345.7,74.7,345,74.7L345,74.7z M355.3,75.4l-0.2-2.6l4.6-0.4l0.3,3.4
		L355.3,75.4z M365.6,76.3l-0.4-4.4l4.6-0.4l0.5,5.2l5.7,0.5l-0.5-6.2l4.6-0.4l0.6,7l-16.9-1.5L365.6,76.3z M386.2,78.1l-0.7-8
		l4.6-0.4l0.8,8.8L386.2,78.1z M395.6,69.2l4.6-0.4l0.9,10.6l1.7,0.2l-8.9-0.8l2.5,0.2L395.6,69.2z M406.8,79.9l-1-11.6l4.6-0.4
		l1.1,12.4L406.8,79.9z M417.1,80.8l-1.2-13.4l4.6-0.4l1.2,14.2L417.1,80.8z M427.4,81.7L426,66.6l4.6-0.4l1.4,16l1.5,0.1
		L427.4,81.7z M437.7,82.6l-1.5-16.9l4.6-0.4l1.6,17.7L437.7,82.6z M418.5,52.7c2.3-0.4,4.5-0.5,6.8-0.3c6.1,0.5,11.5,3.3,15.4,7.3
		l-27.5,2.4l2.9-0.3l-1.5-8.5L418.5,52.7z M399.1,56.1l1.3,7.1l5.6-0.5l-1.3-7.6l4.5-0.8l1.4,8l-14.7,1.3l-1.2-6.7L399.1,56.1z
		 M369,61.4l0.8,4.5l5.6-0.5l-0.9-5l4.5-0.8L380,65l5.6-0.5l-1-5.8l4.5-0.8l1.1,6.2l-24.9,2.2l-0.7-4.1L369,61.4z M268.9,75.2
		c1.7-0.4,3.4-0.8,5.2-0.9C272.3,74.4,270.6,74.8,268.9,75.2z M257.2,81.1c-0.9,0.8-1.8,1.6-2.6,2.4l-0.3-1.9L257.2,81.1z M251.7,87
		c0.6-1,1.3-1.9,2.1-2.8C253,85.1,252.3,86.1,251.7,87z M248.8,82.6l1.3,7.3c-0.1,0.2-0.3,0.4-0.4,0.7c-2.1,2.3-3.8,5-5,7.9
		c0.5-1.1,1-2.3,1.6-3.3l-2.1-11.7L248.8,82.6z M243.5,102.8c0.1-0.8,0.3-1.5,0.6-2.3C243.8,101.2,243.6,102,243.5,102.8z
		 M238.7,84.4l4.3,24.5c-0.1-1.4,0-2.7,0.1-4c-0.2,1.5-0.2,3-0.1,4.5l0.3,3l-4.2,0.7l-4.9-27.9L238.7,84.4z M228.7,86.1l4.9,27.9
		l-4.5,0.8l-4.9-27.9L228.7,86.1z M218.7,87.9l4.9,27.9l-4.5,0.8l-4.9-27.9L218.7,87.9z M188.9,100c1.1-1.5,2.4-2.8,3.8-3.9
		c0.1-0.1,0.2-0.1,0.3-0.2c1.4-1.1,2.9-2.1,4.5-2.9h0c2.3-1.2,4.7-2.1,7.3-2.5l3.9-0.7l4.9,27.9l-27.9,4.9l-1-5.6
		C183.7,111,185.2,104.9,188.9,100L188.9,100z M178.7,106.6c0.6-1.2,1.3-2.4,2.2-3.5C180,104.3,179.3,105.4,178.7,106.6z
		 M176.3,107.1l0.8,3c-1.4,3.9-2,8-1.2,12.3l0.4,2.1l-4.4-16.3L176.3,107.1z M166.5,109.7l7.3,27.4l-4.4,1.2l-7.3-27.4L166.5,109.7z
		 M156.7,112.4l7.3,27.4l-4.4,1.2l-7.3-27.4L156.7,112.4z M146.8,115l7.3,27.4l-4.4,1.2l-7.3-27.4L146.8,115z M156.5,150.2
		c-1.5,2.1-2.5,4.5-3.1,6.9l-1.5-5.7L156.5,150.2z M115.5,146.8c-1.6-5.8-0.6-11.9,2.7-17.2c1-1.6,2.1-3,3.4-4.3
		c0.1-0.1,0.2-0.2,0.3-0.2c1.3-1.2,2.7-2.3,4.2-3.3h0c2.2-1.4,4.5-2.5,7-3.2l3.9-1l7.3,27.4l-27.4,7.3L115.5,146.8z M118.4,157.7
		l27.4-7.3l1.5,5.5l-27.4,7.3L118.4,157.7z M121.4,168.6l27.4-7.3l1.5,5.5l-27.4,7.3L121.4,168.6z M125.4,183.8l-1.1-4.2l27.4-7.3
		l1.5,5.5l-27.4,7.3L125.4,183.8z M127.2,190.5l27.4-7.3l1.5,5.5l-27.4,7.3L127.2,190.5z M130.1,201.4l27.4-7.3l1.5,5.5l-27.4,7.3
		L130.1,201.4z M133.1,212.3l27.4-7.3l1.5,5.5l-27.4,7.3L133.1,212.3z M136,223.2l27.4-7.3l1.5,5.5l-27.4,7.3L136,223.2z
		 M138.9,234.2l27.4-7.3l1.5,5.5l-27.4,7.3L138.9,234.2z M142.3,246.9l-0.5-1.8l27.4-7.3l1.5,5.5l-27.4,7.3L142.3,246.9z M144.8,256
		l27.4-7.3l1.5,5.5l-27.4,7.3L144.8,256z M147.7,266.9l27.4-7.3l1.5,5.5l-27.4,7.3L147.7,266.9z M151.2,280l-0.6-2.2l27.4-7.3
		l1.5,5.5l-27.4,7.3L151.2,280z M153.6,288.8l27.4-7.3l1.5,5.5l-27.4,7.3L153.6,288.8z M157.1,302.2l-0.7-2.5l27.4-7.3l1.5,5.5
		l-27.4,7.3L157.1,302.2z M160.2,313.6l-0.8-3l27.4-7.3l1.5,5.5l-27.4,7.3L160.2,313.6z M163,324.1l-0.7-2.6l27.4-7.3l1.5,5.5
		l-27.4,7.3L163,324.1z M166,335.4l-0.8-2.9l27.4-7.3l1.5,5.5l-27.4,7.3L166,335.4z M168.2,343.4l27.4-7.3l1.5,5.5l-27.4,7.3
		L168.2,343.4z M171.4,355.3l-0.3-1l27.4-7.3l1.5,5.5l-27.4,7.3L171.4,355.3z M174.4,366.7l-0.4-1.5l27.4-7.3l1.5,5.5l-27.4,7.3
		L174.4,366.7z M177,376.1l27.4-7.3l1.5,5.5l-27.4,7.3L177,376.1z M179.9,387l27.4-7.3l1.5,5.5l-27.4,7.3L179.9,387z M183.2,399.6
		l-0.4-1.6l27.4-7.3l1.5,5.5l-27.4,7.3L183.2,399.6z M185.7,408.9l27.4-7.3l1.5,5.5l-27.4,7.3L185.7,408.9z M189,421.2l-0.4-1.4
		l27.4-7.3l1.5,5.5l-27.4,7.3L189,421.2z M191.6,430.7l27.4-7.3l1.5,5.5l-27.4,7.3L191.6,430.7z M194.5,441.7l27.4-7.3l1.5,5.5
		l-27.4,7.3L194.5,441.7z M198.9,458.1l-1.5-5.5l27.4-7.3l1.5,5.5L198.9,458.1z M200.7,464.8l-0.3-1.3l27.4-7.3l1.5,5.5l-27.4,7.3
		L200.7,464.8z M204.6,479.4l-1.3-5l27.4-7.3l1.5,5.5l-27.4,7.3L204.6,479.4z M237.1,506.4c-2.2,0.6-4.5,0.9-6.8,0.9
		c-10.7,0-20-6.8-22.6-16.5l-1.5-5.5l27.4-7.3l7.3,27.4L237.1,506.4z M249.4,503.1l-3,0.8l-6.7-24.9c0,0,0,0,0,0
		c1.6,3.6,4.1,6.6,7.2,9l3.9,14.7L249.4,503.1z M249.9,490.2c0.3,0.2,0.5,0.3,0.8,0.4C250.5,490.4,250.2,490.3,249.9,490.2z
		 M257,501l-0.9,0.2l-2.5-9.3c2.6,1,5.5,1.6,8.4,1.8c-1.1-0.1-2.2-0.2-3.3-0.4l1.8,6.6L257,501z M268.9,497.8l-3,0.8l-1.3-4.8
		c1.4,0,2.8-0.1,4.2-0.3l0.4-0.1l1.1,4L268.9,497.8z M277,495.7l-1.2,0.3l-1-3.6l-1.9,0.3l8.4-1.5l-2,0.3l0.8,3.2L277,495.7z
		 M290,492.2L290,492.2l-4.4,1.2l-0.7-2.7l3.4-0.6c0.6,0.7,1.1,1.3,1.7,2L290,492.2z M554.1,478.7c-0.1,0.9-0.3,1.8-0.5,2.6
		c-0.3,1.4-0.7,2.7-1.3,4c0,0,0,0,0,0c-0.5,1.2-1.2,2.4-1.9,3.5c-0.1,0.1-0.1,0.1-0.2,0.2c-0.7,1-1.5,2-2.4,2.9
		c-0.2,0.2-0.3,0.3-0.5,0.5c-0.8,0.8-1.7,1.5-2.6,2.2c-0.3,0.2-0.7,0.4-1,0.7c-0.8,0.5-1.7,1.1-2.6,1.5c-0.6,0.3-1.2,0.5-1.7,0.7
		c-0.8,0.3-1.5,0.6-2.3,0.8c-0.9,0.2-1.8,0.4-2.6,0.5c-0.6,0.1-1.2,0.3-1.8,0.3c-1.6,0.1-3.2,0.2-4.8,0l-216.2-18.9
		c-6.5-0.6-12.4-3.5-16.6-8.2c-4.2-4.7-6.2-10.5-5.6-16.5l31-354.8c0.1-1.3,0.4-2.6,0.7-3.8c0.3-1.2,0.8-2.4,1.3-3.5
		c3.7-7.9,12.1-13.2,21.9-13.2c0.8,0,1.5,0,2.3,0.1l216.2,18.9c13.4,1.2,23.4,12.2,22.3,24.7L554.1,478.7z M510,367.4
		c-0.1-0.1-0.2-0.1-0.3-0.2c-8.2-4.3-16.8-8.2-25.8-11.4l-26.5-9.6c0.4-2.4,0.7-4.8,1.1-7.3l30.9,2.7c4.4,0.4,8.5-2,10.2-6.1
		c1.1-2.5,1.2-5.4,0.1-7.9l-19.7-48.9c-2.3-5.7-7.1-10-13-11.7l-4.4-1.3c-3.6-1.4-7.3-2.5-10.9-3.4l0.6-6.6
		c8.3-5.5,14.7-16.4,15.8-28.7l0-0.4l0-0.1c0.7-9.3-1.9-19.1-7.9-25.9c3.1-10.2-4.1-20.3-14.3-21.2c-9-0.8-17.1,5.9-17.9,15
		c-0.1,1.2-0.1,2.3,0.1,3.4l0,0c-2.7,2.1-5,4.7-6.9,7.8c-0.3,0.4-0.5,0.9-0.8,1.3l0,0c-0.8,1.4-1.6,3-2.2,4.6
		c-0.3,0.8-0.6,1.6-0.9,2.5c-0.3,1-0.6,2-0.8,3.1c-0.4,1.7-0.7,3.5-0.8,5.3c-1.1,12.3,3.3,24.1,10.5,31l-0.5,6
		c-6.5,0.1-13.1,1-19.5,2.6c-0.1,0-0.3,0.1-0.4,0.1c-5.3,1.1-9.9,4.3-12.8,8.9l-28,44.7c-3.9,6.1-0.2,14.9,7.8,15.6l31.9,2.8
		c-0.1,2.4-0.2,4.9-0.3,7.3c-31.4,5.7-63.6,8-65.4,21c-1.3,9.7,17.9,24.5,31.8,22.2c-0.6-0.1,4.2-0.1,7.2-0.1
		c-5.8,3.7-3.7,13,3.4,13.6c0.6,0.1,1.3,0,1.9-0.1c16.6-2.4,23.3-5.2,35.5-3.8c65.7,7.3,76.1,11.4,91,1.4
		C520.2,388.4,523.9,376.4,510,367.4L510,367.4z M465.6,271.6c4.6,1.3,8.2,4.6,10,9l19.7,48.9c0.6,1.4,0.5,2.9-0.1,4.3
		c-1,2.2-3.2,3.5-5.6,3.3l-49.9-4.4c-3.4-0.3-6-3.3-5.7-6.8l2.2-25.1c0.9,1.2,1.4,2.6,1.5,4l0.6,14.6c0.2,3.7,3.3,6.6,7,6.4
		l10.1-0.5l4.7-0.2l4.6-0.2c1.5-0.1,3-0.6,4.1-1.6c1.9,1.3,5.4,3.3,10.6,4.3c0.1,0,0.1,0,0.2,0c0.9,0.1,1.7-0.5,1.9-1.4
		c0.2-0.9-0.4-1.9-1.4-2.1c-4.7-1-7.8-2.7-9.3-3.8c0.5-1.4,0.5-3,0-4.4l-1.4-4c-2.8-7.9-4.8-16.1-5.9-24.5
		c0.3-5.4,0.5-10.8,0.7-16.2L465.6,271.6z M462.3,304.7c0.8,2.9,1.7,5.9,2.7,8.7l1.4,4c0.2,0.6,0.1,1.3-0.2,1.8
		c-0.4,0.6-0.9,0.9-1.6,0.9l-3.9,0.2C461.3,315.1,461.8,309.9,462.3,304.7L462.3,304.7z M462.6,216.4c0.1,0.3,0.1,0.7,0.2,1
		c-5.7-7.7-12.6-12.1-20.1-12.8l-0.7-0.1c-6.8-0.4-13.5,2.5-19.4,8.1C431.9,190.4,458.1,192.6,462.6,216.4L462.6,216.4z
		 M432.5,194.8c0.6-6.5,6.3-11.3,12.8-10.7c3.2,0.3,6.1,1.9,8,4.2c1.9,2.3,3,5.4,2.7,8.6C448.9,191.5,440.4,191,432.5,194.8
		L432.5,194.8z M420.1,223c6.2-9.4,13.9-14.2,21.7-13.8c8.2,0.4,15.8,6.8,21.5,17.7c-1.4,14.1-12,29.8-25.4,27.8
		C429.1,253.5,418.6,240.5,420.1,223L420.1,223z M430.3,256.8c0,0,0.1,0.1,0.1,0.1c1.9,1.2,5,2.4,8.2,2.7c1.9,0.2,3.7,0.1,6.5-0.6
		l0,0c0.6-0.2,1.2-0.3,1.8-0.5c0,0,0,0,0.1,0c0.1,0,0.2-0.1,0.3-0.1l-1.2,13.7c-0.4,4.7-4.6,8.1-9.2,7.7c-4.8-0.4-8.1-4.7-7.7-9.2
		C429.1,270.3,430.3,256.5,430.3,256.8L430.3,256.8z M436.4,284.4c7.2,0.6,13.6-4.7,14.3-11.9l0.5-5.4c2,0.5,3.9,1.1,5.9,1.7
		l1.2,14.1c0.1,1.5,0.3,3,0.5,4.5c-0.6,11.1-1.5,22.2-2.7,33c-9.5,0.3-12.8,1.5-13-1.4l-0.6-14.5c-0.3-5.9-6-11.5-8.7-10.7
		c0,0,0,0-0.1,0c0,0-0.1,0-0.1,0c-4.3,1.4-7.7,5-8.6,9.1l-3.2,14.2c-0.6,2.8-3.8,1.1-12.3-0.7c0.2-8.8,0.2-17.5,0-26.3
		c1.4-3.7,2.6-7.4,3.6-11.2l3.9-14.3c2.7-0.3,5.3-0.6,8-0.6l-0.5,6.1C423.8,277.6,429.2,283.8,436.4,284.4L436.4,284.4z
		 M404.8,315.4c-3.7-1-5.2-0.6-5.9-2.2c-0.9-1.8,1.2-2.5,6-12.6C405,305.6,404.9,310.5,404.8,315.4L404.8,315.4z M372.8,326.7
		L372.8,326.7c-4.1-0.4-6.5-4.9-4.2-8.4l28-44.7c1.8-2.9,4.5-5.1,7.6-6.2c1.2-0.5,2.5-0.8,3.8-0.9l0.8-0.1l3-0.3l-2.6,9.6l-0.6,2.1
		c-1.1,3.9-2.3,7.7-3.8,11.5c-6,15.7-11.4,20-10.6,24.3c-1.8,0.8-5,1.9-9.6,2c-1,0-1.7,0.8-1.7,1.8c0,0.9,0.7,1.6,1.6,1.7
		c0.1,0,0.1,0,0.2,0c5.2-0.1,8.9-1.4,11-2.3c0.9,1.1,2.2,1.9,3.7,2.3c0.6,0.1,20.2,4.6,19,4.3c3.8,0.9,7.3-1.6,8-5.1l3.2-14.2
		c0.3-1.4,1.1-2.6,2.1-3.7l-2.2,25.1c-0.2,2-1.4,3.8-3.1,4.8c-1.1,0.6-2.4,0.9-3.7,0.8C404.1,329.4,383,327.6,372.8,326.7
		L372.8,326.7z M422.2,335.7c2.3,0.2,4.5-0.3,6.4-1.4c1-0.5,1.8-1.2,2.5-2c1.6,2.6,4.6,4.7,8.2,5l14.4,1.3c-0.3,2.3-0.7,4.5-1,6.7
		l-44.1-3.9c0.1-2.3,0.2-4.5,0.3-6.8L422.2,335.7z M372.8,379.7l-1.4-10c-0.3-20.9,33.6-2.6,61.2,3.3c3.4,1,7.1,0,9.7-2.5l1-1.1
		c1.4-1.3,3.6-2.5,7.9-0.3c1.2,0.6,2.4,1,3.6,1.1c17,2.5,24.1,1.4,22.3,4c-0.6,1-1.6,0.7-2.9,0.9
		C391.9,384.2,387.8,377.6,372.8,379.7L372.8,379.7z M382.1,393.5c-3.3,0.6-4.6-4.4-1.2-5.3c4.7-1.4,11.2-3.2,12.7-3.6
		c25.9,0.7,55.6-2,80.1-4.7c2.7,4.1,4,8.9-1,15.8l-53.9-6C405.8,388.2,398.3,391.2,382.1,393.5L382.1,393.5z M506.8,391.8
		c-6.5,4.4-14.2,6-23,5c-0.4,0-6.2-0.7-5.8-0.6c3.3-5.4,3.7-10.6,1.3-15.9c1.9,0.9,4.4,1.8,7.4,2.1c1.2,0.1,2.5,0.1,3.8-0.1
		c1-0.1,1.6-1,1.5-2c-0.1-1-1-1.6-2-1.5c-3.6,0.5-6.9-0.6-9.1-1.7c1.2-1.6,1.5-3.4,1-5.1c-1.9-6.3-8.9-3.4-26.5-6.5
		c-0.6-0.1-1.3-0.3-2-0.6c-6.5-3.3-10.7-1.3-13.3,1.1l-1.1,1.2c-1.3,1.3-3.2,1.8-5.1,1.3c-33.5-8.7-50.3-17.6-61.3-10.9l0,0
		c0,0,0,0,0,0c-14-3-16,4-12.3,4.3c1.8,0.2,1.1-2.4,9.1-1.3c-4.8,6.6-1.2,15.3-1.1,19.7c-10.2,0.5-25.8-10.9-24.9-17.2
		c1.3-8.9,34.7-12.3,63.1-17.4l47.9,4.3l28,10.1c8.8,3.2,17.3,6.9,25.2,11.1C518.1,378.1,515.1,386.2,506.8,391.8L506.8,391.8z"/>
</g>
</svg>
