<?xml version="1.0" encoding="utf-8"?>
<!-- Generator: Adobe Illustrator 26.5.0, SVG Export Plug-In . SVG Version: 6.00 Build 0)  -->
<svg version="1.1" id="Layer_1" xmlns="http://www.w3.org/2000/svg" xmlns:xlink="http://www.w3.org/1999/xlink" x="0px" y="0px"
	 viewBox="0 0 700 700" style="enable-background:new 0 0 700 700;" xml:space="preserve">
<style type="text/css">
	.st0{fill:#355775;}
</style>
<g>
	<path class="st0" d="M453.4,439.6c-0.1-0.1-0.3-0.2-0.4-0.2c-11-4.6-22.5-8.5-34.4-11.7l-35.1-9.3c0.2-3.1,0.4-6.3,0.5-9.4H424
		c5.6,0,10.6-3.6,12.4-8.9c1.1-3.3,0.9-7-0.7-10.1l-30.8-60.4c-3.6-7.1-10.2-12-18-13.5l-5.8-1.1c-4.8-1.3-9.6-2.4-14.3-3.1v-8.6
		c10-8,16.9-22.6,16.9-38.5l0-0.5v-0.1c-0.1-12-4.6-24.2-13.1-32.3c2.7-13.5-7.5-25.6-20.8-25.6c-11.7,0-21.2,9.5-21.2,21.2
		c0,1.5,0.2,2.9,0.5,4.3v0c-3.2,3-5.9,6.7-8,10.8c-0.3,0.6-0.6,1.2-0.9,1.8v0c-0.9,1.9-1.7,4-2.3,6.1c-0.3,1.1-0.6,2.2-0.8,3.3
		c-0.3,1.3-0.5,2.7-0.7,4c-0.3,2.2-0.5,4.5-0.5,6.9c0,15.9,7,30.5,17,38.5v7.7c-8.4,0.9-16.6,2.8-24.7,5.5c-0.2,0.1-0.4,0.2-0.5,0.2
		c-6.7,2-12.2,6.6-15.4,12.9L261.3,390c-4.3,8.3,1.4,19.1,11.8,19.1h41.2c0.2,3.1,0.3,6.3,0.4,9.4c-39.6,10.9-80.5,17.5-81.4,34.4
		c-0.6,12.5,25.7,29.3,43.3,24.8c-0.8,0,5.3-0.6,9.2-1c-7,5.4-3.3,17,5.8,17c0.8,0,1.6-0.1,2.4-0.3c21-5,29.3-9.3,45-9
		c85,1.9,98.8,5.9,116.7-8.6C468.9,465.4,472.3,449.6,453.4,439.6L453.4,439.6z M385.7,321.9c6,1.2,11,4.9,13.8,10.4l30.8,60.4
		c0.9,1.7,1,3.7,0.4,5.5c-1,2.9-3.7,4.9-6.8,4.9h-64.4c-4.4,0-8.1-3.5-8.1-8.1v-32.4c1.3,1.4,2.1,3.1,2.3,4.9l2.4,18.6
		c0.6,4.7,5,8.1,9.7,7.4l12.9-1.7l6-0.8l5.8-0.8c2-0.3,3.7-1.2,5.1-2.6c2.6,1.5,7.3,3.6,14.1,4.3c0.1,0,0.2,0,0.2,0
		c1.1,0,2.1-0.9,2.2-2c0.1-1.2-0.7-2.3-2-2.5c-6.1-0.7-10.2-2.6-12.4-3.8c0.4-1.9,0.3-3.8-0.5-5.6l-2.3-5c-4.5-9.8-8-20.1-10.3-30.7
		c-0.2-7-0.6-13.9-1-20.8L385.7,321.9z M385.2,364.7c1.3,3.7,2.8,7.3,4.5,10.9l2.3,4.9c0.4,0.8,0.3,1.6-0.1,2.4
		c-0.4,0.7-1.1,1.2-1.9,1.3l-4.9,0.7C385.2,378.2,385.2,371.5,385.2,364.7L385.2,364.7z M375.6,251.6c0.1,0.4,0.2,0.8,0.4,1.3
		c-8.1-9.2-17.5-14.1-27.2-14.1h-1c-8.8,0.3-17,4.7-23.9,12.6C333.2,221.8,367.1,221.7,375.6,251.6L375.6,251.6z M334.5,227.4
		c0-8.4,6.8-15.2,15.2-15.2c4.2,0,8,1.7,10.8,4.5c2.8,2.8,4.5,6.6,4.5,10.8C355.1,221.3,344.2,221.7,334.5,227.4L334.5,227.4z
		 M321.8,265c6.9-12.7,16.1-19.8,26.2-20.2c10.5-0.4,21.1,6.9,29.6,20.3c-0.1,18.2-12,39.6-29.4,38.6C336.8,303,322,287.5,321.8,265
		L321.8,265z M338.8,307.1c0.1,0,0.1,0.1,0.2,0.1c2.6,1.3,6.7,2.5,10.8,2.5c2.4,0,4.8-0.3,8.2-1.5h0c0.7-0.3,1.5-0.6,2.2-0.9
		c0,0,0.1,0,0.1-0.1c0.1,0,0.2-0.1,0.4-0.2v17.7c0,6.1-4.9,10.9-10.9,10.9c-6.3,0-10.9-5.1-10.9-10.9
		C338.8,324.5,338.8,306.7,338.8,307.1L338.8,307.1z M349.7,341.8c9.3,0,16.9-7.6,16.9-16.9v-7c2.6,0.4,5.2,0.9,7.8,1.6l3.2,17.9
		c0.4,1.9,0.7,3.8,1.1,5.7c0.5,14.3,0.6,28.6,0.2,42.6c-12.1,1.4-16.2,3.4-16.9-0.4l-2.4-18.6c-1-7.5-9-14-12.3-12.7
		c0,0-0.1,0-0.1,0c0,0-0.1,0-0.1,0.1c-5.4,2.3-9.3,7.2-10,12.6l-2.4,18.6c-0.5,3.7-4.7,1.8-15.9,0.5c-0.8-11.2-1.8-22.5-3-33.7
		c1.4-4.9,2.5-9.8,3.4-14.7l3.4-18.7c3.4-0.7,6.7-1.3,10.1-1.7v7.9C332.8,334.4,340.5,341.8,349.7,341.8L349.7,341.8z M312.9,385
		c-4.8-0.9-6.8-0.2-7.8-2.1c-1.3-2.2,1.2-3.3,6.2-16.8C311.9,372.4,312.4,378.7,312.9,385L312.9,385z M273,403.1L273,403.1
		c-5.3,0-8.8-5.6-6.4-10.3l30.8-60.4c2-4,5.2-7,9.1-8.8c1.5-0.7,3.1-1.3,4.7-1.6l1.1-0.2l3.8-0.7l-2.3,12.6l-0.5,2.7
		c-0.9,5.1-2.1,10.2-3.6,15.2c-5.9,20.8-12.3,26.9-10.8,32.3c-2.2,1.2-6.2,3-12.1,3.7c-1.2,0.2-2.1,1.3-2,2.5c0.1,1.1,1.1,2,2.2,2
		c0.1,0,0.2,0,0.3,0c6.6-0.7,11.3-2.8,13.9-4.2c1.3,1.3,3,2.2,4.9,2.5c0.8,0.1,26.4,3.6,24.8,3.4c4.9,0.7,9.1-2.9,9.7-7.4l2.4-18.6
		c0.2-1.8,1-3.5,2.3-4.9v32.4c0,2.6-1.3,5.1-3.4,6.6c-1.4,1-3,1.5-4.6,1.5C313.4,403.1,286.2,403.1,273,403.1L273,403.1z
		 M337.4,409.1c2.9,0,5.7-0.9,8.1-2.5c1.2-0.8,2.2-1.8,3-2.9c2.4,3.1,6.4,5.5,11.1,5.5h18.6c-0.2,2.9-0.3,5.8-0.5,8.7h-56.9
		c-0.1-2.9-0.2-5.8-0.4-8.7L337.4,409.1z M279.1,471l-2.9-12.6c-2.8-26.7,42.8-7.2,78.8-2.8c4.5,0.8,9.1-0.8,12.1-4.3l1.2-1.5
		c1.6-1.8,4.3-3.6,10.1-1.3c1.6,0.7,3.2,1,4.8,1c22.1,1.3,31-0.9,29.1,2.6c-0.7,1.3-1.9,1-3.6,1.5
		C304.1,474.6,298.1,466.6,279.1,471L279.1,471z M292.6,487.7c-4.2,1.2-6.3-5.1-2.1-6.7c5.9-2.3,14-5.3,15.8-6.1
		c33.3-2,71-8.9,102.1-15.2c3.9,4.9,6.2,10.9,0.6,20.3l-69.7-1.5C322.4,478.2,313.1,482.8,292.6,487.7L292.6,487.7z M452.1,471.3
		c-7.8,6.3-17.5,9.3-28.9,9c-0.5,0-8-0.2-7.6-0.2c3.6-7.4,3.5-14.1-0.2-20.6c2.5,0.9,5.9,1.8,9.7,1.8c1.6,0,3.2-0.2,4.8-0.5
		c1.2-0.3,2-1.5,1.7-2.7c-0.3-1.2-1.5-2-2.7-1.7c-4.5,1-8.9,0-11.9-1.1c1.3-2.2,1.5-4.6,0.7-6.6c-3.2-7.8-11.7-3.4-34.6-5.3
		c-0.8,0-1.7-0.2-2.6-0.6c-8.7-3.4-13.9-0.4-16.9,2.9l-1.3,1.6c-1.5,1.8-4,2.7-6.4,2.2c-43.9-7.3-66.5-16.8-79.8-7h0c0,0,0,0,0,0
		c-18.2-2.3-20.1,7-15.3,7c2.3,0,1.1-3.2,11.5-2.8c-5.4,9,0.2,19.7,0.9,25.4c-13,1.9-34.3-11.1-33.9-19.1
		c0.6-11.5,43-19.7,78.8-29.4h61.8l37.1,9.8c11.6,3.1,22.9,6.9,33.5,11.4C465,452.5,462.2,463.1,452.1,471.3L452.1,471.3z"/>
</g>
</svg>
