<?xml version="1.0" encoding="utf-8"?>
<!-- Generator: Adobe Illustrator 26.5.0, SVG Export Plug-In . SVG Version: 6.00 Build 0)  -->
<svg version="1.1" id="Layer_1" xmlns="http://www.w3.org/2000/svg" xmlns:xlink="http://www.w3.org/1999/xlink" x="0px" y="0px"
	 viewBox="0 0 700 700" style="enable-background:new 0 0 700 700;" xml:space="preserve">
<style type="text/css">
	.st0{fill:#355775;}
</style>
<g>
	<path class="st0" d="M276.09,267.21C159.54,173.4,62.89,71.07,173.75,0c-14.21,68.22,79.59,164.88,150.66,224.57
		C463.7,110.86,492.12,39.8,571.72,125.08c-76.75,17.06-125.07,93.81-193.3,144.98c88.12,68.22,213.2,235.94,127.92,292.79
		c-2.84,2.84-5.68-42.64-11.37-39.8c-28.43-62.54-96.65-142.13-167.71-204.67C250.51,386.6,168.07,466.2,187.97,548.63
		c-48.32-25.58-42.64-62.54-42.64-102.34c0-54.01,62.54-113.71,127.92-173.4L276.09,267.21z"/>
</g>
</svg>
