<?xml version="1.0" encoding="utf-8"?>
<!-- Generator: Adobe Illustrator 26.5.0, SVG Export Plug-In . SVG Version: 6.00 Build 0)  -->
<svg version="1.1" id="Layer_1" xmlns="http://www.w3.org/2000/svg" xmlns:xlink="http://www.w3.org/1999/xlink" x="0px" y="0px"
	 viewBox="0 0 700 700" style="enable-background:new 0 0 700 700;" xml:space="preserve">
<style type="text/css">
	.st0{fill:#355775;}
</style>
<g>
	<path class="st0" d="M157.36,347.2c90.72,40.32,203.84,86.24,245.28,184.8c14.56-11.2,29.12-22.4,43.68-33.6
		c-32.48-33.6-45.92-77.84-56-122.08c-10.64-47.6-14.56-97.44-3.92-145.6c13.44-64.4,68.88-173.04,147.84-162.96
		c13.44,1.68,21.84-16.24,15.12-26.32C519.68-6.16,454.16,28,422.24,54.32c-42.56,34.72-71.68,83.44-87.36,136.08
		c-17.92,58.8-17.36,122.08-6.16,182c10.64,58.8,32.48,123.77,78.4,165.21c22.4,20.16,61.6-6.16,43.68-33.6
		c-66.64-103.04-168-148.96-280.56-188.16C152.32,309.68,139.44,338.81,157.36,347.2L157.36,347.2z"/>
</g>
</svg>
