<?xml version="1.0" encoding="utf-8"?>
<!-- Generator: Adobe Illustrator 26.5.0, SVG Export Plug-In . SVG Version: 6.00 Build 0)  -->
<svg version="1.1" id="Layer_1" xmlns="http://www.w3.org/2000/svg" xmlns:xlink="http://www.w3.org/1999/xlink" x="0px" y="0px"
	 viewBox="0 0 1125 2436" style="enable-background:new 0 0 1125 2436;" xml:space="preserve">
<style type="text/css">
	.st0{opacity:0.25;fill:#0071BC;}
	.st1{fill:#FFFFFF;}
	.st2{fill:none;}
	.st3{fill:#355775;}
	.st4{font-family:'FarmWaveFree-Regular';}
	.st5{font-size:85px;}
	.st6{letter-spacing:8;}
	.st7{fill:#B2BCC4;}
	.st8{fill:url(#SVGID_1_);}
	.st9{fill:url(#SVGID_00000059269885512507206160000013411161257324151440_);}
	.st10{fill:#F7B882;}
	.st11{fill:#905423;}
	.st12{fill:#46260F;}
	.st13{fill:#D09A6F;}
	.st14{fill:#F5B080;}
	.st15{fill:url(#SVGID_00000002357443782645652210000014732958378919312823_);}
	.st16{fill:#D1E5FF;}
	.st17{fill:#F5B780;}
	.st18{opacity:0.4;}
	.st19{fill:url(#SVGID_00000022561182918812214710000014635756354985843384_);}
	.st20{fill:url(#SVGID_00000068674781176143047540000010994666854438113715_);}
	.st21{fill:#838385;}
</style>
<rect x="-2.55" y="-12.99" class="st0" width="1125" height="2440"/>
<path class="st1" d="M850.95,1750.85H274.05c-83.31,0-150.84-67.53-150.84-150.84V553.58c0-83.31,67.53-150.84,150.84-150.84h576.89
	c83.31,0,150.84,67.53,150.84,150.84v1046.43C1001.79,1683.31,934.25,1750.85,850.95,1750.85z"/>
<rect x="123.21" y="1379.07" class="st2" width="878.57" height="314.29"/>
<text transform="matrix(1 0 0 1 248.3813 1440.4141)" class="st3 st4 st5 st6">Double leg lifts</text>
<rect x="616.07" y="2012.64" class="st2" width="3.57" height="0"/>
<g>
	<g>
		<g>
			<g>
				<ellipse class="st7" cx="560.33" cy="1283.7" rx="371.38" ry="24.8"/>
				<g>
					
						<linearGradient id="SVGID_1_" gradientUnits="userSpaceOnUse" x1="503.4238" y1="1223.126" x2="750.1508" y2="1223.126" gradientTransform="matrix(0.9791 0.0129 -0.0126 0.9873 28.1219 4.2452)">
						<stop  offset="0" style="stop-color:#355775"/>
						<stop  offset="0.0277" style="stop-color:#345572"/>
						<stop  offset="0.2179" style="stop-color:#2E4B66"/>
						<stop  offset="0.4673" style="stop-color:#2B465E"/>
						<stop  offset="1" style="stop-color:#2A445C"/>
					</linearGradient>
					<path class="st8" d="M740.6,1163.91c0,0-20.13-0.76-27.91-1.49c-7.79-0.73-27.68,8.56-31.02,8.24
						c-3.34-0.31-40.17,3.03-75.79,8.5c-41.8,6.42-89.29,20.45-99.41,20.63c-1.01,0.02-1.18,40.55-0.82,70.1
						c37.01,13.06,60.45,12.77,116.63-29.76c20.83-15.77,68.76-34.25,90.12-38.15c8.86-1.62,19.18,3.44,34.32,1.92
						C750.38,1177.97,740.6,1163.91,740.6,1163.91z"/>
					
						<linearGradient id="SVGID_00000175324366856811252520000014072869832005038755_" gradientUnits="userSpaceOnUse" x1="838.2332" y1="1148.9962" x2="843.3638" y2="1187.4761" gradientTransform="matrix(0.9791 0.0129 -0.0126 0.9873 28.1219 4.2452)">
						<stop  offset="0" style="stop-color:#F8A164"/>
						<stop  offset="0.1041" style="stop-color:#F8A469"/>
						<stop  offset="0.6304" style="stop-color:#F7B37B"/>
						<stop  offset="1" style="stop-color:#F7B882"/>
					</linearGradient>
					<path style="fill:url(#SVGID_00000175324366856811252520000014072869832005038755_);" d="M924.38,1131.38
						c-6.69,0.93-26.35,9.57-44.44,14.24c-6.54,1.69-27.83,4.21-34.54,5.24c-34.84,5.3-59.91,6.67-99.69,13.64
						c-1.27,0.22-2.83,0.32-4.5,0.39c2.04,3.51,8.58,16.85,5.57,38.75c6.61,0.56,13.02,1.02,17.95,0.93
						c34.18-1.16,56.71-29.21,89.17-31.72c9.99-1.26,13.51,6.94,21.96,5.88c9.31-0.39,14.75-10.11,18.96-14.12
						c15.21-14.47,29.37-13.29,30.57-20.57C926.99,1134.23,929.4,1130.68,924.38,1131.38z"/>
					<g>
						<path class="st10" d="M322.76,1261.54c3.1-2.64,5.5-4.72,6.92-5.7c0.44,0,0.91,0.05,1.36,0.07c0.21-1.67,27.2-0.56,28.1-2.15
							c6.31-11.11,0.65-23.25,0-35.06c-0.7-0.08-30.26,4.36-30.79,4.28c0.5-5.91,1.94-20.85,1.39-23.45
							c-1.13-5.44-5.43-4.37-9.76-3.27c-2.29,0.57-4.56,0.71-6.1-1.38c-0.78-1.08-0.82-1.8-1.99-2.52
							c-0.76-0.44-1.66-0.17-2.39,0.15c-1.3,0.58-1.2,1.96-1.55,0.2c-0.26-1.39-2.34-1.91-3.63-1.55c-1.92,0.53-2,2.88-5.12,0.27
							c-0.8-0.68-1.4-1.56-2.23-2.2c-0.9-0.69-2.02-0.22-2.74,0.51c-2.11,2.2-3.91,4.65-6.26,6.65c-0.75,0.55-1.49,1.06-2.14,1.5
							c-0.33,0.18-0.66,0.32-0.99,0.46c-0.02-1.59-2.12-3.75-4.04-4.25c1.27,1.24,1.81,3.17,1.42,4.97
							c-1.77,0.28-3.66,0.25-5.65,0.25c-3.67,0-7.36,0.61-10.89,1.66c-1.86,0.53-6.73,2.68-11.98,6.3
							C271.73,1264.25,319.53,1257.25,322.76,1261.54z"/>
						<g>
							<path class="st11" d="M322.59,1264.76c-4.13,3.59-12.61,10-22.97,12.71c-8.91,2.32-13.98,1.75-16.66,0.85
								c-0.45-0.15-0.88-0.33-1.25-0.51c0.33,3,0.09,9.89-8.06,13.59c-5.34,2.41-13.29,2.26-21.26-0.39
								c-10.24-3.41-22.08-11.67-21.73-23.7c0.12-4.27,2.08-7.52,4.12-9.77c-0.72,0.08-1.4,0.07-2.03-0.03
								c-2.31-0.35-3.42-2.5-2.99-3.94c0.24-0.82,1.1-1.63,2.71-1.21c1.03,0.27,2.26,0.4,3.65,0.39c-1.53-0.73-2.85-1.76-3.67-2.88
								c-1.08-1.49-0.81-3.2-0.1-4.17c0.96-1.31,2.65-1.23,3.56,0.35c0.46,0.79,1.09,1.62,1.89,2.47
								c-2.01-7.05-4.27-17.68,1.34-28.26c3.4-6.41,8.99-13.75,17.24-16.14l0.49-0.14l0.21,0.47c13.83,11.46,16.98,22.9,31.15,25.11
								l-0.08,1.12c-3.44,0.75-4.21,4.18-4.6,5.78c-0.63,2.56,1.11,7.89,7,8.33c8.93,0.66,17.51-6.47,17.51-6.47
								s20.69,12.12,21.01,18.45l-6.34,7.87L322.59,1264.76z"/>
							<path class="st12" d="M232.36,1245.7c0.96-1.31,2.65-1.23,3.56,0.35c0.46,0.79,1.09,1.62,1.89,2.47
								c-0.11-0.4,31.47,4.3,46.42,30.15c-0.47-0.1-0.89-0.22-1.27-0.35c-0.19-0.06-0.34-0.14-0.52-0.21
								c-0.06-0.07-0.1-0.15-0.16-0.21c-31.69-32.34-47.78-20.05-47.49-20.36c-0.72,0.08-1.4,0.07-2.03-0.03
								c-2.31-0.35-3.42-2.5-2.99-3.94c0.24-0.82,1.1-1.63,2.71-1.21c1.03,0.27,2.26,0.4,3.65,0.39c-1.53-0.73-2.85-1.76-3.67-2.88
								C231.38,1248.39,231.65,1246.67,232.36,1245.7z"/>
							<path class="st12" d="M279.18,1193.31c0,0,3.9,4.32,4.17,11.72C283.54,1210.21,290.29,1196.33,279.18,1193.31z"/>
							<path class="st13" d="M329.76,1200.53c0,0,1.62,15.5-2.45,28.65C327.58,1222.01,328.83,1212.27,329.76,1200.53z"/>
							<path class="st14" d="M313.02,1208.13c1.64,9.24-9.77,17.81-18.98,13.12C284.83,1216.55,311.96,1202.17,313.02,1208.13z"/>
						</g>
					</g>
					
						<linearGradient id="SVGID_00000152965226053794028400000012931339365763997872_" gradientUnits="userSpaceOnUse" x1="431.975" y1="1268.1211" x2="432.7277" y2="1211.6693">
						<stop  offset="0" style="stop-color:#F8A164"/>
						<stop  offset="0.1041" style="stop-color:#F8A469"/>
						<stop  offset="0.6304" style="stop-color:#F7B37B"/>
						<stop  offset="1" style="stop-color:#F7B882"/>
					</linearGradient>
					<path style="fill:url(#SVGID_00000152965226053794028400000012931339365763997872_);" d="M410.41,1195.21l-0.79-0.23
						c-10.51-18.88-31.2-17.28-45.35,0.64c-12.83,16.25-15.97,19.75-25.18,29.16c4.84,49.11,156.85,43.49,165.44,47.81
						c5.65,0.2,7.23-0.43,7.7,0c3.79-21.34,3.4-52.99,14.11-71.84C484,1204.59,426.39,1194.3,410.41,1195.21z"/>
					<path class="st1" d="M425.63,1195.61c-4.81-1.28-10.24-0.69-15.22-0.4l-0.79-0.23c-6.01-16.47-22.37-17.11-34.34-10.27
						c-7.06,16.18-11.87,31.43-32.39,43.4c15.98-1.16,38.87-2.52,44.69,13.52c6.83,18.8-12.4,33.33-29.97,41.25
						c19.21-0.96,43.3-5.55,64.89-9.17C424.74,1247.57,428.11,1224.72,425.63,1195.61z"/>
					<g>
						<path class="st16" d="M420.93,1232.38c-0.99,21.92-3.16,42.67-3.19,43c-0.04,0.35-0.35,0.61-0.71,0.57
							c-0.35-0.04-0.6-0.33-0.57-0.7c0.06-0.53,5.6-53.65,2.98-79.59c-0.03-0.38,0.22-0.66,0.57-0.7c0.35-0.04,0.67,0.22,0.7,0.57
							C421.7,1205.38,421.53,1219.09,420.93,1232.38z"/>
					</g>
					<path class="st3" d="M744.91,1168.14c0,0-20.54-1.02-28.49-1.85c-7.94-0.84-28.37,8.33-31.78,7.97
						c-3.4-0.36-41.06,2.57-77.5,7.67c-42.76,5.99-91.44,19.61-101.77,19.67c-1.03,0.01-1.71,41.05-1.71,70.98
						c37.63,13.68,61.58,13.68,119.47-28.7c21.47-15.72,70.64-33.84,92.51-37.52c9.07-1.53,19.54,3.72,35.03,2.37
						C754.73,1182.5,744.91,1168.14,744.91,1168.14z"/>
					<path class="st17" d="M932.99,1137.46c-6.84,0.86-27.02,9.37-45.56,13.87c-6.7,1.63-28.47,3.93-35.34,4.88
						c-35.64,4.94-61.26,6.02-101.98,12.59c-1.3,0.21-2.9,0.29-4.61,0.34c2.04,3.58,8.55,17.17,5.2,39.31
						c6.74,0.64,13.28,1.2,18.32,1.17c34.92-0.75,58.28-28.88,91.45-31.03c10.21-1.15,13.71,7.2,22.35,6.22
						c9.52-0.28,15.19-10.06,19.54-14.07c15.71-14.47,30.15-13.1,31.47-20.46C935.62,1140.38,938.13,1136.81,932.99,1137.46z"/>
					<g class="st18">
						
							<linearGradient id="SVGID_00000101104156112870938110000013950116265896315576_" gradientUnits="userSpaceOnUse" x1="491.6181" y1="887.78" x2="738.3424" y2="887.78" gradientTransform="matrix(0.2275 -0.9524 0.9604 0.229 -439.9524 1523.5702)">
							<stop  offset="0" style="stop-color:#355775"/>
							<stop  offset="0.0277" style="stop-color:#345572"/>
							<stop  offset="0.2179" style="stop-color:#2E4B66"/>
							<stop  offset="0.4673" style="stop-color:#2B465E"/>
							<stop  offset="1" style="stop-color:#2A445C"/>
						</linearGradient>
						<path style="fill:url(#SVGID_00000101104156112870938110000013950116265896315576_);" d="M523,1017.45
							c0,0-5.16,19.47-7.58,26.9c-2.42,7.44,2.27,28.89,1.23,32.07c-1.04,3.19-5.86,39.85-8.34,75.8
							c-2.91,42.19,0.35,91.6-1.69,101.51c-0.2,0.99,39.3,10.05,68.21,16.19c20.87-33.24,25.73-56.17-3.43-120.31
							c-10.82-23.79-18.32-74.6-17.43-96.3c0.37-9,7.56-17.96,9.41-33.06C538.86,1010.99,523,1017.45,523,1017.45z"/>
						
							<linearGradient id="SVGID_00000173838965142884205770000004696287840892127365_" gradientUnits="userSpaceOnUse" x1="826.4241" y1="813.6469" x2="831.5551" y2="852.1295" gradientTransform="matrix(0.2275 -0.9524 0.9604 0.229 -439.9524 1523.5702)">
							<stop  offset="0" style="stop-color:#F8A164"/>
							<stop  offset="0.1041" style="stop-color:#F8A469"/>
							<stop  offset="0.6304" style="stop-color:#F7B37B"/>
							<stop  offset="1" style="stop-color:#F7B882"/>
						</linearGradient>
						<path style="fill:url(#SVGID_00000173838965142884205770000004696287840892127365_);" d="M531.6,831.02
							c-0.56,6.73,3.56,27.81,4.14,46.48c0.21,6.75-2,28.08-2.47,34.85c-2.48,35.15-6.64,59.91-8.57,100.26
							c-0.06,1.29-0.31,2.84-0.61,4.48c3.88-1.21,18.32-4.67,39.03,3.08c1.99-6.33,3.86-12.48,4.85-17.31
							c6.38-33.6-16.05-61.74-11.38-93.96c0.97-10.02,9.74-11.65,10.55-20.13c1.66-9.17-6.63-16.61-9.61-21.6
							c-10.78-18.02-6.52-31.57-13.36-34.34C534.96,829.09,532.02,825.96,531.6,831.02z"/>
						<path class="st3" d="M528.07,1014.17c0,0-5.5,19.82-8.06,27.38c-2.56,7.57,1.89,29.51,0.8,32.75
							c-1.1,3.24-6.5,40.62-9.53,77.29c-3.55,43.03-0.94,93.51-3.15,103.61c-0.22,1.01,39.67,10.68,68.88,17.25
							c21.61-33.71,26.87-57.07-1.77-122.85c-10.62-24.4-17.51-76.34-16.3-98.49c0.5-9.18,7.92-18.25,10-33.65
							C544.23,1007.75,528.07,1014.17,528.07,1014.17z"/>
						<path class="st17" d="M539.42,823.95c-0.67,6.86,3.21,28.42,3.53,47.49c0.12,6.9-2.42,28.64-3,35.55
							c-3.01,35.86-7.58,61.09-10.1,102.25c-0.08,1.32-0.35,2.89-0.68,4.57c3.94-1.2,18.63-4.57,39.49,3.55
							c2.11-6.44,4.08-12.7,5.16-17.62c6.93-34.23-15.38-63.2-10.2-96.03c1.12-10.22,10.03-11.79,10.98-20.44
							c1.82-9.35-6.48-17.03-9.43-22.15c-10.67-18.51-6.16-32.29-13.05-35.2C542.85,822.02,539.92,818.8,539.42,823.95z"/>
					</g>
					<path class="st10" d="M339.49,1236.73c-6.04,9.26-2.94,35.63,9.54,43.61c9.26,5.92,53.94,4.04,104.19,4.21
						c31.62,8.55,76.05-3.77,106.21,2.59c0,0,13.11,7.62,34.83,7.25c4.89-0.09,21.88-2.14,30.43-3.85
						c8.55-1.71-24.4-11.61-27.37-11.97c0,0-23.28-8.8-29.08-7.7c-5.8,1.11-91.08-9.49-108.18-11.97
						c-6.99-2.19-47.16-13.75-51.31-14.54c-16.7-1.88-56.41-7.77-56.42-7.38c-3.86-0.37-7.99-0.7-12.43-1.02
						C339.75,1236.22,339.66,1236.48,339.49,1236.73z"/>
				</g>
			</g>
		</g>
		<path class="st21" d="M820.49,1084.34c-0.58-0.17-1.2,0.14-1.38,0.72l-3.24,10.29c-11.97-74.09-53.93-112.65-87.24-131.94
			c-28.5-16.5-55.55-22.08-66.21-23.75l9.18-2.61c0.59-0.17,0.93-0.78,0.76-1.36c-0.17-0.59-0.77-0.94-1.36-0.76l-14.12,4.02
			c-0.41,0.11-0.71,0.45-0.78,0.87c-0.07,0.42,0.1,0.84,0.44,1.09l12.65,9.15c0.2,0.14,0.42,0.21,0.65,0.21
			c0.34,0,0.68-0.16,0.89-0.46c0.36-0.49,0.25-1.18-0.25-1.54l-8.99-6.51c22.48,3.5,131.74,27.05,152.23,153.98l-5.59-8.2
			c-0.34-0.51-1.03-0.62-1.53-0.29c-0.5,0.34-0.63,1.03-0.29,1.53l8.27,12.13c0.21,0.31,0.55,0.48,0.91,0.48
			c0.05,0,0.11,0,0.16-0.01c0.42-0.06,0.76-0.36,0.89-0.76l4.69-14.89C821.39,1085.15,821.07,1084.53,820.49,1084.34z"/>
	</g>
</g>
<rect x="-780.86" y="149.33" class="st2" width="547.35" height="280.43"/>
<text transform="matrix(1 0 0 1 -736.6948 210.6766)"><tspan x="0" y="0" class="st4 st5 st6">Yogaa Flow</tspan><tspan x="43.42" y="102" class="st4 st5 st6">by nimba</tspan></text>
</svg>
